<svg width="512" height="512" version="1.1" xmlns="http://www.w3.org/2000/svg" desc="Created with imagetracer.js version 1.2.6" ><path fill="rgb(0,0,0)" stroke="rgb(0,0,0)" stroke-width="1" opacity="0" d="M 0 0 L 467 0.5 Q 455.521 3.021 449 10.5 Q 439.591 21.091 437 38.5 L 432.5 43 Q 428.857 45.857 421.5 45 Q 410.864 38.636 392.5 40 Q 377.546 43.046 369 52.5 L 366.5 56 Q 359.118 49.382 343.5 51 Q 330.365 54.365 323.5 64 Q 317.493 53.007 298.5 55 L 292.5 58 L 254 96.5 Q 249.909 101.909 251 112.5 Q 253.977 125.023 264 130.5 L 261.5 129 Q 245.779 117.221 215.5 120 Q 185.882 125.382 171 145.5 L 161 162.5 Q 153.988 185.988 142 204.5 Q 131.179 220.679 116.5 233 Q 85.969 257.469 39.5 266 Q 26.253 271.753 17 281.5 Q 4.049 293.549 0.5 315 L 0 0 Z " /><path fill="rgb(0,0,0)" stroke="rgb(0,0,0)" stroke-width="1" opacity="0" d="M 485.5 0 L 512 0 L 512 26.5 L 511 26.5 Q 508.114 12.386 497.5 6 Q 493.174 1.826 485.5 1 L 485.5 0 Z " /><path fill="rgb(0,0,0)" stroke="rgb(0,0,0)" stroke-width="1" opacity="0" d="M 511.5 45 L 512 512 L 196 511.5 Q 220.696 507.196 234 491.5 L 246 472.5 Q 252.652 440.152 266 414.5 Q 277.882 393.882 295.5 379 Q 322.696 357.696 359.5 346 L 378 329.5 Q 394.836 312.336 392 275.5 Q 389.5 259 381 248.5 L 391.5 258 Q 396.909 262.091 407.5 261 L 415.5 258 L 454 219.5 Q 459 214 457 201.5 Q 454.358 192.642 448 187.5 Q 462.091 180.091 461 157.5 L 456 145.5 L 462 140.5 Q 473.178 130.178 472 107.5 Q 466.318 99.182 467 84.5 Q 468.821 77.321 474.5 74 Q 493.247 72.247 503 61.5 Q 509.29 55.29 511.5 45 Z " /><path fill="rgb(0,0,0)" stroke="rgb(0,0,0)" stroke-width="1" opacity="0" d="M 0.5 339 Q 3.791 357.209 14 368.5 L 143.5 498 Q 154.992 508.508 174 511.5 L 0 512 L 0.5 339 Z " /><path fill="rgb(139,202,255)" stroke="rgb(139,202,255)" stroke-width="1" opacity="0.9921568627450981" d="M 219.5 120 Q 266.75 120.25 284 150.5 L 282.5 150 Q 268.969 145.031 248.5 147 Q 216.678 152.678 200 173.5 L 198.5 176 L 170 148.5 L 183.5 134 Q 197.073 122.573 219.5 120 Z " /><path fill="rgb(139,202,255)" stroke="rgb(139,202,255)" stroke-width="1" opacity="0.9921568627450981" d="M 193.5 231 L 198.5 232 L 221 254.5 L 222 258.5 L 217.5 265 L 210.5 265 L 188 242.5 L 187 237.5 L 189 233 L 193.5 231 Z " /><path fill="rgb(139,202,255)" stroke="rgb(139,202,255)" stroke-width="1" opacity="0.9921568627450981" d="M 160.5 264 L 165.5 265 L 188 287.5 L 189 292.5 L 184.5 298 L 176.5 297 L 156 276.5 L 154 271.5 L 156 266 L 160.5 264 Z " /><path fill="rgb(139,202,255)" stroke="rgb(139,202,255)" stroke-width="1" opacity="0.9921568627450981" d="M 127.5 297 Q 132.8 296.2 134.5 299 L 154 318.5 L 156 325.5 L 151.5 331 L 143.5 330 L 123 309.5 L 122 301.5 L 123 299 L 127.5 297 Z " /><path fill="rgb(139,202,255)" stroke="rgb(139,202,255)" stroke-width="1" opacity="0.9921568627450981" d="M 93.5 330 L 100.5 331 L 122 352.5 L 123 358.5 L 118.5 364 L 112.5 364 L 89 340.5 Q 87.5 331.5 93.5 330 Z " /><path fill="rgb(254,111,197)" stroke="rgb(254,111,197)" stroke-width="1" opacity="0.9921568627450981" d="M 298.5 55 Q 317.985 53.015 324 64.5 L 446.5 188 L 454 194.5 Q 458.8 200.7 457 213.5 L 454 219.5 L 415.5 258 Q 410.091 262.091 399.5 261 Q 384.432 257.068 378 244.5 L 292.5 158 L 290 156.5 L 268.5 134 L 254 120.5 Q 249.909 115.091 251 104.5 L 254 96.5 L 292.5 58 L 298.5 55 Z " /><path fill="rgb(184,214,252)" stroke="rgb(184,214,252)" stroke-width="1" opacity="0.5882352941176471" d="M 215.5 120 L 219 120.5 L 215.5 121 L 215.5 120 Z " /><path fill="rgb(184,214,252)" stroke="rgb(184,214,252)" stroke-width="1" opacity="0.5882352941176471" d="M 233.5 120 L 237 120.5 L 233.5 121 L 233.5 120 Z " /><path fill="rgb(184,214,252)" stroke="rgb(184,214,252)" stroke-width="1" opacity="0.5882352941176471" d="M 209.5 121 L 212 121.5 L 209.5 122 L 209.5 121 Z " /><path fill="rgb(184,214,252)" stroke="rgb(184,214,252)" stroke-width="1" opacity="0.5882352941176471" d="M 197.5 125 L 199 125.5 L 190.5 130 L 191.5 128 L 197.5 125 Z " /><path fill="rgb(184,214,252)" stroke="rgb(184,214,252)" stroke-width="1" opacity="0.5882352941176471" d="M 261.5 129 L 262.5 131 L 261.5 129 Z " /><path fill="rgb(184,214,252)" stroke="rgb(184,214,252)" stroke-width="1" opacity="0.5882352941176471" d="M 188.5 130 L 187.5 132 L 188.5 130 Z " /><path fill="rgb(184,214,252)" stroke="rgb(184,214,252)" stroke-width="1" opacity="0.5882352941176471" d="M 264.5 131 L 265.5 133 L 264.5 131 Z " /><path fill="rgb(184,214,252)" stroke="rgb(184,214,252)" stroke-width="1" opacity="0.5882352941176471" d="M 185.5 132 L 184.5 134 L 185.5 132 Z " /><path fill="rgb(184,214,252)" stroke="rgb(184,214,252)" stroke-width="1" opacity="0.5882352941176471" d="M 182.5 134 L 171.5 146 L 182.5 134 Z " /><path fill="rgb(184,214,252)" stroke="rgb(184,214,252)" stroke-width="1" opacity="0.5882352941176471" d="M 268.5 134 L 270.5 137 L 268.5 134 Z " /><path fill="rgb(184,214,252)" stroke="rgb(184,214,252)" stroke-width="1" opacity="0.5882352941176471" d="M 170.5 147 L 169 149.5 L 161.5 164 L 161 162.5 L 170.5 147 Z " /><path fill="rgb(184,214,252)" stroke="rgb(184,214,252)" stroke-width="1" opacity="0.5882352941176471" d="M 160.5 165 L 161 166.5 L 154.5 181 L 154 179.5 L 160.5 165 Z " /><path fill="rgb(184,214,252)" stroke="rgb(184,214,252)" stroke-width="1" opacity="0.5882352941176471" d="M 153.5 182 L 154 183.5 L 149.5 192 L 150 190.5 L 153.5 182 Z " /><path fill="rgb(184,214,252)" stroke="rgb(184,214,252)" stroke-width="1" opacity="0.5882352941176471" d="M 148.5 193 L 148 194.5 Q 139.283 213.783 124.5 227 Q 106.966 244.466 81.5 254 L 81.5 253 Q 113.289 240.789 133 216.5 L 148.5 193 Z " /><path fill="rgb(184,214,252)" stroke="rgb(184,214,252)" stroke-width="1" opacity="0.5882352941176471" d="M 375.5 241 L 377.5 244 L 375.5 241 Z " /><path fill="rgb(184,214,252)" stroke="rgb(184,214,252)" stroke-width="1" opacity="0.5882352941176471" d="M 379.5 246 L 380.5 248 L 379.5 246 Z " /><path fill="rgb(184,214,252)" stroke="rgb(184,214,252)" stroke-width="1" opacity="0.5882352941176471" d="M 381.5 249 L 382.5 251 L 381.5 249 Z " /><path fill="rgb(184,214,252)" stroke="rgb(184,214,252)" stroke-width="1" opacity="0.5882352941176471" d="M 78.5 254 L 80 254.5 L 75.5 256 L 75.5 255 L 78.5 254 Z " /><path fill="rgb(184,214,252)" stroke="rgb(184,214,252)" stroke-width="1" opacity="0.5882352941176471" d="M 68.5 257 L 71 257.5 L 62.5 260 L 62.5 259 L 68.5 257 Z " /><path fill="rgb(184,214,252)" stroke="rgb(184,214,252)" stroke-width="1" opacity="0.5882352941176471" d="M 58.5 260 L 61 260.5 L 55.5 262 L 55.5 261 L 58.5 260 Z " /><path fill="rgb(184,214,252)" stroke="rgb(184,214,252)" stroke-width="1" opacity="0.5882352941176471" d="M 51.5 262 L 54 262.5 L 45.5 265 L 45.5 264 L 51.5 262 Z " /><path fill="rgb(184,214,252)" stroke="rgb(184,214,252)" stroke-width="1" opacity="0.5882352941176471" d="M 42.5 265 L 44 265.5 Q 24.902 271.902 14 286.5 Q 5.665 295.665 2.5 310 L 2 307.5 Q 7.736 289.236 20.5 278 Q 29.6 269.6 42.5 265 Z " /><path fill="rgb(184,214,252)" stroke="rgb(184,214,252)" stroke-width="1" opacity="0.5882352941176471" d="M 391.5 275 L 392 278.5 L 391 278.5 L 391.5 275 Z " /><path fill="rgb(184,214,252)" stroke="rgb(184,214,252)" stroke-width="1" opacity="0.5882352941176471" d="M 391.5 293 L 392 296.5 L 391 296.5 L 391.5 293 Z " /><path fill="rgb(184,214,252)" stroke="rgb(184,214,252)" stroke-width="1" opacity="0.5882352941176471" d="M 390.5 300 L 391 302.5 L 390 302.5 L 390.5 300 Z " /><path fill="rgb(184,214,252)" stroke="rgb(184,214,252)" stroke-width="1" opacity="0.5882352941176471" d="M 1.5 311 L 2 314.5 L 0.5 322 L 0 315.5 L 1.5 311 Z " /><path fill="rgb(184,214,252)" stroke="rgb(184,214,252)" stroke-width="1" opacity="0.5882352941176471" d="M 386.5 313 L 387 314.5 L 382.5 322 L 383 320.5 L 386.5 313 Z " /><path fill="rgb(184,214,252)" stroke="rgb(184,214,252)" stroke-width="1" opacity="0.5882352941176471" d="M 381.5 323 L 380.5 325 L 381.5 323 Z " /><path fill="rgb(184,214,252)" stroke="rgb(184,214,252)" stroke-width="1" opacity="0.5882352941176471" d="M 379.5 326 L 378.5 328 L 379.5 326 Z " /><path fill="rgb(184,214,252)" stroke="rgb(184,214,252)" stroke-width="1" opacity="0.5882352941176471" d="M 377.5 329 L 366.5 341 L 377.5 329 Z " /><path fill="rgb(184,214,252)" stroke="rgb(184,214,252)" stroke-width="1" opacity="0.5882352941176471" d="M 0.5 332 L 2 342.5 L 1 342.5 L 0.5 332 Z " /><path fill="rgb(184,214,252)" stroke="rgb(184,214,252)" stroke-width="1" opacity="0.5882352941176471" d="M 364.5 341 L 362.5 344 L 341.5 354 L 341.5 353 Q 355.393 349.393 364.5 341 Z " /><path fill="rgb(184,214,252)" stroke="rgb(184,214,252)" stroke-width="1" opacity="0.5882352941176471" d="M 2.5 344 L 6 353.5 L 5 353.5 Q 0.717 349.617 2.5 344 Z " /><path fill="rgb(184,214,252)" stroke="rgb(184,214,252)" stroke-width="1" opacity="0.5882352941176471" d="M 338.5 354 L 340 354.5 L 336.5 356 L 336.5 355 L 338.5 354 Z " /><path fill="rgb(184,214,252)" stroke="rgb(184,214,252)" stroke-width="1" opacity="0.5882352941176471" d="M 6.5 355 L 16 369.5 L 143.5 497 L 153 503.5 L 151.5 503 L 143.5 498 L 14 368.5 L 6 356.5 L 6.5 355 Z " /><path fill="rgb(184,214,252)" stroke="rgb(184,214,252)" stroke-width="1" opacity="0.5882352941176471" d="M 333.5 356 L 335 356.5 L 331.5 358 L 331.5 357 L 333.5 356 Z " /><path fill="rgb(184,214,252)" stroke="rgb(184,214,252)" stroke-width="1" opacity="0.5882352941176471" d="M 328.5 358 L 330 358.5 L 322.5 362 L 322.5 361 L 328.5 358 Z " /><path fill="rgb(184,214,252)" stroke="rgb(184,214,252)" stroke-width="1" opacity="0.5882352941176471" d="M 320.5 362 L 319.5 364 L 308.5 370 L 309.5 368 L 320.5 362 Z " /><path fill="rgb(184,214,252)" stroke="rgb(184,214,252)" stroke-width="1" opacity="0.5882352941176471" d="M 306.5 370 L 305.5 372 L 306.5 370 Z " /><path fill="rgb(184,214,252)" stroke="rgb(184,214,252)" stroke-width="1" opacity="0.5882352941176471" d="M 303.5 372 L 301.5 375 Q 288.7 382.7 280 394.5 L 266.5 414 L 267 412.5 Q 277.875 391.875 295.5 378 L 303.5 372 Z " /><path fill="rgb(184,214,252)" stroke="rgb(184,214,252)" stroke-width="1" opacity="0.5882352941176471" d="M 265.5 415 L 265 416.5 L 261.5 424 L 261 422.5 L 265.5 415 Z " /><path fill="rgb(184,214,252)" stroke="rgb(184,214,252)" stroke-width="1" opacity="0.5882352941176471" d="M 260.5 425 L 261 426.5 L 257.5 434 L 257 432.5 L 260.5 425 Z " /><path fill="rgb(184,214,252)" stroke="rgb(184,214,252)" stroke-width="1" opacity="0.5882352941176471" d="M 254.5 441 L 255 443.5 L 253.5 447 L 253 444.5 L 254.5 441 Z " /><path fill="rgb(184,214,252)" stroke="rgb(184,214,252)" stroke-width="1" opacity="0.5882352941176471" d="M 252.5 448 L 253 450.5 L 251.5 454 L 251 451.5 L 252.5 448 Z " /><path fill="rgb(184,214,252)" stroke="rgb(184,214,252)" stroke-width="1" opacity="0.5882352941176471" d="M 249.5 458 L 250 460.5 L 248.5 464 L 248 461.5 L 249.5 458 Z " /><path fill="rgb(184,214,252)" stroke="rgb(184,214,252)" stroke-width="1" opacity="0.5882352941176471" d="M 245.5 471 L 246 472.5 L 240.5 482 L 241 480.5 L 245.5 471 Z " /><path fill="rgb(184,214,252)" stroke="rgb(184,214,252)" stroke-width="1" opacity="0.5882352941176471" d="M 239.5 483 L 238 485.5 L 229.5 496 Q 222.255 503.255 211.5 507 L 211.5 506 Q 227.625 499.625 237 486.5 L 239.5 483 Z " /><path fill="rgb(184,214,252)" stroke="rgb(184,214,252)" stroke-width="1" opacity="0.5882352941176471" d="M 154.5 504 L 157 505.5 L 155.5 506 L 154.5 504 Z " /><path fill="rgb(184,214,252)" stroke="rgb(184,214,252)" stroke-width="1" opacity="0.5882352941176471" d="M 160.5 507 L 168 509.5 L 165.5 510 Q 159.786 509.464 160.5 507 Z " /><path fill="rgb(184,214,252)" stroke="rgb(184,214,252)" stroke-width="1" opacity="0.5882352941176471" d="M 208.5 507 L 210 507.5 L 206.5 509 L 206.5 508 L 208.5 507 Z " /><path fill="rgb(184,214,252)" stroke="rgb(184,214,252)" stroke-width="1" opacity="0.5882352941176471" d="M 202.5 509 L 205 509.5 L 202.5 510 L 202.5 509 Z " /><path fill="rgb(184,214,252)" stroke="rgb(184,214,252)" stroke-width="1" opacity="0.5882352941176471" d="M 169.5 510 L 172 510.5 L 169.5 511 L 169.5 510 Z " /><path fill="rgb(184,214,252)" stroke="rgb(184,214,252)" stroke-width="1" opacity="0.5882352941176471" d="M 198.5 510 L 201 510.5 L 198.5 511 L 198.5 510 Z " /><path fill="rgb(184,214,252)" stroke="rgb(184,214,252)" stroke-width="1" opacity="0.5882352941176471" d="M 174.5 511 L 179 511.5 L 174.5 512 L 174.5 511 Z " /><path fill="rgb(184,214,252)" stroke="rgb(184,214,252)" stroke-width="1" opacity="0.5882352941176471" d="M 191.5 511 L 196 511.5 L 191.5 512 L 191.5 511 Z " /><path fill="rgb(254,233,116)" stroke="rgb(254,233,116)" stroke-width="1" opacity="0.984313725490196" d="M 467.5 0 Q 496.46 -2.46 506 14.5 Q 514.684 23.816 512 44.5 Q 508.888 56.888 500.5 64 Q 490.955 72.455 474.5 74 L 469 79.5 Q 466.143 83.143 467 90.5 Q 473.364 101.136 472 119.5 Q 468.954 134.454 459.5 143 L 456 145.5 Q 462.618 152.882 461 168.5 Q 457 181 447.5 188 L 324 65.5 L 331.5 57 Q 338.167 49.167 354.5 51 L 366.5 56 L 371.5 50 Q 381.822 38.822 404.5 40 Q 412.818 45.682 427.5 45 Q 433.964 43.464 437 38.5 Q 439.766 19.766 450.5 9 Q 457.046 2.546 467.5 0 Z " /><path fill="rgb(181,220,255)" stroke="rgb(181,220,255)" stroke-width="1" opacity="0.996078431372549" d="M 271.5 137 L 379 245.5 Q 392.898 261.602 392 292.5 Q 387.054 325.054 365.5 341 L 363.5 342 L 197.5 177 L 191 187.5 Q 182.743 213.243 170 234.5 Q 159.214 251.214 144.5 264 Q 128.545 278.045 107.5 287 Q 77.314 293.314 52.5 305 Q 40.35 311.85 32 322.5 Q 17.387 339.387 16.5 370 Q 0.258 354.242 0 322.5 Q 4.188 290.188 25.5 275 L 44.5 265 Q 74.41 259.41 97.5 247 Q 114.888 237.387 128 223.5 L 145 201.5 Q 155.789 173.237 169 149 L 170.5 149 L 198.5 176 L 209.5 164 Q 228.708 144.708 269.5 147 L 282.5 150 L 271.5 137 Z " /><path fill="rgb(181,220,255)" stroke="rgb(181,220,255)" stroke-width="1" opacity="0.996078431372549" d="M 199.5 232 L 220.5 254 L 199.5 232 Z " /><path fill="rgb(181,220,255)" stroke="rgb(181,220,255)" stroke-width="1" opacity="0.996078431372549" d="M 189.5 244 L 208.5 264 L 189.5 244 Z " /><path fill="rgb(181,220,255)" stroke="rgb(181,220,255)" stroke-width="1" opacity="0.996078431372549" d="M 220.5 262 L 218.5 265 L 220.5 262 Z " /><path fill="rgb(181,220,255)" stroke="rgb(181,220,255)" stroke-width="1" opacity="0.996078431372549" d="M 158.5 264 L 160 264.5 L 157.5 266 L 158.5 264 Z " /><path fill="rgb(181,220,255)" stroke="rgb(181,220,255)" stroke-width="1" opacity="0.996078431372549" d="M 166.5 265 L 187.5 287 L 166.5 265 Z " /><path fill="rgb(181,220,255)" stroke="rgb(181,220,255)" stroke-width="1" opacity="0.996078431372549" d="M 211.5 265 L 217 265.5 L 211.5 266 L 211.5 265 Z " /><path fill="rgb(181,220,255)" stroke="rgb(181,220,255)" stroke-width="1" opacity="0.996078431372549" d="M 187.5 295 L 185.5 298 L 187.5 295 Z " /><path fill="rgb(181,220,255)" stroke="rgb(181,220,255)" stroke-width="1" opacity="0.996078431372549" d="M 125.5 297 L 127 297.5 L 124.5 299 L 125.5 297 Z " /><path fill="rgb(181,220,255)" stroke="rgb(181,220,255)" stroke-width="1" opacity="0.996078431372549" d="M 132.5 297 L 133.5 299 L 132.5 297 Z " /><path fill="rgb(181,220,255)" stroke="rgb(181,220,255)" stroke-width="1" opacity="0.996078431372549" d="M 179.5 298 L 184 298.5 L 179.5 299 L 179.5 298 Z " /><path fill="rgb(181,220,255)" stroke="rgb(181,220,255)" stroke-width="1" opacity="0.996078431372549" d="M 121.5 302 L 122 306.5 L 121 306.5 L 121.5 302 Z " /><path fill="rgb(181,220,255)" stroke="rgb(181,220,255)" stroke-width="1" opacity="0.996078431372549" d="M 154.5 319 L 156 321.5 L 155 321.5 L 154.5 319 Z " /><path fill="rgb(181,220,255)" stroke="rgb(181,220,255)" stroke-width="1" opacity="0.996078431372549" d="M 154.5 328 L 152.5 331 L 154.5 328 Z " /><path fill="rgb(181,220,255)" stroke="rgb(181,220,255)" stroke-width="1" opacity="0.996078431372549" d="M 92.5 330 L 89.5 334 L 92.5 330 Z " /><path fill="rgb(181,220,255)" stroke="rgb(181,220,255)" stroke-width="1" opacity="0.996078431372549" d="M 146.5 331 L 151 331.5 L 146.5 332 L 146.5 331 Z " /><path fill="rgb(181,220,255)" stroke="rgb(181,220,255)" stroke-width="1" opacity="0.996078431372549" d="M 88.5 335 L 89 339.5 L 88 339.5 L 88.5 335 Z " /><path fill="rgb(181,220,255)" stroke="rgb(181,220,255)" stroke-width="1" opacity="0.996078431372549" d="M 89.5 341 L 111.5 364 L 89.5 341 Z " /><path fill="rgb(181,220,255)" stroke="rgb(181,220,255)" stroke-width="1" opacity="0.996078431372549" d="M 121.5 361 L 119.5 364 L 121.5 361 Z " /><path fill="rgb(181,220,255)" stroke="rgb(181,220,255)" stroke-width="1" opacity="0.996078431372549" d="M 114.5 364 L 117 364.5 L 114.5 365 L 114.5 364 Z " /><path fill="rgb(218,236,255)" stroke="rgb(218,236,255)" stroke-width="1" opacity="0.9921568627450981" d="M 286.5 152 L 289.5 156 L 286.5 152 Z " /><path fill="rgb(218,236,255)" stroke="rgb(218,236,255)" stroke-width="1" opacity="0.9921568627450981" d="M 292.5 158 L 374.5 241 L 292.5 158 Z " /><path fill="rgb(218,236,255)" stroke="rgb(218,236,255)" stroke-width="1" opacity="0.9921568627450981" d="M 197.5 177 L 196.5 179 L 197.5 177 Z " /><path fill="rgb(218,236,255)" stroke="rgb(218,236,255)" stroke-width="1" opacity="0.9921568627450981" d="M 194.5 182 L 194 183.5 L 192.5 186 L 193 184.5 L 194.5 182 Z " /><path fill="rgb(218,236,255)" stroke="rgb(218,236,255)" stroke-width="1" opacity="0.9921568627450981" d="M 177.5 220 L 178 221.5 L 176 222.5 L 177.5 220 Z " /><path fill="rgb(218,236,255)" stroke="rgb(218,236,255)" stroke-width="1" opacity="0.9921568627450981" d="M 175.5 224 L 176 225.5 L 174 226.5 L 175.5 224 Z " /><path fill="rgb(218,236,255)" stroke="rgb(218,236,255)" stroke-width="1" opacity="0.9921568627450981" d="M 172.5 230 L 172 231.5 L 170.5 234 L 171 232.5 L 172.5 230 Z " /><path fill="rgb(218,236,255)" stroke="rgb(218,236,255)" stroke-width="1" opacity="0.9921568627450981" d="M 189.5 232 L 188.5 234 L 189.5 232 Z " /><path fill="rgb(218,236,255)" stroke="rgb(218,236,255)" stroke-width="1" opacity="0.9921568627450981" d="M 169.5 235 L 168.5 237 L 169.5 235 Z " /><path fill="rgb(218,236,255)" stroke="rgb(218,236,255)" stroke-width="1" opacity="0.9921568627450981" d="M 167.5 238 L 166.5 240 L 167.5 238 Z " /><path fill="rgb(218,236,255)" stroke="rgb(218,236,255)" stroke-width="1" opacity="0.9921568627450981" d="M 165.5 241 L 163.5 244 L 165.5 241 Z " /><path fill="rgb(218,236,255)" stroke="rgb(218,236,255)" stroke-width="1" opacity="0.9921568627450981" d="M 187.5 242 L 188.5 244 L 187.5 242 Z " /><path fill="rgb(218,236,255)" stroke="rgb(218,236,255)" stroke-width="1" opacity="0.9921568627450981" d="M 161.5 246 L 158.5 250 L 161.5 246 Z " /><path fill="rgb(218,236,255)" stroke="rgb(218,236,255)" stroke-width="1" opacity="0.9921568627450981" d="M 156.5 252 L 146.5 263 L 156.5 252 Z " /><path fill="rgb(218,236,255)" stroke="rgb(218,236,255)" stroke-width="1" opacity="0.9921568627450981" d="M 143.5 264 L 140.5 268 L 143.5 264 Z " /><path fill="rgb(218,236,255)" stroke="rgb(218,236,255)" stroke-width="1" opacity="0.9921568627450981" d="M 156.5 265 L 155.5 267 L 156.5 265 Z " /><path fill="rgb(218,236,255)" stroke="rgb(218,236,255)" stroke-width="1" opacity="0.9921568627450981" d="M 167.5 265 L 187.5 286 L 167.5 265 Z " /><path fill="rgb(218,236,255)" stroke="rgb(218,236,255)" stroke-width="1" opacity="0.9921568627450981" d="M 137.5 269 L 136.5 271 L 137.5 269 Z " /><path fill="rgb(218,236,255)" stroke="rgb(218,236,255)" stroke-width="1" opacity="0.9921568627450981" d="M 130.5 274 L 129.5 276 L 130.5 274 Z " /><path fill="rgb(218,236,255)" stroke="rgb(218,236,255)" stroke-width="1" opacity="0.9921568627450981" d="M 155.5 276 L 176.5 298 L 155.5 276 Z " /><path fill="rgb(218,236,255)" stroke="rgb(218,236,255)" stroke-width="1" opacity="0.9921568627450981" d="M 125.5 277 L 124.5 279 L 125.5 277 Z " /><path fill="rgb(218,236,255)" stroke="rgb(218,236,255)" stroke-width="1" opacity="0.9921568627450981" d="M 116.5 282 L 115.5 284 L 114 283.5 L 116.5 282 Z " /><path fill="rgb(218,236,255)" stroke="rgb(218,236,255)" stroke-width="1" opacity="0.9921568627450981" d="M 127.5 296 L 131 296.5 L 127.5 297 L 127.5 296 Z " /><path fill="rgb(218,236,255)" stroke="rgb(218,236,255)" stroke-width="1" opacity="0.9921568627450981" d="M 123.5 298 L 122.5 300 L 123.5 298 Z " /><path fill="rgb(218,236,255)" stroke="rgb(218,236,255)" stroke-width="1" opacity="0.9921568627450981" d="M 134.5 298 L 154.5 319 L 134.5 298 Z " /><path fill="rgb(218,236,255)" stroke="rgb(218,236,255)" stroke-width="1" opacity="0.9921568627450981" d="M 52.5 305 L 51.5 307 L 52.5 305 Z " /><path fill="rgb(218,236,255)" stroke="rgb(218,236,255)" stroke-width="1" opacity="0.9921568627450981" d="M 49.5 307 L 48.5 309 L 49.5 307 Z " /><path fill="rgb(218,236,255)" stroke="rgb(218,236,255)" stroke-width="1" opacity="0.9921568627450981" d="M 122.5 309 L 143.5 331 L 122.5 309 Z " /><path fill="rgb(218,236,255)" stroke="rgb(218,236,255)" stroke-width="1" opacity="0.9921568627450981" d="M 43.5 311 L 38.5 317 L 43.5 311 Z " /><path fill="rgb(218,236,255)" stroke="rgb(218,236,255)" stroke-width="1" opacity="0.9921568627450981" d="M 35.5 319 L 32.5 323 L 35.5 319 Z " /><path fill="rgb(218,236,255)" stroke="rgb(218,236,255)" stroke-width="1" opacity="0.9921568627450981" d="M 31.5 324 L 29.5 327 L 31.5 324 Z " /><path fill="rgb(218,236,255)" stroke="rgb(218,236,255)" stroke-width="1" opacity="0.9921568627450981" d="M 27.5 330 L 26.5 332 L 27.5 330 Z " /><path fill="rgb(218,236,255)" stroke="rgb(218,236,255)" stroke-width="1" opacity="0.9921568627450981" d="M 100.5 330 L 122.5 353 L 100.5 330 Z " /><path fill="rgb(218,236,255)" stroke="rgb(218,236,255)" stroke-width="1" opacity="0.9921568627450981" d="M 90.5 331 L 89.5 333 L 90.5 331 Z " /><path fill="rgb(218,236,255)" stroke="rgb(218,236,255)" stroke-width="1" opacity="0.9921568627450981" d="M 90.5 343 L 109.5 363 L 90.5 343 Z " /><path fill="rgb(218,236,255)" stroke="rgb(218,236,255)" stroke-width="1" opacity="0.9921568627450981" d="M 360.5 343 L 359.5 345 L 360.5 343 Z " /><path fill="rgb(218,236,255)" stroke="rgb(218,236,255)" stroke-width="1" opacity="0.9921568627450981" d="M 18.5 353 L 19 355.5 L 18 355.5 L 18.5 353 Z " /><path fill="rgb(218,236,255)" stroke="rgb(218,236,255)" stroke-width="1" opacity="0.9921568627450981" d="M 123.5 355 L 124 358.5 L 123 358.5 L 123.5 355 Z " /><path fill="rgb(218,236,255)" stroke="rgb(218,236,255)" stroke-width="1" opacity="0.9921568627450981" d="M 17.5 361 L 18 370.5 L 144 496.5 L 17 370.5 L 17.5 361 Z " /><path fill="rgb(218,236,255)" stroke="rgb(218,236,255)" stroke-width="1" opacity="0.9921568627450981" d="M 308.5 368 L 307.5 370 L 308.5 368 Z " /><path fill="rgb(218,236,255)" stroke="rgb(218,236,255)" stroke-width="1" opacity="0.9921568627450981" d="M 305.5 370 L 304.5 372 L 305.5 370 Z " /><path fill="rgb(218,236,255)" stroke="rgb(218,236,255)" stroke-width="1" opacity="0.9921568627450981" d="M 302.5 372 L 301.5 374 L 302.5 372 Z " /><path fill="rgb(218,236,255)" stroke="rgb(218,236,255)" stroke-width="1" opacity="0.9921568627450981" d="M 298.5 375 L 296.5 378 L 298.5 375 Z " /><path fill="rgb(218,236,255)" stroke="rgb(218,236,255)" stroke-width="1" opacity="0.9921568627450981" d="M 293.5 379 L 280.5 393 L 293.5 379 Z " /><path fill="rgb(218,236,255)" stroke="rgb(218,236,255)" stroke-width="1" opacity="0.9921568627450981" d="M 277.5 396 L 275.5 399 L 277.5 396 Z " /><path fill="rgb(218,236,255)" stroke="rgb(218,236,255)" stroke-width="1" opacity="0.9921568627450981" d="M 274.5 400 L 273.5 402 L 274.5 400 Z " /><path fill="rgb(218,236,255)" stroke="rgb(218,236,255)" stroke-width="1" opacity="0.9921568627450981" d="M 271.5 404 L 270.5 406 L 271.5 404 Z " /><path fill="rgb(218,236,255)" stroke="rgb(218,236,255)" stroke-width="1" opacity="0.9921568627450981" d="M 265.5 414 L 264.5 416 L 265.5 414 Z " /><path fill="rgb(218,236,255)" stroke="rgb(218,236,255)" stroke-width="1" opacity="0.9921568627450981" d="M 239.5 482 L 238.5 484 L 239.5 482 Z " /><path fill="rgb(218,236,255)" stroke="rgb(218,236,255)" stroke-width="1" opacity="0.9921568627450981" d="M 236.5 486 L 234.5 489 L 236.5 486 Z " /><path fill="rgb(218,236,255)" stroke="rgb(218,236,255)" stroke-width="1" opacity="0.9921568627450981" d="M 226.5 496 L 224.5 499 L 226.5 496 Z " /><path fill="rgb(218,236,255)" stroke="rgb(218,236,255)" stroke-width="1" opacity="0.9921568627450981" d="M 146.5 498 L 147.5 500 L 146.5 498 Z " /><path fill="rgb(218,236,255)" stroke="rgb(218,236,255)" stroke-width="1" opacity="0.9921568627450981" d="M 222.5 499 L 221.5 501 L 222.5 499 Z " /><path fill="rgb(218,236,255)" stroke="rgb(218,236,255)" stroke-width="1" opacity="0.9921568627450981" d="M 152.5 502 L 153.5 504 L 152.5 502 Z " /><path fill="rgb(218,236,255)" stroke="rgb(218,236,255)" stroke-width="1" opacity="0.9921568627450981" d="M 179.5 511 L 185 511.5 L 179.5 512 L 179.5 511 Z " /><path fill="rgb(218,236,255)" stroke="rgb(218,236,255)" stroke-width="1" opacity="0.9921568627450981" d="M 186.5 511 L 191 511.5 L 186.5 512 L 186.5 511 Z " /><path fill="rgb(219,237,255)" stroke="rgb(219,237,255)" stroke-width="1" opacity="1" d="M 198.5 177 L 363 341.5 L 361.5 343 L 308.5 368 Q 292.212 378.212 280 392.5 Q 268.705 405.205 261 421.5 Q 251.679 443.679 246 469.5 L 240 481.5 L 227.5 496 Q 212.5 510 185.5 512 Q 159.875 510.625 145.5 498 L 18 370.5 Q 17.981 333.981 37.5 317 Q 45.83 308.33 57.5 303 Q 88.243 295.243 115.5 284 Q 139.686 271.686 157 252.5 Q 168.004 240.504 176 225.5 L 192 186.5 L 198.5 177 Z M 192 231 L 190 232 Q 186 235 187 243 L 210 265 L 218 266 Q 224 264 222 255 L 199 231 L 192 231 Z M 162 263 L 157 265 L 154 269 L 155 277 L 179 299 Q 188 300 189 295 L 188 286 L 168 265 L 162 263 Z M 128 296 L 124 298 L 121 302 L 122 310 L 144 331 L 152 332 L 157 325 L 155 319 L 135 298 L 128 296 Z M 95 329 L 91 331 L 88 335 Q 87 341 90 344 Q 98 358 114 365 L 120 364 L 124 359 L 123 353 L 101 330 L 95 329 Z " /></svg>