<svg width="512" height="512" version="1.1" xmlns="http://www.w3.org/2000/svg" desc="Created with imagetracer.js version 1.2.6" ><path fill="rgb(0,0,0)" stroke="rgb(0,0,0)" stroke-width="1" opacity="0" d="M 0 0 L 245 0.5 Q 219.824 5.324 207 22.5 Q 189.681 40.938 194 80 L 89.5 80 Q 81.607 82.107 78 88.5 L 76 94.5 L 76 314 Q 36.809 308.111 21 326.5 Q 15 333.5 13 344.5 L 13 463.5 Q 14.55 470.45 19.5 474 L 25.5 477 L 76 477 Q 77.063 496.104 89.5 505 Q 94.547 509.953 103 511.5 L 0 512 L 0 0 Z " /><path fill="rgb(0,0,0)" stroke="rgb(0,0,0)" stroke-width="1" opacity="0" d="M 267.5 0 L 512 0 L 512 512 L 408 511.5 Q 421.602 509.102 428 499.5 Q 435.378 491.198 436 477 L 486.5 477 L 496 470.5 L 499 463.5 L 499 344.5 Q 496.204 329.796 486.5 322 Q 469.53 309.259 436 314 L 436 94.5 Q 434.375 85.625 427.5 82 L 422.5 80 L 318 80 Q 322.281 31.448 295.5 13 Q 283.542 3.292 267.5 0 Z " /><path fill="rgb(0,0,0)" stroke="rgb(0,0,0)" stroke-width="1" opacity="0" d="M 253.5 30 Q 272.983 30.517 281 42.5 Q 291.167 55 288 80 L 224.5 80 L 224 79.5 L 224 61.5 Q 225.983 44.983 236.5 37 Q 243.114 31.614 253.5 30 Z " /><path fill="rgb(185,144,134)" stroke="rgb(185,144,134)" stroke-width="1" opacity="0.9921568627450981" d="M 393.5 81 L 423.5 81 L 432 87.5 L 435 93.5 L 435 242.5 Q 431.38 262.38 417.5 272 Q 402.808 284.308 371.5 280 L 371.5 279 Q 386.997 275.497 395 264.5 Q 403.732 254.732 405 237.5 L 405 97.5 Q 403.375 86.625 395.5 82 Q 392.5 82.5 393.5 81 Z " /><path fill="rgb(185,144,134)" stroke="rgb(185,144,134)" stroke-width="1" opacity="0.9921568627450981" d="M 189.5 111 L 195 111.5 L 189.5 112 L 189.5 111 Z " /><path fill="rgb(185,144,134)" stroke="rgb(185,144,134)" stroke-width="1" opacity="0.9921568627450981" d="M 198.5 111 L 204 111.5 L 198.5 112 L 198.5 111 Z " /><path fill="rgb(185,144,134)" stroke="rgb(185,144,134)" stroke-width="1" opacity="0.9921568627450981" d="M 183.5 112 L 186 112.5 L 183.5 113 L 183.5 112 Z " /><path fill="rgb(185,144,134)" stroke="rgb(185,144,134)" stroke-width="1" opacity="0.9921568627450981" d="M 174.5 115 L 176 115.5 L 172.5 117 L 172.5 116 L 174.5 115 Z " /><path fill="rgb(185,144,134)" stroke="rgb(185,144,134)" stroke-width="1" opacity="0.9921568627450981" d="M 170.5 117 L 169.5 119 L 170.5 117 Z " /><path fill="rgb(185,144,134)" stroke="rgb(185,144,134)" stroke-width="1" opacity="0.9921568627450981" d="M 225.5 119 L 226.5 121 L 225.5 119 Z " /><path fill="rgb(185,144,134)" stroke="rgb(185,144,134)" stroke-width="1" opacity="0.9921568627450981" d="M 165.5 120 L 163.5 123 L 165.5 120 Z " /><path fill="rgb(185,144,134)" stroke="rgb(185,144,134)" stroke-width="1" opacity="0.9921568627450981" d="M 228.5 121 L 230.5 124 L 228.5 121 Z " /><path fill="rgb(185,144,134)" stroke="rgb(185,144,134)" stroke-width="1" opacity="0.9921568627450981" d="M 161.5 123 L 154.5 131 L 161.5 123 Z " /><path fill="rgb(185,144,134)" stroke="rgb(185,144,134)" stroke-width="1" opacity="0.9921568627450981" d="M 234.5 126 L 235.5 128 L 234.5 126 Z " /><path fill="rgb(185,144,134)" stroke="rgb(185,144,134)" stroke-width="1" opacity="0.9921568627450981" d="M 238.5 131 L 240.5 134 L 238.5 131 Z " /><path fill="rgb(185,144,134)" stroke="rgb(185,144,134)" stroke-width="1" opacity="0.9921568627450981" d="M 152.5 133 L 151.5 135 L 152.5 133 Z " /><path fill="rgb(185,144,134)" stroke="rgb(185,144,134)" stroke-width="1" opacity="0.9921568627450981" d="M 241.5 135 L 242.5 137 L 241.5 135 Z " /><path fill="rgb(185,144,134)" stroke="rgb(185,144,134)" stroke-width="1" opacity="0.9921568627450981" d="M 150.5 136 L 149.5 138 L 150.5 136 Z " /><path fill="rgb(185,144,134)" stroke="rgb(185,144,134)" stroke-width="1" opacity="0.9921568627450981" d="M 143.5 151 L 144 153.5 L 143 153.5 L 143.5 151 Z " /><path fill="rgb(185,144,134)" stroke="rgb(185,144,134)" stroke-width="1" opacity="0.9921568627450981" d="M 142.5 156 L 143 159.5 L 142 159.5 L 142.5 156 Z " /><path fill="rgb(185,144,134)" stroke="rgb(185,144,134)" stroke-width="1" opacity="0.9921568627450981" d="M 142.5 171 L 143 174.5 L 142 174.5 L 142.5 171 Z " /><path fill="rgb(185,144,134)" stroke="rgb(185,144,134)" stroke-width="1" opacity="0.9921568627450981" d="M 143.5 177 L 144 179.5 L 143 179.5 L 143.5 177 Z " /><path fill="rgb(185,144,134)" stroke="rgb(185,144,134)" stroke-width="1" opacity="0.9921568627450981" d="M 149.5 193 L 150.5 195 L 149.5 193 Z " /><path fill="rgb(185,144,134)" stroke="rgb(185,144,134)" stroke-width="1" opacity="0.9921568627450981" d="M 151.5 196 L 152.5 198 L 151.5 196 Z " /><path fill="rgb(185,144,134)" stroke="rgb(185,144,134)" stroke-width="1" opacity="0.9921568627450981" d="M 153.5 199 L 161.5 208 L 153.5 199 Z " /><path fill="rgb(185,144,134)" stroke="rgb(185,144,134)" stroke-width="1" opacity="0.9921568627450981" d="M 236.5 202 L 232.5 207 L 236.5 202 Z " /><path fill="rgb(185,144,134)" stroke="rgb(185,144,134)" stroke-width="1" opacity="0.9921568627450981" d="M 229.5 208 L 227.5 211 L 229.5 208 Z " /><path fill="rgb(185,144,134)" stroke="rgb(185,144,134)" stroke-width="1" opacity="0.9921568627450981" d="M 164.5 209 L 165.5 211 L 164.5 209 Z " /><path fill="rgb(185,144,134)" stroke="rgb(185,144,134)" stroke-width="1" opacity="0.9921568627450981" d="M 167.5 211 L 168.5 213 L 167.5 211 Z " /><path fill="rgb(185,144,134)" stroke="rgb(185,144,134)" stroke-width="1" opacity="0.9921568627450981" d="M 223.5 212 L 222.5 214 L 223.5 212 Z " /><path fill="rgb(185,144,134)" stroke="rgb(185,144,134)" stroke-width="1" opacity="0.9921568627450981" d="M 187.5 219 L 191 219.5 L 187.5 220 L 187.5 219 Z " /><path fill="rgb(185,144,134)" stroke="rgb(185,144,134)" stroke-width="1" opacity="0.9921568627450981" d="M 201.5 219 L 205 219.5 L 201.5 220 L 201.5 219 Z " /><path fill="rgb(185,144,134)" stroke="rgb(185,144,134)" stroke-width="1" opacity="0.9921568627450981" d="M 144 280 L 189 280.5 L 188 281.5 L 188 327 L 324 327 L 324 281.5 L 323.5 280 L 367.5 280 L 368 280.5 L 368 480.5 L 369 481.5 L 369 512 L 323 512 L 323 481.5 L 324 480.5 L 324 364.5 L 322.5 363 L 189.5 363 L 188 364.5 L 188 480.5 L 189 481.5 L 189 512 L 143 512 L 143 481.5 L 144 480.5 L 144 280 Z " /><path fill="rgb(185,144,134)" stroke="rgb(185,144,134)" stroke-width="1" opacity="0.9921568627450981" d="M 237.5 401 L 274.5 401 L 279 404.5 L 280 410.5 L 275.5 416 L 236.5 416 L 233 412.5 L 232 406.5 L 235.5 402 L 237.5 401 Z " /><path fill="rgb(185,144,134)" stroke="rgb(185,144,134)" stroke-width="1" opacity="0.9921568627450981" d="M 236.5 435 L 275.5 435 L 279 438.5 L 280 444.5 L 276.5 449 L 274.5 450 L 237.5 450 L 233 446.5 L 232 440.5 L 236.5 435 Z " /><path fill="rgb(220,149,125)" stroke="rgb(220,149,125)" stroke-width="1" opacity="1" d="M 89.5 80 Q 158.677 78.323 223.5 81 L 224.5 80 L 287.5 80 L 288.5 81 L 317.5 81 L 318.5 80 L 422.5 80 L 422.5 81 L 393 81.5 Q 400.167 82.333 402 88.5 L 405 97.5 L 405 237.5 Q 403.13 260.63 388.5 271 Q 381.754 277.254 371 279.5 L 395 280.5 L 368.5 281 L 367.5 280 L 111.5 280 Q 94.131 275.869 85 263.5 Q 77.344 253.156 76 236.5 L 76 94.5 Q 78.15 86.15 84.5 82 L 89.5 80 Z M 190 111 Q 172 114 162 123 Q 147 135 142 157 Q 140 186 153 200 Q 165 215 188 220 Q 219 222 233 207 L 238 201 Q 242 217 251 228 Q 264 244 289 249 Q 323 252 339 236 Q 357 222 362 195 Q 363 163 349 148 Q 335 129 309 124 Q 274 122 259 138 L 249 149 Q 244 136 236 128 Q 222 110 190 111 Z " /><path fill="rgb(220,149,125)" stroke="rgb(220,149,125)" stroke-width="1" opacity="1" d="M 424.5 81 Q 430.625 82.375 433 87.5 L 434 89.5 L 432 88.5 L 428.5 84 Q 423.833 83.167 424.5 81 Z " /><path fill="rgb(220,149,125)" stroke="rgb(220,149,125)" stroke-width="1" opacity="1" d="M 435.5 94 L 436 238.5 L 435 238.5 L 435.5 94 Z " /><path fill="rgb(220,149,125)" stroke="rgb(220,149,125)" stroke-width="1" opacity="1" d="M 281.5 162 Q 294.917 161.083 299 169.5 L 301.5 176 Q 305.772 167.772 319.5 169 L 329 175.5 Q 333.333 179.667 332 189.5 L 325.5 199 L 293.5 214 L 271 188.5 Q 267.25 184.75 268 176.5 Q 269.625 167.625 276.5 164 L 281.5 162 Z " /><path fill="rgb(220,149,125)" stroke="rgb(220,149,125)" stroke-width="1" opacity="1" d="M 434.5 243 L 435 245.5 L 434 245.5 L 434.5 243 Z " /><path fill="rgb(220,149,125)" stroke="rgb(220,149,125)" stroke-width="1" opacity="1" d="M 428.5 260 L 427.5 262 L 428.5 260 Z " /><path fill="rgb(220,149,125)" stroke="rgb(220,149,125)" stroke-width="1" opacity="1" d="M 426.5 263 L 417.5 273 L 407.5 278 L 407.5 277 Q 419.75 272.75 426.5 263 Z " /><path fill="rgb(220,149,125)" stroke="rgb(220,149,125)" stroke-width="1" opacity="1" d="M 44.5 314 L 75.5 314 L 77 315.5 L 77 476.5 L 76.5 477 L 25.5 477 L 17 471.5 L 13 463.5 L 13 344.5 Q 15.796 329.796 25.5 322 Q 32.701 315.701 44.5 314 Z " /><path fill="rgb(220,149,125)" stroke="rgb(220,149,125)" stroke-width="1" opacity="1" d="M 436 314 Q 475.191 308.111 491 326.5 Q 497 333.5 499 344.5 L 499 463.5 L 492.5 474 L 486.5 477 L 436.5 477 L 435 475.5 L 435 317.5 L 436 314 Z " /><path fill="rgb(216,215,160)" stroke="rgb(216,215,160)" stroke-width="1" opacity="0.996078431372549" d="M 194.5 80 L 224 80.5 L 194.5 81 L 194.5 80 Z " /><path fill="rgb(216,215,160)" stroke="rgb(216,215,160)" stroke-width="1" opacity="0.996078431372549" d="M 288.5 80 L 318 80.5 L 288.5 81 L 288.5 80 Z " /><path fill="rgb(216,215,160)" stroke="rgb(216,215,160)" stroke-width="1" opacity="0.996078431372549" d="M 195.5 111 Q 224.776 112.724 238 130.5 L 248.5 149 L 258.5 138 Q 274.113 121.613 308.5 124 Q 335.417 129.083 349 147.5 Q 363.278 163.222 362 194.5 Q 356.849 221.849 338.5 236 Q 322.833 251.833 288.5 249 Q 264.061 243.939 251 227.5 Q 241.667 216.833 237.5 201 Q 223.795 219.795 191.5 220 Q 165.459 216.041 153 198.5 Q 141.561 185.439 142 160.5 Q 145.75 135.25 162.5 123 Q 174.731 112.731 195.5 111 Z M 196 127 L 202 155 Q 217 166 235 173 Q 237 153 228 143 Q 219 127 196 127 Z M 180 130 L 171 136 Q 160 145 157 163 Q 157 179 165 188 L 187 159 L 181 132 Q 182 129 180 130 Z M 282 162 L 277 164 Q 270 168 268 177 Q 267 185 271 189 L 294 214 L 326 199 L 332 190 Q 333 180 329 176 L 320 169 Q 306 168 302 176 L 299 170 Q 295 161 282 162 Z M 207 176 L 211 201 L 219 198 L 228 189 L 228 187 L 207 176 Z M 191 179 L 176 199 Q 184 205 196 205 L 192 181 L 191 179 Z " /><path fill="rgb(216,215,160)" stroke="rgb(216,215,160)" stroke-width="1" opacity="0.996078431372549" d="M 76.5 237 L 77 240.5 L 76 240.5 L 76.5 237 Z " /><path fill="rgb(216,215,160)" stroke="rgb(216,215,160)" stroke-width="1" opacity="0.996078431372549" d="M 432.5 253 L 433 254.5 L 429.5 260 L 430 258.5 L 432.5 253 Z " /><path fill="rgb(216,215,160)" stroke="rgb(216,215,160)" stroke-width="1" opacity="0.996078431372549" d="M 428.5 261 L 427.5 263 L 428.5 261 Z " /><path fill="rgb(216,215,160)" stroke="rgb(216,215,160)" stroke-width="1" opacity="0.996078431372549" d="M 426.5 264 L 418.5 273 L 426.5 264 Z " /><path fill="rgb(216,215,160)" stroke="rgb(216,215,160)" stroke-width="1" opacity="0.996078431372549" d="M 87.5 266 L 90.5 270 L 87.5 266 Z " /><path fill="rgb(216,215,160)" stroke="rgb(216,215,160)" stroke-width="1" opacity="0.996078431372549" d="M 94.5 272 L 95.5 274 L 94.5 272 Z " /><path fill="rgb(216,215,160)" stroke="rgb(216,215,160)" stroke-width="1" opacity="0.996078431372549" d="M 416.5 273 L 415.5 275 L 416.5 273 Z " /><path fill="rgb(216,215,160)" stroke="rgb(216,215,160)" stroke-width="1" opacity="0.996078431372549" d="M 114.5 280 L 143.5 280 L 144 280.5 L 144 480.5 L 143 480.5 L 143 281.5 L 142.5 281 L 114.5 281 L 114.5 280 Z " /><path fill="rgb(216,215,160)" stroke="rgb(216,215,160)" stroke-width="1" opacity="0.996078431372549" d="M 189.5 280 L 322.5 280 L 324 281.5 L 324 327 L 188 327 L 188 281.5 L 189.5 280 Z M 189 281 L 189 326 L 323 326 L 323 281 L 189 281 Z " /><path fill="rgb(216,215,160)" stroke="rgb(216,215,160)" stroke-width="1" opacity="0.996078431372549" d="M 395.5 280 L 398 280.5 L 395.5 281 L 395.5 280 Z " /><path fill="rgb(216,215,160)" stroke="rgb(216,215,160)" stroke-width="1" opacity="0.996078431372549" d="M 368.5 281 L 369 480.5 L 368 480.5 L 368.5 281 Z " /><path fill="rgb(216,215,160)" stroke="rgb(216,215,160)" stroke-width="1" opacity="0.996078431372549" d="M 435.5 314 L 436 316.5 L 435 316.5 L 435.5 314 Z " /><path fill="rgb(216,215,160)" stroke="rgb(216,215,160)" stroke-width="1" opacity="0.996078431372549" d="M 189.5 363 L 322.5 363 L 324 364.5 L 323.5 481 L 323 364 L 189 364 L 189 480.5 L 188 480.5 L 188 364.5 L 189.5 363 Z " /><path fill="rgb(216,215,160)" stroke="rgb(216,215,160)" stroke-width="1" opacity="0.996078431372549" d="M 239.5 400 L 273 400.5 L 239.5 401 L 239.5 400 Z " /><path fill="rgb(216,215,160)" stroke="rgb(216,215,160)" stroke-width="1" opacity="0.996078431372549" d="M 234.5 402 L 233.5 404 L 234.5 402 Z " /><path fill="rgb(216,215,160)" stroke="rgb(216,215,160)" stroke-width="1" opacity="0.996078431372549" d="M 277.5 402 L 278.5 404 L 277.5 402 Z " /><path fill="rgb(216,215,160)" stroke="rgb(216,215,160)" stroke-width="1" opacity="0.996078431372549" d="M 233.5 413 L 234.5 415 L 233.5 413 Z " /><path fill="rgb(216,215,160)" stroke="rgb(216,215,160)" stroke-width="1" opacity="0.996078431372549" d="M 278.5 413 L 277.5 415 L 278.5 413 Z " /><path fill="rgb(216,215,160)" stroke="rgb(216,215,160)" stroke-width="1" opacity="0.996078431372549" d="M 239.5 416 L 273 416.5 L 239.5 417 L 239.5 416 Z " /><path fill="rgb(216,215,160)" stroke="rgb(216,215,160)" stroke-width="1" opacity="0.996078431372549" d="M 239.5 434 L 273 434.5 L 239.5 435 L 239.5 434 Z " /><path fill="rgb(216,215,160)" stroke="rgb(216,215,160)" stroke-width="1" opacity="0.996078431372549" d="M 234.5 436 L 233.5 438 L 234.5 436 Z " /><path fill="rgb(216,215,160)" stroke="rgb(216,215,160)" stroke-width="1" opacity="0.996078431372549" d="M 277.5 436 L 278.5 438 L 277.5 436 Z " /><path fill="rgb(216,215,160)" stroke="rgb(216,215,160)" stroke-width="1" opacity="0.996078431372549" d="M 233.5 447 L 234.5 449 L 233.5 447 Z " /><path fill="rgb(216,215,160)" stroke="rgb(216,215,160)" stroke-width="1" opacity="0.996078431372549" d="M 278.5 447 L 277.5 449 L 278.5 447 Z " /><path fill="rgb(216,215,160)" stroke="rgb(216,215,160)" stroke-width="1" opacity="0.996078431372549" d="M 239.5 450 L 273 450.5 L 239.5 451 L 239.5 450 Z " /><path fill="rgb(249,236,206)" stroke="rgb(249,236,206)" stroke-width="1" opacity="0.9921568627450981" d="M 245.5 0 Q 288.684 -2.184 305 22.5 Q 322.319 40.938 318 80 L 288 80 L 288 61.5 Q 286.017 44.983 275.5 37 Q 268.015 29.985 253.5 30 Q 238.652 32.652 231 42.5 Q 220.833 55 224 80 L 194 80 L 194 51.5 Q 199.253 26.253 216.5 13 Q 227.792 3.292 245.5 0 Z " /><path fill="rgb(249,236,206)" stroke="rgb(249,236,206)" stroke-width="1" opacity="0.9921568627450981" d="M 196 127 Q 218.922 127.122 228 142.5 Q 237.283 152.601 235 173 Q 216.936 166.242 202 154.5 L 196 127 Z " /><path fill="rgb(249,236,206)" stroke="rgb(249,236,206)" stroke-width="1" opacity="0.9921568627450981" d="M 179.5 130 Q 181.75 129.25 181 131.5 L 187 158.5 L 164.5 188 Q 156.657 179.343 157 162.5 Q 159.565 145.065 170.5 136 L 179.5 130 Z " /><path fill="rgb(249,236,206)" stroke="rgb(249,236,206)" stroke-width="1" opacity="0.9921568627450981" d="M 206.5 176 L 228 187 L 228 188.5 L 218.5 198 L 211 201 L 206.5 176 Z " /><path fill="rgb(249,236,206)" stroke="rgb(249,236,206)" stroke-width="1" opacity="0.9921568627450981" d="M 190.5 179 L 192 180.5 L 196 205 Q 183.657 204.768 176 198.5 L 190.5 179 Z " /><path fill="rgb(249,236,206)" stroke="rgb(249,236,206)" stroke-width="1" opacity="0.9921568627450981" d="M 76.5 241 Q 78.253 260.747 90.5 270 Q 107.087 285.62 143 281 L 143 511.5 L 142.5 512 L 103.5 512 Q 90.125 508.375 83 498.5 Q 76.88 490.62 76 477.5 L 77 476.5 L 77 314.5 L 76 313.5 L 76.5 241 Z " /><path fill="rgb(249,236,206)" stroke="rgb(249,236,206)" stroke-width="1" opacity="0.9921568627450981" d="M 435.5 241 L 436 313.5 L 435 314.5 L 435 476.5 L 436 480.5 Q 433.472 496.972 422.5 505 Q 416.786 510.286 407.5 512 L 369 512 L 369 281.5 L 369.5 281 L 397.5 281 Q 417.477 277.977 427 264.5 Q 434.75 256.25 435.5 241 Z " /><path fill="rgb(249,236,206)" stroke="rgb(249,236,206)" stroke-width="1" opacity="0.9921568627450981" d="M 189 281 L 323 281 L 323 326 L 189 326 L 189 281 Z " /><path fill="rgb(249,236,206)" stroke="rgb(249,236,206)" stroke-width="1" opacity="0.9921568627450981" d="M 189 364 L 323 364 L 323 512 L 189 512 L 189 364 Z M 240 400 L 235 402 L 232 406 L 233 414 L 240 417 L 273 417 L 278 415 L 280 412 L 279 404 L 273 400 L 240 400 Z M 240 434 L 235 436 L 232 440 L 233 448 L 240 451 L 273 451 L 278 449 L 280 446 L 279 438 L 273 434 L 240 434 Z " /></svg>