<svg width="512" height="512" version="1.1" xmlns="http://www.w3.org/2000/svg" desc="Created with imagetracer.js version 1.2.6" ><path fill="rgb(0,0,0)" stroke="rgb(0,0,0)" stroke-width="1" opacity="0" d="M 0 0 L 231 0.5 Q 206.386 2.386 194 16.5 Q 186.137 24.137 187 40.5 Q 192.741 65.759 210.5 79 L 225 89.5 L 223.5 91 L 133.5 121 Q 111.224 137.224 93 157.5 Q 53.096 201.096 27 258.5 Q 6.162 299.162 0.5 355 L 0 0 Z " /><path fill="rgb(0,0,0)" stroke="rgb(0,0,0)" stroke-width="1" opacity="0" d="M 263.5 0 L 512 0 L 512 349.5 L 511 349.5 L 510 337.5 Q 499.412 318.088 493 294.5 Q 488.881 278.619 490 257.5 Q 504.931 232.931 501 189.5 Q 493.931 105.569 446.5 62 Q 423.935 39.565 381.5 37 L 320.5 58 Q 319.596 25.904 299.5 13 Q 284.64 2.434 263.5 0 Z " /><path fill="rgb(0,0,0)" stroke="rgb(0,0,0)" stroke-width="1" opacity="0" d="M 240.5 24 Q 274.693 21.807 290 38.5 Q 295.762 45.738 296 58.5 Q 293 60.562 295 67 L 257.5 79 Q 237.479 70.375 223 57 Q 214.088 50.096 212 35.5 L 216.5 30 Q 226.089 24.589 240.5 24 Z " /><path fill="rgb(0,0,0)" stroke="rgb(0,0,0)" stroke-width="1" opacity="0" d="M 122.5 212 L 123 213.5 Q 115.07 276.57 116 348.5 L 117 349.5 L 117 375.5 Q 106.406 391.406 92.5 404 L 83.5 411 Q 66.878 390.622 70 350.5 Q 83.367 268.367 122.5 212 Z " /><path fill="rgb(0,0,0)" stroke="rgb(0,0,0)" stroke-width="1" opacity="0" d="M 511.5 363 L 512 512 L 272 511.5 Q 402.443 494.943 484 429.5 Q 507.862 406.362 511.5 363 Z " /><path fill="rgb(0,0,0)" stroke="rgb(0,0,0)" stroke-width="1" opacity="0" d="M 0.5 371 Q 0.558 387.942 6 399.5 Q 19.692 428.808 40.5 451 Q 53.743 465.257 83.5 463 Q 108.968 456.468 122.5 438 Q 123.434 470.566 144.5 483 Q 175.902 507.598 228 511.5 L 0 512 L 0.5 371 Z " /><path fill="rgb(254,175,100)" stroke="rgb(254,175,100)" stroke-width="1" opacity="0.8823529411764706" d="M 382.5 37 L 389 37.5 L 382.5 38 L 382.5 37 Z " /><path fill="rgb(254,175,100)" stroke="rgb(254,175,100)" stroke-width="1" opacity="0.8823529411764706" d="M 393.5 38 L 396 38.5 L 393.5 39 L 393.5 38 Z " /><path fill="rgb(254,175,100)" stroke="rgb(254,175,100)" stroke-width="1" opacity="0.8823529411764706" d="M 398.5 39 L 401 39.5 L 398.5 40 L 398.5 39 Z " /><path fill="rgb(254,175,100)" stroke="rgb(254,175,100)" stroke-width="1" opacity="0.8823529411764706" d="M 406.5 41 L 409 41.5 L 406.5 42 L 406.5 41 Z " /><path fill="rgb(254,175,100)" stroke="rgb(254,175,100)" stroke-width="1" opacity="0.8823529411764706" d="M 410.5 42 L 414 43.5 L 412.5 44 L 410.5 42 Z " /><path fill="rgb(254,175,100)" stroke="rgb(254,175,100)" stroke-width="1" opacity="0.8823529411764706" d="M 415.5 44 L 419 45.5 L 417.5 46 L 415.5 44 Z " /><path fill="rgb(254,175,100)" stroke="rgb(254,175,100)" stroke-width="1" opacity="0.8823529411764706" d="M 420.5 46 Q 441.395 54.605 455 70.5 L 447.5 64 Q 435.974 53.526 420.5 47 L 420.5 46 Z " /><path fill="rgb(254,175,100)" stroke="rgb(254,175,100)" stroke-width="1" opacity="0.8823529411764706" d="M 459.5 76 Q 476.482 94.018 485 120.5 L 484 120.5 Q 474.953 94.018 459.5 76 Z " /><path fill="rgb(254,175,100)" stroke="rgb(254,175,100)" stroke-width="1" opacity="0.8823529411764706" d="M 485.5 122 L 488 129.5 L 487 129.5 L 485.5 122 Z " /><path fill="rgb(254,175,100)" stroke="rgb(254,175,100)" stroke-width="1" opacity="0.8823529411764706" d="M 488.5 131 L 490 136.5 L 489 136.5 L 488.5 131 Z " /><path fill="rgb(254,175,100)" stroke="rgb(254,175,100)" stroke-width="1" opacity="0.8823529411764706" d="M 490.5 138 L 491 140.5 L 490 140.5 L 490.5 138 Z " /><path fill="rgb(254,175,100)" stroke="rgb(254,175,100)" stroke-width="1" opacity="0.8823529411764706" d="M 491.5 142 L 494 152.5 L 493 152.5 L 491.5 142 Z " /><path fill="rgb(254,175,100)" stroke="rgb(254,175,100)" stroke-width="1" opacity="0.8823529411764706" d="M 494.5 154 L 496 161.5 L 495 161.5 L 494.5 154 Z " /><path fill="rgb(254,175,100)" stroke="rgb(254,175,100)" stroke-width="1" opacity="0.8823529411764706" d="M 496.5 163 L 498 172.5 L 497 172.5 L 496.5 163 Z " /><path fill="rgb(254,175,100)" stroke="rgb(254,175,100)" stroke-width="1" opacity="0.8823529411764706" d="M 498.5 174 L 499 179.5 L 498 179.5 L 498.5 174 Z " /><path fill="rgb(254,175,100)" stroke="rgb(254,175,100)" stroke-width="1" opacity="0.8823529411764706" d="M 499.5 181 L 500 187.5 L 499 187.5 L 499.5 181 Z " /><path fill="rgb(254,175,100)" stroke="rgb(254,175,100)" stroke-width="1" opacity="0.8823529411764706" d="M 500.5 189 L 501 201.5 L 500 201.5 L 500.5 189 Z " /><path fill="rgb(254,175,100)" stroke="rgb(254,175,100)" stroke-width="1" opacity="0.8823529411764706" d="M 500.5 211 L 501 222.5 L 500 222.5 L 500.5 211 Z " /><path fill="rgb(254,175,100)" stroke="rgb(254,175,100)" stroke-width="1" opacity="0.8823529411764706" d="M 499.5 224 L 500 229.5 L 498 230.5 L 499.5 224 Z " /><path fill="rgb(254,175,100)" stroke="rgb(254,175,100)" stroke-width="1" opacity="0.8823529411764706" d="M 91.5 404 L 90.5 406 L 91.5 404 Z " /><path fill="rgb(254,175,100)" stroke="rgb(254,175,100)" stroke-width="1" opacity="0.8823529411764706" d="M 85.5 409 L 84.5 411 L 85.5 409 Z " /><path fill="rgb(255,186,110)" stroke="rgb(255,186,110)" stroke-width="1" opacity="0.996078431372549" d="M 447.5 64 L 450.5 68 L 447.5 64 Z " /><path fill="rgb(255,186,110)" stroke="rgb(255,186,110)" stroke-width="1" opacity="0.996078431372549" d="M 461.5 79 L 462.5 81 L 461.5 79 Z " /><path fill="rgb(255,186,110)" stroke="rgb(255,186,110)" stroke-width="1" opacity="0.996078431372549" d="M 500.5 202 L 501 210.5 L 500 210.5 L 500.5 202 Z " /><path fill="rgb(195,47,45)" stroke="rgb(195,47,45)" stroke-width="1" opacity="0.996078431372549" d="M 133.5 121 Q 151.5 130.5 164 145.5 L 181 169.5 L 179.5 169 Q 154.563 162.437 141 144.5 Q 134.75 136.75 133.5 124 Q 126.184 164.684 123 209.5 L 107.5 235 L 100 229.5 Q 82.743 209.757 78 177.5 Q 96.218 153.718 118.5 134 L 133 122.5 L 133.5 121 Z " /><path fill="rgb(195,47,45)" stroke="rgb(195,47,45)" stroke-width="1" opacity="0.996078431372549" d="M 458.5 230 Q 460.75 229.25 460 231.5 Q 482.665 251.835 486 291.5 Q 484.523 300.023 478.5 304 Q 474.5 307 466.5 306 L 457 299.5 Q 449.682 265.714 434 241 L 458.5 230 Z " /><path fill="rgb(195,47,45)" stroke="rgb(195,47,45)" stroke-width="1" opacity="0.996078431372549" d="M 355.5 268 L 358 269.5 Q 375.085 295.415 378 335.5 Q 376.914 343.914 371.5 348 Q 366.818 353.818 354.5 352 Q 346.607 349.893 343 343.5 L 341 339.5 Q 341.424 319.076 337 303.5 Q 333.483 288.017 326 276.5 L 327.5 275 L 355.5 268 Z " /><path fill="rgb(254,149,69)" stroke="rgb(254,149,69)" stroke-width="1" opacity="0.984313725490196" d="M 381.5 37 Q 383 39.5 388.5 38 L 390.5 38 L 395.5 39 Q 397 36.5 398.5 40 Q 406 39.5 410 42.5 Q 345.518 58.018 290.5 83 Q 255.972 97.972 232 123.5 Q 218.951 134.451 220 159.5 L 225 170.5 Q 233.25 205.75 246 236.5 Q 256.005 257.995 272.5 273 Q 294.466 294.534 333.5 299 L 335 298.5 Q 340.257 313.519 340 333 Q 269.702 335.537 239 297.5 Q 227.705 284.795 220 268.5 Q 209.015 242.485 202 212.5 L 190 184.5 Q 174.983 153.517 150.5 132 L 135 121.5 Q 242.694 81.694 354.5 46 L 355.5 47 L 360.5 44 L 381.5 37 Z " /><path fill="rgb(254,149,69)" stroke="rgb(254,149,69)" stroke-width="1" opacity="0.984313725490196" d="M 455.5 71 L 456.5 73 L 455.5 71 Z " /><path fill="rgb(254,149,69)" stroke="rgb(254,149,69)" stroke-width="1" opacity="0.984313725490196" d="M 498.5 231 L 499 233.5 L 491 257 Q 488.333 255.875 489 258.5 L 482.5 268 Q 480.843 259.657 476 254.5 L 493 238.5 L 498.5 231 Z " /><path fill="rgb(254,149,69)" stroke="rgb(254,149,69)" stroke-width="1" opacity="0.984313725490196" d="M 446.5 273 L 449 274.5 Q 453.367 282.133 454 293.5 Q 421.423 316.66 377 327 Q 376.917 310.458 371 298.5 Q 414.814 291.814 446.5 273 Z " /><path fill="rgb(254,149,69)" stroke="rgb(254,149,69)" stroke-width="1" opacity="0.984313725490196" d="M 71.5 338 L 72 341.5 L 71 341.5 L 71.5 338 Z " /><path fill="rgb(254,149,69)" stroke="rgb(254,149,69)" stroke-width="1" opacity="0.984313725490196" d="M 70.5 344 L 71 349.5 L 70 349.5 L 70.5 344 Z " /><path fill="rgb(254,149,69)" stroke="rgb(254,149,69)" stroke-width="1" opacity="0.984313725490196" d="M 69.5 355 L 70 370.5 L 69 370.5 L 69.5 355 Z " /><path fill="rgb(254,149,69)" stroke="rgb(254,149,69)" stroke-width="1" opacity="0.984313725490196" d="M 70.5 375 L 71 379.5 L 70 379.5 L 70.5 375 Z " /><path fill="rgb(254,149,69)" stroke="rgb(254,149,69)" stroke-width="1" opacity="0.984313725490196" d="M 116.5 376 L 116 377.5 L 113.5 381 L 115 378.5 L 116.5 376 Z " /><path fill="rgb(254,149,69)" stroke="rgb(254,149,69)" stroke-width="1" opacity="0.984313725490196" d="M 71.5 382 L 72 385.5 L 71 385.5 L 71.5 382 Z " /><path fill="rgb(254,149,69)" stroke="rgb(254,149,69)" stroke-width="1" opacity="0.984313725490196" d="M 112.5 382 L 109.5 386 L 112.5 382 Z " /><path fill="rgb(254,149,69)" stroke="rgb(254,149,69)" stroke-width="1" opacity="0.984313725490196" d="M 72.5 387 L 73 389.5 L 72 389.5 L 72.5 387 Z " /><path fill="rgb(254,149,69)" stroke="rgb(254,149,69)" stroke-width="1" opacity="0.984313725490196" d="M 108.5 387 L 104 392.5 L 101 398.5 Q 102.536 426.964 113.5 446 L 123 437.5 Q 110.589 452.589 91.5 461 Q 81.455 464.455 66.5 463 Q 46.161 458.839 35 445.5 Q 19.42 426.08 8 402.5 L 9 402.5 Q 13.179 412.821 21.5 419 Q 31.295 428.705 53.5 426 Q 71.629 422.129 83 411.5 L 78 404.5 L 80 405.5 L 83.5 411 L 103 393.5 L 108.5 387 Z " /><path fill="rgb(254,149,69)" stroke="rgb(254,149,69)" stroke-width="1" opacity="0.984313725490196" d="M 74.5 394 L 77 400.5 L 76 400.5 Q 73 398 74.5 394 Z " /><path fill="rgb(254,149,69)" stroke="rgb(254,149,69)" stroke-width="1" opacity="0.984313725490196" d="M 5.5 395 L 7 398.5 L 6 398.5 L 5.5 395 Z " /><path fill="rgb(255,186,110)" stroke="rgb(255,186,110)" stroke-width="1" opacity="1" d="M 409.5 43 Q 439.75 52.75 458 74.5 Q 500.807 126.693 500 222.5 Q 495.145 244.645 477.5 254 L 475 252.5 Q 468.946 239.554 459.5 230 L 433 241 L 433 243.5 L 448 272.5 Q 415.669 292.115 371 298 Q 366.666 280.261 356.5 267 L 326 275 L 334 295.5 L 334 299 Q 288.394 293.969 265 265.5 Q 249.612 248.388 241 224.5 Q 233.093 189.407 220 159.5 L 220 145.5 Q 227.065 124.065 243.5 112 Q 312.148 63.148 409.5 43 Z " /><path fill="rgb(232,46,60)" stroke="rgb(232,46,60)" stroke-width="1" opacity="0.996078431372549" d="M 288.5 33 L 315.5 33 L 316 35.5 Q 321.25 43.25 320 57.5 L 318.5 59 L 295 66 L 296 55.5 L 295 52.5 Q 293.838 40.162 286 34.5 L 288.5 33 Z " /><path fill="rgb(232,46,60)" stroke="rgb(232,46,60)" stroke-width="1" opacity="0.996078431372549" d="M 223.5 57 L 226 58 L 227.5 61 Q 240.529 71.971 257 79.5 L 226.5 90 Q 224.56 86.357 220 87 Q 221.125 84.333 218.5 85 L 205 73.5 L 213.5 64 L 223.5 57 Z " /><path fill="rgb(232,46,60)" stroke="rgb(232,46,60)" stroke-width="1" opacity="0.996078431372549" d="M 133.5 124 Q 136.803 146.197 152.5 156 Q 163.5 165 179.5 169 L 183 172.5 Q 205.042 212.458 217 262.5 Q 228.562 290.938 250.5 309 Q 280.187 335.813 338.5 334 L 340.5 330 Q 339.228 345.272 349 349.5 L 345.5 347 Q 312.268 347.232 288.5 338 Q 262.748 328.252 246.5 309 Q 243.214 306.286 236.5 307 Q 228.607 309.107 225 315.5 Q 214.692 325.692 217 348.5 Q 225.342 389.158 239 424.5 Q 242.213 437.787 242 454.5 Q 239.056 483.556 220.5 497 Q 210.775 504.775 193.5 505 Q 155.509 497.491 135 472.5 L 133.5 470 Q 130.875 470.833 132 467.5 L 125 456.5 Q 117.652 404.848 116 347.5 L 117 345.5 L 116 343.5 L 117 340.5 L 116 337.5 L 116 335.5 L 117 331.5 L 116 329.5 L 117 327.5 L 116 325.5 L 117 323.5 L 117 321.5 L 116 317.5 L 117 316.5 L 117 292.5 L 118 291.5 L 118 289.5 L 117 286.5 L 118 285.5 Q 115.333 273.333 119 267.5 L 119 265.5 Q 116.25 256.25 120 253.5 L 119 251.5 L 120 250.5 Q 119.425 231.425 123 216.5 L 123 214.5 Q 125.646 166.646 133.5 124 Z " /><path fill="rgb(232,46,60)" stroke="rgb(232,46,60)" stroke-width="1" opacity="0.996078431372549" d="M 126.5 127 L 125.5 129 L 126.5 127 Z " /><path fill="rgb(232,46,60)" stroke="rgb(232,46,60)" stroke-width="1" opacity="0.996078431372549" d="M 120.5 132 L 119.5 134 L 120.5 132 Z " /><path fill="rgb(232,46,60)" stroke="rgb(232,46,60)" stroke-width="1" opacity="0.996078431372549" d="M 110.5 141 L 97.5 155 L 110.5 141 Z " /><path fill="rgb(232,46,60)" stroke="rgb(232,46,60)" stroke-width="1" opacity="0.996078431372549" d="M 91.5 161 L 88.5 165 L 91.5 161 Z " /><path fill="rgb(232,46,60)" stroke="rgb(232,46,60)" stroke-width="1" opacity="0.996078431372549" d="M 83.5 170 L 82.5 172 L 83.5 170 Z " /><path fill="rgb(232,46,60)" stroke="rgb(232,46,60)" stroke-width="1" opacity="0.996078431372549" d="M 79.5 175 L 78.5 177 L 79.5 175 Z " /><path fill="rgb(232,46,60)" stroke="rgb(232,46,60)" stroke-width="1" opacity="0.996078431372549" d="M 95.5 223 L 96.5 225 L 95.5 223 Z " /><path fill="rgb(232,46,60)" stroke="rgb(232,46,60)" stroke-width="1" opacity="0.996078431372549" d="M 98.5 227 L 99.5 229 L 98.5 227 Z " /><path fill="rgb(232,46,60)" stroke="rgb(232,46,60)" stroke-width="1" opacity="0.996078431372549" d="M 105.5 234 L 108 235.5 L 106.5 236 L 105.5 234 Z " /><path fill="rgb(232,46,60)" stroke="rgb(232,46,60)" stroke-width="1" opacity="0.996078431372549" d="M 489.5 258 L 490 266.5 L 484.5 275 L 482 268.5 L 489.5 258 Z " /><path fill="rgb(232,46,60)" stroke="rgb(232,46,60)" stroke-width="1" opacity="0.996078431372549" d="M 484.5 276 L 485 278.5 L 484 278.5 L 484.5 276 Z " /><path fill="rgb(232,46,60)" stroke="rgb(232,46,60)" stroke-width="1" opacity="0.996078431372549" d="M 485.5 282 L 486 288.5 L 485 288.5 L 485.5 282 Z " /><path fill="rgb(232,46,60)" stroke="rgb(232,46,60)" stroke-width="1" opacity="0.996078431372549" d="M 485.5 292 L 486 294.5 L 485 294.5 L 485.5 292 Z " /><path fill="rgb(232,46,60)" stroke="rgb(232,46,60)" stroke-width="1" opacity="0.996078431372549" d="M 454.5 294 L 460.5 303 L 463 304.5 L 461.5 304 L 459.5 304 Q 445.628 317.128 428.5 327 Q 406.548 339.048 376.5 343 L 373.5 346 L 376 342.5 L 378 332.5 L 377 327 Q 421.834 317.162 454.5 294 Z " /><path fill="rgb(232,46,60)" stroke="rgb(232,46,60)" stroke-width="1" opacity="0.996078431372549" d="M 482.5 300 L 479.5 304 L 482.5 300 Z " /><path fill="rgb(232,46,60)" stroke="rgb(232,46,60)" stroke-width="1" opacity="0.996078431372549" d="M 469.5 306 L 472 306.5 L 469.5 307 L 469.5 306 Z " /><path fill="rgb(232,46,60)" stroke="rgb(232,46,60)" stroke-width="1" opacity="0.996078431372549" d="M 370.5 348 L 369.5 350 L 370.5 348 Z " /><path fill="rgb(232,46,60)" stroke="rgb(232,46,60)" stroke-width="1" opacity="0.996078431372549" d="M 356.5 352 L 363 352.5 L 356.5 353 L 356.5 352 Z " /><path fill="rgb(251,88,65)" stroke="rgb(251,88,65)" stroke-width="1" opacity="0.984313725490196" d="M 231.5 0 Q 287.796 -5.296 310 23.5 L 315 33 Q 296.846 30.3 284.5 34 Q 269.278 22.222 240.5 24 Q 221.877 23.877 213 33.5 L 212 39.5 Q 216 50.625 223 58 Q 212.156 63.375 204.5 73 Q 188.024 60.476 187 32.5 Q 189.094 19.594 197.5 13 Q 210.067 2.067 231.5 0 Z " /><path fill="rgb(251,88,65)" stroke="rgb(251,88,65)" stroke-width="1" opacity="0.984313725490196" d="M 226.5 59 L 227.5 61 L 226.5 59 Z " /><path fill="rgb(251,88,65)" stroke="rgb(251,88,65)" stroke-width="1" opacity="0.984313725490196" d="M 295.5 59 L 296 61.5 L 295 61.5 L 295.5 59 Z " /><path fill="rgb(251,88,65)" stroke="rgb(251,88,65)" stroke-width="1" opacity="0.984313725490196" d="M 457.5 73 L 458.5 75 L 457.5 73 Z " /><path fill="rgb(251,88,65)" stroke="rgb(251,88,65)" stroke-width="1" opacity="0.984313725490196" d="M 222.5 87 L 223.5 89 L 222.5 87 Z " /><path fill="rgb(251,88,65)" stroke="rgb(251,88,65)" stroke-width="1" opacity="0.984313725490196" d="M 135.5 120 L 137 120.5 L 134.5 122 L 135.5 120 Z " /><path fill="rgb(251,88,65)" stroke="rgb(251,88,65)" stroke-width="1" opacity="0.984313725490196" d="M 132.5 122 L 131.5 124 Q 112.037 137.037 97 154.5 L 78 176.5 L 78 182.5 Q 84.663 216.837 106.5 236 Q 108.75 236.75 108 234.5 L 122.5 210 L 123 211.5 L 122 213.5 L 122.5 215 Q 121.25 212.75 120 215.5 Q 93.76 257.26 78 309.5 Q 68.285 334.785 69 370.5 Q 70.123 396.877 83 411.5 Q 68.921 427.921 36.5 426 Q 21.904 422.096 14 411.5 Q -1.829 392.329 0 355.5 Q 9.433 281.933 41 230.5 Q 69.943 177.443 112.5 138 L 132.5 122 Z " /><path fill="rgb(251,88,65)" stroke="rgb(251,88,65)" stroke-width="1" opacity="0.984313725490196" d="M 120.5 237 L 121 239.5 L 120 239.5 L 120.5 237 Z " /><path fill="rgb(251,88,65)" stroke="rgb(251,88,65)" stroke-width="1" opacity="0.984313725490196" d="M 484.5 265 L 483.5 267 L 484.5 265 Z " /><path fill="rgb(251,88,65)" stroke="rgb(251,88,65)" stroke-width="1" opacity="0.984313725490196" d="M 489.5 267 Q 492.201 309.799 510 337.5 Q 512.8 348.2 512 362.5 Q 507.017 409.517 479.5 434 Q 425.468 474.968 351.5 496 Q 300.978 514.978 228.5 512 Q 210.555 510.445 196 505.5 Q 219.423 502.923 230 487.5 Q 242.75 473.25 242 445.5 Q 235.351 397.649 219 359.5 Q 215.846 348.654 217 333.5 Q 220.613 317.613 231.5 309 Q 234.786 306.286 241.5 307 Q 260.555 326.945 288.5 338 Q 310.601 347.399 343.5 346 Q 348.982 353.518 362.5 353 Q 371.9 350.4 376.5 343 Q 406.548 339.048 428.5 327 Q 445.628 317.128 459.5 304 L 461.5 304 Q 464.712 307.287 471.5 307 Q 479.295 305.795 483 300.5 Q 488 295 486 282.5 L 484 275.5 L 489.5 267 Z " /><path fill="rgb(251,88,65)" stroke="rgb(251,88,65)" stroke-width="1" opacity="0.984313725490196" d="M 226.5 280 L 227.5 282 L 226.5 280 Z " /><path fill="rgb(251,88,65)" stroke="rgb(251,88,65)" stroke-width="1" opacity="0.984313725490196" d="M 230.5 286 L 231.5 288 L 230.5 286 Z " /><path fill="rgb(251,88,65)" stroke="rgb(251,88,65)" stroke-width="1" opacity="0.984313725490196" d="M 117.5 287 L 118 289.5 L 117 289.5 L 117.5 287 Z " /><path fill="rgb(251,88,65)" stroke="rgb(251,88,65)" stroke-width="1" opacity="0.984313725490196" d="M 232.5 289 L 233.5 291 L 232.5 289 Z " /><path fill="rgb(251,88,65)" stroke="rgb(251,88,65)" stroke-width="1" opacity="0.984313725490196" d="M 454.5 292 L 455 293.5 L 452 295.5 L 454.5 292 Z " /><path fill="rgb(251,88,65)" stroke="rgb(251,88,65)" stroke-width="1" opacity="0.984313725490196" d="M 236.5 294 L 238.5 297 L 236.5 294 Z " /><path fill="rgb(251,88,65)" stroke="rgb(251,88,65)" stroke-width="1" opacity="0.984313725490196" d="M 248.5 306 L 250.5 309 L 248.5 306 Z " /><path fill="rgb(251,88,65)" stroke="rgb(251,88,65)" stroke-width="1" opacity="0.984313725490196" d="M 253.5 310 L 254.5 312 L 253.5 310 Z " /><path fill="rgb(251,88,65)" stroke="rgb(251,88,65)" stroke-width="1" opacity="0.984313725490196" d="M 116.5 318 L 117 321.5 L 116 321.5 L 116.5 318 Z " /><path fill="rgb(251,88,65)" stroke="rgb(251,88,65)" stroke-width="1" opacity="0.984313725490196" d="M 339.5 320 L 340 322.5 L 339 322.5 L 339.5 320 Z " /><path fill="rgb(251,88,65)" stroke="rgb(251,88,65)" stroke-width="1" opacity="0.984313725490196" d="M 116.5 331 L 117 333.5 L 116 333.5 L 116.5 331 Z " /><path fill="rgb(251,88,65)" stroke="rgb(251,88,65)" stroke-width="1" opacity="0.984313725490196" d="M 301.5 331 L 304 331.5 L 301.5 332 L 301.5 331 Z " /><path fill="rgb(251,88,65)" stroke="rgb(251,88,65)" stroke-width="1" opacity="0.984313725490196" d="M 307.5 332 L 311 332.5 L 307.5 333 L 307.5 332 Z " /><path fill="rgb(251,88,65)" stroke="rgb(251,88,65)" stroke-width="1" opacity="0.984313725490196" d="M 318.5 333 L 339 333.5 L 318.5 334 L 318.5 333 Z " /><path fill="rgb(251,88,65)" stroke="rgb(251,88,65)" stroke-width="1" opacity="0.984313725490196" d="M 116.5 340 L 117 342.5 L 116 342.5 L 116.5 340 Z " /><path fill="rgb(251,88,65)" stroke="rgb(251,88,65)" stroke-width="1" opacity="0.984313725490196" d="M 117.5 375 Q 118.456 407.544 123 436.5 L 113.5 446 L 112 444.5 Q 102.403 424.597 101 396.5 L 113 382.5 L 112.5 381 L 116 378.5 L 117.5 375 Z " /><path fill="rgb(251,88,65)" stroke="rgb(251,88,65)" stroke-width="1" opacity="0.984313725490196" d="M 124.5 448 L 125 450.5 L 124 450.5 L 124.5 448 Z " /><path fill="rgb(251,88,65)" stroke="rgb(251,88,65)" stroke-width="1" opacity="0.984313725490196" d="M 130.5 466 L 131.5 468 L 130.5 466 Z " /><path fill="rgb(251,88,65)" stroke="rgb(251,88,65)" stroke-width="1" opacity="0.984313725490196" d="M 133.5 470 L 134.5 472 L 133.5 470 Z " /><path fill="rgb(251,88,65)" stroke="rgb(251,88,65)" stroke-width="1" opacity="0.984313725490196" d="M 136.5 474 L 144.5 483 L 136.5 474 Z " /><path fill="rgb(251,88,65)" stroke="rgb(251,88,65)" stroke-width="1" opacity="0.984313725490196" d="M 146.5 483 L 153 488.5 L 150.5 487 L 146.5 483 Z " /></svg>