<svg width="512" height="512" version="1.1" xmlns="http://www.w3.org/2000/svg" desc="Created with imagetracer.js version 1.2.6" ><path fill="rgb(184,136,65)" stroke="rgb(184,136,65)" stroke-width="1" opacity="1" d="M 415.5 40 L 418 40.5 L 415.5 41 L 415.5 40 Z " /><path fill="rgb(184,136,65)" stroke="rgb(184,136,65)" stroke-width="1" opacity="1" d="M 71.5 49 L 70.5 51 L 71.5 49 Z " /><path fill="rgb(184,136,65)" stroke="rgb(184,136,65)" stroke-width="1" opacity="1" d="M 438.5 49 L 439.5 51 L 438.5 49 Z " /><path fill="rgb(184,136,65)" stroke="rgb(184,136,65)" stroke-width="1" opacity="1" d="M 61.5 59 L 60.5 61 L 61.5 59 Z " /><path fill="rgb(184,136,65)" stroke="rgb(184,136,65)" stroke-width="1" opacity="1" d="M 450.5 62 L 451.5 64 L 450.5 62 Z " /><path fill="rgb(184,136,65)" stroke="rgb(184,136,65)" stroke-width="1" opacity="1" d="M 51.5 81 L 52 83.5 L 51 83.5 L 51.5 81 Z " /><path fill="rgb(184,136,65)" stroke="rgb(184,136,65)" stroke-width="1" opacity="1" d="M 458.5 81 L 459 83.5 L 458 83.5 L 458.5 81 Z " /><path fill="rgb(184,136,65)" stroke="rgb(184,136,65)" stroke-width="1" opacity="1" d="M 120.5 139 L 218 139.5 L 120.5 140 L 120.5 139 Z " /><path fill="rgb(184,136,65)" stroke="rgb(184,136,65)" stroke-width="1" opacity="1" d="M 294.5 139 L 392 139.5 L 294.5 140 L 294.5 139 Z " /><path fill="rgb(184,136,65)" stroke="rgb(184,136,65)" stroke-width="1" opacity="1" d="M 239.5 146 L 240.5 148 L 239.5 146 Z " /><path fill="rgb(184,136,65)" stroke="rgb(184,136,65)" stroke-width="1" opacity="1" d="M 272.5 146 L 271.5 148 L 272.5 146 Z " /><path fill="rgb(184,136,65)" stroke="rgb(184,136,65)" stroke-width="1" opacity="1" d="M 95.5 148 L 94.5 150 L 95.5 148 Z " /><path fill="rgb(184,136,65)" stroke="rgb(184,136,65)" stroke-width="1" opacity="1" d="M 269.5 148 L 268.5 150 L 269.5 148 Z " /><path fill="rgb(184,136,65)" stroke="rgb(184,136,65)" stroke-width="1" opacity="1" d="M 416.5 148 L 417.5 150 L 416.5 148 Z " /><path fill="rgb(184,136,65)" stroke="rgb(184,136,65)" stroke-width="1" opacity="1" d="M 91.5 151 L 84.5 159 L 91.5 151 Z " /><path fill="rgb(184,136,65)" stroke="rgb(184,136,65)" stroke-width="1" opacity="1" d="M 246.5 151 L 248.5 154 L 246.5 151 Z " /><path fill="rgb(184,136,65)" stroke="rgb(184,136,65)" stroke-width="1" opacity="1" d="M 265.5 151 L 263.5 154 L 265.5 151 Z " /><path fill="rgb(184,136,65)" stroke="rgb(184,136,65)" stroke-width="1" opacity="1" d="M 420.5 151 L 427.5 159 L 420.5 151 Z " /><path fill="rgb(184,136,65)" stroke="rgb(184,136,65)" stroke-width="1" opacity="1" d="M 251.5 156 L 254.5 160 L 251.5 156 Z " /><path fill="rgb(184,136,65)" stroke="rgb(184,136,65)" stroke-width="1" opacity="1" d="M 260.5 156 L 257.5 160 L 260.5 156 Z " /><path fill="rgb(184,136,65)" stroke="rgb(184,136,65)" stroke-width="1" opacity="1" d="M 82.5 161 L 81.5 163 L 82.5 161 Z " /><path fill="rgb(184,136,65)" stroke="rgb(184,136,65)" stroke-width="1" opacity="1" d="M 429.5 161 L 430.5 163 L 429.5 161 Z " /><path fill="rgb(184,136,65)" stroke="rgb(184,136,65)" stroke-width="1" opacity="1" d="M 431.5 164 L 432.5 166 L 431.5 164 Z " /><path fill="rgb(184,136,65)" stroke="rgb(184,136,65)" stroke-width="1" opacity="1" d="M 52.5 235 L 51.5 237 L 52.5 235 Z " /><path fill="rgb(184,136,65)" stroke="rgb(184,136,65)" stroke-width="1" opacity="1" d="M 20.5 439 L 61 439.5 L 20.5 440 L 20.5 439 Z " /><path fill="rgb(184,136,65)" stroke="rgb(184,136,65)" stroke-width="1" opacity="1" d="M 451.5 439 L 492 439.5 L 451.5 440 L 451.5 439 Z " /><path fill="rgb(184,136,65)" stroke="rgb(184,136,65)" stroke-width="1" opacity="1" d="M 57.5 463 L 56.5 465 L 57.5 463 Z " /><path fill="rgb(184,136,65)" stroke="rgb(184,136,65)" stroke-width="1" opacity="1" d="M 454.5 463 L 455.5 465 L 454.5 463 Z " /><path fill="rgb(184,136,65)" stroke="rgb(184,136,65)" stroke-width="1" opacity="1" d="M 24.5 464 L 27.5 468 L 24.5 464 Z " /><path fill="rgb(184,136,65)" stroke="rgb(184,136,65)" stroke-width="1" opacity="1" d="M 487.5 464 L 484.5 468 L 487.5 464 Z " /><path fill="rgb(255,185,85)" stroke="rgb(255,185,85)" stroke-width="1" opacity="1" d="M 20 440 L 61 440 L 61 455.5 Q 58.75 463.25 53.5 468 Q 48.231 473.231 36.5 472 Q 27.45 469.55 23 462.5 Q 18.25 454.036 20 440 Z " /><path fill="rgb(255,185,85)" stroke="rgb(255,185,85)" stroke-width="1" opacity="1" d="M 451 440 L 492 440 L 492 453.5 Q 490.375 464.375 482.5 469 Q 477.7 473.2 467.5 472 Q 459.95 470.55 456 465.5 Q 448.333 457.432 451 440 Z " /><path fill="rgb(0,0,0)" stroke="rgb(0,0,0)" stroke-width="1" opacity="0.2823529411764706" d="M 95.5 19 L 415 19.5 L 95.5 20 L 95.5 19 Z " /><path fill="rgb(0,0,0)" stroke="rgb(0,0,0)" stroke-width="1" opacity="0.2823529411764706" d="M 88.5 20 L 91 20.5 L 88.5 21 L 88.5 20 Z " /><path fill="rgb(0,0,0)" stroke="rgb(0,0,0)" stroke-width="1" opacity="0.2823529411764706" d="M 419.5 20 L 422 20.5 L 419.5 21 L 419.5 20 Z " /><path fill="rgb(0,0,0)" stroke="rgb(0,0,0)" stroke-width="1" opacity="0.2823529411764706" d="M 441.5 27 L 442.5 29 L 441.5 27 Z " /><path fill="rgb(0,0,0)" stroke="rgb(0,0,0)" stroke-width="1" opacity="0.2823529411764706" d="M 63.5 30 L 62.5 32 L 63.5 30 Z " /><path fill="rgb(0,0,0)" stroke="rgb(0,0,0)" stroke-width="1" opacity="0.2823529411764706" d="M 446.5 30 L 447.5 32 L 446.5 30 Z " /><path fill="rgb(0,0,0)" stroke="rgb(0,0,0)" stroke-width="1" opacity="0.2823529411764706" d="M 60.5 32 L 59.5 34 L 60.5 32 Z " /><path fill="rgb(0,0,0)" stroke="rgb(0,0,0)" stroke-width="1" opacity="0.2823529411764706" d="M 449.5 32 L 450.5 34 L 449.5 32 Z " /><path fill="rgb(0,0,0)" stroke="rgb(0,0,0)" stroke-width="1" opacity="0.2823529411764706" d="M 56.5 35 L 52.5 40 L 56.5 35 Z " /><path fill="rgb(0,0,0)" stroke="rgb(0,0,0)" stroke-width="1" opacity="0.2823529411764706" d="M 453.5 35 L 463.5 46 L 453.5 35 Z " /><path fill="rgb(0,0,0)" stroke="rgb(0,0,0)" stroke-width="1" opacity="0.2823529411764706" d="M 50.5 41 L 46.5 46 L 50.5 41 Z " /><path fill="rgb(0,0,0)" stroke="rgb(0,0,0)" stroke-width="1" opacity="0.2823529411764706" d="M 44.5 48 L 43.5 50 L 44.5 48 Z " /><path fill="rgb(0,0,0)" stroke="rgb(0,0,0)" stroke-width="1" opacity="0.2823529411764706" d="M 465.5 48 L 466.5 50 L 465.5 48 Z " /><path fill="rgb(0,0,0)" stroke="rgb(0,0,0)" stroke-width="1" opacity="0.2823529411764706" d="M 42.5 51 L 41.5 53 L 42.5 51 Z " /><path fill="rgb(0,0,0)" stroke="rgb(0,0,0)" stroke-width="1" opacity="0.2823529411764706" d="M 467.5 51 L 468.5 53 L 467.5 51 Z " /><path fill="rgb(0,0,0)" stroke="rgb(0,0,0)" stroke-width="1" opacity="0.2823529411764706" d="M 470.5 56 L 473 60.5 L 472 60.5 L 470.5 56 Z " /><path fill="rgb(0,0,0)" stroke="rgb(0,0,0)" stroke-width="1" opacity="0.2823529411764706" d="M 31.5 77 L 32 79.5 L 31 79.5 L 31.5 77 Z " /><path fill="rgb(0,0,0)" stroke="rgb(0,0,0)" stroke-width="1" opacity="0.2823529411764706" d="M 478.5 78 L 479 80.5 L 478 80.5 L 478.5 78 Z " /><path fill="rgb(0,0,0)" stroke="rgb(0,0,0)" stroke-width="1" opacity="0.2823529411764706" d="M 30.5 85 L 31 253.5 L 27 256.5 L 30 253.5 L 30.5 85 Z " /><path fill="rgb(0,0,0)" stroke="rgb(0,0,0)" stroke-width="1" opacity="0.2823529411764706" d="M 479.5 86 L 480 251.5 L 485 256.5 L 479 251.5 L 479.5 86 Z " /><path fill="rgb(0,0,0)" stroke="rgb(0,0,0)" stroke-width="1" opacity="0.2823529411764706" d="M 25.5 259 L 23.5 262 L 25.5 259 Z " /><path fill="rgb(0,0,0)" stroke="rgb(0,0,0)" stroke-width="1" opacity="0.2823529411764706" d="M 486.5 259 L 488.5 262 L 486.5 259 Z " /><path fill="rgb(0,0,0)" stroke="rgb(0,0,0)" stroke-width="1" opacity="0.2823529411764706" d="M 21.5 264 L 20.5 266 L 21.5 264 Z " /><path fill="rgb(0,0,0)" stroke="rgb(0,0,0)" stroke-width="1" opacity="0.2823529411764706" d="M 490.5 264 L 491.5 266 L 490.5 264 Z " /><path fill="rgb(0,0,0)" stroke="rgb(0,0,0)" stroke-width="1" opacity="0.2823529411764706" d="M 494.5 270 L 495.5 272 L 494.5 270 Z " /><path fill="rgb(0,0,0)" stroke="rgb(0,0,0)" stroke-width="1" opacity="0.2823529411764706" d="M 15.5 273 L 14.5 275 L 15.5 273 Z " /><path fill="rgb(0,0,0)" stroke="rgb(0,0,0)" stroke-width="1" opacity="0.2823529411764706" d="M 1.5 310 L 2 312.5 L 1 312.5 L 1.5 310 Z " /><path fill="rgb(0,0,0)" stroke="rgb(0,0,0)" stroke-width="1" opacity="0.2823529411764706" d="M 510.5 310 L 511 312.5 L 510 312.5 L 510.5 310 Z " /><path fill="rgb(0,0,0)" stroke="rgb(0,0,0)" stroke-width="1" opacity="0.2823529411764706" d="M 0.5 316 L 1 320.5 L 0 320.5 L 0.5 316 Z " /><path fill="rgb(0,0,0)" stroke="rgb(0,0,0)" stroke-width="1" opacity="0.2823529411764706" d="M 511.5 316 L 512 320.5 L 511 320.5 L 511.5 316 Z " /><path fill="rgb(0,0,0)" stroke="rgb(0,0,0)" stroke-width="1" opacity="0.2823529411764706" d="M 81 439 L 430.5 439 L 431 439.5 L 431 453.5 L 430 453.5 Q 431.625 441.125 429.5 440 L 82 440 L 81.5 454 L 81 439 Z " /><path fill="rgb(0,0,0)" stroke="rgb(0,0,0)" stroke-width="1" opacity="0.2823529411764706" d="M 0.5 457 L 1 459.5 L 0 459.5 L 0.5 457 Z " /><path fill="rgb(0,0,0)" stroke="rgb(0,0,0)" stroke-width="1" opacity="0.2823529411764706" d="M 511.5 457 L 512 459.5 L 511 459.5 L 511.5 457 Z " /><path fill="rgb(0,0,0)" stroke="rgb(0,0,0)" stroke-width="1" opacity="0.2823529411764706" d="M 80.5 458 L 81 460.5 L 80 460.5 L 80.5 458 Z " /><path fill="rgb(0,0,0)" stroke="rgb(0,0,0)" stroke-width="1" opacity="0.2823529411764706" d="M 431.5 458 L 432 460.5 L 431 460.5 L 431.5 458 Z " /><path fill="rgb(0,0,0)" stroke="rgb(0,0,0)" stroke-width="1" opacity="0.2823529411764706" d="M 434.5 468 L 437 472.5 L 435 471.5 L 434.5 468 Z " /><path fill="rgb(0,0,0)" stroke="rgb(0,0,0)" stroke-width="1" opacity="0.2823529411764706" d="M 506.5 472 L 505.5 474 L 506.5 472 Z " /><path fill="rgb(0,0,0)" stroke="rgb(0,0,0)" stroke-width="1" opacity="0.2823529411764706" d="M 74.5 474 L 73.5 476 L 74.5 474 Z " /><path fill="rgb(0,0,0)" stroke="rgb(0,0,0)" stroke-width="1" opacity="0.2823529411764706" d="M 437.5 474 L 438.5 476 L 437.5 474 Z " /><path fill="rgb(0,0,0)" stroke="rgb(0,0,0)" stroke-width="1" opacity="0.2823529411764706" d="M 7.5 475 L 8.5 477 L 7.5 475 Z " /><path fill="rgb(0,0,0)" stroke="rgb(0,0,0)" stroke-width="1" opacity="0.2823529411764706" d="M 504.5 475 L 503.5 477 L 504.5 475 Z " /><path fill="rgb(0,0,0)" stroke="rgb(0,0,0)" stroke-width="1" opacity="0.2823529411764706" d="M 71.5 478 L 67.5 483 L 71.5 478 Z " /><path fill="rgb(0,0,0)" stroke="rgb(0,0,0)" stroke-width="1" opacity="0.2823529411764706" d="M 440.5 478 L 445.5 484 L 440.5 478 Z " /><path fill="rgb(0,0,0)" stroke="rgb(0,0,0)" stroke-width="1" opacity="0.2823529411764706" d="M 500.5 480 L 499.5 482 L 500.5 480 Z " /><path fill="rgb(0,0,0)" stroke="rgb(0,0,0)" stroke-width="1" opacity="0.2823529411764706" d="M 496.5 483 L 494.5 486 L 496.5 483 Z " /><path fill="rgb(0,0,0)" stroke="rgb(0,0,0)" stroke-width="1" opacity="0.2823529411764706" d="M 16.5 484 L 17.5 486 L 16.5 484 Z " /><path fill="rgb(0,0,0)" stroke="rgb(0,0,0)" stroke-width="1" opacity="0.2823529411764706" d="M 64.5 484 L 63.5 486 L 64.5 484 Z " /><path fill="rgb(0,0,0)" stroke="rgb(0,0,0)" stroke-width="1" opacity="0.2823529411764706" d="M 447.5 484 L 448.5 486 L 447.5 484 Z " /><path fill="rgb(0,0,0)" stroke="rgb(0,0,0)" stroke-width="1" opacity="0.2823529411764706" d="M 61.5 486 L 60.5 488 L 61.5 486 Z " /><path fill="rgb(0,0,0)" stroke="rgb(0,0,0)" stroke-width="1" opacity="0.2823529411764706" d="M 450.5 486 L 451.5 488 L 450.5 486 Z " /><path fill="rgb(0,0,0)" stroke="rgb(0,0,0)" stroke-width="1" opacity="0.2823529411764706" d="M 48.5 491 L 51 491.5 L 48.5 492 L 48.5 491 Z " /><path fill="rgb(0,0,0)" stroke="rgb(0,0,0)" stroke-width="1" opacity="0.2823529411764706" d="M 461.5 491 L 464 491.5 L 461.5 492 L 461.5 491 Z " /><path fill="rgb(0,0,0)" stroke="rgb(0,0,0)" stroke-width="1" opacity="0.2823529411764706" d="M 36.5 492 L 45 492.5 L 36.5 493 L 36.5 492 Z " /><path fill="rgb(0,0,0)" stroke="rgb(0,0,0)" stroke-width="1" opacity="0.2823529411764706" d="M 467.5 492 L 476 492.5 L 467.5 493 L 467.5 492 Z " /><path fill="rgb(255,185,84)" stroke="rgb(255,185,84)" stroke-width="1" opacity="1" d="M 94.5 40 L 414.5 40 Q 436.726 43.774 448 58.5 Q 456.527 68.473 459 84.5 L 459 234.5 L 457.5 234 L 440 225.5 Q 443.636 196.364 438 176.5 Q 432.345 160.655 420.5 151 Q 409.516 141.484 391.5 139 L 294.5 139 Q 269.25 142.75 257 159.5 Q 257.667 162.125 255 161 Q 255.5 153.625 246.5 151 Q 235.71 141.29 217.5 139 L 120.5 139 Q 96.112 142.612 84 158.5 Q 74.905 168.905 72 185.5 L 72 225.5 L 70.5 227 Q 59.25 229.75 51.5 236 L 51 84.5 Q 54.774 62.274 69.5 51 Q 79.312 42.812 94.5 40 Z " /><path fill="rgb(0,0,0)" stroke="rgb(0,0,0)" stroke-width="1" opacity="0" d="M 0 0 L 512 0 L 512 315.5 L 511 315.5 Q 505.586 273.414 480 251.5 L 480 86.5 Q 475.915 51.585 453.5 35 Q 438.887 22.113 414.5 19 L 95.5 19 Q 62.289 23.789 46 45.5 Q 32.831 60.331 30 85.5 L 30 253.5 Q 6.174 275.674 0.5 316 L 0 0 Z " /><path fill="rgb(0,0,0)" stroke="rgb(0,0,0)" stroke-width="1" opacity="0" d="M 82 440 L 429.5 440 Q 431.625 441.125 430 453.5 Q 432.25 474.25 445.5 484 Q 455.3 493.7 475.5 493 Q 492.184 490.684 501 480.5 Q 508.79 472.79 511.5 460 L 512 512 L 0.5 512 L 0 511.5 L 0 460.5 L 1 460.5 Q 2.402 474.671 11 481 Q 21.227 493.097 44.5 493 Q 62.75 490.25 72 478.5 Q 84.094 465.891 82 440 Z " /><path fill="rgb(209,214,214)" stroke="rgb(209,214,214)" stroke-width="1" opacity="1" d="M 232.5 166 L 233.5 168 L 232.5 166 Z " /><path fill="rgb(209,214,214)" stroke="rgb(209,214,214)" stroke-width="1" opacity="1" d="M 279.5 166 L 278.5 168 L 279.5 166 Z " /><path fill="rgb(209,214,214)" stroke="rgb(209,214,214)" stroke-width="1" opacity="1" d="M 104.5 167 L 103.5 169 L 104.5 167 Z " /><path fill="rgb(209,214,214)" stroke="rgb(209,214,214)" stroke-width="1" opacity="1" d="M 407.5 167 L 412.5 173 L 407.5 167 Z " /><path fill="rgb(209,214,214)" stroke="rgb(209,214,214)" stroke-width="1" opacity="1" d="M 101.5 170 L 99.5 173 L 101.5 170 Z " /><path fill="rgb(209,214,214)" stroke="rgb(209,214,214)" stroke-width="1" opacity="1" d="M 237.5 171 L 238.5 173 L 237.5 171 Z " /><path fill="rgb(209,214,214)" stroke="rgb(209,214,214)" stroke-width="1" opacity="1" d="M 245.5 189 L 246 191.5 L 245 191.5 L 245.5 189 Z " /><path fill="rgb(209,214,214)" stroke="rgb(209,214,214)" stroke-width="1" opacity="1" d="M 266.5 189 L 267 191.5 L 266 191.5 L 266.5 189 Z " /><path fill="rgb(209,214,214)" stroke="rgb(209,214,214)" stroke-width="1" opacity="1" d="M 92.5 190 L 93 219.5 L 94 220.5 L 92 221 L 92.5 190 Z " /><path fill="rgb(209,214,214)" stroke="rgb(209,214,214)" stroke-width="1" opacity="1" d="M 419.5 190 L 420 221 L 418 220.5 L 419 219.5 L 419.5 190 Z " /><path fill="rgb(209,214,214)" stroke="rgb(209,214,214)" stroke-width="1" opacity="1" d="M 100.5 219 L 103 219.5 L 100.5 220 L 100.5 219 Z " /><path fill="rgb(209,214,214)" stroke="rgb(209,214,214)" stroke-width="1" opacity="1" d="M 409.5 219 L 412 219.5 L 409.5 220 L 409.5 219 Z " /><path fill="rgb(234,240,240)" stroke="rgb(234,240,240)" stroke-width="1" opacity="1" d="M 120.5 160 L 217.5 160 Q 229.958 162.542 237 170.5 Q 250.758 185.906 246 219 L 100.5 219 Q 98.679 221.75 93 220 L 93 185.5 Q 95.845 175.162 102 169 Q 108.835 162.453 120.5 160 Z " /><path fill="rgb(234,240,240)" stroke="rgb(234,240,240)" stroke-width="1" opacity="1" d="M 294.5 160 L 391.5 160 Q 406.861 163.139 414 174.5 L 419 185.5 L 419 220 Q 413.321 221.75 411.5 219 L 266 219 Q 260.837 183.037 277.5 168 Q 284.09 162.09 294.5 160 Z " /><path fill="rgb(23,128,112)" stroke="rgb(23,128,112)" stroke-width="1" opacity="1" d="M 277.5 167 L 276.5 169 L 277.5 167 Z " /><path fill="rgb(23,128,112)" stroke="rgb(23,128,112)" stroke-width="1" opacity="1" d="M 104.5 239 L 408 239.5 L 104.5 240 L 104.5 239 Z " /><path fill="rgb(23,128,112)" stroke="rgb(23,128,112)" stroke-width="1" opacity="1" d="M 96.5 240 L 99 240.5 L 96.5 241 L 96.5 240 Z " /><path fill="rgb(23,128,112)" stroke="rgb(23,128,112)" stroke-width="1" opacity="1" d="M 413.5 240 L 416 240.5 L 413.5 241 L 413.5 240 Z " /><path fill="rgb(23,128,112)" stroke="rgb(23,128,112)" stroke-width="1" opacity="1" d="M 57.5 256 L 56.5 258 L 57.5 256 Z " /><path fill="rgb(23,128,112)" stroke="rgb(23,128,112)" stroke-width="1" opacity="1" d="M 454.5 256 L 455.5 258 L 454.5 256 Z " /><path fill="rgb(23,128,112)" stroke="rgb(23,128,112)" stroke-width="1" opacity="1" d="M 53.5 259 L 51.5 262 L 53.5 259 Z " /><path fill="rgb(23,128,112)" stroke="rgb(23,128,112)" stroke-width="1" opacity="1" d="M 458.5 259 L 461.5 263 L 458.5 259 Z " /><path fill="rgb(23,128,112)" stroke="rgb(23,128,112)" stroke-width="1" opacity="1" d="M 42.5 270 L 40.5 273 L 42.5 270 Z " /><path fill="rgb(23,128,112)" stroke="rgb(23,128,112)" stroke-width="1" opacity="1" d="M 469.5 270 L 471.5 273 L 469.5 270 Z " /><path fill="rgb(23,128,112)" stroke="rgb(23,128,112)" stroke-width="1" opacity="1" d="M 479.5 284 L 480.5 286 L 479.5 284 Z " /><path fill="rgb(23,128,112)" stroke="rgb(23,128,112)" stroke-width="1" opacity="1" d="M 20.5 319 L 21 323.5 L 20 323.5 L 20.5 319 Z " /><path fill="rgb(23,128,112)" stroke="rgb(23,128,112)" stroke-width="1" opacity="1" d="M 491.5 319 L 492 323.5 L 491 323.5 L 491.5 319 Z " /><path fill="rgb(23,128,112)" stroke="rgb(23,128,112)" stroke-width="1" opacity="1" d="M 20.5 359 L 294 359.5 L 20.5 360 L 20.5 359 Z " /><path fill="rgb(23,128,112)" stroke="rgb(23,128,112)" stroke-width="1" opacity="1" d="M 339.5 359 L 344 359.5 L 339.5 360 L 339.5 359 Z " /><path fill="rgb(23,128,112)" stroke="rgb(23,128,112)" stroke-width="1" opacity="1" d="M 389.5 359 L 492 359.5 L 389.5 360 L 389.5 359 Z " /><path fill="rgb(23,128,112)" stroke="rgb(23,128,112)" stroke-width="1" opacity="1" d="M 335.5 361 L 333.5 364 L 335.5 361 Z " /><path fill="rgb(23,128,112)" stroke="rgb(23,128,112)" stroke-width="1" opacity="1" d="M 385.5 361 L 383.5 364 L 385.5 361 Z " /><path fill="rgb(23,128,112)" stroke="rgb(23,128,112)" stroke-width="1" opacity="1" d="M 301.5 367 L 302 371.5 L 301 371.5 L 301.5 367 Z " /><path fill="rgb(23,128,112)" stroke="rgb(23,128,112)" stroke-width="1" opacity="1" d="M 351.5 367 L 352 371.5 L 351 371.5 L 351.5 367 Z " /><path fill="rgb(23,128,112)" stroke="rgb(23,128,112)" stroke-width="1" opacity="1" d="M 299.5 375 L 297.5 378 L 299.5 375 Z " /><path fill="rgb(23,128,112)" stroke="rgb(23,128,112)" stroke-width="1" opacity="1" d="M 349.5 375 L 347.5 378 L 349.5 375 Z " /><path fill="rgb(23,128,112)" stroke="rgb(23,128,112)" stroke-width="1" opacity="1" d="M 20.5 379 L 292 379.5 L 20.5 380 L 20.5 379 Z " /><path fill="rgb(23,128,112)" stroke="rgb(23,128,112)" stroke-width="1" opacity="1" d="M 391.5 379 L 492 379.5 L 391.5 380 L 391.5 379 Z " /><path fill="rgb(0,208,176)" stroke="rgb(0,208,176)" stroke-width="1" opacity="1" d="M 99.5 240 L 412.5 240 Q 449.278 246.222 469 269.5 Q 497.298 297.957 492 359 L 389.5 359 L 383 363.5 L 382 369 L 352.5 369 L 352 367.5 L 346.5 360 L 339.5 359 L 333 363.5 L 330.5 369 L 302.5 369 L 302 367.5 L 296.5 360 L 293.5 359 L 20 359 Q 14.133 289.908 50.5 262 Q 68.821 244.821 99.5 240 Z " /><path fill="rgb(108,130,127)" stroke="rgb(108,130,127)" stroke-width="1" opacity="1" d="M 100.5 39 L 410 39.5 L 100.5 40 L 100.5 39 Z " /><path fill="rgb(108,130,127)" stroke="rgb(108,130,127)" stroke-width="1" opacity="1" d="M 50.5 90 L 51 236.5 L 50 236.5 L 50.5 90 Z " /><path fill="rgb(108,130,127)" stroke="rgb(108,130,127)" stroke-width="1" opacity="1" d="M 249.5 154 L 250.5 156 L 249.5 154 Z " /><path fill="rgb(108,130,127)" stroke="rgb(108,130,127)" stroke-width="1" opacity="1" d="M 262.5 154 L 261.5 156 L 262.5 154 Z " /><path fill="rgb(108,130,127)" stroke="rgb(108,130,127)" stroke-width="1" opacity="1" d="M 123.5 159 L 215 159.5 L 123.5 160 L 123.5 159 Z " /><path fill="rgb(108,130,127)" stroke="rgb(108,130,127)" stroke-width="1" opacity="1" d="M 297.5 159 L 389 159.5 L 297.5 160 L 297.5 159 Z " /><path fill="rgb(108,130,127)" stroke="rgb(108,130,127)" stroke-width="1" opacity="1" d="M 106.5 165 L 105.5 167 L 106.5 165 Z " /><path fill="rgb(108,130,127)" stroke="rgb(108,130,127)" stroke-width="1" opacity="1" d="M 405.5 165 L 406.5 167 L 405.5 165 Z " /><path fill="rgb(108,130,127)" stroke="rgb(108,130,127)" stroke-width="1" opacity="1" d="M 239.5 173 L 240.5 175 L 239.5 173 Z " /><path fill="rgb(108,130,127)" stroke="rgb(108,130,127)" stroke-width="1" opacity="1" d="M 272.5 173 L 271.5 175 L 272.5 173 Z " /><path fill="rgb(108,130,127)" stroke="rgb(108,130,127)" stroke-width="1" opacity="1" d="M 245.5 186 L 246 188.5 L 245 188.5 L 245.5 186 Z " /><path fill="rgb(108,130,127)" stroke="rgb(108,130,127)" stroke-width="1" opacity="1" d="M 266.5 186 L 267 188.5 L 266 188.5 L 266.5 186 Z " /><path fill="rgb(108,130,127)" stroke="rgb(108,130,127)" stroke-width="1" opacity="1" d="M 92.5 187 L 93 189.5 L 92 189.5 L 92.5 187 Z " /><path fill="rgb(108,130,127)" stroke="rgb(108,130,127)" stroke-width="1" opacity="1" d="M 419.5 187 L 420 189.5 L 419 189.5 L 419.5 187 Z " /><path fill="rgb(108,130,127)" stroke="rgb(108,130,127)" stroke-width="1" opacity="1" d="M 103.5 219 L 246 219.5 L 103.5 220 L 103.5 219 Z " /><path fill="rgb(108,130,127)" stroke="rgb(108,130,127)" stroke-width="1" opacity="1" d="M 266.5 219 L 409 219.5 L 266.5 220 L 266.5 219 Z " /><path fill="rgb(108,130,127)" stroke="rgb(108,130,127)" stroke-width="1" opacity="1" d="M 333.5 375 L 335.5 378 L 333.5 375 Z " /><path fill="rgb(108,130,127)" stroke="rgb(108,130,127)" stroke-width="1" opacity="1" d="M 383.5 375 L 385.5 378 L 383.5 375 Z " /><path fill="rgb(108,130,127)" stroke="rgb(108,130,127)" stroke-width="1" opacity="1" d="M 39.5 472 L 42 472.5 L 39.5 473 L 39.5 472 Z " /><path fill="rgb(108,130,127)" stroke="rgb(108,130,127)" stroke-width="1" opacity="1" d="M 470.5 472 L 473 472.5 L 470.5 473 L 470.5 472 Z " /><path fill="rgb(1,2,1)" stroke="rgb(1,2,1)" stroke-width="1" opacity="0.996078431372549" d="M 91.5 20 L 418.5 20 Q 449.675 25.825 465 47.5 Q 475.771 60.729 479 81.5 L 479 251.5 Q 506.51 275.49 512 321.5 L 512 456.5 Q 508.899 473.899 497.5 483 Q 487.199 493.699 464.5 492 Q 447.445 488.555 439 476.5 Q 428.253 464.037 431 439 L 81.5 439 L 81 439.5 L 81 457.5 Q 77.498 474.998 65.5 484 Q 55.114 493.614 33.5 492 Q 17.613 488.387 9 477.5 Q 2.089 469.411 0 456.5 L 0 321.5 Q 5.233 277.233 31 253.5 L 31 80.5 Q 35.838 54.653 51 40 Q 65.653 24.838 91.5 20 Z M 101 39 Q 77 41 65 54 Q 52 66 50 91 L 50 237 L 70 227 L 72 227 Q 70 202 73 183 Q 76 169 83 161 Q 94 144 118 140 L 222 140 Q 244 145 256 161 Q 268 145 291 140 L 395 140 Q 410 143 420 151 Q 433 161 438 179 Q 443 199 440 227 L 459 235 L 459 82 Q 455 64 445 54 Q 433 41 410 39 L 101 39 Z M 123 159 Q 113 160 107 165 Q 97 171 93 184 Q 89 199 92 221 L 98 220 L 246 220 L 246 187 L 238 171 Q 230 161 216 159 L 123 159 Z M 297 159 Q 285 161 278 167 Q 269 174 266 187 L 266 220 L 415 220 L 420 221 L 420 188 L 415 175 Q 407 162 390 159 L 297 159 Z M 105 239 Q 72 242 54 259 Q 13 286 20 360 L 296 360 L 298 361 Q 303 364 301 374 L 295 379 L 21 379 L 20 380 L 20 419 L 492 419 L 492 419 L 492 379 L 389 379 L 387 378 L 382 373 L 383 365 L 389 360 L 492 360 Q 498 301 472 273 Q 451 245 408 239 L 105 239 Z M 20 439 Q 17 455 23 464 Q 28 471 40 473 Q 48 473 53 469 Q 58 465 61 458 L 61 439 L 20 439 Z M 451 439 Q 448 456 454 464 Q 459 472 471 473 Q 479 473 484 469 Q 490 465 492 457 L 492 439 L 451 439 Z " /><path fill="rgb(1,2,1)" stroke="rgb(1,2,1)" stroke-width="1" opacity="0.996078431372549" d="M 338.5 360 Q 347.531 358.469 350 363.5 Q 352.333 366.667 351 373.5 Q 348.875 380.375 338.5 379 L 333 374.5 L 332 366.5 L 336.5 361 L 338.5 360 Z " /><path fill="rgb(102,227,208)" stroke="rgb(102,227,208)" stroke-width="1" opacity="1" d="M 302 369 L 330.5 369 L 332 370.5 Q 331.344 376.656 335.5 378 L 343.5 380 L 351 374.5 L 352 369 L 380.5 369 L 382 370.5 Q 381.344 376.656 385.5 378 L 390.5 380 L 492 380 L 492 418.5 L 491.5 419 L 20 419 L 20 380.5 L 20.5 380 L 293.5 380 L 301 374.5 L 302 369 Z " /></svg>