<svg width="512" height="512" version="1.1" xmlns="http://www.w3.org/2000/svg" desc="Created with imagetracer.js version 1.2.6" ><path fill="rgb(0,0,0)" stroke="rgb(0,0,0)" stroke-width="1" opacity="0" d="M 0 0 L 512 0 L 512 311.5 L 511 311.5 Q 505.81 278.69 485.5 261 Q 463.016 236.484 415.5 237 L 401.5 240 L 392 221 L 387 219 Q 383.218 202.132 374 188.5 L 374 185.5 Q 377.6 182.6 376 174.5 Q 372.363 159.137 363.5 149 L 355 146 L 352 137 Q 364.307 135.46 372 128.5 L 373 119.5 L 372 117 Q 372 114.5 367.5 115 Q 334.621 103.879 298.5 96 Q 286.451 96.951 280 103.5 L 279 109.5 L 283.5 115 L 288.5 116 Q 293.182 112.182 302.5 113 L 306.5 115 L 339.5 123 L 341 124.5 L 337 126 Q 333.4 128.8 334 136.5 L 340 151.5 L 199.5 220 L 196 212.5 Q 192.149 191.351 185 173.5 L 217.5 161 L 225 155.5 Q 225.875 148.625 221.5 147 L 216.5 146 Q 188.636 152.636 157.5 156 L 151 158 Q 146.412 163.838 147 175.5 L 149.5 179 Q 156.125 181.875 167.5 180 L 169.5 179 L 172 183.5 L 184 229.5 L 182 236.5 L 186 249.5 L 154.5 271 Q 132.964 241.536 83.5 240 Q 38.91 244.91 18 273.5 Q 4.452 289.452 0.5 315 L 0 0 Z " /><path fill="rgb(0,0,0)" stroke="rgb(0,0,0)" stroke-width="1" opacity="0" d="M 348.5 175 Q 350.75 174.25 350 176.5 L 239.5 303 L 225 300 L 209 242 L 348.5 175 Z " /><path fill="rgb(0,0,0)" stroke="rgb(0,0,0)" stroke-width="1" opacity="0" d="M 361.5 201 L 373 224.5 L 373 232.5 L 380 250 Q 365.412 256.515 356 269.5 Q 335.608 291.108 337 334.5 Q 342.931 371.569 366.5 391 Q 386.818 411.182 425.5 413 Q 471.845 409.345 493 380.5 Q 507.859 364.359 511.5 337 L 512 512 L 0 512 L 0 341.5 L 1 341.5 Q 5.47 374.166 25 391 Q 46.813 415.458 93.5 416 Q 134.777 410.777 155 384.5 Q 170.682 367.84 174 340 L 191 339 Q 193.531 355.145 205.5 363 Q 213.024 368.476 225.5 369 Q 239.207 368.207 246.5 361 Q 251.327 372.173 267.5 372 L 280 356.5 L 281 348.5 L 278.5 345 L 269.5 344 L 263 353 L 256 348.5 Q 260.773 341.273 259 327.5 L 257 320.5 L 361.5 201 Z " /><path fill="rgb(0,0,0)" stroke="rgb(0,0,0)" stroke-width="1" opacity="0" d="M 420.5 260 Q 459.959 261.041 476 285.5 Q 490.881 301.119 489 333.5 Q 483.849 360.849 465.5 375 Q 449.887 391.387 415.5 389 Q 390.693 384.307 377 368.5 Q 359.752 352.248 360 318.5 Q 364.599 289.599 383.5 275 L 389.5 271 L 411 319.5 L 418.5 332 L 426.5 334 Q 432.25 332.75 435 328.5 L 436 319.5 L 411 262.5 Q 413.417 258.917 420.5 260 Z " /><path fill="rgb(0,0,0)" stroke="rgb(0,0,0)" stroke-width="1" opacity="0" d="M 77.5 264 Q 119.085 261.415 135 284.5 L 79.5 321 L 73 327.5 L 72 334.5 Q 73.25 340.25 77.5 343 Q 82.167 346.833 92.5 345 L 93.5 344 Q 124.192 344.593 150 341 Q 145.894 364.496 129.5 377 Q 114.583 392.083 85.5 393 Q 51.588 389.412 36 367.5 Q 20.879 352.121 23 319.5 Q 28.383 291.383 47.5 277 Q 59.196 267.196 77.5 264 Z " /><path fill="rgb(0,0,0)" stroke="rgb(0,0,0)" stroke-width="1" opacity="0" d="M 192.5 275 L 202 309.5 L 197.5 314 L 174 315 L 168 291 L 192.5 275 Z " /><path fill="rgb(0,0,0)" stroke="rgb(0,0,0)" stroke-width="1" opacity="0" d="M 147.5 305 L 151 317 L 129.5 318 L 129.5 317 L 147.5 305 Z " /><path fill="rgb(0,113,160)" stroke="rgb(0,113,160)" stroke-width="1" opacity="0.9254901960784314" d="M 415.5 237 L 434 237.5 L 415.5 238 L 415.5 237 Z " /><path fill="rgb(0,113,160)" stroke="rgb(0,113,160)" stroke-width="1" opacity="0.9254901960784314" d="M 409.5 238 L 413 238.5 L 409.5 239 L 409.5 238 Z " /><path fill="rgb(0,113,160)" stroke="rgb(0,113,160)" stroke-width="1" opacity="0.9254901960784314" d="M 436.5 238 L 441 238.5 L 436.5 239 L 436.5 238 Z " /><path fill="rgb(0,113,160)" stroke="rgb(0,113,160)" stroke-width="1" opacity="0.9254901960784314" d="M 404.5 239 Q 435.479 246.021 453 266.5 L 451.5 266 Q 439.537 259.463 420.5 260 L 410 262 L 401 240 L 404.5 239 Z " /><path fill="rgb(0,113,160)" stroke="rgb(0,113,160)" stroke-width="1" opacity="0.9254901960784314" d="M 442.5 239 L 445 239.5 L 442.5 240 L 442.5 239 Z " /><path fill="rgb(0,113,160)" stroke="rgb(0,113,160)" stroke-width="1" opacity="0.9254901960784314" d="M 83.5 240 L 92 240.5 L 83.5 241 L 83.5 240 Z " /><path fill="rgb(0,113,160)" stroke="rgb(0,113,160)" stroke-width="1" opacity="0.9254901960784314" d="M 73.5 241 L 77 241.5 L 73.5 242 L 73.5 241 Z " /><path fill="rgb(0,113,160)" stroke="rgb(0,113,160)" stroke-width="1" opacity="0.9254901960784314" d="M 97.5 241 L 101 241.5 L 97.5 242 L 97.5 241 Z " /><path fill="rgb(0,113,160)" stroke="rgb(0,113,160)" stroke-width="1" opacity="0.9254901960784314" d="M 68.5 242 L 72 242.5 L 68 243.5 Q 92.916 250.084 108 266.5 L 106.5 266 Q 94.818 262.182 77.5 264 Q 50.583 269.083 37 287.5 Q 21.45 303.45 23 336.5 Q 27.909 365.091 47.5 379 Q 62.123 391.877 88.5 393 Q 101.648 392.648 110.5 388 L 110.5 389 Q 93.65 405.15 68 412.5 L 71 413.5 L 67.5 414 Q 41.308 406.91 25 391 Q -1.773 368.049 0 315.5 Q 6.941 277.941 32.5 259 Q 46.872 246.872 68.5 242 Z " /><path fill="rgb(0,113,160)" stroke="rgb(0,113,160)" stroke-width="1" opacity="0.9254901960784314" d="M 104.5 242 L 107 242.5 L 104.5 243 L 104.5 242 Z " /><path fill="rgb(0,113,160)" stroke="rgb(0,113,160)" stroke-width="1" opacity="0.9254901960784314" d="M 108.5 243 L 111 243.5 L 108.5 244 L 108.5 243 Z " /><path fill="rgb(0,113,160)" stroke="rgb(0,113,160)" stroke-width="1" opacity="0.9254901960784314" d="M 467.5 248 L 471 250.5 L 469.5 250 L 467.5 248 Z " /><path fill="rgb(0,113,160)" stroke="rgb(0,113,160)" stroke-width="1" opacity="0.9254901960784314" d="M 380.5 249 L 390 270.5 L 374 284.5 Q 359.5 300 360 330.5 Q 363.679 357.821 380.5 372 Q 396.609 390.891 433.5 389 Q 446 387.5 454.5 382 L 454.5 383 Q 436.884 401.884 408 409.5 L 410 410.5 L 406.5 411 Q 376.34 403.66 359 383.5 Q 335.517 361.983 337 315.5 Q 343.452 275.952 369.5 256 L 380.5 249 Z " /><path fill="rgb(0,113,160)" stroke="rgb(0,113,160)" stroke-width="1" opacity="0.9254901960784314" d="M 127.5 250 L 130 251.5 L 128.5 251 L 127.5 250 Z " /><path fill="rgb(0,113,160)" stroke="rgb(0,113,160)" stroke-width="1" opacity="0.9254901960784314" d="M 472.5 251 L 484 260.5 L 478.5 256 Q 473.25 254.25 472.5 251 Z " /><path fill="rgb(0,113,160)" stroke="rgb(0,113,160)" stroke-width="1" opacity="0.9254901960784314" d="M 131.5 252 L 135 254.5 L 133.5 254 L 131.5 252 Z " /><path fill="rgb(0,113,160)" stroke="rgb(0,113,160)" stroke-width="1" opacity="0.9254901960784314" d="M 136.5 255 L 154 270.5 L 143.5 261 Q 137.958 258.875 136.5 255 Z " /><path fill="rgb(0,113,160)" stroke="rgb(0,113,160)" stroke-width="1" opacity="0.9254901960784314" d="M 485.5 261 L 494 270.5 L 488 265.5 L 485.5 261 Z " /><path fill="rgb(0,113,160)" stroke="rgb(0,113,160)" stroke-width="1" opacity="0.9254901960784314" d="M 109.5 267 L 112 268.5 L 110.5 268 L 109.5 267 Z " /><path fill="rgb(0,113,160)" stroke="rgb(0,113,160)" stroke-width="1" opacity="0.9254901960784314" d="M 458.5 269 L 461 270.5 L 459.5 271 L 458.5 269 Z " /><path fill="rgb(0,113,160)" stroke="rgb(0,113,160)" stroke-width="1" opacity="0.9254901960784314" d="M 494.5 272 L 496.5 275 L 494.5 272 Z " /><path fill="rgb(0,113,160)" stroke="rgb(0,113,160)" stroke-width="1" opacity="0.9254901960784314" d="M 123.5 274 L 129 278.5 L 125.5 276 L 123.5 274 Z " /><path fill="rgb(0,113,160)" stroke="rgb(0,113,160)" stroke-width="1" opacity="0.9254901960784314" d="M 465.5 274 L 469.5 279 L 465.5 274 Z " /><path fill="rgb(0,113,160)" stroke="rgb(0,113,160)" stroke-width="1" opacity="0.9254901960784314" d="M 497.5 276 L 506 291.5 L 505 291.5 L 497.5 276 Z " /><path fill="rgb(0,113,160)" stroke="rgb(0,113,160)" stroke-width="1" opacity="0.9254901960784314" d="M 471.5 280 L 475.5 285 L 471.5 280 Z " /><path fill="rgb(0,113,160)" stroke="rgb(0,113,160)" stroke-width="1" opacity="0.9254901960784314" d="M 132.5 281 L 134.5 284 L 132.5 281 Z " /><path fill="rgb(0,113,160)" stroke="rgb(0,113,160)" stroke-width="1" opacity="0.9254901960784314" d="M 476.5 286 L 478.5 289 L 476.5 286 Z " /><path fill="rgb(0,113,160)" stroke="rgb(0,113,160)" stroke-width="1" opacity="0.9254901960784314" d="M 168.5 295 L 170 298.5 L 169 298.5 L 168.5 295 Z " /><path fill="rgb(0,113,160)" stroke="rgb(0,113,160)" stroke-width="1" opacity="0.9254901960784314" d="M 507.5 296 L 509 300.5 L 508 300.5 L 507.5 296 Z " /><path fill="rgb(0,113,160)" stroke="rgb(0,113,160)" stroke-width="1" opacity="0.9254901960784314" d="M 483.5 297 L 485 299.5 L 483 298.5 L 483.5 297 Z " /><path fill="rgb(0,113,160)" stroke="rgb(0,113,160)" stroke-width="1" opacity="0.9254901960784314" d="M 509.5 302 L 510 304.5 L 509 304.5 L 509.5 302 Z " /><path fill="rgb(0,113,160)" stroke="rgb(0,113,160)" stroke-width="1" opacity="0.9254901960784314" d="M 171.5 303 L 172 305.5 L 171 305.5 L 171.5 303 Z " /><path fill="rgb(0,113,160)" stroke="rgb(0,113,160)" stroke-width="1" opacity="0.9254901960784314" d="M 510.5 306 L 511 309.5 L 510 309.5 L 510.5 306 Z " /><path fill="rgb(0,113,160)" stroke="rgb(0,113,160)" stroke-width="1" opacity="0.9254901960784314" d="M 172.5 307 L 173 309.5 L 172 309.5 L 172.5 307 Z " /><path fill="rgb(0,113,160)" stroke="rgb(0,113,160)" stroke-width="1" opacity="0.9254901960784314" d="M 173.5 311 L 174 315.5 L 173 315.5 L 173.5 311 Z " /><path fill="rgb(0,113,160)" stroke="rgb(0,113,160)" stroke-width="1" opacity="0.9254901960784314" d="M 488.5 312 L 489 315.5 L 488 315.5 L 488.5 312 Z " /><path fill="rgb(0,113,160)" stroke="rgb(0,113,160)" stroke-width="1" opacity="0.9254901960784314" d="M 511.5 312 L 512 318.5 L 511 318.5 L 511.5 312 Z " /><path fill="rgb(0,113,160)" stroke="rgb(0,113,160)" stroke-width="1" opacity="0.9254901960784314" d="M 489.5 320 L 490 327.5 L 489 327.5 L 489.5 320 Z " /><path fill="rgb(0,113,160)" stroke="rgb(0,113,160)" stroke-width="1" opacity="0.9254901960784314" d="M 511.5 332 L 512 336.5 L 511 336.5 L 511.5 332 Z " /><path fill="rgb(0,113,160)" stroke="rgb(0,113,160)" stroke-width="1" opacity="0.9254901960784314" d="M 488.5 334 L 489 336.5 L 488 336.5 L 488.5 334 Z " /><path fill="rgb(0,113,160)" stroke="rgb(0,113,160)" stroke-width="1" opacity="0.9254901960784314" d="M 173.5 340 L 174 344.5 L 173 344.5 L 173.5 340 Z " /><path fill="rgb(0,113,160)" stroke="rgb(0,113,160)" stroke-width="1" opacity="0.9254901960784314" d="M 510.5 340 L 511 342.5 L 510 342.5 L 510.5 340 Z " /><path fill="rgb(0,113,160)" stroke="rgb(0,113,160)" stroke-width="1" opacity="0.9254901960784314" d="M 149.5 344 L 150 346.5 L 149 346.5 L 149.5 344 Z " /><path fill="rgb(0,113,160)" stroke="rgb(0,113,160)" stroke-width="1" opacity="0.9254901960784314" d="M 172.5 346 L 173 348.5 L 172 348.5 L 172.5 346 Z " /><path fill="rgb(0,113,160)" stroke="rgb(0,113,160)" stroke-width="1" opacity="0.9254901960784314" d="M 508.5 348 L 509 350.5 L 508 350.5 L 508.5 348 Z " /><path fill="rgb(0,113,160)" stroke="rgb(0,113,160)" stroke-width="1" opacity="0.9254901960784314" d="M 171.5 350 L 172 352.5 L 171 352.5 L 171.5 350 Z " /><path fill="rgb(0,113,160)" stroke="rgb(0,113,160)" stroke-width="1" opacity="0.9254901960784314" d="M 483.5 351 L 484 352.5 L 482 353.5 L 483.5 351 Z " /><path fill="rgb(0,113,160)" stroke="rgb(0,113,160)" stroke-width="1" opacity="0.9254901960784314" d="M 507.5 352 L 508 353.5 L 505.5 359 L 505 357.5 L 507.5 352 Z " /><path fill="rgb(0,113,160)" stroke="rgb(0,113,160)" stroke-width="1" opacity="0.9254901960784314" d="M 479.5 359 L 478.5 361 L 479.5 359 Z " /><path fill="rgb(0,113,160)" stroke="rgb(0,113,160)" stroke-width="1" opacity="0.9254901960784314" d="M 168.5 360 L 169 361.5 L 162.5 373 L 163 371.5 L 168.5 360 Z " /><path fill="rgb(0,113,160)" stroke="rgb(0,113,160)" stroke-width="1" opacity="0.9254901960784314" d="M 477.5 362 L 474.5 366 L 477.5 362 Z " /><path fill="rgb(0,113,160)" stroke="rgb(0,113,160)" stroke-width="1" opacity="0.9254901960784314" d="M 502.5 364 L 503 365.5 L 501 366.5 L 502.5 364 Z " /><path fill="rgb(0,113,160)" stroke="rgb(0,113,160)" stroke-width="1" opacity="0.9254901960784314" d="M 139.5 366 L 138.5 368 L 139.5 366 Z " /><path fill="rgb(0,113,160)" stroke="rgb(0,113,160)" stroke-width="1" opacity="0.9254901960784314" d="M 473.5 367 L 471.5 370 L 473.5 367 Z " /><path fill="rgb(0,113,160)" stroke="rgb(0,113,160)" stroke-width="1" opacity="0.9254901960784314" d="M 500.5 368 L 500 369.5 L 498.5 372 L 499 370.5 L 500.5 368 Z " /><path fill="rgb(0,113,160)" stroke="rgb(0,113,160)" stroke-width="1" opacity="0.9254901960784314" d="M 469.5 371 L 466.5 375 L 469.5 371 Z " /><path fill="rgb(0,113,160)" stroke="rgb(0,113,160)" stroke-width="1" opacity="0.9254901960784314" d="M 134.5 372 L 131.5 376 L 134.5 372 Z " /><path fill="rgb(0,113,160)" stroke="rgb(0,113,160)" stroke-width="1" opacity="0.9254901960784314" d="M 497.5 373 L 496.5 375 L 497.5 373 Z " /><path fill="rgb(0,113,160)" stroke="rgb(0,113,160)" stroke-width="1" opacity="0.9254901960784314" d="M 161.5 374 L 161 375.5 L 158.5 379 L 160 376.5 L 161.5 374 Z " /><path fill="rgb(0,113,160)" stroke="rgb(0,113,160)" stroke-width="1" opacity="0.9254901960784314" d="M 464.5 375 L 463.5 377 L 464.5 375 Z " /><path fill="rgb(0,113,160)" stroke="rgb(0,113,160)" stroke-width="1" opacity="0.9254901960784314" d="M 495.5 376 L 493.5 379 L 495.5 376 Z " /><path fill="rgb(0,113,160)" stroke="rgb(0,113,160)" stroke-width="1" opacity="0.9254901960784314" d="M 460.5 378 L 459.5 380 L 460.5 378 Z " /><path fill="rgb(0,113,160)" stroke="rgb(0,113,160)" stroke-width="1" opacity="0.9254901960784314" d="M 126.5 379 L 125.5 381 L 126.5 379 Z " /><path fill="rgb(0,113,160)" stroke="rgb(0,113,160)" stroke-width="1" opacity="0.9254901960784314" d="M 157.5 380 L 155.5 383 L 157.5 380 Z " /><path fill="rgb(0,113,160)" stroke="rgb(0,113,160)" stroke-width="1" opacity="0.9254901960784314" d="M 492.5 380 L 480.5 393 L 476.5 396 L 479.5 392 L 492.5 380 Z " /><path fill="rgb(0,113,160)" stroke="rgb(0,113,160)" stroke-width="1" opacity="0.9254901960784314" d="M 118.5 384 L 117.5 386 L 114.5 387 L 114.5 386 L 118.5 384 Z " /><path fill="rgb(0,113,160)" stroke="rgb(0,113,160)" stroke-width="1" opacity="0.9254901960784314" d="M 154.5 384 L 143.5 396 L 154.5 384 Z " /><path fill="rgb(0,113,160)" stroke="rgb(0,113,160)" stroke-width="1" opacity="0.9254901960784314" d="M 141.5 396 L 139.5 399 L 141.5 396 Z " /><path fill="rgb(0,113,160)" stroke="rgb(0,113,160)" stroke-width="1" opacity="0.9254901960784314" d="M 474.5 396 L 473.5 398 L 474.5 396 Z " /><path fill="rgb(0,113,160)" stroke="rgb(0,113,160)" stroke-width="1" opacity="0.9254901960784314" d="M 471.5 398 L 470.5 400 L 462.5 404 L 462.5 403 L 471.5 398 Z " /><path fill="rgb(0,113,160)" stroke="rgb(0,113,160)" stroke-width="1" opacity="0.9254901960784314" d="M 137.5 399 L 136.5 401 L 137.5 399 Z " /><path fill="rgb(0,113,160)" stroke="rgb(0,113,160)" stroke-width="1" opacity="0.9254901960784314" d="M 134.5 401 L 133.5 403 L 121.5 409 L 121.5 408 L 134.5 401 Z " /><path fill="rgb(0,113,160)" stroke="rgb(0,113,160)" stroke-width="1" opacity="0.9254901960784314" d="M 445.5 409 L 448 409.5 L 445.5 410 L 445.5 409 Z " /><path fill="rgb(0,113,160)" stroke="rgb(0,113,160)" stroke-width="1" opacity="0.9254901960784314" d="M 115.5 410 L 117 410.5 L 112.5 412 L 112.5 411 L 115.5 410 Z " /><path fill="rgb(0,113,160)" stroke="rgb(0,113,160)" stroke-width="1" opacity="0.9254901960784314" d="M 440.5 410 L 444 410.5 L 440.5 411 L 440.5 410 Z " /><path fill="rgb(0,113,160)" stroke="rgb(0,113,160)" stroke-width="1" opacity="0.9254901960784314" d="M 411.5 411 L 417 411.5 L 411.5 412 L 411.5 411 Z " /><path fill="rgb(0,113,160)" stroke="rgb(0,113,160)" stroke-width="1" opacity="0.9254901960784314" d="M 433.5 411 L 438 411.5 L 433.5 412 L 433.5 411 Z " /><path fill="rgb(0,113,160)" stroke="rgb(0,113,160)" stroke-width="1" opacity="0.9254901960784314" d="M 423.5 412 L 426 412.5 L 423.5 413 L 423.5 412 Z " /><path fill="rgb(0,113,160)" stroke="rgb(0,113,160)" stroke-width="1" opacity="0.9254901960784314" d="M 72.5 414 L 76 414.5 L 72.5 415 L 72.5 414 Z " /><path fill="rgb(0,113,160)" stroke="rgb(0,113,160)" stroke-width="1" opacity="0.9254901960784314" d="M 98.5 414 L 102 414.5 L 98.5 415 L 98.5 414 Z " /><path fill="rgb(0,113,160)" stroke="rgb(0,113,160)" stroke-width="1" opacity="0.9254901960784314" d="M 81.5 415 L 94 415.5 L 81.5 416 L 81.5 415 Z " /><path fill="rgb(251,92,62)" stroke="rgb(251,92,62)" stroke-width="1" opacity="0.9686274509803922" d="M 216.5 146 Q 222.656 145.344 224 149.5 L 225 155.5 L 217.5 161 Q 196.734 170.734 172.5 177 L 167.5 180 L 152.5 180 L 148 177.5 L 147 170.5 L 151 158 L 157.5 156 Q 188.636 152.636 216.5 146 Z " /><path fill="rgb(251,92,62)" stroke="rgb(251,92,62)" stroke-width="1" opacity="0.9686274509803922" d="M 355.5 146 Q 362.146 146.354 365 150.5 L 375 171.5 L 376 182.5 L 374 187 L 371 188.5 L 362 200.5 L 259 317.5 Q 256.4 318.9 257 323.5 Q 261.167 328.833 259 340.5 L 257 348 L 254.5 348 L 229.5 328 L 222.5 327 L 219 329 Q 217.25 331.375 218 337.5 L 246 360.5 L 244.5 363 Q 236.976 368.476 224.5 369 Q 205.29 367.21 197 354.5 Q 192 348.25 191 339 L 81.5 345 L 74 339.5 L 72 331.5 Q 73.05 323.55 79.5 321 Q 134.556 287.056 186 249.5 Q 182.295 243.705 182 234.5 Q 182.65 228.15 187.5 226 Q 267.993 182.493 355.5 146 Z M 349 175 L 209 242 L 225 300 L 240 303 L 350 177 Q 351 174 349 175 Z M 193 275 L 130 317 L 130 318 Q 158 315 191 315 Q 199 315 202 310 L 193 275 Z " /><path fill="rgb(251,92,62)" stroke="rgb(251,92,62)" stroke-width="1" opacity="0.9686274509803922" d="M 381.5 219 Q 389.458 217.833 392 221 L 433 311.5 Q 436.955 316.545 436 326.5 L 431.5 332 L 423.5 334 L 416 329.5 Q 397.084 291.916 382 250.5 L 374 235.5 L 373 227.5 L 376 222 L 381.5 219 Z " /><path fill="rgb(0,98,136)" stroke="rgb(0,98,136)" stroke-width="1" opacity="0.984313725490196" d="M 298.5 96 L 363.5 113 L 372 117 Q 373.875 119.687 373 126.5 L 369.5 131 L 352 137 Q 355.6 140.425 355 147 Q 344.941 146.219 340 152 L 334 136.5 L 334 132.5 L 337 126 L 341 124.5 L 339.5 123 Q 320.684 120.816 306.5 114 L 296.5 113 Q 292.458 115.958 285.5 116 L 280 111.5 L 279 106.5 L 282.5 101 L 298.5 96 Z " /><path fill="rgb(0,98,136)" stroke="rgb(0,98,136)" stroke-width="1" opacity="0.984313725490196" d="M 183.5 173 L 186 174.5 L 198 216.5 L 198 220.5 L 184.5 229 L 170 178 L 183.5 173 Z " /><path fill="rgb(0,98,136)" stroke="rgb(0,98,136)" stroke-width="1" opacity="0.984313725490196" d="M 372.5 187 Q 374.75 186.25 374 188.5 L 387 219 Q 379.208 218 376 222 L 373.5 227 L 362 199.5 L 372.5 187 Z " /><path fill="rgb(0,98,136)" stroke="rgb(0,98,136)" stroke-width="1" opacity="0.984313725490196" d="M 413.5 238 Q 465.514 236.486 488 264.5 Q 511.738 286.262 512 331.5 Q 506.44 371.94 480.5 392 Q 459.736 412.736 417.5 412 L 408 409.5 Q 419.708 407.208 428.5 402 Q 441.562 394.562 451.5 384 L 455 383 Q 453.75 380 457.5 381 L 470 371.5 Q 469.25 369.25 471.5 370 Q 483.583 359.083 488 340.5 L 488 338.5 L 490 320.5 L 487 304 L 485 303.5 Q 488.25 301 484 298.5 Q 479.849 287.151 471.5 280 Q 469.25 280.75 470 278.5 Q 466.643 273.536 461 272 Q 462.125 269.333 459.5 270 L 454.5 268 L 432.5 250 L 408 239.5 L 413.5 238 Z " /><path fill="rgb(0,98,136)" stroke="rgb(0,98,136)" stroke-width="1" opacity="0.984313725490196" d="M 77.5 241 Q 131.798 240.202 154 271.5 L 135.5 284 L 129 280 L 125.5 275 L 118 272 Q 119.25 269 115.5 270 Q 99.394 264.106 89.5 252 L 68 243.5 L 77.5 241 Z " /><path fill="rgb(0,98,136)" stroke="rgb(0,98,136)" stroke-width="1" opacity="0.984313725490196" d="M 166.5 292 Q 172.463 301.772 173 316 L 151 317 L 149 310.5 L 149 308.5 L 148 304 L 166.5 292 Z " /><path fill="rgb(0,98,136)" stroke="rgb(0,98,136)" stroke-width="1" opacity="0.984313725490196" d="M 222.5 327 L 229.5 328 Q 244.132 343.848 263 353 L 269.5 344 Q 277.458 342.542 280 346.5 L 281 354.5 L 268.5 371 L 260.5 372 L 218 337.5 Q 217.25 331.375 219 329 L 222.5 327 Z " /><path fill="rgb(0,98,136)" stroke="rgb(0,98,136)" stroke-width="1" opacity="0.984313725490196" d="M 159.5 340 L 173 340 L 173 345.5 Q 165.13 378.13 142.5 396 Q 121.167 417.167 76.5 415 L 68 412.5 Q 80.25 409.75 89.5 404 Q 105.538 389.037 127 379.5 L 128.5 377 L 135 372.5 L 137.5 368 L 140 366.5 L 143 359 Q 145.667 360.125 145 357.5 Q 150.938 351.771 150 341 Q 157.194 343.25 159.5 340 Z " /></svg>