<svg width="512" height="512" version="1.1" xmlns="http://www.w3.org/2000/svg" desc="Created with imagetracer.js version 1.2.6" ><path fill="rgb(0,0,0)" stroke="rgb(0,0,0)" stroke-width="1" opacity="0" d="M 0 0 L 511.5 0 L 512 0.5 L 512 120.5 L 511 120.5 Q 507.446 98.554 493.5 87 Q 480.339 73.661 457.5 70 L 45.5 70 Q 24.411 73.411 13 86.5 Q 3.401 95.901 0.5 112 L 0 0 Z " /><path fill="rgb(0,0,0)" stroke="rgb(0,0,0)" stroke-width="1" opacity="0" d="M 511.5 144 L 512 216.5 L 511 216.5 Q 508.915 204.085 499.5 199 Q 487.006 190.494 463 193.5 Q 487.5 188 500 170.5 Q 508.503 160.003 511.5 144 Z " /><path fill="rgb(0,0,0)" stroke="rgb(0,0,0)" stroke-width="1" opacity="0" d="M 0.5 215 Q 4.91 235.59 19.5 246 Q 27.769 253.627 41 255 Q 42.313 258.333 37.5 257 Q 19.917 262.417 10 275.5 Q 2.769 283.769 0.5 297 L 0.5 215 Z " /><path fill="rgb(0,0,0)" stroke="rgb(0,0,0)" stroke-width="1" opacity="0" d="M 511.5 233 L 512 305.5 L 511 305.5 Q 506.296 281.204 489.5 269 Q 478.875 259.625 462 256.5 Q 495.657 261.157 507 243.5 L 511.5 233 Z " /><path fill="rgb(0,0,0)" stroke="rgb(0,0,0)" stroke-width="1" opacity="0" d="M 511.5 329 L 512 401.5 L 511 401.5 Q 508.644 391.356 501.5 386 Q 489.486 375.514 464 378.5 Q 486 373.5 498 358.5 Q 508.593 347.593 511.5 329 Z " /><path fill="rgb(0,0,0)" stroke="rgb(0,0,0)" stroke-width="1" opacity="0" d="M 0.5 400 Q 4.415 418.585 16.5 429 Q 27.204 439.296 45.5 442 L 486.5 442 Q 498.522 439.522 505 431.5 L 511.5 419 L 512 512 L 0.5 512 L 0 511.5 L 0.5 400 Z " /><path fill="rgb(121,133,214)" stroke="rgb(121,133,214)" stroke-width="1" opacity="0.996078431372549" d="M 181.5 70 L 456.5 70 Q 482.326 73.674 496 89.5 Q 515.044 104.956 512 142.5 Q 506.883 167.883 489.5 181 L 489.5 179 L 198.5 179 L 191 173.5 Q 185.667 165.833 189 149.5 L 193.5 143 L 200.5 140 L 448.5 140 L 452 137.5 L 453 129.5 L 449.5 126 L 195.5 126 Q 185.36 128.36 180 135.5 Q 170.368 146.868 174 171.5 Q 176.857 183.143 185.5 189 L 198.5 194 L 456.5 194 L 461.5 193 L 462.5 194 Q 480 191.5 491.5 195 Q 500.536 198.464 506 205.5 Q 514.5 213.5 512 232.5 L 508.5 240 L 509 238.5 L 508.5 236 L 163.5 236 Q 148.2 233.3 141 222.5 L 136 211.5 L 136 113.5 Q 140.429 91.929 155.5 81 Q 165.795 72.795 181.5 70 Z " /><path fill="rgb(121,133,214)" stroke="rgb(121,133,214)" stroke-width="1" opacity="0.996078431372549" d="M 487.5 181 L 485.5 184 Q 477.107 191.107 463.5 193 L 463.5 192 Q 478.881 189.881 487.5 181 Z " /><path fill="rgb(113,126,212)" stroke="rgb(113,126,212)" stroke-width="1" opacity="1" d="M 45.5 70 L 181 70.5 Q 157.573 74.573 146 90.5 Q 138.695 99.695 136 113.5 L 136 211.5 Q 139.344 223.656 148.5 230 Q 154.282 234.718 163.5 236 L 509 236 L 508 239.5 Q 510.25 240.75 507.5 242 L 506 242.5 L 507 243.5 L 499.5 251 L 488.5 256 L 41.5 256 Q 20.834 251.166 10 236.5 Q 2.798 227.702 0 214.5 L 0 112.5 Q 4.233 95.365 14 85 Q 25.046 73.215 45.5 70 Z " /><path fill="rgb(113,126,212)" stroke="rgb(113,126,212)" stroke-width="1" opacity="1" d="M 195.5 126 L 449.5 126 L 453 129.5 Q 454.25 136.75 450.5 139 L 448.5 140 L 200.5 140 L 192 144.5 Q 185.25 151.75 189 169.5 L 194.5 177 L 198.5 179 L 490 179.5 L 488.5 182 Q 487 179.5 485.5 183 L 484 183.5 L 484.5 185 L 482.5 185 Q 471.833 191.833 456.5 194 L 198.5 194 Q 185.306 191.694 179 182.5 Q 170.406 171.594 174 148.5 Q 176.506 138.006 183.5 132 L 195.5 126 Z " /><path fill="rgb(136,189,245)" stroke="rgb(136,189,245)" stroke-width="1" opacity="0.9882352941176471" d="M 41.5 256 L 160 256.5 Q 138.145 260.145 127 274.5 Q 115.413 287.107 115 310 L 0.5 310 Q -1.5 309 0 297.5 Q 5.087 277.087 19.5 266 Q 28.298 258.798 41.5 256 Z " /><path fill="rgb(136,189,245)" stroke="rgb(136,189,245)" stroke-width="1" opacity="0.9882352941176471" d="M 1.5 325 L 115 325 L 115 372 L 0 372 L 0 326.5 L 1.5 325 Z " /><path fill="rgb(136,189,245)" stroke="rgb(136,189,245)" stroke-width="1" opacity="0.9882352941176471" d="M 0 387 L 114.5 387 Q 115.625 387.125 115 392.5 Q 118.219 418.781 135.5 431 Q 146.459 440.541 166 441.5 L 45.5 442 Q 25.046 438.785 14 427 Q -0.258 414.203 0 387 Z " /><path fill="rgb(163,213,247)" stroke="rgb(163,213,247)" stroke-width="1" opacity="0.9215686274509803" d="M 452.5 256 Q 485.285 257.715 499 278.5 Q 511.739 290.761 512 315.5 L 511 315.5 Q 509.693 286.307 492.5 273 Q 477.886 258.079 452.5 256 Z " /><path fill="rgb(163,213,247)" stroke="rgb(163,213,247)" stroke-width="1" opacity="0.9215686274509803" d="M 511.5 320 L 512 328.5 Q 507.186 352.186 491.5 365 L 489.5 366 L 499 355.5 Q 510.238 342.738 511.5 320 Z " /><path fill="rgb(163,213,247)" stroke="rgb(163,213,247)" stroke-width="1" opacity="0.9215686274509803" d="M 487.5 367 L 486.5 369 L 487.5 367 Z " /><path fill="rgb(163,213,247)" stroke="rgb(163,213,247)" stroke-width="1" opacity="0.9215686274509803" d="M 452.5 379 Q 489.775 373.225 505 389.5 Q 512.075 395.425 512 408.5 L 511 408.5 Q 510.09 392.41 499.5 386 L 485.5 380 L 452.5 380 L 452.5 379 Z " /><path fill="rgb(163,213,247)" stroke="rgb(163,213,247)" stroke-width="1" opacity="0.9215686274509803" d="M 511.5 412 L 512 418.5 L 508.5 426 L 508 424.5 Q 511.859 420.359 511.5 412 Z " /><path fill="rgb(163,213,247)" stroke="rgb(163,213,247)" stroke-width="1" opacity="0.9215686274509803" d="M 15.5 427 L 16.5 429 L 15.5 427 Z " /><path fill="rgb(163,213,247)" stroke="rgb(163,213,247)" stroke-width="1" opacity="0.9215686274509803" d="M 504.5 431 L 503.5 433 L 504.5 431 Z " /><path fill="rgb(168,216,248)" stroke="rgb(168,216,248)" stroke-width="1" opacity="0.996078431372549" d="M 492.5 273 L 494.5 276 L 492.5 273 Z " /><path fill="rgb(168,216,248)" stroke="rgb(168,216,248)" stroke-width="1" opacity="0.996078431372549" d="M 511.5 316 L 512 319.5 L 511 319.5 L 511.5 316 Z " /><path fill="rgb(168,216,248)" stroke="rgb(168,216,248)" stroke-width="1" opacity="0.996078431372549" d="M 511.5 409 L 512 411.5 L 511 411.5 L 511.5 409 Z " /><path fill="rgb(148,205,246)" stroke="rgb(148,205,246)" stroke-width="1" opacity="0.9882352941176471" d="M 160.5 256 L 181 256.5 Q 156.939 259.939 146 276.5 Q 138.403 285.903 136 300.5 L 136 395.5 Q 138.956 408.544 148.5 415 L 162.5 421 L 510 421.5 L 503 434 Q 496.212 440.065 484.5 442 L 166.5 442 Q 138.724 439.276 126 421.5 Q 114.838 409.337 115 387 L 0.5 387 L 0 386.5 L 0 372 L 115 372 L 115 325 L 1.5 325 L 0.5 326 L 0 310 L 114.5 310 L 115 306.5 Q 117.179 279.179 134.5 267 Q 144.795 258.795 160.5 256 Z " /><path fill="rgb(148,205,246)" stroke="rgb(148,205,246)" stroke-width="1" opacity="0.9882352941176471" d="M 195.5 311 L 449.5 311 L 453 314.5 L 454 320.5 L 450.5 325 L 448.5 326 L 199.5 326 L 192 330.5 Q 186.167 337.667 189 353.5 Q 190.25 359.25 194.5 362 L 198.5 364 L 490 364.5 L 489 367 Q 476.005 378.816 451.5 380 L 200.5 380 Q 186.733 378.267 180 369.5 Q 170.368 358.132 174 333.5 Q 176.929 320.929 186.5 315 L 195.5 311 Z " /><path fill="rgb(168,216,248)" stroke="rgb(168,216,248)" stroke-width="1" opacity="1" d="M 181.5 256 L 450.5 256 Q 483.681 259.319 499 280.5 Q 513.206 295.794 511 327.5 Q 506.186 351.186 490.5 364 L 198.5 364 L 191 358.5 Q 186.571 350.929 189 336.5 L 193.5 329 L 199.5 326 L 448.5 326 L 453 322.5 L 454 316.5 L 449.5 311 L 195.5 311 Q 183.865 314.365 178 323.5 Q 170.714 334.714 174 356.5 Q 176.506 366.994 183.5 373 Q 189.566 378.934 200.5 380 L 484.5 380 Q 498.216 382.284 505 391.5 Q 513.333 399.167 511 417.5 L 510 421 L 162.5 421 Q 148.104 417.896 141 407.5 L 136 395.5 L 136 300.5 Q 140.262 277.262 156.5 266 Q 166.122 258.122 181.5 256 Z " /></svg>