<svg width="512" height="512" version="1.1" xmlns="http://www.w3.org/2000/svg" desc="Created with imagetracer.js version 1.2.6" ><path fill="rgb(0,0,0)" stroke="rgb(0,0,0)" stroke-width="1" opacity="0" d="M 0 0 L 90 0.5 Q 77.037 3.037 70 11.5 Q 61.343 19.843 59 34.5 L 59 464.5 Q 62.612 488.888 78.5 501 Q 87.476 509.024 102 511.5 L 0 512 L 0 0 Z " /><path fill="rgb(0,0,0)" stroke="rgb(0,0,0)" stroke-width="1" opacity="0" d="M 449.5 0 L 511.5 0 L 512 0.5 L 512 512 L 449 511.5 L 453 506.5 L 453 5.5 L 449.5 0 Z " /><path fill="rgb(248,212,164)" stroke="rgb(248,212,164)" stroke-width="1" opacity="0.996078431372549" d="M 383.5 95 L 385.5 98 L 383.5 95 Z " /><path fill="rgb(248,212,164)" stroke="rgb(248,212,164)" stroke-width="1" opacity="0.996078431372549" d="M 390.5 108 L 391 174.5 L 390 174.5 L 390.5 108 Z " /><path fill="rgb(248,212,164)" stroke="rgb(248,212,164)" stroke-width="1" opacity="0.996078431372549" d="M 210.5 184 L 214.5 189 L 210.5 184 Z " /><path fill="rgb(248,212,164)" stroke="rgb(248,212,164)" stroke-width="1" opacity="0.996078431372549" d="M 386.5 184 L 382.5 189 L 386.5 184 Z " /><path fill="rgb(248,212,164)" stroke="rgb(248,212,164)" stroke-width="1" opacity="0.996078431372549" d="M 224.5 192 L 373 192.5 L 224.5 193 L 224.5 192 Z " /><path fill="rgb(248,212,164)" stroke="rgb(248,212,164)" stroke-width="1" opacity="0.996078431372549" d="M 104.5 407 L 447.5 407 L 451 409.5 L 453 414.5 L 453 506.5 L 448.5 512 L 102.5 512 Q 81.75 507.75 71 493.5 Q 59.918 481.582 59 459.5 Q 61.526 431.026 79.5 418 Q 89.312 409.812 104.5 407 Z " /><path fill="rgb(253,232,122)" stroke="rgb(253,232,122)" stroke-width="1" opacity="0.996078431372549" d="M 222.5 91 L 374.5 91 Q 382.85 93.15 387 99.5 L 390 105.5 L 390 177.5 Q 387.607 186.107 380.5 190 L 375.5 192 L 221.5 192 Q 214.083 189.417 210 183.5 L 207 176.5 L 207 106.5 Q 209.15 98.15 215.5 94 L 222.5 91 Z " /><path fill="rgb(71,137,216)" stroke="rgb(71,137,216)" stroke-width="1" opacity="0.9921568627450981" d="M 93.5 0 Q 104.125 -1.375 105 0.5 L 105 407 Q 81.5 410.75 70 427.5 Q 62.769 435.769 60.5 449 L 60 35.5 L 59 34.5 Q 62.819 19.819 71.5 10 Q 74 13.5 76.5 7 L 79 5.5 L 79.5 4 L 81 4.5 L 81.5 3 L 83.5 3 L 93.5 0 Z " /><path fill="rgb(100,173,227)" stroke="rgb(100,173,227)" stroke-width="1" opacity="0.8431372549019608" d="M 446.5 0 Q 451.5 -0.5 452 3.5 L 453 5.5 L 453 413.5 L 452 413.5 L 452 5.5 L 448.5 1 Q 445.5 1.5 446.5 0 Z " /><path fill="rgb(100,173,227)" stroke="rgb(100,173,227)" stroke-width="1" opacity="0.8431372549019608" d="M 76.5 6 L 75.5 8 L 76.5 6 Z " /><path fill="rgb(100,173,227)" stroke="rgb(100,173,227)" stroke-width="1" opacity="0.8431372549019608" d="M 65.5 18 L 64.5 20 L 65.5 18 Z " /><path fill="rgb(100,173,227)" stroke="rgb(100,173,227)" stroke-width="1" opacity="0.8431372549019608" d="M 59.5 454 L 60 458.5 L 59 458.5 L 59.5 454 Z " /><path fill="rgb(84,171,238)" stroke="rgb(84,171,238)" stroke-width="1" opacity="1" d="M 160.5 0 L 161 405.5 L 159.5 407 L 111.5 407 L 111.5 406 L 159.5 406 L 160 405.5 L 160.5 0 Z " /><path fill="rgb(84,171,238)" stroke="rgb(84,171,238)" stroke-width="1" opacity="1" d="M 207.5 278 L 390 278.5 L 207.5 279 L 207.5 278 Z " /><path fill="rgb(84,171,238)" stroke="rgb(84,171,238)" stroke-width="1" opacity="1" d="M 202.5 280 L 202 281.5 L 200.5 285 L 200 283.5 L 202.5 280 Z " /><path fill="rgb(84,171,238)" stroke="rgb(84,171,238)" stroke-width="1" opacity="1" d="M 394.5 280 L 395.5 282 L 394.5 280 Z " /><path fill="rgb(84,171,238)" stroke="rgb(84,171,238)" stroke-width="1" opacity="1" d="M 200.5 288 L 202 290.5 L 200 289.5 L 200.5 288 Z " /><path fill="rgb(84,171,238)" stroke="rgb(84,171,238)" stroke-width="1" opacity="1" d="M 395.5 291 L 394.5 293 L 395.5 291 Z " /><path fill="rgb(84,171,238)" stroke="rgb(84,171,238)" stroke-width="1" opacity="1" d="M 203.5 292 L 206 293.5 L 204.5 294 L 203.5 292 Z " /><path fill="rgb(84,171,238)" stroke="rgb(84,171,238)" stroke-width="1" opacity="1" d="M 205.5 325 L 208 325.5 L 205.5 326 L 205.5 325 Z " /><path fill="rgb(84,171,238)" stroke="rgb(84,171,238)" stroke-width="1" opacity="1" d="M 203.5 326 L 201.5 329 L 203.5 326 Z " /><path fill="rgb(84,171,238)" stroke="rgb(84,171,238)" stroke-width="1" opacity="1" d="M 393.5 326 L 397 330.5 L 396 330.5 L 393.5 326 Z " /><path fill="rgb(84,171,238)" stroke="rgb(84,171,238)" stroke-width="1" opacity="1" d="M 396.5 335 L 397 336.5 L 393 339.5 L 396.5 335 Z " /><path fill="rgb(84,171,238)" stroke="rgb(84,171,238)" stroke-width="1" opacity="1" d="M 201.5 337 L 203.5 340 L 201.5 337 Z " /><path fill="rgb(84,171,238)" stroke="rgb(84,171,238)" stroke-width="1" opacity="1" d="M 205.5 340 L 392 340.5 L 205.5 341 L 205.5 340 Z " /><path fill="rgb(72,144,221)" stroke="rgb(72,144,221)" stroke-width="1" opacity="1" d="M 105 0 L 159.5 0 L 160 0.5 L 160 406 L 111.5 406 L 105 407 L 105 0 Z " /><path fill="rgb(72,144,221)" stroke="rgb(72,144,221)" stroke-width="1" opacity="1" d="M 74.5 8 L 72.5 11 L 74.5 8 Z " /><path fill="rgb(72,144,221)" stroke="rgb(72,144,221)" stroke-width="1" opacity="1" d="M 69.5 13 L 66.5 17 L 69.5 13 Z " /><path fill="rgb(72,144,221)" stroke="rgb(72,144,221)" stroke-width="1" opacity="1" d="M 59.5 35 L 60 448.5 L 61 449.5 L 59.5 454 L 59.5 35 Z " /><path fill="rgb(72,144,221)" stroke="rgb(72,144,221)" stroke-width="1" opacity="1" d="M 205.5 279 L 391.5 279 L 396 282.5 L 397 287.5 L 393.5 293 L 391.5 294 L 206.5 294 L 202 292 L 200 285.5 L 203.5 280 L 205.5 279 Z " /><path fill="rgb(72,144,221)" stroke="rgb(72,144,221)" stroke-width="1" opacity="1" d="M 208.5 325 L 389.5 325 L 396 329.5 L 397 334.5 L 392.5 340 L 204.5 340 L 201 336.5 L 200 332.5 L 204.5 326 L 208.5 325 Z " /><path fill="rgb(72,144,221)" stroke="rgb(72,144,221)" stroke-width="1" opacity="1" d="M 81.5 416 L 80.5 418 L 81.5 416 Z " /><path fill="rgb(85,172,238)" stroke="rgb(85,172,238)" stroke-width="1" opacity="1" d="M 161 0 L 445.5 0 L 451 3.5 L 452 5.5 L 452 410.5 L 451 410.5 L 449.5 408 L 447.5 407 L 160 406.5 L 161 405.5 L 161 0 Z M 222 91 L 217 93 Q 209 97 207 106 L 207 179 L 210 185 Q 215 191 225 193 L 373 193 L 383 189 Q 390 185 391 175 L 391 109 L 386 98 L 377 91 L 222 91 Z M 208 278 L 203 280 L 200 284 Q 199 292 205 294 L 393 294 L 395 293 L 397 290 L 396 282 L 390 278 L 208 278 Z M 206 325 L 204 326 L 200 331 L 201 338 L 206 341 L 392 341 L 394 340 Q 399 338 397 330 L 392 325 L 206 325 Z " /></svg>