<svg width="512" height="512" version="1.1" xmlns="http://www.w3.org/2000/svg" desc="Created with imagetracer.js version 1.2.6" ><path fill="rgb(0,0,0)" stroke="rgb(0,0,0)" stroke-width="1" opacity="0" d="M 0 0 L 512 0 L 512 400.5 L 511 400.5 Q 507.95 390.05 499.5 385 Q 479.005 369.995 451 362.5 Q 493.857 325.357 496 247.5 L 486.5 240 Q 471.432 234.068 453.5 231 Q 389.536 220.464 317 218.5 L 453 92.5 Q 463.639 82.139 466 63.5 Q 464.125 51.875 455.5 47 Q 453.25 47.75 454 45.5 Q 449.684 34.316 431.5 37 Q 409.369 43.369 396 58.5 L 261.5 219 Q 178.23 217.73 105.5 227 L 58.5 236 Q 45.704 238.704 38 246.5 Q 35 253.5 37 265.5 Q 45.109 323.391 77 357.5 Q 31.778 366.778 4 393.5 L 0.5 401 L 0 0 Z " /><path fill="rgb(0,0,0)" stroke="rgb(0,0,0)" stroke-width="1" opacity="0" d="M 0.5 413 Q 4.273 424.227 13.5 430 Q 55.819 456.681 116.5 465 Q 198.157 478.843 297.5 475 Q 374.098 472.098 437.5 456 Q 482.19 447.69 508 420.5 L 511.5 413 L 512 512 L 0.5 512 L 0 511.5 L 0.5 413 Z " /><path fill="rgb(60,87,107)" stroke="rgb(60,87,107)" stroke-width="1" opacity="0.9725490196078431" d="M 212.5 219 L 262 219.5 L 249.5 234 Q 174.826 232.326 106.5 237 L 105.5 238 Q 83.5 238 65.5 242 Q 53.309 242.809 48 250.5 Q 47.25 257.25 52.5 258 L 69 264.5 L 66.5 265 Q 48.025 262.475 38 251.5 Q 36.75 245.25 40.5 244 Q 66.974 229.474 105.5 227 Q 156.79 220.79 212.5 219 Z " /><path fill="rgb(60,87,107)" stroke="rgb(60,87,107)" stroke-width="1" opacity="0.9725490196078431" d="M 316.5 219 Q 375.121 220.379 428.5 227 Q 455.169 230.331 478.5 237 Q 490.132 239.368 496 247.5 Q 495.917 253.917 491.5 256 Q 477.982 263.482 459.5 266 L 459.5 265 Q 472.592 262.592 480 254.5 L 481 247.5 Q 475.921 242.079 466.5 241 Q 448.686 236.814 426.5 237 L 425.5 236 Q 364.844 232.656 300 233.5 L 316.5 219 Z " /><path fill="rgb(60,87,107)" stroke="rgb(60,87,107)" stroke-width="1" opacity="0.9725490196078431" d="M 455.5 266 L 458 266.5 L 455.5 267 L 455.5 266 Z " /><path fill="rgb(66,182,158)" stroke="rgb(66,182,158)" stroke-width="1" opacity="0.9764705882352941" d="M 434.5 37 Q 449.154 36.346 454 45.5 Q 451.75 46.75 454.5 48 L 460 52.5 Q 465.322 56.678 466 65.5 Q 462.417 79.139 456 89 L 453 90.5 L 439.5 105 L 431 112.5 Q 431.75 116.437 427.5 116 L 416 126.5 Q 416.75 128.75 414.5 128 L 406 135.5 Q 406.75 137.75 404.5 137 L 403 140 Q 393.4 141.85 389 151.5 Q 389.833 154.125 386.5 153 L 379 162 L 376 163.5 L 375.5 165 L 374.5 164 L 367 171.5 L 365.5 174 L 363 175.5 L 362.5 177 L 361.5 176 L 352 185.5 L 350 188.5 Q 346 186.167 342 194.5 Q 342.75 196.75 340.5 196 L 339 199 Q 332.2 200.05 329 206.5 Q 329.75 208.75 327.5 208 L 248.5 281 L 244.5 281 L 243.5 280 L 209 279.5 Q 215.333 278.833 217 273.5 L 270 210.5 L 269.5 209 L 272.5 207 L 281 197.5 L 281 195 L 286 191.5 L 285.5 190 L 291 185.5 L 303.5 169 L 307 166.5 Q 312.682 164.265 312 158 L 318 153.5 L 323 147.5 L 322.5 146 L 328 141.5 L 344 122.5 L 344 120 L 350 115.5 Q 347.75 114.25 350.5 113 L 355 109.5 L 360 103.5 L 359.5 102 L 362.5 100 L 371 90.5 L 371 88 L 376 84.5 L 393.5 62 L 397 59.5 Q 396.25 57.25 398.5 58 Q 408.341 46.103 424 41 L 424.5 39 L 426.5 39 L 434.5 37 Z M 424 56 L 416 59 Q 408 63 406 73 Q 404 85 410 91 Q 414 96 422 98 Q 435 100 441 94 Q 446 90 448 83 Q 450 71 445 66 Q 440 55 424 56 Z " /><path fill="rgb(66,182,158)" stroke="rgb(66,182,158)" stroke-width="1" opacity="0.9764705882352941" d="M 172.5 234 L 195 234.5 L 172.5 235 L 172.5 234 Z " /><path fill="rgb(66,182,158)" stroke="rgb(66,182,158)" stroke-width="1" opacity="0.9764705882352941" d="M 360.5 234 L 377 234.5 L 360.5 235 L 360.5 234 Z " /><path fill="rgb(66,182,158)" stroke="rgb(66,182,158)" stroke-width="1" opacity="0.9764705882352941" d="M 140.5 235 L 152 235.5 L 140.5 236 L 140.5 235 Z " /><path fill="rgb(66,182,158)" stroke="rgb(66,182,158)" stroke-width="1" opacity="0.9764705882352941" d="M 398.5 235 L 406 235.5 L 398.5 236 L 398.5 235 Z " /><path fill="rgb(66,182,158)" stroke="rgb(66,182,158)" stroke-width="1" opacity="0.9764705882352941" d="M 122.5 236 L 129 236.5 L 122.5 237 L 122.5 236 Z " /><path fill="rgb(66,182,158)" stroke="rgb(66,182,158)" stroke-width="1" opacity="0.9764705882352941" d="M 420.5 236 L 426 236.5 L 420.5 237 L 420.5 236 Z " /><path fill="rgb(66,182,158)" stroke="rgb(66,182,158)" stroke-width="1" opacity="0.9764705882352941" d="M 106.5 237 L 110 237.5 L 106.5 238 L 106.5 237 Z " /><path fill="rgb(66,182,158)" stroke="rgb(66,182,158)" stroke-width="1" opacity="0.9764705882352941" d="M 433.5 237 L 438 237.5 L 433.5 238 L 433.5 237 Z " /><path fill="rgb(66,182,158)" stroke="rgb(66,182,158)" stroke-width="1" opacity="0.9764705882352941" d="M 95.5 238 L 99 238.5 L 95.5 239 L 95.5 238 Z " /><path fill="rgb(66,182,158)" stroke="rgb(66,182,158)" stroke-width="1" opacity="0.9764705882352941" d="M 446.5 238 L 449 238.5 L 446.5 239 L 446.5 238 Z " /><path fill="rgb(66,182,158)" stroke="rgb(66,182,158)" stroke-width="1" opacity="0.9764705882352941" d="M 84.5 239 L 88 239.5 L 84.5 240 L 84.5 239 Z " /><path fill="rgb(66,182,158)" stroke="rgb(66,182,158)" stroke-width="1" opacity="0.9764705882352941" d="M 71.5 241 L 74 241.5 L 71.5 242 L 71.5 241 Z " /><path fill="rgb(66,182,158)" stroke="rgb(66,182,158)" stroke-width="1" opacity="0.9764705882352941" d="M 65.5 242 L 68 242.5 L 65.5 243 L 65.5 242 Z " /><path fill="rgb(66,182,158)" stroke="rgb(66,182,158)" stroke-width="1" opacity="0.9764705882352941" d="M 479.5 246 L 480.5 248 L 479.5 246 Z " /><path fill="rgb(66,182,158)" stroke="rgb(66,182,158)" stroke-width="1" opacity="0.9764705882352941" d="M 479.5 254 L 477.5 257 L 479.5 254 Z " /><path fill="rgb(66,182,158)" stroke="rgb(66,182,158)" stroke-width="1" opacity="0.9764705882352941" d="M 165.5 277 L 168 277.5 L 165.5 278 L 165.5 277 Z " /><path fill="rgb(66,182,158)" stroke="rgb(66,182,158)" stroke-width="1" opacity="0.9764705882352941" d="M 185.5 278 L 190 278.5 L 185.5 279 L 185.5 278 Z " /><path fill="rgb(66,182,158)" stroke="rgb(66,182,158)" stroke-width="1" opacity="0.9764705882352941" d="M 96.5 376 L 97.5 378 L 96.5 376 Z " /><path fill="rgb(66,182,158)" stroke="rgb(66,182,158)" stroke-width="1" opacity="0.9764705882352941" d="M 435.5 377 L 434.5 379 L 435.5 377 Z " /><path fill="rgb(66,182,158)" stroke="rgb(66,182,158)" stroke-width="1" opacity="0.9764705882352941" d="M 247.5 438 L 251 438.5 L 247.5 439 L 247.5 438 Z " /><path fill="rgb(66,182,158)" stroke="rgb(66,182,158)" stroke-width="1" opacity="0.9764705882352941" d="M 278.5 438 L 282 438.5 L 278.5 439 L 278.5 438 Z " /><path fill="rgb(43,150,193)" stroke="rgb(43,150,193)" stroke-width="1" opacity="0.6274509803921569" d="M 431.5 37 L 434 37.5 L 431.5 38 L 431.5 37 Z " /><path fill="rgb(43,150,193)" stroke="rgb(43,150,193)" stroke-width="1" opacity="0.6274509803921569" d="M 441.5 37 L 444 37.5 L 441.5 38 L 441.5 37 Z " /><path fill="rgb(43,150,193)" stroke="rgb(43,150,193)" stroke-width="1" opacity="0.6274509803921569" d="M 427.5 38 L 430 38.5 L 427.5 39 L 427.5 38 Z " /><path fill="rgb(43,150,193)" stroke="rgb(43,150,193)" stroke-width="1" opacity="0.6274509803921569" d="M 447.5 39 L 451.5 44 L 447.5 39 Z " /><path fill="rgb(43,150,193)" stroke="rgb(43,150,193)" stroke-width="1" opacity="0.6274509803921569" d="M 416.5 43 L 415.5 45 Q 404.279 49.877 397 58 L 394.5 62 L 396 59.5 L 397.5 57 L 416.5 43 Z " /><path fill="rgb(43,150,193)" stroke="rgb(43,150,193)" stroke-width="1" opacity="0.6274509803921569" d="M 453.5 46 L 460 51.5 L 455.5 48 L 453.5 46 Z " /><path fill="rgb(43,150,193)" stroke="rgb(43,150,193)" stroke-width="1" opacity="0.6274509803921569" d="M 460.5 53 L 463.5 57 L 460.5 53 Z " /><path fill="rgb(43,150,193)" stroke="rgb(43,150,193)" stroke-width="1" opacity="0.6274509803921569" d="M 391.5 64 L 392 65.5 L 372.5 88 L 375 84.5 L 391.5 64 Z " /><path fill="rgb(43,150,193)" stroke="rgb(43,150,193)" stroke-width="1" opacity="0.6274509803921569" d="M 464.5 69 L 465 71.5 L 464 71.5 L 464.5 69 Z " /><path fill="rgb(43,150,193)" stroke="rgb(43,150,193)" stroke-width="1" opacity="0.6274509803921569" d="M 460.5 80 L 460 81.5 L 456.5 87 L 458 84.5 L 460.5 80 Z " /><path fill="rgb(43,150,193)" stroke="rgb(43,150,193)" stroke-width="1" opacity="0.6274509803921569" d="M 370.5 89 L 371 90.5 L 365 95.5 L 370.5 89 Z " /><path fill="rgb(43,150,193)" stroke="rgb(43,150,193)" stroke-width="1" opacity="0.6274509803921569" d="M 454.5 89 L 453.5 91 L 454.5 89 Z " /><path fill="rgb(43,150,193)" stroke="rgb(43,150,193)" stroke-width="1" opacity="0.6274509803921569" d="M 452.5 92 L 439.5 106 L 431.5 113 L 438.5 105 L 452.5 92 Z " /><path fill="rgb(43,150,193)" stroke="rgb(43,150,193)" stroke-width="1" opacity="0.6274509803921569" d="M 364.5 97 L 362.5 100 L 364.5 97 Z " /><path fill="rgb(43,150,193)" stroke="rgb(43,150,193)" stroke-width="1" opacity="0.6274509803921569" d="M 359.5 103 L 355 108.5 L 351.5 113 L 354 109.5 L 359.5 103 Z " /><path fill="rgb(43,150,193)" stroke="rgb(43,150,193)" stroke-width="1" opacity="0.6274509803921569" d="M 349.5 115 L 345.5 120 L 349.5 115 Z " /><path fill="rgb(43,150,193)" stroke="rgb(43,150,193)" stroke-width="1" opacity="0.6274509803921569" d="M 425.5 117 L 416.5 127 L 425.5 117 Z " /><path fill="rgb(43,150,193)" stroke="rgb(43,150,193)" stroke-width="1" opacity="0.6274509803921569" d="M 343.5 121 L 344 122.5 L 323.5 146 L 327 141.5 L 343.5 121 Z " /><path fill="rgb(43,150,193)" stroke="rgb(43,150,193)" stroke-width="1" opacity="0.6274509803921569" d="M 412.5 129 L 406.5 136 L 412.5 129 Z " /><path fill="rgb(43,150,193)" stroke="rgb(43,150,193)" stroke-width="1" opacity="0.6274509803921569" d="M 404.5 137 L 403.5 139 L 404.5 137 Z " /><path fill="rgb(43,150,193)" stroke="rgb(43,150,193)" stroke-width="1" opacity="0.6274509803921569" d="M 399.5 141 L 389.5 152 L 399.5 141 Z " /><path fill="rgb(43,150,193)" stroke="rgb(43,150,193)" stroke-width="1" opacity="0.6274509803921569" d="M 322.5 147 L 318 152.5 L 313.5 158 L 317 153.5 L 322.5 147 Z " /><path fill="rgb(43,150,193)" stroke="rgb(43,150,193)" stroke-width="1" opacity="0.6274509803921569" d="M 386.5 153 L 379.5 161 L 386.5 153 Z " /><path fill="rgb(43,150,193)" stroke="rgb(43,150,193)" stroke-width="1" opacity="0.6274509803921569" d="M 311.5 160 L 307 165.5 L 304.5 169 L 306 166.5 L 311.5 160 Z " /><path fill="rgb(43,150,193)" stroke="rgb(43,150,193)" stroke-width="1" opacity="0.6274509803921569" d="M 377.5 162 L 376.5 164 L 377.5 162 Z " /><path fill="rgb(43,150,193)" stroke="rgb(43,150,193)" stroke-width="1" opacity="0.6274509803921569" d="M 374.5 164 L 367.5 172 L 374.5 164 Z " /><path fill="rgb(43,150,193)" stroke="rgb(43,150,193)" stroke-width="1" opacity="0.6274509803921569" d="M 301.5 171 L 302 172.5 L 286.5 190 L 290 185.5 L 301.5 171 Z " /><path fill="rgb(43,150,193)" stroke="rgb(43,150,193)" stroke-width="1" opacity="0.6274509803921569" d="M 364.5 174 L 363.5 176 L 364.5 174 Z " /><path fill="rgb(43,150,193)" stroke="rgb(43,150,193)" stroke-width="1" opacity="0.6274509803921569" d="M 361.5 176 L 352.5 186 L 361.5 176 Z " /><path fill="rgb(43,150,193)" stroke="rgb(43,150,193)" stroke-width="1" opacity="0.6274509803921569" d="M 348.5 188 L 342.5 195 L 348.5 188 Z " /><path fill="rgb(43,150,193)" stroke="rgb(43,150,193)" stroke-width="1" opacity="0.6274509803921569" d="M 285.5 191 L 282.5 195 L 285.5 191 Z " /><path fill="rgb(43,150,193)" stroke="rgb(43,150,193)" stroke-width="1" opacity="0.6274509803921569" d="M 280.5 196 L 281 197.5 L 275 202.5 L 280.5 196 Z " /><path fill="rgb(43,150,193)" stroke="rgb(43,150,193)" stroke-width="1" opacity="0.6274509803921569" d="M 340.5 196 L 339.5 198 L 340.5 196 Z " /><path fill="rgb(43,150,193)" stroke="rgb(43,150,193)" stroke-width="1" opacity="0.6274509803921569" d="M 337.5 199 L 336.5 201 L 329.5 207 L 335.5 200 L 337.5 199 Z " /><path fill="rgb(43,150,193)" stroke="rgb(43,150,193)" stroke-width="1" opacity="0.6274509803921569" d="M 274.5 204 L 272.5 207 L 274.5 204 Z " /><path fill="rgb(43,150,193)" stroke="rgb(43,150,193)" stroke-width="1" opacity="0.6274509803921569" d="M 327.5 208 L 323.5 213 L 315.5 220 L 322.5 212 L 327.5 208 Z " /><path fill="rgb(43,150,193)" stroke="rgb(43,150,193)" stroke-width="1" opacity="0.6274509803921569" d="M 269.5 210 L 265 215.5 L 262.5 219 L 264 216.5 L 269.5 210 Z " /><path fill="rgb(43,150,193)" stroke="rgb(43,150,193)" stroke-width="1" opacity="0.6274509803921569" d="M 37.5 260 L 38 265.5 L 37 265.5 L 37.5 260 Z " /><path fill="rgb(43,150,193)" stroke="rgb(43,150,193)" stroke-width="1" opacity="0.6274509803921569" d="M 495.5 260 L 496 266.5 L 495 266.5 L 495.5 260 Z " /><path fill="rgb(43,150,193)" stroke="rgb(43,150,193)" stroke-width="1" opacity="0.6274509803921569" d="M 38.5 270 L 39 273.5 L 38 273.5 L 38.5 270 Z " /><path fill="rgb(43,150,193)" stroke="rgb(43,150,193)" stroke-width="1" opacity="0.6274509803921569" d="M 494.5 270 L 495 274.5 L 494 274.5 L 494.5 270 Z " /><path fill="rgb(43,150,193)" stroke="rgb(43,150,193)" stroke-width="1" opacity="0.6274509803921569" d="M 39.5 277 L 40 279.5 L 39 279.5 L 39.5 277 Z " /><path fill="rgb(43,150,193)" stroke="rgb(43,150,193)" stroke-width="1" opacity="0.6274509803921569" d="M 493.5 277 L 494 279.5 L 493 279.5 L 493.5 277 Z " /><path fill="rgb(43,150,193)" stroke="rgb(43,150,193)" stroke-width="1" opacity="0.6274509803921569" d="M 40.5 282 L 41 284.5 L 40 284.5 L 40.5 282 Z " /><path fill="rgb(43,150,193)" stroke="rgb(43,150,193)" stroke-width="1" opacity="0.6274509803921569" d="M 492.5 282 L 493 284.5 L 492 284.5 L 492.5 282 Z " /><path fill="rgb(43,150,193)" stroke="rgb(43,150,193)" stroke-width="1" opacity="0.6274509803921569" d="M 41.5 286 L 42 288.5 L 41 288.5 L 41.5 286 Z " /><path fill="rgb(43,150,193)" stroke="rgb(43,150,193)" stroke-width="1" opacity="0.6274509803921569" d="M 491.5 286 L 492 288.5 L 491 288.5 L 491.5 286 Z " /><path fill="rgb(43,150,193)" stroke="rgb(43,150,193)" stroke-width="1" opacity="0.6274509803921569" d="M 42.5 290 L 43 292.5 L 42 292.5 L 42.5 290 Z " /><path fill="rgb(43,150,193)" stroke="rgb(43,150,193)" stroke-width="1" opacity="0.6274509803921569" d="M 490.5 290 L 491 292.5 L 490 292.5 L 490.5 290 Z " /><path fill="rgb(43,150,193)" stroke="rgb(43,150,193)" stroke-width="1" opacity="0.6274509803921569" d="M 489.5 294 L 490 296.5 L 486.5 305 L 486 303.5 L 489.5 294 Z " /><path fill="rgb(43,150,193)" stroke="rgb(43,150,193)" stroke-width="1" opacity="0.6274509803921569" d="M 47.5 306 L 49 309.5 L 48 309.5 L 47.5 306 Z " /><path fill="rgb(43,150,193)" stroke="rgb(43,150,193)" stroke-width="1" opacity="0.6274509803921569" d="M 49.5 311 L 51 314.5 L 50 314.5 L 49.5 311 Z " /><path fill="rgb(43,150,193)" stroke="rgb(43,150,193)" stroke-width="1" opacity="0.6274509803921569" d="M 483.5 311 L 484 312.5 L 482.5 315 L 482 313.5 L 483.5 311 Z " /><path fill="rgb(43,150,193)" stroke="rgb(43,150,193)" stroke-width="1" opacity="0.6274509803921569" d="M 480.5 318 L 481 319.5 L 476.5 327 L 477 325.5 L 480.5 318 Z " /><path fill="rgb(43,150,193)" stroke="rgb(43,150,193)" stroke-width="1" opacity="0.6274509803921569" d="M 57.5 328 L 60 331.5 L 58 330.5 L 57.5 328 Z " /><path fill="rgb(43,150,193)" stroke="rgb(43,150,193)" stroke-width="1" opacity="0.6274509803921569" d="M 475.5 328 L 475 329.5 L 472.5 334 L 473 332.5 L 475.5 328 Z " /><path fill="rgb(43,150,193)" stroke="rgb(43,150,193)" stroke-width="1" opacity="0.6274509803921569" d="M 60.5 333 L 63 336.5 L 61 335.5 L 60.5 333 Z " /><path fill="rgb(43,150,193)" stroke="rgb(43,150,193)" stroke-width="1" opacity="0.6274509803921569" d="M 471.5 335 L 471 336.5 L 458.5 354 L 461 350.5 L 471.5 335 Z " /><path fill="rgb(43,150,193)" stroke="rgb(43,150,193)" stroke-width="1" opacity="0.6274509803921569" d="M 63.5 338 L 67 342.5 L 64 340.5 L 63.5 338 Z " /><path fill="rgb(43,150,193)" stroke="rgb(43,150,193)" stroke-width="1" opacity="0.6274509803921569" d="M 67.5 344 L 68.5 346 L 67.5 344 Z " /><path fill="rgb(43,150,193)" stroke="rgb(43,150,193)" stroke-width="1" opacity="0.6274509803921569" d="M 69.5 347 L 71.5 350 L 69.5 347 Z " /><path fill="rgb(43,150,193)" stroke="rgb(43,150,193)" stroke-width="1" opacity="0.6274509803921569" d="M 72.5 351 L 78 357.5 L 75 355.5 L 72.5 351 Z " /><path fill="rgb(43,150,193)" stroke="rgb(43,150,193)" stroke-width="1" opacity="0.6274509803921569" d="M 457.5 355 L 450.5 363 L 457.5 355 Z " /><path fill="rgb(43,164,215)" stroke="rgb(43,164,215)" stroke-width="1" opacity="0.8" d="M 495.5 253 L 496 259.5 L 495 259.5 L 495.5 253 Z " /><path fill="rgb(43,164,215)" stroke="rgb(43,164,215)" stroke-width="1" opacity="0.8" d="M 457.5 354 L 455.5 357 L 457.5 354 Z " /><path fill="rgb(39,162,219)" stroke="rgb(39,162,219)" stroke-width="1" opacity="1" d="M 493.5 254 L 495 254.5 L 495 267.5 Q 483.066 338.566 437.5 376 Q 378.289 434.594 266 439 L 266 281.5 L 267.5 281 Q 340.597 281.097 407.5 275 L 408.5 274 L 414.5 274 L 415.5 273 L 421.5 273 L 422.5 272 L 428.5 272 L 429.5 271 L 435.5 271 Q 447.712 266.212 464.5 266 Q 482.469 263.469 493.5 254 Z " /><path fill="rgb(39,162,219)" stroke="rgb(39,162,219)" stroke-width="1" opacity="1" d="M 82.5 362 L 84.5 365 L 82.5 362 Z " /><path fill="rgb(211,148,98)" stroke="rgb(211,148,98)" stroke-width="1" opacity="1" d="M 88.5 371 L 92 372.5 L 90.5 372 Q 87.5 372.5 88.5 371 Z " /><path fill="rgb(211,148,98)" stroke="rgb(211,148,98)" stroke-width="1" opacity="1" d="M 98.5 378 L 102.5 383 L 98.5 378 Z " /><path fill="rgb(211,148,98)" stroke="rgb(211,148,98)" stroke-width="1" opacity="1" d="M 433.5 379 L 429.5 384 L 433.5 379 Z " /><path fill="rgb(211,148,98)" stroke="rgb(211,148,98)" stroke-width="1" opacity="1" d="M 58.5 384 L 57.5 386 L 58.5 384 Z " /><path fill="rgb(211,148,98)" stroke="rgb(211,148,98)" stroke-width="1" opacity="1" d="M 453.5 384 L 454.5 386 L 453.5 384 Z " /><path fill="rgb(211,148,98)" stroke="rgb(211,148,98)" stroke-width="1" opacity="1" d="M 106.5 385 L 107.5 387 L 106.5 385 Z " /><path fill="rgb(211,148,98)" stroke="rgb(211,148,98)" stroke-width="1" opacity="1" d="M 426.5 385 L 425.5 387 L 426.5 385 Z " /><path fill="rgb(211,148,98)" stroke="rgb(211,148,98)" stroke-width="1" opacity="1" d="M 54.5 387 L 53.5 389 L 54.5 387 Z " /><path fill="rgb(211,148,98)" stroke="rgb(211,148,98)" stroke-width="1" opacity="1" d="M 457.5 387 L 458.5 389 L 457.5 387 Z " /><path fill="rgb(211,148,98)" stroke="rgb(211,148,98)" stroke-width="1" opacity="1" d="M 110.5 388 L 111.5 390 L 110.5 388 Z " /><path fill="rgb(211,148,98)" stroke="rgb(211,148,98)" stroke-width="1" opacity="1" d="M 422.5 388 L 421.5 390 L 422.5 388 Z " /><path fill="rgb(211,148,98)" stroke="rgb(211,148,98)" stroke-width="1" opacity="1" d="M 51.5 389 L 45.5 396 L 51.5 389 Z " /><path fill="rgb(211,148,98)" stroke="rgb(211,148,98)" stroke-width="1" opacity="1" d="M 460.5 389 L 466.5 396 L 460.5 389 Z " /><path fill="rgb(211,148,98)" stroke="rgb(211,148,98)" stroke-width="1" opacity="1" d="M 114.5 391 L 115.5 393 L 114.5 391 Z " /><path fill="rgb(211,148,98)" stroke="rgb(211,148,98)" stroke-width="1" opacity="1" d="M 418.5 391 L 417.5 393 L 418.5 391 Z " /><path fill="rgb(211,148,98)" stroke="rgb(211,148,98)" stroke-width="1" opacity="1" d="M 118.5 394 L 119.5 396 L 118.5 394 Z " /><path fill="rgb(211,148,98)" stroke="rgb(211,148,98)" stroke-width="1" opacity="1" d="M 414.5 394 L 413.5 396 L 414.5 394 Z " /><path fill="rgb(211,148,98)" stroke="rgb(211,148,98)" stroke-width="1" opacity="1" d="M 43.5 399 L 42.5 401 L 43.5 399 Z " /><path fill="rgb(211,148,98)" stroke="rgb(211,148,98)" stroke-width="1" opacity="1" d="M 468.5 399 L 469.5 401 L 468.5 399 Z " /><path fill="rgb(211,148,98)" stroke="rgb(211,148,98)" stroke-width="1" opacity="1" d="M 403.5 401 L 402.5 403 L 403.5 401 Z " /><path fill="rgb(211,148,98)" stroke="rgb(211,148,98)" stroke-width="1" opacity="1" d="M 41.5 403 L 42 405.5 L 41 405.5 L 41.5 403 Z " /><path fill="rgb(211,148,98)" stroke="rgb(211,148,98)" stroke-width="1" opacity="1" d="M 470.5 403 L 471 405.5 L 470 405.5 L 470.5 403 Z " /><path fill="rgb(211,148,98)" stroke="rgb(211,148,98)" stroke-width="1" opacity="1" d="M 43.5 415 L 44.5 417 L 43.5 415 Z " /><path fill="rgb(211,148,98)" stroke="rgb(211,148,98)" stroke-width="1" opacity="1" d="M 468.5 415 L 467.5 417 L 468.5 415 Z " /><path fill="rgb(211,148,98)" stroke="rgb(211,148,98)" stroke-width="1" opacity="1" d="M 45.5 418 L 52.5 426 L 45.5 418 Z " /><path fill="rgb(211,148,98)" stroke="rgb(211,148,98)" stroke-width="1" opacity="1" d="M 466.5 418 L 459.5 426 L 466.5 418 Z " /><path fill="rgb(211,148,98)" stroke="rgb(211,148,98)" stroke-width="1" opacity="1" d="M 54.5 426 L 55.5 428 L 54.5 426 Z " /><path fill="rgb(211,148,98)" stroke="rgb(211,148,98)" stroke-width="1" opacity="1" d="M 457.5 426 L 456.5 428 L 457.5 426 Z " /><path fill="rgb(211,148,98)" stroke="rgb(211,148,98)" stroke-width="1" opacity="1" d="M 62.5 431 L 63.5 433 L 62.5 431 Z " /><path fill="rgb(211,148,98)" stroke="rgb(211,148,98)" stroke-width="1" opacity="1" d="M 449.5 431 L 448.5 433 L 449.5 431 Z " /><path fill="rgb(211,148,98)" stroke="rgb(211,148,98)" stroke-width="1" opacity="1" d="M 311.5 435 L 314 435.5 L 311.5 436 L 311.5 435 Z " /><path fill="rgb(211,148,98)" stroke="rgb(211,148,98)" stroke-width="1" opacity="1" d="M 304.5 436 L 307 436.5 L 304.5 437 L 304.5 436 Z " /><path fill="rgb(211,148,98)" stroke="rgb(211,148,98)" stroke-width="1" opacity="1" d="M 296.5 437 L 299 437.5 L 296.5 438 L 296.5 437 Z " /><path fill="rgb(211,148,98)" stroke="rgb(211,148,98)" stroke-width="1" opacity="1" d="M 242.5 438 L 247 438.5 L 242.5 439 L 242.5 438 Z " /><path fill="rgb(211,148,98)" stroke="rgb(211,148,98)" stroke-width="1" opacity="1" d="M 282.5 438 L 291 438.5 L 282.5 439 L 282.5 438 Z " /><path fill="rgb(211,148,98)" stroke="rgb(211,148,98)" stroke-width="1" opacity="1" d="M 265.5 439 L 268 439.5 L 265.5 440 L 265.5 439 Z " /><path fill="rgb(211,148,98)" stroke="rgb(211,148,98)" stroke-width="1" opacity="1" d="M 136.5 454 L 139 454.5 L 136.5 455 L 136.5 454 Z " /><path fill="rgb(211,148,98)" stroke="rgb(211,148,98)" stroke-width="1" opacity="1" d="M 373.5 454 L 376 454.5 L 373.5 455 L 373.5 454 Z " /><path fill="rgb(211,148,98)" stroke="rgb(211,148,98)" stroke-width="1" opacity="1" d="M 142.5 455 L 145 455.5 L 142.5 456 L 142.5 455 Z " /><path fill="rgb(211,148,98)" stroke="rgb(211,148,98)" stroke-width="1" opacity="1" d="M 367.5 455 L 370 455.5 L 367.5 456 L 367.5 455 Z " /><path fill="rgb(211,148,98)" stroke="rgb(211,148,98)" stroke-width="1" opacity="1" d="M 148.5 456 L 151 456.5 L 148.5 457 L 148.5 456 Z " /><path fill="rgb(211,148,98)" stroke="rgb(211,148,98)" stroke-width="1" opacity="1" d="M 361.5 456 L 364 456.5 L 361.5 457 L 361.5 456 Z " /><path fill="rgb(211,148,98)" stroke="rgb(211,148,98)" stroke-width="1" opacity="1" d="M 155.5 457 L 159 457.5 L 155.5 458 L 155.5 457 Z " /><path fill="rgb(211,148,98)" stroke="rgb(211,148,98)" stroke-width="1" opacity="1" d="M 353.5 457 L 357 457.5 L 353.5 458 L 353.5 457 Z " /><path fill="rgb(211,148,98)" stroke="rgb(211,148,98)" stroke-width="1" opacity="1" d="M 162.5 458 L 167 458.5 L 162.5 459 L 162.5 458 Z " /><path fill="rgb(211,148,98)" stroke="rgb(211,148,98)" stroke-width="1" opacity="1" d="M 345.5 458 L 350 458.5 L 345.5 459 L 345.5 458 Z " /><path fill="rgb(211,148,98)" stroke="rgb(211,148,98)" stroke-width="1" opacity="1" d="M 170.5 459 L 175 459.5 L 170.5 460 L 170.5 459 Z " /><path fill="rgb(211,148,98)" stroke="rgb(211,148,98)" stroke-width="1" opacity="1" d="M 337.5 459 L 342 459.5 L 337.5 460 L 337.5 459 Z " /><path fill="rgb(211,148,98)" stroke="rgb(211,148,98)" stroke-width="1" opacity="1" d="M 180.5 460 L 185 460.5 L 180.5 461 L 180.5 460 Z " /><path fill="rgb(211,148,98)" stroke="rgb(211,148,98)" stroke-width="1" opacity="1" d="M 327.5 460 L 332 460.5 L 327.5 461 L 327.5 460 Z " /><path fill="rgb(211,148,98)" stroke="rgb(211,148,98)" stroke-width="1" opacity="1" d="M 190.5 461 L 197 461.5 L 190.5 462 L 190.5 461 Z " /><path fill="rgb(211,148,98)" stroke="rgb(211,148,98)" stroke-width="1" opacity="1" d="M 315.5 461 L 322 461.5 L 315.5 462 L 315.5 461 Z " /><path fill="rgb(211,148,98)" stroke="rgb(211,148,98)" stroke-width="1" opacity="1" d="M 204.5 462 L 212 462.5 L 204.5 463 L 204.5 462 Z " /><path fill="rgb(211,148,98)" stroke="rgb(211,148,98)" stroke-width="1" opacity="1" d="M 300.5 462 L 308 462.5 L 300.5 463 L 300.5 462 Z " /><path fill="rgb(211,148,98)" stroke="rgb(211,148,98)" stroke-width="1" opacity="1" d="M 223.5 463 L 242 463.5 L 223.5 464 L 223.5 463 Z " /><path fill="rgb(211,148,98)" stroke="rgb(211,148,98)" stroke-width="1" opacity="1" d="M 270.5 463 L 289 463.5 L 270.5 464 L 270.5 463 Z " /><path fill="rgb(220,223,227)" stroke="rgb(220,223,227)" stroke-width="1" opacity="0.984313725490196" d="M 423.5 56 Q 439.893 55.107 445 65.5 Q 449.5 71 448 82.5 Q 445.89 89.89 440.5 94 Q 434.833 99.833 421.5 98 Q 414.11 95.89 410 90.5 Q 404.333 85.167 406 72.5 Q 408.45 63.45 415.5 59 L 423.5 56 Z " /><path fill="rgb(220,223,227)" stroke="rgb(220,223,227)" stroke-width="1" opacity="0.984313725490196" d="M 195.5 234 L 248.5 234 L 249 235.5 L 211.5 279 Q 155.332 279.168 106.5 272 Q 71.55 269.45 49 254.5 L 48 250.5 Q 62.685 239.185 88.5 239 Q 139.829 234.329 195.5 234 Z " /><path fill="rgb(220,223,227)" stroke="rgb(220,223,227)" stroke-width="1" opacity="0.984313725490196" d="M 299.5 234 Q 376.154 232.346 445.5 238 Q 468.27 238.23 481 248.5 Q 480.75 255.75 475.5 258 Q 447.234 272.234 407.5 275 Q 333.765 282.265 250.5 280 L 256.5 273 L 299.5 234 Z " /><path fill="rgb(220,223,227)" stroke="rgb(220,223,227)" stroke-width="1" opacity="0.984313725490196" d="M 75.5 358 Q 80.25 357.25 81 360.5 L 90 370.5 Q 61.9 377.4 45 395.5 Q 39.833 399.833 41 410.5 Q 44.5 420.5 52.5 426 Q 91.765 450.235 148.5 457 Q 212.226 466.774 288.5 464 Q 356.048 461.548 411.5 447 Q 446.175 439.675 467 418.5 Q 472.167 414.167 471 403.5 Q 467.833 394.167 460.5 389 Q 450.625 380.875 437 376.5 L 450.5 363 L 453.5 363 Q 487.066 371.934 508 393.5 Q 513.833 399.167 512 412.5 Q 507.833 423.833 498.5 430 Q 456.181 456.681 395.5 465 Q 313.843 478.843 214.5 475 Q 137.902 472.098 74.5 456 Q 29.81 447.69 4 420.5 Q -1.833 414.833 0 401.5 Q 3.833 390.833 12.5 385 Q 39 366.5 75.5 358 Z " /><path fill="rgb(220,135,68)" stroke="rgb(220,135,68)" stroke-width="1" opacity="1" d="M 87.5 372 L 92.5 373 Q 111.017 392.483 135.5 406 L 174.5 424 Q 213.719 439.281 267.5 440 Q 378.536 434.536 437.5 377 Q 455.797 383.203 467 396.5 Q 471 400.5 471 408.5 Q 467.635 420.135 458.5 426 Q 425.655 447.155 378.5 454 Q 316.638 465.138 242.5 464 Q 175.018 462.982 118.5 451 Q 71.884 444.116 45 417.5 Q 41.259 413.741 41 406.5 Q 43.643 394.643 52.5 389 Q 67.558 378.058 87.5 372 Z " /><path fill="rgb(45,147,185)" stroke="rgb(45,147,185)" stroke-width="1" opacity="1" d="M 37.5 250 L 42.5 256 Q 58.444 265.056 80.5 268 L 82.5 268 Q 158.998 281.002 248.5 281 L 249.5 280 L 266.5 280 L 266 281.5 L 266 438.5 L 265.5 439 L 251.5 439 Q 141.531 428.969 85 365.5 Q 41.728 326.148 37.5 250 Z " /><path fill="rgb(45,147,185)" stroke="rgb(45,147,185)" stroke-width="1" opacity="1" d="M 462.5 265 L 465 265.5 L 462.5 266 L 462.5 265 Z " /><path fill="rgb(45,147,185)" stroke="rgb(45,147,185)" stroke-width="1" opacity="1" d="M 452.5 267 L 455 267.5 L 452.5 268 L 452.5 267 Z " /><path fill="rgb(45,147,185)" stroke="rgb(45,147,185)" stroke-width="1" opacity="1" d="M 446.5 268 L 449 268.5 L 446.5 269 L 446.5 268 Z " /><path fill="rgb(45,147,185)" stroke="rgb(45,147,185)" stroke-width="1" opacity="1" d="M 416.5 392 L 415.5 394 L 416.5 392 Z " /><path fill="rgb(45,147,185)" stroke="rgb(45,147,185)" stroke-width="1" opacity="1" d="M 273.5 438 L 278 438.5 L 273.5 439 L 273.5 438 Z " /></svg>