<svg width="512" height="512" version="1.1" xmlns="http://www.w3.org/2000/svg" desc="Created with imagetracer.js version 1.2.6" ><path fill="rgb(223,236,247)" stroke="rgb(223,236,247)" stroke-width="1" opacity="0.7098039215686275" d="M 10.5 108 L 342.5 108 L 344 109.5 L 343.5 112 L 343 109 L 10.5 109 L 10.5 108 Z " /><path fill="rgb(223,236,247)" stroke="rgb(223,236,247)" stroke-width="1" opacity="0.7098039215686275" d="M 377.5 108 L 502 108.5 L 377 109 L 376.5 113 L 376 109.5 L 377.5 108 Z " /><path fill="rgb(223,236,247)" stroke="rgb(223,236,247)" stroke-width="1" opacity="0.7098039215686275" d="M 7.5 109 L 9 109.5 L 3 113.5 L 0.5 120 L 0 117.5 L 5.5 110 L 7.5 109 Z " /><path fill="rgb(223,236,247)" stroke="rgb(223,236,247)" stroke-width="1" opacity="0.7098039215686275" d="M 503.5 109 L 510 113.5 L 506.5 111 Q 502.75 110.75 503.5 109 Z " /><path fill="rgb(223,236,247)" stroke="rgb(223,236,247)" stroke-width="1" opacity="0.7098039215686275" d="M 344.5 114 L 349.5 123 L 357 126.5 L 354.5 127 L 346 120.5 Q 343 118 344.5 114 Z " /><path fill="rgb(223,236,247)" stroke="rgb(223,236,247)" stroke-width="1" opacity="0.7098039215686275" d="M 375.5 114 L 376 116.5 L 369.5 125 L 363.5 127 L 363.5 126 Q 369.294 125.294 372 121.5 L 375.5 114 Z " /><path fill="rgb(223,236,247)" stroke="rgb(223,236,247)" stroke-width="1" opacity="0.7098039215686275" d="M 358.5 127 L 362 127.5 L 358.5 128 L 358.5 127 Z " /><path fill="rgb(223,236,247)" stroke="rgb(223,236,247)" stroke-width="1" opacity="0.7098039215686275" d="M 358.5 151 L 366 153 L 368 156.5 L 368 179.5 L 366 183 L 363.5 184 L 367 179.5 L 367 156.5 L 363.5 153 L 358.5 152 L 353.5 156 L 354 154.5 Q 353.25 152.25 355.5 153 L 358.5 151 Z " /><path fill="rgb(223,236,247)" stroke="rgb(223,236,247)" stroke-width="1" opacity="0.7098039215686275" d="M 352.5 157 L 353 179.5 L 357 183.5 L 355.5 183 Q 353.25 183.75 354 181.5 L 352 179.5 L 352.5 157 Z " /><path fill="rgb(223,236,247)" stroke="rgb(223,236,247)" stroke-width="1" opacity="0.7098039215686275" d="M 358.5 184 L 362 184.5 L 358.5 185 L 358.5 184 Z " /><path fill="rgb(223,236,247)" stroke="rgb(223,236,247)" stroke-width="1" opacity="0.7098039215686275" d="M 357.5 210 Q 365.094 208.906 367 213.5 L 368 215.5 L 368 237.5 L 363.5 243 L 361 242.5 L 366 239.5 L 367 237.5 L 367 215.5 L 365 212 Q 362.938 210.375 357.5 211 L 353 215.5 L 353 237.5 L 356.5 242 L 359 242.5 L 356.5 243 L 352 237.5 L 352 215.5 L 355.5 211 L 357.5 210 Z " /><path fill="rgb(223,236,247)" stroke="rgb(223,236,247)" stroke-width="1" opacity="0.7098039215686275" d="M 356.5 269 L 359 269.5 L 354 272.5 L 353 274.5 L 353 296.5 Q 354.25 302.25 362.5 301 L 365 300 L 367 296.5 L 367 274.5 L 363.5 270 L 361 269.5 L 363.5 269 L 368 274.5 L 368 296.5 L 364.5 301 L 357.5 302 L 353 298.5 L 352 296.5 L 352 274.5 L 356.5 269 Z " /><path fill="rgb(223,236,247)" stroke="rgb(223,236,247)" stroke-width="1" opacity="0.7098039215686275" d="M 358.5 327 L 362 327.5 L 358.5 328 L 358.5 327 Z " /><path fill="rgb(223,236,247)" stroke="rgb(223,236,247)" stroke-width="1" opacity="0.7098039215686275" d="M 356.5 328 L 353 332.5 L 352.5 355 L 352 332.5 L 354 329 L 356.5 328 Z " /><path fill="rgb(223,236,247)" stroke="rgb(223,236,247)" stroke-width="1" opacity="0.7098039215686275" d="M 363.5 328 L 366 329 L 368 332.5 L 368 355.5 L 362.5 360 L 362.5 359 L 367 355.5 L 367 332.5 L 363.5 328 Z " /><path fill="rgb(223,236,247)" stroke="rgb(223,236,247)" stroke-width="1" opacity="0.7098039215686275" d="M 353.5 356 L 358 359.5 L 356.5 360 L 353.5 356 Z " /><path fill="rgb(223,236,247)" stroke="rgb(223,236,247)" stroke-width="1" opacity="0.7098039215686275" d="M 366.5 386 L 370 388.5 L 367.5 387 L 366.5 386 Z " /><path fill="rgb(223,236,247)" stroke="rgb(223,236,247)" stroke-width="1" opacity="0.7098039215686275" d="M 351.5 387 L 350.5 389 L 351.5 387 Z " /><path fill="rgb(223,236,247)" stroke="rgb(223,236,247)" stroke-width="1" opacity="0.7098039215686275" d="M 371.5 389 L 375 394.5 L 374 394.5 L 371.5 389 Z " /><path fill="rgb(223,236,247)" stroke="rgb(223,236,247)" stroke-width="1" opacity="0.7098039215686275" d="M 347.5 391 L 346.5 393 L 347.5 391 Z " /><path fill="rgb(223,236,247)" stroke="rgb(223,236,247)" stroke-width="1" opacity="0.7098039215686275" d="M 2.5 398 L 9 402.5 L 7.5 403 L 2.5 398 Z " /><path fill="rgb(223,236,247)" stroke="rgb(223,236,247)" stroke-width="1" opacity="0.7098039215686275" d="M 509.5 398 L 506.5 402 L 503.5 403 L 503.5 402 L 509.5 398 Z " /><path fill="rgb(223,236,247)" stroke="rgb(223,236,247)" stroke-width="1" opacity="0.7098039215686275" d="M 343.5 401 L 344 402.5 L 342.5 404 L 10.5 404 L 10.5 403 L 342.5 403 L 343.5 401 Z " /><path fill="rgb(223,236,247)" stroke="rgb(223,236,247)" stroke-width="1" opacity="0.7098039215686275" d="M 376.5 401 L 377 403 L 502 403.5 L 377.5 404 L 376.5 401 Z " /><path fill="rgb(226,239,250)" stroke="rgb(226,239,250)" stroke-width="1" opacity="0.996078431372549" d="M 4.5 112 L 3.5 114 L 4.5 112 Z " /><path fill="rgb(226,239,250)" stroke="rgb(226,239,250)" stroke-width="1" opacity="0.996078431372549" d="M 367.5 180 L 366.5 182 L 367.5 180 Z " /><path fill="rgb(226,239,250)" stroke="rgb(226,239,250)" stroke-width="1" opacity="0.996078431372549" d="M 353.5 240 L 354.5 242 L 353.5 240 Z " /><path fill="rgb(226,239,250)" stroke="rgb(226,239,250)" stroke-width="1" opacity="0.996078431372549" d="M 366.5 240 L 365.5 242 L 366.5 240 Z " /><path fill="rgb(226,239,250)" stroke="rgb(226,239,250)" stroke-width="1" opacity="0.996078431372549" d="M 358.5 243 L 362 243.5 L 358.5 244 L 358.5 243 Z " /><path fill="rgb(226,239,250)" stroke="rgb(226,239,250)" stroke-width="1" opacity="0.996078431372549" d="M 358.5 268 L 362 268.5 L 358.5 269 L 358.5 268 Z " /><path fill="rgb(226,239,250)" stroke="rgb(226,239,250)" stroke-width="1" opacity="0.996078431372549" d="M 354.5 270 L 353.5 272 L 354.5 270 Z " /><path fill="rgb(226,239,250)" stroke="rgb(226,239,250)" stroke-width="1" opacity="0.996078431372549" d="M 365.5 270 L 366.5 272 L 365.5 270 Z " /><path fill="rgb(226,239,250)" stroke="rgb(226,239,250)" stroke-width="1" opacity="0.996078431372549" d="M 366.5 330 L 367.5 332 L 366.5 330 Z " /><path fill="rgb(226,239,250)" stroke="rgb(226,239,250)" stroke-width="1" opacity="1" d="M 10.5 109 L 341.5 109 L 343 110.5 Q 343.432 122.068 351.5 126 Q 355.75 128.75 363.5 128 Q 371.393 125.893 375 119.5 Q 374.523 112.023 378.5 109 L 465 109 L 465 156 L 404.5 156 L 401 159.5 L 400 166.5 L 403.5 171 L 406.5 172 L 465 172 L 465 217 L 406.5 217 L 401 220.5 L 400 228.5 L 404.5 233 L 465 233 L 465 279 L 404.5 279 Q 398.5 280.5 400 289.5 L 402.5 293 L 406.5 295 L 465 295 L 465 340 L 406.5 340 L 401 343.5 L 400 350.5 L 404 355.5 L 368 356 L 368 331.5 L 364.5 328 L 357.5 327 L 353 330.5 L 352 332.5 L 352 356 L 241.5 356 L 241 355.5 L 241 339 Q 251.216 340.016 255 332.5 L 259 324.5 L 259 224 Q 276.88 227.038 283 217.5 Q 288.286 207.786 285 189.5 L 281.5 185 L 259.5 185 Q 258.125 184.625 259 177.5 Q 255.997 163.503 246.5 156 Q 238.858 149.142 225.5 148 L 125.5 148 Q 105.53 150.03 97 163.5 Q 91.155 172.041 91 185 Q 74.42 182.25 67 186 Q 62.143 193.429 65 210.5 L 69 220 Q 76.18 225.857 91 224 L 91 320.5 Q 92.019 331.481 99.5 336 Q 102.896 339.667 109 339 L 109 355.5 L 108.5 356 L 0 356 L 0 122.5 Q 0.75 114.25 6.5 111 L 10.5 109 Z M 358 151 L 356 152 L 352 157 L 352 180 L 353 182 L 358 185 Q 366 186 368 181 L 368 157 L 367 155 Q 365 150 358 151 Z M 357 210 L 352 215 L 352 239 L 353 241 L 359 244 L 366 242 L 368 239 L 368 215 Q 366 208 357 210 Z M 359 268 L 355 270 L 352 274 L 352 298 L 357 302 Q 366 304 368 298 L 368 274 L 367 272 Q 365 267 359 268 Z " /><path fill="rgb(226,239,250)" stroke="rgb(226,239,250)" stroke-width="1" opacity="1" d="M 140 339 L 209.5 339 L 210 339.5 L 210 356 L 140.5 356 L 140 355.5 L 140 339 Z " /><path fill="rgb(173,226,249)" stroke="rgb(173,226,249)" stroke-width="1" opacity="1" d="M 201.5 148 L 225 148.5 L 201.5 149 L 201.5 148 Z " /><path fill="rgb(173,226,249)" stroke="rgb(173,226,249)" stroke-width="1" opacity="1" d="M 118.5 149 L 121 149.5 L 118.5 150 L 118.5 149 Z " /><path fill="rgb(173,226,249)" stroke="rgb(173,226,249)" stroke-width="1" opacity="1" d="M 104.5 156 L 103.5 158 L 104.5 156 Z " /><path fill="rgb(173,226,249)" stroke="rgb(173,226,249)" stroke-width="1" opacity="1" d="M 247.5 157 L 249.5 160 L 247.5 157 Z " /><path fill="rgb(173,226,249)" stroke="rgb(173,226,249)" stroke-width="1" opacity="1" d="M 100.5 160 L 98.5 163 L 100.5 160 Z " /><path fill="rgb(173,226,249)" stroke="rgb(173,226,249)" stroke-width="1" opacity="1" d="M 407.5 171 L 465 171.5 L 407.5 172 L 407.5 171 Z " /><path fill="rgb(173,226,249)" stroke="rgb(173,226,249)" stroke-width="1" opacity="1" d="M 92 185 L 258.5 185 L 259 185.5 L 259 222.5 Q 259.875 224.375 270.5 223 L 270.5 224 Q 259.875 222.625 259 224.5 L 259 285.5 Q 258.875 286.625 253.5 286 L 252.5 287 L 214.5 288 L 211.5 289 L 209.5 289 Q 146.678 290.99 92 286 L 92 224.5 Q 91 222.5 79.5 224 L 79.5 223 L 92 223 L 92 185 Z " /><path fill="rgb(173,226,249)" stroke="rgb(173,226,249)" stroke-width="1" opacity="1" d="M 282.5 186 L 283.5 188 L 282.5 186 Z " /><path fill="rgb(173,226,249)" stroke="rgb(173,226,249)" stroke-width="1" opacity="1" d="M 284.5 210 L 285 212.5 L 284 212.5 L 284.5 210 Z " /><path fill="rgb(173,226,249)" stroke="rgb(173,226,249)" stroke-width="1" opacity="1" d="M 408.5 217 L 470 217.5 L 408.5 218 L 408.5 217 Z " /><path fill="rgb(173,226,249)" stroke="rgb(173,226,249)" stroke-width="1" opacity="1" d="M 281.5 218 L 280.5 220 L 281.5 218 Z " /><path fill="rgb(173,226,249)" stroke="rgb(173,226,249)" stroke-width="1" opacity="1" d="M 408.5 294 L 470 294.5 L 408.5 295 L 408.5 294 Z " /><path fill="rgb(173,226,249)" stroke="rgb(173,226,249)" stroke-width="1" opacity="1" d="M 95.5 331 L 96.5 333 L 95.5 331 Z " /><path fill="rgb(173,226,249)" stroke="rgb(173,226,249)" stroke-width="1" opacity="1" d="M 98.5 334 L 99.5 336 L 98.5 334 Z " /><path fill="rgb(173,226,249)" stroke="rgb(173,226,249)" stroke-width="1" opacity="1" d="M 109.5 339 L 110 356.5 L 109 356.5 L 109.5 339 Z " /><path fill="rgb(173,226,249)" stroke="rgb(173,226,249)" stroke-width="1" opacity="1" d="M 210.5 339 L 211 356.5 L 210 356.5 L 210.5 339 Z " /><path fill="rgb(173,226,249)" stroke="rgb(173,226,249)" stroke-width="1" opacity="1" d="M 407.5 340 L 465 340.5 L 407.5 341 L 407.5 340 Z " /><path fill="rgb(0,0,0)" stroke="rgb(0,0,0)" stroke-width="1" opacity="0" d="M 0 0 L 511.5 0 L 512 0.5 L 512 116.5 L 511 116.5 L 506.5 110 L 501.5 108 L 377.5 108 Q 376 117.5 370.5 123 Q 366.833 127.833 357.5 127 L 348 121.5 L 342.5 108 L 10.5 108 Q 4.75 109.25 2 113.5 L 0.5 117 L 0 0 Z " /><path fill="rgb(0,0,0)" stroke="rgb(0,0,0)" stroke-width="1" opacity="0" d="M 358.5 152 Q 364.917 152.083 367 156.5 L 367 179.5 L 362.5 184 Q 354.25 185.25 353 179.5 L 353 156.5 L 356.5 153 L 358.5 152 Z " /><path fill="rgb(0,0,0)" stroke="rgb(0,0,0)" stroke-width="1" opacity="0" d="M 357.5 211 Q 362.938 210.375 365 212 L 367 215.5 L 367 237.5 L 363.5 242 L 359.5 243 L 354 239.5 L 353 237.5 L 353 215.5 L 357.5 211 Z " /><path fill="rgb(0,0,0)" stroke="rgb(0,0,0)" stroke-width="1" opacity="0" d="M 359.5 269 Q 364.25 269.25 366 272.5 L 367 274.5 L 367 296.5 L 365 300 Q 362.938 301.625 357.5 301 L 353 296.5 L 353 274.5 L 356.5 270 L 359.5 269 Z " /><path fill="rgb(0,0,0)" stroke="rgb(0,0,0)" stroke-width="1" opacity="0" d="M 357.5 328 Q 365.75 326.75 367 332.5 L 367 355.5 L 363.5 359 L 358.5 360 L 353 355.5 L 353 332.5 L 357.5 328 Z " /><path fill="rgb(0,0,0)" stroke="rgb(0,0,0)" stroke-width="1" opacity="0" d="M 357.5 385 Q 367.73 384.77 372 390.5 L 377.5 404 L 501.5 404 Q 507.25 402.75 510 398.5 L 511.5 395 L 512 512 L 0.5 512 L 0 511.5 L 0 395.5 L 1 395.5 L 5.5 402 L 10.5 404 L 342.5 404 Q 344 394.5 349.5 389 L 357.5 385 Z " /><path fill="rgb(51,128,158)" stroke="rgb(51,128,158)" stroke-width="1" opacity="0.996078431372549" d="M 121.5 149 L 231.5 149 Q 245.566 152.934 253 163.5 Q 259.208 171.625 259 185 L 279.5 185 L 284 188.5 Q 287.25 196.25 285 209.5 Q 284.25 217.75 278.5 221 Q 272.073 225.667 259 223 L 259 185.5 L 258.5 185 L 92 185 L 92 223 L 75.5 223 L 68 217.5 Q 62.714 207.786 66 189.5 L 68.5 186 L 70.5 185 L 92 185 Q 91.795 166.604 102.5 158 Q 109.356 150.856 121.5 149 Z " /><path fill="rgb(51,128,158)" stroke="rgb(51,128,158)" stroke-width="1" opacity="0.996078431372549" d="M 406.5 156 L 470.5 156 L 475 158 L 477 165.5 L 472.5 171 L 465.5 172 L 464.5 171 L 404.5 171 L 401 167.5 L 400 163.5 L 402 158 L 406.5 156 Z " /><path fill="rgb(51,128,158)" stroke="rgb(51,128,158)" stroke-width="1" opacity="0.996078431372549" d="M 405.5 218 L 472.5 218 L 476 221.5 L 477 226.5 L 473.5 232 L 471.5 233 L 406.5 233 L 402 231 L 400 224.5 L 403.5 219 L 405.5 218 Z " /><path fill="rgb(51,128,158)" stroke="rgb(51,128,158)" stroke-width="1" opacity="0.996078431372549" d="M 406.5 279 L 471.5 279 L 475 281.5 L 477 288.5 L 472.5 294 L 405.5 294 L 401 290.5 L 400 286.5 L 402 281 L 406.5 279 Z " /><path fill="rgb(51,128,158)" stroke="rgb(51,128,158)" stroke-width="1" opacity="0.996078431372549" d="M 92 286 Q 146.678 290.99 209.5 289 L 211.5 289 Q 237.111 288.807 259 286 L 259 322.5 Q 257.25 331.75 250.5 336 L 241 339 Q 244.5 355.375 237.5 362 Q 230.333 366.333 215.5 363 L 212 360.5 Q 207.667 353.296 211 339 L 140.5 339 L 140 339.5 L 140 357.5 L 136.5 362 Q 129.333 366.333 114.5 363 L 111 360.5 Q 106.667 353.296 110 339 Q 101.973 338.31 97 334 L 92 324.5 L 92 286 Z M 121 305 L 119 306 L 114 313 L 116 318 L 120 320 Q 132 323 139 319 Q 142 317 141 310 Q 136 302 121 305 Z M 216 305 L 212 307 L 209 311 L 210 317 L 214 320 L 232 320 L 236 315 L 235 309 Q 230 302 216 305 Z " /><path fill="rgb(51,128,158)" stroke="rgb(51,128,158)" stroke-width="1" opacity="0.996078431372549" d="M 465.5 340 Q 473.563 339.438 476 344.5 L 477 349.5 L 475 354 L 470.5 356 L 406.5 356 L 402 354 L 400 347.5 L 404.5 341 L 464.5 341 L 465.5 340 Z " /><path fill="rgb(202,221,234)" stroke="rgb(202,221,234)" stroke-width="1" opacity="0.996078431372549" d="M 465 109 L 502.5 109 L 510 114.5 L 512 119.5 L 512 392.5 Q 510.75 398.25 506.5 401 L 502.5 403 L 377 403 Q 376.958 393.708 371.5 389 Q 367.136 383.364 355.5 385 L 348 389 Q 343.417 394.125 343 403 L 9.5 403 L 2 397.5 L 0 392.5 L 0 356 L 108.5 356 L 110 357.5 Q 109.5 361.5 112.5 362 Q 120 366.5 135.5 363 Q 140.75 361.5 140 356 L 209.5 356 L 211 357.5 Q 210.5 362.5 214.5 363 L 236.5 363 L 241 358.5 L 241.5 356 L 352.5 356 Q 354.55 360.45 360.5 361 L 367.5 356 L 403.5 356 L 404.5 355 L 405.5 356 L 471.5 356 L 476 352.5 L 477 345.5 L 475 342 Q 471.78 339.143 465 340 L 465 295.5 Q 465 294.5 469.5 295 L 475 293 Q 477.833 291.042 477 284.5 L 473.5 280 L 465 279 L 465 233.5 Q 465.25 232.25 471.5 233 L 476 229.5 L 477 222.5 L 475 219 Q 471.381 216.375 465 217 L 465 172.5 Q 465.125 171.375 470.5 172 L 475 170 Q 477.833 168.042 477 161.5 L 473.5 157 L 465 156 L 465 109 Z " /><path fill="rgb(202,221,234)" stroke="rgb(202,221,234)" stroke-width="1" opacity="0.996078431372549" d="M 125.5 148 L 201 148.5 L 125.5 149 L 125.5 148 Z " /><path fill="rgb(202,221,234)" stroke="rgb(202,221,234)" stroke-width="1" opacity="0.996078431372549" d="M 106.5 154 L 105.5 156 L 106.5 154 Z " /><path fill="rgb(202,221,234)" stroke="rgb(202,221,234)" stroke-width="1" opacity="0.996078431372549" d="M 401.5 168 L 403.5 171 L 401.5 168 Z " /><path fill="rgb(202,221,234)" stroke="rgb(202,221,234)" stroke-width="1" opacity="0.996078431372549" d="M 91.5 182 L 92 184.5 L 91 184.5 L 91.5 182 Z " /><path fill="rgb(202,221,234)" stroke="rgb(202,221,234)" stroke-width="1" opacity="0.996078431372549" d="M 65.5 190 L 66 210.5 L 65 210.5 L 65.5 190 Z " /><path fill="rgb(202,221,234)" stroke="rgb(202,221,234)" stroke-width="1" opacity="0.996078431372549" d="M 402.5 219 L 401.5 221 L 402.5 219 Z " /><path fill="rgb(202,221,234)" stroke="rgb(202,221,234)" stroke-width="1" opacity="0.996078431372549" d="M 91.5 224 L 92 320.5 L 91 320.5 L 91.5 224 Z " /><path fill="rgb(202,221,234)" stroke="rgb(202,221,234)" stroke-width="1" opacity="0.996078431372549" d="M 401.5 291 L 402.5 293 L 401.5 291 Z " /><path fill="rgb(202,221,234)" stroke="rgb(202,221,234)" stroke-width="1" opacity="0.996078431372549" d="M 120.5 305 Q 136.375 301.625 141 309.5 Q 142.25 316.75 138.5 319 Q 132.333 322.833 119.5 320 L 116 317.5 L 115 309.5 L 120.5 305 Z " /><path fill="rgb(202,221,234)" stroke="rgb(202,221,234)" stroke-width="1" opacity="0.996078431372549" d="M 215.5 305 Q 229.722 302.278 235 308.5 L 236 314.5 L 231.5 320 L 213.5 320 L 210 316.5 L 209 310.5 L 211.5 307 L 215.5 305 Z " /><path fill="rgb(202,221,234)" stroke="rgb(202,221,234)" stroke-width="1" opacity="0.996078431372549" d="M 403.5 341 L 401.5 344 L 403.5 341 Z " /></svg>