<svg width="512" height="512" version="1.1" xmlns="http://www.w3.org/2000/svg" desc="Created with imagetracer.js version 1.2.6" ><path fill="rgb(0,0,0)" stroke="rgb(0,0,0)" stroke-width="1" opacity="0" d="M 0 0 L 143 0.5 Q 132.188 3.188 127 11.5 L 123 22.5 L 123 489.5 Q 125.25 502.25 134.5 508 L 143 511.5 L 0 512 L 0 0 Z " /><path fill="rgb(0,0,0)" stroke="rgb(0,0,0)" stroke-width="1" opacity="0" d="M 369.5 0 L 511.5 0 L 512 0.5 L 512 512 L 369 511.5 Q 379.104 509.104 384 501.5 L 389 489.5 L 389 22.5 Q 386.583 9.917 377.5 4 Q 368.773 3.477 369.5 0 Z " /><path fill="rgb(254,116,99)" stroke="rgb(254,116,99)" stroke-width="1" opacity="0.9921568627450981" d="M 235.5 106 L 276.5 106 L 281 109.5 L 283 115.5 L 283 149.5 L 279.5 157 L 275.5 159 L 236.5 159 L 231 155.5 L 229 149.5 L 229 115.5 Q 229.625 109.625 233.5 107 L 235.5 106 Z " /><path fill="rgb(254,116,99)" stroke="rgb(254,116,99)" stroke-width="1" opacity="0.9921568627450981" d="M 322.5 115 Q 335.467 113.533 340 120.5 Q 345.333 125.167 344 136.5 Q 341.893 144.393 335.5 148 Q 331.5 151 323.5 150 Q 315.85 148.15 312 142.5 Q 307.95 138.05 309 128.5 Q 311.107 120.607 317.5 117 L 322.5 115 Z " /><path fill="rgb(254,116,99)" stroke="rgb(254,116,99)" stroke-width="1" opacity="0.9921568627450981" d="M 305.5 177 L 347.5 177 L 351 179.5 L 353 183.5 L 353 222.5 L 349.5 228 L 347.5 229 L 305.5 229 L 300 221.5 L 300 184.5 L 305.5 177 Z " /><path fill="rgb(254,116,99)" stroke="rgb(254,116,99)" stroke-width="1" opacity="0.9921568627450981" d="M 314.5 265 L 338.5 265 L 343 268.5 L 344 276.5 L 340.5 281 Q 332.571 285.571 317.5 283 L 310 278.5 L 309 270.5 L 311 267 L 314.5 265 Z " /><path fill="rgb(254,116,99)" stroke="rgb(254,116,99)" stroke-width="1" opacity="0.9921568627450981" d="M 306.5 362 L 346.5 362 L 352 366.5 L 353 368.5 L 353 408.5 L 348.5 414 L 346.5 415 L 307.5 415 L 301 410.5 L 300 407.5 L 300 368.5 L 304.5 363 L 306.5 362 Z " /><path fill="rgb(94,141,171)" stroke="rgb(94,141,171)" stroke-width="1" opacity="0.9882352941176471" d="M 141 70 L 371 70 L 371 442 L 141 442 L 141 70 Z M 165 106 L 161 108 L 159 112 L 159 154 L 166 159 L 206 159 L 208 158 L 212 153 L 212 113 L 211 111 L 206 106 L 165 106 Z M 236 106 L 234 107 L 229 115 L 229 151 L 231 156 L 237 159 L 276 159 L 280 157 L 283 151 L 283 115 L 281 110 L 277 106 L 236 106 Z M 322 115 L 318 117 Q 311 121 309 129 Q 308 137 311 142 Q 315 148 323 150 Q 334 151 339 146 L 344 138 Q 346 126 341 122 Q 337 113 322 115 Z M 239 176 L 235 177 Q 230 179 229 186 L 229 222 L 230 225 L 238 230 L 275 230 L 278 229 Q 282 227 283 221 Q 287 197 282 182 Q 280 177 274 176 L 239 176 Z M 310 176 L 304 178 L 300 184 L 300 223 L 302 227 L 309 230 L 345 230 L 350 228 L 353 224 L 353 183 L 352 181 L 345 176 L 310 176 Z M 165 177 L 163 178 L 159 183 L 159 224 L 160 226 L 165 229 L 207 229 L 209 228 L 212 223 L 212 184 L 210 179 L 207 177 L 165 177 Z M 237 247 L 233 249 L 229 256 Q 225 280 230 296 L 236 300 L 277 300 L 279 299 L 283 292 L 283 256 L 281 251 L 276 247 L 237 247 Z M 307 247 L 305 248 L 300 254 L 300 295 L 302 298 L 306 300 L 348 300 L 350 299 L 353 295 L 353 253 L 351 249 L 347 247 L 307 247 Z M 174 265 L 172 266 L 168 271 L 169 279 L 176 283 Q 191 286 200 281 L 203 277 Q 204 270 201 267 L 198 265 L 174 265 Z M 256 326 L 251 328 L 247 333 Q 246 339 249 342 L 253 344 Q 260 345 263 342 L 265 338 L 264 331 Q 261 327 256 326 Z M 291 326 L 288 327 L 282 334 Q 282 342 288 344 L 297 343 L 300 339 L 299 331 Q 297 326 291 326 Z M 218 327 L 216 328 L 212 333 L 213 341 Q 215 346 225 344 L 230 337 L 229 332 Q 227 325 218 327 Z M 306 362 L 300 369 L 300 409 L 301 411 L 307 415 L 347 415 L 351 413 L 353 410 L 353 368 L 352 366 L 348 362 L 306 362 Z M 252 371 L 247 373 Q 240 377 238 386 Q 237 394 241 399 Q 245 404 252 406 Q 262 408 267 403 Q 273 399 274 391 Q 275 382 271 379 Q 266 370 252 371 Z " /><path fill="rgb(94,141,171)" stroke="rgb(94,141,171)" stroke-width="1" opacity="0.9882352941176471" d="M 245.5 194 Q 264.583 189.917 272 197.5 L 273 206.5 L 270.5 210 Q 262.5 215.5 245.5 212 L 240 208.5 L 238 202.5 L 241.5 196 L 245.5 194 Z " /><path fill="rgb(112,115,132)" stroke="rgb(112,115,132)" stroke-width="1" opacity="1" d="M 143.5 0 L 368.5 0 Q 378.75 2.75 384 10.5 L 389 22.5 L 389 489.5 Q 386.583 502.083 377.5 508 L 368.5 512 L 143.5 512 Q 132.558 508.942 127 500.5 L 123 489.5 L 123 22.5 Q 125.25 9.75 134.5 4 L 143.5 0 Z M 141 70 L 141 442 L 371 442 L 371 70 L 141 70 Z " /><path fill="rgb(112,115,132)" stroke="rgb(112,115,132)" stroke-width="1" opacity="1" d="M 339.5 144 L 338.5 146 L 339.5 144 Z " /><path fill="rgb(112,115,132)" stroke="rgb(112,115,132)" stroke-width="1" opacity="1" d="M 238.5 176 L 273.5 176 Q 279.85 176.65 282 181.5 Q 286.5 197 283 220.5 Q 282.35 226.85 277.5 229 L 274.5 230 L 237.5 230 L 230 224.5 L 229 221.5 L 229 185.5 Q 229.65 179.15 234.5 177 L 238.5 176 Z M 246 194 L 242 196 L 238 203 L 240 209 L 246 212 Q 263 216 271 210 L 273 207 L 272 198 Q 265 190 246 194 Z " /><path fill="rgb(112,115,132)" stroke="rgb(112,115,132)" stroke-width="1" opacity="1" d="M 217.5 327 Q 227.25 325.25 229 331.5 L 230 336.5 L 224.5 344 Q 215.469 345.531 213 340.5 L 212 332.5 L 215.5 328 L 217.5 327 Z " /><path fill="rgb(112,115,132)" stroke="rgb(112,115,132)" stroke-width="1" opacity="1" d="M 349.5 363 L 351.5 366 L 349.5 363 Z " /><path fill="rgb(246,247,242)" stroke="rgb(246,247,242)" stroke-width="1" opacity="0.9647058823529412" d="M 306.5 247 L 346.5 247 L 351 249 L 353 252.5 L 353 294.5 L 349.5 299 L 347.5 300 L 305.5 300 L 302 298 L 300 294.5 L 300 253.5 L 304.5 248 L 306.5 247 Z M 315 265 L 311 267 L 309 271 L 310 279 L 318 283 Q 333 286 341 281 L 344 277 L 343 269 L 339 265 L 315 265 Z " /><path fill="rgb(246,247,242)" stroke="rgb(246,247,242)" stroke-width="1" opacity="0.9647058823529412" d="M 173.5 265 L 197.5 265 L 201 267 Q 203.714 269.607 203 276.5 L 199.5 281 Q 191.214 285.714 175.5 283 L 169 278.5 L 168 270.5 L 171.5 266 L 173.5 265 Z " /><path fill="rgb(246,247,242)" stroke="rgb(246,247,242)" stroke-width="1" opacity="0.9647058823529412" d="M 255.5 326 Q 261.375 326.625 264 330.5 L 265 337.5 L 263 342 Q 260.458 345.167 252.5 344 L 249 342 Q 246.286 339.393 247 332.5 L 250.5 328 L 255.5 326 Z " /><path fill="rgb(246,247,242)" stroke="rgb(246,247,242)" stroke-width="1" opacity="0.9647058823529412" d="M 290.5 326 Q 296.917 326.083 299 330.5 L 300 338.5 L 296.5 343 L 287.5 344 Q 281.893 341.607 282 333.5 L 287.5 327 L 290.5 326 Z " /><path fill="rgb(237,219,107)" stroke="rgb(237,219,107)" stroke-width="1" opacity="0.9921568627450981" d="M 164.5 106 L 205.5 106 L 211 110.5 L 212 112.5 L 212 152.5 L 207.5 158 L 205.5 159 L 165.5 159 L 159 153.5 L 159 111.5 L 161 108 L 164.5 106 Z " /><path fill="rgb(237,219,107)" stroke="rgb(237,219,107)" stroke-width="1" opacity="0.9921568627450981" d="M 309.5 176 L 344 176.5 L 309.5 177 L 309.5 176 Z " /><path fill="rgb(237,219,107)" stroke="rgb(237,219,107)" stroke-width="1" opacity="0.9921568627450981" d="M 164.5 177 L 206.5 177 L 211 181.5 L 212 183.5 L 212 222.5 L 210 227 L 206.5 229 L 164.5 229 L 160 225.5 L 159 222.5 L 159 183.5 L 162.5 178 L 164.5 177 Z " /><path fill="rgb(237,219,107)" stroke="rgb(237,219,107)" stroke-width="1" opacity="0.9921568627450981" d="M 303.5 178 L 302.5 180 L 303.5 178 Z " /><path fill="rgb(237,219,107)" stroke="rgb(237,219,107)" stroke-width="1" opacity="0.9921568627450981" d="M 302.5 226 L 303.5 228 L 302.5 226 Z " /><path fill="rgb(237,219,107)" stroke="rgb(237,219,107)" stroke-width="1" opacity="0.9921568627450981" d="M 308.5 229 L 345 229.5 L 308.5 230 L 308.5 229 Z " /><path fill="rgb(237,219,107)" stroke="rgb(237,219,107)" stroke-width="1" opacity="0.9921568627450981" d="M 236.5 247 L 275.5 247 L 281 250.5 L 283 255.5 L 283 291.5 L 278.5 299 L 276.5 300 L 235.5 300 L 230 295.5 Q 225.4 279.6 229 255.5 L 232.5 249 L 236.5 247 Z " /><path fill="rgb(237,219,107)" stroke="rgb(237,219,107)" stroke-width="1" opacity="0.9921568627450981" d="M 251.5 371 Q 266.479 369.521 271 378.5 Q 274.75 382.25 274 390.5 Q 272.523 399.023 266.5 403 Q 262 407.5 251.5 406 Q 244.75 403.75 241 398.5 Q 237.1 394.4 238 385.5 Q 240.15 377.15 246.5 373 L 251.5 371 Z " /></svg>