<svg width="512" height="512" version="1.1" xmlns="http://www.w3.org/2000/svg" desc="Created with imagetracer.js version 1.2.6" ><path fill="rgb(0,0,0)" stroke="rgb(0,0,0)" stroke-width="1" opacity="0" d="M 0 0 L 254 0.5 L 238 8 L 238 34.5 L 236.5 36 L 133 87 Q 135 80.094 131.5 78 L 114.5 70 L 97 79.5 L 97 432.5 L 98.5 434 L 115.5 442 L 133 432.5 L 133.5 398 L 238 450 L 238 503.5 L 239.5 504 L 254 511.5 L 0 512 L 0 0 Z " /><path fill="rgb(0,0,0)" stroke="rgb(0,0,0)" stroke-width="1" opacity="0" d="M 258.5 0 L 512 0 L 512 512 L 258 511.5 L 274 504 L 274 353.5 L 275.5 353 L 298.5 341 L 301.5 341 L 379 380.5 L 379 432.5 L 380.5 434 L 397.5 442 L 415 432.5 L 415 255.5 L 413.5 255 L 274 184.5 L 274 8.5 L 272.5 8 L 258.5 1 L 258.5 0 Z " /><path fill="rgb(0,0,0)" stroke="rgb(0,0,0)" stroke-width="1" opacity="0" d="M 237.5 98 L 238 184.5 L 133 237 L 133 150.5 L 134.5 150 L 237.5 98 Z " /><path fill="rgb(0,0,0)" stroke="rgb(0,0,0)" stroke-width="1" opacity="0" d="M 133.5 301 L 228 348.5 L 178.5 374 L 175.5 374 L 133 353 L 133.5 301 Z " /><path fill="rgb(0,0,0)" stroke="rgb(0,0,0)" stroke-width="1" opacity="0" d="M 378.5 301 L 379 334 L 346 317.5 L 378.5 301 Z " /><path fill="rgb(0,0,0)" stroke="rgb(0,0,0)" stroke-width="1" opacity="0" d="M 236.5 383 L 238 383.5 L 238 404.5 L 236.5 404 L 216 393.5 L 236.5 383 Z " /><path fill="rgb(203,131,84)" stroke="rgb(203,131,84)" stroke-width="1" opacity="0.6823529411764706" d="M 238.5 8 L 239 184.5 L 238 184.5 L 238.5 8 Z " /><path fill="rgb(203,131,84)" stroke="rgb(203,131,84)" stroke-width="1" opacity="0.6823529411764706" d="M 273.5 8 L 274 184.5 L 273 184.5 L 273.5 8 Z " /><path fill="rgb(203,131,84)" stroke="rgb(203,131,84)" stroke-width="1" opacity="0.6823529411764706" d="M 114.5 70 L 133 79.5 L 132.5 265 L 132 79 L 114.5 71 L 97.5 80 L 98.5 78 L 114.5 70 Z " /><path fill="rgb(203,131,84)" stroke="rgb(203,131,84)" stroke-width="1" opacity="0.6823529411764706" d="M 124.5 268 L 124 269.5 L 123.5 296 L 123 269.5 L 124.5 268 Z " /><path fill="rgb(203,131,84)" stroke="rgb(203,131,84)" stroke-width="1" opacity="0.6823529411764706" d="M 131.5 299 L 230 348.5 L 228.5 349 L 133.5 301 L 132.5 353 L 132 300.5 L 131.5 299 Z " /><path fill="rgb(203,131,84)" stroke="rgb(203,131,84)" stroke-width="1" opacity="0.6823529411764706" d="M 379.5 300 L 380 334.5 L 379 334.5 L 379.5 300 Z " /><path fill="rgb(203,131,84)" stroke="rgb(203,131,84)" stroke-width="1" opacity="0.6823529411764706" d="M 300.5 340 L 380 379 L 380 432.5 L 381.5 433 L 398 441.5 L 396.5 442 L 379 432.5 L 379 380.5 L 377.5 379 L 300.5 341 L 300.5 340 Z " /><path fill="rgb(203,131,84)" stroke="rgb(203,131,84)" stroke-width="1" opacity="0.6823529411764706" d="M 238 353 L 240 353.5 L 238.5 362 L 238 353 Z " /><path fill="rgb(203,131,84)" stroke="rgb(203,131,84)" stroke-width="1" opacity="0.6823529411764706" d="M 273.5 353 L 274 504 L 257.5 512 L 254.5 512 L 238 504 L 238.5 382 L 239 502.5 L 240.5 504 L 254.5 511 L 257.5 511 L 273 502.5 L 273.5 353 Z " /><path fill="rgb(203,131,84)" stroke="rgb(203,131,84)" stroke-width="1" opacity="0.6823529411764706" d="M 243.5 355 L 254 360.5 L 252.5 361 Q 244.667 359.333 243.5 355 Z " /><path fill="rgb(203,131,84)" stroke="rgb(203,131,84)" stroke-width="1" opacity="0.6823529411764706" d="M 114 362 L 116 362.5 L 115 363.5 L 114.5 388 L 114 362 Z " /><path fill="rgb(203,131,84)" stroke="rgb(203,131,84)" stroke-width="1" opacity="0.6823529411764706" d="M 132.5 397 L 133 432.5 L 114.5 442 L 97 432.5 L 98.5 433 L 115.5 441 L 132 433 L 132.5 397 Z " /><path fill="rgb(203,131,84)" stroke="rgb(203,131,84)" stroke-width="1" opacity="0.6823529411764706" d="M 414.5 432 L 413.5 434 L 414.5 432 Z " /><path fill="rgb(200,174,142)" stroke="rgb(200,174,142)" stroke-width="1" opacity="0.6470588235294118" d="M 237.5 185 L 239 185.5 L 133.5 238 L 133.5 237 L 237.5 185 Z " /><path fill="rgb(200,174,142)" stroke="rgb(200,174,142)" stroke-width="1" opacity="0.6470588235294118" d="M 273.5 185 L 415 255.5 L 413.5 256 L 273.5 186 L 273.5 185 Z " /><path fill="rgb(200,174,142)" stroke="rgb(200,174,142)" stroke-width="1" opacity="0.6470588235294118" d="M 125.5 268 L 124.5 270 L 125.5 268 Z " /><path fill="rgb(200,174,142)" stroke="rgb(200,174,142)" stroke-width="1" opacity="0.6470588235294118" d="M 345.5 318 L 380 335.5 L 380 352.5 L 378.5 353 L 379 351.5 L 379 335.5 L 377.5 335 L 345.5 319 L 345.5 318 Z " /><path fill="rgb(200,174,142)" stroke="rgb(200,174,142)" stroke-width="1" opacity="0.6470588235294118" d="M 327.5 326 L 328.5 328 L 327.5 326 Z " /><path fill="rgb(200,174,142)" stroke="rgb(200,174,142)" stroke-width="1" opacity="0.6470588235294118" d="M 227.5 349 L 229 349.5 L 177.5 376 L 177 374 L 227.5 349 Z " /><path fill="rgb(200,174,142)" stroke="rgb(200,174,142)" stroke-width="1" opacity="0.6470588235294118" d="M 131.5 353 Q 135.25 352.25 136 354.5 L 134.5 354 Q 130.5 354.75 131.5 353 Z " /><path fill="rgb(200,174,142)" stroke="rgb(200,174,142)" stroke-width="1" opacity="0.6470588235294118" d="M 235.5 404 L 238 405.5 L 236.5 405 L 235.5 404 Z " /><path fill="rgb(203,178,146)" stroke="rgb(203,178,146)" stroke-width="1" opacity="1" d="M 237.5 186 L 256.5 195 L 274.5 186 L 413 255 Q 414.125 257.667 411.5 257 L 255.5 335 L 125 269.5 L 133 264.5 L 133 238.5 L 134.5 238 L 237.5 186 Z " /><path fill="rgb(203,178,146)" stroke="rgb(203,178,146)" stroke-width="1" opacity="1" d="M 342.5 319 L 345.5 319 L 379 336.5 L 378.5 352 L 328 326.5 L 342.5 319 Z " /><path fill="rgb(203,178,146)" stroke="rgb(203,178,146)" stroke-width="1" opacity="1" d="M 229.5 349 L 238 353 Q 240.75 362.182 236.5 365 L 197 384 Q 195.875 386.667 198.5 386 L 238 406 L 237.5 423 L 117 363 Q 115.875 360.333 118.5 361 L 133.5 354 L 189.5 382 L 188.5 380 L 179 376 Q 177.875 373.333 180.5 374 L 229.5 349 Z " /><path fill="rgb(128,83,51)" stroke="rgb(128,83,51)" stroke-width="1" opacity="0.984313725490196" d="M 237.5 35 L 238 97.5 L 133 150 L 133 87.5 L 134.5 87 L 237.5 35 Z " /><path fill="rgb(128,83,51)" stroke="rgb(128,83,51)" stroke-width="1" opacity="0.984313725490196" d="M 414.5 256 L 415 281.5 L 412.5 284 L 377.5 302 Q 314.761 329.761 256.5 362 L 256 335 L 414.5 256 Z " /><path fill="rgb(128,83,51)" stroke="rgb(128,83,51)" stroke-width="1" opacity="0.984313725490196" d="M 236.5 365 L 238 365.5 L 238 383 L 214.5 394 L 198 386 Q 196.875 383.333 199.5 384 L 236.5 365 Z " /><path fill="rgb(175,128,102)" stroke="rgb(175,128,102)" stroke-width="1" opacity="0.9764705882352941" d="M 413.5 283 L 415 283.5 L 415 431.5 L 414 431.5 L 414 284.5 L 413.5 283 Z " /><path fill="rgb(175,128,102)" stroke="rgb(175,128,102)" stroke-width="1" opacity="0.9764705882352941" d="M 301.5 339 L 302.5 341 L 301.5 339 Z " /><path fill="rgb(175,128,102)" stroke="rgb(175,128,102)" stroke-width="1" opacity="0.9764705882352941" d="M 379.5 353 L 380 379 L 378 378.5 L 379 377.5 L 379.5 353 Z " /><path fill="rgb(203,130,82)" stroke="rgb(203,130,82)" stroke-width="1" opacity="1" d="M 114.5 71 L 132 79 L 132 264.5 L 130.5 265 L 123 269.5 L 123 295.5 L 124.5 296 L 132 300.5 L 132 352.5 L 130.5 354 L 114 362.5 L 114 387.5 L 116.5 390 L 132 397 L 132 432.5 L 130.5 433 L 114.5 441 L 97 431.5 L 97 80.5 L 98.5 79 L 114.5 71 Z " /><path fill="rgb(203,130,82)" stroke="rgb(203,130,82)" stroke-width="1" opacity="1" d="M 239 354 Q 245.679 360.25 257.5 362 L 272.5 354 L 273 502.5 L 257.5 511 L 254.5 511 L 239 502.5 L 239 354 Z " /><path fill="rgb(175,128,102)" stroke="rgb(175,128,102)" stroke-width="1" opacity="1" d="M 254.5 1 L 257.5 1 L 273 9.5 L 273 184.5 L 271.5 186 L 257.5 193 L 254.5 193 L 239 184.5 L 239 9.5 L 240.5 8 L 254.5 1 Z " /><path fill="rgb(175,128,102)" stroke="rgb(175,128,102)" stroke-width="1" opacity="1" d="M 124.5 270 L 256 336.5 L 256 360.5 L 254.5 361 L 124 296 L 124.5 270 Z " /><path fill="rgb(175,128,102)" stroke="rgb(175,128,102)" stroke-width="1" opacity="1" d="M 412.5 284 L 414 284.5 L 414 433 L 397.5 441 L 380 431.5 L 380 300.5 L 381.5 300 L 412.5 284 Z " /><path fill="rgb(175,128,102)" stroke="rgb(175,128,102)" stroke-width="1" opacity="1" d="M 326.5 327 L 379 353 L 379 377.5 L 377.5 378 L 302 339.5 L 326.5 327 Z " /><path fill="rgb(175,128,102)" stroke="rgb(175,128,102)" stroke-width="1" opacity="1" d="M 115 363 L 238 424.5 L 238 448.5 L 236.5 449 L 115 387.5 L 115 363 Z " /><path fill="rgb(175,128,102)" stroke="rgb(175,128,102)" stroke-width="1" opacity="1" d="M 238.5 363 L 239 365.5 L 238.5 381 L 238 365.5 L 237 364.5 L 238.5 363 Z " /></svg>