<svg width="512" height="512" version="1.1" xmlns="http://www.w3.org/2000/svg" desc="Created with imagetracer.js version 1.2.6" ><path fill="rgb(225,117,96)" stroke="rgb(225,117,96)" stroke-width="1" opacity="0.9882352941176471" d="M 122.5 61 Q 190.274 58.226 217 96.5 Q 247.183 128.611 241 196 L 228.5 192 L 112.5 192 Q 111 189.5 105.5 191 Q 81.507 184.993 69 167.5 Q 61.205 157.295 57.5 143 Q 38.402 160.854 34 192 L 23 193 Q 11.555 152.312 14 96.5 Q 15.25 93.75 16.5 96 Q 24.222 100.778 37.5 100 Q 49.522 97.522 56 89.5 L 61.5 83 Q 82.271 62.271 122.5 61 Z " /><path fill="rgb(225,117,96)" stroke="rgb(225,117,96)" stroke-width="1" opacity="0.9882352941176471" d="M 368.5 161 L 369 163.5 L 368 163.5 L 368.5 161 Z " /><path fill="rgb(225,117,96)" stroke="rgb(225,117,96)" stroke-width="1" opacity="0.9882352941176471" d="M 279.5 208 L 285 208.5 L 279.5 209 L 279.5 208 Z " /><path fill="rgb(225,117,96)" stroke="rgb(225,117,96)" stroke-width="1" opacity="0.9882352941176471" d="M 427.5 208 L 453 208.5 L 427.5 209 L 427.5 208 Z " /><path fill="rgb(225,117,96)" stroke="rgb(225,117,96)" stroke-width="1" opacity="0.9882352941176471" d="M 179.5 216 L 180.5 218 L 179.5 216 Z " /><path fill="rgb(225,117,96)" stroke="rgb(225,117,96)" stroke-width="1" opacity="0.9882352941176471" d="M 73.5 221 L 74 241.5 L 73 241.5 L 73.5 221 Z " /><path fill="rgb(225,117,96)" stroke="rgb(225,117,96)" stroke-width="1" opacity="0.9882352941176471" d="M 322.5 230 L 329 230.5 L 322.5 231 L 322.5 230 Z " /><path fill="rgb(225,117,96)" stroke="rgb(225,117,96)" stroke-width="1" opacity="0.9882352941176471" d="M 409.5 230 L 416 230.5 L 409.5 231 L 409.5 230 Z " /><path fill="rgb(225,117,96)" stroke="rgb(225,117,96)" stroke-width="1" opacity="0.9882352941176471" d="M 334.5 232 L 335.5 234 L 334.5 232 Z " /><path fill="rgb(225,117,96)" stroke="rgb(225,117,96)" stroke-width="1" opacity="0.9882352941176471" d="M 75.5 245 L 76.5 247 L 75.5 245 Z " /><path fill="rgb(225,117,96)" stroke="rgb(225,117,96)" stroke-width="1" opacity="0.9882352941176471" d="M 320.5 248 L 321 254.5 L 320 254.5 L 320.5 248 Z " /><path fill="rgb(225,117,96)" stroke="rgb(225,117,96)" stroke-width="1" opacity="0.9882352941176471" d="M 475.5 256 L 474.5 258 L 475.5 256 Z " /><path fill="rgb(225,117,96)" stroke="rgb(225,117,96)" stroke-width="1" opacity="0.9882352941176471" d="M 470.5 260 L 469.5 262 L 470.5 260 Z " /><path fill="rgb(225,117,96)" stroke="rgb(225,117,96)" stroke-width="1" opacity="0.9882352941176471" d="M 458.5 265 L 461 265.5 L 458.5 266 L 458.5 265 Z " /><path fill="rgb(225,117,96)" stroke="rgb(225,117,96)" stroke-width="1" opacity="0.9882352941176471" d="M 301.5 343 L 333 343 L 333 354.5 Q 335.625 370.875 346.5 379 Q 354.744 386.256 369.5 387 Q 389.47 384.97 398 371.5 Q 406.526 362.229 404 343 Q 448.5 336.75 465 359.5 Q 471.279 367.721 473 380.5 L 473 451 L 265 451 L 265 380.5 Q 268.023 360.523 281.5 351 Q 289.5 345 301.5 343 Z " /><path fill="rgb(0,0,0)" stroke="rgb(0,0,0)" stroke-width="1" opacity="0" d="M 0 0 L 512 0 L 512 295.5 L 511 295.5 Q 509.679 278.75 500 271 Q 496.783 271.6 496.5 269 Q 489.374 259.626 476 256.5 Q 485.1 249.6 483 231.5 Q 480.25 220.25 472.5 214 L 464 209.5 L 475 209 Q 480.343 140.499 443.5 113 L 440.5 111 Q 418.618 88.882 375.5 88 L 369 92.5 L 368.5 94 L 364.5 89 Q 360 86 350.5 88 Q 311.133 93.328 290 116 Q 257.758 144.323 262 209 L 274 209.5 Q 263.611 212.111 259 220.5 L 257.5 223 Q 254.5 223.5 256 216.5 Q 253.338 206.162 246.5 200 L 241 197 Q 248.064 115.738 204.5 84 Q 177.855 58.145 122.5 61 Q 77.457 62.957 56 88.5 L 52.5 93 Q 45.409 100.409 30.5 100 L 15.5 95 L 14 96.5 L 14 129.5 Q 14.587 165.865 23 193 Q 11.232 195.929 5 205.5 L 0.5 216 L 0 0 Z " /><path fill="rgb(0,0,0)" stroke="rgb(0,0,0)" stroke-width="1" opacity="0" d="M 0.5 233 Q 3.5 245 12.5 251 Q 20.797 257.203 34 258.5 Q 40.145 292.355 61.5 311 Q 72.596 322.233 88 328 Q 89.125 336.319 87.5 337 L 53.5 337 Q 33.523 340.023 24 353.5 Q 18.317 360.317 16 370.5 L 16 450 L 240.5 450 L 241 449.5 L 241 379.5 Q 240.514 363.986 233 355.5 Q 269.636 356.636 284 335.5 Q 295.8 322.3 295.5 297 Q 303.078 309.922 314.5 319 L 333 330.5 L 333 343 L 301.5 343 Q 282.381 346.381 273 359.5 Q 267 367.5 265 379.5 L 265 451 L 473 451 L 473 380.5 Q 469.977 360.523 456.5 351 Q 438.853 338.429 405 343 Q 401.75 332.308 406.5 329 Q 423.061 321.561 434 308.5 L 442.5 296 Q 441.743 326.257 457.5 340 L 460.5 342 Q 476.352 358.922 512 355 L 512 511.5 L 511.5 512 L 0 512 L 0.5 233 Z " /><path fill="rgb(0,0,0)" stroke="rgb(0,0,0)" stroke-width="1" opacity="0" d="M 253.5 238 Q 254.75 249.75 261 256.5 Q 244.174 261.674 235 274.5 Q 227.403 283.903 225 298.5 L 225 346 Q 205.967 332.078 168 337 Q 165.75 327.833 169.5 328 Q 187.509 319.509 200 305.5 Q 218.087 287.117 223 257 Q 243.007 256.913 251 243.5 L 253.5 238 Z " /><path fill="rgb(85,85,85)" stroke="rgb(85,85,85)" stroke-width="1" opacity="0.9882352941176471" d="M 350.5 88 Q 364.2 85.3 368 92.5 L 368.5 94 L 372.5 89 Q 378 86.5 387.5 88 Q 421.915 92.788 442 111 Q 440.875 113.667 443.5 113 Q 480.343 140.499 475 209 Q 445.281 207.146 411.5 208 Q 390.646 204.354 380 190.5 Q 370.073 179.927 368.5 161 Q 365.854 186.354 349.5 198 Q 340.543 205.543 326.5 208 Q 291.645 206.763 262 209 Q 257.758 144.323 290 116 Q 311.133 93.328 350.5 88 Z " /><path fill="rgb(85,85,85)" stroke="rgb(85,85,85)" stroke-width="1" opacity="0.9882352941176471" d="M 78.5 215 Q 86.094 213.906 88 218.5 L 89 220.5 L 89 242.5 L 85.5 247 L 79.5 248 L 74 243.5 L 74 219.5 L 76.5 216 L 78.5 215 Z " /><path fill="rgb(85,85,85)" stroke="rgb(85,85,85)" stroke-width="1" opacity="0.9882352941176471" d="M 172.5 215 Q 180.75 213.75 182 219.5 L 182 243.5 L 178.5 247 L 172.5 248 L 168 244.5 L 167 242.5 L 167 219.5 L 172.5 215 Z " /><path fill="rgb(85,85,85)" stroke="rgb(85,85,85)" stroke-width="1" opacity="0.9882352941176471" d="M 319.5 231 Q 333.75 227.75 337 235.5 Q 340.125 242.875 338 255.5 L 333.5 262 L 326.5 263 L 322 259.5 Q 323.875 250.125 319.5 247 L 315 243.5 L 314 236.5 L 317.5 232 L 319.5 231 Z " /><path fill="rgb(85,85,85)" stroke="rgb(85,85,85)" stroke-width="1" opacity="0.9882352941176471" d="M 405.5 231 Q 418.844 228.156 423 234.5 L 424 241.5 L 419.5 247 L 417 248.5 Q 418.969 258.969 413.5 262 L 406.5 263 L 401 258.5 Q 397.75 250.75 400 237.5 L 402 233 L 405.5 231 Z " /><path fill="rgb(85,85,85)" stroke="rgb(85,85,85)" stroke-width="1" opacity="0.9882352941176471" d="M 258.5 257 L 262.5 257 L 273.5 265 L 285 266 Q 286.97 283.326 295 295.5 L 295 308.5 Q 291.106 332.106 275.5 344 Q 261.418 356.918 232.5 355 Q 230.679 352.25 225 354 L 225 298.5 L 226 293.5 Q 231.428 274.428 245.5 264 L 258.5 257 Z " /><path fill="rgb(85,85,85)" stroke="rgb(85,85,85)" stroke-width="1" opacity="0.9882352941176471" d="M 475.5 257 Q 490.204 260.007 498 269 Q 497.4 272.217 500 272.5 Q 509.142 281.358 512 296.5 L 512 355 Q 475.489 358.586 459 342 Q 460.125 339.333 457.5 340 Q 440.608 326.892 443 294.5 Q 451.25 282.958 453 266 Q 468.65 266.567 475.5 257 Z " /><path fill="rgb(254,173,154)" stroke="rgb(254,173,154)" stroke-width="1" opacity="0.9882352941176471" d="M 57.5 143 L 59 145.5 L 58 145.5 L 57.5 144 L 54 146.5 L 57.5 143 Z " /><path fill="rgb(254,173,154)" stroke="rgb(254,173,154)" stroke-width="1" opacity="0.9882352941176471" d="M 49.5 153 L 48.5 155 L 49.5 153 Z " /><path fill="rgb(254,173,154)" stroke="rgb(254,173,154)" stroke-width="1" opacity="0.9882352941176471" d="M 47.5 156 L 46.5 158 L 47.5 156 Z " /><path fill="rgb(254,173,154)" stroke="rgb(254,173,154)" stroke-width="1" opacity="0.9882352941176471" d="M 67.5 165 L 68.5 167 L 67.5 165 Z " /><path fill="rgb(254,173,154)" stroke="rgb(254,173,154)" stroke-width="1" opacity="0.9882352941176471" d="M 70.5 169 L 79.5 179 L 70.5 169 Z " /><path fill="rgb(254,173,154)" stroke="rgb(254,173,154)" stroke-width="1" opacity="0.9882352941176471" d="M 82.5 180 L 83.5 182 L 82.5 180 Z " /><path fill="rgb(254,173,154)" stroke="rgb(254,173,154)" stroke-width="1" opacity="0.9882352941176471" d="M 360.5 186 L 359.5 188 L 360.5 186 Z " /><path fill="rgb(254,173,154)" stroke="rgb(254,173,154)" stroke-width="1" opacity="0.9882352941176471" d="M 377.5 187 L 378.5 189 L 377.5 187 Z " /><path fill="rgb(254,173,154)" stroke="rgb(254,173,154)" stroke-width="1" opacity="0.9882352941176471" d="M 357.5 190 L 354.5 194 L 357.5 190 Z " /><path fill="rgb(254,173,154)" stroke="rgb(254,173,154)" stroke-width="1" opacity="0.9882352941176471" d="M 109.5 191 L 112 191.5 L 109.5 192 L 109.5 191 Z " /><path fill="rgb(254,173,154)" stroke="rgb(254,173,154)" stroke-width="1" opacity="0.9882352941176471" d="M 27.5 192 Q 34.5 190.5 34 193.5 L 33 194.5 L 33 254.5 L 34 257 Q 14.046 257.307 6 244.5 Q -2.368 235.868 0 216.5 Q 3.656 203.656 13.5 197 Q 18.665 192.665 27.5 192 Z " /><path fill="rgb(254,173,154)" stroke="rgb(254,173,154)" stroke-width="1" opacity="0.9882352941176471" d="M 201.5 192 Q 232.75 188 247 200 Q 255.717 207.375 256 223 L 259 221.5 L 266.5 213 Q 288.146 204.146 322.5 208 L 322.5 209 L 285.5 209 L 284 210.5 L 284 263.5 L 285 266 Q 268.214 265.457 260 256 Q 254.987 249.284 253.5 238 Q 250.656 246.656 243.5 251 Q 236.393 258.421 222 257 Q 218.63 283.368 205 300 Q 202.333 298.875 203 301.5 L 200 306 L 195 309.5 L 193.5 312 Q 182.416 321.916 168 328.5 Q 169.208 357.708 152.5 369 Q 142.5 379 120.5 377 Q 104.26 373.24 96 361.5 Q 85.778 350.272 88 328 Q 101.225 335.654 122.5 336 Q 158.835 328.335 179 304.5 Q 190.517 292.017 197 274.5 Q 182.03 276.97 176 270.5 L 174 263.5 L 178.5 257 Q 185.667 252.667 200.5 256 L 202 254.5 L 202 193.5 L 201.5 192 Z " /><path fill="rgb(254,173,154)" stroke="rgb(254,173,154)" stroke-width="1" opacity="0.9882352941176471" d="M 382.5 193 L 383.5 195 L 382.5 193 Z " /><path fill="rgb(254,173,154)" stroke="rgb(254,173,154)" stroke-width="1" opacity="0.9882352941176471" d="M 352.5 195 L 350.5 198 L 352.5 195 Z " /><path fill="rgb(254,173,154)" stroke="rgb(254,173,154)" stroke-width="1" opacity="0.9882352941176471" d="M 388.5 198 L 389.5 200 L 388.5 198 Z " /><path fill="rgb(254,173,154)" stroke="rgb(254,173,154)" stroke-width="1" opacity="0.9882352941176471" d="M 414.5 208 Q 437.214 210.286 463.5 209 Q 471.893 212.107 477 218.5 Q 484.895 226.105 483 243.5 Q 481.315 251.315 476.5 256 Q 468.514 265.371 453 266 Q 449.357 288.623 438 304 L 435 305.5 L 434 309 Q 431.333 307.875 432 310.5 L 428 313.5 Q 428.437 317.75 424.5 317 Q 416.73 325.73 405 330.5 L 404 358.5 Q 399.75 373.25 388.5 381 Q 380.976 386.476 368.5 387 Q 349.484 385.516 341 373.5 Q 329.296 358.934 333 330 Q 343.014 335.355 358.5 336 Q 388.75 329.25 406 309.5 Q 415.756 298.979 421 285 Q 412.698 285.524 409 280.5 L 408 272.5 L 411.5 268 Q 416 265 425.5 267 L 427 265.5 Q 429.417 244.917 428 220.5 Q 424.25 217.705 427 209 L 414.5 209 L 414.5 208 Z " /><path fill="rgb(254,173,154)" stroke="rgb(254,173,154)" stroke-width="1" opacity="0.9882352941176471" d="M 80.5 214 L 83 214.5 L 80.5 215 L 80.5 214 Z " /><path fill="rgb(254,173,154)" stroke="rgb(254,173,154)" stroke-width="1" opacity="0.9882352941176471" d="M 173.5 214 L 176 214.5 L 173.5 215 L 173.5 214 Z " /><path fill="rgb(254,173,154)" stroke="rgb(254,173,154)" stroke-width="1" opacity="0.9882352941176471" d="M 170.5 215 L 169.5 217 L 170.5 215 Z " /><path fill="rgb(254,173,154)" stroke="rgb(254,173,154)" stroke-width="1" opacity="0.9882352941176471" d="M 86.5 216 L 87.5 218 L 86.5 216 Z " /><path fill="rgb(254,173,154)" stroke="rgb(254,173,154)" stroke-width="1" opacity="0.9882352941176471" d="M 166.5 221 L 167 241.5 L 166 241.5 L 166.5 221 Z " /><path fill="rgb(254,173,154)" stroke="rgb(254,173,154)" stroke-width="1" opacity="0.9882352941176471" d="M 182.5 221 L 183 241.5 L 182 241.5 L 182.5 221 Z " /><path fill="rgb(254,173,154)" stroke="rgb(254,173,154)" stroke-width="1" opacity="0.9882352941176471" d="M 89.5 222 L 90 239.5 L 89 239.5 L 89.5 222 Z " /><path fill="rgb(254,173,154)" stroke="rgb(254,173,154)" stroke-width="1" opacity="0.9882352941176471" d="M 329.5 230 L 332 230.5 L 329.5 231 L 329.5 230 Z " /><path fill="rgb(254,173,154)" stroke="rgb(254,173,154)" stroke-width="1" opacity="0.9882352941176471" d="M 406.5 230 L 409 230.5 L 406.5 231 L 406.5 230 Z " /><path fill="rgb(254,173,154)" stroke="rgb(254,173,154)" stroke-width="1" opacity="0.9882352941176471" d="M 167.5 244 L 169.5 247 L 167.5 244 Z " /><path fill="rgb(254,173,154)" stroke="rgb(254,173,154)" stroke-width="1" opacity="0.9882352941176471" d="M 181.5 244 L 179.5 247 L 181.5 244 Z " /><path fill="rgb(254,173,154)" stroke="rgb(254,173,154)" stroke-width="1" opacity="0.9882352941176471" d="M 315.5 244 L 317.5 247 L 315.5 244 Z " /><path fill="rgb(254,173,154)" stroke="rgb(254,173,154)" stroke-width="1" opacity="0.9882352941176471" d="M 422.5 244 L 420.5 247 L 422.5 244 Z " /><path fill="rgb(254,173,154)" stroke="rgb(254,173,154)" stroke-width="1" opacity="0.9882352941176471" d="M 87.5 245 L 86.5 247 L 87.5 245 Z " /><path fill="rgb(254,173,154)" stroke="rgb(254,173,154)" stroke-width="1" opacity="0.9882352941176471" d="M 418.5 247 L 418 248.5 L 417.5 257 L 417 248.5 L 418.5 247 Z " /><path fill="rgb(254,173,154)" stroke="rgb(254,173,154)" stroke-width="1" opacity="0.9882352941176471" d="M 52.5 256 L 75.5 256 L 80 259.5 L 81 268.5 Q 74.813 278.813 53.5 274 L 47 268.5 Q 45.469 259.469 50.5 257 L 52.5 256 Z " /><path fill="rgb(254,173,154)" stroke="rgb(254,173,154)" stroke-width="1" opacity="0.9882352941176471" d="M 322.5 260 L 323.5 262 L 322.5 260 Z " /><path fill="rgb(254,173,154)" stroke="rgb(254,173,154)" stroke-width="1" opacity="0.9882352941176471" d="M 415.5 260 L 414.5 262 L 415.5 260 Z " /><path fill="rgb(254,173,154)" stroke="rgb(254,173,154)" stroke-width="1" opacity="0.9882352941176471" d="M 403.5 261 L 404.5 263 L 403.5 261 Z " /><path fill="rgb(254,173,154)" stroke="rgb(254,173,154)" stroke-width="1" opacity="0.9882352941176471" d="M 105.5 262 Q 113.4 261.1 115 266.5 Q 114.604 277.396 121.5 281 Q 124.667 283.333 131.5 282 L 138 277.5 Q 138.434 267.434 144.5 263 L 150.5 262 L 155 265.5 Q 157.333 268.667 156 275.5 Q 153.071 288.071 143.5 294 Q 136.5 300 121.5 298 Q 111.867 295.133 106 288.5 Q 98.333 282.167 100 266.5 L 105.5 262 Z " /><path fill="rgb(254,173,154)" stroke="rgb(254,173,154)" stroke-width="1" opacity="0.9882352941176471" d="M 328.5 263 L 331 263.5 L 328.5 264 L 328.5 263 Z " /><path fill="rgb(254,173,154)" stroke="rgb(254,173,154)" stroke-width="1" opacity="0.9882352941176471" d="M 407.5 263 L 410 263.5 L 407.5 264 L 407.5 263 Z " /><path fill="rgb(254,173,154)" stroke="rgb(254,173,154)" stroke-width="1" opacity="0.9882352941176471" d="M 301.5 267 L 324.5 267 L 328 269.5 Q 331.2 271.8 330 278.5 L 326.5 283 Q 318.929 287.429 304.5 285 L 298 281.5 Q 295.333 279.167 296 273.5 L 301.5 267 Z " /><path fill="rgb(254,173,154)" stroke="rgb(254,173,154)" stroke-width="1" opacity="0.9882352941176471" d="M 349.5 271 Q 355.714 270.429 358 273 Q 361.5 277.625 362 286 Q 364.542 289.167 372.5 288 Q 379.375 283.375 380.5 273 Q 382.833 270.333 388.5 271 L 394 275.5 L 395 284.5 Q 392.396 295.396 384.5 301 Q 378.406 307.406 364.5 306 Q 352.643 303.357 347 294.5 Q 342 289 343 277.5 L 347.5 272 L 349.5 271 Z " /><path fill="rgb(254,173,154)" stroke="rgb(254,173,154)" stroke-width="1" opacity="0.9882352941176471" d="M 59.5 308 L 60.5 310 L 59.5 308 Z " /><path fill="rgb(254,205,190)" stroke="rgb(254,205,190)" stroke-width="1" opacity="0.996078431372549" d="M 57.5 144 Q 63.532 166.468 79.5 179 Q 91.196 188.804 109.5 192 L 200.5 192 L 202 193.5 L 202 254.5 L 200.5 256 Q 181 251.5 175 260.5 L 174 265.5 L 177.5 272 Q 183.927 276.573 197 274.5 Q 188.001 298.001 170.5 313 Q 150.841 332.341 115.5 336 Q 80.62 330.665 61 311 L 59.5 308 L 57 306.5 Q 38.829 288.171 33 257.5 L 34 255.5 L 33 254.5 L 33 194.5 Q 38.525 162.525 57.5 144 Z M 81 214 L 78 215 L 73 221 L 73 243 L 78 248 L 87 247 L 90 240 Q 92 225 88 218 L 81 214 Z M 174 214 L 171 215 L 166 222 Q 163 236 167 245 L 172 248 L 180 247 L 183 242 Q 185 227 182 219 Q 180 214 174 214 Z M 53 256 L 51 257 Q 45 259 47 269 L 54 274 Q 75 279 81 269 L 80 260 L 76 256 L 53 256 Z M 106 262 L 100 267 Q 98 282 106 289 Q 112 295 122 298 Q 137 300 144 294 Q 153 288 156 276 Q 157 269 155 266 L 151 262 L 145 263 Q 138 267 138 278 L 132 282 Q 125 283 122 281 Q 115 277 115 267 Q 113 261 106 262 Z " /><path fill="rgb(254,205,190)" stroke="rgb(254,205,190)" stroke-width="1" opacity="0.996078431372549" d="M 368.5 166 Q 372 184.5 383.5 195 Q 397.132 210.808 427 209 Q 429.308 229.038 428 254.5 Q 429.875 263.875 425.5 267 Q 412.875 264.375 409 270.5 L 408 278.5 L 411.5 283 L 421 285 Q 414.127 302.938 400.5 315 Q 383.972 332.472 353.5 336 Q 319.425 329.575 302 306.5 Q 288.638 289.362 284 263.5 L 284 210.5 L 285.5 209 Q 313.346 211.846 333.5 207 Q 348.904 201.904 358 190.5 Q 366.313 181.313 368.5 166 Z M 321 230 L 316 232 L 313 240 L 315 245 L 319 247 L 320 249 Q 319 257 322 261 L 329 264 L 335 262 L 338 258 Q 342 242 337 235 Q 333 228 321 230 Z M 407 230 L 405 231 L 400 237 Q 397 252 401 260 L 408 264 L 415 262 Q 420 259 418 249 L 421 247 Q 426 245 424 236 Q 421 227 407 230 Z M 302 267 L 296 274 Q 295 279 298 282 L 305 285 Q 319 287 327 283 L 330 279 Q 331 272 328 270 L 325 267 L 302 267 Z M 350 271 L 348 272 L 343 278 Q 342 289 347 295 Q 353 303 365 306 Q 378 307 385 301 Q 392 295 395 285 L 394 276 L 389 271 Q 383 270 381 273 Q 379 283 373 288 Q 365 289 362 286 Q 361 278 358 273 Q 356 270 350 271 Z " /><path fill="rgb(254,205,190)" stroke="rgb(254,205,190)" stroke-width="1" opacity="0.996078431372549" d="M 436.5 304 L 435.5 306 L 436.5 304 Z " /><path fill="rgb(254,205,190)" stroke="rgb(254,205,190)" stroke-width="1" opacity="0.996078431372549" d="M 198.5 306 L 195.5 310 L 198.5 306 Z " /><path fill="rgb(254,205,190)" stroke="rgb(254,205,190)" stroke-width="1" opacity="0.996078431372549" d="M 429.5 312 L 428.5 314 L 429.5 312 Z " /><path fill="rgb(254,205,190)" stroke="rgb(254,205,190)" stroke-width="1" opacity="0.996078431372549" d="M 188.5 315 L 187.5 317 L 188.5 315 Z " /><path fill="rgb(254,205,190)" stroke="rgb(254,205,190)" stroke-width="1" opacity="0.996078431372549" d="M 184.5 318 L 183.5 320 L 184.5 318 Z " /><path fill="rgb(49,132,206)" stroke="rgb(49,132,206)" stroke-width="1" opacity="0.984313725490196" d="M 53.5 337 L 87.5 337 Q 88.625 337.125 88 342.5 Q 91.75 360.75 104.5 370 Q 114.217 379.283 135.5 377 Q 150.997 373.497 159 362.5 Q 167.299 353.089 168 337 Q 205.967 332.078 225 346 Q 220.821 357.111 231.5 354 Q 240.479 362.521 241 379.5 L 241 450 L 16 450 L 16 370.5 Q 19.883 354.383 31.5 346 Q 39.788 338.788 53.5 337 Z " /></svg>