<svg width="512" height="512" version="1.1" xmlns="http://www.w3.org/2000/svg" desc="Created with imagetracer.js version 1.2.6" ><path fill="rgb(232,128,108)" stroke="rgb(232,128,108)" stroke-width="1" opacity="0.984313725490196" d="M 87.5 56 Q 112.542 53.458 123 65.5 Q 136.792 76.208 136 101.5 Q 132.498 118.998 120.5 128 Q 110.716 137.216 90.5 136 Q 73.67 132.33 64 121.5 Q 53.28 111.22 56 87.5 Q 59.643 72.143 70.5 64 Q 77.09 58.09 87.5 56 Z " /><path fill="rgb(232,128,108)" stroke="rgb(232,128,108)" stroke-width="1" opacity="0.984313725490196" d="M 430.5 102 L 431.5 104 L 430.5 102 Z " /><path fill="rgb(232,128,108)" stroke="rgb(232,128,108)" stroke-width="1" opacity="0.984313725490196" d="M 359.5 273 L 391 303.5 L 329.5 304 L 359.5 273 Z " /><path fill="rgb(0,0,0)" stroke="rgb(0,0,0)" stroke-width="1" opacity="0" d="M 0 0 L 512 0 L 512 512 L 0 512 L 0 0 Z M 88 16 L 88 32 L 104 32 L 104 16 L 88 16 Z M 235 24 Q 167 32 124 65 Q 116 58 105 56 Q 81 53 71 64 Q 60 72 56 88 Q 54 112 65 123 Q 32 166 24 235 Q 20 297 38 339 Q 56 386 89 419 Q 140 475 235 488 Q 295 491 336 475 Q 385 457 419 422 Q 419 419 422 420 Q 475 370 488 278 Q 492 217 475 177 Q 457 130 427 97 L 472 73 Q 472 65 467 64 Q 440 25 376 24 L 358 46 Q 311 20 235 24 Z M 46 34 L 34 47 L 51 62 L 62 50 L 46 34 Z M 16 88 L 16 104 L 32 104 L 32 88 L 16 88 Z " /><path fill="rgb(211,210,176)" stroke="rgb(211,210,176)" stroke-width="1" opacity="0.9921568627450981" d="M 88 16 L 104 16 L 104 32 L 88 32 L 88 16 Z " /><path fill="rgb(211,210,176)" stroke="rgb(211,210,176)" stroke-width="1" opacity="0.9921568627450981" d="M 239.5 24 L 256 24 L 256 48 L 304.5 48 Q 313.528 48.972 317 55.5 Q 322.318 64.344 320 80 Q 335.023 78.26 341 86.5 Q 343.958 90.542 344 97.5 Q 342.75 104.25 338.5 108 L 330.5 112 L 293.5 112 L 294 110.5 L 303 91 L 288 85 L 276 111 Q 269.2 109.95 266 103.5 Q 261.75 94.639 264 80 L 236.5 80 Q 229.321 78.179 226 72.5 Q 223 68.5 224 60.5 L 227 54.5 L 225.5 54 Q 172.35 67.35 136.5 98 Q 135.953 76.047 123 66.5 Q 143.537 48.402 173 40 L 173.5 38 Q 175 40.5 176.5 37 Q 192.667 29.167 215.5 28 L 218.5 26 L 220.5 27 L 221.5 26 L 238.5 25 L 239.5 24 Z " /><path fill="rgb(211,210,176)" stroke="rgb(211,210,176)" stroke-width="1" opacity="0.9921568627450981" d="M 377 24 Q 393.59 23.025 406.5 27 L 408.5 27 Q 444.127 35.873 464 60.5 L 472 71.5 L 400 111 L 416 143.5 L 325.5 197 Q 322.333 200.833 314.5 200 Q 299.55 198.45 289 192.5 Q 297.424 192.424 302.5 189 L 374.5 147 L 384 139.5 Q 387.9 135.4 387 126.5 Q 380.594 120.406 382 106.5 L 387.5 98 L 437 70.5 Q 402.975 62.525 385 38.5 L 377 24 Z " /><path fill="rgb(211,210,176)" stroke="rgb(211,210,176)" stroke-width="1" opacity="0.9921568627450981" d="M 45.5 34 L 62 49.5 L 50.5 62 L 34 46.5 L 45.5 34 Z " /><path fill="rgb(211,210,176)" stroke="rgb(211,210,176)" stroke-width="1" opacity="0.9921568627450981" d="M 16 88 L 32 88 L 32 104 L 16 104 L 16 88 Z " /><path fill="rgb(211,210,176)" stroke="rgb(211,210,176)" stroke-width="1" opacity="0.9921568627450981" d="M 65 123 Q 75.369 135.411 98 136.5 Q 80.447 156.294 70 182 Q 53.167 195.833 30.5 205 L 30 201.5 Q 32.995 186.495 39 174.5 Q 36.5 173 40 171.5 L 44 162.5 Q 41.5 161 45 159.5 Q 53.482 139.325 65 123 Z " /><path fill="rgb(211,210,176)" stroke="rgb(211,210,176)" stroke-width="1" opacity="0.9921568627450981" d="M 26 224 L 55 224.5 Q 45.489 254.489 48 296.5 L 49 297.5 Q 48.357 309.643 51 318.5 L 48 325 L 53 327.5 Q 66.626 391.374 104 431.5 L 101 429.5 L 99.5 427 L 91 421 L 83.5 411 L 81 409.5 L 79 406.5 L 77 403 L 74 401.5 L 70 394 Q 67.333 395.125 68 392.5 Q 59 383.625 55 371 Q 52.333 372.125 53 369.5 Q 33.817 337.183 26 293.5 L 27 291.5 L 25 285.5 L 25 283.5 Q 22.625 263.375 24 239.5 L 25 238.5 Q 24.357 229.536 26 224 Z " /><path fill="rgb(211,210,176)" stroke="rgb(211,210,176)" stroke-width="1" opacity="0.9921568627450981" d="M 147.5 307 L 146.5 309 L 147.5 307 Z " /><path fill="rgb(211,210,176)" stroke="rgb(211,210,176)" stroke-width="1" opacity="0.9921568627450981" d="M 172.5 307 L 173.5 309 L 172.5 307 Z " /><path fill="rgb(211,210,176)" stroke="rgb(211,210,176)" stroke-width="1" opacity="0.9921568627450981" d="M 143.5 310 L 142.5 312 L 143.5 310 Z " /><path fill="rgb(211,210,176)" stroke="rgb(211,210,176)" stroke-width="1" opacity="0.9921568627450981" d="M 176.5 310 L 177.5 312 L 176.5 310 Z " /><path fill="rgb(211,210,176)" stroke="rgb(211,210,176)" stroke-width="1" opacity="0.9921568627450981" d="M 140.5 314 L 139.5 316 L 140.5 314 Z " /><path fill="rgb(211,210,176)" stroke="rgb(211,210,176)" stroke-width="1" opacity="0.9921568627450981" d="M 179.5 314 L 180.5 316 L 179.5 314 Z " /><path fill="rgb(211,210,176)" stroke="rgb(211,210,176)" stroke-width="1" opacity="0.9921568627450981" d="M 135.5 376 L 134.5 378 L 135.5 376 Z " /><path fill="rgb(211,210,176)" stroke="rgb(211,210,176)" stroke-width="1" opacity="0.9921568627450981" d="M 184.5 376 L 185.5 378 L 184.5 376 Z " /><path fill="rgb(211,210,176)" stroke="rgb(211,210,176)" stroke-width="1" opacity="0.9921568627450981" d="M 130.5 381 L 128.5 384 L 130.5 381 Z " /><path fill="rgb(211,210,176)" stroke="rgb(211,210,176)" stroke-width="1" opacity="0.9921568627450981" d="M 190.5 382 L 192.5 385 L 190.5 382 Z " /><path fill="rgb(211,210,176)" stroke="rgb(211,210,176)" stroke-width="1" opacity="0.9921568627450981" d="M 120.5 401 L 121 404.5 L 120 404.5 L 120.5 401 Z " /><path fill="rgb(211,210,176)" stroke="rgb(211,210,176)" stroke-width="1" opacity="0.9921568627450981" d="M 199.5 401 L 200 404.5 L 199 404.5 L 199.5 401 Z " /><path fill="rgb(211,210,176)" stroke="rgb(211,210,176)" stroke-width="1" opacity="0.9921568627450981" d="M 120.5 411 L 121 414.5 L 120 414.5 L 120.5 411 Z " /><path fill="rgb(211,210,176)" stroke="rgb(211,210,176)" stroke-width="1" opacity="0.9921568627450981" d="M 199.5 411 L 200 414.5 L 199 414.5 L 199.5 411 Z " /><path fill="rgb(211,210,176)" stroke="rgb(211,210,176)" stroke-width="1" opacity="0.9921568627450981" d="M 128.5 432 L 129.5 434 L 128.5 432 Z " /><path fill="rgb(211,210,176)" stroke="rgb(211,210,176)" stroke-width="1" opacity="0.9921568627450981" d="M 191.5 432 L 189.5 435 L 191.5 432 Z " /><path fill="rgb(211,210,176)" stroke="rgb(211,210,176)" stroke-width="1" opacity="0.9921568627450981" d="M 133.5 437 L 135.5 440 L 133.5 437 Z " /><path fill="rgb(211,210,176)" stroke="rgb(211,210,176)" stroke-width="1" opacity="0.9921568627450981" d="M 186.5 437 L 184.5 440 L 186.5 437 Z " /><path fill="rgb(211,210,176)" stroke="rgb(211,210,176)" stroke-width="1" opacity="0.9921568627450981" d="M 153.5 447 L 157 447.5 L 153.5 448 L 153.5 447 Z " /><path fill="rgb(211,210,176)" stroke="rgb(211,210,176)" stroke-width="1" opacity="0.9921568627450981" d="M 163.5 447 L 167 447.5 L 163.5 448 L 163.5 447 Z " /><path fill="rgb(236,179,71)" stroke="rgb(236,179,71)" stroke-width="1" opacity="0.9921568627450981" d="M 234.5 24 L 239 24.5 L 234.5 25 L 234.5 24 Z " /><path fill="rgb(236,179,71)" stroke="rgb(236,179,71)" stroke-width="1" opacity="0.9921568627450981" d="M 226.5 25 L 229 25.5 L 226.5 26 L 226.5 25 Z " /><path fill="rgb(236,179,71)" stroke="rgb(236,179,71)" stroke-width="1" opacity="0.9921568627450981" d="M 213.5 27 L 216 27.5 L 213.5 28 L 213.5 27 Z " /><path fill="rgb(236,179,71)" stroke="rgb(236,179,71)" stroke-width="1" opacity="0.9921568627450981" d="M 161.5 43 L 163 43.5 L 159.5 45 L 159.5 44 L 161.5 43 Z " /><path fill="rgb(236,179,71)" stroke="rgb(236,179,71)" stroke-width="1" opacity="0.9921568627450981" d="M 143.5 52 L 142.5 54 L 143.5 52 Z " /><path fill="rgb(236,179,71)" stroke="rgb(236,179,71)" stroke-width="1" opacity="0.9921568627450981" d="M 225.5 54 L 227 54.5 Q 222.833 58.333 224 67.5 Q 225.821 74.679 231.5 78 Q 240.23 82.857 256 80 L 256 192 L 200 192 L 200 168 L 226.5 168 L 231 164.5 L 232 162.5 L 232 136 L 216 136 L 216 152 L 200 152 L 200 120 L 184 120 L 184 191.5 L 183.5 192 L 162.5 192 L 148.5 187 Q 138.661 176.339 124.5 170 Q 113.636 166.364 97.5 168 Q 80 170.5 70.5 181 L 71 179.5 Q 81.715 154.715 98.5 136 Q 118.538 133.537 128 120.5 Q 134.986 112.486 136 98.5 L 140.5 94 Q 175.695 66.695 225.5 54 Z " /><path fill="rgb(236,179,71)" stroke="rgb(236,179,71)" stroke-width="1" opacity="0.9921568627450981" d="M 136.5 56 L 135.5 58 L 136.5 56 Z " /><path fill="rgb(236,179,71)" stroke="rgb(236,179,71)" stroke-width="1" opacity="0.9921568627450981" d="M 130.5 60 L 129.5 62 L 127.5 63 L 128.5 61 L 130.5 60 Z " /><path fill="rgb(236,179,71)" stroke="rgb(236,179,71)" stroke-width="1" opacity="0.9921568627450981" d="M 125.5 63 L 123.5 66 L 125.5 63 Z " /><path fill="rgb(236,179,71)" stroke="rgb(236,179,71)" stroke-width="1" opacity="0.9921568627450981" d="M 288 85 L 303 91 L 283 132 Q 296.091 132.778 303 140.5 L 304 145.5 Q 294.563 162.562 278.5 173 L 267 162.5 L 281 148.5 L 281 147 Q 270.6 146.079 265 139.5 L 264 134.5 L 288 85 Z " /><path fill="rgb(236,179,71)" stroke="rgb(236,179,71)" stroke-width="1" opacity="0.9921568627450981" d="M 64.5 124 L 63.5 126 L 64.5 124 Z " /><path fill="rgb(236,179,71)" stroke="rgb(236,179,71)" stroke-width="1" opacity="0.9921568627450981" d="M 62.5 127 L 61.5 129 L 62.5 127 Z " /><path fill="rgb(236,179,71)" stroke="rgb(236,179,71)" stroke-width="1" opacity="0.9921568627450981" d="M 59.5 132 L 58.5 134 L 59.5 132 Z " /><path fill="rgb(236,179,71)" stroke="rgb(236,179,71)" stroke-width="1" opacity="0.9921568627450981" d="M 57.5 135 L 56.5 137 L 57.5 135 Z " /><path fill="rgb(236,179,71)" stroke="rgb(236,179,71)" stroke-width="1" opacity="0.9921568627450981" d="M 53.5 142 L 52.5 144 L 53.5 142 Z " /><path fill="rgb(236,179,71)" stroke="rgb(236,179,71)" stroke-width="1" opacity="0.9921568627450981" d="M 68.5 182 L 67.5 184 L 68.5 182 Z " /><path fill="rgb(236,179,71)" stroke="rgb(236,179,71)" stroke-width="1" opacity="0.9921568627450981" d="M 64.5 185 L 63.5 187 L 64.5 185 Z " /><path fill="rgb(236,179,71)" stroke="rgb(236,179,71)" stroke-width="1" opacity="0.9921568627450981" d="M 60.5 188 L 59.5 190 L 60.5 188 Z " /><path fill="rgb(236,179,71)" stroke="rgb(236,179,71)" stroke-width="1" opacity="0.9921568627450981" d="M 56.5 191 L 55.5 193 L 56.5 191 Z " /><path fill="rgb(236,179,71)" stroke="rgb(236,179,71)" stroke-width="1" opacity="0.9921568627450981" d="M 29.5 203 L 30 206.5 L 29 206.5 L 29.5 203 Z " /><path fill="rgb(236,179,71)" stroke="rgb(236,179,71)" stroke-width="1" opacity="0.9921568627450981" d="M 28.5 208 L 29 211.5 L 28 211.5 L 28.5 208 Z " /><path fill="rgb(236,179,71)" stroke="rgb(236,179,71)" stroke-width="1" opacity="0.9921568627450981" d="M 27.5 213 L 28 217.5 L 27 217.5 L 27.5 213 Z " /><path fill="rgb(236,179,71)" stroke="rgb(236,179,71)" stroke-width="1" opacity="0.9921568627450981" d="M 26.5 219 L 27 223.5 L 26 223.5 L 26.5 219 Z " /><path fill="rgb(236,179,71)" stroke="rgb(236,179,71)" stroke-width="1" opacity="0.9921568627450981" d="M 55.5 224 L 255.5 224 L 256 224.5 L 256 252.5 L 255 252.5 L 248 237 L 233 243 L 243 263.5 L 244 273.5 Q 234.583 283.583 236 304.5 L 248 331 L 255.5 328 L 256 488 Q 154.371 483.891 102 429.5 L 101.5 428 Q 100.25 430.25 99 427.5 Q 101.5 426 98 424.5 Q 65.443 386.057 53 327.5 L 54.5 328 L 62.5 331 Q 76.318 318.318 75 290.5 Q 67.383 282.617 67 267.5 L 78 245.5 L 78 243 L 63 237 L 52 261.5 L 51 275.5 Q 53.301 286.199 59 293.5 L 59 302.5 L 51.5 317 Q 45.594 294.406 48 263.5 Q 49.074 241.074 55.5 224 Z M 103 229 Q 95 241 91 258 Q 90 276 99 286 L 99 295 L 88 317 L 103 323 Q 111 312 115 297 Q 117 275 107 266 L 108 257 L 118 238 L 118 235 L 103 229 Z M 206 229 L 193 235 L 204 259 L 204 266 L 196 284 L 196 297 L 208 323 L 223 317 L 212 294 L 212 286 L 220 269 L 220 256 L 208 231 Q 209 228 206 229 Z M 156 304 L 144 310 Q 138 315 136 324 L 136 376 Q 124 384 120 402 Q 119 422 128 433 Q 136 445 154 448 Q 174 449 185 440 Q 197 432 200 415 Q 201 386 184 376 L 184 324 L 178 312 Q 172 303 156 304 Z " /><path fill="rgb(236,179,71)" stroke="rgb(236,179,71)" stroke-width="1" opacity="0.9921568627450981" d="M 25.5 226 L 26 228.5 L 25 228.5 L 25.5 226 Z " /><path fill="rgb(236,179,71)" stroke="rgb(236,179,71)" stroke-width="1" opacity="0.9921568627450981" d="M 24.5 234 L 25 238.5 L 24 238.5 L 24.5 234 Z " /><path fill="rgb(236,179,71)" stroke="rgb(236,179,71)" stroke-width="1" opacity="0.9921568627450981" d="M 24.5 273 L 25 277.5 L 24 277.5 L 24.5 273 Z " /><path fill="rgb(236,179,71)" stroke="rgb(236,179,71)" stroke-width="1" opacity="0.9921568627450981" d="M 255.5 287 L 256 308.5 L 255 308.5 Q 250.8 303.7 252 293.5 L 255.5 287 Z " /><path fill="rgb(236,179,71)" stroke="rgb(236,179,71)" stroke-width="1" opacity="0.9921568627450981" d="M 56.5 375 L 57.5 377 L 56.5 375 Z " /><path fill="rgb(236,179,71)" stroke="rgb(236,179,71)" stroke-width="1" opacity="0.9921568627450981" d="M 63.5 386 L 64.5 388 L 63.5 386 Z " /><path fill="rgb(236,179,71)" stroke="rgb(236,179,71)" stroke-width="1" opacity="0.9921568627450981" d="M 83.5 411 L 84.5 413 L 83.5 411 Z " /><path fill="rgb(175,104,53)" stroke="rgb(175,104,53)" stroke-width="1" opacity="0.996078431372549" d="M 184 120 L 200 120 L 200 152 L 216 152 L 216 136 L 232 136 L 232 162.5 L 228.5 167 L 226.5 168 L 200 168 L 200 192 L 256 192 L 256 224 L 27.5 224 Q 26.375 223.875 27 218.5 L 30 205 Q 61.986 192.828 85.5 171 Q 97.2 166.2 115.5 168 Q 125.742 169.258 132.5 174 Q 141.07 182.93 152.5 189 Q 164.609 194.538 184 192 L 184 120 Z " /><path fill="rgb(175,104,53)" stroke="rgb(175,104,53)" stroke-width="1" opacity="0.996078431372549" d="M 300.5 137 L 302.5 140 L 300.5 137 Z " /><path fill="rgb(175,104,53)" stroke="rgb(175,104,53)" stroke-width="1" opacity="0.996078431372549" d="M 265.5 140 L 267.5 143 L 265.5 140 Z " /><path fill="rgb(175,104,53)" stroke="rgb(175,104,53)" stroke-width="1" opacity="0.996078431372549" d="M 280.5 148 L 267.5 162 L 280.5 148 Z " /><path fill="rgb(175,104,53)" stroke="rgb(175,104,53)" stroke-width="1" opacity="0.996078431372549" d="M 302.5 148 L 301.5 150 L 302.5 148 Z " /><path fill="rgb(175,104,53)" stroke="rgb(175,104,53)" stroke-width="1" opacity="0.996078431372549" d="M 267.5 163 L 276.5 173 L 267.5 163 Z " /><path fill="rgb(175,104,53)" stroke="rgb(175,104,53)" stroke-width="1" opacity="0.996078431372549" d="M 104.5 229 L 118 235 L 108 255.5 L 107 265.5 Q 117.24 274.76 115 296.5 L 103 323 L 88 316.5 Q 99.378 306.378 99 284.5 Q 90.042 275.958 91 257.5 Q 95.098 240.598 104.5 229 Z " /><path fill="rgb(175,104,53)" stroke="rgb(175,104,53)" stroke-width="1" opacity="0.996078431372549" d="M 205.5 229 Q 208.833 227.875 208 230.5 Q 220.863 242.637 220 268.5 L 212 285.5 L 212 293.5 L 223 317 L 208 323 L 197 299.5 L 196 283.5 L 204 266.5 L 204 258.5 L 193 235 L 205.5 229 Z " /><path fill="rgb(175,104,53)" stroke="rgb(175,104,53)" stroke-width="1" opacity="0.996078431372549" d="M 64.5 237 L 78 243 L 68 263.5 L 67 273.5 Q 77.24 282.76 75 304.5 L 63 331 L 49 325 L 49 322.5 L 59 302.5 L 59 292.5 Q 50.042 283.958 51 265.5 Q 55.098 248.598 64.5 237 Z " /><path fill="rgb(175,104,53)" stroke="rgb(175,104,53)" stroke-width="1" opacity="0.996078431372549" d="M 245.5 237 Q 248.833 235.875 248 238.5 Q 260.635 250.365 260 275.5 Q 257.699 286.199 252 293.5 L 252 301.5 L 263 325 L 248 331 L 237 307.5 L 236 291.5 L 244 274.5 L 244 266.5 L 233 243 L 245.5 237 Z " /><path fill="rgb(175,104,53)" stroke="rgb(175,104,53)" stroke-width="1" opacity="0.996078431372549" d="M 359.5 272 L 408.5 272 L 440 303.5 L 391.5 304 L 359.5 273 L 328 303.5 L 359.5 272 Z " /><path fill="rgb(175,104,53)" stroke="rgb(175,104,53)" stroke-width="1" opacity="0.996078431372549" d="M 152 328 L 167.5 328 L 168 328.5 L 168 394.5 L 169.5 395 Q 176.182 399.318 176 410.5 Q 174.45 417.45 169.5 421 Q 165.75 424.75 157.5 424 Q 150.55 422.45 147 417.5 Q 143.25 413.75 144 405.5 Q 145.55 398.55 150.5 395 L 152 394.5 L 152 328 Z " /><path fill="rgb(40,107,143)" stroke="rgb(40,107,143)" stroke-width="1" opacity="0.996078431372549" d="M 256 24 Q 317.065 24.269 357 46 L 356 49.5 L 332 80 L 320 80 L 320 60.5 L 313.5 51 L 307.5 48 L 256 48 L 256 24 Z " /><path fill="rgb(40,107,143)" stroke="rgb(40,107,143)" stroke-width="1" opacity="0.996078431372549" d="M 256 80 L 264 80 L 264 98.5 Q 265.55 105.45 270.5 109 L 275 111.5 L 264 133.5 L 264 138.5 L 267.5 143 L 281 147.5 L 267 161.5 L 267 163.5 L 276.5 173 L 278.5 173 L 303 148.5 L 304 141.5 L 300.5 137 L 284 132 L 284 129.5 L 293.5 112 L 315.5 112 L 317 113.5 L 336 151.5 L 288 191.5 Q 299.54 200.46 320.5 200 L 416 143.5 L 400 112.5 L 426.5 98 Q 458.248 130.252 475 177.5 L 474 177.5 L 473.5 176 L 396.5 176 L 387 182.5 Q 382.833 186.333 384 195.5 L 390.5 205 L 397.5 208 L 484 208 Q 490.774 237.379 488 277.5 Q 481.062 337.062 454.5 377 Q 456.333 374.5 451.5 372 L 426.5 354 Q 421.125 350.875 411.5 352 Q 399.223 355.31 392 363 L 392 304 L 439.5 304 L 408.5 272 L 359.5 272 L 328 303.5 L 344 304 L 344 353.5 L 342.5 354 Q 335.325 366.325 314.5 365 Q 303.482 361.518 297.5 353 Q 293 349.5 284.5 350 Q 266.246 354.746 256.5 368 L 256 328.5 L 263 325 Q 252.023 313.261 256 285.5 Q 261.571 278.571 260 264.5 L 256 254.5 L 256 80 Z " /><path fill="rgb(40,107,143)" stroke="rgb(40,107,143)" stroke-width="1" opacity="0.996078431372549" d="M 363.5 369 L 371 382.5 L 355.5 391 L 349 376 L 363.5 369 Z " /><path fill="rgb(40,107,143)" stroke="rgb(40,107,143)" stroke-width="1" opacity="0.996078431372549" d="M 450.5 383 L 449.5 385 L 450.5 383 Z " /><path fill="rgb(40,107,143)" stroke="rgb(40,107,143)" stroke-width="1" opacity="0.996078431372549" d="M 272 384 L 288 384 L 288 400 L 272 400 L 272 384 Z " /><path fill="rgb(40,107,143)" stroke="rgb(40,107,143)" stroke-width="1" opacity="0.996078431372549" d="M 448.5 386 L 446.5 389 L 448.5 386 Z " /><path fill="rgb(40,107,143)" stroke="rgb(40,107,143)" stroke-width="1" opacity="0.996078431372549" d="M 445.5 390 L 444.5 392 L 445.5 390 Z " /><path fill="rgb(40,107,143)" stroke="rgb(40,107,143)" stroke-width="1" opacity="0.996078431372549" d="M 443.5 393 L 441.5 396 L 443.5 393 Z " /><path fill="rgb(40,107,143)" stroke="rgb(40,107,143)" stroke-width="1" opacity="0.996078431372549" d="M 396.5 406 Q 416.414 405.086 424 416.5 Q 369.474 482.25 256 488 L 256 424 L 300.5 424 Q 316.579 419.079 326.5 408 L 341.5 407 L 361.5 417 L 374.5 417 L 396.5 406 Z " /><path fill="rgb(208,221,223)" stroke="rgb(208,221,223)" stroke-width="1" opacity="0.996078431372549" d="M 375.5 24 Q 377.75 23.25 377 25.5 Q 385.274 42.226 399.5 53 Q 414.514 65.486 437 70.5 Q 408.331 82.831 385 100.5 Q 380.5 105 382 115.5 Q 387.938 120.563 387 132.5 Q 385.45 139.45 380.5 143 L 302.5 189 Q 298.182 192.682 289.5 192 L 290.5 190 L 336 152.5 L 317 112 Q 333.299 114.567 340 106.5 Q 344 102.5 344 94.5 Q 343.068 87.432 338.5 84 L 331 80.5 L 358 47.5 Q 354.5 45 361 42.5 L 375.5 24 Z " /><path fill="rgb(208,221,223)" stroke="rgb(208,221,223)" stroke-width="1" opacity="0.996078431372549" d="M 390.5 24 L 397 24.5 L 390.5 25 L 390.5 24 Z " /><path fill="rgb(208,221,223)" stroke="rgb(208,221,223)" stroke-width="1" opacity="0.996078431372549" d="M 399.5 25 L 403 25.5 L 399.5 26 L 399.5 25 Z " /><path fill="rgb(208,221,223)" stroke="rgb(208,221,223)" stroke-width="1" opacity="0.996078431372549" d="M 437.5 38 L 438.5 40 L 437.5 38 Z " /><path fill="rgb(208,221,223)" stroke="rgb(208,221,223)" stroke-width="1" opacity="0.996078431372549" d="M 446.5 44 L 447.5 46 L 446.5 44 Z " /><path fill="rgb(208,221,223)" stroke="rgb(208,221,223)" stroke-width="1" opacity="0.996078431372549" d="M 450.5 47 L 454.5 52 L 450.5 47 Z " /><path fill="rgb(208,221,223)" stroke="rgb(208,221,223)" stroke-width="1" opacity="0.996078431372549" d="M 464.5 61 L 465.5 63 L 464.5 61 Z " /><path fill="rgb(208,221,223)" stroke="rgb(208,221,223)" stroke-width="1" opacity="0.996078431372549" d="M 469.5 73 L 468.5 75 L 464.5 77 L 465.5 75 L 469.5 73 Z " /><path fill="rgb(208,221,223)" stroke="rgb(208,221,223)" stroke-width="1" opacity="0.996078431372549" d="M 460.5 78 L 459.5 80 L 455.5 82 L 456.5 80 L 460.5 78 Z " /><path fill="rgb(208,221,223)" stroke="rgb(208,221,223)" stroke-width="1" opacity="0.996078431372549" d="M 451.5 83 L 450.5 85 L 446.5 87 L 447.5 85 L 451.5 83 Z " /><path fill="rgb(208,221,223)" stroke="rgb(208,221,223)" stroke-width="1" opacity="0.996078431372549" d="M 442.5 88 L 441.5 90 L 437.5 92 L 438.5 90 L 442.5 88 Z " /><path fill="rgb(208,221,223)" stroke="rgb(208,221,223)" stroke-width="1" opacity="0.996078431372549" d="M 433.5 93 L 432.5 95 L 428.5 97 L 429.5 95 L 433.5 93 Z " /><path fill="rgb(208,221,223)" stroke="rgb(208,221,223)" stroke-width="1" opacity="0.996078431372549" d="M 157.5 304 Q 172.874 304.126 179 313.5 L 184 325.5 L 184 376.5 L 185.5 378 L 190 381.5 Q 199.798 391.202 200 410.5 Q 198.148 428.148 187.5 437 Q 177.771 447.771 157.5 448 Q 138.984 446.016 130 434.5 Q 120.202 424.798 120 405.5 Q 122.214 387.214 133.5 378 L 136 376.5 L 136 325.5 Q 137.964 314.464 145.5 309 L 157.5 304 Z M 152 328 L 152 394 L 148 396 L 144 404 Q 143 416 148 420 L 156 424 Q 168 426 172 420 L 176 413 Q 178 400 172 396 L 168 394 L 168 329 L 168 328 L 152 328 Z " /><path fill="rgb(208,221,223)" stroke="rgb(208,221,223)" stroke-width="1" opacity="0.996078431372549" d="M 89.5 418 L 90.5 420 L 89.5 418 Z " /><path fill="rgb(208,221,223)" stroke="rgb(208,221,223)" stroke-width="1" opacity="0.996078431372549" d="M 92.5 421 L 93.5 423 L 92.5 421 Z " /><path fill="rgb(149,213,227)" stroke="rgb(149,213,227)" stroke-width="1" opacity="0.996078431372549" d="M 357.5 47 L 356.5 49 L 357.5 47 Z " /><path fill="rgb(149,213,227)" stroke="rgb(149,213,227)" stroke-width="1" opacity="0.996078431372549" d="M 305.5 48 L 308 48.5 L 305.5 49 L 305.5 48 Z " /><path fill="rgb(149,213,227)" stroke="rgb(149,213,227)" stroke-width="1" opacity="0.996078431372549" d="M 313.5 51 L 316.5 55 L 313.5 51 Z " /><path fill="rgb(149,213,227)" stroke="rgb(149,213,227)" stroke-width="1" opacity="0.996078431372549" d="M 353.5 52 L 352.5 54 L 353.5 52 Z " /><path fill="rgb(149,213,227)" stroke="rgb(149,213,227)" stroke-width="1" opacity="0.996078431372549" d="M 317.5 56 L 318.5 58 L 317.5 56 Z " /><path fill="rgb(149,213,227)" stroke="rgb(149,213,227)" stroke-width="1" opacity="0.996078431372549" d="M 349.5 57 L 348.5 59 L 349.5 57 Z " /><path fill="rgb(149,213,227)" stroke="rgb(149,213,227)" stroke-width="1" opacity="0.996078431372549" d="M 319.5 60 L 320 62.5 L 319 62.5 L 319.5 60 Z " /><path fill="rgb(149,213,227)" stroke="rgb(149,213,227)" stroke-width="1" opacity="0.996078431372549" d="M 345.5 62 L 344.5 64 L 345.5 62 Z " /><path fill="rgb(149,213,227)" stroke="rgb(149,213,227)" stroke-width="1" opacity="0.996078431372549" d="M 341.5 67 L 340.5 69 L 341.5 67 Z " /><path fill="rgb(149,213,227)" stroke="rgb(149,213,227)" stroke-width="1" opacity="0.996078431372549" d="M 337.5 72 L 336.5 74 L 337.5 72 Z " /><path fill="rgb(149,213,227)" stroke="rgb(149,213,227)" stroke-width="1" opacity="0.996078431372549" d="M 333.5 77 L 332.5 79 L 333.5 77 Z " /><path fill="rgb(149,213,227)" stroke="rgb(149,213,227)" stroke-width="1" opacity="0.996078431372549" d="M 267.5 105 L 270.5 109 L 267.5 105 Z " /><path fill="rgb(149,213,227)" stroke="rgb(149,213,227)" stroke-width="1" opacity="0.996078431372549" d="M 335.5 152 L 333.5 155 L 335.5 152 Z " /><path fill="rgb(149,213,227)" stroke="rgb(149,213,227)" stroke-width="1" opacity="0.996078431372549" d="M 329.5 157 L 327.5 160 L 329.5 157 Z " /><path fill="rgb(149,213,227)" stroke="rgb(149,213,227)" stroke-width="1" opacity="0.996078431372549" d="M 323.5 162 L 321.5 165 L 323.5 162 Z " /><path fill="rgb(149,213,227)" stroke="rgb(149,213,227)" stroke-width="1" opacity="0.996078431372549" d="M 317.5 167 L 315.5 170 L 317.5 167 Z " /><path fill="rgb(149,213,227)" stroke="rgb(149,213,227)" stroke-width="1" opacity="0.996078431372549" d="M 311.5 172 L 309.5 175 L 311.5 172 Z " /><path fill="rgb(149,213,227)" stroke="rgb(149,213,227)" stroke-width="1" opacity="0.996078431372549" d="M 396.5 176 L 473.5 176 L 474 177.5 Q 480.621 191.184 483 208 L 397.5 208 Q 390.55 206.45 387 201.5 Q 382.833 197.667 384 188.5 L 390.5 179 L 396.5 176 Z " /><path fill="rgb(149,213,227)" stroke="rgb(149,213,227)" stroke-width="1" opacity="0.996078431372549" d="M 305.5 177 L 303.5 180 L 305.5 177 Z " /><path fill="rgb(149,213,227)" stroke="rgb(149,213,227)" stroke-width="1" opacity="0.996078431372549" d="M 299.5 182 L 297.5 185 L 299.5 182 Z " /><path fill="rgb(149,213,227)" stroke="rgb(149,213,227)" stroke-width="1" opacity="0.996078431372549" d="M 293.5 187 L 291.5 190 L 293.5 187 Z " /><path fill="rgb(149,213,227)" stroke="rgb(149,213,227)" stroke-width="1" opacity="0.996078431372549" d="M 311.5 199 L 314 199.5 L 311.5 200 L 311.5 199 Z " /><path fill="rgb(149,213,227)" stroke="rgb(149,213,227)" stroke-width="1" opacity="0.996078431372549" d="M 344 304 L 392 304 L 392 362.5 L 394.5 363 Q 401.351 351.351 420.5 352 Q 441.394 360.106 455 375.5 L 453 381 Q 450.333 379.875 451 382.5 L 446 388.5 L 446.5 390 L 444 391.5 Q 439.536 402.036 431.5 409 Q 429.25 408.25 430 410.5 L 423.5 416 Q 415.918 405.082 396.5 406 L 374.5 417 L 361.5 417 L 345.5 408 L 330.5 407 L 322.5 410 Q 314.511 420.011 300.5 424 L 256 424 L 256 368.5 L 259.5 365 Q 268.952 352.452 288.5 350 Q 303.515 353.485 311.5 364 Q 316.625 366.375 325.5 365 Q 336.625 361 344 354 L 344 304 Z M 364 369 L 349 376 L 356 391 L 371 383 L 364 369 Z M 272 384 L 272 400 L 288 400 L 288 384 L 272 384 Z " /></svg>