<svg width="512" height="512" version="1.1" xmlns="http://www.w3.org/2000/svg" desc="Created with imagetracer.js version 1.2.6" ><path fill="rgb(219,240,242)" stroke="rgb(219,240,242)" stroke-width="1" opacity="1" d="M 248.5 56 Q 355.247 59.753 404 121.5 Q 453.377 169.123 456 263.5 Q 447.152 357.652 390.5 404 Q 342.877 453.377 248.5 456 Q 245.458 452.042 236 454.5 Q 326.854 445.854 371 390.5 Q 420.646 342.646 423 247.5 Q 413.568 155.432 358.5 109 Q 315.726 64.774 236 57.5 Q 245.458 59.958 248.5 56 Z " /><path fill="rgb(219,240,242)" stroke="rgb(219,240,242)" stroke-width="1" opacity="1" d="M 228.5 58 L 231 58.5 L 228.5 59 L 228.5 58 Z " /><path fill="rgb(219,240,242)" stroke="rgb(219,240,242)" stroke-width="1" opacity="1" d="M 252.5 91 L 251.5 93 L 252.5 91 Z " /><path fill="rgb(219,240,242)" stroke="rgb(219,240,242)" stroke-width="1" opacity="1" d="M 258.5 91 L 261 92.5 L 259.5 92 L 258.5 91 Z " /><path fill="rgb(219,240,242)" stroke="rgb(219,240,242)" stroke-width="1" opacity="1" d="M 132.5 99 L 131.5 101 L 132.5 99 Z " /><path fill="rgb(219,240,242)" stroke="rgb(219,240,242)" stroke-width="1" opacity="1" d="M 127.5 103 L 125.5 106 L 127.5 103 Z " /><path fill="rgb(219,240,242)" stroke="rgb(219,240,242)" stroke-width="1" opacity="1" d="M 116.5 113 L 112.5 118 L 116.5 113 Z " /><path fill="rgb(219,240,242)" stroke="rgb(219,240,242)" stroke-width="1" opacity="1" d="M 251.5 116 L 252.5 118 L 251.5 116 Z " /><path fill="rgb(219,240,242)" stroke="rgb(219,240,242)" stroke-width="1" opacity="1" d="M 260.5 116 L 259.5 118 L 260.5 116 Z " /><path fill="rgb(219,240,242)" stroke="rgb(219,240,242)" stroke-width="1" opacity="1" d="M 105.5 125 L 103.5 128 L 105.5 125 Z " /><path fill="rgb(219,240,242)" stroke="rgb(219,240,242)" stroke-width="1" opacity="1" d="M 100.5 131 L 99.5 133 L 100.5 131 Z " /><path fill="rgb(219,240,242)" stroke="rgb(219,240,242)" stroke-width="1" opacity="1" d="M 96.5 136 L 95.5 138 L 96.5 136 Z " /><path fill="rgb(219,240,242)" stroke="rgb(219,240,242)" stroke-width="1" opacity="1" d="M 143.5 136 L 147 136.5 L 143.5 137 L 143.5 136 Z " /><path fill="rgb(219,240,242)" stroke="rgb(219,240,242)" stroke-width="1" opacity="1" d="M 150.5 138 L 159.5 148 L 150.5 138 Z " /><path fill="rgb(219,240,242)" stroke="rgb(219,240,242)" stroke-width="1" opacity="1" d="M 371.5 138 L 373.5 141 L 371.5 138 Z " /><path fill="rgb(219,240,242)" stroke="rgb(219,240,242)" stroke-width="1" opacity="1" d="M 251.5 143 L 249.5 146 L 251.5 143 Z " /><path fill="rgb(219,240,242)" stroke="rgb(219,240,242)" stroke-width="1" opacity="1" d="M 260.5 143 L 262.5 146 L 260.5 143 Z " /><path fill="rgb(219,240,242)" stroke="rgb(219,240,242)" stroke-width="1" opacity="1" d="M 374.5 143 L 375 146.5 L 374 146.5 L 374.5 143 Z " /><path fill="rgb(219,240,242)" stroke="rgb(219,240,242)" stroke-width="1" opacity="1" d="M 373.5 149 L 363.5 160 L 373.5 149 Z " /><path fill="rgb(219,240,242)" stroke="rgb(219,240,242)" stroke-width="1" opacity="1" d="M 141.5 152 L 142.5 154 L 141.5 152 Z " /><path fill="rgb(219,240,242)" stroke="rgb(219,240,242)" stroke-width="1" opacity="1" d="M 144.5 155 L 146.5 158 L 144.5 155 Z " /><path fill="rgb(219,240,242)" stroke="rgb(219,240,242)" stroke-width="1" opacity="1" d="M 159.5 157 L 158.5 159 L 159.5 157 Z " /><path fill="rgb(219,240,242)" stroke="rgb(219,240,242)" stroke-width="1" opacity="1" d="M 58.5 228 L 59 230.5 L 58 230.5 L 58.5 228 Z " /><path fill="rgb(219,240,242)" stroke="rgb(219,240,242)" stroke-width="1" opacity="1" d="M 57.5 236 L 58 239.5 L 57 239.5 L 57.5 236 Z " /><path fill="rgb(219,240,242)" stroke="rgb(219,240,242)" stroke-width="1" opacity="1" d="M 244.5 238 L 243.5 240 L 244.5 238 Z " /><path fill="rgb(219,240,242)" stroke="rgb(219,240,242)" stroke-width="1" opacity="1" d="M 267.5 238 L 268.5 240 L 267.5 238 Z " /><path fill="rgb(219,240,242)" stroke="rgb(219,240,242)" stroke-width="1" opacity="1" d="M 239.5 243 L 238.5 245 L 239.5 243 Z " /><path fill="rgb(219,240,242)" stroke="rgb(219,240,242)" stroke-width="1" opacity="1" d="M 272.5 243 L 273.5 245 L 272.5 243 Z " /><path fill="rgb(219,240,242)" stroke="rgb(219,240,242)" stroke-width="1" opacity="1" d="M 94.5 248 L 92.5 251 L 94.5 248 Z " /><path fill="rgb(219,240,242)" stroke="rgb(219,240,242)" stroke-width="1" opacity="1" d="M 114.5 248 L 118 252.5 L 117 252.5 L 114.5 248 Z " /><path fill="rgb(219,240,242)" stroke="rgb(219,240,242)" stroke-width="1" opacity="1" d="M 185.5 249 L 184.5 251 L 185.5 249 Z " /><path fill="rgb(219,240,242)" stroke="rgb(219,240,242)" stroke-width="1" opacity="1" d="M 396.5 249 L 394.5 252 L 396.5 249 Z " /><path fill="rgb(219,240,242)" stroke="rgb(219,240,242)" stroke-width="1" opacity="1" d="M 276.5 251 L 277 253.5 L 276 253.5 L 276.5 251 Z " /><path fill="rgb(219,240,242)" stroke="rgb(219,240,242)" stroke-width="1" opacity="1" d="M 182.5 254 L 183 257.5 L 182 257.5 L 182.5 254 Z " /><path fill="rgb(219,240,242)" stroke="rgb(219,240,242)" stroke-width="1" opacity="1" d="M 394.5 260 L 396.5 263 L 394.5 260 Z " /><path fill="rgb(219,240,242)" stroke="rgb(219,240,242)" stroke-width="1" opacity="1" d="M 184.5 261 L 185.5 263 L 184.5 261 Z " /><path fill="rgb(219,240,242)" stroke="rgb(219,240,242)" stroke-width="1" opacity="1" d="M 238.5 267 L 239.5 269 L 238.5 267 Z " /><path fill="rgb(219,240,242)" stroke="rgb(219,240,242)" stroke-width="1" opacity="1" d="M 57.5 271 L 58 275.5 L 57 275.5 L 57.5 271 Z " /><path fill="rgb(219,240,242)" stroke="rgb(219,240,242)" stroke-width="1" opacity="1" d="M 243.5 272 L 244.5 274 L 243.5 272 Z " /><path fill="rgb(219,240,242)" stroke="rgb(219,240,242)" stroke-width="1" opacity="1" d="M 268.5 272 L 267.5 274 L 268.5 272 Z " /><path fill="rgb(219,240,242)" stroke="rgb(219,240,242)" stroke-width="1" opacity="1" d="M 251.5 276 L 254 276.5 L 251.5 277 L 251.5 276 Z " /><path fill="rgb(219,240,242)" stroke="rgb(219,240,242)" stroke-width="1" opacity="1" d="M 258.5 276 L 261 276.5 L 258.5 277 L 258.5 276 Z " /><path fill="rgb(219,240,242)" stroke="rgb(219,240,242)" stroke-width="1" opacity="1" d="M 58.5 281 L 59 283.5 L 58 283.5 L 58.5 281 Z " /><path fill="rgb(219,240,242)" stroke="rgb(219,240,242)" stroke-width="1" opacity="1" d="M 342.5 300 L 339.5 304 L 342.5 300 Z " /><path fill="rgb(219,240,242)" stroke="rgb(219,240,242)" stroke-width="1" opacity="1" d="M 146.5 352 L 138.5 361 L 146.5 352 Z " /><path fill="rgb(219,240,242)" stroke="rgb(219,240,242)" stroke-width="1" opacity="1" d="M 364.5 353 L 371.5 361 L 364.5 353 Z " /><path fill="rgb(219,240,242)" stroke="rgb(219,240,242)" stroke-width="1" opacity="1" d="M 158.5 363 L 149.5 373 L 158.5 363 Z " /><path fill="rgb(219,240,242)" stroke="rgb(219,240,242)" stroke-width="1" opacity="1" d="M 351.5 363 L 360.5 373 L 351.5 363 Z " /><path fill="rgb(219,240,242)" stroke="rgb(219,240,242)" stroke-width="1" opacity="1" d="M 136.5 364 L 137 367.5 L 136 367.5 L 136.5 364 Z " /><path fill="rgb(219,240,242)" stroke="rgb(219,240,242)" stroke-width="1" opacity="1" d="M 138.5 371 L 139.5 373 L 138.5 371 Z " /><path fill="rgb(219,240,242)" stroke="rgb(219,240,242)" stroke-width="1" opacity="1" d="M 372.5 371 L 370.5 374 L 372.5 371 Z " /><path fill="rgb(219,240,242)" stroke="rgb(219,240,242)" stroke-width="1" opacity="1" d="M 364.5 374 L 368 374.5 L 364.5 375 L 364.5 374 Z " /><path fill="rgb(219,240,242)" stroke="rgb(219,240,242)" stroke-width="1" opacity="1" d="M 99.5 379 L 100.5 381 L 99.5 379 Z " /><path fill="rgb(219,240,242)" stroke="rgb(219,240,242)" stroke-width="1" opacity="1" d="M 103.5 384 L 105.5 387 L 103.5 384 Z " /><path fill="rgb(219,240,242)" stroke="rgb(219,240,242)" stroke-width="1" opacity="1" d="M 112.5 394 L 116.5 399 L 112.5 394 Z " /><path fill="rgb(219,240,242)" stroke="rgb(219,240,242)" stroke-width="1" opacity="1" d="M 250.5 394 L 248.5 397 L 250.5 394 Z " /><path fill="rgb(219,240,242)" stroke="rgb(219,240,242)" stroke-width="1" opacity="1" d="M 261.5 396 L 262.5 398 L 261.5 396 Z " /><path fill="rgb(219,240,242)" stroke="rgb(219,240,242)" stroke-width="1" opacity="1" d="M 125.5 406 L 127.5 409 L 125.5 406 Z " /><path fill="rgb(219,240,242)" stroke="rgb(219,240,242)" stroke-width="1" opacity="1" d="M 131.5 411 L 132.5 413 L 131.5 411 Z " /><path fill="rgb(219,240,242)" stroke="rgb(219,240,242)" stroke-width="1" opacity="1" d="M 139.5 417 L 140.5 419 L 139.5 417 Z " /><path fill="rgb(219,240,242)" stroke="rgb(219,240,242)" stroke-width="1" opacity="1" d="M 228.5 453 L 231 453.5 L 228.5 454 L 228.5 453 Z " /><path fill="rgb(175,126,80)" stroke="rgb(175,126,80)" stroke-width="1" opacity="0.984313725490196" d="M 253.5 91 Q 259.714 90.429 262 93 Q 266 98.5 264 111.5 L 262 116 Q 260.042 118.833 253.5 118 L 250 116 Q 246 110.5 248 97.5 L 250 93 L 253.5 91 Z " /><path fill="rgb(175,126,80)" stroke="rgb(175,126,80)" stroke-width="1" opacity="0.984313725490196" d="M 142.5 137 Q 156.687 137.312 160 148.5 L 161 154.5 L 157.5 159 L 150.5 160 L 138 148.5 L 137 143.5 L 140.5 138 L 142.5 137 Z " /><path fill="rgb(175,126,80)" stroke="rgb(175,126,80)" stroke-width="1" opacity="0.984313725490196" d="M 365.5 137 Q 371.917 137.083 374 141.5 L 374 148.5 L 362.5 160 L 357.5 161 L 352 157.5 L 351 150.5 L 361.5 139 L 365.5 137 Z " /><path fill="rgb(175,126,80)" stroke="rgb(175,126,80)" stroke-width="1" opacity="0.984313725490196" d="M 254.5 142 Q 260.917 142.083 263 146.5 L 264 148.5 L 264 236.5 L 265.5 238 L 272 242.5 Q 277.5 248.25 277 259 Q 310.844 273.911 342 292.5 L 343 298.5 L 338.5 304 L 332.5 304 L 275.5 274 L 268.5 272 Q 264.244 277.244 254.5 277 Q 245.05 275.45 240 269.5 L 236.5 264 L 188.5 264 L 183 259.5 Q 181.25 250.75 186.5 249 L 188.5 248 L 236.5 248 L 238 246.5 L 242.5 240 L 248 236.5 L 248 148.5 L 252.5 143 L 254.5 142 Z " /><path fill="rgb(175,126,80)" stroke="rgb(175,126,80)" stroke-width="1" opacity="0.984313725490196" d="M 98.5 247 Q 112.455 244.545 117 251.5 L 118 257.5 L 114.5 262 Q 108.667 265.667 96.5 263 L 92 259.5 L 91 253.5 L 95.5 248 L 98.5 247 Z " /><path fill="rgb(175,126,80)" stroke="rgb(175,126,80)" stroke-width="1" opacity="0.984313725490196" d="M 399.5 248 Q 413.722 245.278 419 251.5 L 420 258.5 L 416.5 263 Q 410.25 265.75 399.5 264 L 394 259.5 L 393 254.5 L 397.5 249 L 399.5 248 Z " /><path fill="rgb(175,126,80)" stroke="rgb(175,126,80)" stroke-width="1" opacity="0.984313725490196" d="M 151.5 350 Q 157.083 349.917 159 353.5 L 160 360.5 L 148.5 373 L 142.5 374 L 137 369.5 Q 136.917 354.417 148.5 351 L 151.5 350 Z " /><path fill="rgb(175,126,80)" stroke="rgb(175,126,80)" stroke-width="1" opacity="0.984313725490196" d="M 355.5 351 Q 369.687 351.312 373 362.5 L 374 368.5 L 369.5 374 L 362.5 374 L 351 362.5 L 350 357.5 L 353.5 352 L 355.5 351 Z " /><path fill="rgb(175,126,80)" stroke="rgb(175,126,80)" stroke-width="1" opacity="0.984313725490196" d="M 253.5 393 L 261 395 Q 265.667 400.167 263 414.5 L 259.5 419 L 252.5 420 L 249 417.5 Q 244.833 412.167 247 400.5 L 251.5 394 L 253.5 393 Z " /><path fill="rgb(0,0,0)" stroke="rgb(0,0,0)" stroke-width="1" opacity="0" d="M 0 0 L 233 0.5 Q 119.5 16 62 87.5 Q 11.669 140.669 0.5 233 L 0 0 Z " /><path fill="rgb(0,0,0)" stroke="rgb(0,0,0)" stroke-width="1" opacity="0" d="M 279.5 0 L 512 0 L 512 232.5 L 511 232.5 Q 495.914 119.086 424.5 62 Q 370.218 11.801 279.5 0 Z " /><path fill="rgb(0,0,0)" stroke="rgb(0,0,0)" stroke-width="1" opacity="0" d="M 0.5 279 Q 16 392.5 87.5 450 Q 140.669 500.331 233 511.5 L 0 512 L 0.5 279 Z " /><path fill="rgb(0,0,0)" stroke="rgb(0,0,0)" stroke-width="1" opacity="0" d="M 511.5 279 L 512 512 L 279 511.5 Q 392.5 496 450 424.5 Q 500.331 371.331 511.5 279 Z " /><path fill="rgb(234,177,77)" stroke="rgb(234,177,77)" stroke-width="1" opacity="0.9921568627450981" d="M 233.5 0 L 253 0.5 Q 131.014 9.014 71 79.5 Q 35.669 115.669 16 167.5 Q -2.667 211.333 1 277.5 Q 14.59 382.91 77.5 439 Q 136.863 503.637 253 511.5 L 233.5 512 Q 119.912 496.088 62 424.5 Q 27.522 385.978 10 330.5 Q -3.629 290.629 0 233.5 Q 15.912 119.912 87.5 62 Q 141.155 11.655 233.5 0 Z " /><path fill="rgb(234,177,77)" stroke="rgb(234,177,77)" stroke-width="1" opacity="0.9921568627450981" d="M 259.5 0 Q 275.795 -1.295 288 1.5 L 279.5 2 L 278.5 1 L 259.5 1 L 259.5 0 Z " /><path fill="rgb(234,177,77)" stroke="rgb(234,177,77)" stroke-width="1" opacity="0.9921568627450981" d="M 289.5 2 Q 395.14 19.36 450 87.5 Q 506.481 144.519 512 252.5 L 511 252.5 Q 510.462 194.038 491 154.5 Q 468.094 103.406 429.5 68 Q 376.855 16.468 289.5 2 Z " /><path fill="rgb(234,177,77)" stroke="rgb(234,177,77)" stroke-width="1" opacity="0.9921568627450981" d="M 511.5 259 L 512 278.5 Q 496.088 392.088 424.5 450 Q 367.481 506.481 259.5 512 L 259.5 511 Q 317.962 510.462 357.5 491 Q 408.594 468.094 444 429.5 Q 477.785 393.285 497 342.5 Q 510.662 307.162 511.5 259 Z " /><path fill="rgb(243,250,254)" stroke="rgb(243,250,254)" stroke-width="1" opacity="1" d="M 248.5 58 L 251 58.5 L 248.5 59 L 248.5 58 Z " /><path fill="rgb(243,250,254)" stroke="rgb(243,250,254)" stroke-width="1" opacity="1" d="M 255.5 59 L 258 59.5 L 255.5 60 L 255.5 59 Z " /><path fill="rgb(243,250,254)" stroke="rgb(243,250,254)" stroke-width="1" opacity="1" d="M 260.5 60 L 263 60.5 L 260.5 61 L 260.5 60 Z " /><path fill="rgb(243,250,254)" stroke="rgb(243,250,254)" stroke-width="1" opacity="1" d="M 265.5 61 L 268 61.5 L 265.5 62 L 265.5 61 Z " /><path fill="rgb(243,250,254)" stroke="rgb(243,250,254)" stroke-width="1" opacity="1" d="M 321.5 82 L 322.5 84 L 321.5 82 Z " /><path fill="rgb(243,250,254)" stroke="rgb(243,250,254)" stroke-width="1" opacity="1" d="M 326.5 85 L 330 87.5 L 328.5 87 L 326.5 85 Z " /><path fill="rgb(243,250,254)" stroke="rgb(243,250,254)" stroke-width="1" opacity="1" d="M 331.5 88 L 332.5 90 L 331.5 88 Z " /><path fill="rgb(243,250,254)" stroke="rgb(243,250,254)" stroke-width="1" opacity="1" d="M 334.5 90 L 335.5 92 L 334.5 90 Z " /><path fill="rgb(243,250,254)" stroke="rgb(243,250,254)" stroke-width="1" opacity="1" d="M 337.5 92 L 339.5 95 L 337.5 92 Z " /><path fill="rgb(243,250,254)" stroke="rgb(243,250,254)" stroke-width="1" opacity="1" d="M 139.5 94 L 138.5 96 L 139.5 94 Z " /><path fill="rgb(243,250,254)" stroke="rgb(243,250,254)" stroke-width="1" opacity="1" d="M 341.5 95 L 343.5 98 L 341.5 95 Z " /><path fill="rgb(243,250,254)" stroke="rgb(243,250,254)" stroke-width="1" opacity="1" d="M 135.5 97 L 134.5 99 L 135.5 97 Z " /><path fill="rgb(243,250,254)" stroke="rgb(243,250,254)" stroke-width="1" opacity="1" d="M 345.5 98 L 347.5 101 L 345.5 98 Z " /><path fill="rgb(243,250,254)" stroke="rgb(243,250,254)" stroke-width="1" opacity="1" d="M 130.5 101 L 129.5 103 L 130.5 101 Z " /><path fill="rgb(243,250,254)" stroke="rgb(243,250,254)" stroke-width="1" opacity="1" d="M 350.5 102 L 354.5 107 L 350.5 102 Z " /><path fill="rgb(243,250,254)" stroke="rgb(243,250,254)" stroke-width="1" opacity="1" d="M 124.5 106 L 120.5 111 L 124.5 106 Z " /><path fill="rgb(243,250,254)" stroke="rgb(243,250,254)" stroke-width="1" opacity="1" d="M 358.5 109 L 370.5 122 L 358.5 109 Z " /><path fill="rgb(243,250,254)" stroke="rgb(243,250,254)" stroke-width="1" opacity="1" d="M 110.5 120 L 106.5 125 L 110.5 120 Z " /><path fill="rgb(243,250,254)" stroke="rgb(243,250,254)" stroke-width="1" opacity="1" d="M 372.5 124 L 376.5 129 L 372.5 124 Z " /><path fill="rgb(243,250,254)" stroke="rgb(243,250,254)" stroke-width="1" opacity="1" d="M 102.5 129 L 101.5 131 L 102.5 129 Z " /><path fill="rgb(243,250,254)" stroke="rgb(243,250,254)" stroke-width="1" opacity="1" d="M 378.5 131 L 380.5 134 L 378.5 131 Z " /><path fill="rgb(243,250,254)" stroke="rgb(243,250,254)" stroke-width="1" opacity="1" d="M 98.5 134 L 97.5 136 L 98.5 134 Z " /><path fill="rgb(243,250,254)" stroke="rgb(243,250,254)" stroke-width="1" opacity="1" d="M 382.5 136 L 383.5 138 L 382.5 136 Z " /><path fill="rgb(243,250,254)" stroke="rgb(243,250,254)" stroke-width="1" opacity="1" d="M 95.5 138 L 94.5 140 L 95.5 138 Z " /><path fill="rgb(243,250,254)" stroke="rgb(243,250,254)" stroke-width="1" opacity="1" d="M 360.5 139 L 352.5 148 L 360.5 139 Z " /><path fill="rgb(243,250,254)" stroke="rgb(243,250,254)" stroke-width="1" opacity="1" d="M 384.5 139 L 386.5 142 L 384.5 139 Z " /><path fill="rgb(243,250,254)" stroke="rgb(243,250,254)" stroke-width="1" opacity="1" d="M 387.5 143 L 388.5 145 L 387.5 143 Z " /><path fill="rgb(243,250,254)" stroke="rgb(243,250,254)" stroke-width="1" opacity="1" d="M 389.5 146 L 390.5 148 L 389.5 146 Z " /><path fill="rgb(243,250,254)" stroke="rgb(243,250,254)" stroke-width="1" opacity="1" d="M 138.5 149 L 140.5 152 L 138.5 149 Z " /><path fill="rgb(243,250,254)" stroke="rgb(243,250,254)" stroke-width="1" opacity="1" d="M 391.5 149 L 392.5 151 L 391.5 149 Z " /><path fill="rgb(243,250,254)" stroke="rgb(243,250,254)" stroke-width="1" opacity="1" d="M 394.5 154 L 395.5 156 L 394.5 154 Z " /><path fill="rgb(243,250,254)" stroke="rgb(243,250,254)" stroke-width="1" opacity="1" d="M 352.5 158 L 353.5 160 L 352.5 158 Z " /><path fill="rgb(243,250,254)" stroke="rgb(243,250,254)" stroke-width="1" opacity="1" d="M 399.5 163 L 402 167.5 L 401 167.5 L 399.5 163 Z " /><path fill="rgb(243,250,254)" stroke="rgb(243,250,254)" stroke-width="1" opacity="1" d="M 418.5 215 L 419 217.5 L 418 217.5 L 418.5 215 Z " /><path fill="rgb(243,250,254)" stroke="rgb(243,250,254)" stroke-width="1" opacity="1" d="M 419.5 220 L 420 222.5 L 419 222.5 L 419.5 220 Z " /><path fill="rgb(243,250,254)" stroke="rgb(243,250,254)" stroke-width="1" opacity="1" d="M 420.5 226 L 421 229.5 L 420 229.5 L 420.5 226 Z " /><path fill="rgb(243,250,254)" stroke="rgb(243,250,254)" stroke-width="1" opacity="1" d="M 421.5 234 L 422 239.5 L 421 239.5 L 421.5 234 Z " /><path fill="rgb(243,250,254)" stroke="rgb(243,250,254)" stroke-width="1" opacity="1" d="M 57.5 240 L 58 242.5 L 57 242.5 L 57.5 240 Z " /><path fill="rgb(243,250,254)" stroke="rgb(243,250,254)" stroke-width="1" opacity="1" d="M 241.5 240 L 240.5 242 L 241.5 240 Z " /><path fill="rgb(243,250,254)" stroke="rgb(243,250,254)" stroke-width="1" opacity="1" d="M 270.5 240 L 271.5 242 L 270.5 240 Z " /><path fill="rgb(243,250,254)" stroke="rgb(243,250,254)" stroke-width="1" opacity="1" d="M 422.5 247 L 423 264.5 L 422 264.5 L 422.5 247 Z " /><path fill="rgb(243,250,254)" stroke="rgb(243,250,254)" stroke-width="1" opacity="1" d="M 417.5 249 L 418.5 251 L 417.5 249 Z " /><path fill="rgb(243,250,254)" stroke="rgb(243,250,254)" stroke-width="1" opacity="1" d="M 92.5 260 L 93.5 262 L 92.5 260 Z " /><path fill="rgb(243,250,254)" stroke="rgb(243,250,254)" stroke-width="1" opacity="1" d="M 116.5 260 L 115.5 262 L 116.5 260 Z " /><path fill="rgb(243,250,254)" stroke="rgb(243,250,254)" stroke-width="1" opacity="1" d="M 418.5 261 L 417.5 263 L 418.5 261 Z " /><path fill="rgb(243,250,254)" stroke="rgb(243,250,254)" stroke-width="1" opacity="1" d="M 240.5 270 L 241.5 272 L 240.5 270 Z " /><path fill="rgb(243,250,254)" stroke="rgb(243,250,254)" stroke-width="1" opacity="1" d="M 421.5 272 L 422 277.5 L 421 277.5 L 421.5 272 Z " /><path fill="rgb(243,250,254)" stroke="rgb(243,250,254)" stroke-width="1" opacity="1" d="M 420.5 282 L 421 285.5 L 420 285.5 L 420.5 282 Z " /><path fill="rgb(243,250,254)" stroke="rgb(243,250,254)" stroke-width="1" opacity="1" d="M 419.5 289 L 420 291.5 L 419 291.5 L 419.5 289 Z " /><path fill="rgb(243,250,254)" stroke="rgb(243,250,254)" stroke-width="1" opacity="1" d="M 340.5 290 L 341.5 292 L 340.5 290 Z " /><path fill="rgb(243,250,254)" stroke="rgb(243,250,254)" stroke-width="1" opacity="1" d="M 418.5 294 L 419 296.5 L 418 296.5 L 418.5 294 Z " /><path fill="rgb(243,250,254)" stroke="rgb(243,250,254)" stroke-width="1" opacity="1" d="M 401.5 344 L 402 345.5 L 399.5 349 L 400 347.5 L 401.5 344 Z " /><path fill="rgb(243,250,254)" stroke="rgb(243,250,254)" stroke-width="1" opacity="1" d="M 157.5 351 L 158.5 353 L 157.5 351 Z " /><path fill="rgb(243,250,254)" stroke="rgb(243,250,254)" stroke-width="1" opacity="1" d="M 395.5 356 L 394.5 358 L 395.5 356 Z " /><path fill="rgb(243,250,254)" stroke="rgb(243,250,254)" stroke-width="1" opacity="1" d="M 392.5 361 L 391.5 363 L 392.5 361 Z " /><path fill="rgb(243,250,254)" stroke="rgb(243,250,254)" stroke-width="1" opacity="1" d="M 390.5 364 L 389.5 366 L 390.5 364 Z " /><path fill="rgb(243,250,254)" stroke="rgb(243,250,254)" stroke-width="1" opacity="1" d="M 388.5 367 L 387.5 369 L 388.5 367 Z " /><path fill="rgb(243,250,254)" stroke="rgb(243,250,254)" stroke-width="1" opacity="1" d="M 386.5 370 L 384.5 373 L 386.5 370 Z " /><path fill="rgb(243,250,254)" stroke="rgb(243,250,254)" stroke-width="1" opacity="1" d="M 94.5 372 L 95.5 374 L 94.5 372 Z " /><path fill="rgb(243,250,254)" stroke="rgb(243,250,254)" stroke-width="1" opacity="1" d="M 383.5 374 L 382.5 376 L 383.5 374 Z " /><path fill="rgb(243,250,254)" stroke="rgb(243,250,254)" stroke-width="1" opacity="1" d="M 97.5 376 L 98.5 378 L 97.5 376 Z " /><path fill="rgb(243,250,254)" stroke="rgb(243,250,254)" stroke-width="1" opacity="1" d="M 380.5 378 L 378.5 381 L 380.5 378 Z " /><path fill="rgb(243,250,254)" stroke="rgb(243,250,254)" stroke-width="1" opacity="1" d="M 101.5 381 L 102.5 383 L 101.5 381 Z " /><path fill="rgb(243,250,254)" stroke="rgb(243,250,254)" stroke-width="1" opacity="1" d="M 376.5 383 L 372.5 388 L 376.5 383 Z " /><path fill="rgb(243,250,254)" stroke="rgb(243,250,254)" stroke-width="1" opacity="1" d="M 106.5 387 L 110.5 392 L 106.5 387 Z " /><path fill="rgb(243,250,254)" stroke="rgb(243,250,254)" stroke-width="1" opacity="1" d="M 370.5 390 L 358.5 403 L 370.5 390 Z " /><path fill="rgb(243,250,254)" stroke="rgb(243,250,254)" stroke-width="1" opacity="1" d="M 120.5 401 L 124.5 406 L 120.5 401 Z " /><path fill="rgb(243,250,254)" stroke="rgb(243,250,254)" stroke-width="1" opacity="1" d="M 354.5 405 L 350.5 410 L 354.5 405 Z " /><path fill="rgb(243,250,254)" stroke="rgb(243,250,254)" stroke-width="1" opacity="1" d="M 129.5 409 L 130.5 411 L 129.5 409 Z " /><path fill="rgb(243,250,254)" stroke="rgb(243,250,254)" stroke-width="1" opacity="1" d="M 347.5 411 L 345.5 414 L 347.5 411 Z " /><path fill="rgb(243,250,254)" stroke="rgb(243,250,254)" stroke-width="1" opacity="1" d="M 134.5 413 L 135.5 415 L 134.5 413 Z " /><path fill="rgb(243,250,254)" stroke="rgb(243,250,254)" stroke-width="1" opacity="1" d="M 343.5 414 L 341.5 417 L 343.5 414 Z " /><path fill="rgb(243,250,254)" stroke="rgb(243,250,254)" stroke-width="1" opacity="1" d="M 261.5 417 L 260.5 419 L 261.5 417 Z " /><path fill="rgb(243,250,254)" stroke="rgb(243,250,254)" stroke-width="1" opacity="1" d="M 339.5 417 L 337.5 420 L 339.5 417 Z " /><path fill="rgb(243,250,254)" stroke="rgb(243,250,254)" stroke-width="1" opacity="1" d="M 335.5 420 L 334.5 422 L 335.5 420 Z " /><path fill="rgb(243,250,254)" stroke="rgb(243,250,254)" stroke-width="1" opacity="1" d="M 332.5 422 L 331.5 424 L 332.5 422 Z " /><path fill="rgb(243,250,254)" stroke="rgb(243,250,254)" stroke-width="1" opacity="1" d="M 327.5 425 L 326.5 427 L 327.5 425 Z " /><path fill="rgb(243,250,254)" stroke="rgb(243,250,254)" stroke-width="1" opacity="1" d="M 322.5 428 L 321.5 430 L 322.5 428 Z " /><path fill="rgb(243,250,254)" stroke="rgb(243,250,254)" stroke-width="1" opacity="1" d="M 265.5 450 L 268 450.5 L 265.5 451 L 265.5 450 Z " /><path fill="rgb(243,250,254)" stroke="rgb(243,250,254)" stroke-width="1" opacity="1" d="M 260.5 451 L 263 451.5 L 260.5 452 L 260.5 451 Z " /><path fill="rgb(243,250,254)" stroke="rgb(243,250,254)" stroke-width="1" opacity="1" d="M 255.5 452 L 258 452.5 L 255.5 453 L 255.5 452 Z " /><path fill="rgb(243,250,254)" stroke="rgb(243,250,254)" stroke-width="1" opacity="1" d="M 248.5 453 L 251 453.5 L 248.5 454 L 248.5 453 Z " /><path fill="rgb(244,251,255)" stroke="rgb(244,251,255)" stroke-width="1" opacity="1" d="M 232.5 58 Q 327.297 65.703 372 123.5 Q 422.02 172.48 422 271.5 Q 410.833 360.333 355.5 405 Q 313.032 448.532 232.5 454 Q 153.913 441.087 111 392.5 Q 81.347 361.653 66 316.5 Q 55.319 286.181 57 243.5 Q 67.037 156.037 119.5 111 Q 160.752 69.252 232.5 58 Z M 253 91 Q 244 95 248 114 Q 250 120 260 118 Q 269 113 264 96 Q 262 89 253 91 Z M 144 136 L 141 137 L 137 142 L 138 150 Q 143 157 152 161 L 158 160 L 161 156 L 160 148 Q 157 137 144 136 Z M 364 137 L 361 139 Q 353 143 350 153 L 352 159 L 356 161 L 364 160 L 375 148 L 374 141 Q 372 136 364 137 Z M 253 142 L 248 147 L 248 237 L 242 240 L 237 248 L 188 248 L 186 249 L 182 254 L 183 261 L 188 264 L 237 264 L 240 271 L 252 277 Q 265 279 270 272 L 333 305 Q 341 306 343 301 L 342 292 L 338 288 L 277 258 Q 278 247 272 242 L 266 237 L 264 237 L 264 147 Q 262 140 253 142 Z M 97 247 L 91 252 L 92 261 L 96 263 Q 109 266 116 262 Q 119 259 118 252 Q 113 243 97 247 Z M 398 248 L 393 253 Q 391 262 398 264 Q 411 267 418 263 L 421 257 L 419 251 Q 413 244 398 248 Z M 150 350 L 148 351 Q 139 355 136 365 L 137 371 L 142 374 L 150 373 Q 158 369 161 360 L 159 353 Q 157 349 150 350 Z M 359 350 L 352 352 L 350 356 L 351 364 L 364 375 Q 372 376 374 371 L 373 362 Q 369 353 359 350 Z M 252 393 Q 243 398 247 416 Q 249 420 256 421 L 261 419 Q 267 413 263 398 Q 261 391 252 393 Z " /><path fill="rgb(234,177,77)" stroke="rgb(234,177,77)" stroke-width="1" opacity="1" d="M 253.5 0 Q 382.539 7.461 444 82.5 Q 506.59 141.91 512 258.5 Q 502.982 383.482 429.5 444 Q 369.597 506.097 253.5 512 Q 133.536 502.964 73 434.5 Q 36.396 397.604 16 344.5 Q -2.667 300.667 1 234.5 Q 14.866 127.366 79.5 71 Q 138.84 7.84 253.5 0 Z M 249 56 Q 162 64 117 113 Q 68 156 57 237 Q 56 344 112 395 Q 158 447 249 456 Q 343 453 391 404 Q 447 358 456 264 Q 453 169 404 122 Q 355 60 249 56 Z " /></svg>