<svg width="512" height="512" version="1.1" xmlns="http://www.w3.org/2000/svg" desc="Created with imagetracer.js version 1.2.6" ><path fill="rgb(0,0,0)" stroke="rgb(0,0,0)" stroke-width="1" opacity="0" d="M 0 0 L 512 0 L 512 512 L 0 512 L 0 0 Z M 88 112 L 76 118 Q 67 124 64 136 L 64 169 L 62 168 Q 45 166 38 172 Q 28 178 25 191 L 29 285 Q 32 303 43 314 Q 49 322 60 324 L 51 367 Q 50 375 53 379 L 61 384 Q 68 385 72 382 L 75 379 L 99 330 L 101 328 L 412 328 L 437 379 L 445 384 Q 452 385 456 382 L 461 375 L 461 367 L 452 324 Q 462 323 468 315 Q 480 304 483 285 Q 486 248 486 209 L 487 208 Q 489 189 482 180 Q 476 171 466 168 Q 453 166 448 169 L 448 136 L 442 124 Q 436 115 425 112 L 269 112 L 263 115 L 257 122 Q 258 125 255 124 L 253 119 L 244 112 L 88 112 Z " /><path fill="rgb(202,132,15)" stroke="rgb(202,132,15)" stroke-width="1" opacity="0.996078431372549" d="M 248.5 115 L 253 118 L 255.5 126 Q 258.075 119.075 263.5 115 L 264.5 229 L 274.5 224 L 411.5 224 L 417 226 Q 420.145 210.824 420 189.5 Q 423.058 178.558 431.5 173 Q 437.733 167.933 448 168 Q 449.125 170.667 446.5 170 L 435 179.5 L 430 190.5 L 425 258.5 Q 422.75 265.25 417.5 269 L 410.5 272 L 101.5 272 Q 93.85 270.15 90 264.5 Q 86 259.5 86 250.5 Q 86.462 218.038 82 190.5 Q 79.143 178.857 70.5 173 L 64 170 Q 62.688 166.667 67.5 168 Q 80.85 170.65 87 180.5 L 91 189.5 L 93 221.5 L 94.5 227 L 100.5 224 L 237.5 224 L 247.5 229 L 248.5 115 Z " /><path fill="rgb(202,132,15)" stroke="rgb(202,132,15)" stroke-width="1" opacity="0.996078431372549" d="M 118.5 152 L 126 154 L 128 160 L 134 162 L 136 169.5 L 134 174 L 128 176 L 126 182 L 118.5 184 L 114 182 L 112 176 L 106 174 L 104 166.5 L 106 162 L 112 160 L 114 154 L 118.5 152 Z " /><path fill="rgb(202,132,15)" stroke="rgb(202,132,15)" stroke-width="1" opacity="0.996078431372549" d="M 182.5 152 L 190 154 L 192 160 L 198 162 L 200 169.5 L 198 174 L 192 176 L 190 182 L 182.5 184 L 178 182 L 176 176 L 170 174 L 168 166.5 L 170 162 L 176 160 L 178 154 L 182.5 152 Z " /><path fill="rgb(202,132,15)" stroke="rgb(202,132,15)" stroke-width="1" opacity="0.996078431372549" d="M 326.5 152 L 334 154 L 336 160 L 342 162 L 344 169.5 L 342 174 L 336 176 L 334 182 L 326.5 184 L 322 182 L 320 176 L 314 174 L 312 166.5 L 314 162 L 320 160 L 322 154 L 326.5 152 Z " /><path fill="rgb(202,132,15)" stroke="rgb(202,132,15)" stroke-width="1" opacity="0.996078431372549" d="M 390.5 152 L 398 154 L 400 160 L 406 162 L 408 169.5 L 406 174 L 400 176 L 398 182 L 390.5 184 L 386 182 L 384 176 L 378 174 L 376 166.5 L 378 162 L 384 160 L 386 154 L 390.5 152 Z " /><path fill="rgb(202,132,15)" stroke="rgb(202,132,15)" stroke-width="1" opacity="0.996078431372549" d="M 60 324 Q 75.388 330.3 100 328.5 L 75 378.5 L 71.5 382 Q 68.167 385.167 60.5 384 L 53 378.5 Q 49.667 374.833 51 366.5 L 60 324 Z " /><path fill="rgb(202,132,15)" stroke="rgb(202,132,15)" stroke-width="1" opacity="0.996078431372549" d="M 450.5 324 Q 452.75 323.25 452 325.5 L 461 366.5 L 461 374.5 L 455.5 382 Q 452.167 385.167 444.5 384 L 437 378.5 L 412 328.5 Q 435.598 330.598 450.5 324 Z " /><path fill="rgb(236,171,43)" stroke="rgb(236,171,43)" stroke-width="1" opacity="0.996078431372549" d="M 87.5 112 L 95 112.5 Q 76.993 113.493 70 125.5 Q 64.25 131.75 64.5 144 L 64 135.5 Q 67.415 124.415 75.5 118 L 87.5 112 Z " /><path fill="rgb(236,171,43)" stroke="rgb(236,171,43)" stroke-width="1" opacity="0.996078431372549" d="M 238.5 112 Q 245.393 111.107 248 114.5 L 246.5 115 Q 244.5 112 238.5 113 L 238.5 112 Z " /><path fill="rgb(236,171,43)" stroke="rgb(236,171,43)" stroke-width="1" opacity="0.996078431372549" d="M 268.5 112 L 274 112.5 Q 267.75 112.25 264.5 115 L 265.5 113 L 268.5 112 Z " /><path fill="rgb(236,171,43)" stroke="rgb(236,171,43)" stroke-width="1" opacity="0.996078431372549" d="M 417.5 112 Q 435.674 111.826 442 123.5 Q 449.333 129.167 448 143.5 L 447 143.5 Q 446.891 124.609 434.5 118 Q 429.438 112.063 417.5 113 L 417.5 112 Z " /><path fill="rgb(236,171,43)" stroke="rgb(236,171,43)" stroke-width="1" opacity="0.996078431372549" d="M 249.5 115 L 251.5 118 L 249.5 115 Z " /><path fill="rgb(236,171,43)" stroke="rgb(236,171,43)" stroke-width="1" opacity="0.996078431372549" d="M 262.5 115 L 259.5 119 L 262.5 115 Z " /><path fill="rgb(236,171,43)" stroke="rgb(236,171,43)" stroke-width="1" opacity="0.996078431372549" d="M 253.5 120 L 255 122.5 L 254 122.5 L 253.5 120 Z " /><path fill="rgb(236,171,43)" stroke="rgb(236,171,43)" stroke-width="1" opacity="0.996078431372549" d="M 258.5 120 L 258 121.5 L 257.5 123 L 257 121.5 L 258.5 120 Z " /><path fill="rgb(236,171,43)" stroke="rgb(236,171,43)" stroke-width="1" opacity="0.996078431372549" d="M 255 124 L 257 124.5 L 255 125.5 L 255 124 Z " /><path fill="rgb(236,171,43)" stroke="rgb(236,171,43)" stroke-width="1" opacity="0.996078431372549" d="M 116.5 152 L 118 152.5 L 114 154 L 112.5 158 L 112 156.5 L 114.5 153 L 116.5 152 Z " /><path fill="rgb(236,171,43)" stroke="rgb(236,171,43)" stroke-width="1" opacity="0.996078431372549" d="M 122.5 152 L 127 154.5 L 128 157.5 L 127 157.5 L 126 154 Q 121.8 154.05 122.5 152 Z " /><path fill="rgb(236,171,43)" stroke="rgb(236,171,43)" stroke-width="1" opacity="0.996078431372549" d="M 180.5 152 L 182 152.5 L 178 154 L 176.5 158 L 176 156.5 L 178.5 153 L 180.5 152 Z " /><path fill="rgb(236,171,43)" stroke="rgb(236,171,43)" stroke-width="1" opacity="0.996078431372549" d="M 186.5 152 L 191 154.5 L 192 157.5 L 191 157.5 L 190 154 Q 185.8 154.05 186.5 152 Z " /><path fill="rgb(236,171,43)" stroke="rgb(236,171,43)" stroke-width="1" opacity="0.996078431372549" d="M 324.5 152 L 326 152.5 L 322 154 L 320.5 158 L 320 156.5 L 322.5 153 L 324.5 152 Z " /><path fill="rgb(236,171,43)" stroke="rgb(236,171,43)" stroke-width="1" opacity="0.996078431372549" d="M 330.5 152 L 335 154.5 L 336 157.5 L 335 157.5 L 334 154 Q 329.8 154.05 330.5 152 Z " /><path fill="rgb(236,171,43)" stroke="rgb(236,171,43)" stroke-width="1" opacity="0.996078431372549" d="M 388.5 152 L 390 152.5 L 386 154 L 384.5 158 L 384 156.5 L 386.5 153 L 388.5 152 Z " /><path fill="rgb(236,171,43)" stroke="rgb(236,171,43)" stroke-width="1" opacity="0.996078431372549" d="M 394.5 152 L 399 154.5 L 400 157.5 L 399 157.5 L 398 154 Q 393.8 154.05 394.5 152 Z " /><path fill="rgb(236,171,43)" stroke="rgb(236,171,43)" stroke-width="1" opacity="0.996078431372549" d="M 108.5 160 L 110 160.5 L 106 162 L 104.5 166 L 104 164.5 L 106.5 161 L 108.5 160 Z " /><path fill="rgb(236,171,43)" stroke="rgb(236,171,43)" stroke-width="1" opacity="0.996078431372549" d="M 130.5 160 L 135 162.5 L 136 165.5 L 135 165.5 L 134 162 Q 129.8 162.05 130.5 160 Z " /><path fill="rgb(236,171,43)" stroke="rgb(236,171,43)" stroke-width="1" opacity="0.996078431372549" d="M 172.5 160 L 174 160.5 L 170 162 L 168.5 166 L 168 164.5 L 170.5 161 L 172.5 160 Z " /><path fill="rgb(236,171,43)" stroke="rgb(236,171,43)" stroke-width="1" opacity="0.996078431372549" d="M 194.5 160 L 199 162.5 L 200 165.5 L 199 165.5 L 198 162 Q 193.8 162.05 194.5 160 Z " /><path fill="rgb(236,171,43)" stroke="rgb(236,171,43)" stroke-width="1" opacity="0.996078431372549" d="M 316.5 160 L 318 160.5 L 314 162 L 312.5 166 L 312 164.5 L 314.5 161 L 316.5 160 Z " /><path fill="rgb(236,171,43)" stroke="rgb(236,171,43)" stroke-width="1" opacity="0.996078431372549" d="M 338.5 160 L 343 162.5 L 344 165.5 L 343 165.5 L 342 162 Q 337.8 162.05 338.5 160 Z " /><path fill="rgb(236,171,43)" stroke="rgb(236,171,43)" stroke-width="1" opacity="0.996078431372549" d="M 380.5 160 L 382 160.5 L 378 162 L 376.5 166 L 376 164.5 L 378.5 161 L 380.5 160 Z " /><path fill="rgb(236,171,43)" stroke="rgb(236,171,43)" stroke-width="1" opacity="0.996078431372549" d="M 402.5 160 L 407 162.5 L 408 165.5 L 407 165.5 L 406 162 Q 401.8 162.05 402.5 160 Z " /><path fill="rgb(236,171,43)" stroke="rgb(236,171,43)" stroke-width="1" opacity="0.996078431372549" d="M 46.5 168 Q 70.694 164.806 77 179.5 L 70.5 174 Q 63.667 166.833 47.5 169 Q 35.865 172.365 30 181.5 Q 23.714 190.214 26 207.5 L 27 208.5 Q 26.424 251.576 31 289.5 Q 35.626 305.374 46.5 315 L 60 323.5 L 58.5 324 L 43 314 Q 32.427 303.246 29 284.5 L 25 190.5 Q 28.344 178.344 37.5 172 L 46.5 168 Z " /><path fill="rgb(236,171,43)" stroke="rgb(236,171,43)" stroke-width="1" opacity="0.996078431372549" d="M 68.5 168 L 71 168.5 L 68.5 169 L 68.5 168 Z " /><path fill="rgb(236,171,43)" stroke="rgb(236,171,43)" stroke-width="1" opacity="0.996078431372549" d="M 440.5 168 L 443 168.5 L 440.5 169 L 440.5 168 Z " /><path fill="rgb(236,171,43)" stroke="rgb(236,171,43)" stroke-width="1" opacity="0.996078431372549" d="M 450.5 168 Q 474.525 165.475 482 179.5 Q 489.353 188.647 487 207.5 L 486 208.5 Q 486.475 248.475 483 284.5 Q 479.432 303.932 467.5 315 Q 462.653 322.153 452.5 324 L 452.5 323 Q 463.333 318.833 470 310.5 Q 479.412 300.413 482 283.5 L 486 191.5 Q 483.071 178.929 473.5 173 Q 466.5 167 451.5 169 Q 441.25 172.25 435.5 180 L 441.5 173 L 450.5 168 Z " /><path fill="rgb(236,171,43)" stroke="rgb(236,171,43)" stroke-width="1" opacity="0.996078431372549" d="M 104.5 170 L 106 174 L 110 175.5 L 108.5 176 L 105 173.5 L 104.5 170 Z " /><path fill="rgb(236,171,43)" stroke="rgb(236,171,43)" stroke-width="1" opacity="0.996078431372549" d="M 135.5 170 L 136 171.5 L 133.5 175 L 130.5 176 L 130.5 175 L 134 174 L 135.5 170 Z " /><path fill="rgb(236,171,43)" stroke="rgb(236,171,43)" stroke-width="1" opacity="0.996078431372549" d="M 168.5 170 L 170 174 L 174 175.5 L 172.5 176 L 169 173.5 L 168.5 170 Z " /><path fill="rgb(236,171,43)" stroke="rgb(236,171,43)" stroke-width="1" opacity="0.996078431372549" d="M 199.5 170 L 200 171.5 L 197.5 175 L 194.5 176 L 194.5 175 L 198 174 L 199.5 170 Z " /><path fill="rgb(236,171,43)" stroke="rgb(236,171,43)" stroke-width="1" opacity="0.996078431372549" d="M 312.5 170 L 314 174 L 318 175.5 L 316.5 176 L 313 173.5 L 312.5 170 Z " /><path fill="rgb(236,171,43)" stroke="rgb(236,171,43)" stroke-width="1" opacity="0.996078431372549" d="M 343.5 170 L 344 171.5 L 341.5 175 L 338.5 176 L 338.5 175 L 342 174 L 343.5 170 Z " /><path fill="rgb(236,171,43)" stroke="rgb(236,171,43)" stroke-width="1" opacity="0.996078431372549" d="M 376.5 170 L 378 174 L 382 175.5 L 380.5 176 L 377 173.5 L 376.5 170 Z " /><path fill="rgb(236,171,43)" stroke="rgb(236,171,43)" stroke-width="1" opacity="0.996078431372549" d="M 407.5 170 L 408 171.5 L 405.5 175 L 402.5 176 L 402.5 175 L 406 174 L 407.5 170 Z " /><path fill="rgb(236,171,43)" stroke="rgb(236,171,43)" stroke-width="1" opacity="0.996078431372549" d="M 77.5 171 L 87 179.5 L 79.5 173 L 77.5 171 Z " /><path fill="rgb(236,171,43)" stroke="rgb(236,171,43)" stroke-width="1" opacity="0.996078431372549" d="M 433.5 171 L 432.5 173 L 424 180.5 L 421.5 186 L 421 184.5 Q 424.333 176.333 431.5 172 L 433.5 171 Z " /><path fill="rgb(236,171,43)" stroke="rgb(236,171,43)" stroke-width="1" opacity="0.996078431372549" d="M 112.5 178 L 114 182 L 118 183.5 L 116.5 184 L 113 181.5 L 112.5 178 Z " /><path fill="rgb(236,171,43)" stroke="rgb(236,171,43)" stroke-width="1" opacity="0.996078431372549" d="M 127.5 178 L 128 179.5 L 125.5 183 L 122.5 184 L 122.5 183 L 126 182 L 127.5 178 Z " /><path fill="rgb(236,171,43)" stroke="rgb(236,171,43)" stroke-width="1" opacity="0.996078431372549" d="M 176.5 178 L 178 182 L 182 183.5 L 180.5 184 L 177 181.5 L 176.5 178 Z " /><path fill="rgb(236,171,43)" stroke="rgb(236,171,43)" stroke-width="1" opacity="0.996078431372549" d="M 191.5 178 L 192 179.5 L 189.5 183 L 186.5 184 L 186.5 183 L 190 182 L 191.5 178 Z " /><path fill="rgb(236,171,43)" stroke="rgb(236,171,43)" stroke-width="1" opacity="0.996078431372549" d="M 320.5 178 L 322 182 L 326 183.5 L 324.5 184 L 321 181.5 L 320.5 178 Z " /><path fill="rgb(236,171,43)" stroke="rgb(236,171,43)" stroke-width="1" opacity="0.996078431372549" d="M 335.5 178 L 336 179.5 L 333.5 183 L 330.5 184 L 330.5 183 L 334 182 L 335.5 178 Z " /><path fill="rgb(236,171,43)" stroke="rgb(236,171,43)" stroke-width="1" opacity="0.996078431372549" d="M 384.5 178 L 386 182 L 390 183.5 L 388.5 184 L 385 181.5 L 384.5 178 Z " /><path fill="rgb(236,171,43)" stroke="rgb(236,171,43)" stroke-width="1" opacity="0.996078431372549" d="M 399.5 178 L 400 179.5 L 397.5 183 L 394.5 184 L 394.5 183 L 398 182 L 399.5 178 Z " /><path fill="rgb(236,171,43)" stroke="rgb(236,171,43)" stroke-width="1" opacity="0.996078431372549" d="M 77.5 181 L 80 185.5 L 79 185.5 L 77.5 181 Z " /><path fill="rgb(236,171,43)" stroke="rgb(236,171,43)" stroke-width="1" opacity="0.996078431372549" d="M 87.5 181 L 90 185.5 L 89 185.5 L 87.5 181 Z " /><path fill="rgb(236,171,43)" stroke="rgb(236,171,43)" stroke-width="1" opacity="0.996078431372549" d="M 434.5 181 L 434 182.5 L 432.5 186 L 432 184.5 L 434.5 181 Z " /><path fill="rgb(236,171,43)" stroke="rgb(236,171,43)" stroke-width="1" opacity="0.996078431372549" d="M 81.5 190 L 82 193.5 L 81 193.5 L 81.5 190 Z " /><path fill="rgb(236,171,43)" stroke="rgb(236,171,43)" stroke-width="1" opacity="0.996078431372549" d="M 419.5 190 L 420 194.5 L 419 194.5 L 419.5 190 Z " /><path fill="rgb(236,171,43)" stroke="rgb(236,171,43)" stroke-width="1" opacity="0.996078431372549" d="M 430.5 190 L 431 193.5 L 430 193.5 L 430.5 190 Z " /><path fill="rgb(236,171,43)" stroke="rgb(236,171,43)" stroke-width="1" opacity="0.996078431372549" d="M 91.5 191 L 92 195.5 L 91 195.5 L 91.5 191 Z " /><path fill="rgb(236,171,43)" stroke="rgb(236,171,43)" stroke-width="1" opacity="0.996078431372549" d="M 82.5 199 L 83 206.5 L 82 206.5 L 82.5 199 Z " /><path fill="rgb(236,171,43)" stroke="rgb(236,171,43)" stroke-width="1" opacity="0.996078431372549" d="M 429.5 199 L 430 206.5 L 429 206.5 L 429.5 199 Z " /><path fill="rgb(236,171,43)" stroke="rgb(236,171,43)" stroke-width="1" opacity="0.996078431372549" d="M 418.5 200 L 419 207.5 L 418 207.5 L 418.5 200 Z " /><path fill="rgb(236,171,43)" stroke="rgb(236,171,43)" stroke-width="1" opacity="0.996078431372549" d="M 92.5 201 L 93 208.5 L 92 208.5 L 92.5 201 Z " /><path fill="rgb(236,171,43)" stroke="rgb(236,171,43)" stroke-width="1" opacity="0.996078431372549" d="M 83.5 212 L 84 219.5 L 83 219.5 L 83.5 212 Z " /><path fill="rgb(236,171,43)" stroke="rgb(236,171,43)" stroke-width="1" opacity="0.996078431372549" d="M 428.5 212 L 429 219.5 L 428 219.5 L 428.5 212 Z " /><path fill="rgb(236,171,43)" stroke="rgb(236,171,43)" stroke-width="1" opacity="0.996078431372549" d="M 417.5 213 L 418 220.5 L 417 220.5 L 417.5 213 Z " /><path fill="rgb(236,171,43)" stroke="rgb(236,171,43)" stroke-width="1" opacity="0.996078431372549" d="M 93.5 214 L 94 221.5 L 93 221.5 L 93.5 214 Z " /><path fill="rgb(236,171,43)" stroke="rgb(236,171,43)" stroke-width="1" opacity="0.996078431372549" d="M 97.5 224 L 100 224.5 L 94.5 227 L 95.5 225 L 97.5 224 Z " /><path fill="rgb(236,171,43)" stroke="rgb(236,171,43)" stroke-width="1" opacity="0.996078431372549" d="M 238.5 224 L 241 224.5 L 238.5 225 L 238.5 224 Z " /><path fill="rgb(236,171,43)" stroke="rgb(236,171,43)" stroke-width="1" opacity="0.996078431372549" d="M 271.5 224 L 274 224.5 L 271.5 225 L 271.5 224 Z " /><path fill="rgb(236,171,43)" stroke="rgb(236,171,43)" stroke-width="1" opacity="0.996078431372549" d="M 84.5 225 L 85 232.5 L 84 232.5 L 84.5 225 Z " /><path fill="rgb(236,171,43)" stroke="rgb(236,171,43)" stroke-width="1" opacity="0.996078431372549" d="M 427.5 225 L 428 232.5 L 427 232.5 L 427.5 225 Z " /><path fill="rgb(236,171,43)" stroke="rgb(236,171,43)" stroke-width="1" opacity="0.996078431372549" d="M 246.5 227 L 247.5 229 L 246.5 227 Z " /><path fill="rgb(236,171,43)" stroke="rgb(236,171,43)" stroke-width="1" opacity="0.996078431372549" d="M 265.5 227 L 264.5 229 L 265.5 227 Z " /><path fill="rgb(236,171,43)" stroke="rgb(236,171,43)" stroke-width="1" opacity="0.996078431372549" d="M 85.5 238 L 86 245.5 L 85 245.5 L 85.5 238 Z " /><path fill="rgb(236,171,43)" stroke="rgb(236,171,43)" stroke-width="1" opacity="0.996078431372549" d="M 426.5 238 L 427 245.5 L 426 245.5 L 426.5 238 Z " /><path fill="rgb(236,171,43)" stroke="rgb(236,171,43)" stroke-width="1" opacity="0.996078431372549" d="M 86.5 251 L 87 257.5 L 86 257.5 L 86.5 251 Z " /><path fill="rgb(236,171,43)" stroke="rgb(236,171,43)" stroke-width="1" opacity="0.996078431372549" d="M 425.5 251 L 426 257.5 L 425 257.5 L 425.5 251 Z " /><path fill="rgb(236,171,43)" stroke="rgb(236,171,43)" stroke-width="1" opacity="0.996078431372549" d="M 88.5 262 L 94.5 269 L 98 270.5 L 96.5 271 L 89 264.5 L 88.5 262 Z " /><path fill="rgb(236,171,43)" stroke="rgb(236,171,43)" stroke-width="1" opacity="0.996078431372549" d="M 423.5 262 L 423 263.5 L 417.5 270 L 414.5 271 L 414.5 270 L 422 264.5 L 423.5 262 Z " /><path fill="rgb(236,171,43)" stroke="rgb(236,171,43)" stroke-width="1" opacity="0.996078431372549" d="M 75.5 327 L 79 327.5 L 75.5 328 L 75.5 327 Z " /><path fill="rgb(236,171,43)" stroke="rgb(236,171,43)" stroke-width="1" opacity="0.996078431372549" d="M 433.5 327 L 437 327.5 L 433.5 328 L 433.5 327 Z " /><path fill="rgb(236,171,44)" stroke="rgb(236,171,44)" stroke-width="1" opacity="1" d="M 95.5 112 L 237.5 112 L 248 115 L 247.5 228 L 240.5 224 L 97.5 224 L 94.5 226 L 91 187.5 Q 87.5 177.5 79.5 172 Q 74.113 166.923 64 168 Q 58.816 131.551 77.5 118 Q 84.25 112.75 95.5 112 Z M 117 152 L 115 153 Q 111 155 112 160 L 107 161 L 104 165 L 105 174 Q 107 177 112 176 L 113 182 L 117 184 L 126 183 Q 129 181 128 176 L 134 175 L 136 172 L 135 163 Q 133 159 128 160 L 127 155 Q 124 151 117 152 Z M 181 152 L 179 153 Q 175 155 176 160 L 171 161 L 168 165 L 169 174 Q 171 177 176 176 L 177 182 L 181 184 L 190 183 Q 193 181 192 176 L 198 175 L 200 172 L 199 163 Q 197 159 192 160 L 191 155 Q 188 151 181 152 Z " /><path fill="rgb(236,171,44)" stroke="rgb(236,171,44)" stroke-width="1" opacity="1" d="M 274.5 112 L 416.5 112 Q 434.125 113.875 442 125.5 Q 451.914 140.207 448 168 Q 430.071 168.369 423 180.5 L 419 190.5 L 417 225 L 413.5 224 L 271.5 224 L 264.5 228 L 264 115 L 274.5 112 Z M 325 152 L 323 153 Q 319 155 320 160 L 315 161 L 312 165 L 313 174 Q 315 177 320 176 L 321 182 L 325 184 L 334 183 Q 337 181 336 176 L 342 175 L 344 172 L 343 163 Q 341 159 336 160 L 335 155 Q 332 151 325 152 Z M 389 152 L 387 153 Q 383 155 384 160 L 379 161 L 376 165 L 377 174 Q 379 177 384 176 L 385 182 L 389 184 L 398 183 Q 401 181 400 176 L 406 175 L 408 172 L 407 163 Q 405 159 400 160 L 399 155 Q 396 151 389 152 Z " /><path fill="rgb(236,171,44)" stroke="rgb(236,171,44)" stroke-width="1" opacity="1" d="M 47.5 169 Q 70.013 166.987 77 180.5 L 82 194.5 L 82 206.5 L 83 207.5 L 86 257.5 Q 88.15 265.85 94.5 270 L 99.5 272 L 412.5 272 Q 419.679 270.179 423 264.5 L 426 257.5 L 426 246.5 L 427 245.5 Q 426.5 215 431 189.5 Q 433.75 179.25 441.5 174 Q 448.333 166.833 464.5 169 Q 476.135 172.365 482 181.5 Q 488.286 190.214 486 207.5 L 485 208.5 Q 485.483 247.983 482 283.5 Q 478.385 303.885 465.5 315 Q 454.396 326.896 432.5 328 L 79.5 328 Q 53.931 326.069 42 310.5 Q 32.588 300.413 30 283.5 L 26 191.5 Q 28.929 178.929 38.5 173 L 47.5 169 Z " /></svg>