<svg width="512" height="512" version="1.1" xmlns="http://www.w3.org/2000/svg" desc="Created with imagetracer.js version 1.2.6" ><path fill="rgb(98,177,207)" stroke="rgb(98,177,207)" stroke-width="1" opacity="0.20784313725490197" d="M 240.5 16 L 245 16.5 L 240.5 17 L 240.5 16 Z " /><path fill="rgb(98,177,207)" stroke="rgb(98,177,207)" stroke-width="1" opacity="0.20784313725490197" d="M 267.5 16 L 272 16.5 L 267.5 17 L 267.5 16 Z " /><path fill="rgb(98,177,207)" stroke="rgb(98,177,207)" stroke-width="1" opacity="0.20784313725490197" d="M 233.5 17 L 236 17.5 L 233.5 18 L 233.5 17 Z " /><path fill="rgb(98,177,207)" stroke="rgb(98,177,207)" stroke-width="1" opacity="0.20784313725490197" d="M 276.5 17 L 279 17.5 L 276.5 18 L 276.5 17 Z " /><path fill="rgb(98,177,207)" stroke="rgb(98,177,207)" stroke-width="1" opacity="0.20784313725490197" d="M 228.5 18 L 231 18.5 L 228.5 19 L 228.5 18 Z " /><path fill="rgb(98,177,207)" stroke="rgb(98,177,207)" stroke-width="1" opacity="0.20784313725490197" d="M 281.5 18 L 284 18.5 L 281.5 19 L 281.5 18 Z " /><path fill="rgb(98,177,207)" stroke="rgb(98,177,207)" stroke-width="1" opacity="0.20784313725490197" d="M 224.5 19 L 227 19.5 L 224.5 20 L 224.5 19 Z " /><path fill="rgb(98,177,207)" stroke="rgb(98,177,207)" stroke-width="1" opacity="0.20784313725490197" d="M 302.5 24 L 306 25.5 L 304.5 26 L 302.5 24 Z " /><path fill="rgb(98,177,207)" stroke="rgb(98,177,207)" stroke-width="1" opacity="0.20784313725490197" d="M 309.5 27 L 318 31.5 L 316.5 31 Q 308.8 30.2 309.5 27 Z " /><path fill="rgb(98,177,207)" stroke="rgb(98,177,207)" stroke-width="1" opacity="0.20784313725490197" d="M 199.5 28 L 201 28.5 L 194.5 32 L 195.5 30 L 199.5 28 Z " /><path fill="rgb(98,177,207)" stroke="rgb(98,177,207)" stroke-width="1" opacity="0.20784313725490197" d="M 190.5 33 L 189.5 35 L 180.5 41 L 182.5 38 L 190.5 33 Z " /><path fill="rgb(98,177,207)" stroke="rgb(98,177,207)" stroke-width="1" opacity="0.20784313725490197" d="M 321.5 33 L 332 40.5 L 329.5 39 Q 322.602 37.023 321.5 33 Z " /><path fill="rgb(98,177,207)" stroke="rgb(98,177,207)" stroke-width="1" opacity="0.20784313725490197" d="M 178.5 41 L 175.5 45 L 157 62.5 L 153.5 67 L 156 63.5 L 174.5 44 L 178.5 41 Z " /><path fill="rgb(98,177,207)" stroke="rgb(98,177,207)" stroke-width="1" opacity="0.20784313725490197" d="M 333.5 41 L 356 62.5 L 359 66.5 L 355 63.5 L 337.5 45 L 333.5 41 Z " /><path fill="rgb(98,177,207)" stroke="rgb(98,177,207)" stroke-width="1" opacity="0.20784313725490197" d="M 152.5 68 L 151 70.5 L 145.5 79 L 146 77.5 L 152.5 68 Z " /><path fill="rgb(98,177,207)" stroke="rgb(98,177,207)" stroke-width="1" opacity="0.20784313725490197" d="M 359.5 68 L 367 78.5 L 365 77.5 L 359.5 68 Z " /><path fill="rgb(98,177,207)" stroke="rgb(98,177,207)" stroke-width="1" opacity="0.20784313725490197" d="M 143.5 82 L 143 83.5 L 139.5 91 L 139 89.5 L 143.5 82 Z " /><path fill="rgb(98,177,207)" stroke="rgb(98,177,207)" stroke-width="1" opacity="0.20784313725490197" d="M 368.5 82 L 373 90.5 L 372 90.5 L 368.5 82 Z " /><path fill="rgb(98,177,207)" stroke="rgb(98,177,207)" stroke-width="1" opacity="0.20784313725490197" d="M 137.5 94 L 138 95.5 L 136.5 98 L 136 96.5 L 137.5 94 Z " /><path fill="rgb(98,177,207)" stroke="rgb(98,177,207)" stroke-width="1" opacity="0.20784313725490197" d="M 374.5 94 L 376 97.5 L 375 97.5 L 374.5 94 Z " /><path fill="rgb(98,177,207)" stroke="rgb(98,177,207)" stroke-width="1" opacity="0.20784313725490197" d="M 130.5 116 L 131 118.5 L 130 118.5 L 130.5 116 Z " /><path fill="rgb(98,177,207)" stroke="rgb(98,177,207)" stroke-width="1" opacity="0.20784313725490197" d="M 381.5 116 L 382 118.5 L 381 118.5 L 381.5 116 Z " /><path fill="rgb(98,177,207)" stroke="rgb(98,177,207)" stroke-width="1" opacity="0.20784313725490197" d="M 129.5 121 L 130 123.5 L 129 123.5 L 129.5 121 Z " /><path fill="rgb(98,177,207)" stroke="rgb(98,177,207)" stroke-width="1" opacity="0.20784313725490197" d="M 382.5 121 L 383 124.5 L 382 124.5 L 382.5 121 Z " /><path fill="rgb(98,177,207)" stroke="rgb(98,177,207)" stroke-width="1" opacity="0.20784313725490197" d="M 128.5 128 L 129 132.5 L 128 132.5 L 128.5 128 Z " /><path fill="rgb(98,177,207)" stroke="rgb(98,177,207)" stroke-width="1" opacity="0.20784313725490197" d="M 383.5 128 L 384 132.5 L 383 132.5 L 383.5 128 Z " /><path fill="rgb(98,177,207)" stroke="rgb(98,177,207)" stroke-width="1" opacity="0.20784313725490197" d="M 128.5 155 L 129 159.5 L 128 159.5 L 128.5 155 Z " /><path fill="rgb(98,177,207)" stroke="rgb(98,177,207)" stroke-width="1" opacity="0.20784313725490197" d="M 383.5 155 L 384 159.5 L 383 159.5 L 383.5 155 Z " /><path fill="rgb(98,177,207)" stroke="rgb(98,177,207)" stroke-width="1" opacity="0.20784313725490197" d="M 382.5 163 L 383 166.5 L 382 166.5 L 382.5 163 Z " /><path fill="rgb(98,177,207)" stroke="rgb(98,177,207)" stroke-width="1" opacity="0.20784313725490197" d="M 129.5 164 L 130 166.5 L 129 166.5 L 129.5 164 Z " /><path fill="rgb(98,177,207)" stroke="rgb(98,177,207)" stroke-width="1" opacity="0.20784313725490197" d="M 130.5 169 L 131 171.5 L 130 171.5 L 130.5 169 Z " /><path fill="rgb(98,177,207)" stroke="rgb(98,177,207)" stroke-width="1" opacity="0.20784313725490197" d="M 381.5 169 L 382 171.5 L 381 171.5 L 381.5 169 Z " /><path fill="rgb(98,177,207)" stroke="rgb(98,177,207)" stroke-width="1" opacity="0.20784313725490197" d="M 136.5 190 L 138 193.5 L 137 193.5 L 136.5 190 Z " /><path fill="rgb(98,177,207)" stroke="rgb(98,177,207)" stroke-width="1" opacity="0.20784313725490197" d="M 375.5 190 L 376 191.5 L 374.5 194 L 374 192.5 L 375.5 190 Z " /><path fill="rgb(98,177,207)" stroke="rgb(98,177,207)" stroke-width="1" opacity="0.20784313725490197" d="M 372.5 197 L 373 198.5 L 368.5 206 L 369 204.5 L 372.5 197 Z " /><path fill="rgb(98,177,207)" stroke="rgb(98,177,207)" stroke-width="1" opacity="0.20784313725490197" d="M 140.5 199 L 144 205.5 L 142 204.5 L 140.5 199 Z " /><path fill="rgb(98,177,207)" stroke="rgb(98,177,207)" stroke-width="1" opacity="0.20784313725490197" d="M 145.5 209 L 153 219.5 L 150 217.5 L 145.5 209 Z " /><path fill="rgb(98,177,207)" stroke="rgb(98,177,207)" stroke-width="1" opacity="0.20784313725490197" d="M 366.5 209 L 366 210.5 L 359.5 220 L 361 217.5 L 366.5 209 Z " /><path fill="rgb(98,177,207)" stroke="rgb(98,177,207)" stroke-width="1" opacity="0.20784313725490197" d="M 153.5 221 L 174.5 243 L 179 246.5 L 175.5 244 L 156 225.5 L 153.5 221 Z " /><path fill="rgb(98,177,207)" stroke="rgb(98,177,207)" stroke-width="1" opacity="0.20784313725490197" d="M 358.5 221 L 356 224.5 L 337.5 244 L 333.5 247 L 336.5 243 L 355 225.5 L 358.5 221 Z " /><path fill="rgb(98,177,207)" stroke="rgb(98,177,207)" stroke-width="1" opacity="0.20784313725490197" d="M 180.5 247 L 191 254.5 L 189.5 254 Q 182.424 251.659 180.5 247 Z " /><path fill="rgb(98,177,207)" stroke="rgb(98,177,207)" stroke-width="1" opacity="0.20784313725490197" d="M 331.5 247 L 329.5 250 L 324.5 253 L 325.5 251 L 331.5 247 Z " /><path fill="rgb(98,177,207)" stroke="rgb(98,177,207)" stroke-width="1" opacity="0.20784313725490197" d="M 322.5 253 L 321.5 255 L 322.5 253 Z " /><path fill="rgb(98,177,207)" stroke="rgb(98,177,207)" stroke-width="1" opacity="0.20784313725490197" d="M 317.5 256 L 316.5 258 L 309.5 261 L 309.5 260 L 317.5 256 Z " /><path fill="rgb(98,177,207)" stroke="rgb(98,177,207)" stroke-width="1" opacity="0.20784313725490197" d="M 196.5 257 L 201 259.5 L 199.5 260 L 196.5 257 Z " /><path fill="rgb(98,177,207)" stroke="rgb(98,177,207)" stroke-width="1" opacity="0.20784313725490197" d="M 386.5 259 L 385.5 261 L 386.5 259 Z " /><path fill="rgb(98,177,207)" stroke="rgb(98,177,207)" stroke-width="1" opacity="0.20784313725490197" d="M 445.5 259 L 446.5 261 L 445.5 259 Z " /><path fill="rgb(98,177,207)" stroke="rgb(98,177,207)" stroke-width="1" opacity="0.20784313725490197" d="M 304.5 262 L 306 262.5 L 302.5 264 L 302.5 263 L 304.5 262 Z " /><path fill="rgb(98,177,207)" stroke="rgb(98,177,207)" stroke-width="1" opacity="0.20784313725490197" d="M 380.5 265 L 379.5 267 L 380.5 265 Z " /><path fill="rgb(98,177,207)" stroke="rgb(98,177,207)" stroke-width="1" opacity="0.20784313725490197" d="M 451.5 265 L 452.5 267 L 451.5 265 Z " /><path fill="rgb(98,177,207)" stroke="rgb(98,177,207)" stroke-width="1" opacity="0.20784313725490197" d="M 142.5 317 L 141.5 319 L 142.5 317 Z " /><path fill="rgb(98,177,207)" stroke="rgb(98,177,207)" stroke-width="1" opacity="0.20784313725490197" d="M 302.5 317 L 301.5 319 L 302.5 317 Z " /><path fill="rgb(98,177,207)" stroke="rgb(98,177,207)" stroke-width="1" opacity="0.20784313725490197" d="M 462.5 317 L 461.5 319 L 462.5 317 Z " /><path fill="rgb(98,177,207)" stroke="rgb(98,177,207)" stroke-width="1" opacity="0.20784313725490197" d="M 126.5 347 L 125.5 349 L 126.5 347 Z " /><path fill="rgb(98,177,207)" stroke="rgb(98,177,207)" stroke-width="1" opacity="0.20784313725490197" d="M 286.5 347 L 285.5 349 L 286.5 347 Z " /><path fill="rgb(98,177,207)" stroke="rgb(98,177,207)" stroke-width="1" opacity="0.20784313725490197" d="M 446.5 347 L 445.5 349 L 446.5 347 Z " /><path fill="rgb(98,177,207)" stroke="rgb(98,177,207)" stroke-width="1" opacity="0.20784313725490197" d="M 214.5 368 L 217 368.5 L 214.5 369 L 214.5 368 Z " /><path fill="rgb(98,177,207)" stroke="rgb(98,177,207)" stroke-width="1" opacity="0.20784313725490197" d="M 295.5 368 L 298 368.5 L 295.5 369 L 295.5 368 Z " /><path fill="rgb(98,177,207)" stroke="rgb(98,177,207)" stroke-width="1" opacity="0.20784313725490197" d="M 204.5 371 L 206 371.5 L 202.5 373 L 202.5 372 L 204.5 371 Z " /><path fill="rgb(98,177,207)" stroke="rgb(98,177,207)" stroke-width="1" opacity="0.20784313725490197" d="M 306.5 371 L 310 372.5 L 308.5 373 L 306.5 371 Z " /><path fill="rgb(98,177,207)" stroke="rgb(98,177,207)" stroke-width="1" opacity="0.20784313725490197" d="M 200.5 373 L 199.5 375 L 200.5 373 Z " /><path fill="rgb(98,177,207)" stroke="rgb(98,177,207)" stroke-width="1" opacity="0.20784313725490197" d="M 311.5 373 L 312.5 375 L 311.5 373 Z " /><path fill="rgb(98,177,207)" stroke="rgb(98,177,207)" stroke-width="1" opacity="0.20784313725490197" d="M 197.5 375 L 196.5 377 L 197.5 375 Z " /><path fill="rgb(98,177,207)" stroke="rgb(98,177,207)" stroke-width="1" opacity="0.20784313725490197" d="M 314.5 375 L 315.5 377 L 314.5 375 Z " /><path fill="rgb(98,177,207)" stroke="rgb(98,177,207)" stroke-width="1" opacity="0.20784313725490197" d="M 34.5 377 L 32.5 380 L 34.5 377 Z " /><path fill="rgb(98,177,207)" stroke="rgb(98,177,207)" stroke-width="1" opacity="0.20784313725490197" d="M 157.5 377 L 159.5 380 L 157.5 377 Z " /><path fill="rgb(98,177,207)" stroke="rgb(98,177,207)" stroke-width="1" opacity="0.20784313725490197" d="M 194.5 377 L 185.5 387 L 194.5 377 Z " /><path fill="rgb(98,177,207)" stroke="rgb(98,177,207)" stroke-width="1" opacity="0.20784313725490197" d="M 317.5 377 L 326.5 387 L 317.5 377 Z " /><path fill="rgb(98,177,207)" stroke="rgb(98,177,207)" stroke-width="1" opacity="0.20784313725490197" d="M 477.5 377 L 479.5 380 L 477.5 377 Z " /><path fill="rgb(98,177,207)" stroke="rgb(98,177,207)" stroke-width="1" opacity="0.20784313725490197" d="M 353.5 378 L 352.5 380 L 353.5 378 Z " /><path fill="rgb(98,177,207)" stroke="rgb(98,177,207)" stroke-width="1" opacity="0.20784313725490197" d="M 27.5 384 L 25.5 387 L 27.5 384 Z " /><path fill="rgb(98,177,207)" stroke="rgb(98,177,207)" stroke-width="1" opacity="0.20784313725490197" d="M 164.5 384 L 166.5 387 L 164.5 384 Z " /><path fill="rgb(98,177,207)" stroke="rgb(98,177,207)" stroke-width="1" opacity="0.20784313725490197" d="M 347.5 384 L 346.5 386 L 347.5 384 Z " /><path fill="rgb(98,177,207)" stroke="rgb(98,177,207)" stroke-width="1" opacity="0.20784313725490197" d="M 484.5 384 L 486.5 387 L 484.5 384 Z " /><path fill="rgb(98,177,207)" stroke="rgb(98,177,207)" stroke-width="1" opacity="0.20784313725490197" d="M 184.5 388 L 183.5 390 L 184.5 388 Z " /><path fill="rgb(98,177,207)" stroke="rgb(98,177,207)" stroke-width="1" opacity="0.20784313725490197" d="M 327.5 388 L 328.5 390 L 327.5 388 Z " /><path fill="rgb(98,177,207)" stroke="rgb(98,177,207)" stroke-width="1" opacity="0.20784313725490197" d="M 182.5 391 L 181.5 393 L 182.5 391 Z " /><path fill="rgb(98,177,207)" stroke="rgb(98,177,207)" stroke-width="1" opacity="0.20784313725490197" d="M 329.5 391 L 333 397.5 L 332 397.5 L 329.5 391 Z " /><path fill="rgb(98,177,207)" stroke="rgb(98,177,207)" stroke-width="1" opacity="0.20784313725490197" d="M 180.5 394 L 181 395.5 L 179.5 398 L 179 396.5 L 180.5 394 Z " /><path fill="rgb(98,177,207)" stroke="rgb(98,177,207)" stroke-width="1" opacity="0.20784313725490197" d="M 175 406 Q 178 404.75 177 408.5 L 175 407.5 L 175 406 Z " /><path fill="rgb(98,177,207)" stroke="rgb(98,177,207)" stroke-width="1" opacity="0.20784313725490197" d="M 335 406 Q 337.667 404.875 337 407.5 L 335 408.5 L 335 406 Z " /><path fill="rgb(58,188,240)" stroke="rgb(58,188,240)" stroke-width="1" opacity="0.996078431372549" d="M 245.5 16 Q 322.758 16.742 355 62.5 Q 385.178 92.822 384 154.5 Q 375.701 213.701 337.5 243 Q 318.926 258.926 292.5 267 L 287.5 261 L 277.5 256 L 234.5 256 Q 226.008 258.508 221 264.5 L 219.5 267 Q 179.881 254.619 157 225.5 Q 126.822 195.178 128 133.5 Q 136.299 74.299 174.5 45 Q 201 21.5 245.5 16 Z " /><path fill="rgb(0,0,0)" stroke="rgb(0,0,0)" stroke-width="1" opacity="0" d="M 0 0 L 512 0 L 512 512 L 0 512 L 0 0 Z M 241 16 Q 200 22 175 44 Q 137 72 128 129 Q 125 194 156 226 Q 179 255 219 268 Q 212 277 216 296 L 211 297 L 208 301 Q 205 312 209 318 Q 211 321 216 320 Q 214 334 219 342 Q 224 349 234 352 L 240 352 L 240 368 Q 209 364 195 377 Q 182 386 177 403 Q 178 407 175 406 Q 174 394 167 387 Q 157 373 138 368 L 112 368 L 112 352 Q 121 353 126 349 Q 139 342 136 320 L 142 319 L 144 316 Q 146 304 143 299 L 140 296 L 136 296 L 136 250 L 132 245 L 61 245 L 56 250 L 56 296 L 51 297 L 48 301 Q 45 312 49 318 Q 51 321 56 320 Q 54 334 59 342 Q 64 349 74 352 L 80 352 L 80 368 Q 49 364 35 377 Q 21 387 16 407 L 16 496 L 17 496 L 496 496 L 496 407 Q 494 394 487 387 Q 477 372 458 368 Q 451 370 452 366 Q 451 363 446 364 L 444 368 L 432 368 L 432 352 Q 441 353 446 349 Q 459 342 456 320 L 462 319 L 464 316 Q 466 304 463 299 Q 461 295 456 296 Q 459 277 453 267 Q 448 259 439 256 L 394 256 L 387 259 Q 371 268 376 296 L 371 297 L 368 301 Q 365 312 369 318 Q 371 321 376 320 Q 374 334 379 342 Q 384 349 394 352 L 400 352 L 400 368 L 389 368 L 388 366 Q 387 363 382 364 L 380 368 Q 364 369 355 377 Q 342 386 337 403 Q 338 407 335 406 Q 334 394 327 387 Q 317 372 298 368 L 272 368 L 272 352 Q 281 353 286 349 Q 299 342 296 320 L 302 319 L 304 316 Q 306 304 303 299 Q 301 295 296 296 Q 300 277 293 268 Q 319 260 338 244 Q 375 216 384 160 Q 387 94 356 63 Q 323 14 241 16 Z " /><path fill="rgb(244,193,158)" stroke="rgb(244,193,158)" stroke-width="1" opacity="0.996078431372549" d="M 230.5 280 L 281.5 280 L 286 282 Q 289.714 286.857 288 298.5 L 291.5 303 L 296 304 Q 299.75 328.775 293 342 Q 290.333 340.875 291 343.5 Q 285.992 349.492 277.5 352 L 234.5 352 L 226 349 Q 227.125 346.333 224.5 347 L 221 342 Q 218.333 343.125 219 340.5 L 216 333.5 L 216 304 Q 220.875 304.083 223 300.5 Q 222.09 288.055 226 282 L 230.5 280 Z " /><path fill="rgb(244,193,158)" stroke="rgb(244,193,158)" stroke-width="1" opacity="0.996078431372549" d="M 64 288 L 127.5 288 Q 129.25 288.75 128 298.5 L 131.5 303 L 136 304 Q 139.75 328.775 133 342 Q 130.333 340.875 131 343.5 Q 125.992 349.492 117.5 352 L 74.5 352 L 66 349 Q 67.125 346.333 64.5 347 L 61 342 Q 58.333 343.125 59 340.5 L 56 333.5 L 56 304 Q 60.875 304.083 63 300.5 Q 65.833 296.265 64 288 Z " /><path fill="rgb(244,193,158)" stroke="rgb(244,193,158)" stroke-width="1" opacity="0.996078431372549" d="M 384 296 L 447.5 296 L 448 298.5 L 451.5 303 L 456 304 Q 459.75 328.775 453 342 Q 450.333 340.875 451 343.5 Q 445.992 349.492 437.5 352 L 394.5 352 L 386 349 Q 387.125 346.333 384.5 347 L 381 342 Q 378.333 343.125 379 340.5 L 376 333.5 L 376 304 Q 380.875 304.083 383 300.5 L 384 296 Z " /><path fill="rgb(244,193,158)" stroke="rgb(244,193,158)" stroke-width="1" opacity="0.996078431372549" d="M 217.5 368 L 239.5 368 L 240 370.5 Q 241.55 377.45 246.5 381 L 248 381.5 L 248 496 L 176 496 L 176 409.5 Q 179.779 387.279 195.5 377 Q 203.893 369.893 217.5 368 Z " /><path fill="rgb(244,193,158)" stroke="rgb(244,193,158)" stroke-width="1" opacity="0.996078431372549" d="M 272 368 Q 312.749 363.95 327 387.5 Q 333.66 395.84 335.5 409 Q 338.375 394.875 345 386 L 348 384.5 L 351.5 380 L 354 378.5 Q 353.25 376.25 355.5 377 Q 364.155 368.132 380 368 Q 376.055 402.252 395.5 414 Q 403.929 421.571 421.5 420 Q 438.036 416.536 446 404.5 Q 455.143 391.904 452 368 Q 473.706 369.498 484 383.5 Q 489.682 385.735 489 392 Q 491.667 390.875 491 393.5 Q 495.015 399.485 496 408.5 L 496 496 L 472.5 496 L 472 495.5 L 472 419.5 L 471 417 L 467.5 416 L 465 417 L 464 419.5 L 464 467 L 368 467 L 368 419.5 L 367 417 L 363.5 416 L 361 417 L 360 419.5 L 360 496 L 264 496 L 264 381 L 269 377.5 L 272 368 Z " /><path fill="rgb(244,193,158)" stroke="rgb(244,193,158)" stroke-width="1" opacity="0.996078431372549" d="M 388 368 L 444 368 L 444 388.5 Q 441.25 399.75 433.5 406 Q 426.5 413 411.5 412 Q 399.162 409.338 393 400.5 Q 384.912 389.386 388 368 Z " /><path fill="rgb(70,60,75)" stroke="rgb(70,60,75)" stroke-width="1" opacity="0.996078431372549" d="M 238.5 256 L 273.5 256 Q 285.402 257.598 291 265.5 Q 299.824 278.176 296 303.5 L 294.5 303 Q 289.5 303.5 289 299.5 Q 286.5 294 288 284.5 L 283.5 280 L 228.5 280 L 224 284.5 Q 226.455 298.455 219.5 303 L 216.5 304 L 216 277.5 Q 217.964 266.464 225.5 261 Q 230.425 256.925 238.5 256 Z " /><path fill="rgb(70,60,75)" stroke="rgb(70,60,75)" stroke-width="1" opacity="0.996078431372549" d="M 397.5 256 L 434.5 256 Q 445.536 257.964 451 265.5 Q 455.583 271.083 456 280 L 376.5 280 L 376 277.5 Q 377.964 266.464 385.5 261 L 397.5 256 Z " /><path fill="rgb(70,60,75)" stroke="rgb(70,60,75)" stroke-width="1" opacity="0.996078431372549" d="M 56 288 Q 68 283.75 64 296.5 L 59.5 303 L 56.5 304 L 56 288 Z " /><path fill="rgb(70,60,75)" stroke="rgb(70,60,75)" stroke-width="1" opacity="0.996078431372549" d="M 128 288 L 136 288 L 136 303.5 L 134.5 303 Q 129.5 303.5 129 299.5 L 128 288 Z " /><path fill="rgb(70,60,75)" stroke="rgb(70,60,75)" stroke-width="1" opacity="0.996078431372549" d="M 376 296 L 384 296.5 L 379.5 303 L 376.5 304 L 376 296 Z " /><path fill="rgb(70,60,75)" stroke="rgb(70,60,75)" stroke-width="1" opacity="0.996078431372549" d="M 448.5 296 Q 459.75 292.25 456 303.5 L 454.5 303 Q 449.5 303.5 449 299.5 L 448.5 296 Z " /><path fill="rgb(70,60,75)" stroke="rgb(70,60,75)" stroke-width="1" opacity="0.996078431372549" d="M 42.5 416 Q 47.25 415.25 48 418.5 L 48 495.5 Q 47.437 497 40 496 L 40 418.5 L 42.5 416 Z " /><path fill="rgb(70,60,75)" stroke="rgb(70,60,75)" stroke-width="1" opacity="0.996078431372549" d="M 146.5 416 Q 151.25 415.25 152 418.5 L 152 495.5 Q 151.437 497 144 496 L 144 418.5 L 146.5 416 Z " /><path fill="rgb(85,90,109)" stroke="rgb(85,90,109)" stroke-width="1" opacity="0.996078431372549" d="M 234.5 256 L 238 256.5 L 234.5 257 L 234.5 256 Z " /><path fill="rgb(85,90,109)" stroke="rgb(85,90,109)" stroke-width="1" opacity="0.996078431372549" d="M 274.5 256 L 278 256.5 L 274.5 257 L 274.5 256 Z " /><path fill="rgb(85,90,109)" stroke="rgb(85,90,109)" stroke-width="1" opacity="0.996078431372549" d="M 394.5 256 L 397 256.5 L 394.5 257 L 394.5 256 Z " /><path fill="rgb(85,90,109)" stroke="rgb(85,90,109)" stroke-width="1" opacity="0.996078431372549" d="M 435.5 256 L 438 256.5 L 435.5 257 L 435.5 256 Z " /><path fill="rgb(85,90,109)" stroke="rgb(85,90,109)" stroke-width="1" opacity="0.996078431372549" d="M 227.5 259 L 226.5 261 L 227.5 259 Z " /><path fill="rgb(85,90,109)" stroke="rgb(85,90,109)" stroke-width="1" opacity="0.996078431372549" d="M 284.5 259 L 285.5 261 L 284.5 259 Z " /><path fill="rgb(85,90,109)" stroke="rgb(85,90,109)" stroke-width="1" opacity="0.996078431372549" d="M 387.5 259 L 386.5 261 L 387.5 259 Z " /><path fill="rgb(85,90,109)" stroke="rgb(85,90,109)" stroke-width="1" opacity="0.996078431372549" d="M 444.5 259 L 445.5 261 L 444.5 259 Z " /><path fill="rgb(85,90,109)" stroke="rgb(85,90,109)" stroke-width="1" opacity="0.996078431372549" d="M 224.5 261 L 221.5 265 L 224.5 261 Z " /><path fill="rgb(85,90,109)" stroke="rgb(85,90,109)" stroke-width="1" opacity="0.996078431372549" d="M 287.5 261 L 290.5 265 L 287.5 261 Z " /><path fill="rgb(85,90,109)" stroke="rgb(85,90,109)" stroke-width="1" opacity="0.996078431372549" d="M 384.5 261 L 381.5 265 L 384.5 261 Z " /><path fill="rgb(85,90,109)" stroke="rgb(85,90,109)" stroke-width="1" opacity="0.996078431372549" d="M 447.5 261 L 450.5 265 L 447.5 261 Z " /><path fill="rgb(85,90,109)" stroke="rgb(85,90,109)" stroke-width="1" opacity="0.996078431372549" d="M 220.5 266 L 219.5 268 L 220.5 266 Z " /><path fill="rgb(85,90,109)" stroke="rgb(85,90,109)" stroke-width="1" opacity="0.996078431372549" d="M 291.5 266 L 292.5 268 L 291.5 266 Z " /><path fill="rgb(85,90,109)" stroke="rgb(85,90,109)" stroke-width="1" opacity="0.996078431372549" d="M 380.5 266 L 379.5 268 L 380.5 266 Z " /><path fill="rgb(85,90,109)" stroke="rgb(85,90,109)" stroke-width="1" opacity="0.996078431372549" d="M 451.5 266 L 452.5 268 L 451.5 266 Z " /><path fill="rgb(85,90,109)" stroke="rgb(85,90,109)" stroke-width="1" opacity="0.996078431372549" d="M 216.5 274 L 217 276.5 L 216 276.5 L 216.5 274 Z " /><path fill="rgb(85,90,109)" stroke="rgb(85,90,109)" stroke-width="1" opacity="0.996078431372549" d="M 295.5 274 L 296 276.5 L 295 276.5 L 295.5 274 Z " /><path fill="rgb(85,90,109)" stroke="rgb(85,90,109)" stroke-width="1" opacity="0.996078431372549" d="M 376.5 274 L 377 276.5 L 376 276.5 L 376.5 274 Z " /><path fill="rgb(85,90,109)" stroke="rgb(85,90,109)" stroke-width="1" opacity="0.996078431372549" d="M 455.5 274 L 456 276.5 L 455 276.5 L 455.5 274 Z " /><path fill="rgb(85,90,109)" stroke="rgb(85,90,109)" stroke-width="1" opacity="0.996078431372549" d="M 228.5 280 L 230 280.5 L 227.5 282 L 228.5 280 Z " /><path fill="rgb(85,90,109)" stroke="rgb(85,90,109)" stroke-width="1" opacity="0.996078431372549" d="M 282.5 280 L 285 281.5 L 283.5 281 L 282.5 280 Z " /><path fill="rgb(85,90,109)" stroke="rgb(85,90,109)" stroke-width="1" opacity="0.996078431372549" d="M 225.5 283 L 225 284.5 L 224.5 286 L 224 284.5 L 225.5 283 Z " /><path fill="rgb(85,90,109)" stroke="rgb(85,90,109)" stroke-width="1" opacity="0.996078431372549" d="M 286.5 283 L 288 285.5 L 287 285.5 L 286.5 283 Z " /><path fill="rgb(85,90,109)" stroke="rgb(85,90,109)" stroke-width="1" opacity="0.996078431372549" d="M 62.5 300 L 60.5 303 L 62.5 300 Z " /><path fill="rgb(85,90,109)" stroke="rgb(85,90,109)" stroke-width="1" opacity="0.996078431372549" d="M 129.5 300 L 131.5 303 L 129.5 300 Z " /><path fill="rgb(85,90,109)" stroke="rgb(85,90,109)" stroke-width="1" opacity="0.996078431372549" d="M 222.5 300 L 220.5 303 L 222.5 300 Z " /><path fill="rgb(85,90,109)" stroke="rgb(85,90,109)" stroke-width="1" opacity="0.996078431372549" d="M 289.5 300 L 291.5 303 L 289.5 300 Z " /><path fill="rgb(85,90,109)" stroke="rgb(85,90,109)" stroke-width="1" opacity="0.996078431372549" d="M 382.5 300 L 380.5 303 L 382.5 300 Z " /><path fill="rgb(85,90,109)" stroke="rgb(85,90,109)" stroke-width="1" opacity="0.996078431372549" d="M 449.5 300 L 451.5 303 L 449.5 300 Z " /><path fill="rgb(85,90,109)" stroke="rgb(85,90,109)" stroke-width="1" opacity="0.996078431372549" d="M 56.5 368 L 79.5 368 L 80 370.5 Q 81.55 377.45 86.5 381 Q 90.25 384.75 98.5 384 Q 105.45 382.45 109 377.5 L 112 368 Q 149.274 363.91 164 383.5 Q 173.275 392.725 176 408.5 L 176 496 L 152.5 496 L 152 495.5 L 152 418.5 Q 151.25 415.25 146.5 416 L 144 418.5 L 144 496 L 99 495.5 L 103 492.5 L 104 485.5 L 100.5 481 L 93.5 480 L 89 483.5 L 88 490.5 L 91.5 495 L 93 495.5 L 48 496 L 48 418.5 L 45.5 416 Q 40.75 415.25 40 418.5 L 40 495.5 L 39.5 496 L 16 496 L 16 408.5 Q 19.537 390.037 31.5 380 Q 40.725 370.725 56.5 368 Z M 94 400 L 92 401 L 88 406 L 89 413 L 94 416 L 101 415 L 104 411 L 103 404 Q 101 399 94 400 Z M 94 440 L 92 441 L 88 446 L 89 453 L 94 456 L 101 455 L 104 451 L 103 444 Q 101 439 94 440 Z " /><path fill="rgb(241,90,48)" stroke="rgb(241,90,48)" stroke-width="1" opacity="0.9921568627450981" d="M 60.5 245 L 131.5 245 L 136 249.5 L 136 288 L 56 288 L 56 249.5 L 60.5 245 Z " /><path fill="rgb(241,90,48)" stroke="rgb(241,90,48)" stroke-width="1" opacity="0.9921568627450981" d="M 376 280 L 455.5 280 L 456 280.5 L 456 295.5 L 458.5 296 L 463 298.5 Q 465.625 304.375 464 314.5 L 460.5 319 L 456 320 L 456 296.5 L 455.5 296 L 376 296 L 376 319.5 L 373.5 320 L 369 317.5 Q 366.375 311.625 368 301.5 L 370.5 297 L 376 296 L 376 280 Z " /><path fill="rgb(241,90,48)" stroke="rgb(241,90,48)" stroke-width="1" opacity="0.9921568627450981" d="M 53.5 296 L 56 296.5 L 56 320 L 49 317.5 Q 46.375 311.625 48 301.5 L 50.5 297 L 53.5 296 Z " /><path fill="rgb(241,90,48)" stroke="rgb(241,90,48)" stroke-width="1" opacity="0.9921568627450981" d="M 136 296 L 143 298.5 Q 145.625 304.375 144 314.5 L 140.5 319 L 136 320 L 136 296 Z " /><path fill="rgb(241,90,48)" stroke="rgb(241,90,48)" stroke-width="1" opacity="0.9921568627450981" d="M 213.5 296 L 216 296.5 L 216 320 L 209 317.5 Q 206.375 311.625 208 301.5 L 210.5 297 L 213.5 296 Z " /><path fill="rgb(241,90,48)" stroke="rgb(241,90,48)" stroke-width="1" opacity="0.9921568627450981" d="M 296 296 L 303 298.5 Q 305.625 304.375 304 314.5 L 300.5 319 L 296 320 L 296 296 Z " /><path fill="rgb(241,90,48)" stroke="rgb(241,90,48)" stroke-width="1" opacity="0.9921568627450981" d="M 80 352 L 112 352 L 112 370.5 Q 110.45 377.45 105.5 381 Q 101.75 384.75 93.5 384 Q 86.55 382.45 83 377.5 Q 77.15 368.718 80 352 Z " /><path fill="rgb(241,90,48)" stroke="rgb(241,90,48)" stroke-width="1" opacity="0.9921568627450981" d="M 240 352 L 272 352 L 272 370.5 Q 270.45 377.45 265.5 381 L 264 381.5 L 264 495.5 L 263.5 496 L 248 496 L 248 381.5 L 246.5 381 Q 236.368 372.909 240 352 Z " /><path fill="rgb(241,90,48)" stroke="rgb(241,90,48)" stroke-width="1" opacity="0.9921568627450981" d="M 400 352 L 432 352 L 432 368 L 400 368 L 400 352 Z " /><path fill="rgb(241,90,48)" stroke="rgb(241,90,48)" stroke-width="1" opacity="0.9921568627450981" d="M 381.5 364 Q 386.75 362.75 388 365.5 Q 383.566 396.434 399.5 407 Q 406.176 413.324 420.5 412 Q 431.75 409.25 438 401.5 L 444 388.5 L 444 365.5 L 445.5 364 Q 450.75 362.75 452 365.5 Q 456.404 401.904 436.5 414 Q 428.071 421.571 410.5 420 Q 393.964 416.536 386 404.5 Q 376.571 391.429 380 365.5 L 381.5 364 Z " /><path fill="rgb(241,90,48)" stroke="rgb(241,90,48)" stroke-width="1" opacity="0.9921568627450981" d="M 93.5 400 Q 101.094 398.906 103 403.5 L 104 410.5 L 100.5 415 L 93.5 416 L 89 412.5 L 88 405.5 L 91.5 401 L 93.5 400 Z " /><path fill="rgb(241,90,48)" stroke="rgb(241,90,48)" stroke-width="1" opacity="0.9921568627450981" d="M 363.5 416 L 367 417 L 368 419.5 L 368 467 L 464 467 L 464 419.5 L 465 417 L 468.5 416 L 471 417 L 472 419.5 L 472 496 L 360 496 L 360 419.5 L 361 417 L 363.5 416 Z " /><path fill="rgb(241,90,48)" stroke="rgb(241,90,48)" stroke-width="1" opacity="0.9921568627450981" d="M 93.5 440 Q 101.094 438.906 103 443.5 L 104 450.5 L 100.5 455 L 93.5 456 L 89 452.5 L 88 445.5 L 91.5 441 L 93.5 440 Z " /><path fill="rgb(241,90,48)" stroke="rgb(241,90,48)" stroke-width="1" opacity="0.9921568627450981" d="M 93.5 480 Q 101.094 478.906 103 483.5 L 104 490.5 L 100.5 495 L 93.5 496 L 89 492.5 L 88 485.5 L 91.5 481 L 93.5 480 Z " /></svg>