<svg width="512" height="512" version="1.1" xmlns="http://www.w3.org/2000/svg" desc="Created with imagetracer.js version 1.2.6" ><path fill="rgb(0,0,0)" stroke="rgb(0,0,0)" stroke-width="1" opacity="0" d="M 0 0 L 229 0.5 L 226 3.5 Q 225.654 23.654 216 34.5 L 215 49.5 Q 217.302 65.698 225 76.5 L 225 89.5 Q 215.509 101.509 215 122.5 L 218.5 128 L 226.5 129 L 230 126.5 Q 231.1 108.1 240 97.5 L 242 81.5 Q 240.25 63.75 232 52.5 L 232 38.5 Q 240.997 26.997 242 7.5 Q 241.65 2.35 238 0.5 L 512 0 L 512 512 L 273.5 512 L 273.5 511 Q 332.348 509.848 381.5 499 Q 426.1 492.6 452 467.5 L 455 457.5 Q 452.705 446.795 444.5 442 Q 404.598 417.695 346 413 L 358.5 396 Q 437.585 392.085 477 348.5 Q 503.194 320.194 506 268.5 Q 501.301 240.699 482.5 227 Q 468.93 214.07 441.5 215 Q 420.655 217.655 407.5 228 L 407 194.5 L 399.5 184 Q 370.758 163.242 327.5 157 Q 273.062 146.938 206.5 149 Q 151.842 150.842 106.5 162 Q 74.679 169.179 54 187.5 Q 45.528 200.528 49 225.5 Q 52.6 347.099 111 413 Q 71.402 417.616 38.5 430 Q 21.506 436.006 10 447.5 Q 5 451.5 6 461.5 Q 8.5 469.5 14.5 474 Q 41.15 492.35 79.5 499 Q 129.296 509.704 188 511.5 L 0 512 L 0 0 Z M 189 28 L 187 29 L 183 33 Q 183 47 174 54 L 172 65 Q 173 80 182 89 L 182 99 Q 173 106 172 122 L 174 128 L 178 130 L 186 129 L 188 127 L 190 116 Q 197 109 199 98 Q 199 78 189 69 L 189 61 Q 197 53 199 40 Q 200 33 197 31 Q 195 27 189 28 Z M 274 28 L 272 29 L 269 32 L 267 43 Q 260 49 258 61 Q 258 80 268 90 L 267 100 Q 260 106 258 118 L 259 127 Q 261 131 270 130 L 274 126 L 275 118 Q 281 111 284 101 Q 285 90 283 83 Q 277 76 274 66 L 275 60 Q 282 54 284 44 L 284 33 Q 282 27 274 28 Z " /><path fill="rgb(0,0,0)" stroke="rgb(0,0,0)" stroke-width="1" opacity="0" d="M 444.5 231 Q 469.524 231.976 480 247.5 Q 490.328 258.672 490 280.5 Q 480.635 323.635 451.5 347 Q 420.823 373.565 370 379 Q 399.366 329.135 406 255.5 Q 410.341 245.841 418.5 240 Q 429.167 233.167 444.5 231 Z " /><path fill="rgb(159,135,106)" stroke="rgb(159,135,106)" stroke-width="1" opacity="0.984313725490196" d="M 195.5 189 Q 317.488 181.012 393 219.5 Q 319.312 255.812 203.5 250 Q 119.865 248.635 64 219.5 Q 116.515 191.015 195.5 189 Z " /><path fill="rgb(159,135,106)" stroke="rgb(159,135,106)" stroke-width="1" opacity="0.984313725490196" d="M 441.5 215 Q 478.97 214.53 493 237.5 Q 507.455 252.545 506 283.5 Q 496.887 332.887 465.5 360 Q 426.484 392.484 358.5 396 L 360 393.5 L 369.5 379 Q 433.157 372.157 465 333.5 Q 486.547 311.547 490 271.5 Q 486.591 250.409 472.5 240 Q 463.244 230.756 444.5 231 Q 421.068 233.568 410 248.5 L 406.5 255 L 406 246.5 L 407 245.5 L 407 228.5 L 408.5 227 Q 421.625 217.625 441.5 215 Z " /><path fill="rgb(159,135,106)" stroke="rgb(159,135,106)" stroke-width="1" opacity="0.984313725490196" d="M 50.5 248 L 51 250.5 L 50 250.5 L 50.5 248 Z " /><path fill="rgb(159,135,106)" stroke="rgb(159,135,106)" stroke-width="1" opacity="0.984313725490196" d="M 84.5 373 L 85.5 375 L 84.5 373 Z " /><path fill="rgb(159,135,106)" stroke="rgb(159,135,106)" stroke-width="1" opacity="0.984313725490196" d="M 96.5 392 L 97.5 394 L 96.5 392 Z " /><path fill="rgb(159,135,106)" stroke="rgb(159,135,106)" stroke-width="1" opacity="0.984313725490196" d="M 345.5 412 Q 385.851 417.149 419.5 429 Q 439.849 435.151 452 449.5 Q 454.958 453.542 455 460.5 Q 451.95 470.95 443.5 476 Q 401.018 500.018 340.5 506 Q 270.905 515.405 188.5 512 Q 124.613 509.387 70.5 497 Q 33.486 490.014 10 469.5 Q 5 465.5 6 455.5 Q 8.11 448.11 13.5 444 Q 53.302 418.302 113.5 413 L 120.5 421 Q 142.85 444.15 177.5 455 L 193.5 458 L 259.5 459 Q 317.045 450.045 345.5 412 Z " /><path fill="rgb(221,210,196)" stroke="rgb(221,210,196)" stroke-width="1" opacity="0.9882352941176471" d="M 229.5 0 Q 239 -2 241 3.5 L 242 8.5 Q 240.733 27.233 232 38.5 L 232 52.5 Q 241.249 64.251 242 84.5 L 241 85.5 L 240 97.5 L 232 113.5 Q 233.4 123.9 228.5 128 L 220.5 129 L 217 126.5 Q 214 123.5 215 116.5 Q 217.163 100.163 225 89.5 L 225 76.5 Q 214.423 64.577 215 41.5 Q 217.302 25.302 225 14.5 L 226 3.5 L 229.5 0 Z " /><path fill="rgb(221,210,196)" stroke="rgb(221,210,196)" stroke-width="1" opacity="0.9882352941176471" d="M 188.5 28 Q 195.042 26.958 197 30.5 Q 199.833 33.167 199 39.5 Q 196.805 52.805 189 60.5 L 189 68.5 Q 199.262 77.738 199 97.5 Q 197.17 109.17 190 115.5 L 188 126.5 L 185.5 129 L 177.5 130 L 174 127.5 L 172 121.5 Q 173.3 106.3 182 98.5 L 182 88.5 Q 173.139 80.361 172 64.5 L 174 53.5 Q 182.548 47.048 183 32.5 L 186.5 29 L 188.5 28 Z " /><path fill="rgb(221,210,196)" stroke="rgb(221,210,196)" stroke-width="1" opacity="0.9882352941176471" d="M 273.5 28 Q 282.125 26.875 284 32.5 L 284 43.5 Q 281.522 53.522 275 59.5 L 274 65.5 Q 276.845 75.655 283 82.5 Q 285.4 89.6 284 100.5 Q 281.155 110.655 275 117.5 L 274 125.5 L 269.5 130 Q 261.188 131.313 259 126.5 L 258 117.5 Q 259.607 105.607 267 99.5 L 268 89.5 Q 257.738 80.262 258 60.5 Q 259.83 48.83 267 42.5 L 269 31.5 L 271.5 29 L 273.5 28 Z " /><path fill="rgb(221,210,196)" stroke="rgb(221,210,196)" stroke-width="1" opacity="0.9882352941176471" d="M 206.5 149 Q 273.062 146.938 327.5 157 Q 373.164 163.336 402 186.5 Q 408.731 190.769 407 203.5 Q 403.417 212.917 395.5 218 L 392.5 219 Q 324.909 184.591 219.5 188 Q 125.66 187.66 63.5 219 L 54 210.5 L 50.5 203 L 49.5 226 L 49 200.5 Q 50.598 188.598 58.5 183 Q 116.187 149.687 206.5 149 Z " /><path fill="rgb(217,204,188)" stroke="rgb(217,204,188)" stroke-width="1" opacity="1" d="M 219.5 188 L 236 188.5 L 219.5 189 L 219.5 188 Z " /><path fill="rgb(217,204,188)" stroke="rgb(217,204,188)" stroke-width="1" opacity="1" d="M 191.5 189 L 195 189.5 L 191.5 190 L 191.5 189 Z " /><path fill="rgb(217,204,188)" stroke="rgb(217,204,188)" stroke-width="1" opacity="1" d="M 264.5 189 L 267 189.5 L 264.5 190 L 264.5 189 Z " /><path fill="rgb(217,204,188)" stroke="rgb(217,204,188)" stroke-width="1" opacity="1" d="M 177.5 190 L 180 190.5 L 177.5 191 L 177.5 190 Z " /><path fill="rgb(217,204,188)" stroke="rgb(217,204,188)" stroke-width="1" opacity="1" d="M 50.5 203 Q 53 211.5 59.5 216 Q 86.901 236.599 129.5 242 Q 185.999 252.501 255.5 250 Q 307.5 248 350.5 237 Q 384.75 230.75 404 209.5 L 406.5 204 L 407 245.5 Q 398.25 367.75 328.5 429 Q 297.365 462.365 229.5 459 Q 152.295 461.205 119 419.5 L 113.5 413 L 106 406.5 L 97 394.5 Q 99.25 393.25 96.5 392 Q 94.25 392.75 95 390.5 Q 89.375 387.625 90 381 Q 87.333 382.125 88 379.5 L 87.5 377 Q 84.875 377.833 86 374.5 L 83 371.5 Q 80.5 360 74 352.5 L 74 349.5 L 71 345.5 Q 73.5 344 70 342.5 L 68 337.5 Q 70.5 336 67 334.5 Q 67.462 326.038 63 322.5 L 63 320.5 L 57 299.5 L 57 297.5 L 56 294.5 L 56 292.5 L 55 289.5 L 55 287.5 L 53 277.5 L 53 275.5 L 52 270.5 L 52 266.5 L 51 262.5 L 51 260.5 Q 53 253.5 50 251.5 L 51 248.5 L 50 244.5 L 50 242.5 L 50.5 203 Z " /></svg>