<svg width="512" height="512" version="1.1" xmlns="http://www.w3.org/2000/svg" desc="Created with imagetracer.js version 1.2.6" ><path fill="rgb(254,127,108)" stroke="rgb(254,127,108)" stroke-width="1" opacity="0.9921568627450981" d="M 393.5 181 Q 458.919 179.081 486 215.5 Q 514.795 241.705 512 299.5 Q 504.646 342.146 477.5 365 Q 451.295 393.795 393.5 391 Q 350.948 383.052 328 355.5 Q 300.743 330.257 302 276.5 Q 308.587 230.587 337.5 207 Q 358.862 187.362 393.5 181 Z M 400 211 Q 375 214 361 227 Q 337 244 332 279 Q 331 309 343 326 L 345 327 L 448 224 Q 431 210 400 211 Z M 470 245 L 366 349 Q 379 358 400 361 Q 435 362 453 346 Q 476 329 482 294 Q 483 262 470 245 Z " /><path fill="rgb(254,127,108)" stroke="rgb(254,127,108)" stroke-width="1" opacity="0.9921568627450981" d="M 188 347 L 278 347 L 278 377 L 188 377 L 188 347 Z " /><path fill="rgb(254,127,108)" stroke="rgb(254,127,108)" stroke-width="1" opacity="0.9921568627450981" d="M 188 407 L 278 407 L 278 437 L 188 437 L 188 407 Z " /><path fill="rgb(218,216,240)" stroke="rgb(218,216,240)" stroke-width="1" opacity="1" d="M 177.5 75 L 181 75.5 L 177.5 76 L 177.5 75 Z " /><path fill="rgb(218,216,240)" stroke="rgb(218,216,240)" stroke-width="1" opacity="1" d="M 192.5 75 L 197 75.5 L 192.5 76 L 192.5 75 Z " /><path fill="rgb(218,216,240)" stroke="rgb(218,216,240)" stroke-width="1" opacity="1" d="M 127.5 94 L 126.5 96 L 127.5 94 Z " /><path fill="rgb(218,216,240)" stroke="rgb(218,216,240)" stroke-width="1" opacity="1" d="M 250.5 95 L 251.5 97 L 250.5 95 Z " /><path fill="rgb(218,216,240)" stroke="rgb(218,216,240)" stroke-width="1" opacity="1" d="M 123.5 97 L 122.5 99 L 123.5 97 Z " /><path fill="rgb(218,216,240)" stroke="rgb(218,216,240)" stroke-width="1" opacity="1" d="M 255.5 99 L 257.5 102 L 255.5 99 Z " /><path fill="rgb(218,216,240)" stroke="rgb(218,216,240)" stroke-width="1" opacity="1" d="M 115.5 104 L 112.5 108 L 115.5 104 Z " /><path fill="rgb(218,216,240)" stroke="rgb(218,216,240)" stroke-width="1" opacity="1" d="M 188.5 106 L 189.5 108 L 188.5 106 Z " /><path fill="rgb(218,216,240)" stroke="rgb(218,216,240)" stroke-width="1" opacity="1" d="M 267.5 111 L 269.5 114 L 267.5 111 Z " /><path fill="rgb(218,216,240)" stroke="rgb(218,216,240)" stroke-width="1" opacity="1" d="M 107.5 113 L 106.5 115 L 107.5 113 Z " /><path fill="rgb(218,216,240)" stroke="rgb(218,216,240)" stroke-width="1" opacity="1" d="M 150.5 115 L 151.5 117 L 150.5 115 Z " /><path fill="rgb(218,216,240)" stroke="rgb(218,216,240)" stroke-width="1" opacity="1" d="M 271.5 116 L 272.5 118 L 271.5 116 Z " /><path fill="rgb(218,216,240)" stroke="rgb(218,216,240)" stroke-width="1" opacity="1" d="M 234.5 120 L 235.5 122 L 234.5 120 Z " /><path fill="rgb(218,216,240)" stroke="rgb(218,216,240)" stroke-width="1" opacity="1" d="M 274.5 120 L 275.5 122 L 274.5 120 Z " /><path fill="rgb(218,216,240)" stroke="rgb(218,216,240)" stroke-width="1" opacity="1" d="M 141.5 121 L 140.5 123 L 141.5 121 Z " /><path fill="rgb(218,216,240)" stroke="rgb(218,216,240)" stroke-width="1" opacity="1" d="M 239.5 124 L 243.5 129 L 239.5 124 Z " /><path fill="rgb(218,216,240)" stroke="rgb(218,216,240)" stroke-width="1" opacity="1" d="M 131.5 131 L 129.5 134 L 131.5 131 Z " /><path fill="rgb(218,216,240)" stroke="rgb(218,216,240)" stroke-width="1" opacity="1" d="M 247.5 133 L 248.5 135 L 247.5 133 Z " /><path fill="rgb(218,216,240)" stroke="rgb(218,216,240)" stroke-width="1" opacity="1" d="M 146.5 138 L 147 140.5 L 146 140.5 L 146.5 138 Z " /><path fill="rgb(218,216,240)" stroke="rgb(218,216,240)" stroke-width="1" opacity="1" d="M 145.5 145 L 146 148.5 L 145 148.5 L 145.5 145 Z " /><path fill="rgb(218,216,240)" stroke="rgb(218,216,240)" stroke-width="1" opacity="1" d="M 175.5 147 L 176 149.5 L 175 149.5 L 175.5 147 Z " /><path fill="rgb(218,216,240)" stroke="rgb(218,216,240)" stroke-width="1" opacity="1" d="M 202.5 153 L 203 155.5 L 202 155.5 L 202.5 153 Z " /><path fill="rgb(218,216,240)" stroke="rgb(218,216,240)" stroke-width="1" opacity="1" d="M 144.5 154 L 145 158.5 L 144 158.5 L 144.5 154 Z " /><path fill="rgb(218,216,240)" stroke="rgb(218,216,240)" stroke-width="1" opacity="1" d="M 174.5 155 L 175 158.5 L 174 158.5 L 174.5 155 Z " /><path fill="rgb(218,216,240)" stroke="rgb(218,216,240)" stroke-width="1" opacity="1" d="M 232.5 158 L 233 161.5 L 232 161.5 L 232.5 158 Z " /><path fill="rgb(218,216,240)" stroke="rgb(218,216,240)" stroke-width="1" opacity="1" d="M 84.5 164 L 85 166.5 L 84 166.5 L 84.5 164 Z " /><path fill="rgb(218,216,240)" stroke="rgb(218,216,240)" stroke-width="1" opacity="1" d="M 83.5 174 L 84 185.5 L 83 185.5 L 83.5 174 Z " /><path fill="rgb(218,216,240)" stroke="rgb(218,216,240)" stroke-width="1" opacity="1" d="M 84.5 193 L 85 195.5 L 84 195.5 L 84.5 193 Z " /><path fill="rgb(218,216,240)" stroke="rgb(218,216,240)" stroke-width="1" opacity="1" d="M 232.5 198 L 233 201.5 L 232 201.5 L 232.5 198 Z " /><path fill="rgb(218,216,240)" stroke="rgb(218,216,240)" stroke-width="1" opacity="1" d="M 144.5 201 L 145 204.5 L 144 204.5 L 144.5 201 Z " /><path fill="rgb(218,216,240)" stroke="rgb(218,216,240)" stroke-width="1" opacity="1" d="M 174.5 201 L 175 204.5 L 174 204.5 L 174.5 201 Z " /><path fill="rgb(218,216,240)" stroke="rgb(218,216,240)" stroke-width="1" opacity="1" d="M 202.5 204 L 203 206.5 L 202 206.5 L 202.5 204 Z " /><path fill="rgb(218,216,240)" stroke="rgb(218,216,240)" stroke-width="1" opacity="1" d="M 175.5 210 L 176 212.5 L 175 212.5 L 175.5 210 Z " /><path fill="rgb(218,216,240)" stroke="rgb(218,216,240)" stroke-width="1" opacity="1" d="M 145.5 211 L 146 214.5 L 145 214.5 L 145.5 211 Z " /><path fill="rgb(218,216,240)" stroke="rgb(218,216,240)" stroke-width="1" opacity="1" d="M 410.5 211 L 415 211.5 L 410.5 212 L 410.5 211 Z " /><path fill="rgb(218,216,240)" stroke="rgb(218,216,240)" stroke-width="1" opacity="1" d="M 146.5 219 L 147 221.5 L 146 221.5 L 146.5 219 Z " /><path fill="rgb(218,216,240)" stroke="rgb(218,216,240)" stroke-width="1" opacity="1" d="M 248.5 225 L 247.5 227 L 248.5 225 Z " /><path fill="rgb(218,216,240)" stroke="rgb(218,216,240)" stroke-width="1" opacity="1" d="M 129.5 226 L 131.5 229 L 129.5 226 Z " /><path fill="rgb(218,216,240)" stroke="rgb(218,216,240)" stroke-width="1" opacity="1" d="M 243.5 231 L 239.5 236 L 243.5 231 Z " /><path fill="rgb(218,216,240)" stroke="rgb(218,216,240)" stroke-width="1" opacity="1" d="M 140.5 237 L 141.5 239 L 140.5 237 Z " /><path fill="rgb(218,216,240)" stroke="rgb(218,216,240)" stroke-width="1" opacity="1" d="M 235.5 238 L 234.5 240 L 235.5 238 Z " /><path fill="rgb(218,216,240)" stroke="rgb(218,216,240)" stroke-width="1" opacity="1" d="M 275.5 238 L 274.5 240 L 275.5 238 Z " /><path fill="rgb(218,216,240)" stroke="rgb(218,216,240)" stroke-width="1" opacity="1" d="M 272.5 242 L 271.5 244 L 272.5 242 Z " /><path fill="rgb(218,216,240)" stroke="rgb(218,216,240)" stroke-width="1" opacity="1" d="M 151.5 243 L 150.5 245 L 151.5 243 Z " /><path fill="rgb(218,216,240)" stroke="rgb(218,216,240)" stroke-width="1" opacity="1" d="M 106.5 245 L 107.5 247 L 106.5 245 Z " /><path fill="rgb(218,216,240)" stroke="rgb(218,216,240)" stroke-width="1" opacity="1" d="M 269.5 246 L 267.5 249 L 269.5 246 Z " /><path fill="rgb(218,216,240)" stroke="rgb(218,216,240)" stroke-width="1" opacity="1" d="M 189.5 252 L 188.5 254 L 189.5 252 Z " /><path fill="rgb(218,216,240)" stroke="rgb(218,216,240)" stroke-width="1" opacity="1" d="M 113.5 253 L 115.5 256 L 113.5 253 Z " /><path fill="rgb(218,216,240)" stroke="rgb(218,216,240)" stroke-width="1" opacity="1" d="M 257.5 258 L 255.5 261 L 257.5 258 Z " /><path fill="rgb(218,216,240)" stroke="rgb(218,216,240)" stroke-width="1" opacity="1" d="M 122.5 261 L 123.5 263 L 122.5 261 Z " /><path fill="rgb(218,216,240)" stroke="rgb(218,216,240)" stroke-width="1" opacity="1" d="M 251.5 263 L 250.5 265 L 251.5 263 Z " /><path fill="rgb(218,216,240)" stroke="rgb(218,216,240)" stroke-width="1" opacity="1" d="M 126.5 264 L 127.5 266 L 126.5 264 Z " /><path fill="rgb(218,216,240)" stroke="rgb(218,216,240)" stroke-width="1" opacity="1" d="M 481.5 279 L 482 283.5 L 481 283.5 L 481.5 279 Z " /><path fill="rgb(218,216,240)" stroke="rgb(218,216,240)" stroke-width="1" opacity="1" d="M 177.5 284 L 181 284.5 L 177.5 285 L 177.5 284 Z " /><path fill="rgb(218,216,240)" stroke="rgb(218,216,240)" stroke-width="1" opacity="1" d="M 192.5 284 L 197 284.5 L 192.5 285 L 192.5 284 Z " /><path fill="rgb(218,216,240)" stroke="rgb(218,216,240)" stroke-width="1" opacity="1" d="M 481.5 289 L 482 293.5 L 481 293.5 L 481.5 289 Z " /><path fill="rgb(218,216,240)" stroke="rgb(218,216,240)" stroke-width="1" opacity="1" d="M 465.5 332 L 464.5 334 L 465.5 332 Z " /><path fill="rgb(218,216,240)" stroke="rgb(218,216,240)" stroke-width="1" opacity="1" d="M 454.5 343 L 452.5 346 L 454.5 343 Z " /><path fill="rgb(218,216,240)" stroke="rgb(218,216,240)" stroke-width="1" opacity="1" d="M 98.5 347 L 99 376.5 L 98 376.5 L 98.5 347 Z " /><path fill="rgb(218,216,240)" stroke="rgb(218,216,240)" stroke-width="1" opacity="1" d="M 411.5 360 L 415 360.5 L 411.5 361 L 411.5 360 Z " /><path fill="rgb(218,216,240)" stroke="rgb(218,216,240)" stroke-width="1" opacity="1" d="M 98.5 407 L 99 436.5 L 98 436.5 L 98.5 407 Z " /><path fill="rgb(0,0,0)" stroke="rgb(0,0,0)" stroke-width="1" opacity="0" d="M 342.5 0 L 512 0 L 512 271.5 L 511 271.5 Q 504.438 229.062 477.5 207 Q 451.295 178.205 393.5 181 L 377.5 185 L 377 35.5 Q 372.668 18.332 360.5 9 Q 353.775 2.725 342.5 1 L 342.5 0 Z " /><path fill="rgb(0,0,0)" stroke="rgb(0,0,0)" stroke-width="1" opacity="0" d="M 511.5 300 L 512 512 L 342 511.5 Q 359.101 507.601 368 495.5 Q 374.25 487.75 377 476.5 L 377.5 387 Q 394.3 393.7 420.5 391 Q 463.146 383.646 486 356.5 Q 506.252 335.752 511.5 300 Z " /><path fill="rgb(254,244,244)" stroke="rgb(254,244,244)" stroke-width="1" opacity="1" d="M 184.5 75 Q 188.25 74.25 189 76.5 L 188.5 106 L 188 76 Q 183.625 77 184.5 75 Z " /><path fill="rgb(254,244,244)" stroke="rgb(254,244,244)" stroke-width="1" opacity="1" d="M 119.5 101 L 116.5 105 L 119.5 101 Z " /><path fill="rgb(254,244,244)" stroke="rgb(254,244,244)" stroke-width="1" opacity="1" d="M 113.5 107 L 110.5 111 L 113.5 107 Z " /><path fill="rgb(254,244,244)" stroke="rgb(254,244,244)" stroke-width="1" opacity="1" d="M 106.5 115 L 105.5 117 L 106.5 115 Z " /><path fill="rgb(254,244,244)" stroke="rgb(254,244,244)" stroke-width="1" opacity="1" d="M 138.5 123 L 136.5 126 L 138.5 123 Z " /><path fill="rgb(254,244,244)" stroke="rgb(254,244,244)" stroke-width="1" opacity="1" d="M 133.5 128 L 131.5 131 L 133.5 128 Z " /><path fill="rgb(254,244,244)" stroke="rgb(254,244,244)" stroke-width="1" opacity="1" d="M 188.5 166 L 189 193.5 L 188 193.5 L 188.5 166 Z " /><path fill="rgb(254,244,244)" stroke="rgb(254,244,244)" stroke-width="1" opacity="1" d="M 399.5 211 L 406 211.5 L 399.5 212 L 399.5 211 Z " /><path fill="rgb(254,244,244)" stroke="rgb(254,244,244)" stroke-width="1" opacity="1" d="M 392.5 212 L 395 212.5 L 392.5 213 L 392.5 212 Z " /><path fill="rgb(254,244,244)" stroke="rgb(254,244,244)" stroke-width="1" opacity="1" d="M 374.5 218 L 376 218.5 L 373.5 220 L 374.5 218 Z " /><path fill="rgb(254,244,244)" stroke="rgb(254,244,244)" stroke-width="1" opacity="1" d="M 367.5 222 L 366.5 224 L 367.5 222 Z " /><path fill="rgb(254,244,244)" stroke="rgb(254,244,244)" stroke-width="1" opacity="1" d="M 364.5 224 L 363.5 226 L 364.5 224 Z " /><path fill="rgb(254,244,244)" stroke="rgb(254,244,244)" stroke-width="1" opacity="1" d="M 360.5 227 L 356.5 232 L 360.5 227 Z " /><path fill="rgb(254,244,244)" stroke="rgb(254,244,244)" stroke-width="1" opacity="1" d="M 131.5 229 L 134.5 233 L 131.5 229 Z " /><path fill="rgb(254,244,244)" stroke="rgb(254,244,244)" stroke-width="1" opacity="1" d="M 136.5 234 L 138.5 237 L 136.5 234 Z " /><path fill="rgb(254,244,244)" stroke="rgb(254,244,244)" stroke-width="1" opacity="1" d="M 352.5 235 L 347.5 241 L 352.5 235 Z " /><path fill="rgb(254,244,244)" stroke="rgb(254,244,244)" stroke-width="1" opacity="1" d="M 346.5 242 L 345.5 244 L 346.5 242 Z " /><path fill="rgb(254,244,244)" stroke="rgb(254,244,244)" stroke-width="1" opacity="1" d="M 105.5 243 L 106.5 245 L 105.5 243 Z " /><path fill="rgb(254,244,244)" stroke="rgb(254,244,244)" stroke-width="1" opacity="1" d="M 344.5 245 L 343.5 247 L 344.5 245 Z " /><path fill="rgb(254,244,244)" stroke="rgb(254,244,244)" stroke-width="1" opacity="1" d="M 110.5 249 L 113.5 253 L 110.5 249 Z " /><path fill="rgb(254,244,244)" stroke="rgb(254,244,244)" stroke-width="1" opacity="1" d="M 341.5 250 L 341 251.5 L 339.5 255 L 339 253.5 L 341.5 250 Z " /><path fill="rgb(254,244,244)" stroke="rgb(254,244,244)" stroke-width="1" opacity="1" d="M 188.5 254 L 189 283.5 L 185.5 285 L 185.5 284 L 188 283.5 L 188.5 254 Z " /><path fill="rgb(254,244,244)" stroke="rgb(254,244,244)" stroke-width="1" opacity="1" d="M 116.5 255 L 119.5 259 L 116.5 255 Z " /><path fill="rgb(254,244,244)" stroke="rgb(254,244,244)" stroke-width="1" opacity="1" d="M 406.5 264 L 344.5 327 L 343.5 325 L 344.5 326 L 406.5 264 Z " /><path fill="rgb(254,244,244)" stroke="rgb(254,244,244)" stroke-width="1" opacity="1" d="M 333.5 271 L 334 273.5 L 333 273.5 L 333.5 271 Z " /><path fill="rgb(254,244,244)" stroke="rgb(254,244,244)" stroke-width="1" opacity="1" d="M 332.5 278 L 333 293.5 L 332 293.5 L 332.5 278 Z " /><path fill="rgb(254,244,244)" stroke="rgb(254,244,244)" stroke-width="1" opacity="1" d="M 406.5 308 L 367 348.5 L 367.5 350 L 366 348.5 L 406.5 308 Z " /><path fill="rgb(254,244,244)" stroke="rgb(254,244,244)" stroke-width="1" opacity="1" d="M 339.5 317 L 341 319.5 L 339 318.5 L 339.5 317 Z " /><path fill="rgb(254,244,244)" stroke="rgb(254,244,244)" stroke-width="1" opacity="1" d="M 99 347 L 188 347 L 188 377 L 99 377 L 99 347 Z " /><path fill="rgb(254,244,244)" stroke="rgb(254,244,244)" stroke-width="1" opacity="1" d="M 373.5 352 L 376 353.5 L 374.5 354 L 373.5 352 Z " /><path fill="rgb(254,244,244)" stroke="rgb(254,244,244)" stroke-width="1" opacity="1" d="M 399.5 360 L 407 360.5 L 399.5 361 L 399.5 360 Z " /><path fill="rgb(254,244,244)" stroke="rgb(254,244,244)" stroke-width="1" opacity="1" d="M 99 407 L 188 407 L 188 437 L 99 437 L 99 407 Z " /><path fill="rgb(230,235,242)" stroke="rgb(230,235,242)" stroke-width="1" opacity="1" d="M 181.5 75 L 184 75.5 L 181.5 76 L 181.5 75 Z " /><path fill="rgb(230,235,242)" stroke="rgb(230,235,242)" stroke-width="1" opacity="1" d="M 188.5 75 Q 242 78.5 267 110.5 Q 294.404 136.096 293 190.5 Q 286.25 234.75 258.5 258 Q 234.59 282.59 188.5 285 L 189 283.5 L 189 253.5 Q 202.992 230.774 203 195 L 188 194.5 L 189 193.5 L 189 166.5 L 188.5 165 L 203 165 L 203 153.5 Q 200.7 125.3 189 106.5 L 189 76.5 L 188.5 75 Z M 226 114 Q 231 136 233 163 L 234 165 L 262 165 Q 258 142 244 129 L 226 114 Z M 233 195 Q 232 222 225 243 L 226 246 L 240 236 Q 256 222 262 199 L 262 195 L 233 195 Z " /><path fill="rgb(230,235,242)" stroke="rgb(230,235,242)" stroke-width="1" opacity="1" d="M 121.5 99 L 120.5 101 L 121.5 99 Z " /><path fill="rgb(230,235,242)" stroke="rgb(230,235,242)" stroke-width="1" opacity="1" d="M 109.5 111 L 108.5 113 L 109.5 111 Z " /><path fill="rgb(230,235,242)" stroke="rgb(230,235,242)" stroke-width="1" opacity="1" d="M 135.5 126 L 134.5 128 L 135.5 126 Z " /><path fill="rgb(230,235,242)" stroke="rgb(230,235,242)" stroke-width="1" opacity="1" d="M 144.5 159 L 145 161.5 L 144 161.5 L 144.5 159 Z " /><path fill="rgb(230,235,242)" stroke="rgb(230,235,242)" stroke-width="1" opacity="1" d="M 144.5 198 L 145 200.5 L 144 200.5 L 144.5 198 Z " /><path fill="rgb(230,235,242)" stroke="rgb(230,235,242)" stroke-width="1" opacity="1" d="M 407 211 Q 432.463 211.612 448 223.5 L 407 263.5 L 407 211 Z " /><path fill="rgb(230,235,242)" stroke="rgb(230,235,242)" stroke-width="1" opacity="1" d="M 469.5 245 Q 481.386 261.114 482 288.5 Q 478.425 325.425 455.5 343 Q 437.935 359.208 407 361 L 407 307.5 L 469.5 245 Z " /><path fill="rgb(230,235,242)" stroke="rgb(230,235,242)" stroke-width="1" opacity="1" d="M 108.5 247 L 109.5 249 L 108.5 247 Z " /><path fill="rgb(230,235,242)" stroke="rgb(230,235,242)" stroke-width="1" opacity="1" d="M 120.5 259 L 121.5 261 L 120.5 259 Z " /><path fill="rgb(230,235,242)" stroke="rgb(230,235,242)" stroke-width="1" opacity="1" d="M 181.5 284 L 185 284.5 L 181.5 285 L 181.5 284 Z " /><path fill="rgb(255,245,245)" stroke="rgb(255,245,245)" stroke-width="1" opacity="1" d="M 174.5 76 L 188 76 L 188 106.5 Q 174.15 129.15 173 164.5 L 188 165 L 188 195 L 173.5 195 L 174 196.5 Q 174.315 231.685 188 253.5 L 188 284 Q 138.448 281.827 114 253.5 Q 83.786 227.214 84 170.5 Q 89.701 127.701 115.5 105 Q 137.009 82.509 174.5 76 Z M 152 114 L 139 123 Q 122 137 115 161 Q 114 165 116 165 L 144 165 Q 145 136 153 115 L 152 114 Z M 115 195 Q 118 216 131 230 Q 140 239 152 246 L 153 246 Q 145 224 144 197 L 144 195 L 115 195 Z " /><path fill="rgb(255,245,245)" stroke="rgb(255,245,245)" stroke-width="1" opacity="1" d="M 406.5 211 L 407 263.5 L 344.5 326 L 343 324.5 Q 330.325 307.175 333 274.5 Q 338.525 247.525 355.5 232 Q 372.758 213.258 406.5 211 Z " /><path fill="rgb(255,245,245)" stroke="rgb(255,245,245)" stroke-width="1" opacity="1" d="M 406.5 309 L 407 360 Q 381.309 360.506 367 348.5 L 406.5 309 Z " /><path fill="rgb(152,152,254)" stroke="rgb(152,152,254)" stroke-width="1" opacity="1" d="M 30 30 L 188.5 30 L 189 30.5 L 189 75 Q 137.015 77.18 112 107.5 Q 84.228 133.228 83 185.5 Q 87.802 232.198 115.5 256 Q 140.236 283.062 189 285 L 189 347 L 98.5 347 L 98 347.5 L 98 377 L 188.5 377 L 189 377.5 L 189 407 L 98.5 407 L 98 407.5 L 98 437 L 189 437 L 189 482 L 30 482 L 30 30 Z " /><path fill="rgb(152,152,254)" stroke="rgb(152,152,254)" stroke-width="1" opacity="1" d="M 197.5 75 L 202 75.5 L 197.5 76 L 197.5 75 Z " /><path fill="rgb(152,152,254)" stroke="rgb(152,152,254)" stroke-width="1" opacity="1" d="M 205.5 76 L 208 76.5 L 205.5 77 L 205.5 76 Z " /><path fill="rgb(152,152,254)" stroke="rgb(152,152,254)" stroke-width="1" opacity="1" d="M 252.5 96 L 254.5 99 L 252.5 96 Z " /><path fill="rgb(152,152,254)" stroke="rgb(152,152,254)" stroke-width="1" opacity="1" d="M 258.5 101 L 267.5 111 L 258.5 101 Z " /><path fill="rgb(152,152,254)" stroke="rgb(152,152,254)" stroke-width="1" opacity="1" d="M 188.5 107 L 189 165 L 174 165 L 174 159.5 Q 175.729 127.729 188.5 107 Z " /><path fill="rgb(152,152,254)" stroke="rgb(152,152,254)" stroke-width="1" opacity="1" d="M 270.5 114 L 271.5 116 L 270.5 114 Z " /><path fill="rgb(152,152,254)" stroke="rgb(152,152,254)" stroke-width="1" opacity="1" d="M 151.5 115 L 151 116.5 Q 144.246 137.979 144 165 L 115 164.5 Q 121.487 137.987 139.5 123 L 151.5 115 Z " /><path fill="rgb(152,152,254)" stroke="rgb(152,152,254)" stroke-width="1" opacity="1" d="M 225 115 L 227 115.5 L 225 116.5 L 225 115 Z " /><path fill="rgb(152,152,254)" stroke="rgb(152,152,254)" stroke-width="1" opacity="1" d="M 228.5 116 L 229.5 118 L 228.5 116 Z " /><path fill="rgb(152,152,254)" stroke="rgb(152,152,254)" stroke-width="1" opacity="1" d="M 231.5 118 L 232.5 120 L 231.5 118 Z " /><path fill="rgb(152,152,254)" stroke="rgb(152,152,254)" stroke-width="1" opacity="1" d="M 273.5 118 L 274.5 120 L 273.5 118 Z " /><path fill="rgb(152,152,254)" stroke="rgb(152,152,254)" stroke-width="1" opacity="1" d="M 236.5 122 L 239.5 126 L 236.5 122 Z " /><path fill="rgb(152,152,254)" stroke="rgb(152,152,254)" stroke-width="1" opacity="1" d="M 277.5 124 L 278.5 126 L 277.5 124 Z " /><path fill="rgb(152,152,254)" stroke="rgb(152,152,254)" stroke-width="1" opacity="1" d="M 243.5 129 L 246.5 133 L 243.5 129 Z " /><path fill="rgb(152,152,254)" stroke="rgb(152,152,254)" stroke-width="1" opacity="1" d="M 248.5 135 L 249.5 137 L 248.5 135 Z " /><path fill="rgb(152,152,254)" stroke="rgb(152,152,254)" stroke-width="1" opacity="1" d="M 199.5 136 L 200 138.5 L 199 138.5 L 199.5 136 Z " /><path fill="rgb(152,152,254)" stroke="rgb(152,152,254)" stroke-width="1" opacity="1" d="M 230.5 137 L 231 139.5 L 230 139.5 L 230.5 137 Z " /><path fill="rgb(152,152,254)" stroke="rgb(152,152,254)" stroke-width="1" opacity="1" d="M 200.5 141 L 201 143.5 L 200 143.5 L 200.5 141 Z " /><path fill="rgb(152,152,254)" stroke="rgb(152,152,254)" stroke-width="1" opacity="1" d="M 252.5 141 L 253.5 143 L 252.5 141 Z " /><path fill="rgb(152,152,254)" stroke="rgb(152,152,254)" stroke-width="1" opacity="1" d="M 231.5 144 L 232 147.5 L 231 147.5 L 231.5 144 Z " /><path fill="rgb(152,152,254)" stroke="rgb(152,152,254)" stroke-width="1" opacity="1" d="M 201.5 148 L 202 151.5 L 201 151.5 L 201.5 148 Z " /><path fill="rgb(152,152,254)" stroke="rgb(152,152,254)" stroke-width="1" opacity="1" d="M 232.5 153 L 233 157.5 L 232 157.5 L 232.5 153 Z " /><path fill="rgb(152,152,254)" stroke="rgb(152,152,254)" stroke-width="1" opacity="1" d="M 202.5 156 L 203 161.5 L 202 161.5 L 202.5 156 Z " /><path fill="rgb(152,152,254)" stroke="rgb(152,152,254)" stroke-width="1" opacity="1" d="M 292.5 163 L 293 166.5 L 292 166.5 L 292.5 163 Z " /><path fill="rgb(152,152,254)" stroke="rgb(152,152,254)" stroke-width="1" opacity="1" d="M 293.5 172 L 294 187.5 L 293 187.5 L 293.5 172 Z " /><path fill="rgb(152,152,254)" stroke="rgb(152,152,254)" stroke-width="1" opacity="1" d="M 292.5 193 L 293 196.5 L 292 196.5 L 292.5 193 Z " /><path fill="rgb(152,152,254)" stroke="rgb(152,152,254)" stroke-width="1" opacity="1" d="M 115.5 195 L 143.5 195 Q 145.125 195.625 144 204.5 Q 145.561 226.939 152 244.5 L 150.5 244 Q 138.844 239.156 132 229.5 Q 118.245 216.021 115.5 195 Z " /><path fill="rgb(152,152,254)" stroke="rgb(152,152,254)" stroke-width="1" opacity="1" d="M 174 195 L 188.5 195 L 189 195.5 L 189 252.5 L 187 251.5 Q 175.124 228.14 174 195 Z " /><path fill="rgb(152,152,254)" stroke="rgb(152,152,254)" stroke-width="1" opacity="1" d="M 202.5 198 L 203 203.5 L 202 203.5 L 202.5 198 Z " /><path fill="rgb(152,152,254)" stroke="rgb(152,152,254)" stroke-width="1" opacity="1" d="M 232.5 202 L 233 206.5 L 232 206.5 L 232.5 202 Z " /><path fill="rgb(152,152,254)" stroke="rgb(152,152,254)" stroke-width="1" opacity="1" d="M 339.5 205 L 338.5 207 L 339.5 205 Z " /><path fill="rgb(152,152,254)" stroke="rgb(152,152,254)" stroke-width="1" opacity="1" d="M 201.5 208 L 202 211.5 L 201 211.5 L 201.5 208 Z " /><path fill="rgb(152,152,254)" stroke="rgb(152,152,254)" stroke-width="1" opacity="1" d="M 231.5 212 L 232 215.5 L 231 215.5 L 231.5 212 Z " /><path fill="rgb(152,152,254)" stroke="rgb(152,152,254)" stroke-width="1" opacity="1" d="M 200.5 216 L 201 218.5 L 200 218.5 L 200.5 216 Z " /><path fill="rgb(152,152,254)" stroke="rgb(152,152,254)" stroke-width="1" opacity="1" d="M 253.5 217 L 252.5 219 L 253.5 217 Z " /><path fill="rgb(152,152,254)" stroke="rgb(152,152,254)" stroke-width="1" opacity="1" d="M 327.5 217 L 326.5 219 L 327.5 217 Z " /><path fill="rgb(152,152,254)" stroke="rgb(152,152,254)" stroke-width="1" opacity="1" d="M 230.5 220 L 231 222.5 L 230 222.5 L 230.5 220 Z " /><path fill="rgb(152,152,254)" stroke="rgb(152,152,254)" stroke-width="1" opacity="1" d="M 199.5 221 L 200 223.5 L 199 223.5 L 199.5 221 Z " /><path fill="rgb(152,152,254)" stroke="rgb(152,152,254)" stroke-width="1" opacity="1" d="M 249.5 223 L 248.5 225 L 249.5 223 Z " /><path fill="rgb(152,152,254)" stroke="rgb(152,152,254)" stroke-width="1" opacity="1" d="M 246.5 227 L 243.5 231 L 246.5 227 Z " /><path fill="rgb(152,152,254)" stroke="rgb(152,152,254)" stroke-width="1" opacity="1" d="M 239.5 234 L 236.5 238 L 239.5 234 Z " /><path fill="rgb(152,152,254)" stroke="rgb(152,152,254)" stroke-width="1" opacity="1" d="M 278.5 234 L 277.5 236 L 278.5 234 Z " /><path fill="rgb(152,152,254)" stroke="rgb(152,152,254)" stroke-width="1" opacity="1" d="M 232.5 240 L 231.5 242 L 232.5 240 Z " /><path fill="rgb(152,152,254)" stroke="rgb(152,152,254)" stroke-width="1" opacity="1" d="M 274.5 240 L 273.5 242 L 274.5 240 Z " /><path fill="rgb(152,152,254)" stroke="rgb(152,152,254)" stroke-width="1" opacity="1" d="M 229.5 242 L 228.5 244 L 229.5 242 Z " /><path fill="rgb(152,152,254)" stroke="rgb(152,152,254)" stroke-width="1" opacity="1" d="M 225.5 243 L 226.5 245 Q 223.708 245.667 225.5 243 Z " /><path fill="rgb(152,152,254)" stroke="rgb(152,152,254)" stroke-width="1" opacity="1" d="M 271.5 244 L 270.5 246 L 271.5 244 Z " /><path fill="rgb(152,152,254)" stroke="rgb(152,152,254)" stroke-width="1" opacity="1" d="M 267.5 249 L 258.5 259 L 267.5 249 Z " /><path fill="rgb(152,152,254)" stroke="rgb(152,152,254)" stroke-width="1" opacity="1" d="M 254.5 261 L 252.5 264 L 254.5 261 Z " /><path fill="rgb(152,152,254)" stroke="rgb(152,152,254)" stroke-width="1" opacity="1" d="M 241.5 270 L 240.5 272 L 241.5 270 Z " /><path fill="rgb(152,152,254)" stroke="rgb(152,152,254)" stroke-width="1" opacity="1" d="M 205.5 283 L 208 283.5 L 205.5 284 L 205.5 283 Z " /><path fill="rgb(152,152,254)" stroke="rgb(152,152,254)" stroke-width="1" opacity="1" d="M 197.5 284 L 202 284.5 L 197.5 285 L 197.5 284 Z " /><path fill="rgb(152,152,254)" stroke="rgb(152,152,254)" stroke-width="1" opacity="1" d="M 278.5 347 L 279 376.5 L 278 376.5 L 278.5 347 Z " /><path fill="rgb(152,152,254)" stroke="rgb(152,152,254)" stroke-width="1" opacity="1" d="M 326.5 353 L 327.5 355 L 326.5 353 Z " /><path fill="rgb(152,152,254)" stroke="rgb(152,152,254)" stroke-width="1" opacity="1" d="M 338.5 365 L 339.5 367 L 338.5 365 Z " /><path fill="rgb(152,152,254)" stroke="rgb(152,152,254)" stroke-width="1" opacity="1" d="M 278.5 407 L 279 436.5 L 278 436.5 L 278.5 407 Z " /><path fill="rgb(98,91,254)" stroke="rgb(98,91,254)" stroke-width="1" opacity="0.996078431372549" d="M 0 0 L 341.5 0 Q 358.668 4.332 368 16.5 Q 374.25 24.25 377 35.5 L 377 186 Q 344.646 194.958 326 218.5 Q 299.949 243.949 302 297.5 Q 309.473 343.527 339.5 367 Q 354.631 380.798 377 386 L 377 476.5 Q 372.668 493.668 360.5 503 Q 352.75 509.25 341.5 512 L 0 512 L 0 0 Z M 30 30 L 30 482 L 189 482 L 189 482 L 189 437 L 279 437 L 279 407 L 189 407 L 189 377 L 279 377 L 279 347 L 189 347 L 189 285 Q 235 283 259 259 Q 288 235 294 188 Q 294 136 268 111 Q 245 83 202 75 Q 190 76 189 75 L 189 31 L 189 30 L 30 30 Z " /><path fill="rgb(98,91,254)" stroke="rgb(98,91,254)" stroke-width="1" opacity="0.996078431372549" d="M 189.5 108 Q 201.561 131.696 203 165 L 189.5 165 L 189 164.5 L 189.5 108 Z " /><path fill="rgb(98,91,254)" stroke="rgb(98,91,254)" stroke-width="1" opacity="0.996078431372549" d="M 226 116 Q 235.958 120.167 243 128.5 Q 256.548 142.452 262 164.5 L 233 165 Q 232.878 137.069 226 116 Z " /><path fill="rgb(98,91,254)" stroke="rgb(98,91,254)" stroke-width="1" opacity="0.996078431372549" d="M 189 195 L 202.5 195 L 203 197.5 Q 200.972 229.472 189.5 252 L 189 195 Z " /><path fill="rgb(98,91,254)" stroke="rgb(98,91,254)" stroke-width="1" opacity="0.996078431372549" d="M 233 195 L 262 195.5 Q 256.039 219.539 240.5 234 L 226 244 Q 232.878 222.931 233 195 Z " /></svg>