<svg width="512" height="512" version="1.1" xmlns="http://www.w3.org/2000/svg" desc="Created with imagetracer.js version 1.2.6" ><path fill="rgb(0,0,0)" stroke="rgb(0,0,0)" stroke-width="1" opacity="0" d="M 0 0 L 226 0.5 Q 213.754 3.254 207 11.5 Q 194.584 23.584 197 50.5 Q 201.665 72.335 216 84.5 L 216 111.5 Q 201.281 115.781 193 126.5 Q 187.317 133.317 185 143.5 L 184.5 185 Q 183.625 179.375 179.5 177 L 173.5 174 L 128.5 174 L 120 179.5 Q 115.667 183.667 117 193.5 L 122.5 202 Q 133.35 208.75 154 205 L 154 288.5 Q 154 289.5 149.5 289 Q 107.521 298.521 85 327.5 Q 59.929 354.429 59 405.5 Q 65.254 460.746 100.5 487 Q 123.008 507.492 162 511.5 L 0 512 L 0 0 Z " /><path fill="rgb(0,0,0)" stroke="rgb(0,0,0)" stroke-width="1" opacity="0" d="M 244.5 0 L 512 0 L 512 512 L 443 511.5 L 450 506.5 Q 452.958 502.458 453 495.5 Q 451.75 488.75 447.5 485 L 443 482.5 Q 450.312 482.312 452 476.5 L 453 461.5 L 448.5 454 L 417.5 444 L 413 440.5 L 412 438.5 L 412 312.5 Q 415.75 310.75 414 303.5 Q 410.146 277.854 393 265.5 L 395 261.5 L 389.5 255 Q 359.306 228.457 297 235 L 297 150.5 Q 294.25 148.75 296 142.5 Q 291.822 127.178 280.5 119 L 265 111.5 L 265 91.5 L 266.5 90 L 277 80.5 Q 286.771 68.771 284 44.5 Q 278.908 21.092 262.5 9 Q 255.775 2.725 244.5 1 L 244.5 0 Z " /><path fill="rgb(0,0,0)" stroke="rgb(0,0,0)" stroke-width="1" opacity="0" d="M 185 319 L 189 321.5 L 195.5 331 Q 200.792 336.208 209 338.5 L 185 339 L 185 319 Z " /><path fill="rgb(0,0,0)" stroke="rgb(0,0,0)" stroke-width="1" opacity="0" d="M 152.5 320 L 154 320.5 L 154 355.5 Q 155.477 364.023 161.5 368 L 166.5 370 L 248 370 Q 255 384.8 253 409.5 Q 246.899 443.899 224.5 462 Q 204.525 482.525 162.5 481 Q 131.397 475.866 114 458 Q 89.884 437.791 90 392.5 Q 95.687 354.687 120.5 336 Q 133.585 325.085 152.5 320 Z " /><path fill="rgb(0,0,0)" stroke="rgb(0,0,0)" stroke-width="1" opacity="0" d="M 305.5 340 L 339.5 340 L 343 342.5 L 342.5 377 Q 338 359.5 325.5 350 Q 318.701 342.299 305.5 341 L 305.5 340 Z " /><path fill="rgb(0,0,0)" stroke="rgb(0,0,0)" stroke-width="1" opacity="0" d="M 280.5 370 Q 302.94 366.56 310 378.5 L 313 384.5 L 313 499.5 L 318.5 509 L 323 511.5 L 182.5 512 L 182.5 511 Q 232.23 505.73 256 474.5 Q 285.221 446.721 284 388.5 L 280.5 370 Z " /><path fill="rgb(0,0,0)" stroke="rgb(0,0,0)" stroke-width="1" opacity="0" d="M 344.5 473 L 351.5 481 L 353 481.5 L 344 482 L 344.5 473 Z " /><path fill="rgb(252,189,175)" stroke="rgb(252,189,175)" stroke-width="1" opacity="0.984313725490196" d="M 241.5 25 L 275.5 26 L 277 25.5 Q 286.558 38.442 284 63.5 Q 280.394 81.394 267.5 90 L 265 91.5 L 265 112 L 218.5 112 L 216 113 L 216 84.5 Q 207.077 76.923 202 65.5 Q 214.849 63.849 221 55.5 Q 226.5 49 226 36.5 L 232.5 28 L 241.5 25 Z " /><path fill="rgb(252,189,175)" stroke="rgb(252,189,175)" stroke-width="1" opacity="0.984313725490196" d="M 392.5 266 Q 413.661 277.839 414 310.5 Q 412.625 313.625 407.5 313 L 371 288.5 L 392.5 266 Z " /><path fill="rgb(148,213,164)" stroke="rgb(148,213,164)" stroke-width="1" opacity="0.9921568627450981" d="M 225.5 39 L 226 41.5 L 225 41.5 L 225.5 39 Z " /><path fill="rgb(148,213,164)" stroke="rgb(148,213,164)" stroke-width="1" opacity="0.9921568627450981" d="M 201.5 62 L 203 64.5 L 201 63.5 L 201.5 62 Z " /><path fill="rgb(148,213,164)" stroke="rgb(148,213,164)" stroke-width="1" opacity="0.9921568627450981" d="M 215.5 112 L 217.5 113 L 218.5 112 L 239.5 112 Q 254.857 115.643 263 126.5 Q 269.911 134.589 272 147.5 L 272 236 Q 258.775 238.455 254 231.5 L 252 227.5 L 252 158.5 Q 250.125 146.875 241.5 142 Q 236 137.5 224.5 139 L 221 140 Q 226.91 145.95 229 156.5 L 229 236.5 L 232.5 242 L 235.5 244 Q 282.143 241.357 322.5 245 Q 353.663 250.337 371 269.5 L 371 272.5 L 356.5 287 Q 348.72 281.28 336.5 280 L 254.5 280 Q 242.5 278 234.5 272 L 185 272 L 185 143.5 Q 188.643 128.143 199.5 120 L 215.5 112 Z " /><path fill="rgb(148,213,164)" stroke="rgb(148,213,164)" stroke-width="1" opacity="0.9921568627450981" d="M 262.5 112 L 265 112.5 L 262.5 113 L 262.5 112 Z " /><path fill="rgb(148,213,164)" stroke="rgb(148,213,164)" stroke-width="1" opacity="0.9921568627450981" d="M 296.5 235 L 335 235.5 L 296.5 236 L 296.5 235 Z " /><path fill="rgb(148,213,164)" stroke="rgb(148,213,164)" stroke-width="1" opacity="0.9921568627450981" d="M 391.5 266 L 371 287.5 L 370.5 289 L 370 287.5 L 391.5 266 Z " /><path fill="rgb(120,193,164)" stroke="rgb(120,193,164)" stroke-width="1" opacity="0.984313725490196" d="M 240.5 112 Q 255.625 109.375 264.5 113 L 266.5 113 Q 280.896 116.104 288 126.5 Q 295.776 135.224 297 150.5 L 297 152.5 L 297 234.5 L 296 235.5 L 334.5 236 L 337.5 235 Q 371.214 238.786 391 256.5 Q 390.25 258.75 392.5 258 L 395 262.5 L 392.5 266 L 370 287.5 L 366.5 292 Q 357.875 293.125 356 287.5 L 371 272.5 L 371 269.5 Q 356.437 253.563 332.5 247 Q 289.769 239.731 235.5 244 L 231 240.5 L 229 236.5 L 229 156.5 Q 226.91 145.95 221 140 Q 225.5 138 234.5 139 Q 243.55 141.45 248 148.5 L 252 158.5 L 252 227.5 L 256.5 234 Q 261.625 238 272 236 L 272 147.5 Q 268.854 129.146 256.5 120 Q 250.623 114.377 240.5 113 L 240.5 112 Z " /><path fill="rgb(120,193,164)" stroke="rgb(120,193,164)" stroke-width="1" opacity="0.984313725490196" d="M 251.5 279 L 254 279.5 L 251.5 280 L 251.5 279 Z " /><path fill="rgb(120,193,164)" stroke="rgb(120,193,164)" stroke-width="1" opacity="0.984313725490196" d="M 258.5 280 L 337 280.5 L 258.5 281 L 258.5 280 Z " /><path fill="rgb(120,193,164)" stroke="rgb(120,193,164)" stroke-width="1" opacity="0.984313725490196" d="M 353.5 285 L 354.5 287 L 353.5 285 Z " /><path fill="rgb(108,104,137)" stroke="rgb(108,104,137)" stroke-width="1" opacity="0.9803921568627451" d="M 226.5 0 Q 261.052 -1.552 273 19.5 L 276 26 L 239.5 25 Q 230.625 26.625 227 33.5 Q 226.596 50.596 217.5 59 Q 212.375 65 202 64 L 197 50.5 L 198 48.5 Q 194 45.5 197 35.5 L 198 32.5 Q 200.085 16.085 210.5 8 L 226.5 0 Z " /><path fill="rgb(108,104,137)" stroke="rgb(108,104,137)" stroke-width="1" opacity="0.9803921568627451" d="M 128.5 174 L 173.5 174 L 183 180.5 L 185 185.5 L 185 272 L 233.5 272 Q 243.329 279.171 258.5 281 L 340.5 281 Q 354 283.5 361.5 292 L 366.5 292 Q 367 288.5 371.5 289 L 405.5 312 L 410.5 313 L 412 312.5 L 412 438.5 L 415.5 443 L 444.5 452 L 451 456.5 Q 454.571 461.929 453 472.5 Q 452.15 479.65 446.5 482 L 443 482.5 L 449 486.5 Q 453 490.5 453 498.5 Q 451.795 506.295 446.5 510 L 442.5 512 L 323.5 512 L 316 506.5 L 313 499.5 L 313 384.5 Q 310.417 377.083 304.5 373 Q 296.55 367.45 280.5 370 L 281 371.5 Q 285.65 387.85 284 410.5 Q 276.763 458.763 246.5 484 Q 219.042 512.542 162.5 512 Q 109.75 504.75 84 470.5 Q 59.272 444.228 59 393.5 Q 64.936 338.936 99.5 313 Q 120.31 294.079 154 289 L 154 205.5 L 153.5 205 L 129.5 205 L 120 199.5 Q 115.667 195.333 117 185.5 L 122.5 177 L 128.5 174 Z M 185 319 L 185 339 L 209 339 Q 201 336 196 331 L 189 322 L 185 319 Z M 153 320 Q 134 325 121 336 Q 96 355 90 393 Q 90 438 114 458 Q 131 476 163 481 Q 205 483 225 462 Q 247 444 253 410 Q 255 385 248 370 L 167 370 L 162 368 Q 155 364 154 356 L 154 321 L 153 320 Z M 306 340 L 306 341 Q 319 342 326 350 Q 338 360 343 377 L 343 343 L 340 340 L 306 340 Z M 345 473 L 344 482 L 353 482 L 352 481 L 345 473 Z " /></svg>