<svg width="512" height="512" version="1.1" xmlns="http://www.w3.org/2000/svg" desc="Created with imagetracer.js version 1.2.6" ><path fill="rgb(89,207,227)" stroke="rgb(89,207,227)" stroke-width="1" opacity="0.9921568627450981" d="M 34.5 119 Q 60.385 117.615 82.5 120 L 83.5 119 L 119.5 119 Q 135.287 121.713 144 131.5 Q 159.804 148.196 155 185.5 Q 153.75 188.25 152.5 186 Q 133.406 183.125 124 188 L 123 190.5 L 123 265 L 31 265 L 31 189.5 L 26.5 186 L 0 186 L 0 150.5 Q 3.217 137.717 11.5 130 Q 19.843 121.343 34.5 119 Z " /><path fill="rgb(89,207,227)" stroke="rgb(89,207,227)" stroke-width="1" opacity="0.9921568627450981" d="M 380.5 119 Q 413.067 117.433 441.5 120 L 442.5 119 L 477.5 119 Q 493.287 121.713 502 131.5 Q 509.094 138.906 512 150.5 L 512 186.5 L 510.5 186 Q 491.406 183.125 482 188 L 481 190.5 L 481 265 L 414 265 L 414 151.5 Q 410.24 135.26 398.5 127 Q 391.692 121.308 380.5 120 L 380.5 119 Z " /><path fill="rgb(89,207,227)" stroke="rgb(89,207,227)" stroke-width="1" opacity="0.9921568627450981" d="M 381.5 425 L 392 425.5 L 381.5 426 L 381.5 425 Z " /><path fill="rgb(205,230,253)" stroke="rgb(205,230,253)" stroke-width="1" opacity="0.9803921568627451" d="M 0.5 186 L 27 186.5 L 0.5 187 L 0.5 186 Z " /><path fill="rgb(205,230,253)" stroke="rgb(205,230,253)" stroke-width="1" opacity="0.9803921568627451" d="M 487.5 186 L 511 186.5 L 487.5 187 L 487.5 186 Z " /><path fill="rgb(205,230,253)" stroke="rgb(205,230,253)" stroke-width="1" opacity="0.9803921568627451" d="M 20.5 425 Q 29 422.5 31.5 426 L 122.5 426 Q 125 422.5 133.5 425 L 139 429.5 Q 143.5 437 140 452.5 L 136.5 458 L 134.5 459 L 19.5 459 L 15 455.5 Q 11.375 446.625 14 431.5 L 18.5 426 L 20.5 425 Z " /><path fill="rgb(205,230,253)" stroke="rgb(205,230,253)" stroke-width="1" opacity="0.9803921568627451" d="M 281.5 425 Q 289.25 422.75 291.5 426 L 480.5 426 Q 483 422.5 491.5 425 L 497 429.5 Q 501.5 437 498 452.5 L 494.5 458 L 492.5 459 L 279.5 459 L 276 456.5 Q 270.667 448.833 274 432.5 L 278.5 426 L 281.5 425 Z " /><path fill="rgb(112,101,112)" stroke="rgb(112,101,112)" stroke-width="1" opacity="0.996078431372549" d="M 31 265 L 123 265 L 123 425 L 69.5 426 L 68.5 425 L 31 425 L 31 265 Z " /><path fill="rgb(112,101,112)" stroke="rgb(112,101,112)" stroke-width="1" opacity="0.996078431372549" d="M 291 265 L 382.5 265 Q 384 265.5 383 273.5 Q 384.821 280.679 390.5 284 Q 394.167 287.333 402.5 286 L 410 281.5 Q 415.818 276.543 414 265 L 481 265 L 481 425 L 427.5 426 L 426.5 425 L 379.5 425 L 375.5 426 L 374.5 425 L 345.5 425 Q 342 429.5 330.5 426 L 329.5 425 L 291 425 L 291 265 Z " /><path fill="rgb(253,191,153)" stroke="rgb(253,191,153)" stroke-width="1" opacity="0.4745098039215686" d="M 69.5 53 L 72 53.5 L 69.5 54 L 69.5 53 Z " /><path fill="rgb(253,191,153)" stroke="rgb(253,191,153)" stroke-width="1" opacity="0.4745098039215686" d="M 82.5 53 L 85 53.5 L 82.5 54 L 82.5 53 Z " /><path fill="rgb(253,191,153)" stroke="rgb(253,191,153)" stroke-width="1" opacity="0.4745098039215686" d="M 329.5 53 L 332 53.5 L 329.5 54 L 329.5 53 Z " /><path fill="rgb(253,191,153)" stroke="rgb(253,191,153)" stroke-width="1" opacity="0.4745098039215686" d="M 342.5 53 L 345 53.5 L 342.5 54 L 342.5 53 Z " /><path fill="rgb(253,191,153)" stroke="rgb(253,191,153)" stroke-width="1" opacity="0.4745098039215686" d="M 427.5 53 L 430 53.5 L 427.5 54 L 427.5 53 Z " /><path fill="rgb(253,191,153)" stroke="rgb(253,191,153)" stroke-width="1" opacity="0.4745098039215686" d="M 440.5 53 L 443 53.5 L 440.5 54 L 440.5 53 Z " /><path fill="rgb(253,191,153)" stroke="rgb(253,191,153)" stroke-width="1" opacity="0.4745098039215686" d="M 63.5 55 L 65 55.5 L 58.5 59 L 59.5 57 L 63.5 55 Z " /><path fill="rgb(253,191,153)" stroke="rgb(253,191,153)" stroke-width="1" opacity="0.4745098039215686" d="M 323.5 55 L 325 55.5 Q 316.154 58.654 311 65.5 L 307.5 71 L 308 69.5 L 316.5 59 L 323.5 55 Z " /><path fill="rgb(253,191,153)" stroke="rgb(253,191,153)" stroke-width="1" opacity="0.4745098039215686" d="M 92.5 56 L 96 58.5 L 94.5 58 L 92.5 56 Z " /><path fill="rgb(253,191,153)" stroke="rgb(253,191,153)" stroke-width="1" opacity="0.4745098039215686" d="M 450.5 56 L 454 58.5 L 452.5 58 L 450.5 56 Z " /><path fill="rgb(253,191,153)" stroke="rgb(253,191,153)" stroke-width="1" opacity="0.4745098039215686" d="M 354.5 57 L 365 66.5 L 356.5 59 L 354.5 57 Z " /><path fill="rgb(253,191,153)" stroke="rgb(253,191,153)" stroke-width="1" opacity="0.4745098039215686" d="M 417.5 57 L 416.5 59 L 417.5 57 Z " /><path fill="rgb(253,191,153)" stroke="rgb(253,191,153)" stroke-width="1" opacity="0.4745098039215686" d="M 56.5 59 L 50.5 66 L 56.5 59 Z " /><path fill="rgb(253,191,153)" stroke="rgb(253,191,153)" stroke-width="1" opacity="0.4745098039215686" d="M 97.5 59 L 106 68.5 L 104 67.5 L 97.5 59 Z " /><path fill="rgb(253,191,153)" stroke="rgb(253,191,153)" stroke-width="1" opacity="0.4745098039215686" d="M 414.5 59 L 408 66.5 L 406.5 69 L 407 67.5 L 414.5 59 Z " /><path fill="rgb(253,191,153)" stroke="rgb(253,191,153)" stroke-width="1" opacity="0.4745098039215686" d="M 455.5 59 L 461.5 66 L 455.5 59 Z " /><path fill="rgb(253,191,153)" stroke="rgb(253,191,153)" stroke-width="1" opacity="0.4745098039215686" d="M 49.5 67 L 48.5 69 L 49.5 67 Z " /><path fill="rgb(253,191,153)" stroke="rgb(253,191,153)" stroke-width="1" opacity="0.4745098039215686" d="M 462.5 67 L 463.5 69 L 462.5 67 Z " /><path fill="rgb(253,191,153)" stroke="rgb(253,191,153)" stroke-width="1" opacity="0.4745098039215686" d="M 365.5 68 L 369 74.5 L 368 74.5 L 365.5 68 Z " /><path fill="rgb(253,191,153)" stroke="rgb(253,191,153)" stroke-width="1" opacity="0.4745098039215686" d="M 369.5 76 L 370 78.5 L 369 78.5 L 369.5 76 Z " /><path fill="rgb(253,191,153)" stroke="rgb(253,191,153)" stroke-width="1" opacity="0.4745098039215686" d="M 370.5 81 L 371 91.5 L 370 91.5 L 370.5 81 Z " /><path fill="rgb(253,191,153)" stroke="rgb(253,191,153)" stroke-width="1" opacity="0.4745098039215686" d="M 43.5 82 L 44 90.5 L 43 90.5 L 43.5 82 Z " /><path fill="rgb(253,191,153)" stroke="rgb(253,191,153)" stroke-width="1" opacity="0.4745098039215686" d="M 110.5 82 L 111 90.5 L 110 90.5 L 110.5 82 Z " /><path fill="rgb(253,191,153)" stroke="rgb(253,191,153)" stroke-width="1" opacity="0.4745098039215686" d="M 401.5 82 L 402 90.5 L 401 90.5 L 401.5 82 Z " /><path fill="rgb(253,191,153)" stroke="rgb(253,191,153)" stroke-width="1" opacity="0.4745098039215686" d="M 468.5 82 L 469 90.5 L 468 90.5 L 468.5 82 Z " /><path fill="rgb(253,191,153)" stroke="rgb(253,191,153)" stroke-width="1" opacity="0.4745098039215686" d="M 303.5 84 L 304 88.5 L 303 88.5 L 303.5 84 Z " /><path fill="rgb(253,191,153)" stroke="rgb(253,191,153)" stroke-width="1" opacity="0.4745098039215686" d="M 44.5 93 L 45 95.5 L 44 95.5 L 44.5 93 Z " /><path fill="rgb(253,191,153)" stroke="rgb(253,191,153)" stroke-width="1" opacity="0.4745098039215686" d="M 109.5 93 L 110 95.5 L 109 95.5 L 109.5 93 Z " /><path fill="rgb(253,191,153)" stroke="rgb(253,191,153)" stroke-width="1" opacity="0.4745098039215686" d="M 402.5 93 L 403 95.5 L 402 95.5 L 402.5 93 Z " /><path fill="rgb(253,191,153)" stroke="rgb(253,191,153)" stroke-width="1" opacity="0.4745098039215686" d="M 467.5 93 L 468 95.5 L 467 95.5 L 467.5 93 Z " /><path fill="rgb(253,191,153)" stroke="rgb(253,191,153)" stroke-width="1" opacity="0.4745098039215686" d="M 369.5 94 L 370 96.5 L 368.5 99 L 368 97.5 L 369.5 94 Z " /><path fill="rgb(253,191,153)" stroke="rgb(253,191,153)" stroke-width="1" opacity="0.4745098039215686" d="M 190.5 98 L 197 100 L 204 119 L 326 118.5 L 324 117.5 L 325.5 117 L 333 119.5 L 204.5 120 L 197 102.5 L 194.5 100 Q 189.7 100.05 190.5 98 Z " /><path fill="rgb(253,191,153)" stroke="rgb(253,191,153)" stroke-width="1" opacity="0.4745098039215686" d="M 187.5 99 L 189 99.5 L 186 102.5 L 186 144.5 L 191.5 152 L 198 154.5 L 195.5 155 L 187 148.5 L 185 144.5 L 185 102.5 L 187.5 99 Z " /><path fill="rgb(253,191,153)" stroke="rgb(253,191,153)" stroke-width="1" opacity="0.4745098039215686" d="M 306.5 99 L 309 103.5 L 307 102.5 L 306.5 99 Z " /><path fill="rgb(253,191,153)" stroke="rgb(253,191,153)" stroke-width="1" opacity="0.4745098039215686" d="M 367.5 100 L 368 101.5 L 366 102.5 L 367.5 100 Z " /><path fill="rgb(253,191,153)" stroke="rgb(253,191,153)" stroke-width="1" opacity="0.4745098039215686" d="M 47.5 102 L 56 112.5 L 50 107.5 L 47.5 102 Z " /><path fill="rgb(253,191,153)" stroke="rgb(253,191,153)" stroke-width="1" opacity="0.4745098039215686" d="M 106.5 102 L 106 103.5 L 98.5 113 L 103 107.5 L 106.5 102 Z " /><path fill="rgb(253,191,153)" stroke="rgb(253,191,153)" stroke-width="1" opacity="0.4745098039215686" d="M 405.5 102 L 414 112.5 L 408 107.5 L 405.5 102 Z " /><path fill="rgb(253,191,153)" stroke="rgb(253,191,153)" stroke-width="1" opacity="0.4745098039215686" d="M 464.5 102 L 464 103.5 L 456.5 113 L 461 107.5 L 464.5 102 Z " /><path fill="rgb(253,191,153)" stroke="rgb(253,191,153)" stroke-width="1" opacity="0.4745098039215686" d="M 365.5 104 L 364.5 106 L 365.5 104 Z " /><path fill="rgb(253,191,153)" stroke="rgb(253,191,153)" stroke-width="1" opacity="0.4745098039215686" d="M 309.5 105 L 310.5 107 L 309.5 105 Z " /><path fill="rgb(253,191,153)" stroke="rgb(253,191,153)" stroke-width="1" opacity="0.4745098039215686" d="M 363.5 107 L 357.5 114 L 349.5 118 L 349.5 117 Q 358.5 114 363.5 107 Z " /><path fill="rgb(253,191,153)" stroke="rgb(253,191,153)" stroke-width="1" opacity="0.4745098039215686" d="M 311.5 108 L 321 115.5 L 319.5 115 Q 313.367 112.833 311.5 108 Z " /><path fill="rgb(253,191,153)" stroke="rgb(253,191,153)" stroke-width="1" opacity="0.4745098039215686" d="M 57.5 113 L 58.5 115 L 57.5 113 Z " /><path fill="rgb(253,191,153)" stroke="rgb(253,191,153)" stroke-width="1" opacity="0.4745098039215686" d="M 96.5 113 L 95.5 115 L 96.5 113 Z " /><path fill="rgb(253,191,153)" stroke="rgb(253,191,153)" stroke-width="1" opacity="0.4745098039215686" d="M 415.5 113 L 416.5 115 L 415.5 113 Z " /><path fill="rgb(253,191,153)" stroke="rgb(253,191,153)" stroke-width="1" opacity="0.4745098039215686" d="M 454.5 113 L 453.5 115 L 454.5 113 Z " /><path fill="rgb(253,191,153)" stroke="rgb(253,191,153)" stroke-width="1" opacity="0.4745098039215686" d="M 60.5 115 L 63 116.5 L 61.5 117 L 60.5 115 Z " /><path fill="rgb(253,191,153)" stroke="rgb(253,191,153)" stroke-width="1" opacity="0.4745098039215686" d="M 93.5 115 L 92.5 117 L 91 116.5 L 93.5 115 Z " /><path fill="rgb(253,191,153)" stroke="rgb(253,191,153)" stroke-width="1" opacity="0.4745098039215686" d="M 418.5 115 L 421 116.5 L 419.5 117 L 418.5 115 Z " /><path fill="rgb(253,191,153)" stroke="rgb(253,191,153)" stroke-width="1" opacity="0.4745098039215686" d="M 451.5 115 L 450.5 117 L 449 116.5 L 451.5 115 Z " /><path fill="rgb(253,191,153)" stroke="rgb(253,191,153)" stroke-width="1" opacity="0.4745098039215686" d="M 66.5 118 L 69 118.5 L 66.5 119 L 66.5 118 Z " /><path fill="rgb(253,191,153)" stroke="rgb(253,191,153)" stroke-width="1" opacity="0.4745098039215686" d="M 85.5 118 L 88 118.5 L 85.5 119 L 85.5 118 Z " /><path fill="rgb(253,191,153)" stroke="rgb(253,191,153)" stroke-width="1" opacity="0.4745098039215686" d="M 346.5 118 L 358 119.5 L 341.5 120 L 341.5 119 L 346.5 118 Z " /><path fill="rgb(253,191,153)" stroke="rgb(253,191,153)" stroke-width="1" opacity="0.4745098039215686" d="M 443.5 118 L 446 118.5 L 443.5 119 L 443.5 118 Z " /><path fill="rgb(253,191,153)" stroke="rgb(253,191,153)" stroke-width="1" opacity="0.4745098039215686" d="M 375.5 119 L 380 119.5 L 375.5 120 L 375.5 119 Z " /><path fill="rgb(253,191,153)" stroke="rgb(253,191,153)" stroke-width="1" opacity="0.4745098039215686" d="M 428.5 119 L 431 119.5 L 428.5 120 L 428.5 119 Z " /><path fill="rgb(253,191,153)" stroke="rgb(253,191,153)" stroke-width="1" opacity="0.4745098039215686" d="M 439.5 119 L 442 119.5 L 439.5 120 L 439.5 119 Z " /><path fill="rgb(253,191,153)" stroke="rgb(253,191,153)" stroke-width="1" opacity="0.4745098039215686" d="M 200.5 155 L 288.5 155 L 291 156 L 290.5 158 L 288.5 156 L 200.5 156 L 200.5 155 Z " /><path fill="rgb(253,191,153)" stroke="rgb(253,191,153)" stroke-width="1" opacity="0.4745098039215686" d="M 291.5 159 L 292 264.5 L 291 264.5 L 291.5 159 Z " /><path fill="rgb(253,191,153)" stroke="rgb(253,191,153)" stroke-width="1" opacity="0.4745098039215686" d="M 154.5 186 L 155 270.5 L 154 270.5 L 154.5 186 Z " /><path fill="rgb(253,191,153)" stroke="rgb(253,191,153)" stroke-width="1" opacity="0.4745098039215686" d="M 0.5 273 L 1 275.5 L 0 275.5 L 0.5 273 Z " /><path fill="rgb(253,191,153)" stroke="rgb(253,191,153)" stroke-width="1" opacity="0.4745098039215686" d="M 153.5 273 L 154 275.5 L 153 275.5 L 153.5 273 Z " /><path fill="rgb(253,191,153)" stroke="rgb(253,191,153)" stroke-width="1" opacity="0.4745098039215686" d="M 511.5 273 L 512 275.5 L 511 275.5 L 511.5 273 Z " /><path fill="rgb(253,191,153)" stroke="rgb(253,191,153)" stroke-width="1" opacity="0.4745098039215686" d="M 30.5 274 L 31 276.5 L 26.5 283 L 19.5 286 L 19.5 285 Q 26.65 284.15 29 278.5 L 30.5 274 Z " /><path fill="rgb(253,191,153)" stroke="rgb(253,191,153)" stroke-width="1" opacity="0.4745098039215686" d="M 123.5 274 Q 124.875 281.125 130.5 284 L 135 285.5 L 132.5 286 L 126 281.5 Q 121.771 278.896 123.5 274 Z " /><path fill="rgb(253,191,153)" stroke="rgb(253,191,153)" stroke-width="1" opacity="0.4745098039215686" d="M 481.5 274 Q 482.875 281.125 488.5 284 L 493 285.5 L 490.5 286 L 484 281.5 Q 479.771 278.896 481.5 274 Z " /><path fill="rgb(253,191,153)" stroke="rgb(253,191,153)" stroke-width="1" opacity="0.4745098039215686" d="M 1.5 277 L 7.5 284 L 12 285.5 L 9.5 286 L 2 279.5 L 1.5 277 Z " /><path fill="rgb(253,191,153)" stroke="rgb(253,191,153)" stroke-width="1" opacity="0.4745098039215686" d="M 152.5 277 L 153 278.5 Q 150.45 284.95 142.5 286 L 142.5 285 Q 149.65 284.15 152 278.5 L 152.5 277 Z " /><path fill="rgb(253,191,153)" stroke="rgb(253,191,153)" stroke-width="1" opacity="0.4745098039215686" d="M 510.5 277 L 510 278.5 L 504.5 285 L 500.5 286 L 500.5 285 Q 506.85 284.35 509 279.5 L 510.5 277 Z " /><path fill="rgb(253,191,153)" stroke="rgb(253,191,153)" stroke-width="1" opacity="0.4745098039215686" d="M 13.5 286 L 18 286.5 L 13.5 287 L 13.5 286 Z " /><path fill="rgb(253,191,153)" stroke="rgb(253,191,153)" stroke-width="1" opacity="0.4745098039215686" d="M 136.5 286 L 141 286.5 L 136.5 287 L 136.5 286 Z " /><path fill="rgb(253,191,153)" stroke="rgb(253,191,153)" stroke-width="1" opacity="0.4745098039215686" d="M 494.5 286 L 499 286.5 L 494.5 287 L 494.5 286 Z " /><path fill="rgb(0,0,0)" stroke="rgb(0,0,0)" stroke-width="1" opacity="0" d="M 0 0 L 511.5 0 L 512 0.5 L 512 149.5 L 511 149.5 Q 508.458 137.042 500.5 130 Q 483.733 113.767 446 118.5 Q 456.109 115.109 462 107.5 Q 469.69 99.19 469 82.5 Q 466.118 66.882 455.5 59 Q 446.868 50.632 427.5 53 Q 414.032 56.532 407 66.5 Q 400.384 74.884 401 90.5 Q 403.652 105.348 413.5 113 L 424 118.5 L 348.5 119 L 348.5 118 Q 358.75 115.25 364 107.5 Q 372.292 99.292 371 81.5 Q 368.068 65.432 356.5 58 Q 347.706 50.794 329.5 53 Q 316.766 56.266 310 65.5 Q 303.018 73.518 303 88.5 Q 305.085 104.915 315.5 113 L 326 118.5 L 204 119 L 197 100 L 190.5 98 L 186 100.5 L 185 102.5 L 185 144.5 L 191.5 153 L 200.5 156 L 288.5 156 L 291 158.5 L 291 424.5 Q 290.25 426.25 280.5 425 L 275 429.5 Q 271.5 438 274 452.5 L 277.5 458 L 279.5 459 L 492.5 459 L 497 455.5 Q 500.625 446.625 498 431.5 L 493.5 426 Q 489.265 423.167 481 425 L 481.5 277 L 485.5 283 Q 489.757 287.243 498.5 287 Q 506.625 285.625 510 279.5 L 511.5 276 L 512 512 L 0 512 L 0 276.5 L 1 276.5 Q 2.375 282.625 7.5 285 L 17.5 287 Q 24.25 285.75 28 281.5 L 30.5 277 L 31 425 Q 18.752 422.525 15 429.5 L 14 431.5 L 14 453.5 L 17.5 458 L 19.5 459 L 134.5 459 L 139 455.5 L 140 453.5 L 140 431.5 L 135.5 426 Q 131.265 423.167 123 425 L 123.5 277 L 127.5 283 Q 131.757 287.243 140.5 287 Q 149.375 285.375 153 278.5 L 155 270.5 L 155 159.5 Q 154.117 139.383 142.5 130 Q 125.733 113.767 88 118.5 Q 98.109 115.109 104 107.5 Q 111.69 99.19 111 82.5 Q 108.455 66.545 97.5 59 Q 88.868 50.632 69.5 53 Q 56.766 56.266 50 65.5 Q 42.31 73.81 43 90.5 Q 45.652 105.348 55.5 113 L 66 118.5 Q 26.563 113.563 10 131.5 Q 3.08 138.58 0.5 150 L 0 0 Z " /><path fill="rgb(253,173,147)" stroke="rgb(253,173,147)" stroke-width="1" opacity="0.996078431372549" d="M 72.5 53 Q 95.454 52.546 104 66.5 Q 112.053 74.447 110 92.5 Q 107.089 106.089 97.5 113 Q 89.212 120.212 73.5 120 Q 58.652 117.348 51 107.5 Q 42.296 98.704 44 79.5 Q 47.532 66.032 57.5 59 Q 63.25 54.25 72.5 53 Z " /><path fill="rgb(253,173,147)" stroke="rgb(253,173,147)" stroke-width="1" opacity="0.996078431372549" d="M 332.5 53 Q 356.767 52.233 365 67.5 Q 372.059 75.941 370 93.5 Q 366.734 106.234 357.5 113 Q 351.44 118.44 341 119.5 L 357.5 120 L 358.5 119 L 374.5 119 Q 396.999 121.001 407 135.5 Q 412.052 141.948 414 151.5 L 414 274.5 L 408.5 283 Q 404.333 287.333 394.5 286 L 385 278.5 Q 381.714 273.591 383 265 L 292 265 L 292 159.5 L 291 156 L 288.5 155 L 198.5 155 Q 191.55 153.45 188 148.5 L 186 144.5 L 186 102.5 Q 186.75 98.25 192.5 99 L 197 102.5 L 204.5 120 L 333 119.5 Q 318.361 117.139 311 107.5 Q 302.5 99 304 80.5 Q 306.911 66.911 316.5 60 Q 322.948 54.948 332.5 53 Z " /><path fill="rgb(253,173,147)" stroke="rgb(253,173,147)" stroke-width="1" opacity="0.996078431372549" d="M 430.5 53 Q 453.454 52.546 462 66.5 Q 470.053 74.447 468 92.5 Q 465.089 106.089 455.5 113 Q 447.212 120.212 431.5 120 Q 416.652 117.348 409 107.5 Q 400.296 98.704 402 79.5 Q 405.532 66.032 415.5 59 Q 421.486 54.486 430.5 53 Z " /><path fill="rgb(253,173,147)" stroke="rgb(253,173,147)" stroke-width="1" opacity="0.996078431372549" d="M 129.5 186 L 152.5 186 L 154 187.5 L 154 272.5 Q 152.625 280.625 146.5 284 Q 142.857 286.857 135.5 286 Q 128.321 284.179 125 278.5 L 123 273.5 L 123 190.5 L 124 188 L 129.5 186 Z " /><path fill="rgb(253,173,147)" stroke="rgb(253,173,147)" stroke-width="1" opacity="0.996078431372549" d="M 0 187 L 27.5 187 L 30 188 L 31 190.5 L 31 273.5 Q 29.179 280.679 23.5 284 Q 19.857 286.857 12.5 286 Q 6.036 284.464 3 279.5 L 0 272.5 L 0 187 Z " /><path fill="rgb(253,173,147)" stroke="rgb(253,173,147)" stroke-width="1" opacity="0.996078431372549" d="M 484.5 187 L 511.5 187 L 512 187.5 L 512 272.5 Q 510.761 280.761 504.5 284 Q 500.857 286.857 493.5 286 Q 486.321 284.179 483 278.5 L 481 273.5 L 481 190.5 L 484.5 187 Z " /><path fill="rgb(253,173,147)" stroke="rgb(253,173,147)" stroke-width="1" opacity="0.996078431372549" d="M 31.5 425 L 69 425.5 L 31.5 426 L 31.5 425 Z " /><path fill="rgb(253,173,147)" stroke="rgb(253,173,147)" stroke-width="1" opacity="0.996078431372549" d="M 85.5 425 L 123 425.5 L 85.5 426 L 85.5 425 Z " /><path fill="rgb(253,173,147)" stroke="rgb(253,173,147)" stroke-width="1" opacity="0.996078431372549" d="M 291.5 425 L 330 425.5 L 291.5 426 L 291.5 425 Z " /><path fill="rgb(253,173,147)" stroke="rgb(253,173,147)" stroke-width="1" opacity="0.996078431372549" d="M 345.5 425 L 375 425.5 L 345.5 426 L 345.5 425 Z " /><path fill="rgb(253,173,147)" stroke="rgb(253,173,147)" stroke-width="1" opacity="0.996078431372549" d="M 392.5 425 L 427 425.5 L 392.5 426 L 392.5 425 Z " /><path fill="rgb(253,173,147)" stroke="rgb(253,173,147)" stroke-width="1" opacity="0.996078431372549" d="M 443.5 425 L 481 425.5 L 443.5 426 L 443.5 425 Z " /></svg>