<svg width="512" height="512" version="1.1" xmlns="http://www.w3.org/2000/svg" desc="Created with imagetracer.js version 1.2.6" ><path fill="rgb(176,203,73)" stroke="rgb(176,203,73)" stroke-width="1" opacity="0.9725490196078431" d="M 473.5 153 L 479 153.5 L 473.5 154 L 473.5 153 Z " /><path fill="rgb(176,203,73)" stroke="rgb(176,203,73)" stroke-width="1" opacity="0.9725490196078431" d="M 117.5 176 L 392 176.5 L 117.5 177 L 117.5 176 Z " /><path fill="rgb(176,203,73)" stroke="rgb(176,203,73)" stroke-width="1" opacity="0.9725490196078431" d="M 105.5 218 L 384 218.5 L 105.5 219 L 105.5 218 Z " /><path fill="rgb(176,203,73)" stroke="rgb(176,203,73)" stroke-width="1" opacity="0.9725490196078431" d="M 32.5 264 Q 31.631 312.869 59.5 333 Q 75.107 347.393 102.5 350 L 459.5 350 L 461 349.5 Q 461.5 357.562 457 360 L 447.5 364 L 94.5 364 Q 59.495 360.005 43 337.5 Q 25.437 319.063 27 281.5 Q 28.008 271.008 32.5 264 Z " /><path fill="rgb(176,203,73)" stroke="rgb(176,203,73)" stroke-width="1" opacity="0.9725490196078431" d="M 325.5 397 L 326 412.5 L 325 412.5 L 325.5 397 Z " /><path fill="rgb(131,129,142)" stroke="rgb(131,129,142)" stroke-width="1" opacity="0.9921568627450981" d="M 208.5 72 Q 279.769 69.231 340.5 77 L 341.5 78 L 348.5 78 L 349.5 79 L 355.5 79 L 356.5 80 L 386.5 84 Q 398.656 87.344 405 96.5 Q 412 105.75 411 122 L 391 128 Q 394.477 111.184 386.5 105 Q 312.756 88.244 219.5 91 Q 163.648 92.148 117 102.5 L 117 175.5 L 116.5 176 L 97 176 L 97 128.5 L 95.5 128 L 79 122 Q 77.25 99 90.5 90 L 99.5 85 L 133.5 79 Q 167.833 73.333 207.5 73 L 208.5 72 Z " /><path fill="rgb(131,129,142)" stroke="rgb(131,129,142)" stroke-width="1" opacity="0.9921568627450981" d="M 481.5 82 L 484 86.5 L 483 86.5 L 481.5 82 Z " /><path fill="rgb(131,129,142)" stroke="rgb(131,129,142)" stroke-width="1" opacity="0.9921568627450981" d="M 484.5 88 L 485 154 Q 480.5 152.333 472.5 153 L 468 154 L 468 101.5 L 469.5 101 L 482 96 L 484.5 88 Z " /><path fill="rgb(134,132,145)" stroke="rgb(134,132,145)" stroke-width="1" opacity="1" d="M 239.5 2 Q 246.5 0 248.5 3 L 250.5 3 L 257.5 4 Q 359.793 41.707 465.5 76 Q 474.217 76.783 478.5 82 Q 479.75 79.75 481 82.5 L 483 87 L 485 87.5 L 482 96 Q 472.556 97.446 466.5 103 L 457.5 105 L 411.5 122 Q 411.801 98.199 397.5 89 Q 391.268 84.232 381.5 83 Q 349.348 76.652 312.5 75 L 311.5 74 Q 263.182 69.818 208.5 72 Q 155.599 74.599 108.5 83 Q 92.813 85.313 85 95.5 Q 77.435 104.435 78.5 122 Q 48 107.5 11.5 99 L 6 94.5 L 5 85.5 L 9.5 81 L 21.5 78 L 29.5 74 L 47.5 69 L 55.5 65 L 73.5 60 L 81.5 56 L 99.5 51 L 107.5 47 L 125.5 42 L 133.5 38 L 151.5 33 L 159.5 29 Q 201.881 17.881 239.5 2 Z " /><path fill="rgb(134,132,145)" stroke="rgb(134,132,145)" stroke-width="1" opacity="1" d="M 219.5 91 Q 271.471 89.529 317.5 94 L 318.5 95 L 327.5 95 L 328.5 96 Q 357.296 97.704 382.5 103 L 389 107.5 Q 395 137.625 392 176 L 117.5 176 L 117 175.5 L 117 102.5 Q 163.648 92.148 219.5 91 Z " /><path fill="rgb(134,132,145)" stroke="rgb(134,132,145)" stroke-width="1" opacity="1" d="M 136.5 299 L 137.5 301 L 136.5 299 Z " /><path fill="rgb(134,132,145)" stroke="rgb(134,132,145)" stroke-width="1" opacity="1" d="M 46.5 466 L 47.5 468 L 46.5 466 Z " /><path fill="rgb(134,132,145)" stroke="rgb(134,132,145)" stroke-width="1" opacity="1" d="M 71.5 476 L 467 476.5 L 71.5 477 L 71.5 476 Z " /><path fill="rgb(183,228,72)" stroke="rgb(183,228,72)" stroke-width="1" opacity="0.996078431372549" d="M 88.5 218 L 104.5 218 L 105.5 219 L 383.5 219 L 384.5 218 L 449.5 218 L 452 219 Q 442.659 232.067 441 251 L 94.5 251 Q 77.76 254.26 69 265.5 Q 59.524 275.024 60 294.5 Q 62.565 311.935 73.5 321 Q 81.706 328.794 95.5 331 L 439.5 331 Q 441 328.5 446.5 330 Q 454.295 331.205 458 336.5 Q 462.243 340.979 462 349 L 459.5 350 L 102.5 350 Q 67.332 345.668 50 323.5 Q 30.92 303.08 32 262.5 Q 39.88 244.38 54.5 233 Q 67.994 221.994 88.5 218 Z " /><path fill="rgb(232,234,234)" stroke="rgb(232,234,234)" stroke-width="1" opacity="0.996078431372549" d="M 437.5 254 L 438 255.5 L 436.5 259 L 436 256.5 L 437.5 254 Z " /><path fill="rgb(232,234,234)" stroke="rgb(232,234,234)" stroke-width="1" opacity="0.996078431372549" d="M 434.5 263 L 435 265.5 L 434 265.5 L 434.5 263 Z " /><path fill="rgb(232,234,234)" stroke="rgb(232,234,234)" stroke-width="1" opacity="0.996078431372549" d="M 97.5 267 L 136 267 L 136 299.5 Q 136.75 301.75 140.5 301 L 161.5 293 L 179.5 301 L 184 301 L 184 267.5 L 184.5 267 L 434 267 Q 430.936 277.582 431 292.5 L 432 293.5 Q 431.154 306.558 434 315 L 99.5 315 Q 88.376 314.021 83 308 Q 75 301.667 77 284.5 L 85.5 272 L 97.5 267 Z " /><path fill="rgb(232,234,234)" stroke="rgb(232,234,234)" stroke-width="1" opacity="0.996078431372549" d="M 435.5 319 L 437 323.5 L 436 323.5 L 435.5 319 Z " /><path fill="rgb(232,234,234)" stroke="rgb(232,234,234)" stroke-width="1" opacity="0.996078431372549" d="M 466.5 398 L 467 399.5 L 465.5 402 L 465 400.5 L 466.5 398 Z " /><path fill="rgb(232,234,234)" stroke="rgb(232,234,234)" stroke-width="1" opacity="0.996078431372549" d="M 462.5 409 L 463 411.5 Q 457.571 424.071 459 443.5 L 462 460 L 67.5 460 Q 59.75 457.75 55 452.5 Q 48.672 446.328 49 433.5 Q 51.643 421.643 60.5 416 L 68.5 413 L 325 413 L 325 445.5 L 326.5 447 L 329.5 447 Q 338.321 441.321 350.5 439 L 371.5 447 L 373 445.5 L 373 413 L 460.5 413 L 462 411.5 L 462.5 409 Z " /><path fill="rgb(232,234,234)" stroke="rgb(232,234,234)" stroke-width="1" opacity="0.996078431372549" d="M 462.5 461 L 463 463.5 L 462 463.5 L 462.5 461 Z " /><path fill="rgb(232,234,234)" stroke="rgb(232,234,234)" stroke-width="1" opacity="0.996078431372549" d="M 464.5 468 L 466 472.5 L 465 472.5 L 464.5 468 Z " /><path fill="rgb(222,225,225)" stroke="rgb(222,225,225)" stroke-width="1" opacity="1" d="M 94.5 251 L 136 251 L 136 267 L 97.5 267 Q 87.25 268.75 82 275.5 Q 74.857 281.357 77 296.5 L 83 308 Q 88.376 314.021 99.5 315 L 435 315.5 L 434 317.5 Q 435.304 325.696 440 330.5 L 95.5 331 Q 78.901 328.099 70 317.5 Q 59.271 307.729 60 286.5 Q 62.917 268.917 74.5 260 Q 82.058 253.058 94.5 251 Z " /><path fill="rgb(222,225,225)" stroke="rgb(222,225,225)" stroke-width="1" opacity="1" d="M 184 251 L 437.5 251 L 438 253.5 Q 433.785 258.381 434 267 L 184.5 267 L 184 266.5 L 184 251 Z " /><path fill="rgb(222,225,225)" stroke="rgb(222,225,225)" stroke-width="1" opacity="1" d="M 65.5 397 L 324.5 397 L 325 397.5 L 325 412.5 L 326 413.5 L 326 445.5 L 325 445.5 L 325 413.5 L 324.5 413 L 68.5 413 Q 57.795 415.295 53 423.5 Q 48.576 429.076 49 439.5 Q 50.55 448.95 56.5 454 L 67.5 460 L 462 460 L 465 473 L 467 473.5 L 466.5 476 L 64.5 476 Q 50.957 472.543 43 463.5 Q 31.822 453.178 33 430.5 Q 35.947 416.292 44 408 Q 52.183 400.483 65.5 397 Z " /><path fill="rgb(222,225,225)" stroke="rgb(222,225,225)" stroke-width="1" opacity="1" d="M 373 397 L 467 397.5 L 464 403.5 L 465 404.5 L 462 409.5 L 460.5 413 L 373.5 413 L 373 412.5 L 373 397 Z " /><path fill="rgb(2,1,0)" stroke="rgb(2,1,0)" stroke-width="1" opacity="0" d="M 0 0 L 512 0 L 512 243.5 L 511 243.5 L 492 196.5 Q 502.006 190.506 501 173.5 Q 498.643 162.357 490.5 157 L 485 155 L 485 87.5 L 481.5 82 L 254.5 3 L 239.5 2 L 9.5 81 L 5 85.5 Q 3.667 94.167 7 97 L 97 128 L 97 211.5 L 101 217.5 Q 59.514 219.514 42 245.5 Q 25.091 263.591 27 300.5 Q 32.525 331.975 53.5 348 Q 65.137 358.863 84 362.5 Q 35.913 361.913 16 389.5 Q 4.486 402.986 0.5 424 L 0 0 Z " /><path fill="rgb(2,1,0)" stroke="rgb(2,1,0)" stroke-width="1" opacity="0" d="M 467.5 102 L 468 155 Q 460.031 156.625 456 163.5 Q 450.857 169.357 452 181.5 Q 454.39 191.61 461 197.5 L 452 219 L 449.5 218 L 389 217.5 L 392 213.5 L 392 128 L 467.5 102 Z " /><path fill="rgb(2,1,0)" stroke="rgb(2,1,0)" stroke-width="1" opacity="0" d="M 439 251 Q 442.667 249.65 441 255.5 L 447.5 263 L 451.5 265 L 501.5 265 L 511 257.5 L 511.5 256 L 512 512 L 0.5 512 L 0 511.5 L 0 449.5 L 1 449.5 Q 5.999 477.501 24.5 492 Q 39.902 506.098 65.5 510 L 475.5 510 L 485 505 Q 490.077 500.712 489 489.5 L 483.5 480 Q 478.167 474.5 467 476 Q 458.042 457.646 459 428.5 Q 460.867 410.217 467 397 Q 481.131 399.031 486 390.5 Q 490.05 386.05 489 376.5 Q 486.893 368.607 480.5 365 Q 469.788 360.212 452 362.5 L 457 360 Q 461.335 355.679 462 346.5 Q 460.875 337.125 454.5 333 Q 448.747 328.909 439 330 Q 431.477 313.745 431 289.5 Q 431.815 266.613 439 251 Z " /><path fill="rgb(239,118,30)" stroke="rgb(239,118,30)" stroke-width="1" opacity="0.9921568627450981" d="M 470.5 154 Q 490.744 151.756 497 163.5 Q 502.143 169.357 501 181.5 Q 499.071 191.571 492 196.5 L 510 239.5 Q 513.25 245.25 512 255.5 L 505.5 263 L 501.5 265 L 451.5 265 L 442 257.5 Q 439.667 254.333 441 247.5 L 461 196.5 Q 450.994 190.506 452 173.5 Q 454.357 162.357 462.5 157 L 470.5 154 Z " /><path fill="rgb(239,118,30)" stroke="rgb(239,118,30)" stroke-width="1" opacity="0.9921568627450981" d="M 97 176 L 116.5 176 L 117.5 177 L 392 177 L 392 213.5 L 388.5 218 L 101.5 218 L 98 214.5 L 97 211.5 L 97 176 Z " /><path fill="rgb(239,118,30)" stroke="rgb(239,118,30)" stroke-width="1" opacity="0.9921568627450981" d="M 136 251 L 184 251 L 184 299.5 L 181.5 301 L 162.5 293 L 158.5 293 L 138.5 301 L 136 298.5 L 136 251 Z " /><path fill="rgb(239,118,30)" stroke="rgb(239,118,30)" stroke-width="1" opacity="0.9921568627450981" d="M 67.5 363 L 93.5 363 L 94.5 364 L 447.5 364 L 448.5 363 L 474.5 363 Q 483.375 364.625 487 371.5 Q 490 375.5 489 383.5 Q 487.45 390.45 482.5 394 L 476.5 397 L 373 397 L 373 445.5 Q 373 446.5 368.5 446 L 349.5 438 L 327.5 447 L 326 445.5 L 326 397 L 64.5 397 Q 50.957 400.457 43 409.5 Q 31.238 419.738 33 443.5 Q 36.613 459.387 47.5 468 Q 56.224 475.776 71.5 477 L 466.5 477 Q 468.5 474 475.5 476 L 485 481.5 Q 490.167 485.833 489 496.5 L 485 505 L 475.5 510 L 65.5 510 Q 34.438 505.063 18 485.5 Q -3.106 467.106 0 424.5 Q 5.973 395.473 25.5 380 Q 40.9 365.9 67.5 363 Z " /></svg>