<svg width="512" height="512" version="1.1" xmlns="http://www.w3.org/2000/svg" desc="Created with imagetracer.js version 1.2.6" ><path fill="rgb(9,170,86)" stroke="rgb(9,170,86)" stroke-width="1" opacity="0.9764705882352941" d="M 167.5 0 Q 198.778 -2.778 219.5 5 Q 252.888 17.317 276 39 Q 274.875 41.667 277.5 41 L 290.5 55 Q 292.75 54.25 292 56.5 Q 313.916 79.328 329 108 Q 360.163 125.512 383 152.5 Q 395.643 166.497 400 188 Q 405.333 188.583 408 184.5 L 430 132.5 L 402 63.5 L 412.5 52 L 416 57.5 L 437 111 Q 439.667 112.125 439 109.5 L 459 63.5 L 460 55.5 Q 456.247 40.753 449 29.5 Q 464.5 19 486.5 15 Q 511.948 49.552 512 109.5 Q 505.68 149.68 478.5 169 Q 451.766 190.766 414 201.5 Q 437.674 242.826 435 310.5 Q 424.008 402.508 369.5 451 Q 337.582 482.582 291.5 500 Q 254.241 515.241 198.5 512 Q 117.347 501.421 71 457 Q 72.125 454.333 69.5 455 L 58 443.5 L 58 442 L 55 440.5 L 51 434 Q 48.333 435.125 49 432.5 Q -2.336 380.836 0 275.5 Q -1.071 259.929 6.5 253 L 11.5 252 L 18 256.5 Q 14.625 281.625 16 311.5 Q 27.651 398.849 81.5 444 Q 131.044 496.956 234.5 496 Q 324.246 483.246 370 426.5 Q 418.008 377.508 419 281.5 Q 407.925 189.075 350.5 143 L 347.5 141 L 326.5 125 Q 294.895 153.895 252.5 172 Q 223.427 186.927 177.5 185 L 167 182.5 Q 237.491 163.491 282 118.5 L 280.5 116 L 247.5 111 L 162.5 177 Q 161.143 180.643 155.5 180 L 142 175 L 144.5 171 L 227 107.5 L 168.5 97 L 163.5 97 L 99.5 146 L 89 136.5 L 91.5 133 L 143 93.5 Q 95.448 81.921 44 77 Q 39.5 74.562 40 66.5 L 46.5 61 L 145 78 L 103 22.5 L 116.5 15 L 168.5 82 L 227.5 92 L 224 87.5 L 158.5 3 L 157 2.5 L 167.5 0 Z M 189 15 L 192 22 L 248 94 Q 256 100 271 99 Q 260 77 243 60 Q 221 32 189 15 Z M 466 86 L 454 113 L 455 115 Q 463 114 467 109 Q 471 93 466 86 Z M 462 128 L 446 135 L 431 168 L 432 170 L 436 167 Q 453 153 462 131 L 462 128 Z " /><path fill="rgb(72,202,92)" stroke="rgb(72,202,92)" stroke-width="1" opacity="0.9882352941176471" d="M 155.5 2 L 157 2.5 Q 135.323 7.323 117.5 16 L 117.5 15 Q 134.36 6.36 155.5 2 Z " /><path fill="rgb(72,202,92)" stroke="rgb(72,202,92)" stroke-width="1" opacity="0.9882352941176471" d="M 102.5 22 L 103 24 Q 71.75 39 47.5 62 L 47 60.5 Q 71.78 38.28 102.5 22 Z " /><path fill="rgb(72,202,92)" stroke="rgb(72,202,92)" stroke-width="1" opacity="0.9882352941176471" d="M 448.5 29 L 447.5 31 Q 428.059 39.559 413.5 53 L 418.5 47 Q 431.99 36.49 448.5 29 Z " /><path fill="rgb(72,202,92)" stroke="rgb(72,202,92)" stroke-width="1" opacity="0.9882352941176471" d="M 411.5 53 L 403.5 62 L 411.5 53 Z " /><path fill="rgb(72,202,92)" stroke="rgb(72,202,92)" stroke-width="1" opacity="0.9882352941176471" d="M 401.5 64 L 402 65.5 Q 384.196 83.696 383.5 119 L 383 105.5 Q 386.96 79.46 401.5 64 Z " /><path fill="rgb(72,202,92)" stroke="rgb(72,202,92)" stroke-width="1" opacity="0.9882352941176471" d="M 45.5 77 Q 63.896 109.604 89 135.5 L 80 127.5 Q 58.551 105.062 45.5 77 Z " /><path fill="rgb(72,202,92)" stroke="rgb(72,202,92)" stroke-width="1" opacity="0.9882352941176471" d="M 383.5 120 Q 383.863 144.637 391 162.5 L 390 162.5 Q 381.961 144.903 383.5 120 Z " /><path fill="rgb(72,202,92)" stroke="rgb(72,202,92)" stroke-width="1" opacity="0.9882352941176471" d="M 97.5 144 L 117 159.5 L 115.5 160 Q 103.7 153.05 97.5 144 Z " /><path fill="rgb(72,202,92)" stroke="rgb(72,202,92)" stroke-width="1" opacity="0.9882352941176471" d="M 488.5 159 L 485.5 163 L 488.5 159 Z " /><path fill="rgb(73,203,92)" stroke="rgb(73,203,92)" stroke-width="1" opacity="1" d="M 156.5 3 Q 161.5 2.5 162 6.5 L 228 91.5 L 225.5 92 L 176.5 83 L 171.5 83 L 165 78.5 L 117 16.5 Q 134.344 7.344 156.5 3 Z " /><path fill="rgb(73,203,92)" stroke="rgb(73,203,92)" stroke-width="1" opacity="1" d="M 187.5 14 Q 219.926 32.074 243 59.5 Q 259.975 77.125 271 99 Q 256.333 99.799 248 93.5 L 192 21.5 L 187.5 14 Z " /><path fill="rgb(73,203,92)" stroke="rgb(73,203,92)" stroke-width="1" opacity="1" d="M 103.5 23 L 145 78 L 48 61.5 Q 72.429 38.929 103.5 23 Z " /><path fill="rgb(73,203,92)" stroke="rgb(73,203,92)" stroke-width="1" opacity="1" d="M 448.5 30 Q 450.75 29.25 450 31.5 Q 457.763 43.237 460 60.5 L 439 111 Q 436.333 112.125 437 109.5 L 414 52.5 Q 429.144 39.144 448.5 30 Z " /><path fill="rgb(73,203,92)" stroke="rgb(73,203,92)" stroke-width="1" opacity="1" d="M 401.5 66 Q 403.75 65.25 403 67.5 L 430 132.5 L 410 180.5 L 406.5 186 L 400 188 Q 386.034 159.673 383 119.5 Q 384.152 84.652 401.5 66 Z " /><path fill="rgb(73,203,92)" stroke="rgb(73,203,92)" stroke-width="1" opacity="1" d="M 46.5 77 L 133.5 91 L 143 93.5 L 89.5 135 Q 63.155 109.864 46.5 77 Z " /><path fill="rgb(73,203,92)" stroke="rgb(73,203,92)" stroke-width="1" opacity="1" d="M 465.5 86 Q 470.75 92.75 467 108.5 Q 462.786 113.786 454.5 115 L 454 112.5 L 465.5 86 Z " /><path fill="rgb(73,203,92)" stroke="rgb(73,203,92)" stroke-width="1" opacity="1" d="M 163.5 97 L 168.5 97 L 227 107.5 L 142 173.5 L 141.5 175 Q 117.665 163.335 100 145.5 L 163.5 97 Z " /><path fill="rgb(73,203,92)" stroke="rgb(73,203,92)" stroke-width="1" opacity="1" d="M 247.5 111 Q 267.882 111.118 282 117.5 L 279.5 121 Q 234.967 164.467 165.5 183 L 157 180.5 L 247.5 111 Z " /><path fill="rgb(73,203,92)" stroke="rgb(73,203,92)" stroke-width="1" opacity="1" d="M 461.5 128 L 462 130.5 Q 452.83 152.83 435.5 167 L 430.5 171 L 431 169.5 L 445.5 135 L 461.5 128 Z " /><path fill="rgb(73,203,92)" stroke="rgb(73,203,92)" stroke-width="1" opacity="1" d="M 296.5 147 L 295.5 149 L 296.5 147 Z " /><path fill="rgb(73,203,92)" stroke="rgb(73,203,92)" stroke-width="1" opacity="1" d="M 293.5 149 L 292.5 151 L 293.5 149 Z " /><path fill="rgb(73,203,92)" stroke="rgb(73,203,92)" stroke-width="1" opacity="1" d="M 290.5 151 L 289.5 153 L 290.5 151 Z " /><path fill="rgb(73,203,92)" stroke="rgb(73,203,92)" stroke-width="1" opacity="1" d="M 287.5 153 L 286.5 155 L 287.5 153 Z " /><path fill="rgb(73,203,92)" stroke="rgb(73,203,92)" stroke-width="1" opacity="1" d="M 282.5 156 L 281.5 158 L 282.5 156 Z " /><path fill="rgb(73,203,92)" stroke="rgb(73,203,92)" stroke-width="1" opacity="1" d="M 275.5 160 L 274.5 162 L 272.5 163 L 273.5 161 L 275.5 160 Z " /><path fill="rgb(73,203,92)" stroke="rgb(73,203,92)" stroke-width="1" opacity="1" d="M 212.5 183 L 215 183.5 L 212.5 184 L 212.5 183 Z " /><path fill="rgb(73,203,92)" stroke="rgb(73,203,92)" stroke-width="1" opacity="1" d="M 174.5 184 L 177 184.5 L 174.5 185 L 174.5 184 Z " /><path fill="rgb(73,203,92)" stroke="rgb(73,203,92)" stroke-width="1" opacity="1" d="M 205.5 184 L 209 184.5 L 205.5 185 L 205.5 184 Z " /><path fill="rgb(73,203,92)" stroke="rgb(73,203,92)" stroke-width="1" opacity="1" d="M 184.5 185 L 198 185.5 L 184.5 186 L 184.5 185 Z " /><path fill="rgb(96,182,254)" stroke="rgb(96,182,254)" stroke-width="1" opacity="0.984313725490196" d="M 378.5 247 Q 380.75 246.25 380 248.5 Q 387.038 268.462 387 295.5 L 386 298.5 Q 381.648 372.332 342 410 L 339 411.5 L 332.5 419 Q 290.952 464.952 201.5 463 L 198.5 462 L 193 461.5 Q 259.521 448.521 295 404.5 Q 313.707 382.207 328 355.5 L 331 345.5 Q 329.696 325.196 335 311.5 L 335 279.5 L 345.5 268 Q 360.548 256.048 378.5 247 Z " /><path fill="rgb(180,231,98)" stroke="rgb(180,231,98)" stroke-width="1" opacity="0.996078431372549" d="M 297.5 147 L 300.5 147 L 316 156 Q 314.875 158.667 317.5 158 L 320 159 Q 318.875 161.667 321.5 161 L 331 168 L 332.5 171 Q 334.75 170.25 334 172.5 L 338 175 L 340.5 179 Q 344.75 178.562 344 182.5 L 351 192 Q 353.667 190.875 353 193.5 Q 370.995 215.005 379 246.5 Q 352.199 258.699 334 279.5 Q 324.229 291.229 327 315.5 Q 331.64 327.36 331 344.5 Q 325.425 366.425 310.5 379 Q 299.963 392.963 276.5 394 Q 270.036 392.464 267 387.5 Q 260.723 378.277 260 363.5 L 259 302.5 Q 256.25 300.75 258 294.5 Q 256.875 283.125 249.5 278 Q 245.667 275.333 237.5 277 Q 218.063 283.563 190.5 282 Q 177.266 279.234 170 270.5 Q 160.655 260.345 160 241.5 Q 163.906 216.906 179.5 204 L 204.5 185 Q 260.998 175.998 297.5 147 Z " /><path fill="rgb(180,231,98)" stroke="rgb(180,231,98)" stroke-width="1" opacity="0.996078431372549" d="M 60.5 236 L 67 242.5 Q 76.628 266.372 92.5 284 Q 112.083 287.417 124 298.5 L 126 306.5 Q 119.65 332.65 107 352.5 Q 104 358.5 105 368.5 Q 119.323 386.177 120 417.5 Q 116 420.542 119 430 L 115 429 Q 116.125 426.333 113.5 427 L 101 416.5 L 97.5 412 Q 95.25 412.75 96 410.5 Q 48.523 368.977 50 278.5 Q 51.476 253.476 60.5 236 Z " /><path fill="rgb(0,0,0)" stroke="rgb(0,0,0)" stroke-width="1" opacity="0" d="M 0 0 L 167 0.5 Q 86.707 17.707 39 67.5 Q 63.481 115.019 101.5 149 L 115 159.5 L 112.5 163 L 93 180.5 Q 67.148 208.148 55 249.5 Q 47.188 275.688 50 312.5 Q 60.886 383.614 105.5 421 Q 144.221 460.279 218.5 464 Q 303.814 458.314 344 407.5 Q 384.115 368.115 387 291.5 Q 380.399 208.101 330.5 168 Q 316.926 155.574 300 146.5 L 326.5 125 L 349 141 Q 347.875 143.667 350.5 143 Q 417.096 193.404 419 308.5 Q 407.095 400.595 349.5 447 Q 319.295 474.295 275.5 488 Q 245.194 498.694 201.5 496 Q 115.012 484.988 70 432.5 Q 41.344 402.656 26 359.5 Q 13.321 326.679 16 278.5 Q 18.846 269.346 18 256.5 Q 15.375 252.625 9.5 252 L 3 256.5 L 0.5 275 L 0 0 Z " /><path fill="rgb(0,0,0)" stroke="rgb(0,0,0)" stroke-width="1" opacity="0" d="M 198.5 0 L 511.5 0 L 512 0.5 L 512 86.5 L 511 86.5 Q 506.242 43.258 486.5 15 Q 434.613 28.113 403 61.5 Q 379.428 83.928 383 133.5 L 389 159.5 L 388 159.5 Q 376.625 142.375 360.5 130 Q 346.537 116.538 329 108 Q 313.482 78.687 292 55 Q 289.333 56.125 290 53.5 L 277.5 41 L 276 41 L 274.5 38 Q 245.212 9.33 198.5 0 Z " /><path fill="rgb(0,0,0)" stroke="rgb(0,0,0)" stroke-width="1" opacity="0" d="M 511.5 111 L 512 512 L 238 511.5 Q 328.549 499.549 376 444.5 Q 434.693 390.693 435 278.5 Q 431.259 233.241 414 201.5 Q 459.582 188.582 489 159.5 Q 507.751 142.751 511.5 111 Z " /><path fill="rgb(0,0,0)" stroke="rgb(0,0,0)" stroke-width="1" opacity="0" d="M 0.5 316 Q 10.035 390.169 49 434 Q 51.667 432.875 51 435.5 L 56.5 442 Q 58.75 441.25 58 443.5 L 69.5 455 L 71 455 Q 69.875 457.667 72.5 457 Q 117.547 501.953 198 511.5 L 0 512 L 0.5 316 Z " /><path fill="rgb(137,200,252)" stroke="rgb(137,200,252)" stroke-width="1" opacity="0.9921568627450981" d="M 115.5 160 L 117 160.5 L 93 182.5 Q 72.492 204.992 60.5 236 L 60 234.5 Q 75.359 194.859 104.5 169 L 115.5 160 Z " /><path fill="rgb(137,200,252)" stroke="rgb(137,200,252)" stroke-width="1" opacity="0.9921568627450981" d="M 324.5 163 L 325.5 165 L 324.5 163 Z " /><path fill="rgb(137,200,252)" stroke="rgb(137,200,252)" stroke-width="1" opacity="0.9921568627450981" d="M 331.5 169 L 332.5 171 L 331.5 169 Z " /><path fill="rgb(137,200,252)" stroke="rgb(137,200,252)" stroke-width="1" opacity="0.9921568627450981" d="M 334.5 172 L 336.5 175 L 334.5 172 Z " /><path fill="rgb(137,200,252)" stroke="rgb(137,200,252)" stroke-width="1" opacity="0.9921568627450981" d="M 338.5 176 L 340.5 179 L 338.5 176 Z " /><path fill="rgb(137,200,252)" stroke="rgb(137,200,252)" stroke-width="1" opacity="0.9921568627450981" d="M 347.5 186 L 348.5 188 L 347.5 186 Z " /><path fill="rgb(137,200,252)" stroke="rgb(137,200,252)" stroke-width="1" opacity="0.9921568627450981" d="M 76.5 386 L 77.5 388 L 76.5 386 Z " /><path fill="rgb(137,200,252)" stroke="rgb(137,200,252)" stroke-width="1" opacity="0.9921568627450981" d="M 359.5 386 L 358.5 388 L 359.5 386 Z " /><path fill="rgb(137,200,252)" stroke="rgb(137,200,252)" stroke-width="1" opacity="0.9921568627450981" d="M 78.5 389 L 79.5 391 L 78.5 389 Z " /><path fill="rgb(137,200,252)" stroke="rgb(137,200,252)" stroke-width="1" opacity="0.9921568627450981" d="M 355.5 392 L 354.5 394 L 355.5 392 Z " /><path fill="rgb(137,200,252)" stroke="rgb(137,200,252)" stroke-width="1" opacity="0.9921568627450981" d="M 83.5 396 L 84.5 398 L 83.5 396 Z " /><path fill="rgb(137,200,252)" stroke="rgb(137,200,252)" stroke-width="1" opacity="0.9921568627450981" d="M 87.5 401 L 88.5 403 L 87.5 401 Z " /><path fill="rgb(137,200,252)" stroke="rgb(137,200,252)" stroke-width="1" opacity="0.9921568627450981" d="M 92.5 407 L 95.5 411 L 92.5 407 Z " /><path fill="rgb(137,200,252)" stroke="rgb(137,200,252)" stroke-width="1" opacity="0.9921568627450981" d="M 343.5 407 L 342.5 409 L 343.5 407 Z " /><path fill="rgb(137,200,252)" stroke="rgb(137,200,252)" stroke-width="1" opacity="0.9921568627450981" d="M 340.5 410 L 339.5 412 L 340.5 410 Z " /><path fill="rgb(137,200,252)" stroke="rgb(137,200,252)" stroke-width="1" opacity="0.9921568627450981" d="M 97.5 412 L 100.5 416 L 97.5 412 Z " /><path fill="rgb(137,200,252)" stroke="rgb(137,200,252)" stroke-width="1" opacity="0.9921568627450981" d="M 103.5 418 L 105.5 421 L 103.5 418 Z " /><path fill="rgb(137,200,252)" stroke="rgb(137,200,252)" stroke-width="1" opacity="0.9921568627450981" d="M 331.5 419 L 330.5 421 L 331.5 419 Z " /><path fill="rgb(137,200,252)" stroke="rgb(137,200,252)" stroke-width="1" opacity="0.9921568627450981" d="M 324.5 425 L 323.5 427 L 324.5 425 Z " /><path fill="rgb(137,200,252)" stroke="rgb(137,200,252)" stroke-width="1" opacity="0.9921568627450981" d="M 118.5 430 Q 148.428 453.072 193 461.5 L 191.5 461 Q 145.304 454.206 118.5 430 Z " /><path fill="rgb(137,200,253)" stroke="rgb(137,200,253)" stroke-width="1" opacity="1" d="M 117.5 160 Q 144.966 186.034 198.5 186 L 203.5 185 L 201.5 188 Q 187.062 196.063 176 207.5 Q 161.863 219.363 160 243.5 Q 161.971 264.529 174.5 275 Q 185.957 285.043 210.5 282 Q 225.719 276.219 247.5 277 L 254 282.5 Q 258.123 290.877 259 302.5 Q 258.028 338.972 261 371.5 Q 262.701 385.299 271.5 392 Q 275.857 395.143 284.5 394 Q 303.383 388.883 314 375.5 L 317.5 371 L 315 374.5 Q 300.316 403.316 276.5 423 Q 244.863 452.363 192.5 461 Q 147.732 453.268 119 429.5 L 120 411.5 Q 117.667 384.833 105 368.5 L 105 359.5 Q 111.4 337.9 122 320.5 L 126 305.5 Q 125.472 298.028 120.5 295 Q 111.797 288.703 98.5 287 Q 91.75 284.75 88 279.5 Q 77.551 254.449 61 235.5 Q 76.616 195.116 106.5 169 L 117.5 160 Z " /><path fill="rgb(137,200,253)" stroke="rgb(137,200,253)" stroke-width="1" opacity="1" d="M 347.5 266 L 346.5 268 L 347.5 266 Z " /><path fill="rgb(137,200,253)" stroke="rgb(137,200,253)" stroke-width="1" opacity="1" d="M 335.5 278 L 335 279.5 Q 337.483 312.483 330.5 336 Q 325.615 319.385 327 296.5 Q 328.788 284.788 335.5 278 Z " /></svg>