<svg width="512" height="512" version="1.1" xmlns="http://www.w3.org/2000/svg" desc="Created with imagetracer.js version 1.2.6" ><path fill="rgb(0,0,0)" stroke="rgb(0,0,0)" stroke-width="1" opacity="0" d="M 0 0 L 226 0.5 L 194.5 13 Q 140.967 8.467 100.5 17 Q 69.774 25.005 50 43 L 48 49.5 L 50 54.5 Q 42.643 60.357 39 69 L 34.5 68 L 28 72.5 Q 13.521 97.521 14 137.5 Q 17.762 191.738 49.5 218 Q 58.275 225.725 72 228.5 L 64.5 248 Q 62.25 244.75 54.5 247 Q 48.036 248.536 45 253.5 L 30.5 293 L 18 302 Q 3.11 315.468 0.5 342 L 0 0 Z " /><path fill="rgb(0,0,0)" stroke="rgb(0,0,0)" stroke-width="1" opacity="0" d="M 238.5 0 L 512 0 L 512 204.5 L 511 204.5 Q 511.5 200.5 508.5 200 L 506.5 199 L 481.5 199 L 477 202.5 L 476 207.5 L 479.5 213 L 481.5 214 L 506.5 214 L 511 210.5 L 511.5 208 L 512 512 L 184 511.5 L 190 507.5 Q 194.833 500.745 192 487 L 236.5 506 Q 244.2 509.8 256.5 509 Q 276.82 505.82 287 492.5 L 294 480.5 L 343 358.5 L 346.5 353 Q 368.879 352.879 378 339.5 Q 388.333 328.833 387 306.5 Q 384.083 288.917 372.5 280 Q 365.244 273.392 354 272 L 354 249 L 378.5 249 Q 393.412 250.588 403.5 257 L 427.5 280 Q 431 284 439.5 283 L 448 276.5 L 450 271.5 L 450 221.5 L 446.5 217 L 443 216 L 443 196.5 L 444.5 196 L 449 192.5 L 450 189.5 L 450 141.5 Q 448.464 135.036 443.5 132 Q 440.5 129 433.5 130 Q 416.417 137.417 407.5 153 L 389.5 162 L 377.5 163 L 376.5 164 L 286.5 164 Q 277.45 166.45 273 173.5 L 269 183.5 L 269 229.5 Q 271.357 240.643 279.5 246 Q 284.928 250.35 295 249 L 295 273.5 L 293.5 275 L 287 279.5 Q 281.377 285.377 280 295.5 L 280 335.5 L 246 418 L 240.5 417 L 192 396 Q 195.044 363.168 180 347.5 L 182 342.5 L 183 310.5 Q 180.89 303.11 175.5 299 L 160 291.5 L 167.5 274 Q 180.805 285.195 205.5 285 L 216 278.5 L 231 251.5 L 232 243.5 Q 230.464 237.036 225.5 234 Q 218 231 214 224.5 Q 210.4 221.1 211 213.5 Q 213.679 204.179 221.5 200 Q 230.5 194 243.5 192 L 251 186.5 Q 256.87 176.87 256 160.5 Q 253.85 152.15 247.5 148 L 235 142.5 Q 233.942 113.887 226 93 Q 238.635 90.302 246 80.5 Q 262.392 63.392 260 27.5 Q 258.441 12.059 248.5 5 Q 244.958 1.542 238.5 1 L 238.5 0 Z M 490 156 L 476 167 Q 467 169 469 181 Q 471 185 477 185 Q 488 180 496 171 L 499 167 L 498 160 Q 496 155 490 156 Z M 476 228 L 473 229 Q 467 231 469 240 Q 478 250 491 257 L 496 256 L 499 252 L 498 245 L 482 230 L 476 228 Z " /><path fill="rgb(0,0,0)" stroke="rgb(0,0,0)" stroke-width="1" opacity="0" d="M 0.5 502 Q 1.375 507.625 5.5 510 L 9 511.5 L 0 512 L 0.5 502 Z " /><path fill="rgb(133,147,220)" stroke="rgb(133,147,220)" stroke-width="1" opacity="1" d="M 38.5 306 L 158.5 354 L 168 356 Q 177.649 366.697 177 388.5 L 175.5 388 L 106.5 358 Q 98.167 354.333 84.5 356 Q 67.87 359.87 59 371.5 Q 49.961 381.461 50 400.5 Q 52.746 419.254 64.5 429 L 75.5 436 L 171.5 477 L 177 480.5 L 177 496.5 L 176.5 497 L 16 497 L 16 339.5 Q 19.537 321.037 31.5 311 L 38.5 306 Z " /><path fill="rgb(133,147,220)" stroke="rgb(133,147,220)" stroke-width="1" opacity="1" d="M 167.5 321 L 168 323.5 L 167 323.5 L 167.5 321 Z " /><path fill="rgb(133,147,220)" stroke="rgb(133,147,220)" stroke-width="1" opacity="1" d="M 166.5 336 L 167 338.5 L 166 338.5 L 166.5 336 Z " /><path fill="rgb(0,0,0)" stroke="rgb(0,0,0)" stroke-width="1" opacity="0.8980392156862745" d="M 228.5 0 L 236 0.5 L 228.5 1 L 228.5 0 Z " /><path fill="rgb(0,0,0)" stroke="rgb(0,0,0)" stroke-width="1" opacity="0.8980392156862745" d="M 253.5 11 L 254.5 13 L 253.5 11 Z " /><path fill="rgb(0,0,0)" stroke="rgb(0,0,0)" stroke-width="1" opacity="0.8980392156862745" d="M 133.5 13 L 193 13.5 L 133.5 14 L 133.5 13 Z " /><path fill="rgb(0,0,0)" stroke="rgb(0,0,0)" stroke-width="1" opacity="0.8980392156862745" d="M 62.5 34 L 61.5 36 L 62.5 34 Z " /><path fill="rgb(0,0,0)" stroke="rgb(0,0,0)" stroke-width="1" opacity="0.8980392156862745" d="M 259.5 36 L 260 38.5 L 259 38.5 L 259.5 36 Z " /><path fill="rgb(0,0,0)" stroke="rgb(0,0,0)" stroke-width="1" opacity="0.8980392156862745" d="M 54.5 40 L 52.5 43 L 54.5 40 Z " /><path fill="rgb(0,0,0)" stroke="rgb(0,0,0)" stroke-width="1" opacity="0.8980392156862745" d="M 30.5 70 L 29.5 72 L 30.5 70 Z " /><path fill="rgb(0,0,0)" stroke="rgb(0,0,0)" stroke-width="1" opacity="0.8980392156862745" d="M 247.5 77 L 245.5 80 L 247.5 77 Z " /><path fill="rgb(0,0,0)" stroke="rgb(0,0,0)" stroke-width="1" opacity="0.8980392156862745" d="M 241.5 83 L 239.5 86 L 241.5 83 Z " /><path fill="rgb(0,0,0)" stroke="rgb(0,0,0)" stroke-width="1" opacity="0.8980392156862745" d="M 435.5 130 L 438 130.5 L 435.5 131 L 435.5 130 Z " /><path fill="rgb(0,0,0)" stroke="rgb(0,0,0)" stroke-width="1" opacity="0.8980392156862745" d="M 233.5 131 L 234 133.5 L 233 133.5 L 233.5 131 Z " /><path fill="rgb(0,0,0)" stroke="rgb(0,0,0)" stroke-width="1" opacity="0.8980392156862745" d="M 444.5 133 L 446.5 136 L 444.5 133 Z " /><path fill="rgb(0,0,0)" stroke="rgb(0,0,0)" stroke-width="1" opacity="0.8980392156862745" d="M 15.5 142 L 16 144.5 L 15 144.5 L 15.5 142 Z " /><path fill="rgb(0,0,0)" stroke="rgb(0,0,0)" stroke-width="1" opacity="0.8980392156862745" d="M 234.5 142 L 235.5 144 L 234.5 142 Z " /><path fill="rgb(0,0,0)" stroke="rgb(0,0,0)" stroke-width="1" opacity="0.8980392156862745" d="M 248.5 149 L 251.5 153 L 248.5 149 Z " /><path fill="rgb(0,0,0)" stroke="rgb(0,0,0)" stroke-width="1" opacity="0.8980392156862745" d="M 409.5 151 L 408.5 153 L 409.5 151 Z " /><path fill="rgb(0,0,0)" stroke="rgb(0,0,0)" stroke-width="1" opacity="0.8980392156862745" d="M 486.5 158 L 484.5 161 L 486.5 158 Z " /><path fill="rgb(0,0,0)" stroke="rgb(0,0,0)" stroke-width="1" opacity="0.8980392156862745" d="M 498.5 162 L 499 165.5 L 498 165.5 L 498.5 162 Z " /><path fill="rgb(0,0,0)" stroke="rgb(0,0,0)" stroke-width="1" opacity="0.8980392156862745" d="M 255.5 163 L 256 165.5 L 255 165.5 L 255.5 163 Z " /><path fill="rgb(0,0,0)" stroke="rgb(0,0,0)" stroke-width="1" opacity="0.8980392156862745" d="M 479.5 164 L 477.5 167 L 479.5 164 Z " /><path fill="rgb(0,0,0)" stroke="rgb(0,0,0)" stroke-width="1" opacity="0.8980392156862745" d="M 277.5 169 L 274.5 173 L 277.5 169 Z " /><path fill="rgb(0,0,0)" stroke="rgb(0,0,0)" stroke-width="1" opacity="0.8980392156862745" d="M 472.5 170 L 470.5 173 L 472.5 170 Z " /><path fill="rgb(0,0,0)" stroke="rgb(0,0,0)" stroke-width="1" opacity="0.8980392156862745" d="M 493.5 171 L 491.5 174 L 493.5 171 Z " /><path fill="rgb(0,0,0)" stroke="rgb(0,0,0)" stroke-width="1" opacity="0.8980392156862745" d="M 487.5 176 L 485.5 179 L 487.5 176 Z " /><path fill="rgb(0,0,0)" stroke="rgb(0,0,0)" stroke-width="1" opacity="0.8980392156862745" d="M 36.5 203 L 37.5 205 L 36.5 203 Z " /><path fill="rgb(0,0,0)" stroke="rgb(0,0,0)" stroke-width="1" opacity="0.8980392156862745" d="M 40.5 208 L 47.5 216 L 40.5 208 Z " /><path fill="rgb(0,0,0)" stroke="rgb(0,0,0)" stroke-width="1" opacity="0.8980392156862745" d="M 482.5 213 L 506 213.5 L 482.5 214 L 482.5 213 Z " /><path fill="rgb(0,0,0)" stroke="rgb(0,0,0)" stroke-width="1" opacity="0.8980392156862745" d="M 213.5 224 L 214.5 226 L 213.5 224 Z " /><path fill="rgb(0,0,0)" stroke="rgb(0,0,0)" stroke-width="1" opacity="0.8980392156862745" d="M 219.5 230 L 220.5 232 L 219.5 230 Z " /><path fill="rgb(0,0,0)" stroke="rgb(0,0,0)" stroke-width="1" opacity="0.8980392156862745" d="M 484.5 233 L 486.5 236 L 484.5 233 Z " /><path fill="rgb(0,0,0)" stroke="rgb(0,0,0)" stroke-width="1" opacity="0.8980392156862745" d="M 491.5 239 L 493.5 242 L 491.5 239 Z " /><path fill="rgb(0,0,0)" stroke="rgb(0,0,0)" stroke-width="1" opacity="0.8980392156862745" d="M 470.5 240 L 472.5 243 L 470.5 240 Z " /><path fill="rgb(0,0,0)" stroke="rgb(0,0,0)" stroke-width="1" opacity="0.8980392156862745" d="M 275.5 241 L 277.5 244 L 275.5 241 Z " /><path fill="rgb(0,0,0)" stroke="rgb(0,0,0)" stroke-width="1" opacity="0.8980392156862745" d="M 476.5 245 L 478.5 248 L 476.5 245 Z " /><path fill="rgb(0,0,0)" stroke="rgb(0,0,0)" stroke-width="1" opacity="0.8980392156862745" d="M 498.5 247 L 499 250.5 L 498 250.5 L 498.5 247 Z " /><path fill="rgb(0,0,0)" stroke="rgb(0,0,0)" stroke-width="1" opacity="0.8980392156862745" d="M 483.5 251 L 485.5 254 L 483.5 251 Z " /><path fill="rgb(0,0,0)" stroke="rgb(0,0,0)" stroke-width="1" opacity="0.8980392156862745" d="M 407.5 259 L 408.5 261 L 407.5 259 Z " /><path fill="rgb(0,0,0)" stroke="rgb(0,0,0)" stroke-width="1" opacity="0.8980392156862745" d="M 291.5 276 L 290.5 278 L 291.5 276 Z " /><path fill="rgb(0,0,0)" stroke="rgb(0,0,0)" stroke-width="1" opacity="0.8980392156862745" d="M 446.5 277 L 444.5 280 L 446.5 277 Z " /><path fill="rgb(0,0,0)" stroke="rgb(0,0,0)" stroke-width="1" opacity="0.8980392156862745" d="M 370.5 279 L 371.5 281 L 370.5 279 Z " /><path fill="rgb(0,0,0)" stroke="rgb(0,0,0)" stroke-width="1" opacity="0.8980392156862745" d="M 428.5 279 L 429.5 281 L 428.5 279 Z " /><path fill="rgb(0,0,0)" stroke="rgb(0,0,0)" stroke-width="1" opacity="0.8980392156862745" d="M 212.5 280 L 211.5 282 L 212.5 280 Z " /><path fill="rgb(0,0,0)" stroke="rgb(0,0,0)" stroke-width="1" opacity="0.8980392156862745" d="M 286.5 281 L 285.5 283 L 286.5 281 Z " /><path fill="rgb(0,0,0)" stroke="rgb(0,0,0)" stroke-width="1" opacity="0.8980392156862745" d="M 200.5 284 L 203 284.5 L 200.5 285 L 200.5 284 Z " /><path fill="rgb(0,0,0)" stroke="rgb(0,0,0)" stroke-width="1" opacity="0.8980392156862745" d="M 32.5 291 L 30.5 294 L 32.5 291 Z " /><path fill="rgb(0,0,0)" stroke="rgb(0,0,0)" stroke-width="1" opacity="0.8980392156862745" d="M 23.5 298 L 21.5 301 L 23.5 298 Z " /><path fill="rgb(0,0,0)" stroke="rgb(0,0,0)" stroke-width="1" opacity="0.8980392156862745" d="M 17.5 304 L 15.5 307 L 17.5 304 Z " /><path fill="rgb(0,0,0)" stroke="rgb(0,0,0)" stroke-width="1" opacity="0.8980392156862745" d="M 182.5 319 L 183 322.5 L 182 322.5 L 182.5 319 Z " /><path fill="rgb(0,0,0)" stroke="rgb(0,0,0)" stroke-width="1" opacity="0.8980392156862745" d="M 181.5 334 L 182 337.5 L 181 337.5 L 181.5 334 Z " /><path fill="rgb(0,0,0)" stroke="rgb(0,0,0)" stroke-width="1" opacity="0.8980392156862745" d="M 378.5 337 L 377.5 339 L 378.5 337 Z " /><path fill="rgb(0,0,0)" stroke="rgb(0,0,0)" stroke-width="1" opacity="0.8980392156862745" d="M 371.5 344 L 370.5 346 L 371.5 344 Z " /><path fill="rgb(0,0,0)" stroke="rgb(0,0,0)" stroke-width="1" opacity="0.8980392156862745" d="M 246.5 417 L 245.5 419 L 246.5 417 Z " /><path fill="rgb(0,0,0)" stroke="rgb(0,0,0)" stroke-width="1" opacity="0.8980392156862745" d="M 287.5 490 L 286.5 492 L 287.5 490 Z " /><path fill="rgb(0,0,0)" stroke="rgb(0,0,0)" stroke-width="1" opacity="1" d="M 225.5 1 Q 246.024 -1.024 253 10.5 Q 262.6 22.9 259 48.5 Q 255.932 70.932 242.5 83 Q 235.25 90 225 93 Q 233.153 115.023 235.5 144 Q 247.517 145.983 253 154.5 Q 256.429 159.571 255 169.5 Q 254.241 182.241 247.5 189 Q 224.89 192.89 213 207.5 Q 209.5 211.5 211 220.5 Q 214 228 220.5 232 L 229 238.5 Q 232.167 241.833 231 249.5 Q 224.839 267.339 213.5 280 Q 208.182 286.182 194.5 284 Q 177.374 281.626 166.5 273 L 160 291.5 Q 171.682 295.318 179 303.5 Q 183.217 308.783 183 318.5 L 182 319.5 Q 182.824 335.824 180 348.5 Q 193.693 365.807 193.5 397 L 245.5 419 L 248 415.5 L 281 334.5 L 281 293.5 Q 282.717 283.217 289.5 278 L 295 274.5 L 295 249.5 Q 295 248.5 290.5 249 Q 278.483 247.017 273 238.5 L 270 231.5 L 270 181.5 Q 272.45 172.45 279.5 168 L 289.5 164 L 383.5 164 L 388.5 163 Q 414.975 154.475 428.5 133 Q 432.167 129.667 440.5 131 L 448 137.5 L 449 140.5 L 449 190.5 L 446.5 194 L 441.5 196 L 436 192.5 L 435 190.5 L 435 148 Q 415.845 174.835 374 179 L 374 233.5 Q 374.125 234.625 379.5 234 Q 417.224 239.276 434.5 265 L 435 220.5 L 438.5 217 L 443.5 216 L 448 219.5 L 449 221.5 L 449 272.5 L 442.5 281 L 432.5 282 Q 418.333 264.167 397.5 253 Q 380.632 245.235 353 249 L 353 272.5 Q 353 273.5 357.5 273 Q 370.465 277.035 378 286.5 Q 388.462 297.038 386 320.5 Q 382.636 335.636 372.5 344 Q 361.747 352.747 344 354.5 L 294 478.5 Q 289.229 491.229 279.5 499 Q 268.833 509.333 246.5 508 Q 216.438 499.491 192 486 Q 195 502.313 187.5 509 L 179.5 512 L 12.5 512 Q 5.875 511.125 3 506.5 L 1 502.5 L 1 339.5 Q 5.173 314.673 20.5 301 L 33 291.5 L 43 258.5 L 49.5 250 Q 53.542 247.042 60.5 247 L 66 248 L 72 227 Q 49.133 222.783 38 205.5 Q 13.5 176 15 120.5 Q 17.477 89.477 31.5 70 L 36.5 69 L 41 71.5 L 42 79.5 Q 26.869 103.369 30 145.5 Q 34.627 184.373 57.5 205 Q 66.936 215.064 87.5 214 L 91 208.5 L 94 184 Q 85.775 181.55 81 174.5 Q 71.773 165.727 74 145.5 Q 77.606 129.606 89.5 122 Q 97.7 114.2 115.5 116 Q 124.825 118.175 130.5 124 Q 138.174 110.674 149.5 101 Q 159.432 92.432 173.5 88 Q 198.438 85.938 219.5 80 Q 229.809 76.309 236 68.5 Q 246.125 56.125 245 32.5 Q 245.558 20.942 238.5 17 Q 235.833 14.167 229.5 15 L 197.5 28 Q 147.135 24.135 107.5 31 L 83.5 39 Q 70.212 45.212 60.5 55 L 53.5 56 L 51 55 Q 48.429 52.714 49 46.5 L 51 43 Q 71.379 24.524 103.5 17 L 121.5 15 L 122.5 14 L 192.5 14 Q 211.428 9.928 225.5 1 Z M 209 97 Q 177 98 160 112 Q 147 123 139 139 L 141 147 L 140 155 L 135 158 L 131 157 L 127 154 Q 127 144 123 138 L 115 131 Q 101 129 96 136 Q 89 141 88 152 Q 88 160 92 165 Q 97 172 109 174 L 112 173 L 120 174 Q 123 176 122 184 Q 119 189 110 188 L 108 190 Q 108 207 103 220 Q 99 227 89 228 Q 80 238 79 255 L 138 282 L 147 285 L 157 257 L 162 253 L 168 254 Q 173 262 183 266 Q 191 270 203 270 Q 212 261 216 247 L 213 244 Q 200 236 196 220 Q 195 204 203 197 Q 215 182 238 178 Q 243 174 241 163 Q 237 157 228 156 L 220 147 Q 220 118 211 99 Q 212 96 209 97 Z M 290 179 L 288 180 L 284 185 L 284 228 L 285 231 L 290 234 L 359 234 L 359 179 L 290 179 Z M 310 249 L 310 272 L 338 272 L 338 249 L 310 249 Z M 57 262 L 47 293 Q 51 298 60 299 L 162 339 L 167 340 Q 164 332 168 330 Q 170 316 167 311 L 68 265 L 57 262 Z M 307 286 L 301 288 L 295 296 L 295 338 L 259 426 L 250 433 L 241 433 L 218 424 L 197 472 Q 220 486 250 494 Q 265 494 273 486 L 281 473 L 333 345 L 340 339 Q 353 340 361 335 Q 369 329 372 318 Q 373 300 365 293 Q 360 287 349 286 L 307 286 Z M 39 305 L 35 308 Q 18 319 15 344 L 15 497 L 177 497 L 177 497 L 177 479 L 77 436 L 68 431 Q 55 422 51 405 Q 49 383 58 374 Q 68 360 88 356 Q 98 355 106 358 L 177 389 Q 179 369 170 359 L 167 355 Q 158 356 155 352 L 46 309 L 39 305 Z M 88 371 L 78 375 Q 69 381 66 392 Q 64 406 70 413 L 82 422 L 184 466 L 205 419 L 198 414 L 106 374 Q 99 370 88 371 Z " /><path fill="rgb(0,0,0)" stroke="rgb(0,0,0)" stroke-width="1" opacity="1" d="M 489.5 157 Q 496.375 156.125 498 160.5 Q 499.313 168.813 494.5 171 Q 488.396 181.396 474.5 184 L 470 180.5 L 469 175.5 L 476.5 167 L 489.5 157 Z " /><path fill="rgb(0,0,0)" stroke="rgb(0,0,0)" stroke-width="1" opacity="1" d="M 483.5 199 Q 502.583 194.917 510 202.5 L 511 208.5 L 508.5 212 L 506.5 213 L 481.5 213 L 478 210.5 L 477 204.5 L 480.5 200 L 483.5 199 Z " /><path fill="rgb(0,0,0)" stroke="rgb(0,0,0)" stroke-width="1" opacity="1" d="M 474.5 229 Q 479.8 228.2 481.5 231 L 498 245.5 Q 499.75 253.25 495.5 255 L 489.5 256 L 470 239.5 L 469 234.5 L 472.5 230 L 474.5 229 Z " /><path fill="rgb(248,125,118)" stroke="rgb(248,125,118)" stroke-width="1" opacity="1" d="M 204.5 98 Q 211.5 96.5 211 99.5 Q 219.535 117.465 219 144.5 Q 221.11 151.89 226.5 156 L 240 162.5 Q 241.478 173.478 236.5 178 Q 213.513 182.012 202 197.5 L 196.5 209 L 196 202.5 L 197 201.5 L 197 164.5 Q 194.083 128.917 183 101.5 L 203.5 99 L 204.5 98 Z " /><path fill="rgb(248,125,118)" stroke="rgb(248,125,118)" stroke-width="1" opacity="1" d="M 162.5 110 L 161.5 112 L 162.5 110 Z " /><path fill="rgb(248,125,118)" stroke="rgb(248,125,118)" stroke-width="1" opacity="1" d="M 156.5 115 L 153.5 119 L 156.5 115 Z " /><path fill="rgb(248,125,118)" stroke="rgb(248,125,118)" stroke-width="1" opacity="1" d="M 150.5 122 L 149.5 124 L 150.5 122 Z " /><path fill="rgb(248,125,118)" stroke="rgb(248,125,118)" stroke-width="1" opacity="1" d="M 148.5 125 L 147.5 127 L 148.5 125 Z " /><path fill="rgb(248,125,118)" stroke="rgb(248,125,118)" stroke-width="1" opacity="1" d="M 97.5 135 L 96.5 137 L 97.5 135 Z " /><path fill="rgb(248,125,118)" stroke="rgb(248,125,118)" stroke-width="1" opacity="1" d="M 94.5 138 L 93.5 140 L 94.5 138 Z " /><path fill="rgb(248,125,118)" stroke="rgb(248,125,118)" stroke-width="1" opacity="1" d="M 140.5 154 L 138.5 157 L 140.5 154 Z " /><path fill="rgb(248,125,118)" stroke="rgb(248,125,118)" stroke-width="1" opacity="1" d="M 114.5 172 L 117 172.5 L 114.5 173 L 114.5 172 Z " /><path fill="rgb(248,125,118)" stroke="rgb(248,125,118)" stroke-width="1" opacity="1" d="M 120.5 174 L 121.5 176 L 120.5 174 Z " /><path fill="rgb(248,125,118)" stroke="rgb(248,125,118)" stroke-width="1" opacity="1" d="M 290.5 179 L 359 179 L 359 234 L 290.5 234 L 285 229.5 L 285 183.5 L 288.5 180 L 290.5 179 Z " /><path fill="rgb(248,125,118)" stroke="rgb(248,125,118)" stroke-width="1" opacity="1" d="M 109.5 188 L 114 188.5 L 109.5 189 L 109.5 188 Z " /><path fill="rgb(248,125,118)" stroke="rgb(248,125,118)" stroke-width="1" opacity="1" d="M 195.5 211 Q 195.601 234.399 210.5 243 L 216 246.5 L 203.5 269 Q 185.229 269.771 176 261.5 L 177.5 262 L 180 260.5 Q 191.968 239.968 195.5 211 Z " /><path fill="rgb(248,125,118)" stroke="rgb(248,125,118)" stroke-width="1" opacity="1" d="M 97.5 225 L 96.5 227 L 97.5 225 Z " /><path fill="rgb(248,125,118)" stroke="rgb(248,125,118)" stroke-width="1" opacity="1" d="M 161.5 252 L 166 252.5 L 161.5 253 L 161.5 252 Z " /><path fill="rgb(248,125,118)" stroke="rgb(248,125,118)" stroke-width="1" opacity="1" d="M 159.5 253 L 157.5 256 L 159.5 253 Z " /><path fill="rgb(248,125,118)" stroke="rgb(248,125,118)" stroke-width="1" opacity="1" d="M 170.5 256 L 173.5 260 L 170.5 256 Z " /><path fill="rgb(248,125,118)" stroke="rgb(248,125,118)" stroke-width="1" opacity="1" d="M 146.5 283 L 145.5 285 L 146.5 283 Z " /><path fill="rgb(248,125,118)" stroke="rgb(248,125,118)" stroke-width="1" opacity="1" d="M 300.5 288 L 297.5 292 L 300.5 288 Z " /><path fill="rgb(248,125,118)" stroke="rgb(248,125,118)" stroke-width="1" opacity="1" d="M 358 290 Q 364.1 290.85 367 296.5 Q 373.667 303.833 371 320.5 Q 368.5 328.5 362.5 333 Q 354.376 339.876 338.5 339 L 333 343.5 L 281 471.5 Q 277.583 482.083 269.5 488 Q 264.094 494.094 251.5 493 L 257 486.5 L 262 477.5 L 317 339.5 L 321.5 333 Q 341.856 333.356 351 322.5 Q 361 313.5 359 292.5 L 358 290 Z " /><path fill="rgb(248,125,118)" stroke="rgb(248,125,118)" stroke-width="1" opacity="1" d="M 219.5 424 L 218.5 426 L 219.5 424 Z " /><path fill="rgb(248,125,118)" stroke="rgb(248,125,118)" stroke-width="1" opacity="1" d="M 259.5 425 L 258.5 427 L 259.5 425 Z " /><path fill="rgb(248,125,118)" stroke="rgb(248,125,118)" stroke-width="1" opacity="1" d="M 254.5 430 L 253.5 432 L 254.5 430 Z " /><path fill="rgb(247,184,169)" stroke="rgb(247,184,169)" stroke-width="1" opacity="0.996078431372549" d="M 180.5 102 Q 184.875 100.5 184 103.5 Q 199.618 143.382 197 201.5 Q 193.988 237.988 178.5 262 Q 170.5 260 167.5 253 L 161.5 252 L 157 255.5 L 148 280.5 L 145.5 284 L 80 255 L 80 251.5 L 88 229 Q 98.773 228.568 103 220.5 Q 109.071 207.469 109 189 Q 119.636 190.341 123 183.5 Q 124.25 176.25 120.5 174 L 114.5 172 Q 112.75 174.75 106.5 173 Q 97.393 171.107 93 164.5 Q 87.923 159.577 89 148.5 L 95 137 Q 100.01 131.171 111.5 131 Q 118.45 132.55 122 137.5 Q 125.794 143.206 126 152.5 L 130.5 158 Q 138.813 159.313 141 154.5 L 142 148.5 L 140 138.5 Q 147.732 122.732 160.5 112 L 180.5 102 Z " /><path fill="rgb(247,184,169)" stroke="rgb(247,184,169)" stroke-width="1" opacity="0.996078431372549" d="M 433.5 149 L 434 189.5 L 437.5 195 L 443 196 L 443 214.5 L 441.5 216 Q 436.75 216.25 435 219.5 L 434 222.5 L 433.5 264 Q 415.918 236.308 374 234 L 374 179.5 Q 374.625 177.875 383.5 179 Q 417.021 172.521 433.5 149 Z " /><path fill="rgb(247,184,169)" stroke="rgb(247,184,169)" stroke-width="1" opacity="0.996078431372549" d="M 58.5 262 L 164.5 310 L 167 312.5 L 168 320.5 Q 168.813 332.313 165.5 340 L 48 294 L 48 289.5 L 58.5 262 Z " /><path fill="rgb(247,184,169)" stroke="rgb(247,184,169)" stroke-width="1" opacity="0.996078431372549" d="M 304.5 287 L 350.5 287 L 358 289 Q 360.3 294.55 359 305.5 Q 356.906 318.406 348.5 325 L 340.5 330 Q 334.75 333.25 324.5 332 L 319 335.5 L 262 477.5 Q 258.179 487.179 250.5 493 Q 220.91 485.51 198 472 L 219.5 425 L 241.5 434 L 247.5 434 Q 256.375 432.375 260 425.5 L 296 336.5 L 296 294.5 L 301.5 288 L 304.5 287 Z " /><path fill="rgb(0,0,0)" stroke="rgb(0,0,0)" stroke-width="1" opacity="0.49019607843137253" d="M 245.5 3 L 246.5 5 L 245.5 3 Z " /><path fill="rgb(0,0,0)" stroke="rgb(0,0,0)" stroke-width="1" opacity="0.49019607843137253" d="M 248.5 5 L 253.5 11 L 248.5 5 Z " /><path fill="rgb(0,0,0)" stroke="rgb(0,0,0)" stroke-width="1" opacity="0.49019607843137253" d="M 126.5 13 L 133 13.5 L 126.5 14 L 126.5 13 Z " /><path fill="rgb(0,0,0)" stroke="rgb(0,0,0)" stroke-width="1" opacity="0.49019607843137253" d="M 116.5 14 L 120 14.5 L 116.5 15 L 116.5 14 Z " /><path fill="rgb(0,0,0)" stroke="rgb(0,0,0)" stroke-width="1" opacity="0.49019607843137253" d="M 259.5 27 L 260 35.5 L 259 35.5 L 259.5 27 Z " /><path fill="rgb(0,0,0)" stroke="rgb(0,0,0)" stroke-width="1" opacity="0.49019607843137253" d="M 60.5 35 L 59.5 37 L 60.5 35 Z " /><path fill="rgb(0,0,0)" stroke="rgb(0,0,0)" stroke-width="1" opacity="0.49019607843137253" d="M 56.5 38 L 55.5 40 L 56.5 38 Z " /><path fill="rgb(0,0,0)" stroke="rgb(0,0,0)" stroke-width="1" opacity="0.49019607843137253" d="M 259.5 39 L 260 45.5 L 259 45.5 L 259.5 39 Z " /><path fill="rgb(0,0,0)" stroke="rgb(0,0,0)" stroke-width="1" opacity="0.49019607843137253" d="M 48.5 47 L 49 49.5 L 48 49.5 L 48.5 47 Z " /><path fill="rgb(0,0,0)" stroke="rgb(0,0,0)" stroke-width="1" opacity="0.49019607843137253" d="M 49.5 52 L 50.5 54 L 49.5 52 Z " /><path fill="rgb(0,0,0)" stroke="rgb(0,0,0)" stroke-width="1" opacity="0.49019607843137253" d="M 245.5 80 L 242.5 84 L 245.5 80 Z " /><path fill="rgb(0,0,0)" stroke="rgb(0,0,0)" stroke-width="1" opacity="0.49019607843137253" d="M 16.5 107 L 17 109.5 L 16 109.5 L 16.5 107 Z " /><path fill="rgb(0,0,0)" stroke="rgb(0,0,0)" stroke-width="1" opacity="0.49019607843137253" d="M 15.5 113 L 16 117.5 L 15 117.5 L 15.5 113 Z " /><path fill="rgb(0,0,0)" stroke="rgb(0,0,0)" stroke-width="1" opacity="0.49019607843137253" d="M 232.5 120 L 233 122.5 L 232 122.5 L 232.5 120 Z " /><path fill="rgb(0,0,0)" stroke="rgb(0,0,0)" stroke-width="1" opacity="0.49019607843137253" d="M 14.5 126 L 15 137.5 L 14 137.5 L 14.5 126 Z " /><path fill="rgb(0,0,0)" stroke="rgb(0,0,0)" stroke-width="1" opacity="0.49019607843137253" d="M 233.5 127 L 234 130.5 L 233 130.5 L 233.5 127 Z " /><path fill="rgb(0,0,0)" stroke="rgb(0,0,0)" stroke-width="1" opacity="0.49019607843137253" d="M 427.5 133 L 410.5 151 L 427.5 133 Z " /><path fill="rgb(0,0,0)" stroke="rgb(0,0,0)" stroke-width="1" opacity="0.49019607843137253" d="M 449.5 141 L 450 189.5 L 449 189.5 L 449.5 141 Z " /><path fill="rgb(0,0,0)" stroke="rgb(0,0,0)" stroke-width="1" opacity="0.49019607843137253" d="M 15.5 145 L 16 148.5 L 15 148.5 L 15.5 145 Z " /><path fill="rgb(0,0,0)" stroke="rgb(0,0,0)" stroke-width="1" opacity="0.49019607843137253" d="M 16.5 153 L 17 155.5 L 16 155.5 L 16.5 153 Z " /><path fill="rgb(0,0,0)" stroke="rgb(0,0,0)" stroke-width="1" opacity="0.49019607843137253" d="M 406.5 153 L 405.5 155 L 406.5 153 Z " /><path fill="rgb(0,0,0)" stroke="rgb(0,0,0)" stroke-width="1" opacity="0.49019607843137253" d="M 489.5 156 L 494 156.5 L 489.5 157 L 489.5 156 Z " /><path fill="rgb(0,0,0)" stroke="rgb(0,0,0)" stroke-width="1" opacity="0.49019607843137253" d="M 495.5 157 L 497.5 160 L 495.5 157 Z " /><path fill="rgb(0,0,0)" stroke="rgb(0,0,0)" stroke-width="1" opacity="0.49019607843137253" d="M 17.5 158 L 18 160.5 L 17 160.5 L 17.5 158 Z " /><path fill="rgb(0,0,0)" stroke="rgb(0,0,0)" stroke-width="1" opacity="0.49019607843137253" d="M 255.5 160 L 256 162.5 L 255 162.5 L 255.5 160 Z " /><path fill="rgb(0,0,0)" stroke="rgb(0,0,0)" stroke-width="1" opacity="0.49019607843137253" d="M 482.5 161 L 480.5 164 L 482.5 161 Z " /><path fill="rgb(0,0,0)" stroke="rgb(0,0,0)" stroke-width="1" opacity="0.49019607843137253" d="M 377.5 163 L 382 163.5 L 377.5 164 L 377.5 163 Z " /><path fill="rgb(0,0,0)" stroke="rgb(0,0,0)" stroke-width="1" opacity="0.49019607843137253" d="M 255.5 166 L 256 168.5 L 255 168.5 L 255.5 166 Z " /><path fill="rgb(0,0,0)" stroke="rgb(0,0,0)" stroke-width="1" opacity="0.49019607843137253" d="M 279.5 167 L 278.5 169 L 279.5 167 Z " /><path fill="rgb(0,0,0)" stroke="rgb(0,0,0)" stroke-width="1" opacity="0.49019607843137253" d="M 475.5 167 L 473.5 170 L 475.5 167 Z " /><path fill="rgb(0,0,0)" stroke="rgb(0,0,0)" stroke-width="1" opacity="0.49019607843137253" d="M 497.5 168 L 495.5 171 L 497.5 168 Z " /><path fill="rgb(0,0,0)" stroke="rgb(0,0,0)" stroke-width="1" opacity="0.49019607843137253" d="M 254.5 171 L 255 173.5 L 254 173.5 L 254.5 171 Z " /><path fill="rgb(0,0,0)" stroke="rgb(0,0,0)" stroke-width="1" opacity="0.49019607843137253" d="M 490.5 174 L 488.5 177 L 490.5 174 Z " /><path fill="rgb(0,0,0)" stroke="rgb(0,0,0)" stroke-width="1" opacity="0.49019607843137253" d="M 253.5 176 L 254 178.5 L 253 178.5 L 253.5 176 Z " /><path fill="rgb(0,0,0)" stroke="rgb(0,0,0)" stroke-width="1" opacity="0.49019607843137253" d="M 484.5 179 L 482.5 182 L 484.5 179 Z " /><path fill="rgb(0,0,0)" stroke="rgb(0,0,0)" stroke-width="1" opacity="0.49019607843137253" d="M 469.5 180 L 472.5 184 L 469.5 180 Z " /><path fill="rgb(0,0,0)" stroke="rgb(0,0,0)" stroke-width="1" opacity="0.49019607843137253" d="M 269.5 183 L 270 229.5 L 269 229.5 L 269.5 183 Z " /><path fill="rgb(0,0,0)" stroke="rgb(0,0,0)" stroke-width="1" opacity="0.49019607843137253" d="M 250.5 186 L 247.5 190 L 250.5 186 Z " /><path fill="rgb(0,0,0)" stroke="rgb(0,0,0)" stroke-width="1" opacity="0.49019607843137253" d="M 448.5 192 L 446.5 195 L 448.5 192 Z " /><path fill="rgb(0,0,0)" stroke="rgb(0,0,0)" stroke-width="1" opacity="0.49019607843137253" d="M 479.5 200 L 477.5 203 L 479.5 200 Z " /><path fill="rgb(0,0,0)" stroke="rgb(0,0,0)" stroke-width="1" opacity="0.49019607843137253" d="M 508.5 200 L 510.5 203 L 508.5 200 Z " /><path fill="rgb(0,0,0)" stroke="rgb(0,0,0)" stroke-width="1" opacity="0.49019607843137253" d="M 219.5 201 L 214.5 207 L 219.5 201 Z " /><path fill="rgb(0,0,0)" stroke="rgb(0,0,0)" stroke-width="1" opacity="0.49019607843137253" d="M 37.5 205 L 39.5 208 L 37.5 205 Z " /><path fill="rgb(0,0,0)" stroke="rgb(0,0,0)" stroke-width="1" opacity="0.49019607843137253" d="M 476.5 205 L 477 207.5 L 476 207.5 L 476.5 205 Z " /><path fill="rgb(0,0,0)" stroke="rgb(0,0,0)" stroke-width="1" opacity="0.49019607843137253" d="M 511.5 205 L 512 207.5 L 511 207.5 L 511.5 205 Z " /><path fill="rgb(0,0,0)" stroke="rgb(0,0,0)" stroke-width="1" opacity="0.49019607843137253" d="M 477.5 210 L 479.5 213 L 477.5 210 Z " /><path fill="rgb(0,0,0)" stroke="rgb(0,0,0)" stroke-width="1" opacity="0.49019607843137253" d="M 510.5 210 L 508.5 213 L 510.5 210 Z " /><path fill="rgb(0,0,0)" stroke="rgb(0,0,0)" stroke-width="1" opacity="0.49019607843137253" d="M 48.5 216 L 49.5 218 L 48.5 216 Z " /><path fill="rgb(0,0,0)" stroke="rgb(0,0,0)" stroke-width="1" opacity="0.49019607843137253" d="M 446.5 217 L 448.5 220 L 446.5 217 Z " /><path fill="rgb(0,0,0)" stroke="rgb(0,0,0)" stroke-width="1" opacity="0.49019607843137253" d="M 52.5 219 L 53.5 221 L 52.5 219 Z " /><path fill="rgb(0,0,0)" stroke="rgb(0,0,0)" stroke-width="1" opacity="0.49019607843137253" d="M 449.5 221 L 450 271.5 L 449 271.5 L 449.5 221 Z " /><path fill="rgb(0,0,0)" stroke="rgb(0,0,0)" stroke-width="1" opacity="0.49019607843137253" d="M 215.5 226 L 218.5 230 L 215.5 226 Z " /><path fill="rgb(0,0,0)" stroke="rgb(0,0,0)" stroke-width="1" opacity="0.49019607843137253" d="M 475.5 228 L 478 228.5 L 475.5 229 L 475.5 228 Z " /><path fill="rgb(0,0,0)" stroke="rgb(0,0,0)" stroke-width="1" opacity="0.49019607843137253" d="M 472.5 229 L 469.5 233 L 472.5 229 Z " /><path fill="rgb(0,0,0)" stroke="rgb(0,0,0)" stroke-width="1" opacity="0.49019607843137253" d="M 481.5 230 L 483.5 233 L 481.5 230 Z " /><path fill="rgb(0,0,0)" stroke="rgb(0,0,0)" stroke-width="1" opacity="0.49019607843137253" d="M 225.5 234 L 226.5 236 L 225.5 234 Z " /><path fill="rgb(0,0,0)" stroke="rgb(0,0,0)" stroke-width="1" opacity="0.49019607843137253" d="M 488.5 236 L 490.5 239 L 488.5 236 Z " /><path fill="rgb(0,0,0)" stroke="rgb(0,0,0)" stroke-width="1" opacity="0.49019607843137253" d="M 228.5 237 L 229.5 239 L 228.5 237 Z " /><path fill="rgb(0,0,0)" stroke="rgb(0,0,0)" stroke-width="1" opacity="0.49019607843137253" d="M 273.5 239 L 274.5 241 L 273.5 239 Z " /><path fill="rgb(0,0,0)" stroke="rgb(0,0,0)" stroke-width="1" opacity="0.49019607843137253" d="M 494.5 241 L 497.5 245 L 494.5 241 Z " /><path fill="rgb(0,0,0)" stroke="rgb(0,0,0)" stroke-width="1" opacity="0.49019607843137253" d="M 231.5 243 L 232 248.5 L 231 248.5 L 231.5 243 Z " /><path fill="rgb(0,0,0)" stroke="rgb(0,0,0)" stroke-width="1" opacity="0.49019607843137253" d="M 473.5 243 L 475.5 246 L 473.5 243 Z " /><path fill="rgb(0,0,0)" stroke="rgb(0,0,0)" stroke-width="1" opacity="0.49019607843137253" d="M 278.5 244 L 279.5 246 L 278.5 244 Z " /><path fill="rgb(0,0,0)" stroke="rgb(0,0,0)" stroke-width="1" opacity="0.49019607843137253" d="M 479.5 248 L 482.5 252 L 479.5 248 Z " /><path fill="rgb(0,0,0)" stroke="rgb(0,0,0)" stroke-width="1" opacity="0.49019607843137253" d="M 49.5 249 L 45.5 254 L 49.5 249 Z " /><path fill="rgb(0,0,0)" stroke="rgb(0,0,0)" stroke-width="1" opacity="0.49019607843137253" d="M 353.5 249 L 354 272 L 357 272.5 L 354.5 273 L 353 271.5 L 353.5 249 Z " /><path fill="rgb(0,0,0)" stroke="rgb(0,0,0)" stroke-width="1" opacity="0.49019607843137253" d="M 379.5 249 L 383 249.5 L 379.5 250 L 379.5 249 Z " /><path fill="rgb(0,0,0)" stroke="rgb(0,0,0)" stroke-width="1" opacity="0.49019607843137253" d="M 497.5 253 L 495.5 256 L 497.5 253 Z " /><path fill="rgb(0,0,0)" stroke="rgb(0,0,0)" stroke-width="1" opacity="0.49019607843137253" d="M 486.5 254 L 487.5 256 L 486.5 254 Z " /><path fill="rgb(0,0,0)" stroke="rgb(0,0,0)" stroke-width="1" opacity="0.49019607843137253" d="M 490.5 256 L 493 256.5 L 490.5 257 L 490.5 256 Z " /><path fill="rgb(0,0,0)" stroke="rgb(0,0,0)" stroke-width="1" opacity="0.49019607843137253" d="M 405.5 258 L 406.5 260 L 405.5 258 Z " /><path fill="rgb(0,0,0)" stroke="rgb(0,0,0)" stroke-width="1" opacity="0.49019607843137253" d="M 409.5 261 L 427.5 280 L 409.5 261 Z " /><path fill="rgb(0,0,0)" stroke="rgb(0,0,0)" stroke-width="1" opacity="0.49019607843137253" d="M 215.5 278 L 213.5 281 L 215.5 278 Z " /><path fill="rgb(0,0,0)" stroke="rgb(0,0,0)" stroke-width="1" opacity="0.49019607843137253" d="M 288.5 278 L 287.5 280 L 288.5 278 Z " /><path fill="rgb(0,0,0)" stroke="rgb(0,0,0)" stroke-width="1" opacity="0.49019607843137253" d="M 372.5 280 L 377.5 286 L 372.5 280 Z " /><path fill="rgb(0,0,0)" stroke="rgb(0,0,0)" stroke-width="1" opacity="0.49019607843137253" d="M 433.5 282 L 440 282.5 L 433.5 283 L 433.5 282 Z " /><path fill="rgb(0,0,0)" stroke="rgb(0,0,0)" stroke-width="1" opacity="0.49019607843137253" d="M 196.5 284 L 200 284.5 L 196.5 285 L 196.5 284 Z " /><path fill="rgb(0,0,0)" stroke="rgb(0,0,0)" stroke-width="1" opacity="0.49019607843137253" d="M 203.5 284 L 206 284.5 L 203.5 285 L 203.5 284 Z " /><path fill="rgb(0,0,0)" stroke="rgb(0,0,0)" stroke-width="1" opacity="0.49019607843137253" d="M 379.5 288 L 380.5 290 L 379.5 288 Z " /><path fill="rgb(0,0,0)" stroke="rgb(0,0,0)" stroke-width="1" opacity="0.49019607843137253" d="M 29.5 293 L 28.5 295 L 29.5 293 Z " /><path fill="rgb(0,0,0)" stroke="rgb(0,0,0)" stroke-width="1" opacity="0.49019607843137253" d="M 280.5 295 L 281 333.5 L 280 333.5 L 280.5 295 Z " /><path fill="rgb(0,0,0)" stroke="rgb(0,0,0)" stroke-width="1" opacity="0.49019607843137253" d="M 25.5 296 L 24.5 298 L 25.5 296 Z " /><path fill="rgb(0,0,0)" stroke="rgb(0,0,0)" stroke-width="1" opacity="0.49019607843137253" d="M 175.5 299 L 178.5 303 L 175.5 299 Z " /><path fill="rgb(0,0,0)" stroke="rgb(0,0,0)" stroke-width="1" opacity="0.49019607843137253" d="M 386.5 306 L 387 318.5 L 386 318.5 L 386.5 306 Z " /><path fill="rgb(0,0,0)" stroke="rgb(0,0,0)" stroke-width="1" opacity="0.49019607843137253" d="M 14.5 307 L 13.5 309 L 14.5 307 Z " /><path fill="rgb(0,0,0)" stroke="rgb(0,0,0)" stroke-width="1" opacity="0.49019607843137253" d="M 11.5 311 L 10.5 313 L 11.5 311 Z " /><path fill="rgb(0,0,0)" stroke="rgb(0,0,0)" stroke-width="1" opacity="0.49019607843137253" d="M 182.5 323 L 183 329.5 L 182 329.5 L 182.5 323 Z " /><path fill="rgb(0,0,0)" stroke="rgb(0,0,0)" stroke-width="1" opacity="0.49019607843137253" d="M 181.5 338 L 182 342.5 L 181 342.5 L 181.5 338 Z " /><path fill="rgb(0,0,0)" stroke="rgb(0,0,0)" stroke-width="1" opacity="0.49019607843137253" d="M 377.5 339 L 373.5 344 L 377.5 339 Z " /><path fill="rgb(0,0,0)" stroke="rgb(0,0,0)" stroke-width="1" opacity="0.49019607843137253" d="M 0.5 342 L 1 501.5 L 0 501.5 L 0.5 342 Z " /><path fill="rgb(0,0,0)" stroke="rgb(0,0,0)" stroke-width="1" opacity="0.49019607843137253" d="M 367.5 347 L 366.5 349 L 367.5 347 Z " /><path fill="rgb(0,0,0)" stroke="rgb(0,0,0)" stroke-width="1" opacity="0.49019607843137253" d="M 191.5 373 L 192 376.5 L 191 376.5 L 191.5 373 Z " /><path fill="rgb(0,0,0)" stroke="rgb(0,0,0)" stroke-width="1" opacity="0.49019607843137253" d="M 286.5 492 L 280.5 499 L 286.5 492 Z " /><path fill="rgb(0,0,0)" stroke="rgb(0,0,0)" stroke-width="1" opacity="0.49019607843137253" d="M 277.5 500 L 276.5 502 L 277.5 500 Z " /><path fill="rgb(0,0,0)" stroke="rgb(0,0,0)" stroke-width="1" opacity="0.49019607843137253" d="M 2.5 506 L 5.5 510 L 2.5 506 Z " /><path fill="rgb(0,0,0)" stroke="rgb(0,0,0)" stroke-width="1" opacity="0.49019607843137253" d="M 189.5 507 L 188.5 509 L 189.5 507 Z " /><path fill="rgb(0,0,0)" stroke="rgb(0,0,0)" stroke-width="1" opacity="0.49019607843137253" d="M 248.5 508 L 257 508.5 L 248.5 509 L 248.5 508 Z " /><path fill="rgb(102,91,101)" stroke="rgb(102,91,101)" stroke-width="1" opacity="0.996078431372549" d="M 229.5 15 Q 240.583 13.917 243 21.5 Q 245.692 29.808 245 41.5 Q 243.862 63.862 230.5 74 L 216.5 81 Q 187.551 82.551 165.5 91 Q 150.154 98.154 140 110.5 L 130.5 124 Q 123.087 113.913 103.5 116 Q 87.85 119.85 80 131.5 Q 71.9 140.4 74 159.5 Q 77.633 173.367 87.5 181 L 94 184 L 91 208.5 L 87.5 214 Q 60.881 214.619 51 198.5 Q 26.877 171.123 30 116.5 Q 32.722 94.722 42 79.5 L 42 73.5 L 39 67.5 L 50.5 54 Q 52.5 57 58.5 56 Q 77.335 37.835 107.5 31 Q 147.135 24.135 197.5 28 L 229.5 15 Z " /><path fill="rgb(102,91,101)" stroke="rgb(102,91,101)" stroke-width="1" opacity="0.996078431372549" d="M 208.5 97 L 211 97.5 L 208.5 98 L 208.5 97 Z " /><path fill="rgb(102,91,101)" stroke="rgb(102,91,101)" stroke-width="1" opacity="0.996078431372549" d="M 200.5 98 L 204 98.5 L 200.5 99 L 200.5 98 Z " /><path fill="rgb(102,91,101)" stroke="rgb(102,91,101)" stroke-width="1" opacity="0.996078431372549" d="M 194.5 99 L 197 99.5 L 194.5 100 L 194.5 99 Z " /><path fill="rgb(102,91,101)" stroke="rgb(102,91,101)" stroke-width="1" opacity="0.996078431372549" d="M 187.5 100 L 190 100.5 L 187.5 101 L 187.5 100 Z " /><path fill="rgb(102,91,101)" stroke="rgb(102,91,101)" stroke-width="1" opacity="0.996078431372549" d="M 166.5 107 L 165.5 109 L 166.5 107 Z " /><path fill="rgb(102,91,101)" stroke="rgb(102,91,101)" stroke-width="1" opacity="0.996078431372549" d="M 159.5 112 L 157.5 115 L 159.5 112 Z " /><path fill="rgb(102,91,101)" stroke="rgb(102,91,101)" stroke-width="1" opacity="0.996078431372549" d="M 152.5 119 L 151.5 121 L 152.5 119 Z " /><path fill="rgb(102,91,101)" stroke="rgb(102,91,101)" stroke-width="1" opacity="0.996078431372549" d="M 218.5 128 L 219 131.5 L 218 131.5 L 218.5 128 Z " /><path fill="rgb(102,91,101)" stroke="rgb(102,91,101)" stroke-width="1" opacity="0.996078431372549" d="M 145.5 129 L 144.5 131 L 145.5 129 Z " /><path fill="rgb(102,91,101)" stroke="rgb(102,91,101)" stroke-width="1" opacity="0.996078431372549" d="M 118.5 133 L 122.5 138 L 118.5 133 Z " /><path fill="rgb(102,91,101)" stroke="rgb(102,91,101)" stroke-width="1" opacity="0.996078431372549" d="M 95.5 136 L 94.5 138 L 95.5 136 Z " /><path fill="rgb(102,91,101)" stroke="rgb(102,91,101)" stroke-width="1" opacity="0.996078431372549" d="M 139.5 138 L 140 140.5 L 139 140.5 L 139.5 138 Z " /><path fill="rgb(102,91,101)" stroke="rgb(102,91,101)" stroke-width="1" opacity="0.996078431372549" d="M 92.5 140 L 91.5 142 L 92.5 140 Z " /><path fill="rgb(102,91,101)" stroke="rgb(102,91,101)" stroke-width="1" opacity="0.996078431372549" d="M 219.5 141 L 220 144.5 L 219 144.5 L 219.5 141 Z " /><path fill="rgb(102,91,101)" stroke="rgb(102,91,101)" stroke-width="1" opacity="0.996078431372549" d="M 125.5 145 L 126 147.5 L 125 147.5 L 125.5 145 Z " /><path fill="rgb(102,91,101)" stroke="rgb(102,91,101)" stroke-width="1" opacity="0.996078431372549" d="M 433.5 148 L 435 148.5 L 435 188.5 L 434 188.5 L 433.5 149 L 419 162.5 L 433.5 148 Z " /><path fill="rgb(102,91,101)" stroke="rgb(102,91,101)" stroke-width="1" opacity="0.996078431372549" d="M 88.5 151 L 89 153.5 L 88 153.5 L 88.5 151 Z " /><path fill="rgb(102,91,101)" stroke="rgb(102,91,101)" stroke-width="1" opacity="0.996078431372549" d="M 223.5 152 L 226.5 156 L 223.5 152 Z " /><path fill="rgb(102,91,101)" stroke="rgb(102,91,101)" stroke-width="1" opacity="0.996078431372549" d="M 127.5 154 L 129.5 157 L 127.5 154 Z " /><path fill="rgb(102,91,101)" stroke="rgb(102,91,101)" stroke-width="1" opacity="0.996078431372549" d="M 237.5 160 L 241 162.5 L 240.5 167 Q 241.1 162.4 238.5 161 L 237.5 160 Z " /><path fill="rgb(102,91,101)" stroke="rgb(102,91,101)" stroke-width="1" opacity="0.996078431372549" d="M 92.5 164 L 93.5 166 L 92.5 164 Z " /><path fill="rgb(102,91,101)" stroke="rgb(102,91,101)" stroke-width="1" opacity="0.996078431372549" d="M 95.5 167 L 97.5 170 L 95.5 167 Z " /><path fill="rgb(102,91,101)" stroke="rgb(102,91,101)" stroke-width="1" opacity="0.996078431372549" d="M 108.5 173 L 111 173.5 L 108.5 174 L 108.5 173 Z " /><path fill="rgb(102,91,101)" stroke="rgb(102,91,101)" stroke-width="1" opacity="0.996078431372549" d="M 238.5 175 L 239 176.5 L 237 177.5 L 238.5 175 Z " /><path fill="rgb(102,91,101)" stroke="rgb(102,91,101)" stroke-width="1" opacity="0.996078431372549" d="M 122.5 178 L 123 182.5 L 122 182.5 L 122.5 178 Z " /><path fill="rgb(102,91,101)" stroke="rgb(102,91,101)" stroke-width="1" opacity="0.996078431372549" d="M 378.5 178 L 383 178.5 L 378.5 179 L 378.5 178 Z " /><path fill="rgb(102,91,101)" stroke="rgb(102,91,101)" stroke-width="1" opacity="0.996078431372549" d="M 287.5 180 L 285.5 183 L 287.5 180 Z " /><path fill="rgb(102,91,101)" stroke="rgb(102,91,101)" stroke-width="1" opacity="0.996078431372549" d="M 121.5 184 L 119.5 187 L 121.5 184 Z " /><path fill="rgb(102,91,101)" stroke="rgb(102,91,101)" stroke-width="1" opacity="0.996078431372549" d="M 284.5 184 L 285 227.5 L 284 227.5 L 284.5 184 Z " /><path fill="rgb(102,91,101)" stroke="rgb(102,91,101)" stroke-width="1" opacity="0.996078431372549" d="M 214.5 186 L 213.5 188 L 214.5 186 Z " /><path fill="rgb(102,91,101)" stroke="rgb(102,91,101)" stroke-width="1" opacity="0.996078431372549" d="M 210.5 189 L 209.5 191 L 210.5 189 Z " /><path fill="rgb(102,91,101)" stroke="rgb(102,91,101)" stroke-width="1" opacity="0.996078431372549" d="M 107.5 195 L 108 197.5 L 107 197.5 L 107.5 195 Z " /><path fill="rgb(102,91,101)" stroke="rgb(102,91,101)" stroke-width="1" opacity="0.996078431372549" d="M 105.5 208 L 106 210.5 L 105 210.5 L 105.5 208 Z " /><path fill="rgb(102,91,101)" stroke="rgb(102,91,101)" stroke-width="1" opacity="0.996078431372549" d="M 196.5 209 L 197 211.5 L 196 211.5 L 196.5 209 Z " /><path fill="rgb(102,91,101)" stroke="rgb(102,91,101)" stroke-width="1" opacity="0.996078431372549" d="M 437.5 217 L 436.5 219 L 437.5 217 Z " /><path fill="rgb(102,91,101)" stroke="rgb(102,91,101)" stroke-width="1" opacity="0.996078431372549" d="M 101.5 221 L 98.5 225 L 101.5 221 Z " /><path fill="rgb(102,91,101)" stroke="rgb(102,91,101)" stroke-width="1" opacity="0.996078431372549" d="M 434.5 223 L 435 264.5 L 434 264.5 L 434.5 223 Z " /><path fill="rgb(102,91,101)" stroke="rgb(102,91,101)" stroke-width="1" opacity="0.996078431372549" d="M 88.5 228 L 91 228.5 L 87.5 230 L 88.5 228 Z " /><path fill="rgb(102,91,101)" stroke="rgb(102,91,101)" stroke-width="1" opacity="0.996078431372549" d="M 285.5 230 L 287.5 233 L 285.5 230 Z " /><path fill="rgb(102,91,101)" stroke="rgb(102,91,101)" stroke-width="1" opacity="0.996078431372549" d="M 200.5 231 L 201.5 233 L 200.5 231 Z " /><path fill="rgb(102,91,101)" stroke="rgb(102,91,101)" stroke-width="1" opacity="0.996078431372549" d="M 380.5 234 L 384 234.5 L 380.5 235 L 380.5 234 Z " /><path fill="rgb(102,91,101)" stroke="rgb(102,91,101)" stroke-width="1" opacity="0.996078431372549" d="M 203.5 235 L 210.5 243 L 203.5 235 Z " /><path fill="rgb(102,91,101)" stroke="rgb(102,91,101)" stroke-width="1" opacity="0.996078431372549" d="M 213.5 244 L 214.5 246 L 213.5 244 Z " /><path fill="rgb(102,91,101)" stroke="rgb(102,91,101)" stroke-width="1" opacity="0.996078431372549" d="M 414.5 246 L 415.5 248 L 414.5 246 Z " /><path fill="rgb(102,91,101)" stroke="rgb(102,91,101)" stroke-width="1" opacity="0.996078431372549" d="M 310 249 L 338 249 L 338 272 L 310 272 L 310 249 Z " /><path fill="rgb(102,91,101)" stroke="rgb(102,91,101)" stroke-width="1" opacity="0.996078431372549" d="M 418.5 249 L 421.5 253 L 418.5 249 Z " /><path fill="rgb(102,91,101)" stroke="rgb(102,91,101)" stroke-width="1" opacity="0.996078431372549" d="M 168.5 254 L 169.5 256 L 168.5 254 Z " /><path fill="rgb(102,91,101)" stroke="rgb(102,91,101)" stroke-width="1" opacity="0.996078431372549" d="M 174.5 260 L 175.5 262 L 174.5 260 Z " /><path fill="rgb(102,91,101)" stroke="rgb(102,91,101)" stroke-width="1" opacity="0.996078431372549" d="M 191.5 268 L 194 268.5 L 191.5 269 L 191.5 268 Z " /><path fill="rgb(102,91,101)" stroke="rgb(102,91,101)" stroke-width="1" opacity="0.996078431372549" d="M 197.5 269 L 203 269.5 L 197.5 270 L 197.5 269 Z " /><path fill="rgb(102,91,101)" stroke="rgb(102,91,101)" stroke-width="1" opacity="0.996078431372549" d="M 306.5 286 L 349 286.5 L 306.5 287 L 306.5 286 Z " /><path fill="rgb(102,91,101)" stroke="rgb(102,91,101)" stroke-width="1" opacity="0.996078431372549" d="M 295.5 295 L 296 334.5 L 295 334.5 L 295.5 295 Z " /><path fill="rgb(102,91,101)" stroke="rgb(102,91,101)" stroke-width="1" opacity="0.996078431372549" d="M 38.5 305 L 37.5 307 L 38.5 305 Z " /><path fill="rgb(102,91,101)" stroke="rgb(102,91,101)" stroke-width="1" opacity="0.996078431372549" d="M 371.5 307 L 372 317.5 L 371 317.5 L 371.5 307 Z " /><path fill="rgb(102,91,101)" stroke="rgb(102,91,101)" stroke-width="1" opacity="0.996078431372549" d="M 34.5 308 L 32.5 311 L 34.5 308 Z " /><path fill="rgb(102,91,101)" stroke="rgb(102,91,101)" stroke-width="1" opacity="0.996078431372549" d="M 27.5 315 L 25.5 318 L 27.5 315 Z " /><path fill="rgb(102,91,101)" stroke="rgb(102,91,101)" stroke-width="1" opacity="0.996078431372549" d="M 167.5 324 L 168 329.5 L 167 329.5 L 167.5 324 Z " /><path fill="rgb(102,91,101)" stroke="rgb(102,91,101)" stroke-width="1" opacity="0.996078431372549" d="M 361.5 333 L 360.5 335 L 361.5 333 Z " /><path fill="rgb(102,91,101)" stroke="rgb(102,91,101)" stroke-width="1" opacity="0.996078431372549" d="M 16.5 336 L 17 338.5 L 16 338.5 L 16.5 336 Z " /><path fill="rgb(102,91,101)" stroke="rgb(102,91,101)" stroke-width="1" opacity="0.996078431372549" d="M 336.5 340 L 333.5 344 L 336.5 340 Z " /><path fill="rgb(102,91,101)" stroke="rgb(102,91,101)" stroke-width="1" opacity="0.996078431372549" d="M 15.5 343 L 16 496.5 L 15 496.5 L 15.5 343 Z " /><path fill="rgb(102,91,101)" stroke="rgb(102,91,101)" stroke-width="1" opacity="0.996078431372549" d="M 164.5 355 L 167 355.5 L 164.5 356 L 164.5 355 Z " /><path fill="rgb(102,91,101)" stroke="rgb(102,91,101)" stroke-width="1" opacity="0.996078431372549" d="M 84.5 356 L 87 356.5 L 84.5 357 L 84.5 356 Z " /><path fill="rgb(102,91,101)" stroke="rgb(102,91,101)" stroke-width="1" opacity="0.996078431372549" d="M 97.5 356 L 100 356.5 L 97.5 357 L 97.5 356 Z " /><path fill="rgb(102,91,101)" stroke="rgb(102,91,101)" stroke-width="1" opacity="0.996078431372549" d="M 168.5 357 L 169.5 359 L 168.5 357 Z " /><path fill="rgb(102,91,101)" stroke="rgb(102,91,101)" stroke-width="1" opacity="0.996078431372549" d="M 69.5 362 L 68.5 364 L 69.5 362 Z " /><path fill="rgb(102,91,101)" stroke="rgb(102,91,101)" stroke-width="1" opacity="0.996078431372549" d="M 171.5 362 L 173 364.5 L 172 364.5 L 171.5 362 Z " /><path fill="rgb(102,91,101)" stroke="rgb(102,91,101)" stroke-width="1" opacity="0.996078431372549" d="M 65.5 365 L 59.5 372 L 65.5 365 Z " /><path fill="rgb(102,91,101)" stroke="rgb(102,91,101)" stroke-width="1" opacity="0.996078431372549" d="M 87.5 371 Q 99.125 369.875 105.5 374 L 197.5 414 L 205 418.5 L 184 466 L 81.5 422 L 70 412.5 Q 64.154 405.846 66 391.5 Q 69.058 380.558 77.5 375 L 87.5 371 Z " /><path fill="rgb(102,91,101)" stroke="rgb(102,91,101)" stroke-width="1" opacity="0.996078431372549" d="M 176.5 375 L 177 378.5 L 176 378.5 L 176.5 375 Z " /><path fill="rgb(102,91,101)" stroke="rgb(102,91,101)" stroke-width="1" opacity="0.996078431372549" d="M 56.5 376 L 55.5 378 L 56.5 376 Z " /><path fill="rgb(102,91,101)" stroke="rgb(102,91,101)" stroke-width="1" opacity="0.996078431372549" d="M 50.5 394 L 51 400.5 L 50 400.5 L 50.5 394 Z " /><path fill="rgb(102,91,101)" stroke="rgb(102,91,101)" stroke-width="1" opacity="0.996078431372549" d="M 57.5 420 L 58.5 422 L 57.5 420 Z " /><path fill="rgb(102,91,101)" stroke="rgb(102,91,101)" stroke-width="1" opacity="0.996078431372549" d="M 60.5 424 L 64.5 429 L 60.5 424 Z " /><path fill="rgb(102,91,101)" stroke="rgb(102,91,101)" stroke-width="1" opacity="0.996078431372549" d="M 257.5 427 L 255.5 430 L 257.5 427 Z " /><path fill="rgb(102,91,101)" stroke="rgb(102,91,101)" stroke-width="1" opacity="0.996078431372549" d="M 242.5 433 L 247 433.5 L 242.5 434 L 242.5 433 Z " /><path fill="rgb(102,91,101)" stroke="rgb(102,91,101)" stroke-width="1" opacity="0.996078431372549" d="M 197.5 471 L 198.5 473 L 197.5 471 Z " /><path fill="rgb(102,91,101)" stroke="rgb(102,91,101)" stroke-width="1" opacity="0.996078431372549" d="M 273.5 484 L 272.5 486 L 273.5 484 Z " /><path fill="rgb(102,91,101)" stroke="rgb(102,91,101)" stroke-width="1" opacity="0.996078431372549" d="M 249.5 493 L 255 493.5 L 249.5 494 L 249.5 493 Z " /></svg>