<svg width="512" height="512" version="1.1" xmlns="http://www.w3.org/2000/svg" desc="Created with imagetracer.js version 1.2.6" ><path fill="rgb(0,0,0)" stroke="rgb(0,0,0)" stroke-width="1" opacity="0" d="M 0 0 L 512 0 L 512 212.5 L 511 212.5 Q 503.16 172.34 475.5 152 Q 408.334 97.166 285.5 98 Q 114.276 105.276 28 197.5 Q 6.958 218.958 0.5 255 L 0 0 Z " /><path fill="rgb(0,0,0)" stroke="rgb(0,0,0)" stroke-width="1" opacity="0" d="M 511.5 257 L 512 512 L 0 512 L 0 299.5 L 1 299.5 Q 8.84 339.66 36.5 360 Q 103.662 414.338 225.5 414 Q 397.633 407.133 484 314.5 Q 505.042 293.042 511.5 257 Z " /><path fill="rgb(224,219,241)" stroke="rgb(224,219,241)" stroke-width="1" opacity="0.996078431372549" d="M 261.5 99 L 262.5 100 L 282.5 100 Q 285.295 96.25 294 99 L 286 163 Q 167.516 163.735 108 224.5 Q 87.75 241.75 85 276.5 Q 89.606 310.394 112.5 326 Q 160.789 364.211 251.5 360 Q 253.321 357.25 259 359 L 255 393 Q 229.765 395.176 199.5 394 Q 83.562 388.938 24 327.5 Q 1.865 306.135 0 264.5 L 1 263.5 L 2 250.5 L 1.5 249 Q 4.5 249.875 3 245.5 L 4 242.5 L 3.5 241 L 5 241.5 L 4 238.5 L 6 238.5 L 5 235.5 L 7 235.5 Q 20.106 201.106 46.5 180 L 56 172.5 L 55.5 171 L 57.5 171 L 68 163.5 L 67.5 162 L 69.5 162 L 71 161.5 L 70.5 160 L 72.5 160 L 74 159.5 L 73.5 158 L 75.5 158 Q 108.972 135.972 151 122.5 L 150.5 121 L 153.5 122 Q 200.246 104.008 261 101 L 261.5 99 Z " /><path fill="rgb(218,213,237)" stroke="rgb(218,213,237)" stroke-width="1" opacity="0.996078431372549" d="M 276.5 99 L 281 99.5 L 276.5 100 L 276.5 99 Z " /><path fill="rgb(218,213,237)" stroke="rgb(218,213,237)" stroke-width="1" opacity="0.996078431372549" d="M 305.5 99 L 310 99.5 L 305.5 100 L 305.5 99 Z " /><path fill="rgb(218,213,237)" stroke="rgb(218,213,237)" stroke-width="1" opacity="0.996078431372549" d="M 324.5 100 L 327 100.5 L 324.5 101 L 324.5 100 Z " /><path fill="rgb(218,213,237)" stroke="rgb(218,213,237)" stroke-width="1" opacity="0.996078431372549" d="M 343.5 101 L 346 102.5 L 344.5 103 L 343.5 101 Z " /><path fill="rgb(218,213,237)" stroke="rgb(218,213,237)" stroke-width="1" opacity="0.996078431372549" d="M 445.5 133 L 450.5 136 L 452 135.5 L 451.5 137 L 458.5 141 L 460 140.5 L 459.5 142 Q 472.873 149.627 483 160.5 L 485 163.5 Q 499.658 176.566 506 197 L 508 197.5 L 507 199.5 Q 513.667 213.833 511 237.5 Q 498.977 288.977 462.5 316 Q 441.154 334.154 415.5 348 L 416 346.5 L 445.5 133 Z " /><path fill="rgb(218,213,237)" stroke="rgb(218,213,237)" stroke-width="1" opacity="0.996078431372549" d="M 400.5 197 L 401.5 199 L 400.5 197 Z " /><path fill="rgb(218,213,237)" stroke="rgb(218,213,237)" stroke-width="1" opacity="0.996078431372549" d="M 112.5 220 L 111.5 222 L 112.5 220 Z " /><path fill="rgb(218,213,237)" stroke="rgb(218,213,237)" stroke-width="1" opacity="0.996078431372549" d="M 426.5 243 L 427 249.5 L 426 249.5 L 426.5 243 Z " /><path fill="rgb(218,213,237)" stroke="rgb(218,213,237)" stroke-width="1" opacity="0.996078431372549" d="M 424.5 261 L 425 263.5 L 424 263.5 L 424.5 261 Z " /><path fill="rgb(218,213,237)" stroke="rgb(218,213,237)" stroke-width="1" opacity="0.996078431372549" d="M 422.5 268 L 423 269.5 L 421.5 272 L 421 270.5 L 422.5 268 Z " /><path fill="rgb(218,213,237)" stroke="rgb(218,213,237)" stroke-width="1" opacity="0.996078431372549" d="M 417.5 279 L 417 280.5 L 415.5 283 L 416 281.5 L 417.5 279 Z " /><path fill="rgb(218,213,237)" stroke="rgb(218,213,237)" stroke-width="1" opacity="0.996078431372549" d="M 414.5 284 L 413.5 286 L 414.5 284 Z " /><path fill="rgb(218,213,237)" stroke="rgb(218,213,237)" stroke-width="1" opacity="0.996078431372549" d="M 412.5 287 L 410.5 290 L 412.5 287 Z " /><path fill="rgb(218,213,237)" stroke="rgb(218,213,237)" stroke-width="1" opacity="0.996078431372549" d="M 409.5 291 L 405.5 296 L 409.5 291 Z " /><path fill="rgb(218,213,237)" stroke="rgb(218,213,237)" stroke-width="1" opacity="0.996078431372549" d="M 403.5 298 L 398.5 304 L 403.5 298 Z " /><path fill="rgb(218,213,237)" stroke="rgb(218,213,237)" stroke-width="1" opacity="0.996078431372549" d="M 394.5 306 L 391.5 310 L 394.5 306 Z " /><path fill="rgb(218,213,237)" stroke="rgb(218,213,237)" stroke-width="1" opacity="0.996078431372549" d="M 388.5 311 L 387.5 313 L 388.5 311 Z " /><path fill="rgb(218,213,237)" stroke="rgb(218,213,237)" stroke-width="1" opacity="0.996078431372549" d="M 100.5 313 L 101.5 315 L 100.5 313 Z " /><path fill="rgb(218,213,237)" stroke="rgb(218,213,237)" stroke-width="1" opacity="0.996078431372549" d="M 384.5 314 L 382.5 317 L 384.5 314 Z " /><path fill="rgb(218,213,237)" stroke="rgb(218,213,237)" stroke-width="1" opacity="0.996078431372549" d="M 380.5 317 L 379.5 319 L 380.5 317 Z " /><path fill="rgb(218,213,237)" stroke="rgb(218,213,237)" stroke-width="1" opacity="0.996078431372549" d="M 377.5 319 L 376.5 321 L 377.5 319 Z " /><path fill="rgb(218,213,237)" stroke="rgb(218,213,237)" stroke-width="1" opacity="0.996078431372549" d="M 110.5 323 L 111.5 325 L 110.5 323 Z " /><path fill="rgb(218,213,237)" stroke="rgb(218,213,237)" stroke-width="1" opacity="0.996078431372549" d="M 115.5 327 L 116.5 329 L 115.5 327 Z " /><path fill="rgb(218,213,237)" stroke="rgb(218,213,237)" stroke-width="1" opacity="0.996078431372549" d="M 279.5 355 L 282 355.5 L 279.5 356 L 279.5 355 Z " /><path fill="rgb(218,213,237)" stroke="rgb(218,213,237)" stroke-width="1" opacity="0.996078431372549" d="M 273.5 356 L 276 356.5 L 273.5 357 L 273.5 356 Z " /><path fill="rgb(218,213,237)" stroke="rgb(218,213,237)" stroke-width="1" opacity="0.996078431372549" d="M 265.5 357 L 269 357.5 L 265.5 358 L 265.5 357 Z " /><path fill="rgb(218,213,237)" stroke="rgb(218,213,237)" stroke-width="1" opacity="0.996078431372549" d="M 206.5 358 L 209 358.5 L 206.5 359 L 206.5 358 Z " /><path fill="rgb(218,213,237)" stroke="rgb(218,213,237)" stroke-width="1" opacity="0.996078431372549" d="M 254.5 358 L 259 358.5 L 254.5 359 L 254.5 358 Z " /><path fill="rgb(218,213,237)" stroke="rgb(218,213,237)" stroke-width="1" opacity="0.996078431372549" d="M 222.5 359 L 244 359.5 L 222.5 360 L 222.5 359 Z " /><path fill="rgb(198,188,235)" stroke="rgb(198,188,235)" stroke-width="1" opacity="0.9450980392156862" d="M 285.5 98 L 300 98.5 L 285.5 99 L 285.5 98 Z " /><path fill="rgb(198,188,235)" stroke="rgb(198,188,235)" stroke-width="1" opacity="0.9450980392156862" d="M 262.5 99 L 265 99.5 L 262.5 100 L 262.5 99 Z " /><path fill="rgb(198,188,235)" stroke="rgb(198,188,235)" stroke-width="1" opacity="0.9450980392156862" d="M 320.5 99 L 323 99.5 L 320.5 100 L 320.5 99 Z " /><path fill="rgb(198,188,235)" stroke="rgb(198,188,235)" stroke-width="1" opacity="0.9450980392156862" d="M 240.5 101 L 244 101.5 L 240.5 102 L 240.5 101 Z " /><path fill="rgb(198,188,235)" stroke="rgb(198,188,235)" stroke-width="1" opacity="0.9450980392156862" d="M 232.5 102 L 235 102.5 L 232.5 103 L 232.5 102 Z " /><path fill="rgb(198,188,235)" stroke="rgb(198,188,235)" stroke-width="1" opacity="0.9450980392156862" d="M 225.5 103 L 228 103.5 L 225.5 104 L 225.5 103 Z " /><path fill="rgb(198,188,235)" stroke="rgb(198,188,235)" stroke-width="1" opacity="0.9450980392156862" d="M 213.5 105 L 216 105.5 L 213.5 106 L 213.5 105 Z " /><path fill="rgb(198,188,235)" stroke="rgb(198,188,235)" stroke-width="1" opacity="0.9450980392156862" d="M 193.5 109 L 196 109.5 L 193.5 110 L 193.5 109 Z " /><path fill="rgb(198,188,235)" stroke="rgb(198,188,235)" stroke-width="1" opacity="0.9450980392156862" d="M 166.5 116 L 169 116.5 L 166.5 117 L 166.5 116 Z " /><path fill="rgb(198,188,235)" stroke="rgb(198,188,235)" stroke-width="1" opacity="0.9450980392156862" d="M 153.5 120 L 156 120.5 L 153.5 121 L 153.5 120 Z " /><path fill="rgb(198,188,235)" stroke="rgb(198,188,235)" stroke-width="1" opacity="0.9450980392156862" d="M 139.5 125 L 141 125.5 L 137.5 127 L 137.5 126 L 139.5 125 Z " /><path fill="rgb(198,188,235)" stroke="rgb(198,188,235)" stroke-width="1" opacity="0.9450980392156862" d="M 134.5 127 L 136 127.5 L 132.5 129 L 132.5 128 L 134.5 127 Z " /><path fill="rgb(198,188,235)" stroke="rgb(198,188,235)" stroke-width="1" opacity="0.9450980392156862" d="M 124.5 131 L 126 131.5 L 122.5 133 L 122.5 132 L 124.5 131 Z " /><path fill="rgb(198,188,235)" stroke="rgb(198,188,235)" stroke-width="1" opacity="0.9450980392156862" d="M 117.5 134 L 119 134.5 L 111.5 138 L 111.5 137 L 117.5 134 Z " /><path fill="rgb(198,188,235)" stroke="rgb(198,188,235)" stroke-width="1" opacity="0.9450980392156862" d="M 101.5 142 L 100.5 144 L 99 143.5 L 101.5 142 Z " /><path fill="rgb(198,188,235)" stroke="rgb(198,188,235)" stroke-width="1" opacity="0.9450980392156862" d="M 462.5 142 L 464.5 145 L 462.5 142 Z " /><path fill="rgb(198,188,235)" stroke="rgb(198,188,235)" stroke-width="1" opacity="0.9450980392156862" d="M 97.5 144 L 96.5 146 L 92.5 148 L 93.5 146 L 97.5 144 Z " /><path fill="rgb(198,188,235)" stroke="rgb(198,188,235)" stroke-width="1" opacity="0.9450980392156862" d="M 466.5 145 L 468.5 148 L 466.5 145 Z " /><path fill="rgb(198,188,235)" stroke="rgb(198,188,235)" stroke-width="1" opacity="0.9450980392156862" d="M 90.5 148 L 89.5 150 L 85.5 152 L 86.5 150 L 90.5 148 Z " /><path fill="rgb(198,188,235)" stroke="rgb(198,188,235)" stroke-width="1" opacity="0.9450980392156862" d="M 470.5 148 L 471.5 150 L 470.5 148 Z " /><path fill="rgb(198,188,235)" stroke="rgb(198,188,235)" stroke-width="1" opacity="0.9450980392156862" d="M 83.5 152 L 82.5 154 L 83.5 152 Z " /><path fill="rgb(198,188,235)" stroke="rgb(198,188,235)" stroke-width="1" opacity="0.9450980392156862" d="M 476.5 153 L 477.5 155 L 476.5 153 Z " /><path fill="rgb(198,188,235)" stroke="rgb(198,188,235)" stroke-width="1" opacity="0.9450980392156862" d="M 78.5 155 L 77.5 157 L 78.5 155 Z " /><path fill="rgb(198,188,235)" stroke="rgb(198,188,235)" stroke-width="1" opacity="0.9450980392156862" d="M 75.5 157 L 74.5 159 L 75.5 157 Z " /><path fill="rgb(198,188,235)" stroke="rgb(198,188,235)" stroke-width="1" opacity="0.9450980392156862" d="M 481.5 158 L 485.5 163 L 481.5 158 Z " /><path fill="rgb(198,188,235)" stroke="rgb(198,188,235)" stroke-width="1" opacity="0.9450980392156862" d="M 72.5 159 L 71.5 161 L 72.5 159 Z " /><path fill="rgb(198,188,235)" stroke="rgb(198,188,235)" stroke-width="1" opacity="0.9450980392156862" d="M 69.5 161 L 68.5 163 L 69.5 161 Z " /><path fill="rgb(198,188,235)" stroke="rgb(198,188,235)" stroke-width="1" opacity="0.9450980392156862" d="M 66.5 163 L 64.5 166 L 61.5 168 L 63.5 165 L 66.5 163 Z " /><path fill="rgb(198,188,235)" stroke="rgb(198,188,235)" stroke-width="1" opacity="0.9450980392156862" d="M 266.5 163 L 295 163.5 L 266.5 164 L 266.5 163 Z " /><path fill="rgb(198,188,235)" stroke="rgb(198,188,235)" stroke-width="1" opacity="0.9450980392156862" d="M 252.5 164 L 256 164.5 L 252.5 165 L 252.5 164 Z " /><path fill="rgb(198,188,235)" stroke="rgb(198,188,235)" stroke-width="1" opacity="0.9450980392156862" d="M 303.5 164 L 308 164.5 L 303.5 165 L 303.5 164 Z " /><path fill="rgb(198,188,235)" stroke="rgb(198,188,235)" stroke-width="1" opacity="0.9450980392156862" d="M 313.5 165 L 316 165.5 L 313.5 166 L 313.5 165 Z " /><path fill="rgb(198,188,235)" stroke="rgb(198,188,235)" stroke-width="1" opacity="0.9450980392156862" d="M 235.5 166 L 238 166.5 L 235.5 167 L 235.5 166 Z " /><path fill="rgb(198,188,235)" stroke="rgb(198,188,235)" stroke-width="1" opacity="0.9450980392156862" d="M 320.5 166 L 323 166.5 L 320.5 167 L 320.5 166 Z " /><path fill="rgb(198,188,235)" stroke="rgb(198,188,235)" stroke-width="1" opacity="0.9450980392156862" d="M 326.5 167 L 329 167.5 L 326.5 168 L 326.5 167 Z " /><path fill="rgb(198,188,235)" stroke="rgb(198,188,235)" stroke-width="1" opacity="0.9450980392156862" d="M 59.5 168 L 56.5 172 L 59.5 168 Z " /><path fill="rgb(198,188,235)" stroke="rgb(198,188,235)" stroke-width="1" opacity="0.9450980392156862" d="M 54.5 172 L 50.5 177 L 39.5 187 L 49.5 176 L 54.5 172 Z " /><path fill="rgb(198,188,235)" stroke="rgb(198,188,235)" stroke-width="1" opacity="0.9450980392156862" d="M 347 172 Q 388.638 182.143 413 210.5 Q 426.792 224.708 426 253.5 L 424 254.5 Q 419.093 234.407 405.5 223 Q 382.548 201.29 347 193 L 347 172 Z " /><path fill="rgb(198,188,235)" stroke="rgb(198,188,235)" stroke-width="1" opacity="0.9450980392156862" d="M 494.5 173 L 495.5 175 L 494.5 173 Z " /><path fill="rgb(198,188,235)" stroke="rgb(198,188,235)" stroke-width="1" opacity="0.9450980392156862" d="M 259.5 184 L 266 184.5 L 259.5 185 L 259.5 184 Z " /><path fill="rgb(198,188,235)" stroke="rgb(198,188,235)" stroke-width="1" opacity="0.9450980392156862" d="M 295.5 184 L 302 184.5 L 295.5 185 L 295.5 184 Z " /><path fill="rgb(198,188,235)" stroke="rgb(198,188,235)" stroke-width="1" opacity="0.9450980392156862" d="M 249.5 185 L 252 185.5 L 249.5 186 L 249.5 185 Z " /><path fill="rgb(198,188,235)" stroke="rgb(198,188,235)" stroke-width="1" opacity="0.9450980392156862" d="M 308.5 185 L 313 185.5 L 308.5 186 L 308.5 185 Z " /><path fill="rgb(198,188,235)" stroke="rgb(198,188,235)" stroke-width="1" opacity="0.9450980392156862" d="M 240.5 186 L 243 186.5 L 240.5 187 L 240.5 186 Z " /><path fill="rgb(198,188,235)" stroke="rgb(198,188,235)" stroke-width="1" opacity="0.9450980392156862" d="M 317.5 186 L 320 186.5 L 317.5 187 L 317.5 186 Z " /><path fill="rgb(198,188,235)" stroke="rgb(198,188,235)" stroke-width="1" opacity="0.9450980392156862" d="M 502.5 186 L 503.5 188 L 502.5 186 Z " /><path fill="rgb(198,188,235)" stroke="rgb(198,188,235)" stroke-width="1" opacity="0.9450980392156862" d="M 37.5 188 L 29 197.5 L 24.5 203 L 28 198.5 L 37.5 188 Z " /><path fill="rgb(198,188,235)" stroke="rgb(198,188,235)" stroke-width="1" opacity="0.9450980392156862" d="M 329.5 188 L 332 188.5 L 329.5 189 L 329.5 188 Z " /><path fill="rgb(198,188,235)" stroke="rgb(198,188,235)" stroke-width="1" opacity="0.9450980392156862" d="M 334.5 189 L 337 189.5 L 334.5 190 L 334.5 189 Z " /><path fill="rgb(198,188,235)" stroke="rgb(198,188,235)" stroke-width="1" opacity="0.9450980392156862" d="M 23.5 204 L 21.5 207 L 23.5 204 Z " /><path fill="rgb(198,188,235)" stroke="rgb(198,188,235)" stroke-width="1" opacity="0.9450980392156862" d="M 20.5 208 L 19.5 210 L 20.5 208 Z " /><path fill="rgb(198,188,235)" stroke="rgb(198,188,235)" stroke-width="1" opacity="0.9450980392156862" d="M 18.5 211 L 17.5 213 L 18.5 211 Z " /><path fill="rgb(198,188,235)" stroke="rgb(198,188,235)" stroke-width="1" opacity="0.9450980392156862" d="M 16.5 214 L 16 215.5 L 14.5 218 L 15 216.5 L 16.5 214 Z " /><path fill="rgb(198,188,235)" stroke="rgb(198,188,235)" stroke-width="1" opacity="0.9450980392156862" d="M 13.5 219 L 13 220.5 L 9.5 228 L 9 226.5 L 13.5 219 Z " /><path fill="rgb(198,188,235)" stroke="rgb(198,188,235)" stroke-width="1" opacity="0.9450980392156862" d="M 132.5 225 L 131.5 227 L 132.5 225 Z " /><path fill="rgb(198,188,235)" stroke="rgb(198,188,235)" stroke-width="1" opacity="0.9450980392156862" d="M 105.5 228 L 104.5 230 L 105.5 228 Z " /><path fill="rgb(198,188,235)" stroke="rgb(198,188,235)" stroke-width="1" opacity="0.9450980392156862" d="M 119.5 235 L 118.5 237 L 119.5 235 Z " /><path fill="rgb(198,188,235)" stroke="rgb(198,188,235)" stroke-width="1" opacity="0.9450980392156862" d="M 511.5 236 L 512 256.5 Q 499.73 308.73 462.5 336 Q 378.299 407.299 228.5 413 L 228.5 412 L 237 412 L 237 395 L 226 394.5 Q 396.198 388.198 482 297.5 Q 505.245 275.245 511.5 236 Z " /><path fill="rgb(198,188,235)" stroke="rgb(198,188,235)" stroke-width="1" opacity="0.9450980392156862" d="M 2.5 245 L 3 247.5 L 2 247.5 L 2.5 245 Z " /><path fill="rgb(198,188,235)" stroke="rgb(198,188,235)" stroke-width="1" opacity="0.9450980392156862" d="M 106.5 248 L 104.5 251 L 106.5 248 Z " /><path fill="rgb(198,188,235)" stroke="rgb(198,188,235)" stroke-width="1" opacity="0.9450980392156862" d="M 1.5 250 L 2 252.5 L 1 252.5 L 1.5 250 Z " /><path fill="rgb(198,188,235)" stroke="rgb(198,188,235)" stroke-width="1" opacity="0.9450980392156862" d="M 0.5 255 L 1 259.5 L 0 259.5 L 0.5 255 Z " /><path fill="rgb(198,188,235)" stroke="rgb(198,188,235)" stroke-width="1" opacity="0.9450980392156862" d="M 0.5 275 L 1 277.5 L 0 277.5 L 0.5 275 Z " /><path fill="rgb(198,188,235)" stroke="rgb(198,188,235)" stroke-width="1" opacity="0.9450980392156862" d="M 25.5 329 L 33.5 338 L 25.5 329 Z " /><path fill="rgb(198,188,235)" stroke="rgb(198,188,235)" stroke-width="1" opacity="0.9450980392156862" d="M 167.5 391 L 170 391.5 L 167.5 392 L 167.5 391 Z " /><path fill="rgb(198,188,235)" stroke="rgb(198,188,235)" stroke-width="1" opacity="0.9450980392156862" d="M 176.5 392 L 179 392.5 L 176.5 393 L 176.5 392 Z " /><path fill="rgb(198,188,235)" stroke="rgb(198,188,235)" stroke-width="1" opacity="0.9450980392156862" d="M 186.5 393 L 191 393.5 L 186.5 394 L 186.5 393 Z " /><path fill="rgb(198,188,235)" stroke="rgb(198,188,235)" stroke-width="1" opacity="0.9450980392156862" d="M 203.5 394 L 218 394.5 L 203.5 395 L 203.5 394 Z " /><path fill="rgb(198,188,235)" stroke="rgb(198,188,235)" stroke-width="1" opacity="0.9450980392156862" d="M 222.5 394 L 225 394.5 L 222.5 395 L 222.5 394 Z " /><path fill="rgb(198,188,235)" stroke="rgb(198,188,235)" stroke-width="1" opacity="0.9450980392156862" d="M 219.5 413 L 226 413.5 L 219.5 414 L 219.5 413 Z " /><path fill="rgb(215,209,235)" stroke="rgb(215,209,235)" stroke-width="1" opacity="0.996078431372549" d="M 265.5 99 L 274 99.5 L 265.5 100 L 265.5 99 Z " /><path fill="rgb(215,209,235)" stroke="rgb(215,209,235)" stroke-width="1" opacity="0.996078431372549" d="M 310.5 99 L 320 99.5 L 310.5 100 L 310.5 99 Z " /><path fill="rgb(215,209,235)" stroke="rgb(215,209,235)" stroke-width="1" opacity="0.996078431372549" d="M 254.5 100 L 258 100.5 L 254.5 101 L 254.5 100 Z " /><path fill="rgb(215,209,235)" stroke="rgb(215,209,235)" stroke-width="1" opacity="0.996078431372549" d="M 327.5 100 L 333 100.5 L 327.5 101 L 327.5 100 Z " /><path fill="rgb(215,209,235)" stroke="rgb(215,209,235)" stroke-width="1" opacity="0.996078431372549" d="M 244.5 101 L 247 101.5 L 244.5 102 L 244.5 101 Z " /><path fill="rgb(215,209,235)" stroke="rgb(215,209,235)" stroke-width="1" opacity="0.996078431372549" d="M 337.5 101 L 343 101.5 L 337.5 102 L 337.5 101 Z " /><path fill="rgb(215,209,235)" stroke="rgb(215,209,235)" stroke-width="1" opacity="0.996078431372549" d="M 235.5 102 L 238 102.5 L 235.5 103 L 235.5 102 Z " /><path fill="rgb(215,209,235)" stroke="rgb(215,209,235)" stroke-width="1" opacity="0.996078431372549" d="M 346.5 102 L 351 102.5 L 346.5 103 L 346.5 102 Z " /><path fill="rgb(215,209,235)" stroke="rgb(215,209,235)" stroke-width="1" opacity="0.996078431372549" d="M 228.5 103 L 232 103.5 L 228.5 104 L 228.5 103 Z " /><path fill="rgb(215,209,235)" stroke="rgb(215,209,235)" stroke-width="1" opacity="0.996078431372549" d="M 353.5 103 L 356 103.5 L 353.5 104 L 353.5 103 Z " /><path fill="rgb(215,209,235)" stroke="rgb(215,209,235)" stroke-width="1" opacity="0.996078431372549" d="M 221.5 104 L 224 104.5 L 221.5 105 L 221.5 104 Z " /><path fill="rgb(215,209,235)" stroke="rgb(215,209,235)" stroke-width="1" opacity="0.996078431372549" d="M 359.5 104 L 362 104.5 L 359.5 105 L 359.5 104 Z " /><path fill="rgb(215,209,235)" stroke="rgb(215,209,235)" stroke-width="1" opacity="0.996078431372549" d="M 365.5 105 L 369 105.5 L 365.5 106 L 365.5 105 Z " /><path fill="rgb(215,209,235)" stroke="rgb(215,209,235)" stroke-width="1" opacity="0.996078431372549" d="M 370.5 106 L 373 106.5 L 370.5 107 L 370.5 106 Z " /><path fill="rgb(215,209,235)" stroke="rgb(215,209,235)" stroke-width="1" opacity="0.996078431372549" d="M 374.5 107 L 378 107.5 L 374.5 108 L 374.5 107 Z " /><path fill="rgb(215,209,235)" stroke="rgb(215,209,235)" stroke-width="1" opacity="0.996078431372549" d="M 391.5 111 L 396 112.5 L 394.5 113 Q 390.75 112.75 391.5 111 Z " /><path fill="rgb(215,209,235)" stroke="rgb(215,209,235)" stroke-width="1" opacity="0.996078431372549" d="M 416.5 119 L 422 121.5 L 420.5 121 Q 415.7 121.05 416.5 119 Z " /><path fill="rgb(215,209,235)" stroke="rgb(215,209,235)" stroke-width="1" opacity="0.996078431372549" d="M 437.5 128 L 440 129.5 L 438.5 130 L 437.5 128 Z " /><path fill="rgb(215,209,235)" stroke="rgb(215,209,235)" stroke-width="1" opacity="0.996078431372549" d="M 444.5 132 L 447 133.5 L 445.5 133 L 444.5 132 Z " /><path fill="rgb(215,209,235)" stroke="rgb(215,209,235)" stroke-width="1" opacity="0.996078431372549" d="M 448.5 134 L 452 136.5 L 449.5 135 L 448.5 134 Z " /><path fill="rgb(215,209,235)" stroke="rgb(215,209,235)" stroke-width="1" opacity="0.996078431372549" d="M 455.5 138 L 463 143.5 L 460.5 142 Q 455.917 140.833 455.5 138 Z " /><path fill="rgb(215,209,235)" stroke="rgb(215,209,235)" stroke-width="1" opacity="0.996078431372549" d="M 465.5 145 L 466.5 147 L 465.5 145 Z " /><path fill="rgb(215,209,235)" stroke="rgb(215,209,235)" stroke-width="1" opacity="0.996078431372549" d="M 469.5 148 L 470.5 150 L 469.5 148 Z " /><path fill="rgb(215,209,235)" stroke="rgb(215,209,235)" stroke-width="1" opacity="0.996078431372549" d="M 472.5 150 L 481 157.5 L 478.5 156 L 472.5 150 Z " /><path fill="rgb(215,209,235)" stroke="rgb(215,209,235)" stroke-width="1" opacity="0.996078431372549" d="M 485.5 163 L 488 164.5 L 494 172.5 L 491 170.5 L 485.5 163 Z " /><path fill="rgb(215,209,235)" stroke="rgb(215,209,235)" stroke-width="1" opacity="0.996078431372549" d="M 60.5 168 L 59.5 170 L 60.5 168 Z " /><path fill="rgb(215,209,235)" stroke="rgb(215,209,235)" stroke-width="1" opacity="0.996078431372549" d="M 494.5 174 L 495.5 176 L 494.5 174 Z " /><path fill="rgb(215,209,235)" stroke="rgb(215,209,235)" stroke-width="1" opacity="0.996078431372549" d="M 497.5 177 L 502 185.5 L 501 185.5 Q 495.261 181.989 497.5 177 Z " /><path fill="rgb(215,209,235)" stroke="rgb(215,209,235)" stroke-width="1" opacity="0.996078431372549" d="M 502.5 187 L 507 196.5 L 506 196.5 L 502.5 187 Z " /><path fill="rgb(215,209,235)" stroke="rgb(215,209,235)" stroke-width="1" opacity="0.996078431372549" d="M 509.5 204 L 510 206.5 L 509 206.5 L 509.5 204 Z " /><path fill="rgb(215,209,235)" stroke="rgb(215,209,235)" stroke-width="1" opacity="0.996078431372549" d="M 510.5 208 Q 513.286 214.714 512 225.5 L 511 225.5 L 510.5 208 Z " /><path fill="rgb(215,209,235)" stroke="rgb(215,209,235)" stroke-width="1" opacity="0.996078431372549" d="M 511.5 230 L 512 235.5 L 511 235.5 L 511.5 230 Z " /><path fill="rgb(215,209,235)" stroke="rgb(215,209,235)" stroke-width="1" opacity="0.996078431372549" d="M 0.5 260 L 1 262.5 L 0 262.5 L 0.5 260 Z " /><path fill="rgb(215,209,235)" stroke="rgb(215,209,235)" stroke-width="1" opacity="1" d="M 260.5 163 L 266 163.5 L 260.5 164 L 260.5 163 Z " /><path fill="rgb(215,209,235)" stroke="rgb(215,209,235)" stroke-width="1" opacity="1" d="M 295.5 163 L 300 163.5 L 295.5 164 L 295.5 163 Z " /><path fill="rgb(215,209,235)" stroke="rgb(215,209,235)" stroke-width="1" opacity="1" d="M 249.5 164 L 252 164.5 L 249.5 165 L 249.5 164 Z " /><path fill="rgb(215,209,235)" stroke="rgb(215,209,235)" stroke-width="1" opacity="1" d="M 308.5 164 L 311 164.5 L 308.5 165 L 308.5 164 Z " /><path fill="rgb(215,209,235)" stroke="rgb(215,209,235)" stroke-width="1" opacity="1" d="M 316.5 165 L 319 165.5 L 316.5 166 L 316.5 165 Z " /><path fill="rgb(215,209,235)" stroke="rgb(215,209,235)" stroke-width="1" opacity="1" d="M 266.5 184 Q 362.24 180.76 409 226.5 Q 419.961 237.539 424.5 255 L 426 254.5 Q 418.95 288.45 395.5 306 Q 332.291 362.291 209.5 359 Q 139.379 353.621 102 315.5 Q 90.82 303.18 86 284.5 L 88 284 Q 95.313 253.646 117.5 237 Q 172.078 190.578 266.5 184 Z " /><path fill="rgb(215,209,235)" stroke="rgb(215,209,235)" stroke-width="1" opacity="1" d="M 380.5 184 L 381.5 186 L 380.5 184 Z " /><path fill="rgb(215,209,235)" stroke="rgb(215,209,235)" stroke-width="1" opacity="1" d="M 387.5 188 L 388.5 190 L 387.5 188 Z " /><path fill="rgb(215,209,235)" stroke="rgb(215,209,235)" stroke-width="1" opacity="1" d="M 393.5 192 L 394.5 194 L 393.5 192 Z " /><path fill="rgb(215,209,235)" stroke="rgb(215,209,235)" stroke-width="1" opacity="1" d="M 397.5 195 L 398.5 197 L 397.5 195 Z " /><path fill="rgb(215,209,235)" stroke="rgb(215,209,235)" stroke-width="1" opacity="1" d="M 402.5 199 L 411.5 209 L 402.5 199 Z " /><path fill="rgb(215,209,235)" stroke="rgb(215,209,235)" stroke-width="1" opacity="1" d="M 413.5 211 L 414.5 213 L 413.5 211 Z " /><path fill="rgb(215,209,235)" stroke="rgb(215,209,235)" stroke-width="1" opacity="1" d="M 120.5 213 L 119.5 215 L 120.5 213 Z " /><path fill="rgb(215,209,235)" stroke="rgb(215,209,235)" stroke-width="1" opacity="1" d="M 415.5 214 L 416.5 216 L 415.5 214 Z " /><path fill="rgb(215,209,235)" stroke="rgb(215,209,235)" stroke-width="1" opacity="1" d="M 417.5 217 L 418.5 219 L 417.5 217 Z " /><path fill="rgb(215,209,235)" stroke="rgb(215,209,235)" stroke-width="1" opacity="1" d="M 511.5 226 L 512 229.5 L 511 229.5 L 511.5 226 Z " /><path fill="rgb(215,209,235)" stroke="rgb(215,209,235)" stroke-width="1" opacity="1" d="M 425.5 237 L 426 240.5 L 425 240.5 L 425.5 237 Z " /><path fill="rgb(215,209,235)" stroke="rgb(215,209,235)" stroke-width="1" opacity="1" d="M 510.5 238 L 511 241.5 L 510 241.5 L 510.5 238 Z " /><path fill="rgb(215,209,235)" stroke="rgb(215,209,235)" stroke-width="1" opacity="1" d="M 509.5 244 L 510 246.5 L 509 246.5 L 509.5 244 Z " /><path fill="rgb(215,209,235)" stroke="rgb(215,209,235)" stroke-width="1" opacity="1" d="M 507.5 251 L 508 253.5 L 505.5 259 L 505 257.5 L 507.5 251 Z " /><path fill="rgb(215,209,235)" stroke="rgb(215,209,235)" stroke-width="1" opacity="1" d="M 504.5 260 L 505 261.5 L 503.5 264 L 503 262.5 L 504.5 260 Z " /><path fill="rgb(215,209,235)" stroke="rgb(215,209,235)" stroke-width="1" opacity="1" d="M 498.5 273 L 498 274.5 L 496.5 277 L 497 275.5 L 498.5 273 Z " /><path fill="rgb(215,209,235)" stroke="rgb(215,209,235)" stroke-width="1" opacity="1" d="M 495.5 278 L 494.5 280 L 495.5 278 Z " /><path fill="rgb(215,209,235)" stroke="rgb(215,209,235)" stroke-width="1" opacity="1" d="M 493.5 281 L 492.5 283 L 493.5 281 Z " /><path fill="rgb(215,209,235)" stroke="rgb(215,209,235)" stroke-width="1" opacity="1" d="M 491.5 284 L 490 286.5 L 487.5 290 L 489 287.5 L 491.5 284 Z " /><path fill="rgb(215,209,235)" stroke="rgb(215,209,235)" stroke-width="1" opacity="1" d="M 486.5 291 L 483.5 295 L 486.5 291 Z " /><path fill="rgb(215,209,235)" stroke="rgb(215,209,235)" stroke-width="1" opacity="1" d="M 481.5 297 L 464.5 315 L 481.5 297 Z " /><path fill="rgb(215,209,235)" stroke="rgb(215,209,235)" stroke-width="1" opacity="1" d="M 461.5 316 L 458.5 320 L 461.5 316 Z " /><path fill="rgb(215,209,235)" stroke="rgb(215,209,235)" stroke-width="1" opacity="1" d="M 455.5 321 L 453.5 324 L 455.5 321 Z " /><path fill="rgb(215,209,235)" stroke="rgb(215,209,235)" stroke-width="1" opacity="1" d="M 21.5 324 L 22.5 326 L 21.5 324 Z " /><path fill="rgb(215,209,235)" stroke="rgb(215,209,235)" stroke-width="1" opacity="1" d="M 451.5 324 L 449.5 327 L 451.5 324 Z " /><path fill="rgb(215,209,235)" stroke="rgb(215,209,235)" stroke-width="1" opacity="1" d="M 447.5 327 L 445.5 330 L 447.5 327 Z " /><path fill="rgb(215,209,235)" stroke="rgb(215,209,235)" stroke-width="1" opacity="1" d="M 443.5 330 L 442.5 332 L 443.5 330 Z " /><path fill="rgb(215,209,235)" stroke="rgb(215,209,235)" stroke-width="1" opacity="1" d="M 440.5 332 L 439.5 334 L 440.5 332 Z " /><path fill="rgb(215,209,235)" stroke="rgb(215,209,235)" stroke-width="1" opacity="1" d="M 437.5 334 L 436.5 336 L 437.5 334 Z " /><path fill="rgb(215,209,235)" stroke="rgb(215,209,235)" stroke-width="1" opacity="1" d="M 434.5 336 L 433.5 338 L 434.5 336 Z " /><path fill="rgb(215,209,235)" stroke="rgb(215,209,235)" stroke-width="1" opacity="1" d="M 429.5 339 L 428.5 341 L 429.5 339 Z " /><path fill="rgb(215,209,235)" stroke="rgb(215,209,235)" stroke-width="1" opacity="1" d="M 38.5 341 L 39.5 343 L 38.5 341 Z " /><path fill="rgb(215,209,235)" stroke="rgb(215,209,235)" stroke-width="1" opacity="1" d="M 426.5 341 L 425.5 343 L 423.5 344 L 424.5 342 L 426.5 341 Z " /><path fill="rgb(215,209,235)" stroke="rgb(215,209,235)" stroke-width="1" opacity="1" d="M 419.5 345 L 418.5 347 L 416.5 348 L 417.5 346 L 419.5 345 Z " /><path fill="rgb(215,209,235)" stroke="rgb(215,209,235)" stroke-width="1" opacity="1" d="M 307.5 385 L 310 385.5 L 307.5 386 L 307.5 385 Z " /><path fill="rgb(215,209,235)" stroke="rgb(215,209,235)" stroke-width="1" opacity="1" d="M 302.5 386 L 305 386.5 L 302.5 387 L 302.5 386 Z " /><path fill="rgb(215,209,235)" stroke="rgb(215,209,235)" stroke-width="1" opacity="1" d="M 296.5 387 L 299 387.5 L 296.5 388 L 296.5 387 Z " /><path fill="rgb(215,209,235)" stroke="rgb(215,209,235)" stroke-width="1" opacity="1" d="M 290.5 388 L 294 388.5 L 290.5 389 L 290.5 388 Z " /><path fill="rgb(215,209,235)" stroke="rgb(215,209,235)" stroke-width="1" opacity="1" d="M 284.5 389 L 287 389.5 L 284.5 390 L 284.5 389 Z " /><path fill="rgb(215,209,235)" stroke="rgb(215,209,235)" stroke-width="1" opacity="1" d="M 277.5 390 L 280 390.5 L 277.5 391 L 277.5 390 Z " /><path fill="rgb(215,209,235)" stroke="rgb(215,209,235)" stroke-width="1" opacity="1" d="M 268.5 391 L 273 391.5 L 268.5 392 L 268.5 391 Z " /><path fill="rgb(215,209,235)" stroke="rgb(215,209,235)" stroke-width="1" opacity="1" d="M 179.5 392 L 182 392.5 L 179.5 393 L 179.5 392 Z " /><path fill="rgb(215,209,235)" stroke="rgb(215,209,235)" stroke-width="1" opacity="1" d="M 258.5 392 L 263 392.5 L 258.5 393 L 258.5 392 Z " /><path fill="rgb(215,209,235)" stroke="rgb(215,209,235)" stroke-width="1" opacity="1" d="M 191.5 393 L 196 393.5 L 191.5 394 L 191.5 393 Z " /><path fill="rgb(215,209,235)" stroke="rgb(215,209,235)" stroke-width="1" opacity="1" d="M 243.5 393 L 251 393.5 L 243.5 394 L 243.5 393 Z " /><path fill="rgb(215,209,235)" stroke="rgb(215,209,235)" stroke-width="1" opacity="1" d="M 218.5 394 L 222 394.5 L 218.5 395 L 218.5 394 Z " /><path fill="rgb(180,164,235)" stroke="rgb(180,164,235)" stroke-width="1" opacity="0.9764705882352941" d="M 256.5 164 Q 309.689 160.528 347 172 L 347 191.5 L 345.5 192 Q 309.855 180.645 259.5 184 Q 157.435 192.935 104 250.5 Q 90.813 262.584 88 283 L 86 282.5 L 86 268.5 Q 93.269 233.769 117.5 216 Q 169.272 172.272 256.5 164 Z " /><path fill="rgb(180,164,235)" stroke="rgb(180,164,235)" stroke-width="1" opacity="0.9764705882352941" d="M 0.5 278 Q 7.426 317.574 33.5 338 Q 104.085 398.159 237 395 L 237 412 L 228.5 412 L 227.5 413 L 213.5 414 Q 86.627 411.873 23 346.5 Q -1.869 324.626 0.5 278 Z " /><path fill="rgb(220,215,238)" stroke="rgb(220,215,238)" stroke-width="1" opacity="0.996078431372549" d="M 294 99 Q 385.665 99.557 445 133.5 Q 441.654 179.154 433 219.5 L 433 226.5 L 431 234.5 L 431 241.5 L 428 256.5 L 428 263.5 L 426 271.5 L 426 278.5 L 423 293.5 L 423 300.5 L 421 308.5 L 421 315.5 L 419 323.5 L 419 330.5 Q 419.958 342.458 414.5 348 Q 348.42 384.703 255 393 L 259 358 Q 352.573 349.807 404 298.5 Q 422.991 282.491 427 251.5 L 427 249.5 Q 424.774 212.226 400.5 197 Q 358.723 163.995 286 163 L 294 99 Z " /><path fill="rgb(220,215,238)" stroke="rgb(220,215,238)" stroke-width="1" opacity="0.996078431372549" d="M 115.5 217 L 113.5 220 L 115.5 217 Z " /><path fill="rgb(220,215,238)" stroke="rgb(220,215,238)" stroke-width="1" opacity="0.996078431372549" d="M 85.5 274 L 86 276.5 L 85 276.5 L 85.5 274 Z " /><path fill="rgb(220,215,238)" stroke="rgb(220,215,238)" stroke-width="1" opacity="0.996078431372549" d="M 187.5 356 L 190 356.5 L 187.5 357 L 187.5 356 Z " /><path fill="rgb(220,215,238)" stroke="rgb(220,215,238)" stroke-width="1" opacity="0.996078431372549" d="M 194.5 357 L 197 357.5 L 194.5 358 L 194.5 357 Z " /><path fill="rgb(220,215,238)" stroke="rgb(220,215,238)" stroke-width="1" opacity="0.996078431372549" d="M 202.5 358 L 206 358.5 L 202.5 359 L 202.5 358 Z " /><path fill="rgb(220,215,238)" stroke="rgb(220,215,238)" stroke-width="1" opacity="0.996078431372549" d="M 214.5 359 L 220 359.5 L 214.5 360 L 214.5 359 Z " /><path fill="rgb(220,215,238)" stroke="rgb(220,215,238)" stroke-width="1" opacity="0.996078431372549" d="M 244.5 359 L 252 359.5 L 244.5 360 L 244.5 359 Z " /></svg>