<svg width="512" height="512" version="1.1" xmlns="http://www.w3.org/2000/svg" desc="Created with imagetracer.js version 1.2.6" ><path fill="rgb(1,0,0)" stroke="rgb(1,0,0)" stroke-width="1" opacity="0.9882352941176471" d="M 434.5 0 Q 441.375 -0.875 443 3.5 L 444 9.5 L 439.5 15 L 332 100.5 L 329 110.5 Q 331.085 122.915 340.5 128 L 342.5 128 L 352.5 119 L 454.5 24 L 462.5 23 Q 466.55 24.95 467 30.5 Q 463.625 42.625 452.5 47 L 352 139.5 L 372.5 160 L 379 153.5 L 478.5 46 L 482.5 45 L 489 49.5 L 488 57.5 L 393 159.5 L 384 169.5 L 384 171.5 Q 389.206 181.794 403.5 183 Q 412.023 181.523 416 175.5 L 500.5 69 L 506.5 68 L 511 71.5 L 512 77.5 Q 462.36 147.86 405.5 211 Q 391.5 225 361.5 223 Q 353.385 218.615 339.5 220 Q 327.865 223.365 322 232.5 L 252.5 306 L 246.5 307 L 242 303.5 L 241 296.5 L 247 289.5 L 221.5 265 L 57.5 422 L 48.5 429 Q 34.086 433.323 24 441 Q 14.158 449.495 15 469.5 Q 17.284 483.216 26.5 490 Q 34.708 498.292 52.5 497 Q 67.861 493.861 75 482.5 Q 79.323 468.323 87 457.5 L 221.5 317 Q 229.5 315.5 231 320.5 L 232 326.5 L 99 466.5 Q 92.62 486.62 79.5 500 Q 67.585 513.085 41.5 512 Q 20.409 508.591 10 494.5 Q -1.456 482.956 0 458.5 Q 3.263 439.263 15.5 429 Q 24.825 420.325 39.5 417 L 48.5 410 L 287 182.5 Q 294 176 292 160.5 Q 286.923 150.077 289 132.5 Q 293.616 110.616 308.5 99 L 434.5 0 Z M 313 115 L 304 134 Q 302 150 307 159 Q 310 182 299 192 L 266 223 L 256 234 L 280 256 L 308 226 Q 318 211 338 205 Q 354 203 363 208 Q 386 211 396 199 Q 398 200 397 197 Q 388 196 383 191 L 321 130 L 315 118 Q 316 114 313 115 Z M 245 244 L 243 245 L 233 255 L 258 279 Q 265 275 268 267 L 245 244 Z " /><path fill="rgb(0,0,0)" stroke="rgb(0,0,0)" stroke-width="1" opacity="0" d="M 0 0 L 434 0.5 L 313.5 95 L 301 106.5 Q 287 120.5 289 150.5 Q 293.385 158.615 292 172.5 Q 288.583 183.083 280.5 189 L 48.5 410 Q 40.051 419.051 25.5 422 L 12 432.5 Q 2.659 441.659 0.5 458 L 0 0 Z " /><path fill="rgb(0,0,0)" stroke="rgb(0,0,0)" stroke-width="1" opacity="0" d="M 439.5 0 L 512 0 L 512 72.5 L 511 72.5 L 508.5 69 L 502.5 68 L 497 72.5 L 411.5 180 L 401.5 183 Q 389.085 180.915 384 171.5 L 384 169.5 L 393 159.5 L 488 57.5 L 489 49.5 Q 486.917 45.083 480.5 45 L 465 59.5 L 372.5 160 L 352 139.5 L 359.5 132 L 466 33.5 L 467 29.5 L 462.5 23 L 454.5 24 L 352.5 119 L 342.5 128 L 340.5 128 Q 330.206 122.794 329 108.5 Q 330.477 99.977 336.5 96 L 443 11.5 L 444 5.5 L 440.5 1 L 439.5 0 Z " /><path fill="rgb(0,0,0)" stroke="rgb(0,0,0)" stroke-width="1" opacity="0" d="M 511.5 78 L 512 512 L 54 511.5 Q 73.175 508.675 83 496.5 Q 93.333 483.833 99 466.5 L 231 328.5 L 232 322.5 L 230 319.5 L 243.5 305 Q 245.2 307.8 250.5 307 L 259 299.5 L 330.5 224 Q 337.154 218.154 351.5 220 Q 361.923 225.077 379.5 223 Q 400.482 218.482 412 204.5 L 511.5 78 Z " /><path fill="rgb(0,0,0)" stroke="rgb(0,0,0)" stroke-width="1" opacity="0" d="M 0.5 471 Q 3.545 491.955 17.5 502 Q 26.117 509.883 41 511.5 L 0 512 L 0.5 471 Z " /><path fill="rgb(211,208,212)" stroke="rgb(211,208,212)" stroke-width="1" opacity="0.996078431372549" d="M 314.5 115 Q 315.577 123.423 320 128.5 L 383.5 192 Q 388.577 196.423 397 197.5 Q 387.066 209.566 363.5 208 Q 354.821 203.679 341.5 204 Q 330.03 205.53 322.5 211 L 299 234.5 L 279.5 255 L 257 233.5 L 276.5 213 L 301 189.5 Q 308.735 180.235 308 162.5 Q 302.842 152.658 304 136.5 Q 306.012 122.512 314.5 115 Z " /><path fill="rgb(211,208,212)" stroke="rgb(211,208,212)" stroke-width="1" opacity="0.996078431372549" d="M 244.5 244 L 268 266.5 L 257.5 278 L 234 254.5 L 244.5 244 Z " /><path fill="rgb(211,208,212)" stroke="rgb(211,208,212)" stroke-width="1" opacity="0.996078431372549" d="M 240.5 308 L 239.5 310 L 240.5 308 Z " /><path fill="rgb(211,208,212)" stroke="rgb(211,208,212)" stroke-width="1" opacity="0.996078431372549" d="M 233.5 315 L 232.5 317 L 233.5 315 Z " /><path fill="rgb(229,185,129)" stroke="rgb(229,185,129)" stroke-width="1" opacity="0.996078431372549" d="M 311.5 118 L 310.5 120 L 311.5 118 Z " /><path fill="rgb(229,185,129)" stroke="rgb(229,185,129)" stroke-width="1" opacity="0.996078431372549" d="M 304.5 133 L 305 135.5 L 304 135.5 L 304.5 133 Z " /><path fill="rgb(229,185,129)" stroke="rgb(229,185,129)" stroke-width="1" opacity="0.996078431372549" d="M 307.5 162 L 308 170.5 L 307 170.5 L 307.5 162 Z " /><path fill="rgb(229,185,129)" stroke="rgb(229,185,129)" stroke-width="1" opacity="0.996078431372549" d="M 302.5 186 L 301.5 188 L 302.5 186 Z " /><path fill="rgb(229,185,129)" stroke="rgb(229,185,129)" stroke-width="1" opacity="0.996078431372549" d="M 300.5 189 L 299.5 191 L 300.5 189 Z " /><path fill="rgb(229,185,129)" stroke="rgb(229,185,129)" stroke-width="1" opacity="0.996078431372549" d="M 286.5 203 L 277.5 213 L 286.5 203 Z " /><path fill="rgb(229,185,129)" stroke="rgb(229,185,129)" stroke-width="1" opacity="0.996078431372549" d="M 341.5 204 L 349 204.5 L 341.5 205 L 341.5 204 Z " /><path fill="rgb(229,185,129)" stroke="rgb(229,185,129)" stroke-width="1" opacity="0.996078431372549" d="M 322.5 211 L 321.5 213 L 322.5 211 Z " /><path fill="rgb(229,185,129)" stroke="rgb(229,185,129)" stroke-width="1" opacity="0.996078431372549" d="M 265.5 223 L 257 232.5 L 278.5 255 L 287.5 247 L 279.5 256 L 256 233.5 L 265.5 223 Z " /><path fill="rgb(229,185,129)" stroke="rgb(229,185,129)" stroke-width="1" opacity="0.996078431372549" d="M 307.5 226 L 299.5 235 L 307.5 226 Z " /><path fill="rgb(229,185,129)" stroke="rgb(229,185,129)" stroke-width="1" opacity="0.996078431372549" d="M 245.5 244 L 253.5 253 L 245.5 244 Z " /><path fill="rgb(229,185,129)" stroke="rgb(229,185,129)" stroke-width="1" opacity="0.996078431372549" d="M 242.5 245 L 234 254.5 L 257.5 278 L 266 270.5 L 257.5 279 L 233 254.5 L 242.5 245 Z " /><path fill="rgb(229,185,129)" stroke="rgb(229,185,129)" stroke-width="1" opacity="0.996078431372549" d="M 221.5 265 L 247 289.5 L 231.5 275 L 212.5 294 L 62.5 437 Q 52.75 445.25 38.5 449 L 26 460.5 Q 20.024 467.524 19 479.5 L 19.5 481 Q 13.512 473.987 15 459.5 Q 17.453 447.835 24 441 Q 34.086 433.323 48.5 429 L 57.5 422 L 221.5 265 Z " /><path fill="rgb(229,185,129)" stroke="rgb(229,185,129)" stroke-width="1" opacity="0.996078431372549" d="M 245.5 291 L 241.5 296 L 245.5 291 Z " /><path fill="rgb(229,185,129)" stroke="rgb(229,185,129)" stroke-width="1" opacity="0.996078431372549" d="M 240.5 298 L 241 300.5 L 240 300.5 L 240.5 298 Z " /><path fill="rgb(229,185,129)" stroke="rgb(229,185,129)" stroke-width="1" opacity="0.996078431372549" d="M 241.5 302 L 243 304.5 L 241 303.5 L 241.5 302 Z " /><path fill="rgb(229,185,129)" stroke="rgb(229,185,129)" stroke-width="1" opacity="0.996078431372549" d="M 223.5 316 L 226 316.5 L 223.5 317 L 223.5 316 Z " /><path fill="rgb(229,185,129)" stroke="rgb(229,185,129)" stroke-width="1" opacity="0.996078431372549" d="M 220.5 317 L 209.5 329 L 220.5 317 Z " /><path fill="rgb(229,185,129)" stroke="rgb(229,185,129)" stroke-width="1" opacity="0.996078431372549" d="M 228.5 317 L 229.5 319 L 228.5 317 Z " /><path fill="rgb(229,185,129)" stroke="rgb(229,185,129)" stroke-width="1" opacity="0.996078431372549" d="M 203.5 335 L 189.5 350 L 203.5 335 Z " /><path fill="rgb(229,185,129)" stroke="rgb(229,185,129)" stroke-width="1" opacity="0.996078431372549" d="M 183.5 356 L 168.5 372 L 183.5 356 Z " /><path fill="rgb(229,185,129)" stroke="rgb(229,185,129)" stroke-width="1" opacity="0.996078431372549" d="M 162.5 378 L 147.5 394 L 162.5 378 Z " /><path fill="rgb(229,185,129)" stroke="rgb(229,185,129)" stroke-width="1" opacity="0.996078431372549" d="M 142.5 399 L 126.5 416 L 142.5 399 Z " /><path fill="rgb(229,185,129)" stroke="rgb(229,185,129)" stroke-width="1" opacity="0.996078431372549" d="M 121.5 421 L 106.5 437 L 121.5 421 Z " /><path fill="rgb(229,185,129)" stroke="rgb(229,185,129)" stroke-width="1" opacity="0.996078431372549" d="M 100.5 443 L 87.5 457 L 100.5 443 Z " /><path fill="rgb(229,185,129)" stroke="rgb(229,185,129)" stroke-width="1" opacity="0.996078431372549" d="M 86.5 458 L 84.5 461 L 86.5 458 Z " /><path fill="rgb(229,185,129)" stroke="rgb(229,185,129)" stroke-width="1" opacity="0.996078431372549" d="M 82.5 464 L 82 465.5 L 81.5 467 L 81 465.5 L 82.5 464 Z " /><path fill="rgb(229,185,129)" stroke="rgb(229,185,129)" stroke-width="1" opacity="0.996078431372549" d="M 74.5 482 L 72.5 485 L 74.5 482 Z " /><path fill="rgb(229,185,129)" stroke="rgb(229,185,129)" stroke-width="1" opacity="0.996078431372549" d="M 22.5 485 L 26.5 490 L 22.5 485 Z " /><path fill="rgb(229,185,129)" stroke="rgb(229,185,129)" stroke-width="1" opacity="0.996078431372549" d="M 67.5 489 L 65.5 492 L 67.5 489 Z " /><path fill="rgb(229,185,129)" stroke="rgb(229,185,129)" stroke-width="1" opacity="0.996078431372549" d="M 31.5 492 L 34 493.5 L 32.5 494 L 31.5 492 Z " /><path fill="rgb(229,185,129)" stroke="rgb(229,185,129)" stroke-width="1" opacity="0.996078431372549" d="M 42.5 496 L 53 496.5 L 42.5 497 L 42.5 496 Z " /><path fill="rgb(245,208,144)" stroke="rgb(245,208,144)" stroke-width="1" opacity="0.996078431372549" d="M 231.5 275 L 246 290.5 Q 240.333 292.833 240 300.5 L 243 305.5 L 234.5 315 L 232 316.5 L 230.5 319 Q 228.667 315.833 223.5 316 Q 212.875 318.875 209 328.5 L 87 456.5 Q 78.645 466.645 75 481.5 L 68.5 489 Q 60 498.5 39.5 496 Q 27.344 492.656 21 483.5 Q 18.333 481.167 19 475.5 Q 23.523 459.523 35.5 451 Q 51.18 446.18 62.5 437 L 231.5 275 Z " /></svg>