<svg width="512" height="512" version="1.1" xmlns="http://www.w3.org/2000/svg" desc="Created with imagetracer.js version 1.2.6" ><path fill="rgb(254,180,155)" stroke="rgb(254,180,155)" stroke-width="1" opacity="0.984313725490196" d="M 245.5 57 Q 272.138 55.362 281 71.5 Q 287.416 79.584 287 94.5 Q 284.75 109.25 275.5 117 Q 267.433 124.933 252.5 126 Q 234.271 124.729 226 113.5 Q 217.042 104.958 218 86.5 Q 221.167 69.667 233.5 62 L 245.5 57 Z " /><path fill="rgb(254,180,155)" stroke="rgb(254,180,155)" stroke-width="1" opacity="0.984313725490196" d="M 402.5 72 Q 426.25 70.25 435 83.5 Q 443.5 92 442 110.5 Q 439.142 124.142 429.5 131 Q 421.745 137.745 407.5 138 Q 389.649 135.851 382 123.5 Q 375.792 115.708 376 101.5 Q 378.269 85.269 389.5 78 L 402.5 72 Z " /><path fill="rgb(254,180,155)" stroke="rgb(254,180,155)" stroke-width="1" opacity="0.984313725490196" d="M 252.5 135 L 253 293.5 L 252 293.5 L 252.5 135 Z " /><path fill="rgb(254,180,155)" stroke="rgb(254,180,155)" stroke-width="1" opacity="0.984313725490196" d="M 392 148 L 425.5 148 Q 426.5 148 426 152.5 L 420.5 161 Q 416.136 166.636 404.5 165 L 396 159.5 Q 392 155.25 392 148 Z " /><path fill="rgb(254,180,155)" stroke="rgb(254,180,155)" stroke-width="1" opacity="0.984313725490196" d="M 304.5 204 L 338.5 204 L 367 212 L 368 215.5 L 366 215.5 L 338 295.5 Q 335.865 304.365 329.5 309 Q 325.458 311.958 318.5 312 Q 309.977 310.523 306 304.5 L 303 295.5 L 303 205.5 L 304.5 204 Z " /><path fill="rgb(254,180,155)" stroke="rgb(254,180,155)" stroke-width="1" opacity="0.984313725490196" d="M 480.5 205 L 483 206.5 L 512 286.5 L 512 294.5 L 508 302 Q 503.688 307.5 491.5 306 L 482 298.5 L 451 212 Q 467.947 212.547 480.5 205 Z " /><path fill="rgb(254,180,155)" stroke="rgb(254,180,155)" stroke-width="1" opacity="0.984313725490196" d="M 174.5 215 L 200 224 L 177 289.5 L 173.5 294 L 174 292.5 L 174.5 215 Z " /><path fill="rgb(254,180,155)" stroke="rgb(254,180,155)" stroke-width="1" opacity="0.984313725490196" d="M 208 331 L 247.5 331 L 248 331.5 L 248 451.5 Q 247.25 461.375 242 466 Q 236.833 472.667 222.5 471 Q 214.417 468.083 210 461.5 L 208 456.5 L 208 331 Z " /><path fill="rgb(254,180,155)" stroke="rgb(254,180,155)" stroke-width="1" opacity="0.984313725490196" d="M 367 337 L 404.5 337 L 405 337.5 L 405 457.5 L 398.5 467 Q 393.5 472.5 381.5 471 Q 373.607 468.893 370 462.5 L 367 455.5 L 367 337 Z " /><path fill="rgb(254,180,155)" stroke="rgb(254,180,155)" stroke-width="1" opacity="0.984313725490196" d="M 413 337 L 452 337 L 452 451.5 Q 451.281 463.281 443.5 468 Q 438.7 472.2 428.5 471 Q 420.85 469.15 417 463.5 L 413 453.5 L 413 337 Z " /><path fill="rgb(0,0,0)" stroke="rgb(0,0,0)" stroke-width="1" opacity="0" d="M 0 0 L 512 0 L 512 283.5 L 511 283.5 L 472 173.5 Q 466.618 160.882 456.5 153 Q 449.517 147.483 437.5 147 L 380.5 147 Q 363.584 148.084 356 158.5 Q 343.366 175.866 337.5 200 Q 339.705 178.295 336 162.5 Q 331.667 149.333 321.5 142 Q 314.224 135.776 302.5 134 L 217.5 134 Q 201.432 136.932 194 148.5 Q 180.629 168.629 174.5 196 L 174 155.5 L 173 151.5 Q 168.333 137.667 157.5 130 Q 151.052 124.948 141.5 123 L 32.5 123 Q 15.521 127.021 7 139.5 L 0.5 154 L 0 0 Z M 85 40 Q 73 41 66 47 Q 54 55 51 72 Q 50 90 59 100 Q 67 109 81 112 Q 101 114 111 104 Q 120 96 123 82 Q 124 63 116 55 Q 107 41 85 40 Z M 251 56 Q 240 57 233 62 Q 222 69 218 84 Q 216 105 226 115 Q 234 123 248 126 Q 264 127 273 120 Q 284 113 287 98 Q 289 79 281 71 Q 273 56 251 56 Z M 406 71 Q 395 73 389 78 Q 379 85 376 99 Q 374 116 382 125 Q 389 135 405 138 Q 422 139 431 131 Q 441 123 443 107 Q 443 90 434 82 Q 425 71 406 71 Z " /><path fill="rgb(0,0,0)" stroke="rgb(0,0,0)" stroke-width="1" opacity="0" d="M 38.5 158 L 41 158.5 L 41 454.5 Q 42.893 463.607 49.5 468 Q 54.5 472 63.5 472 Q 74.783 470.283 80 462.5 L 83 455.5 L 83 287 Q 90.437 286 91 287.5 L 91 455.5 Q 93.5 463.5 99.5 468 Q 104.5 472 113.5 472 Q 124.05 470.55 129 463.5 L 133 454.5 L 133 158 Q 137.667 157.25 139 161.5 L 139 291.5 L 144 302 Q 148.938 307.833 162.5 306 L 172 298.5 L 179 285.5 L 201.5 222 L 202 224.5 L 185 323.5 L 189.5 330 Q 195.38 333.667 207 331 L 207 454.5 Q 208.75 463.75 215.5 468 Q 220.5 472 229.5 472 Q 240.375 470.375 245 462.5 L 248 455.5 L 248 331 L 253 330.5 L 253 295.5 L 256 295 L 256 454.5 Q 257.75 463.75 264.5 468 Q 269.5 472 278.5 472 Q 289.375 470.375 294 462.5 L 297 454.5 L 297 168 L 302 170 L 303 172.5 L 303 298.5 Q 304.55 305.45 309.5 309 Q 314 313.5 324.5 312 L 334 305.5 L 365.5 220 L 366 222.5 L 348 312.5 Q 345.385 320.385 346 331.5 L 349.5 336 Q 355.38 339.667 367 337 L 367 457.5 Q 369.107 465.393 375.5 469 Q 379.833 472.167 387.5 472 Q 396.512 471.012 401 465.5 L 406 454.5 L 406 337 Q 412.554 336.125 413 337.5 L 413 456.5 Q 414.85 464.15 420.5 468 Q 425.5 472 434.5 472 Q 443.729 470.729 448 464.5 L 452 456.5 L 452 337 Q 465.74 340.333 471 334.5 Q 473.833 331.833 473 325.5 L 471 319.5 L 471 314.5 Q 459.438 270.562 453 221.5 L 454 221.5 L 480 295.5 L 486.5 304 Q 490.25 307.75 498.5 307 Q 506.625 305.625 510 299.5 L 511.5 296 L 512 512 L 0 512 L 0 295.5 L 1 295.5 Q 2.375 301.625 7.5 304 Q 12.167 307.833 22.5 306 L 33 297.5 L 35 290.5 L 35 161.5 L 38.5 158 Z " /><path fill="rgb(254,217,82)" stroke="rgb(254,217,82)" stroke-width="1" opacity="0.984313725490196" d="M 33.5 123 L 70.5 123 L 71 125.5 Q 72.625 134.375 79.5 138 Q 83.5 141 91.5 140 Q 98.45 138.45 102 133.5 Q 105.833 129.883 105 123 L 141.5 123 L 158 130 Q 156.875 132.667 159.5 132 L 165 139 Q 167.667 137.875 167 140.5 L 174 155.5 L 174 204 L 140.5 204 L 139 202.5 L 139 161.5 L 135.5 158 L 133 158.5 L 133 283.5 L 132 287 L 42.5 287 L 41 285.5 L 41 158.5 L 38.5 158 L 35 161.5 L 35 202.5 L 33.5 204 L 0 204 L 0 155.5 Q 3.837 139.337 15.5 131 Q 22.5 125 33.5 123 Z " /><path fill="rgb(99,174,254)" stroke="rgb(99,174,254)" stroke-width="1" opacity="0.9803921568627451" d="M 253 134 L 302.5 134 L 307.5 135 Q 321.917 139.583 330 150.5 Q 335.386 157.114 337 167.5 L 337 204 L 303 204 L 303 172.5 L 302 170 L 297 168 L 297 295 L 253 295 L 253 134 Z " /><path fill="rgb(237,100,103)" stroke="rgb(237,100,103)" stroke-width="1" opacity="0.996078431372549" d="M 81.5 41 Q 106.86 40.14 116 55.5 Q 124.1 64.4 122 83.5 Q 118.631 96.631 109.5 104 Q 101.014 111.514 85.5 112 Q 68.25 110.25 60 99.5 Q 49.667 90.833 52 69.5 Q 55.25 55.25 65.5 48 Q 71.948 42.948 81.5 41 Z " /><path fill="rgb(237,100,103)" stroke="rgb(237,100,103)" stroke-width="1" opacity="0.996078431372549" d="M 71 123 L 104.5 123 Q 105.5 123 105 127.5 L 98.5 137 Q 94.05 141.05 84.5 140 Q 76.607 137.893 73 131.5 L 71 123 Z " /><path fill="rgb(237,100,103)" stroke="rgb(237,100,103)" stroke-width="1" opacity="0.996078431372549" d="M 223.5 134 L 251.5 134 L 252 134.5 L 252 293.5 L 253 294.5 L 253 331 L 192.5 331 L 187 326.5 Q 184.667 323.333 186 316.5 Q 196.917 269.917 203 218.5 L 202 218.5 L 199.5 224 L 174.5 215 L 174 292.5 Q 171.75 299.25 166.5 303 Q 162.75 306.75 154.5 306 Q 147.75 304.75 144 300.5 L 140 293.5 L 140 204 L 173.5 204 Q 174.75 203.75 174 197.5 L 190 155.5 Q 194.937 145.937 203.5 140 Q 210.737 134.237 223.5 134 Z " /><path fill="rgb(237,100,103)" stroke="rgb(237,100,103)" stroke-width="1" opacity="0.996078431372549" d="M 375.5 148 L 391.5 148 L 392 151.5 L 397.5 161 Q 401.864 166.636 413.5 165 L 423 158.5 Q 426.833 154.883 426 148 Q 454.957 145.273 465 162.5 Q 476.5 181.125 482 205 L 455.5 212 L 451 212 Q 458.318 270.137 472 322.5 L 472 331.5 L 468.5 336 L 465.5 337 L 352.5 337 L 347 332.5 L 346 326.5 L 368 212 L 337 204 Q 342.79 175.019 359.5 156 Q 365.5 150 375.5 148 Z " /><path fill="rgb(237,100,103)" stroke="rgb(237,100,103)" stroke-width="1" opacity="0.996078431372549" d="M 0 204 L 34 204 L 34 292.5 Q 31.893 300.393 25.5 304 Q 21.625 306.625 14.5 306 Q 5.625 304.375 2 297.5 L 0 292.5 L 0 204 Z " /><path fill="rgb(99,115,133)" stroke="rgb(99,115,133)" stroke-width="1" opacity="0.9882352941176471" d="M 42 287 L 82.5 287 L 83 287.5 L 83 450.5 Q 81.625 462.625 73.5 468 Q 68.35 472.35 57.5 471 Q 49.15 468.85 45 462.5 L 42 456.5 L 42 287 Z " /><path fill="rgb(99,115,133)" stroke="rgb(99,115,133)" stroke-width="1" opacity="0.9882352941176471" d="M 91 287 L 132.5 287 L 133 287.5 L 133 450.5 Q 131.625 462.625 123.5 468 Q 118.35 472.35 107.5 471 Q 98.45 468.55 94 461.5 L 91 452.5 L 91 287 Z " /><path fill="rgb(99,115,133)" stroke="rgb(99,115,133)" stroke-width="1" opacity="0.9882352941176471" d="M 257 295 L 296.5 295 L 297 295.5 L 297 451.5 Q 295.519 464.019 286.5 469 Q 281.429 472.429 271.5 471 Q 263.417 468.083 259 461.5 L 257 456.5 L 257 295 Z " /><path fill="rgb(194,141,135)" stroke="rgb(194,141,135)" stroke-width="1" opacity="0.2627450980392157" d="M 84.5 40 L 90 40.5 L 84.5 41 L 84.5 40 Z " /><path fill="rgb(194,141,135)" stroke="rgb(194,141,135)" stroke-width="1" opacity="0.2627450980392157" d="M 78.5 41 L 81 41.5 L 78.5 42 L 78.5 41 Z " /><path fill="rgb(194,141,135)" stroke="rgb(194,141,135)" stroke-width="1" opacity="0.2627450980392157" d="M 93.5 41 L 96 41.5 L 93.5 42 L 93.5 41 Z " /><path fill="rgb(194,141,135)" stroke="rgb(194,141,135)" stroke-width="1" opacity="0.2627450980392157" d="M 72.5 43 L 74 43.5 Q 64.173 47.173 58.5 55 L 65.5 47 L 72.5 43 Z " /><path fill="rgb(194,141,135)" stroke="rgb(194,141,135)" stroke-width="1" opacity="0.2627450980392157" d="M 100.5 43 L 107 46.5 L 105.5 46 Q 99.786 45.464 100.5 43 Z " /><path fill="rgb(194,141,135)" stroke="rgb(194,141,135)" stroke-width="1" opacity="0.2627450980392157" d="M 108.5 47 L 115.5 55 L 108.5 47 Z " /><path fill="rgb(194,141,135)" stroke="rgb(194,141,135)" stroke-width="1" opacity="0.2627450980392157" d="M 57.5 56 L 57 57.5 L 55.5 60 L 56 58.5 L 57.5 56 Z " /><path fill="rgb(194,141,135)" stroke="rgb(194,141,135)" stroke-width="1" opacity="0.2627450980392157" d="M 116.5 56 L 117.5 58 L 116.5 56 Z " /><path fill="rgb(194,141,135)" stroke="rgb(194,141,135)" stroke-width="1" opacity="0.2627450980392157" d="M 250.5 56 L 255 56.5 L 250.5 57 L 250.5 56 Z " /><path fill="rgb(194,141,135)" stroke="rgb(194,141,135)" stroke-width="1" opacity="0.2627450980392157" d="M 270.5 61 L 271.5 63 L 270.5 61 Z " /><path fill="rgb(194,141,135)" stroke="rgb(194,141,135)" stroke-width="1" opacity="0.2627450980392157" d="M 232.5 62 L 224.5 71 L 232.5 62 Z " /><path fill="rgb(194,141,135)" stroke="rgb(194,141,135)" stroke-width="1" opacity="0.2627450980392157" d="M 273.5 63 L 280.5 71 L 273.5 63 Z " /><path fill="rgb(194,141,135)" stroke="rgb(194,141,135)" stroke-width="1" opacity="0.2627450980392157" d="M 52.5 66 L 53 68.5 L 52 68.5 L 52.5 66 Z " /><path fill="rgb(194,141,135)" stroke="rgb(194,141,135)" stroke-width="1" opacity="0.2627450980392157" d="M 121.5 66 L 122 68.5 L 121 68.5 L 121.5 66 Z " /><path fill="rgb(194,141,135)" stroke="rgb(194,141,135)" stroke-width="1" opacity="0.2627450980392157" d="M 51.5 71 L 52 81.5 L 51 81.5 L 51.5 71 Z " /><path fill="rgb(194,141,135)" stroke="rgb(194,141,135)" stroke-width="1" opacity="0.2627450980392157" d="M 122.5 71 L 123 81.5 L 122 81.5 L 122.5 71 Z " /><path fill="rgb(194,141,135)" stroke="rgb(194,141,135)" stroke-width="1" opacity="0.2627450980392157" d="M 405.5 71 L 414 71.5 L 405.5 72 L 405.5 71 Z " /><path fill="rgb(194,141,135)" stroke="rgb(194,141,135)" stroke-width="1" opacity="0.2627450980392157" d="M 223.5 72 L 222.5 74 L 223.5 72 Z " /><path fill="rgb(194,141,135)" stroke="rgb(194,141,135)" stroke-width="1" opacity="0.2627450980392157" d="M 281.5 72 L 285 78.5 L 284 78.5 L 281.5 72 Z " /><path fill="rgb(194,141,135)" stroke="rgb(194,141,135)" stroke-width="1" opacity="0.2627450980392157" d="M 425.5 75 L 430 78.5 L 427.5 77 L 425.5 75 Z " /><path fill="rgb(194,141,135)" stroke="rgb(194,141,135)" stroke-width="1" opacity="0.2627450980392157" d="M 391.5 76 L 390.5 78 L 391.5 76 Z " /><path fill="rgb(194,141,135)" stroke="rgb(194,141,135)" stroke-width="1" opacity="0.2627450980392157" d="M 388.5 78 L 382.5 85 L 388.5 78 Z " /><path fill="rgb(194,141,135)" stroke="rgb(194,141,135)" stroke-width="1" opacity="0.2627450980392157" d="M 432.5 80 L 433.5 82 L 432.5 80 Z " /><path fill="rgb(194,141,135)" stroke="rgb(194,141,135)" stroke-width="1" opacity="0.2627450980392157" d="M 218.5 83 L 219 85.5 L 218 85.5 L 218.5 83 Z " /><path fill="rgb(194,141,135)" stroke="rgb(194,141,135)" stroke-width="1" opacity="0.2627450980392157" d="M 286.5 84 L 287 86.5 L 286 86.5 L 286.5 84 Z " /><path fill="rgb(194,141,135)" stroke="rgb(194,141,135)" stroke-width="1" opacity="0.2627450980392157" d="M 435.5 84 L 436.5 86 L 435.5 84 Z " /><path fill="rgb(194,141,135)" stroke="rgb(194,141,135)" stroke-width="1" opacity="0.2627450980392157" d="M 381.5 86 L 381 87.5 L 379.5 90 L 380 88.5 L 381.5 86 Z " /><path fill="rgb(194,141,135)" stroke="rgb(194,141,135)" stroke-width="1" opacity="0.2627450980392157" d="M 437.5 87 L 438.5 89 L 437.5 87 Z " /><path fill="rgb(194,141,135)" stroke="rgb(194,141,135)" stroke-width="1" opacity="0.2627450980392157" d="M 54.5 90 L 57 94.5 L 55 93.5 L 54.5 90 Z " /><path fill="rgb(194,141,135)" stroke="rgb(194,141,135)" stroke-width="1" opacity="0.2627450980392157" d="M 119.5 90 L 120 91.5 L 117.5 95 L 118 93.5 L 119.5 90 Z " /><path fill="rgb(194,141,135)" stroke="rgb(194,141,135)" stroke-width="1" opacity="0.2627450980392157" d="M 286.5 95 L 287 97.5 L 286 97.5 L 286.5 95 Z " /><path fill="rgb(194,141,135)" stroke="rgb(194,141,135)" stroke-width="1" opacity="0.2627450980392157" d="M 57.5 96 L 64 103.5 L 59 99.5 L 57.5 96 Z " /><path fill="rgb(194,141,135)" stroke="rgb(194,141,135)" stroke-width="1" opacity="0.2627450980392157" d="M 116.5 96 L 115 98.5 L 110.5 104 L 114 99.5 L 116.5 96 Z " /><path fill="rgb(194,141,135)" stroke="rgb(194,141,135)" stroke-width="1" opacity="0.2627450980392157" d="M 376.5 98 L 377 100.5 L 376 100.5 L 376.5 98 Z " /><path fill="rgb(194,141,135)" stroke="rgb(194,141,135)" stroke-width="1" opacity="0.2627450980392157" d="M 442.5 102 L 443 106.5 L 442 106.5 L 442.5 102 Z " /><path fill="rgb(194,141,135)" stroke="rgb(194,141,135)" stroke-width="1" opacity="0.2627450980392157" d="M 65.5 104 L 70 107.5 L 68.5 107 L 65.5 104 Z " /><path fill="rgb(194,141,135)" stroke="rgb(194,141,135)" stroke-width="1" opacity="0.2627450980392157" d="M 108.5 104 L 106.5 107 L 104.5 108 L 105.5 106 L 108.5 104 Z " /><path fill="rgb(194,141,135)" stroke="rgb(194,141,135)" stroke-width="1" opacity="0.2627450980392157" d="M 71.5 108 L 75 109.5 L 73.5 110 L 71.5 108 Z " /><path fill="rgb(194,141,135)" stroke="rgb(194,141,135)" stroke-width="1" opacity="0.2627450980392157" d="M 101.5 108 L 103 108.5 L 99.5 110 L 99.5 109 L 101.5 108 Z " /><path fill="rgb(194,141,135)" stroke="rgb(194,141,135)" stroke-width="1" opacity="0.2627450980392157" d="M 282.5 108 L 281.5 110 L 282.5 108 Z " /><path fill="rgb(194,141,135)" stroke="rgb(194,141,135)" stroke-width="1" opacity="0.2627450980392157" d="M 376.5 108 L 377 110.5 L 376 110.5 L 376.5 108 Z " /><path fill="rgb(194,141,135)" stroke="rgb(194,141,135)" stroke-width="1" opacity="0.2627450980392157" d="M 223.5 110 L 225.5 113 L 223.5 110 Z " /><path fill="rgb(194,141,135)" stroke="rgb(194,141,135)" stroke-width="1" opacity="0.2627450980392157" d="M 80.5 111 L 85 111.5 L 80.5 112 L 80.5 111 Z " /><path fill="rgb(194,141,135)" stroke="rgb(194,141,135)" stroke-width="1" opacity="0.2627450980392157" d="M 90.5 111 L 94 111.5 L 90.5 112 L 90.5 111 Z " /><path fill="rgb(194,141,135)" stroke="rgb(194,141,135)" stroke-width="1" opacity="0.2627450980392157" d="M 280.5 111 L 278.5 114 L 280.5 111 Z " /><path fill="rgb(194,141,135)" stroke="rgb(194,141,135)" stroke-width="1" opacity="0.2627450980392157" d="M 226.5 114 L 228.5 117 L 226.5 114 Z " /><path fill="rgb(194,141,135)" stroke="rgb(194,141,135)" stroke-width="1" opacity="0.2627450980392157" d="M 274.5 117 L 272.5 120 L 274.5 117 Z " /><path fill="rgb(194,141,135)" stroke="rgb(194,141,135)" stroke-width="1" opacity="0.2627450980392157" d="M 231.5 118 L 232.5 120 L 231.5 118 Z " /><path fill="rgb(194,141,135)" stroke="rgb(194,141,135)" stroke-width="1" opacity="0.2627450980392157" d="M 234.5 120 L 235.5 122 L 234.5 120 Z " /><path fill="rgb(194,141,135)" stroke="rgb(194,141,135)" stroke-width="1" opacity="0.2627450980392157" d="M 270.5 120 L 269.5 122 L 270.5 120 Z " /><path fill="rgb(194,141,135)" stroke="rgb(194,141,135)" stroke-width="1" opacity="0.2627450980392157" d="M 380.5 121 L 381.5 123 L 380.5 121 Z " /><path fill="rgb(194,141,135)" stroke="rgb(194,141,135)" stroke-width="1" opacity="0.2627450980392157" d="M 437.5 122 L 435.5 125 L 437.5 122 Z " /><path fill="rgb(194,141,135)" stroke="rgb(194,141,135)" stroke-width="1" opacity="0.2627450980392157" d="M 382.5 124 L 389.5 132 L 382.5 124 Z " /><path fill="rgb(194,141,135)" stroke="rgb(194,141,135)" stroke-width="1" opacity="0.2627450980392157" d="M 247.5 125 L 252 125.5 L 247.5 126 L 247.5 125 Z " /><path fill="rgb(194,141,135)" stroke="rgb(194,141,135)" stroke-width="1" opacity="0.2627450980392157" d="M 253.5 125 L 258 125.5 L 253.5 126 L 253.5 125 Z " /><path fill="rgb(194,141,135)" stroke="rgb(194,141,135)" stroke-width="1" opacity="0.2627450980392157" d="M 434.5 126 L 430.5 131 L 434.5 126 Z " /><path fill="rgb(194,141,135)" stroke="rgb(194,141,135)" stroke-width="1" opacity="0.2627450980392157" d="M 428.5 131 L 427.5 133 L 428.5 131 Z " /><path fill="rgb(194,141,135)" stroke="rgb(194,141,135)" stroke-width="1" opacity="0.2627450980392157" d="M 391.5 132 L 392.5 134 L 391.5 132 Z " /><path fill="rgb(194,141,135)" stroke="rgb(194,141,135)" stroke-width="1" opacity="0.2627450980392157" d="M 217.5 134 L 223 134.5 L 217.5 135 L 217.5 134 Z " /><path fill="rgb(194,141,135)" stroke="rgb(194,141,135)" stroke-width="1" opacity="0.2627450980392157" d="M 394.5 134 L 398 135.5 L 396.5 136 L 394.5 134 Z " /><path fill="rgb(194,141,135)" stroke="rgb(194,141,135)" stroke-width="1" opacity="0.2627450980392157" d="M 207.5 137 L 209 137.5 L 204.5 140 L 205.5 138 L 207.5 137 Z " /><path fill="rgb(194,141,135)" stroke="rgb(194,141,135)" stroke-width="1" opacity="0.2627450980392157" d="M 404.5 137 L 407 137.5 L 404.5 138 L 404.5 137 Z " /><path fill="rgb(194,141,135)" stroke="rgb(194,141,135)" stroke-width="1" opacity="0.2627450980392157" d="M 411.5 137 L 415 137.5 L 411.5 138 L 411.5 137 Z " /><path fill="rgb(194,141,135)" stroke="rgb(194,141,135)" stroke-width="1" opacity="0.2627450980392157" d="M 202.5 140 L 194.5 149 L 202.5 140 Z " /><path fill="rgb(194,141,135)" stroke="rgb(194,141,135)" stroke-width="1" opacity="0.2627450980392157" d="M 380.5 147 L 438 147.5 L 380.5 148 L 380.5 147 Z " /><path fill="rgb(194,141,135)" stroke="rgb(194,141,135)" stroke-width="1" opacity="0.2627450980392157" d="M 450.5 150 L 453 151.5 L 451.5 151 L 450.5 150 Z " /><path fill="rgb(194,141,135)" stroke="rgb(194,141,135)" stroke-width="1" opacity="0.2627450980392157" d="M 192.5 151 L 192 152.5 L 190.5 155 L 191 153.5 L 192.5 151 Z " /><path fill="rgb(194,141,135)" stroke="rgb(194,141,135)" stroke-width="1" opacity="0.2627450980392157" d="M 365.5 151 L 364.5 153 L 361.5 155 L 363.5 152 L 365.5 151 Z " /><path fill="rgb(194,141,135)" stroke="rgb(194,141,135)" stroke-width="1" opacity="0.2627450980392157" d="M 456.5 153 L 464.5 162 L 456.5 153 Z " /><path fill="rgb(194,141,135)" stroke="rgb(194,141,135)" stroke-width="1" opacity="0.2627450980392157" d="M 359.5 155 L 356.5 159 L 359.5 155 Z " /><path fill="rgb(194,141,135)" stroke="rgb(194,141,135)" stroke-width="1" opacity="0.2627450980392157" d="M 354.5 161 L 353.5 163 L 354.5 161 Z " /><path fill="rgb(194,141,135)" stroke="rgb(194,141,135)" stroke-width="1" opacity="0.2627450980392157" d="M 465.5 163 L 466.5 165 L 465.5 163 Z " /><path fill="rgb(194,141,135)" stroke="rgb(194,141,135)" stroke-width="1" opacity="0.2627450980392157" d="M 352.5 164 L 351.5 166 L 352.5 164 Z " /><path fill="rgb(194,141,135)" stroke="rgb(194,141,135)" stroke-width="1" opacity="0.2627450980392157" d="M 467.5 166 L 470 169.5 L 468 168.5 L 467.5 166 Z " /><path fill="rgb(194,141,135)" stroke="rgb(194,141,135)" stroke-width="1" opacity="0.2627450980392157" d="M 470.5 171 L 472 174.5 L 471 174.5 L 470.5 171 Z " /><path fill="rgb(194,141,135)" stroke="rgb(194,141,135)" stroke-width="1" opacity="0.2627450980392157" d="M 34.5 203 L 35 290.5 L 34 290.5 L 34.5 203 Z " /><path fill="rgb(194,141,135)" stroke="rgb(194,141,135)" stroke-width="1" opacity="0.2627450980392157" d="M 139.5 203 L 140 291.5 L 139 291.5 L 139.5 203 Z " /><path fill="rgb(194,141,135)" stroke="rgb(194,141,135)" stroke-width="1" opacity="0.2627450980392157" d="M 367.5 212 L 368 214.5 L 366.5 217 L 366 215.5 L 367.5 212 Z " /><path fill="rgb(194,141,135)" stroke="rgb(194,141,135)" stroke-width="1" opacity="0.2627450980392157" d="M 451.5 214 L 453 217.5 L 451 216.5 L 451.5 214 Z " /><path fill="rgb(194,141,135)" stroke="rgb(194,141,135)" stroke-width="1" opacity="0.2627450980392157" d="M 365 218 Q 368 217 367 220 Q 364 221 365 218 Z " /><path fill="rgb(194,141,135)" stroke="rgb(194,141,135)" stroke-width="1" opacity="0.2627450980392157" d="M 453.5 219 L 454 220.5 L 452 221.5 L 453.5 219 Z " /><path fill="rgb(194,141,135)" stroke="rgb(194,141,135)" stroke-width="1" opacity="0.2627450980392157" d="M 201 220 Q 204 219 203 222 Q 200 223 201 220 Z " /><path fill="rgb(194,141,135)" stroke="rgb(194,141,135)" stroke-width="1" opacity="0.2627450980392157" d="M 200.5 223 L 202 227.5 L 201 227.5 L 200.5 223 Z " /><path fill="rgb(194,141,135)" stroke="rgb(194,141,135)" stroke-width="1" opacity="0.2627450980392157" d="M 365.5 223 L 366 225.5 L 365 225.5 L 365.5 223 Z " /><path fill="rgb(194,141,135)" stroke="rgb(194,141,135)" stroke-width="1" opacity="0.2627450980392157" d="M 453.5 225 L 454 227.5 L 453 227.5 L 453.5 225 Z " /><path fill="rgb(194,141,135)" stroke="rgb(194,141,135)" stroke-width="1" opacity="0.2627450980392157" d="M 200.5 231 L 201 233.5 L 200 233.5 L 200.5 231 Z " /><path fill="rgb(194,141,135)" stroke="rgb(194,141,135)" stroke-width="1" opacity="0.2627450980392157" d="M 199.5 237 L 200 239.5 L 199 239.5 L 199.5 237 Z " /><path fill="rgb(194,141,135)" stroke="rgb(194,141,135)" stroke-width="1" opacity="0.2627450980392157" d="M 198.5 243 L 199 245.5 L 198 245.5 L 198.5 243 Z " /><path fill="rgb(194,141,135)" stroke="rgb(194,141,135)" stroke-width="1" opacity="0.2627450980392157" d="M 361.5 244 L 362 246.5 L 361 246.5 L 361.5 244 Z " /><path fill="rgb(194,141,135)" stroke="rgb(194,141,135)" stroke-width="1" opacity="0.2627450980392157" d="M 457.5 246 L 458 248.5 L 457 248.5 L 457.5 246 Z " /><path fill="rgb(194,141,135)" stroke="rgb(194,141,135)" stroke-width="1" opacity="0.2627450980392157" d="M 197.5 249 L 198 251.5 L 197 251.5 L 197.5 249 Z " /><path fill="rgb(194,141,135)" stroke="rgb(194,141,135)" stroke-width="1" opacity="0.2627450980392157" d="M 360.5 249 L 361 251.5 L 360 251.5 L 360.5 249 Z " /><path fill="rgb(194,141,135)" stroke="rgb(194,141,135)" stroke-width="1" opacity="0.2627450980392157" d="M 458.5 251 L 459 253.5 L 458 253.5 L 458.5 251 Z " /><path fill="rgb(194,141,135)" stroke="rgb(194,141,135)" stroke-width="1" opacity="0.2627450980392157" d="M 196.5 255 L 197 257.5 L 196 257.5 L 196.5 255 Z " /><path fill="rgb(194,141,135)" stroke="rgb(194,141,135)" stroke-width="1" opacity="0.2627450980392157" d="M 357.5 265 L 358 267.5 L 357 267.5 L 357.5 265 Z " /><path fill="rgb(194,141,135)" stroke="rgb(194,141,135)" stroke-width="1" opacity="0.2627450980392157" d="M 194.5 266 L 195 268.5 L 194 268.5 L 194.5 266 Z " /><path fill="rgb(194,141,135)" stroke="rgb(194,141,135)" stroke-width="1" opacity="0.2627450980392157" d="M 461.5 267 L 462 269.5 L 461 269.5 L 461.5 267 Z " /><path fill="rgb(194,141,135)" stroke="rgb(194,141,135)" stroke-width="1" opacity="0.2627450980392157" d="M 356.5 270 L 357 272.5 L 356 272.5 L 356.5 270 Z " /><path fill="rgb(194,141,135)" stroke="rgb(194,141,135)" stroke-width="1" opacity="0.2627450980392157" d="M 193.5 272 L 194 274.5 L 193 274.5 L 193.5 272 Z " /><path fill="rgb(194,141,135)" stroke="rgb(194,141,135)" stroke-width="1" opacity="0.2627450980392157" d="M 462.5 272 L 463 274.5 L 462 274.5 L 462.5 272 Z " /><path fill="rgb(194,141,135)" stroke="rgb(194,141,135)" stroke-width="1" opacity="0.2627450980392157" d="M 192.5 278 L 193 280.5 L 192 280.5 L 192.5 278 Z " /><path fill="rgb(194,141,135)" stroke="rgb(194,141,135)" stroke-width="1" opacity="0.2627450980392157" d="M 132.5 284 L 133 286.5 L 132 286.5 L 132.5 284 Z " /><path fill="rgb(194,141,135)" stroke="rgb(194,141,135)" stroke-width="1" opacity="0.2627450980392157" d="M 191.5 284 L 192 286.5 L 191 286.5 L 191.5 284 Z " /><path fill="rgb(194,141,135)" stroke="rgb(194,141,135)" stroke-width="1" opacity="0.2627450980392157" d="M 41.5 286 L 42 454.5 L 41 454.5 L 41.5 286 Z " /><path fill="rgb(194,141,135)" stroke="rgb(194,141,135)" stroke-width="1" opacity="0.2627450980392157" d="M 353.5 286 L 354 288.5 L 353 288.5 L 353.5 286 Z " /><path fill="rgb(194,141,135)" stroke="rgb(194,141,135)" stroke-width="1" opacity="0.2627450980392157" d="M 465.5 288 L 466 290.5 L 465 290.5 L 465.5 288 Z " /><path fill="rgb(194,141,135)" stroke="rgb(194,141,135)" stroke-width="1" opacity="0.2627450980392157" d="M 190.5 290 L 191 292.5 L 190 292.5 L 190.5 290 Z " /><path fill="rgb(194,141,135)" stroke="rgb(194,141,135)" stroke-width="1" opacity="0.2627450980392157" d="M 352.5 291 L 353 293.5 L 352 293.5 L 352.5 291 Z " /><path fill="rgb(194,141,135)" stroke="rgb(194,141,135)" stroke-width="1" opacity="0.2627450980392157" d="M 175.5 292 L 173.5 295 L 175.5 292 Z " /><path fill="rgb(194,141,135)" stroke="rgb(194,141,135)" stroke-width="1" opacity="0.2627450980392157" d="M 466.5 293 L 467 295.5 L 466 295.5 L 466.5 293 Z " /><path fill="rgb(194,141,135)" stroke="rgb(194,141,135)" stroke-width="1" opacity="0.2627450980392157" d="M 140.5 294 L 144 299.5 L 141 297.5 L 140.5 294 Z " /><path fill="rgb(194,141,135)" stroke="rgb(194,141,135)" stroke-width="1" opacity="0.2627450980392157" d="M 256.5 295 L 257 454.5 L 256 454.5 L 256.5 295 Z " /><path fill="rgb(194,141,135)" stroke="rgb(194,141,135)" stroke-width="1" opacity="0.2627450980392157" d="M 32.5 296 L 33 297.5 L 26 303.5 L 32.5 296 Z " /><path fill="rgb(194,141,135)" stroke="rgb(194,141,135)" stroke-width="1" opacity="0.2627450980392157" d="M 172.5 296 L 172 297.5 L 166.5 304 L 160.5 306 L 160.5 305 Q 167.875 303.875 171 298.5 L 172.5 296 Z " /><path fill="rgb(194,141,135)" stroke="rgb(194,141,135)" stroke-width="1" opacity="0.2627450980392157" d="M 189.5 296 L 190 298.5 L 189 298.5 L 189.5 296 Z " /><path fill="rgb(194,141,135)" stroke="rgb(194,141,135)" stroke-width="1" opacity="0.2627450980392157" d="M 303.5 296 L 304 298.5 L 303 298.5 L 303.5 296 Z " /><path fill="rgb(194,141,135)" stroke="rgb(194,141,135)" stroke-width="1" opacity="0.2627450980392157" d="M 2.5 298 L 7.5 304 L 2.5 298 Z " /><path fill="rgb(194,141,135)" stroke="rgb(194,141,135)" stroke-width="1" opacity="0.2627450980392157" d="M 482.5 299 L 486.5 304 L 482.5 299 Z " /><path fill="rgb(194,141,135)" stroke="rgb(194,141,135)" stroke-width="1" opacity="0.2627450980392157" d="M 509.5 299 L 508.5 301 L 509.5 299 Z " /><path fill="rgb(194,141,135)" stroke="rgb(194,141,135)" stroke-width="1" opacity="0.2627450980392157" d="M 335.5 301 L 336 302.5 L 334 303.5 L 335.5 301 Z " /><path fill="rgb(194,141,135)" stroke="rgb(194,141,135)" stroke-width="1" opacity="0.2627450980392157" d="M 146.5 302 L 147.5 304 L 146.5 302 Z " /><path fill="rgb(194,141,135)" stroke="rgb(194,141,135)" stroke-width="1" opacity="0.2627450980392157" d="M 506.5 302 L 504.5 305 L 506.5 302 Z " /><path fill="rgb(194,141,135)" stroke="rgb(194,141,135)" stroke-width="1" opacity="0.2627450980392157" d="M 11.5 305 L 14 305.5 L 11.5 306 L 11.5 305 Z " /><path fill="rgb(194,141,135)" stroke="rgb(194,141,135)" stroke-width="1" opacity="0.2627450980392157" d="M 20.5 305 L 23 305.5 L 20.5 306 L 20.5 305 Z " /><path fill="rgb(194,141,135)" stroke="rgb(194,141,135)" stroke-width="1" opacity="0.2627450980392157" d="M 151.5 305 L 154 305.5 L 151.5 306 L 151.5 305 Z " /><path fill="rgb(194,141,135)" stroke="rgb(194,141,135)" stroke-width="1" opacity="0.2627450980392157" d="M 306.5 305 L 309.5 309 L 306.5 305 Z " /><path fill="rgb(194,141,135)" stroke="rgb(194,141,135)" stroke-width="1" opacity="0.2627450980392157" d="M 333.5 305 L 330.5 309 L 333.5 305 Z " /><path fill="rgb(194,141,135)" stroke="rgb(194,141,135)" stroke-width="1" opacity="0.2627450980392157" d="M 493.5 306 L 499 306.5 L 493.5 307 L 493.5 306 Z " /><path fill="rgb(194,141,135)" stroke="rgb(194,141,135)" stroke-width="1" opacity="0.2627450980392157" d="M 187.5 307 L 188 309.5 L 187 309.5 L 187.5 307 Z " /><path fill="rgb(194,141,135)" stroke="rgb(194,141,135)" stroke-width="1" opacity="0.2627450980392157" d="M 349.5 307 L 350 309.5 L 349 309.5 L 349.5 307 Z " /><path fill="rgb(194,141,135)" stroke="rgb(194,141,135)" stroke-width="1" opacity="0.2627450980392157" d="M 469.5 309 L 470 311.5 L 469 311.5 L 469.5 309 Z " /><path fill="rgb(194,141,135)" stroke="rgb(194,141,135)" stroke-width="1" opacity="0.2627450980392157" d="M 315.5 311 L 318 311.5 L 315.5 312 L 315.5 311 Z " /><path fill="rgb(194,141,135)" stroke="rgb(194,141,135)" stroke-width="1" opacity="0.2627450980392157" d="M 322.5 311 L 325 311.5 L 322.5 312 L 322.5 311 Z " /><path fill="rgb(194,141,135)" stroke="rgb(194,141,135)" stroke-width="1" opacity="0.2627450980392157" d="M 348.5 312 L 349 314.5 L 348 314.5 L 348.5 312 Z " /><path fill="rgb(194,141,135)" stroke="rgb(194,141,135)" stroke-width="1" opacity="0.2627450980392157" d="M 186.5 313 L 187 315.5 L 186 315.5 L 186.5 313 Z " /><path fill="rgb(194,141,135)" stroke="rgb(194,141,135)" stroke-width="1" opacity="0.2627450980392157" d="M 470.5 314 L 471 316.5 L 470 316.5 L 470.5 314 Z " /><path fill="rgb(194,141,135)" stroke="rgb(194,141,135)" stroke-width="1" opacity="0.2627450980392157" d="M 185.5 319 L 186 323.5 L 185 323.5 L 185.5 319 Z " /><path fill="rgb(194,141,135)" stroke="rgb(194,141,135)" stroke-width="1" opacity="0.2627450980392157" d="M 186.5 325 L 190 329.5 L 186 326.5 L 186.5 325 Z " /><path fill="rgb(194,141,135)" stroke="rgb(194,141,135)" stroke-width="1" opacity="0.2627450980392157" d="M 472.5 325 L 473 330.5 L 472 330.5 L 472.5 325 Z " /><path fill="rgb(194,141,135)" stroke="rgb(194,141,135)" stroke-width="1" opacity="0.2627450980392157" d="M 207.5 331 L 208 454.5 L 207 454.5 L 207.5 331 Z " /><path fill="rgb(194,141,135)" stroke="rgb(194,141,135)" stroke-width="1" opacity="0.2627450980392157" d="M 347.5 333 L 349.5 336 L 347.5 333 Z " /><path fill="rgb(194,141,135)" stroke="rgb(194,141,135)" stroke-width="1" opacity="0.2627450980392157" d="M 470.5 334 L 469.5 336 L 470.5 334 Z " /><path fill="rgb(194,141,135)" stroke="rgb(194,141,135)" stroke-width="1" opacity="0.2627450980392157" d="M 405.5 337 L 406 454.5 L 405 454.5 L 405.5 337 Z " /><path fill="rgb(194,141,135)" stroke="rgb(194,141,135)" stroke-width="1" opacity="0.2627450980392157" d="M 82.5 451 L 83 455.5 L 82 455.5 L 82.5 451 Z " /><path fill="rgb(194,141,135)" stroke="rgb(194,141,135)" stroke-width="1" opacity="0.2627450980392157" d="M 132.5 451 L 133 454.5 L 132 454.5 L 132.5 451 Z " /><path fill="rgb(194,141,135)" stroke="rgb(194,141,135)" stroke-width="1" opacity="0.2627450980392157" d="M 247.5 452 L 248 455.5 L 247 455.5 L 247.5 452 Z " /><path fill="rgb(194,141,135)" stroke="rgb(194,141,135)" stroke-width="1" opacity="0.2627450980392157" d="M 296.5 452 L 297 454.5 L 296 454.5 L 296.5 452 Z " /><path fill="rgb(194,141,135)" stroke="rgb(194,141,135)" stroke-width="1" opacity="0.2627450980392157" d="M 451.5 452 L 452 456.5 L 451 456.5 L 451.5 452 Z " /><path fill="rgb(194,141,135)" stroke="rgb(194,141,135)" stroke-width="1" opacity="0.2627450980392157" d="M 91.5 453 L 92 455.5 L 91 455.5 L 91.5 453 Z " /><path fill="rgb(194,141,135)" stroke="rgb(194,141,135)" stroke-width="1" opacity="0.2627450980392157" d="M 413.5 454 L 414 456.5 L 413 456.5 L 413.5 454 Z " /><path fill="rgb(194,141,135)" stroke="rgb(194,141,135)" stroke-width="1" opacity="0.2627450980392157" d="M 81.5 457 L 82 458.5 L 74.5 468 L 79 462.5 L 81.5 457 Z " /><path fill="rgb(194,141,135)" stroke="rgb(194,141,135)" stroke-width="1" opacity="0.2627450980392157" d="M 43.5 459 L 45 461.5 L 43 460.5 L 43.5 459 Z " /><path fill="rgb(194,141,135)" stroke="rgb(194,141,135)" stroke-width="1" opacity="0.2627450980392157" d="M 130.5 459 L 131 460.5 L 129 461.5 L 130.5 459 Z " /><path fill="rgb(194,141,135)" stroke="rgb(194,141,135)" stroke-width="1" opacity="0.2627450980392157" d="M 368.5 459 L 376 468.5 L 369 462.5 L 368.5 459 Z " /><path fill="rgb(194,141,135)" stroke="rgb(194,141,135)" stroke-width="1" opacity="0.2627450980392157" d="M 415.5 461 L 421 467.5 L 416 463.5 L 415.5 461 Z " /><path fill="rgb(194,141,135)" stroke="rgb(194,141,135)" stroke-width="1" opacity="0.2627450980392157" d="M 449.5 461 L 448.5 463 L 449.5 461 Z " /><path fill="rgb(194,141,135)" stroke="rgb(194,141,135)" stroke-width="1" opacity="0.2627450980392157" d="M 210.5 462 L 215.5 468 L 210.5 462 Z " /><path fill="rgb(194,141,135)" stroke="rgb(194,141,135)" stroke-width="1" opacity="0.2627450980392157" d="M 244.5 462 L 242.5 465 L 244.5 462 Z " /><path fill="rgb(194,141,135)" stroke="rgb(194,141,135)" stroke-width="1" opacity="0.2627450980392157" d="M 259.5 462 L 264.5 468 L 259.5 462 Z " /><path fill="rgb(194,141,135)" stroke="rgb(194,141,135)" stroke-width="1" opacity="0.2627450980392157" d="M 293.5 462 L 287.5 469 L 293.5 462 Z " /><path fill="rgb(194,141,135)" stroke="rgb(194,141,135)" stroke-width="1" opacity="0.2627450980392157" d="M 402.5 462 L 401.5 464 L 402.5 462 Z " /><path fill="rgb(194,141,135)" stroke="rgb(194,141,135)" stroke-width="1" opacity="0.2627450980392157" d="M 45.5 463 L 49.5 468 L 45.5 463 Z " /><path fill="rgb(194,141,135)" stroke="rgb(194,141,135)" stroke-width="1" opacity="0.2627450980392157" d="M 95.5 463 L 99.5 468 L 95.5 463 Z " /><path fill="rgb(194,141,135)" stroke="rgb(194,141,135)" stroke-width="1" opacity="0.2627450980392157" d="M 128.5 463 L 124.5 468 L 128.5 463 Z " /><path fill="rgb(194,141,135)" stroke="rgb(194,141,135)" stroke-width="1" opacity="0.2627450980392157" d="M 447.5 464 L 444.5 468 L 447.5 464 Z " /><path fill="rgb(194,141,135)" stroke="rgb(194,141,135)" stroke-width="1" opacity="0.2627450980392157" d="M 400.5 465 L 399.5 467 L 400.5 465 Z " /><path fill="rgb(194,141,135)" stroke="rgb(194,141,135)" stroke-width="1" opacity="0.2627450980392157" d="M 240.5 466 L 238.5 469 L 240.5 466 Z " /><path fill="rgb(194,141,135)" stroke="rgb(194,141,135)" stroke-width="1" opacity="0.2627450980392157" d="M 397.5 467 L 396.5 469 L 397.5 467 Z " /><path fill="rgb(194,141,135)" stroke="rgb(194,141,135)" stroke-width="1" opacity="0.2627450980392157" d="M 217.5 468 L 220 469.5 L 218.5 470 L 217.5 468 Z " /><path fill="rgb(194,141,135)" stroke="rgb(194,141,135)" stroke-width="1" opacity="0.2627450980392157" d="M 266.5 468 L 267.5 470 L 266.5 468 Z " /><path fill="rgb(194,141,135)" stroke="rgb(194,141,135)" stroke-width="1" opacity="0.2627450980392157" d="M 422.5 468 L 425 469.5 L 423.5 470 L 422.5 468 Z " /><path fill="rgb(194,141,135)" stroke="rgb(194,141,135)" stroke-width="1" opacity="0.2627450980392157" d="M 442.5 468 L 441.5 470 L 440 469.5 L 442.5 468 Z " /><path fill="rgb(194,141,135)" stroke="rgb(194,141,135)" stroke-width="1" opacity="0.2627450980392157" d="M 60.5 471 L 64 471.5 L 60.5 472 L 60.5 471 Z " /><path fill="rgb(194,141,135)" stroke="rgb(194,141,135)" stroke-width="1" opacity="0.2627450980392157" d="M 110.5 471 L 114 471.5 L 110.5 472 L 110.5 471 Z " /><path fill="rgb(194,141,135)" stroke="rgb(194,141,135)" stroke-width="1" opacity="0.2627450980392157" d="M 226.5 471 L 230 471.5 L 226.5 472 L 226.5 471 Z " /><path fill="rgb(194,141,135)" stroke="rgb(194,141,135)" stroke-width="1" opacity="0.2627450980392157" d="M 275.5 471 L 279 471.5 L 275.5 472 L 275.5 471 Z " /><path fill="rgb(194,141,135)" stroke="rgb(194,141,135)" stroke-width="1" opacity="0.2627450980392157" d="M 384.5 471 L 388 471.5 L 384.5 472 L 384.5 471 Z " /><path fill="rgb(194,141,135)" stroke="rgb(194,141,135)" stroke-width="1" opacity="0.2627450980392157" d="M 430.5 471 L 435 471.5 L 430.5 472 L 430.5 471 Z " /></svg>