<svg width="512" height="512" version="1.1" xmlns="http://www.w3.org/2000/svg" desc="Created with imagetracer.js version 1.2.6" ><path fill="rgb(0,0,0)" stroke="rgb(0,0,0)" stroke-width="1" opacity="0" d="M 0 0 L 512 0 L 512 197.5 L 510 196.5 Q 510.75 194.25 508.5 195 Q 506.5 192 499.5 194 L 495 195 Q 488.994 179.868 476.5 170 Q 438.822 141.678 366.5 148 Q 317.832 151.332 293 178.5 Q 279.279 193.538 277 219 Q 264.917 215.867 247.5 217 L 235 219 Q 231.958 186.935 211.5 171 Q 174.003 141.497 100.5 148 Q 50.016 151.516 25 180.5 L 16.5 195 L 4.5 194 L 2 195 L 0.5 198 L 0 0 Z " /><path fill="rgb(0,0,0)" stroke="rgb(0,0,0)" stroke-width="1" opacity="0" d="M 0.5 204 L 3.5 208 L 12 210 Q 9.483 219.15 10 233.5 Q 14.988 290.012 50.5 316 L 62 324.5 L 32 354.5 L 31 359.5 L 34.5 365 L 41.5 366 L 77.5 332 Q 98.19 343.81 132.5 342 Q 183.671 335.171 209 302.5 Q 219.971 289.471 227.5 273 L 231.5 273 L 253.5 267 L 258.5 267 Q 266.565 272.435 280.5 272 L 283.5 274 Q 284.75 271.75 286 274.5 Q 296.059 298.441 314.5 314 Q 341.958 342.542 398.5 342 Q 419.97 339.97 435.5 332 L 468.5 365 L 475.5 366 L 479 363.5 L 481 356.5 L 450 324.5 Q 464.838 314.838 476 301.5 Q 500.822 274.822 502 224.5 L 501 223.5 Q 501.75 214.875 500 210 Q 507.5 210.25 511 205.5 L 511.5 204 L 512 512 L 0 512 L 0.5 204 Z " /><path fill="rgb(0,0,0)" stroke="rgb(0,0,0)" stroke-width="1" opacity="0" d="M 250.5 233 Q 267.202 231.298 277 236.5 Q 276.125 243.313 278 246 L 255.5 251 L 234 246 Q 232.386 237.955 236.5 235 L 249.5 234 L 250.5 233 Z " /><path fill="rgb(140,190,211)" stroke="rgb(140,190,211)" stroke-width="1" opacity="1" d="M 108.5 163 L 138 163.5 L 108.5 164 L 108.5 163 Z " /><path fill="rgb(140,190,211)" stroke="rgb(140,190,211)" stroke-width="1" opacity="1" d="M 374.5 163 L 405 163.5 L 374.5 164 L 374.5 163 Z " /><path fill="rgb(140,190,211)" stroke="rgb(140,190,211)" stroke-width="1" opacity="1" d="M 96.5 164 L 101 164.5 L 96.5 165 L 96.5 164 Z " /><path fill="rgb(140,190,211)" stroke="rgb(140,190,211)" stroke-width="1" opacity="1" d="M 145.5 164 L 150 164.5 L 145.5 165 L 145.5 164 Z " /><path fill="rgb(140,190,211)" stroke="rgb(140,190,211)" stroke-width="1" opacity="1" d="M 363.5 164 L 367 164.5 L 363.5 165 L 363.5 164 Z " /><path fill="rgb(140,190,211)" stroke="rgb(140,190,211)" stroke-width="1" opacity="1" d="M 411.5 164 L 416 164.5 L 411.5 165 L 411.5 164 Z " /><path fill="rgb(140,190,211)" stroke="rgb(140,190,211)" stroke-width="1" opacity="1" d="M 89.5 165 L 92 165.5 Q 74.403 171.403 64 184.5 Q 57.223 192.223 54 203.5 L 55.5 205 L 68.5 207 L 77.5 210 L 81.5 210 Q 148.041 228.519 219 242 L 215.5 258 L 203.5 254 Q 124.6 239.4 51.5 219 L 50 220.5 L 50 239.5 Q 55.807 281.693 81.5 304 L 99.5 287 L 102.5 286 Q 151.806 276.806 197.5 264 L 201.5 264 L 214.5 260 L 214 261.5 L 207 278 L 205 278.5 L 205.5 280 L 201.5 279 L 110.5 300 Q 98.375 303.375 94 314.5 Q 102.178 321.822 114 325.5 L 110.5 326 Q 70.244 318.756 49 292.5 Q 24.996 269.004 26 220.5 Q 28.983 195.483 44.5 183 Q 61.695 168.695 89.5 165 Z " /><path fill="rgb(140,190,211)" stroke="rgb(140,190,211)" stroke-width="1" opacity="1" d="M 154.5 165 L 157 165.5 L 154.5 166 L 154.5 165 Z " /><path fill="rgb(140,190,211)" stroke="rgb(140,190,211)" stroke-width="1" opacity="1" d="M 355.5 165 L 359 165.5 Q 343.342 171.842 333 183.5 Q 316.5 201.25 318 236 Q 392.981 220.766 465.5 202 L 469.5 202 L 479 198.5 L 478.5 197 Q 483.625 204.375 485 215.5 L 484 215.5 Q 484.75 213.25 482.5 214 L 334.5 249 L 330.5 249 L 321 252.5 L 325 267 L 412.5 287 L 439 312.5 L 423.5 320 L 404.5 301 L 334.5 285 L 336 287.5 Q 343.485 300.015 354.5 309 Q 365.995 319.505 382 325.5 L 376.5 326 Q 338.05 318.95 317 294.5 Q 292.261 270.739 292 222.5 Q 294.468 196.968 309.5 184 Q 326.929 168.929 355.5 165 Z " /><path fill="rgb(140,190,211)" stroke="rgb(140,190,211)" stroke-width="1" opacity="1" d="M 420.5 165 L 424 165.5 L 420.5 166 L 420.5 165 Z " /><path fill="rgb(140,190,211)" stroke="rgb(140,190,211)" stroke-width="1" opacity="1" d="M 160.5 166 L 163 166.5 L 160.5 167 L 160.5 166 Z " /><path fill="rgb(140,190,211)" stroke="rgb(140,190,211)" stroke-width="1" opacity="1" d="M 426.5 166 L 429 166.5 L 426.5 167 L 426.5 166 Z " /><path fill="rgb(140,190,211)" stroke="rgb(140,190,211)" stroke-width="1" opacity="1" d="M 431.5 167 L 434 167.5 L 431.5 168 L 431.5 167 Z " /><path fill="rgb(140,190,211)" stroke="rgb(140,190,211)" stroke-width="1" opacity="1" d="M 435.5 168 L 438 168.5 L 435.5 169 L 435.5 168 Z " /><path fill="rgb(140,190,211)" stroke="rgb(140,190,211)" stroke-width="1" opacity="1" d="M 191.5 176 L 192.5 178 L 191.5 176 Z " /><path fill="rgb(140,190,211)" stroke="rgb(140,190,211)" stroke-width="1" opacity="1" d="M 462.5 179 L 463.5 181 L 462.5 179 Z " /><path fill="rgb(140,190,211)" stroke="rgb(140,190,211)" stroke-width="1" opacity="1" d="M 197.5 180 L 198.5 182 L 197.5 180 Z " /><path fill="rgb(140,190,211)" stroke="rgb(140,190,211)" stroke-width="1" opacity="1" d="M 466.5 182 L 473.5 190 L 466.5 182 Z " /><path fill="rgb(140,190,211)" stroke="rgb(140,190,211)" stroke-width="1" opacity="1" d="M 201.5 183 L 206.5 189 L 201.5 183 Z " /><path fill="rgb(140,190,211)" stroke="rgb(140,190,211)" stroke-width="1" opacity="1" d="M 208.5 191 L 209.5 193 L 208.5 191 Z " /><path fill="rgb(140,190,211)" stroke="rgb(140,190,211)" stroke-width="1" opacity="1" d="M 475.5 192 L 476.5 194 L 475.5 192 Z " /><path fill="rgb(140,190,211)" stroke="rgb(140,190,211)" stroke-width="1" opacity="1" d="M 210.5 194 L 211.5 196 L 210.5 194 Z " /><path fill="rgb(140,190,211)" stroke="rgb(140,190,211)" stroke-width="1" opacity="1" d="M 218.5 214 L 219 216.5 L 218 216.5 L 218.5 214 Z " /><path fill="rgb(140,190,211)" stroke="rgb(140,190,211)" stroke-width="1" opacity="1" d="M 485.5 219 L 486 225.5 L 485 225.5 L 485.5 219 Z " /><path fill="rgb(140,190,211)" stroke="rgb(140,190,211)" stroke-width="1" opacity="1" d="M 219.5 221 L 220 237.5 L 219 237.5 L 219.5 221 Z " /><path fill="rgb(140,190,211)" stroke="rgb(140,190,211)" stroke-width="1" opacity="1" d="M 485.5 233 L 486 239.5 L 485 239.5 L 485.5 233 Z " /><path fill="rgb(140,190,211)" stroke="rgb(140,190,211)" stroke-width="1" opacity="1" d="M 484.5 244 L 485 246.5 L 484 246.5 L 484.5 244 Z " /><path fill="rgb(140,190,211)" stroke="rgb(140,190,211)" stroke-width="1" opacity="1" d="M 483.5 249 L 484 251.5 L 483 251.5 L 483.5 249 Z " /><path fill="rgb(140,190,211)" stroke="rgb(140,190,211)" stroke-width="1" opacity="1" d="M 471.5 280 L 470.5 282 L 471.5 280 Z " /><path fill="rgb(140,190,211)" stroke="rgb(140,190,211)" stroke-width="1" opacity="1" d="M 204.5 281 L 203.5 283 L 204.5 281 Z " /><path fill="rgb(140,190,211)" stroke="rgb(140,190,211)" stroke-width="1" opacity="1" d="M 469.5 283 L 468.5 285 L 469.5 283 Z " /><path fill="rgb(140,190,211)" stroke="rgb(140,190,211)" stroke-width="1" opacity="1" d="M 202.5 284 L 201.5 286 L 202.5 284 Z " /><path fill="rgb(140,190,211)" stroke="rgb(140,190,211)" stroke-width="1" opacity="1" d="M 200.5 287 L 198.5 290 L 200.5 287 Z " /><path fill="rgb(140,190,211)" stroke="rgb(140,190,211)" stroke-width="1" opacity="1" d="M 466.5 287 L 465.5 289 L 466.5 287 Z " /><path fill="rgb(140,190,211)" stroke="rgb(140,190,211)" stroke-width="1" opacity="1" d="M 463.5 291 L 457.5 298 L 463.5 291 Z " /><path fill="rgb(140,190,211)" stroke="rgb(140,190,211)" stroke-width="1" opacity="1" d="M 195.5 293 L 186.5 303 L 195.5 293 Z " /><path fill="rgb(140,190,211)" stroke="rgb(140,190,211)" stroke-width="1" opacity="1" d="M 455.5 299 L 451.5 304 L 455.5 299 Z " /><path fill="rgb(140,190,211)" stroke="rgb(140,190,211)" stroke-width="1" opacity="1" d="M 183.5 304 L 181.5 307 L 183.5 304 Z " /><path fill="rgb(140,190,211)" stroke="rgb(140,190,211)" stroke-width="1" opacity="1" d="M 448.5 305 L 446.5 308 L 448.5 305 Z " /><path fill="rgb(140,190,211)" stroke="rgb(140,190,211)" stroke-width="1" opacity="1" d="M 178.5 308 L 177.5 310 L 178.5 308 Z " /><path fill="rgb(140,190,211)" stroke="rgb(140,190,211)" stroke-width="1" opacity="1" d="M 444.5 308 L 443.5 310 L 444.5 308 Z " /><path fill="rgb(140,190,211)" stroke="rgb(140,190,211)" stroke-width="1" opacity="1" d="M 175.5 310 L 174.5 312 L 175.5 310 Z " /><path fill="rgb(140,190,211)" stroke="rgb(140,190,211)" stroke-width="1" opacity="1" d="M 441.5 310 L 440.5 312 L 441.5 310 Z " /><path fill="rgb(140,190,211)" stroke="rgb(140,190,211)" stroke-width="1" opacity="1" d="M 168.5 314 L 167.5 316 L 165.5 317 L 166.5 315 L 168.5 314 Z " /><path fill="rgb(140,190,211)" stroke="rgb(140,190,211)" stroke-width="1" opacity="1" d="M 144.5 323 L 147 323.5 L 144.5 324 L 144.5 323 Z " /><path fill="rgb(140,190,211)" stroke="rgb(140,190,211)" stroke-width="1" opacity="1" d="M 139.5 324 L 142 324.5 L 139.5 325 L 139.5 324 Z " /><path fill="rgb(140,190,211)" stroke="rgb(140,190,211)" stroke-width="1" opacity="1" d="M 132.5 325 L 136 325.5 L 132.5 326 L 132.5 325 Z " /><path fill="rgb(140,190,211)" stroke="rgb(140,190,211)" stroke-width="1" opacity="1" d="M 398.5 325 L 403 325.5 L 398.5 326 L 398.5 325 Z " /><path fill="rgb(77,86,90)" stroke="rgb(77,86,90)" stroke-width="1" opacity="0.9647058823529412" d="M 100.5 148 Q 183.542 140.458 220 179.5 Q 232.774 194.467 235 219 Q 247.083 215.867 264.5 217 L 277 219 Q 279.917 187.792 299.5 172 Q 337.146 141.146 412.5 148 Q 461.66 151.34 486 179.5 Q 492.522 186.009 495 195 Q 499.5 193.333 507.5 194 L 510 195 Q 512.833 196.958 512 203.5 L 508.5 208 L 500 210 Q 502.425 218.783 502 232.5 Q 497.366 289.866 461.5 316 L 450 324.5 L 480 354.5 L 481 359.5 L 477.5 365 L 470.5 366 L 434.5 332 Q 413.81 343.81 379.5 342 Q 328.329 335.171 303 302.5 Q 292.029 289.471 284.5 273 L 282.5 273 L 258.5 267 L 253.5 267 Q 242.1 271.6 227.5 273 L 226 274.5 Q 215.596 299.096 196.5 315 Q 169.224 342.724 113.5 342 Q 91.901 340.099 76.5 332 L 43.5 365 L 36.5 366 L 33 363.5 L 31 356.5 L 62 324.5 Q 47.737 315.262 37 302.5 Q 11.444 276.056 10 225.5 L 11 224.5 Q 10.167 215.25 12 210 Q 4.5 210.25 1 205.5 L 0 198.5 L 2 195 Q 5 193 12.5 194 L 16.5 195 Q 22.761 180.261 34.5 171 Q 58.958 150.958 100.5 148 Z M 109 163 Q 68 165 45 183 Q 29 195 26 221 Q 25 269 49 293 Q 70 319 111 326 Q 163 329 187 303 Q 214 281 220 238 Q 222 205 207 189 Q 176 158 109 163 Z M 375 163 Q 333 165 310 184 Q 294 197 292 223 Q 292 271 317 295 Q 338 319 377 326 Q 427 328 452 304 Q 479 282 486 240 Q 488 206 474 190 Q 443 158 375 163 Z M 251 233 L 250 234 L 237 235 Q 232 238 234 246 L 256 251 L 278 246 Q 276 243 277 237 Q 267 231 251 233 Z " /><path fill="rgb(203,229,245)" stroke="rgb(203,229,245)" stroke-width="1" opacity="1" d="M 101.5 164 Q 175.052 156.948 208 190.5 Q 222.328 207.93 219 242 Q 148.041 228.519 81.5 210 L 77.5 210 L 68.5 207 L 55.5 205 L 54 203.5 Q 59.547 186.047 72.5 176 Q 82.336 165.336 101.5 164 Z " /><path fill="rgb(203,229,245)" stroke="rgb(203,229,245)" stroke-width="1" opacity="1" d="M 367.5 164 Q 443.125 155.875 475 191.5 L 479 198.5 L 469.5 202 L 465.5 202 Q 392.981 220.766 318 236 Q 316.531 194.813 339.5 177 Q 348.09 165.09 367.5 164 Z " /><path fill="rgb(203,229,245)" stroke="rgb(203,229,245)" stroke-width="1" opacity="1" d="M 482.5 214 Q 484.75 213.25 484 215.5 L 485 216.5 L 486 232.5 Q 481.957 276.636 457 299 Q 449.214 307.071 437.5 312 L 412.5 287 L 325 267 L 321 252.5 L 330.5 249 L 334.5 249 L 482.5 214 Z " /><path fill="rgb(203,229,245)" stroke="rgb(203,229,245)" stroke-width="1" opacity="1" d="M 51.5 219 L 215 257 L 213.5 261 Q 164.679 270.179 119.5 283 L 115.5 283 L 106.5 286 L 102.5 286 L 99.5 287 L 81.5 304 Q 49.605 278.395 50 220.5 L 51.5 219 Z " /><path fill="rgb(203,229,245)" stroke="rgb(203,229,245)" stroke-width="1" opacity="1" d="M 205.5 278 L 205 279.5 Q 197.25 294.25 184.5 304 Q 161.247 326.747 114.5 326 Q 102.533 321.967 94 314.5 Q 98.375 303.375 110.5 300 Q 159.558 290.558 205.5 278 Z " /><path fill="rgb(203,229,245)" stroke="rgb(203,229,245)" stroke-width="1" opacity="1" d="M 334.5 285 L 404.5 301 L 423 319.5 Q 407.39 327.39 382.5 326 Q 358.346 316.154 343 297.5 L 334.5 285 Z " /></svg>