<svg width="512" height="512" version="1.1" xmlns="http://www.w3.org/2000/svg" desc="Created with imagetracer.js version 1.2.6" ><path fill="rgb(237,246,254)" stroke="rgb(237,246,254)" stroke-width="1" opacity="0.9882352941176471" d="M 157.5 122 Q 172.912 120.088 178 128.5 Q 185.941 134.559 184 150.5 Q 180.75 159.25 173.5 164 Q 153.168 176.168 138 193.5 Q 116.502 217.002 104 249.5 Q 90.141 283.141 91 331.5 L 86.5 339 Q 82 343.5 71.5 342 L 65 337.5 Q 56.525 319.475 58 291.5 Q 61.5 289 59 280.5 L 58 278.5 L 60 268.5 L 60 266.5 L 63 248.5 L 63 246.5 Q 77.25 183.75 118.5 148 Q 135.194 132.194 157.5 122 Z " /><path fill="rgb(202,226,249)" stroke="rgb(202,226,249)" stroke-width="1" opacity="0.9921568627450981" d="M 237.5 0 L 256 0.5 L 231.5 2 L 231.5 1 Q 236.25 2.25 237.5 0 Z " /><path fill="rgb(202,226,249)" stroke="rgb(202,226,249)" stroke-width="1" opacity="0.9921568627450981" d="M 259.5 0 L 263 0.5 L 259.5 1 L 259.5 0 Z " /><path fill="rgb(202,226,249)" stroke="rgb(202,226,249)" stroke-width="1" opacity="0.9921568627450981" d="M 224.5 2 L 229 2.5 L 224.5 3 L 224.5 2 Z " /><path fill="rgb(202,226,249)" stroke="rgb(202,226,249)" stroke-width="1" opacity="0.9921568627450981" d="M 219.5 3 L 223 3.5 L 219.5 4 L 219.5 3 Z " /><path fill="rgb(202,226,249)" stroke="rgb(202,226,249)" stroke-width="1" opacity="0.9921568627450981" d="M 270.5 3 L 271.5 5 L 270.5 3 Z " /><path fill="rgb(202,226,249)" stroke="rgb(202,226,249)" stroke-width="1" opacity="0.9921568627450981" d="M 214.5 4 L 218 4.5 L 214.5 5 L 214.5 4 Z " /><path fill="rgb(202,226,249)" stroke="rgb(202,226,249)" stroke-width="1" opacity="0.9921568627450981" d="M 210.5 5 L 213 5.5 Q 195.993 8.993 182.5 16 L 183.5 14 L 210.5 5 Z " /><path fill="rgb(202,226,249)" stroke="rgb(202,226,249)" stroke-width="1" opacity="0.9921568627450981" d="M 276.5 9 L 277.5 11 L 276.5 9 Z " /><path fill="rgb(202,226,249)" stroke="rgb(202,226,249)" stroke-width="1" opacity="0.9921568627450981" d="M 177.5 17 L 179 17.5 L 155.5 31 L 155 29 L 177.5 17 Z " /><path fill="rgb(202,226,249)" stroke="rgb(202,226,249)" stroke-width="1" opacity="0.9921568627450981" d="M 281.5 23 L 282 25.5 L 281 25.5 L 281.5 23 Z " /><path fill="rgb(202,226,249)" stroke="rgb(202,226,249)" stroke-width="1" opacity="0.9921568627450981" d="M 153.5 31 L 151.5 34 L 148.5 36 L 150.5 33 L 153.5 31 Z " /><path fill="rgb(202,226,249)" stroke="rgb(202,226,249)" stroke-width="1" opacity="0.9921568627450981" d="M 278.5 35 L 278 36.5 L 275.5 40 L 277 37.5 L 278.5 35 Z " /><path fill="rgb(202,226,249)" stroke="rgb(202,226,249)" stroke-width="1" opacity="0.9921568627450981" d="M 146.5 36 L 143.5 40 Q 129.583 49.083 119.5 62 L 122 58.5 L 124.5 55 L 127.5 53 L 130 49 Q 133.217 49.6 133.5 47 L 138 44 L 139.5 41 L 146.5 36 Z " /><path fill="rgb(202,226,249)" stroke="rgb(202,226,249)" stroke-width="1" opacity="0.9921568627450981" d="M 273.5 41 L 271.5 44 L 273.5 41 Z " /><path fill="rgb(202,226,249)" stroke="rgb(202,226,249)" stroke-width="1" opacity="0.9921568627450981" d="M 223.5 59 L 225 59.5 L 222.5 61 L 223.5 59 Z " /><path fill="rgb(202,226,249)" stroke="rgb(202,226,249)" stroke-width="1" opacity="0.9921568627450981" d="M 219.5 61 L 218.5 63 L 219.5 61 Z " /><path fill="rgb(202,226,249)" stroke="rgb(202,226,249)" stroke-width="1" opacity="0.9921568627450981" d="M 117.5 63 L 119 63.5 L 101.5 86 L 103 83.5 L 105 78 Q 107.667 79.125 107 76.5 L 108 74 Q 110.667 75.125 110 72.5 L 117.5 63 Z " /><path fill="rgb(202,226,249)" stroke="rgb(202,226,249)" stroke-width="1" opacity="0.9921568627450981" d="M 211.5 65 L 213 65.5 L 210.5 67 L 211.5 65 Z " /><path fill="rgb(202,226,249)" stroke="rgb(202,226,249)" stroke-width="1" opacity="0.9921568627450981" d="M 204.5 69 L 206 69.5 L 203.5 71 L 204.5 69 Z " /><path fill="rgb(202,226,249)" stroke="rgb(202,226,249)" stroke-width="1" opacity="0.9921568627450981" d="M 201.5 71 L 200.5 73 L 201.5 71 Z " /><path fill="rgb(202,226,249)" stroke="rgb(202,226,249)" stroke-width="1" opacity="0.9921568627450981" d="M 191.5 78 L 190.5 80 L 191.5 78 Z " /><path fill="rgb(202,226,249)" stroke="rgb(202,226,249)" stroke-width="1" opacity="0.9921568627450981" d="M 187.5 81 L 185.5 84 L 187.5 81 Z " /><path fill="rgb(202,226,249)" stroke="rgb(202,226,249)" stroke-width="1" opacity="0.9921568627450981" d="M 182.5 85 L 179.5 89 L 182.5 85 Z " /><path fill="rgb(202,226,249)" stroke="rgb(202,226,249)" stroke-width="1" opacity="0.9921568627450981" d="M 99.5 89 L 99 90.5 L 91.5 105 L 91 102.5 L 99.5 89 Z " /><path fill="rgb(202,226,249)" stroke="rgb(202,226,249)" stroke-width="1" opacity="0.9921568627450981" d="M 174.5 92 L 167.5 100 L 174.5 92 Z " /><path fill="rgb(202,226,249)" stroke="rgb(202,226,249)" stroke-width="1" opacity="0.9921568627450981" d="M 237.5 98 L 244 98.5 L 237.5 99 L 237.5 98 Z " /><path fill="rgb(202,226,249)" stroke="rgb(202,226,249)" stroke-width="1" opacity="0.9921568627450981" d="M 268.5 98 L 275 98.5 L 268.5 99 L 268.5 98 Z " /><path fill="rgb(202,226,249)" stroke="rgb(202,226,249)" stroke-width="1" opacity="0.9921568627450981" d="M 227.5 99 L 232 99.5 L 227.5 100 L 227.5 99 Z " /><path fill="rgb(202,226,249)" stroke="rgb(202,226,249)" stroke-width="1" opacity="0.9921568627450981" d="M 279.5 99 L 284 99.5 L 279.5 100 L 279.5 99 Z " /><path fill="rgb(202,226,249)" stroke="rgb(202,226,249)" stroke-width="1" opacity="0.9921568627450981" d="M 221.5 100 L 224 100.5 L 221.5 101 L 221.5 100 Z " /><path fill="rgb(202,226,249)" stroke="rgb(202,226,249)" stroke-width="1" opacity="0.9921568627450981" d="M 287.5 100 L 291 100.5 L 287.5 101 L 287.5 100 Z " /><path fill="rgb(202,226,249)" stroke="rgb(202,226,249)" stroke-width="1" opacity="0.9921568627450981" d="M 215.5 101 L 218 101.5 L 215.5 102 L 215.5 101 Z " /><path fill="rgb(202,226,249)" stroke="rgb(202,226,249)" stroke-width="1" opacity="0.9921568627450981" d="M 294.5 101 L 297 101.5 L 294.5 102 L 294.5 101 Z " /><path fill="rgb(202,226,249)" stroke="rgb(202,226,249)" stroke-width="1" opacity="0.9921568627450981" d="M 210.5 102 L 213 102.5 L 210.5 103 L 210.5 102 Z " /><path fill="rgb(202,226,249)" stroke="rgb(202,226,249)" stroke-width="1" opacity="0.9921568627450981" d="M 201.5 104 L 204 104.5 L 201.5 105 L 201.5 104 Z " /><path fill="rgb(202,226,249)" stroke="rgb(202,226,249)" stroke-width="1" opacity="0.9921568627450981" d="M 90.5 106 L 90 107.5 L 87.5 114 L 87 112.5 L 90.5 106 Z " /><path fill="rgb(202,226,249)" stroke="rgb(202,226,249)" stroke-width="1" opacity="0.9921568627450981" d="M 161.5 106 L 158.5 110 L 161.5 106 Z " /><path fill="rgb(202,226,249)" stroke="rgb(202,226,249)" stroke-width="1" opacity="0.9921568627450981" d="M 156.5 112 L 154.5 115 L 156.5 112 Z " /><path fill="rgb(202,226,249)" stroke="rgb(202,226,249)" stroke-width="1" opacity="0.9921568627450981" d="M 86.5 115 L 87 116.5 L 85.5 119 L 85 117.5 L 86.5 115 Z " /><path fill="rgb(202,226,249)" stroke="rgb(202,226,249)" stroke-width="1" opacity="0.9921568627450981" d="M 341.5 115 L 345 116.5 L 343.5 117 L 341.5 115 Z " /><path fill="rgb(202,226,249)" stroke="rgb(202,226,249)" stroke-width="1" opacity="0.9921568627450981" d="M 153.5 116 L 151.5 119 L 153.5 116 Z " /><path fill="rgb(202,226,249)" stroke="rgb(202,226,249)" stroke-width="1" opacity="0.9921568627450981" d="M 150.5 120 L 149.5 122 L 150.5 120 Z " /><path fill="rgb(202,226,249)" stroke="rgb(202,226,249)" stroke-width="1" opacity="0.9921568627450981" d="M 356.5 122 L 359 123.5 L 357.5 124 L 356.5 122 Z " /><path fill="rgb(202,226,249)" stroke="rgb(202,226,249)" stroke-width="1" opacity="0.9921568627450981" d="M 148.5 123 L 147.5 125 L 148.5 123 Z " /><path fill="rgb(202,226,249)" stroke="rgb(202,226,249)" stroke-width="1" opacity="0.9921568627450981" d="M 360.5 124 L 361.5 126 L 360.5 124 Z " /><path fill="rgb(202,226,249)" stroke="rgb(202,226,249)" stroke-width="1" opacity="0.9921568627450981" d="M 82.5 126 L 83 127.5 L 81.5 131 L 81 128.5 L 82.5 126 Z " /><path fill="rgb(202,226,249)" stroke="rgb(202,226,249)" stroke-width="1" opacity="0.9921568627450981" d="M 146.5 126 L 148 126.5 L 145.5 128 L 146.5 126 Z " /><path fill="rgb(202,226,249)" stroke="rgb(202,226,249)" stroke-width="1" opacity="0.9921568627450981" d="M 363.5 126 L 367 128.5 L 365.5 128 L 363.5 126 Z " /><path fill="rgb(202,226,249)" stroke="rgb(202,226,249)" stroke-width="1" opacity="0.9921568627450981" d="M 80.5 132 L 81 134.5 L 80 134.5 L 80.5 132 Z " /><path fill="rgb(202,226,249)" stroke="rgb(202,226,249)" stroke-width="1" opacity="0.9921568627450981" d="M 377.5 135 L 379.5 138 L 377.5 135 Z " /><path fill="rgb(202,226,249)" stroke="rgb(202,226,249)" stroke-width="1" opacity="0.9921568627450981" d="M 79.5 136 L 80 138.5 L 77.5 147 L 77 143.5 L 79.5 136 Z " /><path fill="rgb(202,226,249)" stroke="rgb(202,226,249)" stroke-width="1" opacity="0.9921568627450981" d="M 381.5 138 L 382.5 140 L 381.5 138 Z " /><path fill="rgb(202,226,249)" stroke="rgb(202,226,249)" stroke-width="1" opacity="0.9921568627450981" d="M 385.5 141 L 387.5 144 L 385.5 141 Z " /><path fill="rgb(202,226,249)" stroke="rgb(202,226,249)" stroke-width="1" opacity="0.9921568627450981" d="M 391.5 146 L 406.5 162 L 391.5 146 Z " /><path fill="rgb(202,226,249)" stroke="rgb(202,226,249)" stroke-width="1" opacity="0.9921568627450981" d="M 76.5 148 L 77 153.5 L 75.5 160 L 75 153.5 L 76.5 148 Z " /><path fill="rgb(202,226,249)" stroke="rgb(202,226,249)" stroke-width="1" opacity="0.9921568627450981" d="M 74.5 164 L 75 172.5 L 73 173.5 Q 76.194 171.194 74.5 164 Z " /><path fill="rgb(202,226,249)" stroke="rgb(202,226,249)" stroke-width="1" opacity="0.9921568627450981" d="M 410.5 166 L 412.5 169 L 410.5 166 Z " /><path fill="rgb(202,226,249)" stroke="rgb(202,226,249)" stroke-width="1" opacity="0.9921568627450981" d="M 414.5 171 L 415.5 173 L 414.5 171 Z " /><path fill="rgb(202,226,249)" stroke="rgb(202,226,249)" stroke-width="1" opacity="0.9921568627450981" d="M 417.5 175 L 418.5 177 L 417.5 175 Z " /><path fill="rgb(202,226,249)" stroke="rgb(202,226,249)" stroke-width="1" opacity="0.9921568627450981" d="M 73.5 176 L 74 179.5 L 73 179.5 L 73.5 176 Z " /><path fill="rgb(202,226,249)" stroke="rgb(202,226,249)" stroke-width="1" opacity="0.9921568627450981" d="M 252.5 177 L 260 177.5 L 252.5 178 L 252.5 177 Z " /><path fill="rgb(202,226,249)" stroke="rgb(202,226,249)" stroke-width="1" opacity="0.9921568627450981" d="M 237.5 178 L 248 178.5 L 237.5 179 L 237.5 178 Z " /><path fill="rgb(202,226,249)" stroke="rgb(202,226,249)" stroke-width="1" opacity="0.9921568627450981" d="M 264.5 178 L 275 178.5 L 264.5 179 L 264.5 178 Z " /><path fill="rgb(202,226,249)" stroke="rgb(202,226,249)" stroke-width="1" opacity="0.9921568627450981" d="M 419.5 178 L 420.5 180 L 419.5 178 Z " /><path fill="rgb(202,226,249)" stroke="rgb(202,226,249)" stroke-width="1" opacity="0.9921568627450981" d="M 230.5 179 L 236 179.5 L 230.5 180 L 230.5 179 Z " /><path fill="rgb(202,226,249)" stroke="rgb(202,226,249)" stroke-width="1" opacity="0.9921568627450981" d="M 277.5 179 Q 282 178 283 180.5 L 281.5 180 Q 276.5 181 277.5 179 Z " /><path fill="rgb(202,226,249)" stroke="rgb(202,226,249)" stroke-width="1" opacity="0.9921568627450981" d="M 225.5 180 L 229 180.5 L 225.5 181 L 225.5 180 Z " /><path fill="rgb(202,226,249)" stroke="rgb(202,226,249)" stroke-width="1" opacity="0.9921568627450981" d="M 284.5 180 L 288 180.5 L 284.5 181 L 284.5 180 Z " /><path fill="rgb(202,226,249)" stroke="rgb(202,226,249)" stroke-width="1" opacity="0.9921568627450981" d="M 220.5 181 L 223 181.5 L 220.5 182 L 220.5 181 Z " /><path fill="rgb(202,226,249)" stroke="rgb(202,226,249)" stroke-width="1" opacity="0.9921568627450981" d="M 289.5 181 L 303 184.5 L 300.5 185 L 289.5 182 L 289.5 181 Z " /><path fill="rgb(202,226,249)" stroke="rgb(202,226,249)" stroke-width="1" opacity="0.9921568627450981" d="M 216.5 182 L 219 182.5 L 216.5 183 L 216.5 182 Z " /><path fill="rgb(202,226,249)" stroke="rgb(202,226,249)" stroke-width="1" opacity="0.9921568627450981" d="M 212.5 183 L 215 183.5 L 212.5 184 L 212.5 183 Z " /><path fill="rgb(202,226,249)" stroke="rgb(202,226,249)" stroke-width="1" opacity="0.9921568627450981" d="M 423.5 184 L 424.5 186 L 423.5 184 Z " /><path fill="rgb(202,226,249)" stroke="rgb(202,226,249)" stroke-width="1" opacity="0.9921568627450981" d="M 203.5 186 L 205 186.5 L 198.5 189 L 198.5 188 L 203.5 186 Z " /><path fill="rgb(202,226,249)" stroke="rgb(202,226,249)" stroke-width="1" opacity="0.9921568627450981" d="M 307.5 186 Q 320.518 189.482 330 196.5 L 328.5 196 L 307.5 187 L 307.5 186 Z " /><path fill="rgb(202,226,249)" stroke="rgb(202,226,249)" stroke-width="1" opacity="0.9921568627450981" d="M 195.5 189 L 197 189.5 L 189.5 193 L 189.5 192 L 195.5 189 Z " /><path fill="rgb(202,226,249)" stroke="rgb(202,226,249)" stroke-width="1" opacity="0.9921568627450981" d="M 426.5 189 L 427.5 191 L 426.5 189 Z " /><path fill="rgb(202,226,249)" stroke="rgb(202,226,249)" stroke-width="1" opacity="0.9921568627450981" d="M 73.5 190 Q 76.75 191.75 75 198.5 L 74 198.5 Q 74.583 191.75 73.5 190 Z " /><path fill="rgb(202,226,249)" stroke="rgb(202,226,249)" stroke-width="1" opacity="0.9921568627450981" d="M 187.5 193 L 185.5 196 L 180.5 198 L 181.5 196 L 187.5 193 Z " /><path fill="rgb(202,226,249)" stroke="rgb(202,226,249)" stroke-width="1" opacity="0.9921568627450981" d="M 331.5 197 Q 350.75 207.75 364 224.5 L 373 237.5 L 371 236.5 L 363 224 L 360 222.5 L 349.5 211 Q 347.25 211.75 348 209.5 Q 335.687 204.812 331.5 197 Z " /><path fill="rgb(202,226,249)" stroke="rgb(202,226,249)" stroke-width="1" opacity="0.9921568627450981" d="M 178.5 198 L 179 200 L 177 199.5 L 178.5 198 Z " /><path fill="rgb(202,226,249)" stroke="rgb(202,226,249)" stroke-width="1" opacity="0.9921568627450981" d="M 175.5 200 L 174.5 202 L 163 210.5 Q 163.75 212.75 161.5 212 L 157 215.5 Q 164.75 206.25 175.5 200 Z " /><path fill="rgb(202,226,249)" stroke="rgb(202,226,249)" stroke-width="1" opacity="0.9921568627450981" d="M 75.5 204 L 76 206.5 L 75 206.5 L 75.5 204 Z " /><path fill="rgb(202,226,249)" stroke="rgb(202,226,249)" stroke-width="1" opacity="0.9921568627450981" d="M 436.5 208 Q 440.955 213.045 442 221.5 L 441 221.5 L 436.5 208 Z " /><path fill="rgb(202,226,249)" stroke="rgb(202,226,249)" stroke-width="1" opacity="0.9921568627450981" d="M 155.5 217 L 148.5 225 L 155.5 217 Z " /><path fill="rgb(202,226,249)" stroke="rgb(202,226,249)" stroke-width="1" opacity="0.9921568627450981" d="M 147.5 226 L 146 228.5 L 140.5 236 L 142 233.5 L 147.5 226 Z " /><path fill="rgb(202,226,249)" stroke="rgb(202,226,249)" stroke-width="1" opacity="0.9921568627450981" d="M 444.5 229 L 445 231.5 L 444 231.5 L 444.5 229 Z " /><path fill="rgb(202,226,249)" stroke="rgb(202,226,249)" stroke-width="1" opacity="0.9921568627450981" d="M 446.5 236 L 448 239.5 L 446 238.5 L 446.5 236 Z " /><path fill="rgb(202,226,249)" stroke="rgb(202,226,249)" stroke-width="1" opacity="0.9921568627450981" d="M 138.5 239 L 139 240.5 L 133.5 249 L 133 247.5 L 138.5 239 Z " /><path fill="rgb(202,226,249)" stroke="rgb(202,226,249)" stroke-width="1" opacity="0.9921568627450981" d="M 373.5 239 L 377 244.5 L 375 243.5 L 373.5 239 Z " /><path fill="rgb(202,226,249)" stroke="rgb(202,226,249)" stroke-width="1" opacity="0.9921568627450981" d="M 447.5 241 Q 449.75 242.75 449 247.5 L 448 247.5 L 447.5 241 Z " /><path fill="rgb(202,226,249)" stroke="rgb(202,226,249)" stroke-width="1" opacity="0.9921568627450981" d="M 377.5 246 Q 384.087 256.413 387 270.5 L 386 270.5 Q 383.509 256.991 377 247.5 L 377.5 246 Z " /><path fill="rgb(202,226,249)" stroke="rgb(202,226,249)" stroke-width="1" opacity="0.9921568627450981" d="M 449.5 249 L 452 260.5 L 451 260.5 L 449.5 249 Z " /><path fill="rgb(202,226,249)" stroke="rgb(202,226,249)" stroke-width="1" opacity="0.9921568627450981" d="M 132.5 250 L 133 251.5 L 130.5 256 L 130 254.5 L 132.5 250 Z " /><path fill="rgb(202,226,249)" stroke="rgb(202,226,249)" stroke-width="1" opacity="0.9921568627450981" d="M 129.5 259 L 129 260.5 L 126.5 268 L 126 266.5 L 129.5 259 Z " /><path fill="rgb(202,226,249)" stroke="rgb(202,226,249)" stroke-width="1" opacity="0.9921568627450981" d="M 451.5 262 L 453 267.5 L 451 266.5 L 451.5 262 Z " /><path fill="rgb(202,226,249)" stroke="rgb(202,226,249)" stroke-width="1" opacity="0.9921568627450981" d="M 452.5 269 L 453 278.5 L 452 278.5 L 452.5 269 Z " /><path fill="rgb(202,226,249)" stroke="rgb(202,226,249)" stroke-width="1" opacity="0.9921568627450981" d="M 124.5 273 L 125 275.5 L 124 275.5 L 124.5 273 Z " /><path fill="rgb(202,226,249)" stroke="rgb(202,226,249)" stroke-width="1" opacity="0.9921568627450981" d="M 387.5 273 L 388 275.5 L 387 275.5 L 387.5 273 Z " /><path fill="rgb(202,226,249)" stroke="rgb(202,226,249)" stroke-width="1" opacity="0.9921568627450981" d="M 123 277 L 125 277.5 L 123.5 281 L 123 277 Z " /><path fill="rgb(202,226,249)" stroke="rgb(202,226,249)" stroke-width="1" opacity="0.9921568627450981" d="M 388.5 277 L 389 281.5 L 388 281.5 L 388.5 277 Z " /><path fill="rgb(202,226,249)" stroke="rgb(202,226,249)" stroke-width="1" opacity="0.9921568627450981" d="M 122.5 284 L 123 288.5 L 122 288.5 L 122.5 284 Z " /><path fill="rgb(202,226,249)" stroke="rgb(202,226,249)" stroke-width="1" opacity="0.9921568627450981" d="M 389.5 284 L 390 287.5 L 389 287.5 L 389.5 284 Z " /><path fill="rgb(202,226,249)" stroke="rgb(202,226,249)" stroke-width="1" opacity="0.9921568627450981" d="M 453.5 285 L 454 301.5 L 453 301.5 L 453.5 285 Z " /><path fill="rgb(202,226,249)" stroke="rgb(202,226,249)" stroke-width="1" opacity="0.9921568627450981" d="M 121.5 292 L 122 314.5 L 121 314.5 L 121.5 292 Z " /><path fill="rgb(202,226,249)" stroke="rgb(202,226,249)" stroke-width="1" opacity="0.9921568627450981" d="M 390.5 293 L 391 313.5 L 390 313.5 L 390.5 293 Z " /><path fill="rgb(202,226,249)" stroke="rgb(202,226,249)" stroke-width="1" opacity="0.9921568627450981" d="M 58.5 302 L 59 304.5 L 58 304.5 L 58.5 302 Z " /><path fill="rgb(202,226,249)" stroke="rgb(202,226,249)" stroke-width="1" opacity="0.9921568627450981" d="M 453.5 306 L 453 307.5 L 452.5 316 L 452 307.5 L 453.5 306 Z " /><path fill="rgb(202,226,249)" stroke="rgb(202,226,249)" stroke-width="1" opacity="0.9921568627450981" d="M 389.5 318 L 390 324.5 L 389 324.5 L 389.5 318 Z " /><path fill="rgb(202,226,249)" stroke="rgb(202,226,249)" stroke-width="1" opacity="0.9921568627450981" d="M 451.5 318 L 452 321.5 L 451 321.5 L 451.5 318 Z " /><path fill="rgb(202,226,249)" stroke="rgb(202,226,249)" stroke-width="1" opacity="0.9921568627450981" d="M 122.5 319 L 125 335.5 L 124 335.5 Q 120.997 327.92 122.5 319 Z " /><path fill="rgb(202,226,249)" stroke="rgb(202,226,249)" stroke-width="1" opacity="0.9921568627450981" d="M 450.5 325 L 451 328.5 L 450 328.5 L 450.5 325 Z " /><path fill="rgb(202,226,249)" stroke="rgb(202,226,249)" stroke-width="1" opacity="0.9921568627450981" d="M 388.5 326 L 389 330.5 L 388 337 L 386 336.5 L 388.5 326 Z " /><path fill="rgb(202,226,249)" stroke="rgb(202,226,249)" stroke-width="1" opacity="0.9921568627450981" d="M 449.5 330 L 450 334.5 L 449 334.5 L 449.5 330 Z " /><path fill="rgb(202,226,249)" stroke="rgb(202,226,249)" stroke-width="1" opacity="0.9921568627450981" d="M 63.5 336 L 64 338.5 L 63 338.5 L 63.5 336 Z " /><path fill="rgb(202,226,249)" stroke="rgb(202,226,249)" stroke-width="1" opacity="0.9921568627450981" d="M 125.5 337 L 127 344.5 L 126 344.5 L 125.5 337 Z " /><path fill="rgb(202,226,249)" stroke="rgb(202,226,249)" stroke-width="1" opacity="0.9921568627450981" d="M 386.5 338 L 387 340.5 L 386 340.5 L 386.5 338 Z " /><path fill="rgb(202,226,249)" stroke="rgb(202,226,249)" stroke-width="1" opacity="0.9921568627450981" d="M 64.5 340 L 65 342.5 L 64 342.5 L 64.5 340 Z " /><path fill="rgb(202,226,249)" stroke="rgb(202,226,249)" stroke-width="1" opacity="0.9921568627450981" d="M 447.5 340 L 448 343.5 L 445.5 350 L 445 347.5 L 447.5 340 Z " /><path fill="rgb(202,226,249)" stroke="rgb(202,226,249)" stroke-width="1" opacity="0.9921568627450981" d="M 385.5 342 L 386 344.5 L 385 344.5 L 385.5 342 Z " /><path fill="rgb(202,226,249)" stroke="rgb(202,226,249)" stroke-width="1" opacity="0.9921568627450981" d="M 65.5 344 L 69 355.5 L 68 355.5 Q 63.767 350.858 65.5 344 Z " /><path fill="rgb(202,226,249)" stroke="rgb(202,226,249)" stroke-width="1" opacity="0.9921568627450981" d="M 127.5 346 L 129 351.5 L 128 351.5 L 127.5 346 Z " /><path fill="rgb(202,226,249)" stroke="rgb(202,226,249)" stroke-width="1" opacity="0.9921568627450981" d="M 384.5 346 L 385 348.5 L 383.5 352 L 383 349.5 L 384.5 346 Z " /><path fill="rgb(202,226,249)" stroke="rgb(202,226,249)" stroke-width="1" opacity="0.9921568627450981" d="M 129.5 353 L 132 361.5 L 131 361.5 L 129.5 353 Z " /><path fill="rgb(202,226,249)" stroke="rgb(202,226,249)" stroke-width="1" opacity="0.9921568627450981" d="M 382.5 353 L 383 356 L 381 355.5 L 382.5 353 Z " /><path fill="rgb(202,226,249)" stroke="rgb(202,226,249)" stroke-width="1" opacity="0.9921568627450981" d="M 381.5 357 L 382 358.5 L 380.5 362 L 380 359.5 L 381.5 357 Z " /><path fill="rgb(202,226,249)" stroke="rgb(202,226,249)" stroke-width="1" opacity="0.9921568627450981" d="M 70.5 360 L 75 371.5 L 73 370.5 Q 68.674 365.992 70.5 360 Z " /><path fill="rgb(202,226,249)" stroke="rgb(202,226,249)" stroke-width="1" opacity="0.9921568627450981" d="M 132.5 363 L 135 369.5 L 134 369.5 L 132.5 363 Z " /><path fill="rgb(202,226,249)" stroke="rgb(202,226,249)" stroke-width="1" opacity="0.9921568627450981" d="M 379.5 363 L 379 364.5 L 378.5 367 L 378 364.5 L 379.5 363 Z " /><path fill="rgb(202,226,249)" stroke="rgb(202,226,249)" stroke-width="1" opacity="0.9921568627450981" d="M 440.5 363 L 441 365.5 L 437.5 372 L 437 370.5 L 440.5 363 Z " /><path fill="rgb(202,226,249)" stroke="rgb(202,226,249)" stroke-width="1" opacity="0.9921568627450981" d="M 135.5 371 L 138 376.5 L 137 376.5 L 135.5 371 Z " /><path fill="rgb(202,226,249)" stroke="rgb(202,226,249)" stroke-width="1" opacity="0.9921568627450981" d="M 375.5 373 L 376 374.5 L 373.5 379 L 373 377.5 L 375.5 373 Z " /><path fill="rgb(202,226,249)" stroke="rgb(202,226,249)" stroke-width="1" opacity="0.9921568627450981" d="M 77.5 377 L 84 389.5 L 82 388.5 L 77 378.5 L 77.5 377 Z " /><path fill="rgb(202,226,249)" stroke="rgb(202,226,249)" stroke-width="1" opacity="0.9921568627450981" d="M 434.5 377 L 435 378.5 L 429.5 388 L 430 386.5 L 434.5 377 Z " /><path fill="rgb(202,226,249)" stroke="rgb(202,226,249)" stroke-width="1" opacity="0.9921568627450981" d="M 138.5 378 L 141 382.5 L 139 381.5 L 138.5 378 Z " /><path fill="rgb(202,226,249)" stroke="rgb(202,226,249)" stroke-width="1" opacity="0.9921568627450981" d="M 372.5 380 L 373 381.5 L 371 382.5 L 372.5 380 Z " /><path fill="rgb(202,226,249)" stroke="rgb(202,226,249)" stroke-width="1" opacity="0.9921568627450981" d="M 141.5 384 L 147 394.5 L 145 393.5 Q 139.167 389.333 141.5 384 Z " /><path fill="rgb(202,226,249)" stroke="rgb(202,226,249)" stroke-width="1" opacity="0.9921568627450981" d="M 370.5 384 L 371 385.5 L 366.5 393 L 366 391.5 L 370.5 384 Z " /><path fill="rgb(202,226,249)" stroke="rgb(202,226,249)" stroke-width="1" opacity="0.9921568627450981" d="M 428.5 389 L 429 390.5 Q 423.008 404.508 412.5 414 L 415 410.5 L 428.5 389 Z " /><path fill="rgb(202,226,249)" stroke="rgb(202,226,249)" stroke-width="1" opacity="0.9921568627450981" d="M 84.5 391 Q 98.13 415.37 117.5 434 L 120 435.5 L 118.5 436 L 112 428 Q 108.783 428.6 108.5 426 L 104 419 Q 101.333 420.125 102 417.5 Q 89.232 406.018 84.5 391 Z " /><path fill="rgb(202,226,249)" stroke="rgb(202,226,249)" stroke-width="1" opacity="0.9921568627450981" d="M 365.5 394 L 365 395.5 L 359.5 405 L 359 403.5 L 365.5 394 Z " /><path fill="rgb(202,226,249)" stroke="rgb(202,226,249)" stroke-width="1" opacity="0.9921568627450981" d="M 147.5 396 L 153 404.5 L 151 403.5 L 147.5 396 Z " /><path fill="rgb(202,226,249)" stroke="rgb(202,226,249)" stroke-width="1" opacity="0.9921568627450981" d="M 153.5 406 Q 155.75 405.25 155 407.5 L 153.5 406 Z " /><path fill="rgb(202,226,249)" stroke="rgb(202,226,249)" stroke-width="1" opacity="0.9921568627450981" d="M 358.5 406 L 358 407.5 L 350.5 418 L 352 415.5 L 358.5 406 Z " /><path fill="rgb(202,226,249)" stroke="rgb(202,226,249)" stroke-width="1" opacity="0.9921568627450981" d="M 155.5 409 Q 157.75 408.25 157 410.5 L 155.5 409 Z " /><path fill="rgb(202,226,249)" stroke="rgb(202,226,249)" stroke-width="1" opacity="0.9921568627450981" d="M 157.5 412 L 162 417.5 L 159 415.5 L 157.5 412 Z " /><path fill="rgb(202,226,249)" stroke="rgb(202,226,249)" stroke-width="1" opacity="0.9921568627450981" d="M 411.5 415 L 409 418.5 L 401.5 428 L 400 427.5 L 411.5 415 Z " /><path fill="rgb(202,226,249)" stroke="rgb(202,226,249)" stroke-width="1" opacity="0.9921568627450981" d="M 162.5 419 L 172.5 431 L 175 432.5 L 184 442.5 L 169 428.5 L 162.5 419 Z " /><path fill="rgb(202,226,249)" stroke="rgb(202,226,249)" stroke-width="1" opacity="0.9921568627450981" d="M 349.5 419 L 347 422.5 L 327.5 445 L 328 443.5 L 349.5 419 Z " /><path fill="rgb(202,226,249)" stroke="rgb(202,226,249)" stroke-width="1" opacity="0.9921568627450981" d="M 398 429 L 400 429.5 L 391 437.5 L 392.5 435 L 398 430.5 L 398 429 Z " /><path fill="rgb(202,226,249)" stroke="rgb(202,226,249)" stroke-width="1" opacity="0.9921568627450981" d="M 121.5 437 L 137 450.5 L 135.5 450 L 125 443 Q 125.6 439.783 123 439.5 L 121.5 437 Z " /><path fill="rgb(202,226,249)" stroke="rgb(202,226,249)" stroke-width="1" opacity="0.9921568627450981" d="M 389.5 438 L 389 439.5 Q 389.437 443.75 385.5 443 L 375.5 451 L 377.5 448 L 389.5 438 Z " /><path fill="rgb(202,226,249)" stroke="rgb(202,226,249)" stroke-width="1" opacity="0.9921568627450981" d="M 326.5 447 L 327 449.5 L 326 449.5 L 326.5 447 Z " /><path fill="rgb(202,226,249)" stroke="rgb(202,226,249)" stroke-width="1" opacity="0.9921568627450981" d="M 138.5 451 L 148 455.5 L 145.5 456 Q 139.292 454.583 138.5 451 Z " /><path fill="rgb(202,226,249)" stroke="rgb(202,226,249)" stroke-width="1" opacity="0.9921568627450981" d="M 184.5 452 L 181.5 456 L 184.5 452 Z " /><path fill="rgb(202,226,249)" stroke="rgb(202,226,249)" stroke-width="1" opacity="0.9921568627450981" d="M 327.5 452 L 330.5 456 L 327.5 452 Z " /><path fill="rgb(202,226,249)" stroke="rgb(202,226,249)" stroke-width="1" opacity="0.9921568627450981" d="M 371.5 452 L 370.5 454 L 364.5 456 L 364.5 455 L 371.5 452 Z " /><path fill="rgb(202,226,249)" stroke="rgb(202,226,249)" stroke-width="1" opacity="0.9921568627450981" d="M 149.5 456 L 157 457.5 L 152.5 458 Q 148.75 457.75 149.5 456 Z " /><path fill="rgb(202,226,249)" stroke="rgb(202,226,249)" stroke-width="1" opacity="0.9921568627450981" d="M 360.5 456 L 363 456.5 L 355.5 458 L 355.5 457 L 360.5 456 Z " /><path fill="rgb(202,226,249)" stroke="rgb(202,226,249)" stroke-width="1" opacity="0.9921568627450981" d="M 173.5 457 L 176 457.5 L 173.5 458 L 173.5 457 Z " /><path fill="rgb(202,226,249)" stroke="rgb(202,226,249)" stroke-width="1" opacity="0.9921568627450981" d="M 336.5 457 L 339 457.5 L 336.5 458 L 336.5 457 Z " /><path fill="rgb(202,226,249)" stroke="rgb(202,226,249)" stroke-width="1" opacity="0.9921568627450981" d="M 159.5 458 L 172 458.5 L 159.5 459 L 159.5 458 Z " /><path fill="rgb(202,226,249)" stroke="rgb(202,226,249)" stroke-width="1" opacity="0.9921568627450981" d="M 341.5 458 L 353 458.5 L 341.5 459 L 341.5 458 Z " /><path fill="rgb(181,213,245)" stroke="rgb(181,213,245)" stroke-width="1" opacity="0.9686274509803922" d="M 263.5 0 Q 347.672 6.828 389 56.5 L 391 59.5 Q 437.133 102.867 439 190.5 L 438 191.5 Q 439.179 201.679 436.5 208 Q 420.259 170.741 391.5 146 Q 340.757 95.743 237.5 98 Q 184.143 103.643 147.5 126 L 149 123.5 Q 161.169 103.669 178.5 89 Q 196.968 72.468 220.5 61 Q 241.35 50.85 267.5 46 L 278 37.5 Q 281.575 32.075 282 23.5 Q 280.485 9.015 270.5 3 L 263.5 1 L 263.5 0 Z " /><path fill="rgb(181,213,245)" stroke="rgb(181,213,245)" stroke-width="1" opacity="0.9686274509803922" d="M 152.5 31 L 151.5 33 L 152.5 31 Z " /><path fill="rgb(181,213,245)" stroke="rgb(181,213,245)" stroke-width="1" opacity="0.9686274509803922" d="M 148.5 34 L 147.5 36 L 148.5 34 Z " /><path fill="rgb(181,213,245)" stroke="rgb(181,213,245)" stroke-width="1" opacity="0.9686274509803922" d="M 129.5 50 L 127.5 53 L 129.5 50 Z " /><path fill="rgb(181,213,245)" stroke="rgb(181,213,245)" stroke-width="1" opacity="0.9686274509803922" d="M 102.5 83 L 101.5 85 L 102.5 83 Z " /><path fill="rgb(181,213,245)" stroke="rgb(181,213,245)" stroke-width="1" opacity="0.9686274509803922" d="M 99.5 88 L 98.5 90 L 99.5 88 Z " /><path fill="rgb(181,213,245)" stroke="rgb(181,213,245)" stroke-width="1" opacity="0.9686274509803922" d="M 74.5 161 L 75 163.5 L 74 163.5 L 74.5 161 Z " /><path fill="rgb(181,213,245)" stroke="rgb(181,213,245)" stroke-width="1" opacity="0.9686274509803922" d="M 73.5 184 L 74 186.5 L 73 186.5 L 73.5 184 Z " /><path fill="rgb(181,213,245)" stroke="rgb(181,213,245)" stroke-width="1" opacity="0.9686274509803922" d="M 176.5 200 L 175.5 202 L 176.5 200 Z " /><path fill="rgb(181,213,245)" stroke="rgb(181,213,245)" stroke-width="1" opacity="0.9686274509803922" d="M 173.5 202 L 172.5 204 L 173.5 202 Z " /><path fill="rgb(181,213,245)" stroke="rgb(181,213,245)" stroke-width="1" opacity="0.9686274509803922" d="M 169.5 205 L 168.5 207 L 169.5 205 Z " /><path fill="rgb(181,213,245)" stroke="rgb(181,213,245)" stroke-width="1" opacity="0.9686274509803922" d="M 165.5 208 L 163.5 211 L 165.5 208 Z " /><path fill="rgb(181,213,245)" stroke="rgb(181,213,245)" stroke-width="1" opacity="0.9686274509803922" d="M 346.5 208 L 347.5 210 L 346.5 208 Z " /><path fill="rgb(181,213,245)" stroke="rgb(181,213,245)" stroke-width="1" opacity="0.9686274509803922" d="M 151.5 222 L 148.5 226 L 151.5 222 Z " /><path fill="rgb(181,213,245)" stroke="rgb(181,213,245)" stroke-width="1" opacity="0.9686274509803922" d="M 141.5 235 L 140.5 237 L 141.5 235 Z " /><path fill="rgb(181,213,245)" stroke="rgb(181,213,245)" stroke-width="1" opacity="0.9686274509803922" d="M 453.5 282 L 454 284.5 L 453 284.5 L 453.5 282 Z " /><path fill="rgb(181,213,245)" stroke="rgb(181,213,245)" stroke-width="1" opacity="0.9686274509803922" d="M 389.5 288 L 390 290.5 L 389 290.5 L 389.5 288 Z " /><path fill="rgb(181,213,245)" stroke="rgb(181,213,245)" stroke-width="1" opacity="0.9686274509803922" d="M 122.5 289 L 123 291.5 L 122 291.5 L 122.5 289 Z " /><path fill="rgb(181,213,245)" stroke="rgb(181,213,245)" stroke-width="1" opacity="0.9686274509803922" d="M 389.5 315 L 390 317.5 L 389 317.5 L 389.5 315 Z " /><path fill="rgb(181,213,245)" stroke="rgb(181,213,245)" stroke-width="1" opacity="0.9686274509803922" d="M 358.5 405 L 357.5 407 L 358.5 405 Z " /><path fill="rgb(181,213,245)" stroke="rgb(181,213,245)" stroke-width="1" opacity="0.9686274509803922" d="M 157.5 411 L 158.5 413 L 157.5 411 Z " /><path fill="rgb(181,213,245)" stroke="rgb(181,213,245)" stroke-width="1" opacity="0.9686274509803922" d="M 413.5 413 L 412.5 415 L 413.5 413 Z " /><path fill="rgb(181,213,245)" stroke="rgb(181,213,245)" stroke-width="1" opacity="0.9686274509803922" d="M 410.5 417 L 409.5 419 L 410.5 417 Z " /><path fill="rgb(181,213,245)" stroke="rgb(181,213,245)" stroke-width="1" opacity="0.9686274509803922" d="M 162.5 418 L 163.5 420 L 162.5 418 Z " /><path fill="rgb(181,213,245)" stroke="rgb(181,213,245)" stroke-width="1" opacity="0.9686274509803922" d="M 349.5 418 L 348.5 420 L 349.5 418 Z " /><path fill="rgb(181,213,245)" stroke="rgb(181,213,245)" stroke-width="1" opacity="0.9686274509803922" d="M 341.5 428 L 337.5 433 L 341.5 428 Z " /><path fill="rgb(181,213,245)" stroke="rgb(181,213,245)" stroke-width="1" opacity="0.9686274509803922" d="M 171.5 429 L 172.5 431 L 171.5 429 Z " /><path fill="rgb(181,213,245)" stroke="rgb(181,213,245)" stroke-width="1" opacity="0.9686274509803922" d="M 119.5 436 L 122.5 440 L 119.5 436 Z " /><path fill="rgb(181,213,245)" stroke="rgb(181,213,245)" stroke-width="1" opacity="0.9686274509803922" d="M 390.5 438 L 389.5 440 L 390.5 438 Z " /><path fill="rgb(181,213,245)" stroke="rgb(181,213,245)" stroke-width="1" opacity="0.9686274509803922" d="M 184.5 443 Q 214.402 465.598 258.5 474 Q 299.117 464.617 327.5 443 L 327 444.5 L 326 449.5 L 330.5 456 L 338 458.5 Q 308.817 479.817 269 490.5 Q 273.506 495.494 283.5 495 L 287 498.5 L 288 505.5 L 284.5 511 Q 280 514 270.5 512 L 255.5 504 Q 248.682 514.182 229.5 512 L 226 509.5 Q 223.333 507.167 224 501.5 L 228.5 495 Q 238.019 495.019 243 490.5 Q 203.257 479.743 174 458.5 Q 181.625 457.625 185 452.5 L 186 447.5 L 184.5 443 Z " /><path fill="rgb(203,227,250)" stroke="rgb(203,227,250)" stroke-width="1" opacity="1" d="M 256.5 0 Q 270.163 0.337 276 8.5 Q 282.153 14.847 281 28.5 L 275 41 L 266.5 46 Q 242.6 50.1 223.5 59 Q 196.386 71.531 176 90 Q 177.125 92.667 174.5 92 L 165.5 102 Q 163.25 101.25 164 103.5 Q 153.438 113.438 146 126.5 L 146.5 128 L 145 127.5 Q 145.75 129.75 143.5 129 Q 121.831 142.831 105 161.5 Q 87.47 180.47 76.5 206 L 75 203.5 L 74 173.5 L 75 172.5 Q 74.143 158.643 77 148.5 L 76.5 147 Q 79.5 147.875 78 143.5 Q 86.098 108.098 104 82.5 L 103.5 81 Q 104.75 83.25 106 80.5 Q 116.702 62.702 132 49.5 L 131.5 48 Q 134 51.5 136.5 45 L 145 38.5 L 144.5 37 Q 146 39.5 147.5 36 Q 187.108 3.108 256.5 0 Z " /><path fill="rgb(203,227,250)" stroke="rgb(203,227,250)" stroke-width="1" opacity="1" d="M 244.5 98 L 265.5 98 L 266.5 99 L 268.5 99 Q 345.704 105.04 389 144 Q 387.875 146.667 390.5 146 L 408 163.5 L 408 165 Q 410.667 163.875 410 166.5 Q 427.673 185.327 437.5 212 L 439 211.5 L 438 213.5 Q 455.194 250.306 453 306.5 Q 444.912 381.412 404 423.5 L 404.5 425 Q 402.25 421.75 400 427.5 L 398 430.5 L 391 436.5 Q 391.75 438.75 389.5 438 Q 375.393 458.893 339.5 458 Q 330.4 457.6 327 451.5 L 327 445.5 Q 358.084 416.584 376 374.5 Q 391.89 342.39 391 293.5 Q 383.67 235.33 346.5 207 Q 313.439 178.061 252.5 177 Q 234.323 177.513 220 181 L 219.5 183 L 216.5 182 Q 172.595 193.595 148 224.5 Q 119.73 254.73 121 314.5 Q 127.145 368.355 151.5 404 L 153 403.5 L 153 405.5 Q 165.404 427.596 184 443.5 L 185 451.5 Q 178.269 461.769 157.5 458 Q 142 455.5 132.5 447 L 131 447.5 Q 133.75 445.75 129.5 444 L 125.5 441 L 124 441.5 Q 127.25 439.25 121.5 437 Q 119.25 437.75 120 435.5 L 114 430.5 Q 77.385 394.115 63 335.5 L 65 336.5 L 66.5 339 Q 70.313 343.688 80.5 342 L 88 337.5 L 91 331.5 Q 90.017 306.517 94 286.5 Q 98 263.5 106 244.5 Q 122.421 205.921 151.5 180 Q 168.342 170.342 181 156.5 Q 185.833 151.333 184 139.5 Q 181.75 131.75 176.5 127 Q 170.936 120.564 158 121.5 Q 193.007 101.507 244.5 98 Z " /><path fill="rgb(203,227,250)" stroke="rgb(203,227,250)" stroke-width="1" opacity="1" d="M 60.5 259 L 61 261.5 L 60 261.5 L 60.5 259 Z " /><path fill="rgb(203,227,250)" stroke="rgb(203,227,250)" stroke-width="1" opacity="1" d="M 59.5 268 L 60 271.5 L 59 271.5 L 59.5 268 Z " /><path fill="rgb(203,227,250)" stroke="rgb(203,227,250)" stroke-width="1" opacity="1" d="M 58.5 282 L 59 290.5 L 58 290.5 L 58.5 282 Z " /><path fill="rgb(203,227,250)" stroke="rgb(203,227,250)" stroke-width="1" opacity="1" d="M 58.5 292 L 59 301.5 L 58 301.5 L 58.5 292 Z " /><path fill="rgb(203,227,250)" stroke="rgb(203,227,250)" stroke-width="1" opacity="1" d="M 59.5 312 L 60 315.5 L 59 315.5 L 59.5 312 Z " /><path fill="rgb(203,227,250)" stroke="rgb(203,227,250)" stroke-width="1" opacity="1" d="M 60.5 320 L 61 322.5 L 60 322.5 L 60.5 320 Z " /><path fill="rgb(0,0,0)" stroke="rgb(0,0,0)" stroke-width="1" opacity="0" d="M 0 0 L 237 0.5 Q 160.275 11.775 120 59.5 Q 75.06 103.56 73 190.5 L 74 191.5 L 75 208.5 Q 55.776 246.776 58 306.5 Q 68.646 397.854 125.5 443 Q 139.741 460.259 172.5 459 L 174.5 459 Q 203.698 479.802 243 490.5 Q 238.019 495.019 228.5 495 L 225 498.5 L 224 505.5 L 227.5 511 L 229 511.5 L 0 512 L 0 0 Z " /><path fill="rgb(0,0,0)" stroke="rgb(0,0,0)" stroke-width="1" opacity="0" d="M 275.5 0 L 512 0 L 512 512 L 283 511.5 L 287 508.5 L 288 500.5 L 283.5 495 Q 273.981 495.019 269 490.5 Q 309.25 479.75 338.5 458 L 339.5 459 L 354.5 459 Q 389.637 450.637 406 423.5 Q 453.523 375.023 454 279.5 Q 450.56 236.44 437 203.5 Q 440.133 190.633 439 173.5 Q 430.257 88.243 378.5 46 Q 339.964 8.882 275.5 0 Z " /><path fill="rgb(0,0,0)" stroke="rgb(0,0,0)" stroke-width="1" opacity="0" d="M 250.5 178 Q 325.663 179.337 360 221.5 Q 391.588 251.412 390 314.5 Q 378.314 399.314 326.5 444 Q 296.88 465.88 253.5 474 Q 204.293 463.707 175 433.5 Q 125.211 386.289 122 292.5 Q 128.464 238.964 161.5 212 Q 192.936 181.936 250.5 178 Z " /><path fill="rgb(0,0,0)" stroke="rgb(0,0,0)" stroke-width="1" opacity="0" d="M 255.5 504 L 270 511.5 L 242.5 512 L 242.5 511 Q 250.717 509.217 255.5 504 Z " /></svg>