<svg width="512" height="512" version="1.1" xmlns="http://www.w3.org/2000/svg" desc="Created with imagetracer.js version 1.2.6" ><path fill="rgb(102,102,162)" stroke="rgb(102,102,162)" stroke-width="1" opacity="0.996078431372549" d="M 140.5 55 Q 153.145 54.355 160 59.5 L 149 69.5 Q 130.567 91.567 119 120.5 L 105 164.5 Q 101.019 195.519 92 221.5 Q 87.141 235.641 76.5 244 Q 73.167 247.167 65.5 246 L 57 238.5 Q 46.75 221.75 50 191.5 Q 64.203 113.203 111.5 68 Q 122.373 57.873 140.5 55 Z " /><path fill="rgb(102,102,162)" stroke="rgb(102,102,162)" stroke-width="1" opacity="0.996078431372549" d="M 382.5 181 L 387 181.5 L 382.5 182 L 382.5 181 Z " /><path fill="rgb(102,102,162)" stroke="rgb(102,102,162)" stroke-width="1" opacity="0.996078431372549" d="M 396.5 181 L 401 181.5 L 396.5 182 L 396.5 181 Z " /><path fill="rgb(102,102,162)" stroke="rgb(102,102,162)" stroke-width="1" opacity="0.996078431372549" d="M 375.5 182 L 379 182.5 L 375.5 183 L 375.5 182 Z " /><path fill="rgb(102,102,162)" stroke="rgb(102,102,162)" stroke-width="1" opacity="0.996078431372549" d="M 367.5 183 L 371 183.5 L 367.5 184 L 367.5 183 Z " /><path fill="rgb(102,102,162)" stroke="rgb(102,102,162)" stroke-width="1" opacity="0.996078431372549" d="M 359.5 184 L 363 184.5 L 359.5 185 L 359.5 184 Z " /><path fill="rgb(102,102,162)" stroke="rgb(102,102,162)" stroke-width="1" opacity="0.996078431372549" d="M 432.5 192 L 433.5 194 L 432.5 192 Z " /><path fill="rgb(102,102,162)" stroke="rgb(102,102,162)" stroke-width="1" opacity="0.996078431372549" d="M 438.5 196 L 439.5 198 L 438.5 196 Z " /><path fill="rgb(102,102,162)" stroke="rgb(102,102,162)" stroke-width="1" opacity="0.996078431372549" d="M 441.5 198 L 443.5 201 L 441.5 198 Z " /><path fill="rgb(102,102,162)" stroke="rgb(102,102,162)" stroke-width="1" opacity="0.996078431372549" d="M 446.5 202 L 450.5 207 L 446.5 202 Z " /><path fill="rgb(102,102,162)" stroke="rgb(102,102,162)" stroke-width="1" opacity="0.996078431372549" d="M 457.5 213 L 460.5 217 L 457.5 213 Z " /><path fill="rgb(102,102,162)" stroke="rgb(102,102,162)" stroke-width="1" opacity="0.996078431372549" d="M 463.5 220 L 464.5 222 L 463.5 220 Z " /><path fill="rgb(102,102,162)" stroke="rgb(102,102,162)" stroke-width="1" opacity="0.996078431372549" d="M 466.5 224 L 467.5 226 L 466.5 224 Z " /><path fill="rgb(102,102,162)" stroke="rgb(102,102,162)" stroke-width="1" opacity="0.996078431372549" d="M 468.5 227 L 469.5 229 L 468.5 227 Z " /><path fill="rgb(102,102,162)" stroke="rgb(102,102,162)" stroke-width="1" opacity="0.996078431372549" d="M 470.5 230 L 471.5 232 L 470.5 230 Z " /><path fill="rgb(102,102,162)" stroke="rgb(102,102,162)" stroke-width="1" opacity="0.996078431372549" d="M 131.5 247 L 132 258.5 L 131 258.5 L 131.5 247 Z " /><path fill="rgb(102,102,162)" stroke="rgb(102,102,162)" stroke-width="1" opacity="0.996078431372549" d="M 346.5 264 L 349 264.5 L 346.5 265 L 346.5 264 Z " /><path fill="rgb(102,102,162)" stroke="rgb(102,102,162)" stroke-width="1" opacity="0.996078431372549" d="M 132.5 266 L 133 274.5 L 132 274.5 L 132.5 266 Z " /><path fill="rgb(102,102,162)" stroke="rgb(102,102,162)" stroke-width="1" opacity="0.996078431372549" d="M 328.5 266 Q 331.125 265.167 330 268.5 Q 324.667 286.167 327 311.5 L 328 312.5 L 328 331.5 Q 326.335 349.835 316.5 360 Q 302.857 341.643 304 308.5 Q 303.252 282.252 318.5 272 L 328.5 266 Z " /><path fill="rgb(102,102,162)" stroke="rgb(102,102,162)" stroke-width="1" opacity="0.996078431372549" d="M 359.5 268 L 360.5 270 L 359.5 268 Z " /><path fill="rgb(102,102,162)" stroke="rgb(102,102,162)" stroke-width="1" opacity="0.996078431372549" d="M 362.5 270 L 363.5 272 L 362.5 270 Z " /><path fill="rgb(102,102,162)" stroke="rgb(102,102,162)" stroke-width="1" opacity="0.996078431372549" d="M 365.5 272 L 372.5 280 L 365.5 272 Z " /><path fill="rgb(102,102,162)" stroke="rgb(102,102,162)" stroke-width="1" opacity="0.996078431372549" d="M 133.5 279 L 134 285.5 L 133 285.5 L 133.5 279 Z " /><path fill="rgb(102,102,162)" stroke="rgb(102,102,162)" stroke-width="1" opacity="0.996078431372549" d="M 491.5 281 L 492 283.5 L 491 283.5 L 491.5 281 Z " /><path fill="rgb(102,102,162)" stroke="rgb(102,102,162)" stroke-width="1" opacity="0.996078431372549" d="M 374.5 282 L 375.5 284 L 374.5 282 Z " /><path fill="rgb(102,102,162)" stroke="rgb(102,102,162)" stroke-width="1" opacity="0.996078431372549" d="M 492.5 286 L 493 288.5 L 492 288.5 L 492.5 286 Z " /><path fill="rgb(102,102,162)" stroke="rgb(102,102,162)" stroke-width="1" opacity="0.996078431372549" d="M 134.5 290 L 135 295.5 L 134 295.5 L 134.5 290 Z " /><path fill="rgb(102,102,162)" stroke="rgb(102,102,162)" stroke-width="1" opacity="0.996078431372549" d="M 493.5 293 L 494 295.5 L 493 295.5 L 493.5 293 Z " /><path fill="rgb(102,102,162)" stroke="rgb(102,102,162)" stroke-width="1" opacity="0.996078431372549" d="M 135.5 299 L 136 303.5 L 135 303.5 L 135.5 299 Z " /><path fill="rgb(102,102,162)" stroke="rgb(102,102,162)" stroke-width="1" opacity="0.996078431372549" d="M 494.5 302 L 495 309.5 L 494 309.5 L 494.5 302 Z " /><path fill="rgb(102,102,162)" stroke="rgb(102,102,162)" stroke-width="1" opacity="0.996078431372549" d="M 136.5 307 L 137 311.5 L 136 311.5 L 136.5 307 Z " /><path fill="rgb(102,102,162)" stroke="rgb(102,102,162)" stroke-width="1" opacity="0.996078431372549" d="M 385.5 309 L 386 311.5 L 385 311.5 L 385.5 309 Z " /><path fill="rgb(102,102,162)" stroke="rgb(102,102,162)" stroke-width="1" opacity="0.996078431372549" d="M 386.5 318 L 387 328.5 L 386 328.5 L 386.5 318 Z " /><path fill="rgb(102,102,162)" stroke="rgb(102,102,162)" stroke-width="1" opacity="0.996078431372549" d="M 494.5 318 L 495 326.5 L 494 326.5 L 494.5 318 Z " /><path fill="rgb(102,102,162)" stroke="rgb(102,102,162)" stroke-width="1" opacity="0.996078431372549" d="M 33.5 324 L 42.5 327 L 72 354.5 Q 90.5 373 91 409.5 Q 88.367 434.367 74.5 448 Q 70.5 452 62.5 452 Q 44.972 448.028 37 434.5 Q 18.18 410.82 16 370.5 Q 15.611 341.611 28.5 326 L 33.5 324 Z " /><path fill="rgb(102,102,162)" stroke="rgb(102,102,162)" stroke-width="1" opacity="0.996078431372549" d="M 493.5 332 L 494 335.5 L 493 335.5 L 493.5 332 Z " /><path fill="rgb(102,102,162)" stroke="rgb(102,102,162)" stroke-width="1" opacity="0.996078431372549" d="M 385.5 335 L 386 337.5 L 385 337.5 L 385.5 335 Z " /><path fill="rgb(102,102,162)" stroke="rgb(102,102,162)" stroke-width="1" opacity="0.996078431372549" d="M 492.5 339 L 493 341.5 L 492 341.5 L 492.5 339 Z " /><path fill="rgb(102,102,162)" stroke="rgb(102,102,162)" stroke-width="1" opacity="0.996078431372549" d="M 154.5 361 L 155 363.5 L 154 363.5 L 154.5 361 Z " /><path fill="rgb(102,102,162)" stroke="rgb(102,102,162)" stroke-width="1" opacity="0.996078431372549" d="M 318.5 362 L 326.5 371 L 318.5 362 Z " /><path fill="rgb(102,102,162)" stroke="rgb(102,102,162)" stroke-width="1" opacity="0.996078431372549" d="M 374.5 364 L 367.5 372 L 374.5 364 Z " /><path fill="rgb(102,102,162)" stroke="rgb(102,102,162)" stroke-width="1" opacity="0.996078431372549" d="M 155.5 367 L 156 369.5 L 155 369.5 L 155.5 367 Z " /><path fill="rgb(102,102,162)" stroke="rgb(102,102,162)" stroke-width="1" opacity="0.996078431372549" d="M 328.5 371 L 329.5 373 L 328.5 371 Z " /><path fill="rgb(102,102,162)" stroke="rgb(102,102,162)" stroke-width="1" opacity="0.996078431372549" d="M 365.5 372 L 364.5 374 L 365.5 372 Z " /><path fill="rgb(102,102,162)" stroke="rgb(102,102,162)" stroke-width="1" opacity="0.996078431372549" d="M 156.5 374 L 157 377.5 L 156 377.5 L 156.5 374 Z " /><path fill="rgb(102,102,162)" stroke="rgb(102,102,162)" stroke-width="1" opacity="0.996078431372549" d="M 341.5 377 L 345 377.5 L 341.5 378 L 341.5 377 Z " /><path fill="rgb(102,102,162)" stroke="rgb(102,102,162)" stroke-width="1" opacity="0.996078431372549" d="M 351.5 377 L 354 377.5 L 351.5 378 L 351.5 377 Z " /><path fill="rgb(102,102,162)" stroke="rgb(102,102,162)" stroke-width="1" opacity="0.996078431372549" d="M 157.5 385 L 158 399.5 L 157 399.5 L 157.5 385 Z " /><path fill="rgb(102,102,162)" stroke="rgb(102,102,162)" stroke-width="1" opacity="0.996078431372549" d="M 156.5 407 L 157 411.5 L 156 411.5 L 156.5 407 Z " /><path fill="rgb(102,102,162)" stroke="rgb(102,102,162)" stroke-width="1" opacity="0.996078431372549" d="M 155.5 415 L 156 417.5 L 155 417.5 L 155.5 415 Z " /><path fill="rgb(102,102,162)" stroke="rgb(102,102,162)" stroke-width="1" opacity="0.996078431372549" d="M 153.5 425 L 154 427.5 L 153 427.5 L 153.5 425 Z " /><path fill="rgb(102,102,162)" stroke="rgb(102,102,162)" stroke-width="1" opacity="0.996078431372549" d="M 137.5 462 L 136.5 464 L 137.5 462 Z " /><path fill="rgb(102,102,162)" stroke="rgb(102,102,162)" stroke-width="1" opacity="0.996078431372549" d="M 134.5 466 L 131.5 470 L 134.5 466 Z " /><path fill="rgb(102,102,162)" stroke="rgb(102,102,162)" stroke-width="1" opacity="0.996078431372549" d="M 127.5 473 L 124.5 477 L 127.5 473 Z " /><path fill="rgb(102,102,162)" stroke="rgb(102,102,162)" stroke-width="1" opacity="0.996078431372549" d="M 50.5 475 L 51.5 477 L 50.5 475 Z " /><path fill="rgb(102,102,162)" stroke="rgb(102,102,162)" stroke-width="1" opacity="0.996078431372549" d="M 53.5 477 L 54.5 479 L 53.5 477 Z " /><path fill="rgb(102,102,162)" stroke="rgb(102,102,162)" stroke-width="1" opacity="0.996078431372549" d="M 121.5 478 L 120.5 480 L 121.5 478 Z " /><path fill="rgb(102,102,162)" stroke="rgb(102,102,162)" stroke-width="1" opacity="0.996078431372549" d="M 58.5 480 L 59.5 482 L 58.5 480 Z " /><path fill="rgb(102,102,162)" stroke="rgb(102,102,162)" stroke-width="1" opacity="0.996078431372549" d="M 118.5 480 L 117.5 482 L 118.5 480 Z " /><path fill="rgb(102,102,162)" stroke="rgb(102,102,162)" stroke-width="1" opacity="0.996078431372549" d="M 79.5 488 L 82 488.5 L 79.5 489 L 79.5 488 Z " /><path fill="rgb(102,102,162)" stroke="rgb(102,102,162)" stroke-width="1" opacity="0.996078431372549" d="M 96.5 488 L 99 488.5 L 96.5 489 L 96.5 488 Z " /><path fill="rgb(0,0,0)" stroke="rgb(0,0,0)" stroke-width="1" opacity="0" d="M 0 0 L 512 0 L 512 282.5 L 511 282.5 Q 507.608 238.892 481.5 218 Q 473.378 210.416 462 207 Q 443.463 109.237 381.5 54 Q 330.99 4.51 227.5 8 Q 140.922 15.661 95 63 Q 96.125 65.667 93.5 65 Q 56.525 102.025 40 159.5 Q 24.747 210.747 29 281.5 Q 5.25 303.75 0.5 345 L 0 0 Z " /><path fill="rgb(0,0,0)" stroke="rgb(0,0,0)" stroke-width="1" opacity="0" d="M 254.5 45 Q 277.348 42.652 289.5 51 Q 315.729 62.271 333 82.5 Q 358.214 109.286 358 161.5 Q 358.701 177.139 355 185 Q 302.723 184.477 279 213.5 Q 247.471 245.971 251 313.5 Q 258.717 371.783 292.5 404 Q 313.698 431.302 362.5 431 L 363.5 430 L 418.5 424 L 435.5 420 Q 456.924 411.424 470 394.5 Q 479.791 383.291 485 367.5 Q 496 358.5 503 345.5 Q 509.672 333.172 511.5 316 L 512 512 L 0.5 512 L 0 511.5 L 0 380.5 L 1 380.5 Q 7.947 440.053 43.5 471 Q 66.572 501.928 118.5 504 Q 142.7 497.2 172.5 496 L 186.5 492 Q 206.25 483.75 219 468.5 Q 250.774 434.774 247 365.5 Q 237.916 299.084 196.5 265 Q 175.549 242.603 132 244 Q 127.281 131.491 180.5 76 Q 206.518 49.518 254.5 45 Z " /><path fill="rgb(64,64,119)" stroke="rgb(64,64,119)" stroke-width="1" opacity="0.996078431372549" d="M 274.5 45 Q 367.773 49.227 414 100.5 Q 429 116.5 440 136.5 Q 454.612 166.888 461 205.5 L 463.5 208 Q 479.758 214.742 490 227.5 Q 513.865 255.635 512 309.5 Q 508.616 346.616 486.5 365 L 487 363.5 Q 497.349 338.349 495 300.5 Q 487.362 240.865 454 208 Q 432.157 180.539 381.5 181 L 380.5 182 Q 366.889 181.889 356.5 185 L 356 179.5 Q 360.167 164.667 358 143.5 Q 352.464 95.036 322.5 71 Q 302.294 53.354 274.5 45 Z " /><path fill="rgb(64,64,119)" stroke="rgb(64,64,119)" stroke-width="1" opacity="0.996078431372549" d="M 58.5 267 Q 104.489 266.011 122 293.5 Q 157.747 330.753 157 404.5 Q 152.503 453.003 123.5 477 Q 110.475 489.475 84.5 489 L 74 486.5 Q 97.168 481.168 109 464.5 Q 131.824 438.324 129 386.5 Q 122.718 337.282 94.5 310 Q 78.295 288.705 40.5 289 Q 26.553 291.053 17.5 298 L 18 296.5 L 30.5 281 Q 41.159 270.659 58.5 267 Z " /><path fill="rgb(81,81,139)" stroke="rgb(81,81,139)" stroke-width="1" opacity="0.996078431372549" d="M 223.5 9 Q 349.349 4.651 401 74.5 Q 420.862 97.638 435 126.5 L 433 125.5 Q 420.6 105.4 403.5 90 Q 353.842 45.658 261.5 44 Q 203.209 47.209 175 80.5 Q 124.549 141.049 131 258.5 Q 131.93 288.07 137 313.5 L 136 313.5 Q 127.442 297.558 114.5 286 Q 97.249 265.751 58.5 267 Q 40.626 270.79 30 281 Q 27.967 261.05 29 236.5 Q 35.341 113.841 105.5 55 Q 148.706 16.206 223.5 9 Z M 141 55 Q 122 58 112 68 Q 64 113 50 192 Q 47 222 57 239 L 66 246 Q 73 247 77 244 Q 87 236 92 222 Q 101 196 105 165 L 119 121 Q 131 92 149 70 L 160 60 Q 153 54 141 55 Z " /><path fill="rgb(81,81,139)" stroke="rgb(81,81,139)" stroke-width="1" opacity="0.996078431372549" d="M 444.5 200 L 445.5 202 L 444.5 200 Z " /><path fill="rgb(81,81,139)" stroke="rgb(81,81,139)" stroke-width="1" opacity="0.996078431372549" d="M 461.5 217 L 462.5 219 L 461.5 217 Z " /><path fill="rgb(81,81,139)" stroke="rgb(81,81,139)" stroke-width="1" opacity="0.996078431372549" d="M 337.5 264 Q 364.303 264.197 374 281.5 Q 388.81 299.19 386 334.5 Q 382.997 359.997 366.5 372 Q 359.375 378.375 345.5 378 Q 325.942 374.558 317 360.5 Q 330.626 344.626 328 312.5 L 327 311.5 L 327 283.5 L 330 266 L 337.5 264 Z " /><path fill="rgb(81,81,139)" stroke="rgb(81,81,139)" stroke-width="1" opacity="0.996078431372549" d="M 40.5 289 Q 79.083 289.417 96 311.5 Q 130.986 343.514 129 412.5 Q 124.045 455.045 97.5 476 Q 87.572 483.572 73.5 487 Q 48.8 478.7 34 460.5 Q -1.032 423.532 0 350.5 Q 2.706 318.206 17.5 298 Q 26.553 291.053 40.5 289 Z M 34 324 L 29 326 Q 16 342 16 371 Q 18 411 37 435 Q 45 448 63 452 Q 71 452 75 448 Q 88 434 91 410 Q 91 373 72 355 L 43 327 L 34 324 Z " /><path fill="rgb(81,81,139)" stroke="rgb(81,81,139)" stroke-width="1" opacity="0.996078431372549" d="M 130.5 470 L 128.5 473 L 130.5 470 Z " /><path fill="rgb(188,188,249)" stroke="rgb(188,188,249)" stroke-width="1" opacity="0.2549019607843137" d="M 348.5 185 L 353 185.5 L 348.5 186 L 348.5 185 Z " /><path fill="rgb(188,188,249)" stroke="rgb(188,188,249)" stroke-width="1" opacity="0.2549019607843137" d="M 340.5 186 L 345 186.5 L 340.5 187 L 340.5 186 Z " /><path fill="rgb(188,188,249)" stroke="rgb(188,188,249)" stroke-width="1" opacity="0.2549019607843137" d="M 332.5 187 L 337 187.5 L 332.5 188 L 332.5 187 Z " /><path fill="rgb(188,188,249)" stroke="rgb(188,188,249)" stroke-width="1" opacity="0.2549019607843137" d="M 324.5 188 L 328 188.5 L 324.5 189 L 324.5 188 Z " /><path fill="rgb(188,188,249)" stroke="rgb(188,188,249)" stroke-width="1" opacity="0.2549019607843137" d="M 319.5 189 L 322 189.5 L 319.5 190 L 319.5 189 Z " /><path fill="rgb(188,188,249)" stroke="rgb(188,188,249)" stroke-width="1" opacity="0.2549019607843137" d="M 315.5 190 L 318 190.5 L 315.5 191 L 315.5 190 Z " /><path fill="rgb(188,188,249)" stroke="rgb(188,188,249)" stroke-width="1" opacity="0.2549019607843137" d="M 309.5 192 L 311 192.5 L 305.5 195 L 305.5 194 L 309.5 192 Z " /><path fill="rgb(188,188,249)" stroke="rgb(188,188,249)" stroke-width="1" opacity="0.2549019607843137" d="M 299.5 197 L 298.5 199 Q 288.024 204.024 281 212.5 L 275.5 219 L 279 214.5 L 285.5 207 L 299.5 197 Z " /><path fill="rgb(188,188,249)" stroke="rgb(188,188,249)" stroke-width="1" opacity="0.2549019607843137" d="M 274.5 220 L 273 222.5 L 266.5 233 L 267 231.5 L 274.5 220 Z " /><path fill="rgb(188,188,249)" stroke="rgb(188,188,249)" stroke-width="1" opacity="0.2549019607843137" d="M 261.5 242 L 262 243.5 L 260.5 246 L 260 244.5 L 261.5 242 Z " /><path fill="rgb(188,188,249)" stroke="rgb(188,188,249)" stroke-width="1" opacity="0.2549019607843137" d="M 147.5 244 L 152 244.5 L 147.5 245 L 147.5 244 Z " /><path fill="rgb(188,188,249)" stroke="rgb(188,188,249)" stroke-width="1" opacity="0.2549019607843137" d="M 154.5 245 L 157 245.5 L 154.5 246 L 154.5 245 Z " /><path fill="rgb(188,188,249)" stroke="rgb(188,188,249)" stroke-width="1" opacity="0.2549019607843137" d="M 158.5 246 L 161 246.5 L 158.5 247 L 158.5 246 Z " /><path fill="rgb(188,188,249)" stroke="rgb(188,188,249)" stroke-width="1" opacity="0.2549019607843137" d="M 162.5 247 L 167 248.5 L 165.5 249 Q 161.75 248.75 162.5 247 Z " /><path fill="rgb(188,188,249)" stroke="rgb(188,188,249)" stroke-width="1" opacity="0.2549019607843137" d="M 258.5 250 L 259 251.5 L 257.5 255 L 257 252.5 L 258.5 250 Z " /><path fill="rgb(188,188,249)" stroke="rgb(188,188,249)" stroke-width="1" opacity="0.2549019607843137" d="M 173.5 251 Q 196.885 261.615 212 280.5 L 224 297.5 L 222 296.5 Q 211.843 278.657 196.5 266 Q 186.623 257.377 173.5 252 L 173.5 251 Z " /><path fill="rgb(188,188,249)" stroke="rgb(188,188,249)" stroke-width="1" opacity="0.2549019607843137" d="M 255.5 259 L 256 261.5 L 255 261.5 L 255.5 259 Z " /><path fill="rgb(188,188,249)" stroke="rgb(188,188,249)" stroke-width="1" opacity="0.2549019607843137" d="M 254.5 263 L 255 265.5 L 254 265.5 L 254.5 263 Z " /><path fill="rgb(188,188,249)" stroke="rgb(188,188,249)" stroke-width="1" opacity="0.2549019607843137" d="M 253.5 268 L 254 270.5 L 253 270.5 L 253.5 268 Z " /><path fill="rgb(188,188,249)" stroke="rgb(188,188,249)" stroke-width="1" opacity="0.2549019607843137" d="M 252.5 273 L 253 277.5 L 252 277.5 L 252.5 273 Z " /><path fill="rgb(188,188,249)" stroke="rgb(188,188,249)" stroke-width="1" opacity="0.2549019607843137" d="M 251.5 281 L 252 287.5 L 251 287.5 L 251.5 281 Z " /><path fill="rgb(188,188,249)" stroke="rgb(188,188,249)" stroke-width="1" opacity="0.2549019607843137" d="M 224.5 299 L 228 304.5 L 226 303.5 L 224.5 299 Z " /><path fill="rgb(188,188,249)" stroke="rgb(188,188,249)" stroke-width="1" opacity="0.2549019607843137" d="M 228.5 306 L 231 310.5 L 230 310.5 L 228.5 306 Z " /><path fill="rgb(188,188,249)" stroke="rgb(188,188,249)" stroke-width="1" opacity="0.2549019607843137" d="M 251.5 306 L 252 313.5 L 251 313.5 L 251.5 306 Z " /><path fill="rgb(188,188,249)" stroke="rgb(188,188,249)" stroke-width="1" opacity="0.2549019607843137" d="M 233.5 316 L 235 319.5 L 234 319.5 L 233.5 316 Z " /><path fill="rgb(188,188,249)" stroke="rgb(188,188,249)" stroke-width="1" opacity="0.2549019607843137" d="M 252.5 317 L 253 321.5 L 252 321.5 L 252.5 317 Z " /><path fill="rgb(188,188,249)" stroke="rgb(188,188,249)" stroke-width="1" opacity="0.2549019607843137" d="M 235.5 321 L 237 324.5 L 236 324.5 L 235.5 321 Z " /><path fill="rgb(188,188,249)" stroke="rgb(188,188,249)" stroke-width="1" opacity="0.2549019607843137" d="M 253.5 324 L 254 327.5 L 253 327.5 L 253.5 324 Z " /><path fill="rgb(188,188,249)" stroke="rgb(188,188,249)" stroke-width="1" opacity="0.2549019607843137" d="M 254.5 329 L 255 332.5 L 254 332.5 L 254.5 329 Z " /><path fill="rgb(188,188,249)" stroke="rgb(188,188,249)" stroke-width="1" opacity="0.2549019607843137" d="M 255.5 334 L 256 336.5 L 255 336.5 L 255.5 334 Z " /><path fill="rgb(188,188,249)" stroke="rgb(188,188,249)" stroke-width="1" opacity="0.2549019607843137" d="M 240.5 335 L 241 337.5 L 240 337.5 L 240.5 335 Z " /><path fill="rgb(188,188,249)" stroke="rgb(188,188,249)" stroke-width="1" opacity="0.2549019607843137" d="M 257.5 341 L 258 343.5 L 257 343.5 L 257.5 341 Z " /><path fill="rgb(188,188,249)" stroke="rgb(188,188,249)" stroke-width="1" opacity="0.2549019607843137" d="M 242.5 343 L 243 345.5 L 242 345.5 L 242.5 343 Z " /><path fill="rgb(188,188,249)" stroke="rgb(188,188,249)" stroke-width="1" opacity="0.2549019607843137" d="M 243.5 347 L 244 349.5 L 243 349.5 L 243.5 347 Z " /><path fill="rgb(188,188,249)" stroke="rgb(188,188,249)" stroke-width="1" opacity="0.2549019607843137" d="M 260.5 351 L 264 359.5 L 263 359.5 L 260.5 351 Z " /><path fill="rgb(188,188,249)" stroke="rgb(188,188,249)" stroke-width="1" opacity="0.2549019607843137" d="M 244.5 352 L 245 355.5 L 244 355.5 L 244.5 352 Z " /><path fill="rgb(188,188,249)" stroke="rgb(188,188,249)" stroke-width="1" opacity="0.2549019607843137" d="M 245.5 358 L 246 362.5 L 245 362.5 L 245.5 358 Z " /><path fill="rgb(188,188,249)" stroke="rgb(188,188,249)" stroke-width="1" opacity="0.2549019607843137" d="M 264.5 361 L 272 375.5 L 270 374.5 L 264 362.5 L 264.5 361 Z " /><path fill="rgb(188,188,249)" stroke="rgb(188,188,249)" stroke-width="1" opacity="0.2549019607843137" d="M 246.5 365 L 247 373.5 L 246 373.5 L 246.5 365 Z " /><path fill="rgb(188,188,249)" stroke="rgb(188,188,249)" stroke-width="1" opacity="0.2549019607843137" d="M 484.5 368 L 485 369.5 L 475.5 386 L 476 384.5 L 484.5 368 Z " /><path fill="rgb(188,188,249)" stroke="rgb(188,188,249)" stroke-width="1" opacity="0.2549019607843137" d="M 272.5 377 L 280 387.5 L 277 385.5 L 272.5 377 Z " /><path fill="rgb(188,188,249)" stroke="rgb(188,188,249)" stroke-width="1" opacity="0.2549019607843137" d="M 474.5 387 L 473 389.5 Q 466.937 400.937 456.5 408 L 447.5 414 L 448.5 412 Q 460.942 405.442 469 394.5 L 474.5 387 Z " /><path fill="rgb(188,188,249)" stroke="rgb(188,188,249)" stroke-width="1" opacity="0.2549019607843137" d="M 280.5 389 L 301 410.5 L 293.5 404 L 290 401.5 L 280.5 389 Z " /><path fill="rgb(188,188,249)" stroke="rgb(188,188,249)" stroke-width="1" opacity="0.2549019607843137" d="M 246.5 392 L 247 399.5 L 246 399.5 L 246.5 392 Z " /><path fill="rgb(188,188,249)" stroke="rgb(188,188,249)" stroke-width="1" opacity="0.2549019607843137" d="M 245.5 403 L 246 406.5 L 245 406.5 L 245.5 403 Z " /><path fill="rgb(188,188,249)" stroke="rgb(188,188,249)" stroke-width="1" opacity="0.2549019607843137" d="M 244.5 409 L 245 412.5 L 244 412.5 L 244.5 409 Z " /><path fill="rgb(188,188,249)" stroke="rgb(188,188,249)" stroke-width="1" opacity="0.2549019607843137" d="M 302.5 411 L 304.5 414 L 302.5 411 Z " /><path fill="rgb(188,188,249)" stroke="rgb(188,188,249)" stroke-width="1" opacity="0.2549019607843137" d="M 243.5 414 L 244 417.5 L 243 417.5 L 243.5 414 Z " /><path fill="rgb(188,188,249)" stroke="rgb(188,188,249)" stroke-width="1" opacity="0.2549019607843137" d="M 306.5 414 L 318 421.5 L 316.5 421 Q 308.5 419 306.5 414 Z " /><path fill="rgb(188,188,249)" stroke="rgb(188,188,249)" stroke-width="1" opacity="0.2549019607843137" d="M 445.5 414 L 444.5 416 L 439.5 418 L 439.5 417 L 445.5 414 Z " /><path fill="rgb(188,188,249)" stroke="rgb(188,188,249)" stroke-width="1" opacity="0.2549019607843137" d="M 436.5 418 L 438 418.5 L 434.5 420 L 434.5 419 L 436.5 418 Z " /><path fill="rgb(188,188,249)" stroke="rgb(188,188,249)" stroke-width="1" opacity="0.2549019607843137" d="M 242.5 419 L 243 421.5 L 242 421.5 L 242.5 419 Z " /><path fill="rgb(188,188,249)" stroke="rgb(188,188,249)" stroke-width="1" opacity="0.2549019607843137" d="M 427.5 421 L 430 421.5 L 427.5 422 L 427.5 421 Z " /><path fill="rgb(188,188,249)" stroke="rgb(188,188,249)" stroke-width="1" opacity="0.2549019607843137" d="M 422.5 422 L 425 422.5 L 422.5 423 L 422.5 422 Z " /><path fill="rgb(188,188,249)" stroke="rgb(188,188,249)" stroke-width="1" opacity="0.2549019607843137" d="M 321.5 423 L 325 424.5 L 323.5 425 L 321.5 423 Z " /><path fill="rgb(188,188,249)" stroke="rgb(188,188,249)" stroke-width="1" opacity="0.2549019607843137" d="M 414.5 423 L 419 423.5 L 414.5 424 L 414.5 423 Z " /><path fill="rgb(188,188,249)" stroke="rgb(188,188,249)" stroke-width="1" opacity="0.2549019607843137" d="M 406.5 424 L 411 424.5 L 406.5 425 L 406.5 424 Z " /><path fill="rgb(188,188,249)" stroke="rgb(188,188,249)" stroke-width="1" opacity="0.2549019607843137" d="M 326.5 425 L 330 426.5 L 328.5 427 L 326.5 425 Z " /><path fill="rgb(188,188,249)" stroke="rgb(188,188,249)" stroke-width="1" opacity="0.2549019607843137" d="M 398.5 425 L 403 425.5 L 398.5 426 L 398.5 425 Z " /><path fill="rgb(188,188,249)" stroke="rgb(188,188,249)" stroke-width="1" opacity="0.2549019607843137" d="M 390.5 426 L 395 426.5 L 390.5 427 L 390.5 426 Z " /><path fill="rgb(188,188,249)" stroke="rgb(188,188,249)" stroke-width="1" opacity="0.2549019607843137" d="M 331.5 427 L 334 427.5 L 331.5 428 L 331.5 427 Z " /><path fill="rgb(188,188,249)" stroke="rgb(188,188,249)" stroke-width="1" opacity="0.2549019607843137" d="M 382.5 427 L 387 427.5 L 382.5 428 L 382.5 427 Z " /><path fill="rgb(188,188,249)" stroke="rgb(188,188,249)" stroke-width="1" opacity="0.2549019607843137" d="M 335.5 428 L 338 428.5 L 335.5 429 L 335.5 428 Z " /><path fill="rgb(188,188,249)" stroke="rgb(188,188,249)" stroke-width="1" opacity="0.2549019607843137" d="M 374.5 428 L 379 428.5 L 374.5 429 L 374.5 428 Z " /><path fill="rgb(188,188,249)" stroke="rgb(188,188,249)" stroke-width="1" opacity="0.2549019607843137" d="M 239.5 429 L 240 431.5 L 238.5 434 L 238 432.5 L 239.5 429 Z " /><path fill="rgb(188,188,249)" stroke="rgb(188,188,249)" stroke-width="1" opacity="0.2549019607843137" d="M 339.5 429 L 343 429.5 L 339.5 430 L 339.5 429 Z " /><path fill="rgb(188,188,249)" stroke="rgb(188,188,249)" stroke-width="1" opacity="0.2549019607843137" d="M 365.5 429 L 371 429.5 L 365.5 430 L 365.5 429 Z " /><path fill="rgb(188,188,249)" stroke="rgb(188,188,249)" stroke-width="1" opacity="0.2549019607843137" d="M 346.5 430 L 363 430.5 L 346.5 431 L 346.5 430 Z " /><path fill="rgb(188,188,249)" stroke="rgb(188,188,249)" stroke-width="1" opacity="0.2549019607843137" d="M 237.5 435 L 238 436.5 L 236.5 439 L 236 437.5 L 237.5 435 Z " /><path fill="rgb(188,188,249)" stroke="rgb(188,188,249)" stroke-width="1" opacity="0.2549019607843137" d="M 235.5 440 L 236 441.5 L 227.5 456 L 228 454.5 L 235.5 440 Z " /><path fill="rgb(188,188,249)" stroke="rgb(188,188,249)" stroke-width="1" opacity="0.2549019607843137" d="M 226.5 457 L 225.5 459 L 226.5 457 Z " /><path fill="rgb(188,188,249)" stroke="rgb(188,188,249)" stroke-width="1" opacity="0.2549019607843137" d="M 224.5 460 L 223 462.5 L 209.5 478 L 196.5 487 L 197.5 485 Q 209.6 478.6 218 468.5 L 224.5 460 Z " /><path fill="rgb(188,188,249)" stroke="rgb(188,188,249)" stroke-width="1" opacity="0.2549019607843137" d="M 48.5 474 L 69 490.5 L 67.5 490 Q 55.078 483.636 48.5 474 Z " /><path fill="rgb(188,188,249)" stroke="rgb(188,188,249)" stroke-width="1" opacity="0.2549019607843137" d="M 187.5 490 L 189 490.5 L 185.5 492 L 185.5 491 L 187.5 490 Z " /><path fill="rgb(188,188,249)" stroke="rgb(188,188,249)" stroke-width="1" opacity="0.2549019607843137" d="M 70.5 491 L 81 496.5 L 79.5 497 Q 71.667 495.333 70.5 491 Z " /><path fill="rgb(188,188,249)" stroke="rgb(188,188,249)" stroke-width="1" opacity="0.2549019607843137" d="M 174.5 494 L 178 494.5 L 174.5 495 L 174.5 494 Z " /><path fill="rgb(188,188,249)" stroke="rgb(188,188,249)" stroke-width="1" opacity="0.2549019607843137" d="M 168.5 495 L 173 495.5 L 168.5 496 L 168.5 495 Z " /><path fill="rgb(188,188,249)" stroke="rgb(188,188,249)" stroke-width="1" opacity="0.2549019607843137" d="M 160.5 496 L 165 496.5 L 160.5 497 L 160.5 496 Z " /><path fill="rgb(188,188,249)" stroke="rgb(188,188,249)" stroke-width="1" opacity="0.2549019607843137" d="M 152.5 497 L 157 497.5 L 152.5 498 L 152.5 497 Z " /><path fill="rgb(188,188,249)" stroke="rgb(188,188,249)" stroke-width="1" opacity="0.2549019607843137" d="M 144.5 498 L 149 498.5 L 144.5 499 L 144.5 498 Z " /><path fill="rgb(188,188,249)" stroke="rgb(188,188,249)" stroke-width="1" opacity="0.2549019607843137" d="M 137.5 499 L 141 499.5 L 137.5 500 L 137.5 499 Z " /><path fill="rgb(188,188,249)" stroke="rgb(188,188,249)" stroke-width="1" opacity="0.2549019607843137" d="M 90.5 500 L 93 500.5 L 90.5 501 L 90.5 500 Z " /><path fill="rgb(188,188,249)" stroke="rgb(188,188,249)" stroke-width="1" opacity="0.2549019607843137" d="M 94.5 501 L 97 501.5 L 94.5 502 L 94.5 501 Z " /><path fill="rgb(188,188,249)" stroke="rgb(188,188,249)" stroke-width="1" opacity="0.2549019607843137" d="M 128.5 501 L 132 501.5 L 128.5 502 L 128.5 501 Z " /><path fill="rgb(188,188,249)" stroke="rgb(188,188,249)" stroke-width="1" opacity="0.2549019607843137" d="M 98.5 502 L 102 502.5 L 98.5 503 L 98.5 502 Z " /><path fill="rgb(188,188,249)" stroke="rgb(188,188,249)" stroke-width="1" opacity="0.2549019607843137" d="M 123.5 502 L 127 502.5 L 123.5 503 L 123.5 502 Z " /><path fill="rgb(188,188,249)" stroke="rgb(188,188,249)" stroke-width="1" opacity="0.2549019607843137" d="M 106.5 503 L 119 503.5 L 106.5 504 L 106.5 503 Z " /><path fill="rgb(185,185,250)" stroke="rgb(185,185,250)" stroke-width="1" opacity="0.996078431372549" d="M 387.5 181 Q 435.786 183.214 457 212.5 Q 492.683 248.317 495 317.5 Q 491.907 378.407 456.5 407 Q 444.336 417.336 426.5 422 L 390.5 426 L 389.5 427 L 382.5 427 L 381.5 428 L 374.5 428 L 373.5 429 L 365.5 429 L 364.5 430 L 343.5 430 Q 304.226 421.274 284 393.5 Q 251.247 357.253 251 288.5 Q 255.449 235.449 285.5 208 Q 297.169 196.669 314.5 191 L 328.5 188 Q 359.876 186.376 387.5 181 Z M 336 264 Q 325 266 319 272 Q 303 282 304 309 Q 303 344 318 363 Q 326 374 342 378 Q 359 380 368 372 Q 385 358 387 329 Q 388 296 373 280 Q 363 263 336 264 Z " /><path fill="rgb(185,185,250)" stroke="rgb(185,185,250)" stroke-width="1" opacity="0.996078431372549" d="M 133.5 244 Q 155.863 243.137 170.5 250 Q 194.976 261.024 211 280.5 Q 246.642 318.358 247 391.5 Q 242.249 448.249 209.5 477 Q 197 488.5 178.5 494 Q 147.191 495.191 122.5 503 L 102.5 503 Q 70.835 496.665 52 477.5 L 54.5 479 Q 68.786 491.714 98.5 489 Q 122.664 483.664 135 466.5 Q 159.013 438.513 158 385.5 Q 154.87 342.63 137 314.5 Q 131.167 284.333 132 247.5 L 131 245 L 133.5 244 Z " /><path fill="rgb(77,77,134)" stroke="rgb(77,77,134)" stroke-width="1" opacity="0.4" d="M 227.5 8 L 261 8.5 L 227.5 9 L 227.5 8 Z " /><path fill="rgb(77,77,134)" stroke="rgb(77,77,134)" stroke-width="1" opacity="0.4" d="M 215.5 9 L 223 9.5 L 215.5 10 L 215.5 9 Z " /><path fill="rgb(77,77,134)" stroke="rgb(77,77,134)" stroke-width="1" opacity="0.4" d="M 266.5 9 L 274 9.5 L 266.5 10 L 266.5 9 Z " /><path fill="rgb(77,77,134)" stroke="rgb(77,77,134)" stroke-width="1" opacity="0.4" d="M 207.5 10 L 212 10.5 L 207.5 11 L 207.5 10 Z " /><path fill="rgb(77,77,134)" stroke="rgb(77,77,134)" stroke-width="1" opacity="0.4" d="M 277.5 10 L 283 10.5 L 277.5 11 L 277.5 10 Z " /><path fill="rgb(77,77,134)" stroke="rgb(77,77,134)" stroke-width="1" opacity="0.4" d="M 201.5 11 L 205 11.5 L 201.5 12 L 201.5 11 Z " /><path fill="rgb(77,77,134)" stroke="rgb(77,77,134)" stroke-width="1" opacity="0.4" d="M 285.5 11 L 289 11.5 L 285.5 12 L 285.5 11 Z " /><path fill="rgb(77,77,134)" stroke="rgb(77,77,134)" stroke-width="1" opacity="0.4" d="M 195.5 12 L 199 12.5 L 195.5 13 L 195.5 12 Z " /><path fill="rgb(77,77,134)" stroke="rgb(77,77,134)" stroke-width="1" opacity="0.4" d="M 291.5 12 L 295 12.5 L 291.5 13 L 291.5 12 Z " /><path fill="rgb(77,77,134)" stroke="rgb(77,77,134)" stroke-width="1" opacity="0.4" d="M 190.5 13 L 194 13.5 L 190.5 14 L 190.5 13 Z " /><path fill="rgb(77,77,134)" stroke="rgb(77,77,134)" stroke-width="1" opacity="0.4" d="M 296.5 13 L 300 13.5 L 296.5 14 L 296.5 13 Z " /><path fill="rgb(77,77,134)" stroke="rgb(77,77,134)" stroke-width="1" opacity="0.4" d="M 186.5 14 L 189 14.5 L 186.5 15 L 186.5 14 Z " /><path fill="rgb(77,77,134)" stroke="rgb(77,77,134)" stroke-width="1" opacity="0.4" d="M 301.5 14 L 304 14.5 L 301.5 15 L 301.5 14 Z " /><path fill="rgb(77,77,134)" stroke="rgb(77,77,134)" stroke-width="1" opacity="0.4" d="M 182.5 15 L 185 15.5 L 182.5 16 L 182.5 15 Z " /><path fill="rgb(77,77,134)" stroke="rgb(77,77,134)" stroke-width="1" opacity="0.4" d="M 305.5 15 L 308 15.5 L 305.5 16 L 305.5 15 Z " /><path fill="rgb(77,77,134)" stroke="rgb(77,77,134)" stroke-width="1" opacity="0.4" d="M 178.5 16 L 181 16.5 L 178.5 17 L 178.5 16 Z " /><path fill="rgb(77,77,134)" stroke="rgb(77,77,134)" stroke-width="1" opacity="0.4" d="M 309.5 16 L 315 17.5 L 312.5 18 Q 308.75 17.75 309.5 16 Z " /><path fill="rgb(77,77,134)" stroke="rgb(77,77,134)" stroke-width="1" opacity="0.4" d="M 171.5 18 L 174 18.5 L 163.5 22 L 163.5 21 L 171.5 18 Z " /><path fill="rgb(77,77,134)" stroke="rgb(77,77,134)" stroke-width="1" opacity="0.4" d="M 325.5 21 L 329 22.5 L 327.5 23 L 325.5 21 Z " /><path fill="rgb(77,77,134)" stroke="rgb(77,77,134)" stroke-width="1" opacity="0.4" d="M 157.5 23 L 159 23.5 L 155.5 25 L 155.5 24 L 157.5 23 Z " /><path fill="rgb(77,77,134)" stroke="rgb(77,77,134)" stroke-width="1" opacity="0.4" d="M 330.5 23 L 334 24.5 L 332.5 25 L 330.5 23 Z " /><path fill="rgb(77,77,134)" stroke="rgb(77,77,134)" stroke-width="1" opacity="0.4" d="M 152.5 25 L 154 25.5 L 144.5 30 L 144.5 29 L 152.5 25 Z " /><path fill="rgb(77,77,134)" stroke="rgb(77,77,134)" stroke-width="1" opacity="0.4" d="M 337.5 26 L 350 32.5 L 348.5 32 L 337.5 27 L 337.5 26 Z " /><path fill="rgb(77,77,134)" stroke="rgb(77,77,134)" stroke-width="1" opacity="0.4" d="M 142.5 30 L 141.5 32 Q 127.006 37.506 116.5 47 L 118.5 44 L 142.5 30 Z " /><path fill="rgb(77,77,134)" stroke="rgb(77,77,134)" stroke-width="1" opacity="0.4" d="M 351.5 33 L 360 38.5 L 358.5 38 Q 352.292 36.583 351.5 33 Z " /><path fill="rgb(77,77,134)" stroke="rgb(77,77,134)" stroke-width="1" opacity="0.4" d="M 361.5 39 L 362.5 41 L 361.5 39 Z " /><path fill="rgb(77,77,134)" stroke="rgb(77,77,134)" stroke-width="1" opacity="0.4" d="M 364.5 41 L 370 45.5 L 367.5 44 L 364.5 41 Z " /><path fill="rgb(77,77,134)" stroke="rgb(77,77,134)" stroke-width="1" opacity="0.4" d="M 261.5 44 L 271 44.5 L 261.5 45 L 261.5 44 Z " /><path fill="rgb(77,77,134)" stroke="rgb(77,77,134)" stroke-width="1" opacity="0.4" d="M 247.5 45 L 254 45.5 L 247.5 46 L 247.5 45 Z " /><path fill="rgb(77,77,134)" stroke="rgb(77,77,134)" stroke-width="1" opacity="0.4" d="M 240.5 46 L 245 46.5 L 240.5 47 L 240.5 46 Z " /><path fill="rgb(77,77,134)" stroke="rgb(77,77,134)" stroke-width="1" opacity="0.4" d="M 371.5 46 L 402 74.5 Q 419.453 94.547 432 119.5 L 430 118.5 Q 411.513 80.987 381.5 55 Q 374.417 51.333 371.5 46 Z " /><path fill="rgb(77,77,134)" stroke="rgb(77,77,134)" stroke-width="1" opacity="0.4" d="M 114.5 47 L 112.5 50 L 114.5 47 Z " /><path fill="rgb(77,77,134)" stroke="rgb(77,77,134)" stroke-width="1" opacity="0.4" d="M 235.5 47 L 238 47.5 L 235.5 48 L 235.5 47 Z " /><path fill="rgb(77,77,134)" stroke="rgb(77,77,134)" stroke-width="1" opacity="0.4" d="M 230.5 48 L 234 48.5 L 230.5 49 L 230.5 48 Z " /><path fill="rgb(77,77,134)" stroke="rgb(77,77,134)" stroke-width="1" opacity="0.4" d="M 110.5 50 L 106.5 55 L 84 76.5 L 76.5 86 L 79 82.5 L 93.5 65 L 96.5 63 L 110.5 50 Z " /><path fill="rgb(77,77,134)" stroke="rgb(77,77,134)" stroke-width="1" opacity="0.4" d="M 223.5 50 L 226 50.5 L 223.5 51 L 223.5 50 Z " /><path fill="rgb(77,77,134)" stroke="rgb(77,77,134)" stroke-width="1" opacity="0.4" d="M 220.5 51 L 222 51.5 L 215.5 54 L 215.5 53 L 220.5 51 Z " /><path fill="rgb(77,77,134)" stroke="rgb(77,77,134)" stroke-width="1" opacity="0.4" d="M 212.5 54 L 214 54.5 L 199.5 62 L 200.5 60 L 212.5 54 Z " /><path fill="rgb(77,77,134)" stroke="rgb(77,77,134)" stroke-width="1" opacity="0.4" d="M 304.5 58 L 305.5 60 L 304.5 58 Z " /><path fill="rgb(77,77,134)" stroke="rgb(77,77,134)" stroke-width="1" opacity="0.4" d="M 307.5 60 L 308.5 62 L 307.5 60 Z " /><path fill="rgb(77,77,134)" stroke="rgb(77,77,134)" stroke-width="1" opacity="0.4" d="M 197.5 62 L 196.5 64 L 197.5 62 Z " /><path fill="rgb(77,77,134)" stroke="rgb(77,77,134)" stroke-width="1" opacity="0.4" d="M 310.5 62 L 311.5 64 L 310.5 62 Z " /><path fill="rgb(77,77,134)" stroke="rgb(77,77,134)" stroke-width="1" opacity="0.4" d="M 194.5 64 L 193.5 66 L 194.5 64 Z " /><path fill="rgb(77,77,134)" stroke="rgb(77,77,134)" stroke-width="1" opacity="0.4" d="M 313.5 64 L 314.5 66 L 313.5 64 Z " /><path fill="rgb(77,77,134)" stroke="rgb(77,77,134)" stroke-width="1" opacity="0.4" d="M 191.5 66 L 189.5 69 L 191.5 66 Z " /><path fill="rgb(77,77,134)" stroke="rgb(77,77,134)" stroke-width="1" opacity="0.4" d="M 316.5 66 L 319.5 70 L 316.5 66 Z " /><path fill="rgb(77,77,134)" stroke="rgb(77,77,134)" stroke-width="1" opacity="0.4" d="M 187.5 69 L 181.5 76 L 177 79.5 L 170.5 87 L 175 81.5 L 181.5 74 L 187.5 69 Z " /><path fill="rgb(77,77,134)" stroke="rgb(77,77,134)" stroke-width="1" opacity="0.4" d="M 322.5 71 L 331.5 81 L 322.5 71 Z " /><path fill="rgb(77,77,134)" stroke="rgb(77,77,134)" stroke-width="1" opacity="0.4" d="M 333.5 83 L 335.5 86 L 333.5 83 Z " /><path fill="rgb(77,77,134)" stroke="rgb(77,77,134)" stroke-width="1" opacity="0.4" d="M 75.5 87 L 74 89.5 L 69.5 96 L 71 93.5 L 75.5 87 Z " /><path fill="rgb(77,77,134)" stroke="rgb(77,77,134)" stroke-width="1" opacity="0.4" d="M 169.5 88 L 167 91.5 L 158.5 105 L 159 103.5 L 169.5 88 Z " /><path fill="rgb(77,77,134)" stroke="rgb(77,77,134)" stroke-width="1" opacity="0.4" d="M 337.5 88 L 338.5 90 L 337.5 88 Z " /><path fill="rgb(77,77,134)" stroke="rgb(77,77,134)" stroke-width="1" opacity="0.4" d="M 339.5 91 L 340.5 93 L 339.5 91 Z " /><path fill="rgb(77,77,134)" stroke="rgb(77,77,134)" stroke-width="1" opacity="0.4" d="M 341.5 94 L 342.5 96 L 341.5 94 Z " /><path fill="rgb(77,77,134)" stroke="rgb(77,77,134)" stroke-width="1" opacity="0.4" d="M 68.5 97 L 68 98.5 L 58.5 115 L 59 113.5 L 68.5 97 Z " /><path fill="rgb(77,77,134)" stroke="rgb(77,77,134)" stroke-width="1" opacity="0.4" d="M 157.5 106 L 157 107.5 L 152.5 117 L 152 115.5 L 157.5 106 Z " /><path fill="rgb(77,77,134)" stroke="rgb(77,77,134)" stroke-width="1" opacity="0.4" d="M 55.5 120 L 56 121.5 L 52.5 128 L 52 126.5 L 55.5 120 Z " /><path fill="rgb(77,77,134)" stroke="rgb(77,77,134)" stroke-width="1" opacity="0.4" d="M 150.5 120 L 151 121.5 L 149.5 124 L 149 122.5 L 150.5 120 Z " /><path fill="rgb(77,77,134)" stroke="rgb(77,77,134)" stroke-width="1" opacity="0.4" d="M 148.5 125 L 149 126.5 L 147.5 129 L 147 127.5 L 148.5 125 Z " /><path fill="rgb(77,77,134)" stroke="rgb(77,77,134)" stroke-width="1" opacity="0.4" d="M 355.5 129 L 356 131.5 L 355 131.5 L 355.5 129 Z " /><path fill="rgb(77,77,134)" stroke="rgb(77,77,134)" stroke-width="1" opacity="0.4" d="M 50.5 131 L 51 132.5 L 49.5 135 L 49 133.5 L 50.5 131 Z " /><path fill="rgb(77,77,134)" stroke="rgb(77,77,134)" stroke-width="1" opacity="0.4" d="M 356.5 135 L 357 137.5 L 356 137.5 L 356.5 135 Z " /><path fill="rgb(77,77,134)" stroke="rgb(77,77,134)" stroke-width="1" opacity="0.4" d="M 48.5 136 L 49 137.5 L 47.5 140 L 47 138.5 L 48.5 136 Z " /><path fill="rgb(77,77,134)" stroke="rgb(77,77,134)" stroke-width="1" opacity="0.4" d="M 440.5 137 L 442 140.5 L 441 140.5 L 440.5 137 Z " /><path fill="rgb(77,77,134)" stroke="rgb(77,77,134)" stroke-width="1" opacity="0.4" d="M 143.5 139 L 144 141.5 L 142.5 145 L 142 142.5 L 143.5 139 Z " /><path fill="rgb(77,77,134)" stroke="rgb(77,77,134)" stroke-width="1" opacity="0.4" d="M 357.5 143 L 358 148.5 L 357 148.5 L 357.5 143 Z " /><path fill="rgb(77,77,134)" stroke="rgb(77,77,134)" stroke-width="1" opacity="0.4" d="M 141.5 146 L 142 148.5 L 141 148.5 L 141.5 146 Z " /><path fill="rgb(77,77,134)" stroke="rgb(77,77,134)" stroke-width="1" opacity="0.4" d="M 140.5 150 L 141 152.5 L 140 152.5 L 140.5 150 Z " /><path fill="rgb(77,77,134)" stroke="rgb(77,77,134)" stroke-width="1" opacity="0.4" d="M 139.5 154 L 140 156.5 L 139 156.5 L 139.5 154 Z " /><path fill="rgb(77,77,134)" stroke="rgb(77,77,134)" stroke-width="1" opacity="0.4" d="M 41.5 156 L 42 158.5 L 40.5 162 L 40 159.5 L 41.5 156 Z " /><path fill="rgb(77,77,134)" stroke="rgb(77,77,134)" stroke-width="1" opacity="0.4" d="M 138.5 158 L 139 161.5 L 138 161.5 L 138.5 158 Z " /><path fill="rgb(77,77,134)" stroke="rgb(77,77,134)" stroke-width="1" opacity="0.4" d="M 357.5 162 L 358 169.5 L 357 169.5 L 357.5 162 Z " /><path fill="rgb(77,77,134)" stroke="rgb(77,77,134)" stroke-width="1" opacity="0.4" d="M 39.5 163 L 40 165.5 L 39 165.5 L 39.5 163 Z " /><path fill="rgb(77,77,134)" stroke="rgb(77,77,134)" stroke-width="1" opacity="0.4" d="M 137.5 163 L 138 166.5 L 137 166.5 L 137.5 163 Z " /><path fill="rgb(77,77,134)" stroke="rgb(77,77,134)" stroke-width="1" opacity="0.4" d="M 38.5 167 L 39 169.5 L 38 169.5 L 38.5 167 Z " /><path fill="rgb(77,77,134)" stroke="rgb(77,77,134)" stroke-width="1" opacity="0.4" d="M 136.5 168 L 137 171.5 L 136 171.5 L 136.5 168 Z " /><path fill="rgb(77,77,134)" stroke="rgb(77,77,134)" stroke-width="1" opacity="0.4" d="M 37.5 171 L 38 173.5 L 37 173.5 L 37.5 171 Z " /><path fill="rgb(77,77,134)" stroke="rgb(77,77,134)" stroke-width="1" opacity="0.4" d="M 135.5 174 L 136 178.5 L 135 178.5 L 135.5 174 Z " /><path fill="rgb(77,77,134)" stroke="rgb(77,77,134)" stroke-width="1" opacity="0.4" d="M 36.5 175 L 37 177.5 L 36 177.5 L 36.5 175 Z " /><path fill="rgb(77,77,134)" stroke="rgb(77,77,134)" stroke-width="1" opacity="0.4" d="M 356.5 175 L 357 178.5 L 356 178.5 L 356.5 175 Z " /><path fill="rgb(77,77,134)" stroke="rgb(77,77,134)" stroke-width="1" opacity="0.4" d="M 35.5 180 L 36 182.5 L 35 182.5 L 35.5 180 Z " /><path fill="rgb(77,77,134)" stroke="rgb(77,77,134)" stroke-width="1" opacity="0.4" d="M 134.5 181 L 135 185.5 L 134 185.5 L 134.5 181 Z " /><path fill="rgb(77,77,134)" stroke="rgb(77,77,134)" stroke-width="1" opacity="0.4" d="M 34.5 185 L 35 188.5 L 34 188.5 L 34.5 185 Z " /><path fill="rgb(77,77,134)" stroke="rgb(77,77,134)" stroke-width="1" opacity="0.4" d="M 133.5 189 L 134 195.5 L 133 195.5 L 133.5 189 Z " /><path fill="rgb(77,77,134)" stroke="rgb(77,77,134)" stroke-width="1" opacity="0.4" d="M 33.5 190 L 34 194.5 L 33 194.5 L 33.5 190 Z " /><path fill="rgb(77,77,134)" stroke="rgb(77,77,134)" stroke-width="1" opacity="0.4" d="M 459.5 194 L 460 196.5 L 459 196.5 L 459.5 194 Z " /><path fill="rgb(77,77,134)" stroke="rgb(77,77,134)" stroke-width="1" opacity="0.4" d="M 32.5 197 L 33 200.5 L 32 200.5 L 32.5 197 Z " /><path fill="rgb(77,77,134)" stroke="rgb(77,77,134)" stroke-width="1" opacity="0.4" d="M 132.5 200 L 133 208.5 L 132 208.5 L 132.5 200 Z " /><path fill="rgb(77,77,134)" stroke="rgb(77,77,134)" stroke-width="1" opacity="0.4" d="M 31.5 204 L 32 208.5 L 31 208.5 L 31.5 204 Z " /><path fill="rgb(77,77,134)" stroke="rgb(77,77,134)" stroke-width="1" opacity="0.4" d="M 471.5 211 L 476 214.5 L 473.5 213 L 471.5 211 Z " /><path fill="rgb(77,77,134)" stroke="rgb(77,77,134)" stroke-width="1" opacity="0.4" d="M 30.5 212 L 31 218.5 L 30 218.5 L 30.5 212 Z " /><path fill="rgb(77,77,134)" stroke="rgb(77,77,134)" stroke-width="1" opacity="0.4" d="M 477.5 215 L 479.5 218 L 477.5 215 Z " /><path fill="rgb(77,77,134)" stroke="rgb(77,77,134)" stroke-width="1" opacity="0.4" d="M 131.5 216 L 132 243.5 L 131 243.5 L 131.5 216 Z " /><path fill="rgb(77,77,134)" stroke="rgb(77,77,134)" stroke-width="1" opacity="0.4" d="M 481.5 218 L 496 234.5 L 493 232.5 L 481.5 218 Z " /><path fill="rgb(77,77,134)" stroke="rgb(77,77,134)" stroke-width="1" opacity="0.4" d="M 29.5 223 L 30 235.5 L 29 235.5 L 29.5 223 Z " /><path fill="rgb(77,77,134)" stroke="rgb(77,77,134)" stroke-width="1" opacity="0.4" d="M 496.5 236 L 499 239.5 L 497 238.5 L 496.5 236 Z " /><path fill="rgb(77,77,134)" stroke="rgb(77,77,134)" stroke-width="1" opacity="0.4" d="M 502.5 247 L 504 250.5 L 503 250.5 L 502.5 247 Z " /><path fill="rgb(77,77,134)" stroke="rgb(77,77,134)" stroke-width="1" opacity="0.4" d="M 507.5 261 L 508 263.5 L 507 263.5 L 507.5 261 Z " /><path fill="rgb(77,77,134)" stroke="rgb(77,77,134)" stroke-width="1" opacity="0.4" d="M 508.5 265 L 509 267.5 L 508 267.5 L 508.5 265 Z " /><path fill="rgb(77,77,134)" stroke="rgb(77,77,134)" stroke-width="1" opacity="0.4" d="M 29.5 268 L 30 281.5 L 18.5 295 L 20 292.5 Q 31.793 287.293 29.5 268 Z " /><path fill="rgb(77,77,134)" stroke="rgb(77,77,134)" stroke-width="1" opacity="0.4" d="M 509.5 270 L 510 273.5 L 509 273.5 L 509.5 270 Z " /><path fill="rgb(77,77,134)" stroke="rgb(77,77,134)" stroke-width="1" opacity="0.4" d="M 510.5 276 L 511 279.5 L 510 279.5 L 510.5 276 Z " /><path fill="rgb(77,77,134)" stroke="rgb(77,77,134)" stroke-width="1" opacity="0.4" d="M 511.5 283 L 512 289.5 L 511 289.5 L 511.5 283 Z " /><path fill="rgb(77,77,134)" stroke="rgb(77,77,134)" stroke-width="1" opacity="0.4" d="M 17.5 296 L 17 297.5 L 15.5 300 L 16 298.5 L 17.5 296 Z " /><path fill="rgb(77,77,134)" stroke="rgb(77,77,134)" stroke-width="1" opacity="0.4" d="M 14.5 301 L 14 302.5 L 10.5 310 L 10 308.5 L 14.5 301 Z " /><path fill="rgb(77,77,134)" stroke="rgb(77,77,134)" stroke-width="1" opacity="0.4" d="M 511.5 310 L 512 315.5 L 511 315.5 L 511.5 310 Z " /><path fill="rgb(77,77,134)" stroke="rgb(77,77,134)" stroke-width="1" opacity="0.4" d="M 510.5 318 L 511 321.5 L 510 321.5 L 510.5 318 Z " /><path fill="rgb(77,77,134)" stroke="rgb(77,77,134)" stroke-width="1" opacity="0.4" d="M 509.5 324 L 510 326.5 L 509 326.5 L 509.5 324 Z " /><path fill="rgb(77,77,134)" stroke="rgb(77,77,134)" stroke-width="1" opacity="0.4" d="M 507.5 331 L 508 333.5 L 507 333.5 L 507.5 331 Z " /><path fill="rgb(77,77,134)" stroke="rgb(77,77,134)" stroke-width="1" opacity="0.4" d="M 2.5 333 L 3 335.5 L 2 335.5 L 2.5 333 Z " /><path fill="rgb(77,77,134)" stroke="rgb(77,77,134)" stroke-width="1" opacity="0.4" d="M 506.5 335 L 507 336.5 L 505.5 339 L 505 337.5 L 506.5 335 Z " /><path fill="rgb(77,77,134)" stroke="rgb(77,77,134)" stroke-width="1" opacity="0.4" d="M 1.5 338 L 2 340.5 L 1 340.5 L 1.5 338 Z " /><path fill="rgb(77,77,134)" stroke="rgb(77,77,134)" stroke-width="1" opacity="0.4" d="M 503.5 342 L 504 343.5 L 501.5 347 L 502 345.5 L 503.5 342 Z " /><path fill="rgb(77,77,134)" stroke="rgb(77,77,134)" stroke-width="1" opacity="0.4" d="M 0.5 345 L 1 349.5 L 0 349.5 L 0.5 345 Z " /><path fill="rgb(77,77,134)" stroke="rgb(77,77,134)" stroke-width="1" opacity="0.4" d="M 500.5 348 L 500 349.5 Q 494.981 359.481 486.5 366 L 494 357.5 L 500.5 348 Z " /><path fill="rgb(77,77,134)" stroke="rgb(77,77,134)" stroke-width="1" opacity="0.4" d="M 0.5 375 L 1 379.5 L 0 379.5 L 0.5 375 Z " /><path fill="rgb(77,77,134)" stroke="rgb(77,77,134)" stroke-width="1" opacity="0.4" d="M 1.5 385 L 2 387.5 L 1 387.5 L 1.5 385 Z " /><path fill="rgb(77,77,134)" stroke="rgb(77,77,134)" stroke-width="1" opacity="0.4" d="M 4.5 400 L 5 402.5 L 4 402.5 L 4.5 400 Z " /><path fill="rgb(77,77,134)" stroke="rgb(77,77,134)" stroke-width="1" opacity="0.4" d="M 14.5 429 L 16 432.5 L 15 432.5 L 14.5 429 Z " /><path fill="rgb(77,77,134)" stroke="rgb(77,77,134)" stroke-width="1" opacity="0.4" d="M 16.5 434 L 20 439.5 L 18 438.5 L 16.5 434 Z " /><path fill="rgb(77,77,134)" stroke="rgb(77,77,134)" stroke-width="1" opacity="0.4" d="M 21.5 443 L 22.5 445 L 21.5 443 Z " /><path fill="rgb(77,77,134)" stroke="rgb(77,77,134)" stroke-width="1" opacity="0.4" d="M 23.5 446 L 27 450.5 L 24 448.5 L 23.5 446 Z " /><path fill="rgb(77,77,134)" stroke="rgb(77,77,134)" stroke-width="1" opacity="0.4" d="M 27.5 452 L 29.5 455 L 27.5 452 Z " /><path fill="rgb(77,77,134)" stroke="rgb(77,77,134)" stroke-width="1" opacity="0.4" d="M 30.5 456 L 33.5 460 L 30.5 456 Z " /><path fill="rgb(77,77,134)" stroke="rgb(77,77,134)" stroke-width="1" opacity="0.4" d="M 35.5 462 L 43.5 471 L 35.5 462 Z " /><path fill="rgb(77,77,134)" stroke="rgb(77,77,134)" stroke-width="1" opacity="0.4" d="M 46.5 472 L 47.5 474 L 46.5 472 Z " /></svg>