<svg width="512" height="512" version="1.1" xmlns="http://www.w3.org/2000/svg" desc="Created with imagetracer.js version 1.2.6" ><path fill="rgb(253,119,130)" stroke="rgb(253,119,130)" stroke-width="1" opacity="0.5176470588235295" d="M 168.5 91 L 175 91.5 L 168.5 92 L 168.5 91 Z " /><path fill="rgb(253,119,130)" stroke="rgb(253,119,130)" stroke-width="1" opacity="0.5176470588235295" d="M 156.5 92 L 163 92.5 L 156.5 93 L 156.5 92 Z " /><path fill="rgb(253,119,130)" stroke="rgb(253,119,130)" stroke-width="1" opacity="0.5176470588235295" d="M 180.5 92 L 187 92.5 L 180.5 93 L 180.5 92 Z " /><path fill="rgb(253,119,130)" stroke="rgb(253,119,130)" stroke-width="1" opacity="0.5176470588235295" d="M 150.5 93 L 155 93.5 L 146.5 95 L 146.5 94 L 150.5 93 Z " /><path fill="rgb(253,119,130)" stroke="rgb(253,119,130)" stroke-width="1" opacity="0.5176470588235295" d="M 188.5 93 L 193 93.5 L 188.5 94 L 188.5 93 Z " /><path fill="rgb(253,119,130)" stroke="rgb(253,119,130)" stroke-width="1" opacity="0.5176470588235295" d="M 194.5 94 L 198 94.5 L 194.5 95 L 194.5 94 Z " /><path fill="rgb(253,119,130)" stroke="rgb(253,119,130)" stroke-width="1" opacity="0.5176470588235295" d="M 142.5 95 L 145 95.5 Q 112.731 104.731 95 128.5 L 83.5 145 L 84 143.5 Q 92.558 127.558 105.5 116 Q 120.431 101.931 142.5 95 Z " /><path fill="rgb(253,119,130)" stroke="rgb(253,119,130)" stroke-width="1" opacity="0.5176470588235295" d="M 199.5 95 L 205 96.5 L 202.5 97 Q 198.75 96.75 199.5 95 Z " /><path fill="rgb(253,119,130)" stroke="rgb(253,119,130)" stroke-width="1" opacity="0.5176470588235295" d="M 212.5 99 L 223 103.5 L 221.5 104 L 212.5 100 L 212.5 99 Z " /><path fill="rgb(253,119,130)" stroke="rgb(253,119,130)" stroke-width="1" opacity="0.5176470588235295" d="M 331.5 101 L 333 101.5 L 329.5 103 L 329.5 102 L 331.5 101 Z " /><path fill="rgb(253,119,130)" stroke="rgb(253,119,130)" stroke-width="1" opacity="0.5176470588235295" d="M 228.5 106 Q 255.66 120.84 276.5 142 Q 291.176 125.676 309.5 113 L 307.5 116 Q 289.795 127.295 276.5 143 L 273.5 143 Q 253.63 120.833 228.5 106 Z " /><path fill="rgb(253,119,130)" stroke="rgb(253,119,130)" stroke-width="1" opacity="0.5176470588235295" d="M 319.5 107 L 318.5 109 L 316.5 110 L 317.5 108 L 319.5 107 Z " /><path fill="rgb(253,119,130)" stroke="rgb(253,119,130)" stroke-width="1" opacity="0.5176470588235295" d="M 314.5 110 L 313.5 112 L 311.5 113 L 312.5 111 L 314.5 110 Z " /><path fill="rgb(253,119,130)" stroke="rgb(253,119,130)" stroke-width="1" opacity="0.5176470588235295" d="M 82.5 146 L 82 147.5 L 75.5 161 L 75 159.5 L 82.5 146 Z " /><path fill="rgb(253,119,130)" stroke="rgb(253,119,130)" stroke-width="1" opacity="0.5176470588235295" d="M 74.5 162 L 75 163.5 L 73.5 166 L 73 164.5 L 74.5 162 Z " /><path fill="rgb(253,119,130)" stroke="rgb(253,119,130)" stroke-width="1" opacity="0.5176470588235295" d="M 70.5 173 L 71 175.5 L 69.5 179 L 69 176.5 L 70.5 173 Z " /><path fill="rgb(253,119,130)" stroke="rgb(253,119,130)" stroke-width="1" opacity="0.5176470588235295" d="M 68.5 180 L 69 182.5 L 68 182.5 L 68.5 180 Z " /><path fill="rgb(253,119,130)" stroke="rgb(253,119,130)" stroke-width="1" opacity="0.5176470588235295" d="M 67.5 184 L 68 187.5 L 67 187.5 L 67.5 184 Z " /><path fill="rgb(253,119,130)" stroke="rgb(253,119,130)" stroke-width="1" opacity="0.5176470588235295" d="M 66.5 189 L 67 192.5 L 66 192.5 L 66.5 189 Z " /><path fill="rgb(253,119,130)" stroke="rgb(253,119,130)" stroke-width="1" opacity="0.5176470588235295" d="M 484.5 193 L 485 196.5 L 484 196.5 L 484.5 193 Z " /><path fill="rgb(253,119,130)" stroke="rgb(253,119,130)" stroke-width="1" opacity="0.5176470588235295" d="M 65.5 195 L 66 200.5 L 65 200.5 L 65.5 195 Z " /><path fill="rgb(253,119,130)" stroke="rgb(253,119,130)" stroke-width="1" opacity="0.5176470588235295" d="M 485.5 201 L 486 206.5 L 485 206.5 L 485.5 201 Z " /><path fill="rgb(253,119,130)" stroke="rgb(253,119,130)" stroke-width="1" opacity="0.5176470588235295" d="M 64.5 203 L 65 228.5 L 64 228.5 L 64.5 203 Z " /><path fill="rgb(253,119,130)" stroke="rgb(253,119,130)" stroke-width="1" opacity="0.5176470588235295" d="M 485.5 224 L 486 230.5 L 485 230.5 L 485.5 224 Z " /><path fill="rgb(253,119,130)" stroke="rgb(253,119,130)" stroke-width="1" opacity="0.5176470588235295" d="M 65.5 231 L 66 236.5 L 65 236.5 L 65.5 231 Z " /><path fill="rgb(253,119,130)" stroke="rgb(253,119,130)" stroke-width="1" opacity="0.5176470588235295" d="M 484.5 235 L 485 237.5 L 484 237.5 L 484.5 235 Z " /><path fill="rgb(253,119,130)" stroke="rgb(253,119,130)" stroke-width="1" opacity="0.5176470588235295" d="M 66.5 238 L 67 242.5 L 66 242.5 L 66.5 238 Z " /><path fill="rgb(253,119,130)" stroke="rgb(253,119,130)" stroke-width="1" opacity="0.5176470588235295" d="M 483.5 241 L 484 243.5 L 483 243.5 L 483.5 241 Z " /><path fill="rgb(253,119,130)" stroke="rgb(253,119,130)" stroke-width="1" opacity="0.5176470588235295" d="M 67.5 244 L 68 247.5 L 67 247.5 L 67.5 244 Z " /><path fill="rgb(253,119,130)" stroke="rgb(253,119,130)" stroke-width="1" opacity="0.5176470588235295" d="M 482.5 246 L 483 248.5 L 482 248.5 L 482.5 246 Z " /><path fill="rgb(253,119,130)" stroke="rgb(253,119,130)" stroke-width="1" opacity="0.5176470588235295" d="M 68.5 249 L 69 251.5 L 68 251.5 L 68.5 249 Z " /><path fill="rgb(253,119,130)" stroke="rgb(253,119,130)" stroke-width="1" opacity="0.5176470588235295" d="M 481.5 250 L 482 252.5 L 481 252.5 L 481.5 250 Z " /><path fill="rgb(253,119,130)" stroke="rgb(253,119,130)" stroke-width="1" opacity="0.5176470588235295" d="M 69.5 253 L 74 266.5 L 73 266.5 Q 67.35 260.65 69.5 253 Z " /><path fill="rgb(253,119,130)" stroke="rgb(253,119,130)" stroke-width="1" opacity="0.5176470588235295" d="M 74.5 268 L 77 273.5 L 76 273.5 L 74.5 268 Z " /><path fill="rgb(253,119,130)" stroke="rgb(253,119,130)" stroke-width="1" opacity="0.5176470588235295" d="M 474.5 271 L 475 272.5 L 473.5 275 L 473 273.5 L 474.5 271 Z " /><path fill="rgb(253,119,130)" stroke="rgb(253,119,130)" stroke-width="1" opacity="0.5176470588235295" d="M 77.5 275 Q 96.27 312.73 128 337.5 L 125.5 339 L 125.5 338 L 127 337.5 L 91 299.5 Q 81.021 288.706 77.5 275 Z " /><path fill="rgb(253,119,130)" stroke="rgb(253,119,130)" stroke-width="1" opacity="0.5176470588235295" d="M 469.5 282 L 469 283.5 L 467.5 286 L 468 284.5 L 469.5 282 Z " /><path fill="rgb(253,119,130)" stroke="rgb(253,119,130)" stroke-width="1" opacity="0.5176470588235295" d="M 465.5 289 L 464.5 291 L 465.5 289 Z " /><path fill="rgb(253,119,130)" stroke="rgb(253,119,130)" stroke-width="1" opacity="0.5176470588235295" d="M 463.5 292 L 462.5 294 L 463.5 292 Z " /><path fill="rgb(253,119,130)" stroke="rgb(253,119,130)" stroke-width="1" opacity="0.5176470588235295" d="M 461.5 295 L 460 297.5 L 456.5 302 L 459 298.5 L 461.5 295 Z " /><path fill="rgb(253,119,130)" stroke="rgb(253,119,130)" stroke-width="1" opacity="0.5176470588235295" d="M 455.5 303 L 449.5 310 L 455.5 303 Z " /><path fill="rgb(253,119,130)" stroke="rgb(253,119,130)" stroke-width="1" opacity="0.5176470588235295" d="M 445.5 314 L 407.5 353 L 445.5 314 Z " /><path fill="rgb(253,119,130)" stroke="rgb(253,119,130)" stroke-width="1" opacity="0.5176470588235295" d="M 404.5 356 L 365.5 396 L 404.5 356 Z " /><path fill="rgb(253,119,130)" stroke="rgb(253,119,130)" stroke-width="1" opacity="0.5176470588235295" d="M 362.5 399 L 340.5 423 L 342 423.5 L 340.5 424 L 338 423.5 L 362.5 399 Z " /><path fill="rgb(253,119,130)" stroke="rgb(253,119,130)" stroke-width="1" opacity="0.5176470588235295" d="M 443.5 410 L 444.5 412 L 443.5 410 Z " /><path fill="rgb(253,119,130)" stroke="rgb(253,119,130)" stroke-width="1" opacity="0.5176470588235295" d="M 446.5 412 L 447.5 414 L 446.5 412 Z " /><path fill="rgb(253,119,130)" stroke="rgb(253,119,130)" stroke-width="1" opacity="0.5176470588235295" d="M 453.5 425 L 454 430.5 L 453 430.5 L 453.5 425 Z " /><path fill="rgb(253,119,130)" stroke="rgb(253,119,130)" stroke-width="1" opacity="0.5176470588235295" d="M 449.5 441 L 448.5 443 L 449.5 441 Z " /><path fill="rgb(253,119,130)" stroke="rgb(253,119,130)" stroke-width="1" opacity="0.5176470588235295" d="M 447.5 444 L 443.5 449 L 447.5 444 Z " /><path fill="rgb(253,119,130)" stroke="rgb(253,119,130)" stroke-width="1" opacity="0.5176470588235295" d="M 441.5 449 L 440.5 451 L 441.5 449 Z " /><path fill="rgb(253,119,130)" stroke="rgb(253,119,130)" stroke-width="1" opacity="0.5176470588235295" d="M 237.5 507 L 240 507.5 L 237.5 508 L 237.5 507 Z " /><path fill="rgb(253,119,130)" stroke="rgb(253,119,130)" stroke-width="1" opacity="0.5176470588235295" d="M 260.5 507 L 263 507.5 L 260.5 508 L 260.5 507 Z " /><path fill="rgb(253,117,125)" stroke="rgb(253,117,125)" stroke-width="1" opacity="0.996078431372549" d="M 341.5 98 Q 347.625 96.167 345 103.5 Q 352.61 136.39 375.5 154 Q 396.069 173.931 438.5 172 Q 459.548 169.048 473.5 159 Q 487.175 183.825 486 223.5 Q 482.277 267.277 462 294.5 L 449 310.5 L 337.5 424 Q 320.735 431.235 295.5 430 L 233 418.5 Q 255.806 405.306 274.5 388 Q 297.406 389.906 307 378.5 Q 314.143 372.643 312 357.5 L 308 349.5 Q 320.75 333.75 329 313.5 Q 338.589 293.589 342 267.5 L 354 246 L 416.5 246 L 422 241.5 L 423 237.5 L 417.5 230 L 347.5 230 L 346.5 231 Q 342.513 157.987 309 114.5 Q 322.929 103.929 341.5 98 Z " /><path fill="rgb(209,231,241)" stroke="rgb(209,231,241)" stroke-width="1" opacity="0.9921568627450981" d="M 415.5 4 Q 472.351 1.649 494 34.5 Q 515.028 55.472 512 100.5 Q 505.474 134.974 482.5 153 L 474.5 159 Q 473 156.5 471.5 160 Q 453.368 172.368 422.5 172 Q 381.443 166.557 362 139.5 Q 343.095 118.405 344 77.5 Q 349.947 41.447 373.5 23 Q 389.616 8.616 415.5 4 Z M 428 49 L 425 50 L 420 56 L 420 80 L 396 80 L 390 85 L 391 93 L 396 96 L 420 96 L 420 121 L 421 123 Q 423 128 432 126 L 436 122 L 436 96 L 461 96 L 463 95 L 467 89 L 466 85 L 461 80 L 436 80 L 436 55 L 434 51 L 428 49 Z " /><path fill="rgb(209,231,241)" stroke="rgb(209,231,241)" stroke-width="1" opacity="0.9921568627450981" d="M 274.5 191 Q 281.375 190.125 283 194.5 L 323.5 268 L 343 234.5 L 346.5 231 L 417.5 231 L 420 232 L 422 239.5 L 417.5 245 L 354.5 245 L 354 246.5 Q 343.284 271.284 326.5 290 L 321.5 291 L 316 286.5 L 276.5 214 Q 263.094 244.594 243.5 269 L 237.5 270 L 234 267.5 L 214.5 237 L 198.5 263 L 196.5 264 L 144.5 264 L 139 259.5 Q 138.25 253.375 140 251 L 143.5 249 L 189.5 249 L 192 246.5 L 210.5 216 L 216.5 215 L 222 219.5 L 239.5 247 L 268 197.5 L 272.5 192 L 274.5 191 Z " /><path fill="rgb(209,231,241)" stroke="rgb(209,231,241)" stroke-width="1" opacity="0.9921568627450981" d="M 2.5 334 L 68.5 334 L 72 336.5 Q 74.5 402 71 461.5 Q 75.25 464.75 72 475.5 L 70.5 477 L 1.5 477 L 0 475.5 L 0 335 L 2.5 334 Z " /><path fill="rgb(253,128,135)" stroke="rgb(253,128,135)" stroke-width="1" opacity="1" d="M 425.5 50 Q 433.094 48.906 435 53.5 Q 439 63.542 436 80 L 459.5 80 L 465 83.5 L 466 90.5 L 463.5 94 L 461.5 95 L 436 95 L 436 119.5 L 432.5 125 L 426.5 126 L 421 121.5 L 421 96.5 L 419.5 95 L 394.5 95 L 391 91.5 L 390 86.5 L 392 82 Q 401.833 77 421 80 L 421 54.5 L 423.5 51 L 425.5 50 Z " /><path fill="rgb(253,128,135)" stroke="rgb(253,128,135)" stroke-width="1" opacity="1" d="M 163.5 92 Q 200.25 91.25 223.5 104 Q 253.504 119.996 276.5 143 Q 290.497 126.997 308.5 115 Q 343.271 158.033 346 232 Q 343.333 230.875 344 233.5 L 323.5 267 L 287 200.5 L 279.5 191 Q 272.25 189.75 270 193.5 L 239.5 247 L 219.5 216 L 211.5 215 L 207 219.5 L 189.5 248 L 146.5 248 Q 140.95 248.45 139 252.5 L 138 258.5 L 142.5 264 L 197.5 264 L 202 259.5 L 214.5 238 L 232 265.5 L 236.5 270 Q 245.25 271.75 247 266.5 L 276.5 215 L 314 284.5 L 319.5 291 Q 328.25 292.75 330 287.5 L 341.5 268 L 342 272.5 Q 332.143 317.643 308.5 349 Q 306.25 349.75 307 347.5 Q 298.522 336.978 283.5 333 L 278.5 333 L 239.5 325 L 215.5 324 L 214.5 325 L 198.5 326 Q 165.295 333.795 128.5 338 Q 96.329 312.671 77 274.5 Q 62.409 246.591 65 201.5 Q 73.532 142.032 111.5 112 Q 131.122 95.622 163.5 92 Z " /><path fill="rgb(253,128,135)" stroke="rgb(253,128,135)" stroke-width="1" opacity="1" d="M 362.5 140 L 363.5 142 L 362.5 140 Z " /><path fill="rgb(253,128,135)" stroke="rgb(253,128,135)" stroke-width="1" opacity="1" d="M 374.5 152 L 375.5 154 L 374.5 152 Z " /><path fill="rgb(253,128,135)" stroke="rgb(253,128,135)" stroke-width="1" opacity="1" d="M 306.5 378 L 305.5 380 L 306.5 378 Z " /><path fill="rgb(253,128,135)" stroke="rgb(253,128,135)" stroke-width="1" opacity="1" d="M 223.5 381 L 279 387.5 L 274.5 388 Q 255.491 405.491 232.5 419 Q 218.834 418.166 212 410.5 Q 208.255 406.245 208 398.5 Q 209.625 387.625 217.5 383 L 223.5 381 Z " /><path fill="rgb(253,128,135)" stroke="rgb(253,128,135)" stroke-width="1" opacity="1" d="M 285.5 387 L 288 387.5 L 285.5 388 L 285.5 387 Z " /><path fill="rgb(0,0,0)" stroke="rgb(0,0,0)" stroke-width="1" opacity="0" d="M 0 0 L 511.5 0 L 512 0.5 L 512 74.5 L 511 74.5 Q 505.036 39.464 481.5 22 Q 460.528 0.972 415.5 4 Q 381.17 10.67 363 33.5 Q 341.905 54.284 344 97 Q 326.407 101.481 312.5 111 Q 292.098 124.098 276.5 142 L 273.5 142 Q 250.894 115.106 216.5 100 Q 196.743 91.257 168.5 91 Q 121.536 94.536 99 122.5 Q 62.506 156.506 64 228.5 Q 67.337 260.163 80 282.5 Q 99.068 314.432 127 337.5 L 124.5 339 L 72 347 Q 74.75 337.818 70.5 335 L 68.5 334 L 2.5 334 L 0 335 L 0 0 Z " /><path fill="rgb(0,0,0)" stroke="rgb(0,0,0)" stroke-width="1" opacity="0" d="M 511.5 101 L 512 512 L 0.5 512 L 0 511.5 L 0 476.5 L 1.5 477 L 70.5 477 L 72 475.5 Q 68.15 462.55 75.5 464 L 226.5 506 Q 241.577 509.923 262.5 508 L 287.5 502 L 433.5 455 Q 442.443 451.443 448 444.5 Q 454.328 438.328 454 425.5 Q 452.729 416.271 446.5 412 Q 438 404.5 419.5 407 L 405.5 411 Q 370.961 415.961 339.5 424 L 363 399.5 L 446 314.5 L 466 289.5 Q 488.588 258.088 486 201.5 Q 483.189 177.311 475 158.5 L 494 141.5 Q 507.848 126.348 511.5 101 Z " /><path fill="rgb(253,208,163)" stroke="rgb(253,208,163)" stroke-width="1" opacity="0.9921568627450981" d="M 427.5 49 L 430 49.5 L 427.5 50 L 427.5 49 Z " /><path fill="rgb(253,208,163)" stroke="rgb(253,208,163)" stroke-width="1" opacity="0.9921568627450981" d="M 420.5 55 L 421 79.5 L 420 79.5 L 420.5 55 Z " /><path fill="rgb(253,208,163)" stroke="rgb(253,208,163)" stroke-width="1" opacity="0.9921568627450981" d="M 391.5 83 L 391 84.5 L 390.5 86 L 390 84.5 L 391.5 83 Z " /><path fill="rgb(253,208,163)" stroke="rgb(253,208,163)" stroke-width="1" opacity="0.9921568627450981" d="M 391.5 92 L 393.5 95 L 391.5 92 Z " /><path fill="rgb(253,208,163)" stroke="rgb(253,208,163)" stroke-width="1" opacity="0.9921568627450981" d="M 395.5 95 L 419.5 95 L 421 96.5 L 420.5 121 L 420 96 L 395.5 96 L 395.5 95 Z " /><path fill="rgb(253,208,163)" stroke="rgb(253,208,163)" stroke-width="1" opacity="0.9921568627450981" d="M 436.5 95 L 461 95.5 L 436.5 96 L 436.5 95 Z " /><path fill="rgb(253,208,163)" stroke="rgb(253,208,163)" stroke-width="1" opacity="0.9921568627450981" d="M 345.5 100 L 346 102.5 L 345 102.5 L 345.5 100 Z " /><path fill="rgb(253,208,163)" stroke="rgb(253,208,163)" stroke-width="1" opacity="0.9921568627450981" d="M 435.5 120 L 436 121.5 L 434 122.5 L 435.5 120 Z " /><path fill="rgb(253,208,163)" stroke="rgb(253,208,163)" stroke-width="1" opacity="0.9921568627450981" d="M 421.5 122 L 426 125.5 L 424.5 126 L 421.5 122 Z " /><path fill="rgb(253,208,163)" stroke="rgb(253,208,163)" stroke-width="1" opacity="0.9921568627450981" d="M 356.5 131 L 357.5 133 L 356.5 131 Z " /><path fill="rgb(253,208,163)" stroke="rgb(253,208,163)" stroke-width="1" opacity="0.9921568627450981" d="M 358.5 134 L 359.5 136 L 358.5 134 Z " /><path fill="rgb(253,208,163)" stroke="rgb(253,208,163)" stroke-width="1" opacity="0.9921568627450981" d="M 360.5 137 L 361.5 139 L 360.5 137 Z " /><path fill="rgb(253,208,163)" stroke="rgb(253,208,163)" stroke-width="1" opacity="0.9921568627450981" d="M 364.5 142 L 373.5 152 L 364.5 142 Z " /><path fill="rgb(253,208,163)" stroke="rgb(253,208,163)" stroke-width="1" opacity="0.9921568627450981" d="M 377.5 154 L 378.5 156 L 377.5 154 Z " /><path fill="rgb(253,208,163)" stroke="rgb(253,208,163)" stroke-width="1" opacity="0.9921568627450981" d="M 418.5 171 L 422 171.5 L 418.5 172 L 418.5 171 Z " /><path fill="rgb(253,208,163)" stroke="rgb(253,208,163)" stroke-width="1" opacity="0.9921568627450981" d="M 435.5 171 L 438 171.5 L 435.5 172 L 435.5 171 Z " /><path fill="rgb(253,208,163)" stroke="rgb(253,208,163)" stroke-width="1" opacity="0.9921568627450981" d="M 271.5 192 L 270.5 194 L 271.5 192 Z " /><path fill="rgb(253,208,163)" stroke="rgb(253,208,163)" stroke-width="1" opacity="0.9921568627450981" d="M 269.5 195 L 268.5 197 L 269.5 195 Z " /><path fill="rgb(253,208,163)" stroke="rgb(253,208,163)" stroke-width="1" opacity="0.9921568627450981" d="M 285.5 199 L 286.5 201 L 285.5 199 Z " /><path fill="rgb(253,208,163)" stroke="rgb(253,208,163)" stroke-width="1" opacity="0.9921568627450981" d="M 265.5 202 L 264.5 204 L 265.5 202 Z " /><path fill="rgb(253,208,163)" stroke="rgb(253,208,163)" stroke-width="1" opacity="0.9921568627450981" d="M 261.5 209 L 260.5 211 L 261.5 209 Z " /><path fill="rgb(253,208,163)" stroke="rgb(253,208,163)" stroke-width="1" opacity="0.9921568627450981" d="M 291.5 210 L 292.5 212 L 291.5 210 Z " /><path fill="rgb(253,208,163)" stroke="rgb(253,208,163)" stroke-width="1" opacity="0.9921568627450981" d="M 276.5 214 L 275.5 216 L 276.5 214 Z " /><path fill="rgb(253,208,163)" stroke="rgb(253,208,163)" stroke-width="1" opacity="0.9921568627450981" d="M 219.5 216 L 221.5 219 L 219.5 216 Z " /><path fill="rgb(253,208,163)" stroke="rgb(253,208,163)" stroke-width="1" opacity="0.9921568627450981" d="M 257.5 216 L 256.5 218 L 257.5 216 Z " /><path fill="rgb(253,208,163)" stroke="rgb(253,208,163)" stroke-width="1" opacity="0.9921568627450981" d="M 273.5 219 L 272.5 221 L 273.5 219 Z " /><path fill="rgb(253,208,163)" stroke="rgb(253,208,163)" stroke-width="1" opacity="0.9921568627450981" d="M 296.5 219 L 297.5 221 L 296.5 219 Z " /><path fill="rgb(253,208,163)" stroke="rgb(253,208,163)" stroke-width="1" opacity="0.9921568627450981" d="M 206.5 221 L 205.5 223 L 206.5 221 Z " /><path fill="rgb(253,208,163)" stroke="rgb(253,208,163)" stroke-width="1" opacity="0.9921568627450981" d="M 223.5 222 L 224.5 224 L 223.5 222 Z " /><path fill="rgb(253,208,163)" stroke="rgb(253,208,163)" stroke-width="1" opacity="0.9921568627450981" d="M 280.5 222 L 281.5 224 L 280.5 222 Z " /><path fill="rgb(253,208,163)" stroke="rgb(253,208,163)" stroke-width="1" opacity="0.9921568627450981" d="M 253.5 223 L 252.5 225 L 253.5 223 Z " /><path fill="rgb(253,208,163)" stroke="rgb(253,208,163)" stroke-width="1" opacity="0.9921568627450981" d="M 225.5 225 L 226.5 227 L 225.5 225 Z " /><path fill="rgb(253,208,163)" stroke="rgb(253,208,163)" stroke-width="1" opacity="0.9921568627450981" d="M 203.5 226 L 202.5 228 L 203.5 226 Z " /><path fill="rgb(253,208,163)" stroke="rgb(253,208,163)" stroke-width="1" opacity="0.9921568627450981" d="M 269.5 226 L 268.5 228 L 269.5 226 Z " /><path fill="rgb(253,208,163)" stroke="rgb(253,208,163)" stroke-width="1" opacity="0.9921568627450981" d="M 228.5 230 L 229.5 232 L 228.5 230 Z " /><path fill="rgb(253,208,163)" stroke="rgb(253,208,163)" stroke-width="1" opacity="0.9921568627450981" d="M 249.5 230 L 248.5 232 L 249.5 230 Z " /><path fill="rgb(253,208,163)" stroke="rgb(253,208,163)" stroke-width="1" opacity="0.9921568627450981" d="M 302.5 230 L 303.5 232 L 302.5 230 Z " /><path fill="rgb(253,208,163)" stroke="rgb(253,208,163)" stroke-width="1" opacity="0.9921568627450981" d="M 348.5 230 L 417 230.5 L 348.5 231 L 348.5 230 Z " /><path fill="rgb(253,208,163)" stroke="rgb(253,208,163)" stroke-width="1" opacity="0.9921568627450981" d="M 200.5 231 L 199.5 233 L 200.5 231 Z " /><path fill="rgb(253,208,163)" stroke="rgb(253,208,163)" stroke-width="1" opacity="0.9921568627450981" d="M 285.5 231 L 286.5 233 L 285.5 231 Z " /><path fill="rgb(253,208,163)" stroke="rgb(253,208,163)" stroke-width="1" opacity="0.9921568627450981" d="M 230.5 233 L 231.5 235 L 230.5 233 Z " /><path fill="rgb(253,208,163)" stroke="rgb(253,208,163)" stroke-width="1" opacity="0.9921568627450981" d="M 265.5 233 L 264.5 235 L 265.5 233 Z " /><path fill="rgb(253,208,163)" stroke="rgb(253,208,163)" stroke-width="1" opacity="0.9921568627450981" d="M 197.5 236 L 196.5 238 L 197.5 236 Z " /><path fill="rgb(253,208,163)" stroke="rgb(253,208,163)" stroke-width="1" opacity="0.9921568627450981" d="M 214.5 237 L 216.5 240 L 214.5 237 Z " /><path fill="rgb(253,208,163)" stroke="rgb(253,208,163)" stroke-width="1" opacity="0.9921568627450981" d="M 245.5 237 L 244.5 239 L 245.5 237 Z " /><path fill="rgb(253,208,163)" stroke="rgb(253,208,163)" stroke-width="1" opacity="0.9921568627450981" d="M 261.5 240 L 260.5 242 L 261.5 240 Z " /><path fill="rgb(253,208,163)" stroke="rgb(253,208,163)" stroke-width="1" opacity="0.9921568627450981" d="M 194.5 241 L 193.5 243 L 194.5 241 Z " /><path fill="rgb(253,208,163)" stroke="rgb(253,208,163)" stroke-width="1" opacity="0.9921568627450981" d="M 212.5 241 L 211.5 243 L 212.5 241 Z " /><path fill="rgb(253,208,163)" stroke="rgb(253,208,163)" stroke-width="1" opacity="0.9921568627450981" d="M 235.5 241 L 236.5 243 L 235.5 241 Z " /><path fill="rgb(253,208,163)" stroke="rgb(253,208,163)" stroke-width="1" opacity="0.9921568627450981" d="M 308.5 241 L 309.5 243 L 308.5 241 Z " /><path fill="rgb(253,208,163)" stroke="rgb(253,208,163)" stroke-width="1" opacity="0.9921568627450981" d="M 291.5 242 L 292.5 244 L 291.5 242 Z " /><path fill="rgb(253,208,163)" stroke="rgb(253,208,163)" stroke-width="1" opacity="0.9921568627450981" d="M 420.5 242 L 418.5 245 L 420.5 242 Z " /><path fill="rgb(253,208,163)" stroke="rgb(253,208,163)" stroke-width="1" opacity="0.9921568627450981" d="M 218.5 243 L 219.5 245 L 218.5 243 Z " /><path fill="rgb(253,208,163)" stroke="rgb(253,208,163)" stroke-width="1" opacity="0.9921568627450981" d="M 241.5 244 L 240.5 246 L 241.5 244 Z " /><path fill="rgb(253,208,163)" stroke="rgb(253,208,163)" stroke-width="1" opacity="0.9921568627450981" d="M 337.5 244 L 336.5 246 L 337.5 244 Z " /><path fill="rgb(253,208,163)" stroke="rgb(253,208,163)" stroke-width="1" opacity="0.9921568627450981" d="M 354.5 245 L 416 245.5 L 354.5 246 L 354.5 245 Z " /><path fill="rgb(253,208,163)" stroke="rgb(253,208,163)" stroke-width="1" opacity="0.9921568627450981" d="M 191.5 246 L 189.5 249 L 146 248.5 L 189.5 248 L 191.5 246 Z " /><path fill="rgb(253,208,163)" stroke="rgb(253,208,163)" stroke-width="1" opacity="0.9921568627450981" d="M 209.5 246 L 208.5 248 L 209.5 246 Z " /><path fill="rgb(253,208,163)" stroke="rgb(253,208,163)" stroke-width="1" opacity="0.9921568627450981" d="M 220.5 246 L 221.5 248 L 220.5 246 Z " /><path fill="rgb(253,208,163)" stroke="rgb(253,208,163)" stroke-width="1" opacity="0.9921568627450981" d="M 257.5 247 L 256.5 249 L 257.5 247 Z " /><path fill="rgb(253,208,163)" stroke="rgb(253,208,163)" stroke-width="1" opacity="0.9921568627450981" d="M 142.5 249 L 141.5 251 L 142.5 249 Z " /><path fill="rgb(253,208,163)" stroke="rgb(253,208,163)" stroke-width="1" opacity="0.9921568627450981" d="M 334.5 249 L 333.5 251 L 334.5 249 Z " /><path fill="rgb(253,208,163)" stroke="rgb(253,208,163)" stroke-width="1" opacity="0.9921568627450981" d="M 313.5 250 L 316 253.5 L 314 252.5 L 313.5 250 Z " /><path fill="rgb(253,208,163)" stroke="rgb(253,208,163)" stroke-width="1" opacity="0.9921568627450981" d="M 206.5 251 L 205.5 253 L 206.5 251 Z " /><path fill="rgb(253,208,163)" stroke="rgb(253,208,163)" stroke-width="1" opacity="0.9921568627450981" d="M 350.5 252 L 349.5 254 L 350.5 252 Z " /><path fill="rgb(253,208,163)" stroke="rgb(253,208,163)" stroke-width="1" opacity="0.9921568627450981" d="M 297.5 253 L 298.5 255 L 297.5 253 Z " /><path fill="rgb(253,208,163)" stroke="rgb(253,208,163)" stroke-width="1" opacity="0.9921568627450981" d="M 138.5 254 L 139 258.5 L 138 258.5 L 138.5 254 Z " /><path fill="rgb(253,208,163)" stroke="rgb(253,208,163)" stroke-width="1" opacity="0.9921568627450981" d="M 225.5 254 L 226.5 256 L 225.5 254 Z " /><path fill="rgb(253,208,163)" stroke="rgb(253,208,163)" stroke-width="1" opacity="0.9921568627450981" d="M 253.5 254 L 252.5 256 L 253.5 254 Z " /><path fill="rgb(253,208,163)" stroke="rgb(253,208,163)" stroke-width="1" opacity="0.9921568627450981" d="M 331.5 254 L 330.5 256 L 331.5 254 Z " /><path fill="rgb(253,208,163)" stroke="rgb(253,208,163)" stroke-width="1" opacity="0.9921568627450981" d="M 203.5 256 L 202.5 258 L 203.5 256 Z " /><path fill="rgb(253,208,163)" stroke="rgb(253,208,163)" stroke-width="1" opacity="0.9921568627450981" d="M 347.5 257 L 346.5 259 L 347.5 257 Z " /><path fill="rgb(253,208,163)" stroke="rgb(253,208,163)" stroke-width="1" opacity="0.9921568627450981" d="M 201.5 259 L 200.5 261 L 201.5 259 Z " /><path fill="rgb(253,208,163)" stroke="rgb(253,208,163)" stroke-width="1" opacity="0.9921568627450981" d="M 328.5 259 L 327.5 261 L 328.5 259 Z " /><path fill="rgb(253,208,163)" stroke="rgb(253,208,163)" stroke-width="1" opacity="0.9921568627450981" d="M 139.5 260 L 144 263.5 L 142.5 264 L 139.5 260 Z " /><path fill="rgb(253,208,163)" stroke="rgb(253,208,163)" stroke-width="1" opacity="0.9921568627450981" d="M 249.5 261 L 248.5 263 L 249.5 261 Z " /><path fill="rgb(253,208,163)" stroke="rgb(253,208,163)" stroke-width="1" opacity="0.9921568627450981" d="M 319.5 261 L 320.5 263 L 319.5 261 Z " /><path fill="rgb(253,208,163)" stroke="rgb(253,208,163)" stroke-width="1" opacity="0.9921568627450981" d="M 230.5 262 L 231.5 264 L 230.5 262 Z " /><path fill="rgb(253,208,163)" stroke="rgb(253,208,163)" stroke-width="1" opacity="0.9921568627450981" d="M 302.5 262 L 303.5 264 L 302.5 262 Z " /><path fill="rgb(253,208,163)" stroke="rgb(253,208,163)" stroke-width="1" opacity="0.9921568627450981" d="M 325.5 264 L 324.5 266 L 325.5 264 Z " /><path fill="rgb(253,208,163)" stroke="rgb(253,208,163)" stroke-width="1" opacity="0.9921568627450981" d="M 232.5 265 L 233.5 267 L 232.5 265 Z " /><path fill="rgb(253,208,163)" stroke="rgb(253,208,163)" stroke-width="1" opacity="0.9921568627450981" d="M 246.5 266 L 243.5 270 L 242 269.5 L 246.5 266 Z " /><path fill="rgb(253,208,163)" stroke="rgb(253,208,163)" stroke-width="1" opacity="0.9921568627450981" d="M 322.5 266 L 323.5 268 L 322.5 266 Z " /><path fill="rgb(253,208,163)" stroke="rgb(253,208,163)" stroke-width="1" opacity="0.9921568627450981" d="M 340.5 269 L 339.5 271 L 340.5 269 Z " /><path fill="rgb(253,208,163)" stroke="rgb(253,208,163)" stroke-width="1" opacity="0.9921568627450981" d="M 308.5 273 L 309.5 275 L 308.5 273 Z " /><path fill="rgb(253,208,163)" stroke="rgb(253,208,163)" stroke-width="1" opacity="0.9921568627450981" d="M 337.5 274 L 336.5 276 L 337.5 274 Z " /><path fill="rgb(253,208,163)" stroke="rgb(253,208,163)" stroke-width="1" opacity="0.9921568627450981" d="M 334.5 279 L 333.5 281 L 334.5 279 Z " /><path fill="rgb(253,208,163)" stroke="rgb(253,208,163)" stroke-width="1" opacity="0.9921568627450981" d="M 313.5 282 L 316 285.5 L 314 284.5 L 313.5 282 Z " /><path fill="rgb(253,208,163)" stroke="rgb(253,208,163)" stroke-width="1" opacity="0.9921568627450981" d="M 331.5 284 L 330.5 286 L 331.5 284 Z " /><path fill="rgb(253,208,163)" stroke="rgb(253,208,163)" stroke-width="1" opacity="0.9921568627450981" d="M 316.5 287 L 321 290.5 L 319.5 291 L 316.5 287 Z " /><path fill="rgb(253,208,163)" stroke="rgb(253,208,163)" stroke-width="1" opacity="0.9921568627450981" d="M 329.5 287 L 326.5 291 L 325 290.5 L 329.5 287 Z " /><path fill="rgb(253,208,163)" stroke="rgb(253,208,163)" stroke-width="1" opacity="0.9921568627450981" d="M 209.5 325 L 236.5 325 L 281.5 333 Q 299.229 336.771 308 349.5 L 309 354.5 Q 300.544 367.544 278.5 367 L 277.5 366 L 269.5 366 L 268.5 365 L 260.5 365 L 259.5 364 L 223.5 360 Q 216.75 361.25 213 365.5 Q 207.975 370.475 208 380.5 L 211 389.5 Q 207.1 393.6 208 402.5 Q 209.85 410.15 215.5 414 L 225.5 418 L 230.5 418 L 291.5 430 L 305.5 431 Q 332.415 427.415 355.5 420 L 357.5 420 Q 366.079 420.079 371.5 417 L 373.5 417 Q 393.342 416.342 407.5 410 Q 409 412.5 410.5 409 Q 420.75 405.75 435.5 407 L 449 414 L 451 417.5 L 441.5 429 L 429.5 435 L 282.5 482 Q 265.696 488.696 240.5 487 L 220.5 483 L 209.5 479 L 72 442 L 71.5 462 L 71 442.5 L 72 441.5 L 72 348.5 L 73.5 347 Q 83.423 347.423 89.5 344 L 91.5 344 L 95.5 343 L 97.5 343 Q 107.011 343.011 113.5 340 L 115.5 340 L 119.5 339 L 121.5 340 L 128.5 338 L 130.5 338 Q 164.241 334.241 194.5 327 L 208.5 326 L 209.5 325 Z " /><path fill="rgb(254,188,133)" stroke="rgb(254,188,133)" stroke-width="1" opacity="0.9882352941176471" d="M 215.5 324 L 231 324.5 L 215.5 325 L 215.5 324 Z " /><path fill="rgb(254,188,133)" stroke="rgb(254,188,133)" stroke-width="1" opacity="0.9882352941176471" d="M 205.5 325 L 209 325.5 L 205.5 326 L 205.5 325 Z " /><path fill="rgb(254,188,133)" stroke="rgb(254,188,133)" stroke-width="1" opacity="0.9882352941176471" d="M 237.5 325 L 240 325.5 L 237.5 326 L 237.5 325 Z " /><path fill="rgb(254,188,133)" stroke="rgb(254,188,133)" stroke-width="1" opacity="0.9882352941176471" d="M 198.5 326 L 201 326.5 L 198.5 327 L 198.5 326 Z " /><path fill="rgb(254,188,133)" stroke="rgb(254,188,133)" stroke-width="1" opacity="0.9882352941176471" d="M 300.5 341 L 306.5 348 L 300.5 341 Z " /><path fill="rgb(254,188,133)" stroke="rgb(254,188,133)" stroke-width="1" opacity="0.9882352941176471" d="M 309.5 353 Q 313.964 357.536 312 368.5 Q 309.55 377.55 302.5 382 Q 294.416 388.416 279.5 388 L 278.5 387 L 268.5 387 L 267.5 386 L 259.5 386 L 258.5 385 Q 238.563 385.438 223.5 381 Q 215 382.5 211.5 389 Q 207.782 384.718 208 376.5 Q 209.685 368.685 214.5 364 Q 218.757 359.757 227.5 360 Q 254.631 365.369 285.5 367 Q 301.964 365.464 309 354.5 L 309.5 353 Z " /><path fill="rgb(254,188,133)" stroke="rgb(254,188,133)" stroke-width="1" opacity="0.9882352941176471" d="M 208.5 400 L 209 402.5 L 208 402.5 L 208.5 400 Z " /><path fill="rgb(254,188,133)" stroke="rgb(254,188,133)" stroke-width="1" opacity="0.9882352941176471" d="M 450.5 418 Q 454.964 422.536 453 433.5 Q 449.917 443.417 442.5 449 L 429.5 456 L 282.5 503 Q 265.696 509.696 240.5 508 L 220.5 504 L 209.5 500 L 72 463 L 72 442.5 L 73.5 442 L 228.5 485 Q 241.643 488.357 259.5 487 L 282.5 482 L 429.5 435 Q 441.333 431.333 448 422.5 L 450.5 418 Z " /><path fill="rgb(254,188,133)" stroke="rgb(254,188,133)" stroke-width="1" opacity="0.9882352941176471" d="M 300.5 430 L 306 430.5 L 300.5 431 L 300.5 430 Z " /></svg>