<svg width="512" height="512" version="1.1" xmlns="http://www.w3.org/2000/svg" desc="Created with imagetracer.js version 1.2.6" ><path fill="rgb(255,185,136)" stroke="rgb(255,185,136)" stroke-width="1" opacity="0.996078431372549" d="M 254.5 31 L 263 31.5 L 254.5 32 L 254.5 31 Z " /><path fill="rgb(255,185,136)" stroke="rgb(255,185,136)" stroke-width="1" opacity="0.996078431372549" d="M 310.5 47 L 311.5 49 L 310.5 47 Z " /><path fill="rgb(255,185,136)" stroke="rgb(255,185,136)" stroke-width="1" opacity="0.996078431372549" d="M 313.5 49 L 314.5 51 L 313.5 49 Z " /><path fill="rgb(255,185,136)" stroke="rgb(255,185,136)" stroke-width="1" opacity="0.996078431372549" d="M 317.5 52 L 318.5 54 L 317.5 52 Z " /><path fill="rgb(255,185,136)" stroke="rgb(255,185,136)" stroke-width="1" opacity="0.996078431372549" d="M 321.5 55 L 324.5 59 L 321.5 55 Z " /><path fill="rgb(255,185,136)" stroke="rgb(255,185,136)" stroke-width="1" opacity="0.996078431372549" d="M 165.5 61 L 164.5 63 L 165.5 61 Z " /><path fill="rgb(255,185,136)" stroke="rgb(255,185,136)" stroke-width="1" opacity="0.996078431372549" d="M 160.5 65 L 159.5 67 L 160.5 65 Z " /><path fill="rgb(255,185,136)" stroke="rgb(255,185,136)" stroke-width="1" opacity="0.996078431372549" d="M 336.5 70 L 339.5 74 L 336.5 70 Z " /><path fill="rgb(255,185,136)" stroke="rgb(255,185,136)" stroke-width="1" opacity="0.996078431372549" d="M 153.5 71 L 144.5 81 L 153.5 71 Z " /><path fill="rgb(255,185,136)" stroke="rgb(255,185,136)" stroke-width="1" opacity="0.996078431372549" d="M 341.5 76 L 342.5 78 L 341.5 76 Z " /><path fill="rgb(255,185,136)" stroke="rgb(255,185,136)" stroke-width="1" opacity="0.996078431372549" d="M 344.5 80 L 345.5 82 L 344.5 80 Z " /><path fill="rgb(255,185,136)" stroke="rgb(255,185,136)" stroke-width="1" opacity="0.996078431372549" d="M 139.5 86 L 138.5 88 L 139.5 86 Z " /><path fill="rgb(255,185,136)" stroke="rgb(255,185,136)" stroke-width="1" opacity="0.996078431372549" d="M 350.5 89 L 351.5 91 L 350.5 89 Z " /><path fill="rgb(255,185,136)" stroke="rgb(255,185,136)" stroke-width="1" opacity="0.996078431372549" d="M 353.5 94 L 354.5 96 L 353.5 94 Z " /><path fill="rgb(255,185,136)" stroke="rgb(255,185,136)" stroke-width="1" opacity="0.996078431372549" d="M 196.5 115 L 193.5 119 L 196.5 115 Z " /><path fill="rgb(255,185,136)" stroke="rgb(255,185,136)" stroke-width="1" opacity="0.996078431372549" d="M 315.5 115 L 318.5 119 L 315.5 115 Z " /><path fill="rgb(255,185,136)" stroke="rgb(255,185,136)" stroke-width="1" opacity="0.996078431372549" d="M 191.5 120 L 188.5 124 L 191.5 120 Z " /><path fill="rgb(255,185,136)" stroke="rgb(255,185,136)" stroke-width="1" opacity="0.996078431372549" d="M 320.5 120 L 323.5 124 L 320.5 120 Z " /><path fill="rgb(255,185,136)" stroke="rgb(255,185,136)" stroke-width="1" opacity="0.996078431372549" d="M 371.5 139 L 372 141.5 L 371 141.5 L 371.5 139 Z " /><path fill="rgb(255,185,136)" stroke="rgb(255,185,136)" stroke-width="1" opacity="0.996078431372549" d="M 299.5 144 L 300.5 146 L 299.5 144 Z " /><path fill="rgb(255,185,136)" stroke="rgb(255,185,136)" stroke-width="1" opacity="0.996078431372549" d="M 373.5 149 L 374 151.5 L 373 151.5 L 373.5 149 Z " /><path fill="rgb(255,185,136)" stroke="rgb(255,185,136)" stroke-width="1" opacity="0.996078431372549" d="M 254.5 155 L 258 155.5 L 254.5 156 L 254.5 155 Z " /><path fill="rgb(255,185,136)" stroke="rgb(255,185,136)" stroke-width="1" opacity="0.996078431372549" d="M 374.5 155 L 375 158.5 L 374 158.5 L 374.5 155 Z " /><path fill="rgb(255,185,136)" stroke="rgb(255,185,136)" stroke-width="1" opacity="0.996078431372549" d="M 375.5 164 L 376 168.5 L 375 168.5 L 375.5 164 Z " /><path fill="rgb(255,185,136)" stroke="rgb(255,185,136)" stroke-width="1" opacity="0.996078431372549" d="M 166.5 186 L 167 188.5 L 166 188.5 L 166.5 186 Z " /><path fill="rgb(255,185,136)" stroke="rgb(255,185,136)" stroke-width="1" opacity="0.996078431372549" d="M 375.5 196 L 376 201.5 L 375 201.5 L 375.5 196 Z " /><path fill="rgb(255,185,136)" stroke="rgb(255,185,136)" stroke-width="1" opacity="0.996078431372549" d="M 275.5 201 L 274.5 203 L 275.5 201 Z " /><path fill="rgb(255,185,136)" stroke="rgb(255,185,136)" stroke-width="1" opacity="0.996078431372549" d="M 374.5 206 L 375 209.5 L 374 209.5 L 374.5 206 Z " /><path fill="rgb(255,185,136)" stroke="rgb(255,185,136)" stroke-width="1" opacity="0.996078431372549" d="M 373.5 213 L 374 215.5 L 373 215.5 L 373.5 213 Z " /><path fill="rgb(255,185,136)" stroke="rgb(255,185,136)" stroke-width="1" opacity="0.996078431372549" d="M 187.5 240 L 188.5 242 L 187.5 240 Z " /><path fill="rgb(255,185,136)" stroke="rgb(255,185,136)" stroke-width="1" opacity="0.996078431372549" d="M 253.5 240 L 259 240.5 L 253.5 241 L 253.5 240 Z " /><path fill="rgb(255,185,136)" stroke="rgb(255,185,136)" stroke-width="1" opacity="0.996078431372549" d="M 324.5 240 L 323.5 242 L 324.5 240 Z " /><path fill="rgb(255,185,136)" stroke="rgb(255,185,136)" stroke-width="1" opacity="0.996078431372549" d="M 197.5 250 L 198.5 252 L 197.5 250 Z " /><path fill="rgb(255,185,136)" stroke="rgb(255,185,136)" stroke-width="1" opacity="0.996078431372549" d="M 314.5 250 L 313.5 252 L 314.5 250 Z " /><path fill="rgb(255,185,136)" stroke="rgb(255,185,136)" stroke-width="1" opacity="0.996078431372549" d="M 353.5 271 L 352.5 273 L 353.5 271 Z " /><path fill="rgb(255,185,136)" stroke="rgb(255,185,136)" stroke-width="1" opacity="0.996078431372549" d="M 350.5 276 L 349.5 278 L 350.5 276 Z " /><path fill="rgb(255,185,136)" stroke="rgb(255,185,136)" stroke-width="1" opacity="0.996078431372549" d="M 348.5 279 L 347.5 281 L 348.5 279 Z " /><path fill="rgb(255,185,136)" stroke="rgb(255,185,136)" stroke-width="1" opacity="0.996078431372549" d="M 346.5 282 L 345.5 284 L 346.5 282 Z " /><path fill="rgb(255,185,136)" stroke="rgb(255,185,136)" stroke-width="1" opacity="0.996078431372549" d="M 143.5 283 L 145.5 286 L 143.5 283 Z " /><path fill="rgb(255,185,136)" stroke="rgb(255,185,136)" stroke-width="1" opacity="0.996078431372549" d="M 343.5 286 L 342.5 288 L 343.5 286 Z " /><path fill="rgb(255,185,136)" stroke="rgb(255,185,136)" stroke-width="1" opacity="0.996078431372549" d="M 340.5 290 L 338.5 293 L 340.5 290 Z " /><path fill="rgb(255,185,136)" stroke="rgb(255,185,136)" stroke-width="1" opacity="0.996078431372549" d="M 152.5 292 L 155.5 296 L 152.5 292 Z " /><path fill="rgb(255,185,136)" stroke="rgb(255,185,136)" stroke-width="1" opacity="0.996078431372549" d="M 334.5 297 L 326.5 306 L 334.5 297 Z " /><path fill="rgb(255,185,136)" stroke="rgb(255,185,136)" stroke-width="1" opacity="0.996078431372549" d="M 322.5 308 L 320.5 311 L 322.5 308 Z " /><path fill="rgb(255,185,136)" stroke="rgb(255,185,136)" stroke-width="1" opacity="0.996078431372549" d="M 317.5 312 L 316.5 314 L 317.5 312 Z " /><path fill="rgb(255,185,136)" stroke="rgb(255,185,136)" stroke-width="1" opacity="0.996078431372549" d="M 313.5 315 L 312.5 317 L 313.5 315 Z " /><path fill="rgb(255,185,136)" stroke="rgb(255,185,136)" stroke-width="1" opacity="0.996078431372549" d="M 303.5 321 L 302.5 323 L 299.5 324 L 299.5 323 L 303.5 321 Z " /><path fill="rgb(255,185,136)" stroke="rgb(255,185,136)" stroke-width="1" opacity="0.996078431372549" d="M 271.5 332 L 274 332.5 L 271.5 333 L 271.5 332 Z " /><path fill="rgb(255,185,136)" stroke="rgb(255,185,136)" stroke-width="1" opacity="0.996078431372549" d="M 247.5 333 L 250 333.5 L 247.5 334 L 247.5 333 Z " /><path fill="rgb(255,185,136)" stroke="rgb(255,185,136)" stroke-width="1" opacity="0.996078431372549" d="M 262.5 333 L 266 333.5 L 262.5 334 L 262.5 333 Z " /><path fill="rgb(255,185,136)" stroke="rgb(255,185,136)" stroke-width="1" opacity="0.996078431372549" d="M 351.5 442 L 350.5 444 L 351.5 442 Z " /><path fill="rgb(255,244,205)" stroke="rgb(255,244,205)" stroke-width="1" opacity="0.9647058823529412" d="M 124.5 311 Q 126.75 310.25 126 312.5 L 61.5 377 L 56.5 372 Q 47.75 365.75 34 364.5 Q 42.392 349.892 54.5 339 Q 78.924 314.424 124.5 311 Z " /><path fill="rgb(255,244,205)" stroke="rgb(255,244,205)" stroke-width="1" opacity="0.9647058823529412" d="M 385.5 312 L 450 377.5 Q 439.14 386.14 438.5 405 Q 421.843 395.657 410 381.5 Q 385.821 357.491 385.5 312 Z " /><path fill="rgb(255,244,205)" stroke="rgb(255,244,205)" stroke-width="1" opacity="0.9647058823529412" d="M 182.5 352 L 186 352.5 L 150.5 436 Q 143.667 432.833 133.5 433 L 121 436 Q 127.977 390.251 158.5 367 L 182.5 352 Z " /><path fill="rgb(255,244,205)" stroke="rgb(255,244,205)" stroke-width="1" opacity="0.9647058823529412" d="M 325.5 352 L 328 355.5 L 361 437 Q 350.192 440.365 344 449.5 L 339.5 458 Q 317.261 433.239 317 386.5 Q 318.142 366.142 325.5 352 Z " /><path fill="rgb(255,244,205)" stroke="rgb(255,244,205)" stroke-width="1" opacity="0.9647058823529412" d="M 254.5 366 L 256 366.5 L 256 457 Q 237.452 457.747 228.5 469 Q 223.366 455.634 224 436.5 Q 227.938 389.938 254.5 366 Z " /><path fill="rgb(255,133,94)" stroke="rgb(255,133,94)" stroke-width="1" opacity="0.996078431372549" d="M 242.5 31 L 247 31.5 L 242.5 32 L 242.5 31 Z " /><path fill="rgb(255,133,94)" stroke="rgb(255,133,94)" stroke-width="1" opacity="0.996078431372549" d="M 266.5 31 L 269 31.5 L 266.5 32 L 266.5 31 Z " /><path fill="rgb(255,133,94)" stroke="rgb(255,133,94)" stroke-width="1" opacity="0.996078431372549" d="M 234.5 32 L 237 32.5 L 234.5 33 L 234.5 32 Z " /><path fill="rgb(255,133,94)" stroke="rgb(255,133,94)" stroke-width="1" opacity="0.996078431372549" d="M 274.5 32 L 278 32.5 L 274.5 33 L 274.5 32 Z " /><path fill="rgb(255,133,94)" stroke="rgb(255,133,94)" stroke-width="1" opacity="0.996078431372549" d="M 281.5 33 L 284 33.5 L 281.5 34 L 281.5 33 Z " /><path fill="rgb(255,133,94)" stroke="rgb(255,133,94)" stroke-width="1" opacity="0.996078431372549" d="M 286.5 34 L 289 34.5 L 286.5 35 L 286.5 34 Z " /><path fill="rgb(255,133,94)" stroke="rgb(255,133,94)" stroke-width="1" opacity="0.996078431372549" d="M 328.5 49 L 329.5 51 L 328.5 49 Z " /><path fill="rgb(255,133,94)" stroke="rgb(255,133,94)" stroke-width="1" opacity="0.996078431372549" d="M 335.5 53 L 336.5 55 L 335.5 53 Z " /><path fill="rgb(255,133,94)" stroke="rgb(255,133,94)" stroke-width="1" opacity="0.996078431372549" d="M 338.5 55 L 339.5 57 L 338.5 55 Z " /><path fill="rgb(255,133,94)" stroke="rgb(255,133,94)" stroke-width="1" opacity="0.996078431372549" d="M 341.5 57 L 342.5 59 L 341.5 57 Z " /><path fill="rgb(255,133,94)" stroke="rgb(255,133,94)" stroke-width="1" opacity="0.996078431372549" d="M 167.5 59 L 166.5 61 L 167.5 59 Z " /><path fill="rgb(255,133,94)" stroke="rgb(255,133,94)" stroke-width="1" opacity="0.996078431372549" d="M 345.5 60 L 346.5 62 L 345.5 60 Z " /><path fill="rgb(255,133,94)" stroke="rgb(255,133,94)" stroke-width="1" opacity="0.996078431372549" d="M 163.5 62 L 162.5 64 L 163.5 62 Z " /><path fill="rgb(255,133,94)" stroke="rgb(255,133,94)" stroke-width="1" opacity="0.996078431372549" d="M 348.5 62 L 350.5 65 L 348.5 62 Z " /><path fill="rgb(255,133,94)" stroke="rgb(255,133,94)" stroke-width="1" opacity="0.996078431372549" d="M 158.5 66 L 156.5 69 L 158.5 66 Z " /><path fill="rgb(255,133,94)" stroke="rgb(255,133,94)" stroke-width="1" opacity="0.996078431372549" d="M 354.5 67 L 358.5 72 L 354.5 67 Z " /><path fill="rgb(255,133,94)" stroke="rgb(255,133,94)" stroke-width="1" opacity="0.996078431372549" d="M 366.5 79 L 371.5 85 L 366.5 79 Z " /><path fill="rgb(255,133,94)" stroke="rgb(255,133,94)" stroke-width="1" opacity="0.996078431372549" d="M 141.5 83 L 139.5 86 L 141.5 83 Z " /><path fill="rgb(255,133,94)" stroke="rgb(255,133,94)" stroke-width="1" opacity="0.996078431372549" d="M 373.5 87 L 375.5 90 L 373.5 87 Z " /><path fill="rgb(255,133,94)" stroke="rgb(255,133,94)" stroke-width="1" opacity="0.996078431372549" d="M 136.5 89 L 135.5 91 L 136.5 89 Z " /><path fill="rgb(255,133,94)" stroke="rgb(255,133,94)" stroke-width="1" opacity="0.996078431372549" d="M 377.5 92 L 378.5 94 L 377.5 92 Z " /><path fill="rgb(255,133,94)" stroke="rgb(255,133,94)" stroke-width="1" opacity="0.996078431372549" d="M 249.5 93 L 263 93.5 L 249.5 94 L 249.5 93 Z " /><path fill="rgb(255,133,94)" stroke="rgb(255,133,94)" stroke-width="1" opacity="0.996078431372549" d="M 379.5 95 L 381.5 98 L 379.5 95 Z " /><path fill="rgb(255,133,94)" stroke="rgb(255,133,94)" stroke-width="1" opacity="0.996078431372549" d="M 385.5 104 L 386.5 106 L 385.5 104 Z " /><path fill="rgb(255,133,94)" stroke="rgb(255,133,94)" stroke-width="1" opacity="0.996078431372549" d="M 199.5 113 L 198.5 115 L 199.5 113 Z " /><path fill="rgb(255,133,94)" stroke="rgb(255,133,94)" stroke-width="1" opacity="0.996078431372549" d="M 312.5 113 L 313.5 115 L 312.5 113 Z " /><path fill="rgb(255,133,94)" stroke="rgb(255,133,94)" stroke-width="1" opacity="0.996078431372549" d="M 391.5 115 L 393 117.5 L 392 117.5 L 391.5 115 Z " /><path fill="rgb(255,133,94)" stroke="rgb(255,133,94)" stroke-width="1" opacity="0.996078431372549" d="M 188.5 124 L 186.5 127 L 188.5 124 Z " /><path fill="rgb(255,133,94)" stroke="rgb(255,133,94)" stroke-width="1" opacity="0.996078431372549" d="M 251.5 124 L 261 124.5 L 251.5 125 L 251.5 124 Z " /><path fill="rgb(255,133,94)" stroke="rgb(255,133,94)" stroke-width="1" opacity="0.996078431372549" d="M 323.5 124 L 325.5 127 L 323.5 124 Z " /><path fill="rgb(255,133,94)" stroke="rgb(255,133,94)" stroke-width="1" opacity="0.996078431372549" d="M 403.5 147 L 404 149.5 L 403 149.5 L 403.5 147 Z " /><path fill="rgb(255,133,94)" stroke="rgb(255,133,94)" stroke-width="1" opacity="0.996078431372549" d="M 404.5 152 L 405 154.5 L 404 154.5 L 404.5 152 Z " /><path fill="rgb(255,133,94)" stroke="rgb(255,133,94)" stroke-width="1" opacity="0.996078431372549" d="M 405.5 157 L 406 159.5 L 405 159.5 L 405.5 157 Z " /><path fill="rgb(255,133,94)" stroke="rgb(255,133,94)" stroke-width="1" opacity="0.996078431372549" d="M 239.5 161 L 238.5 163 L 239.5 161 Z " /><path fill="rgb(255,133,94)" stroke="rgb(255,133,94)" stroke-width="1" opacity="0.996078431372549" d="M 105.5 163 L 106 165.5 L 105 165.5 L 105.5 163 Z " /><path fill="rgb(255,133,94)" stroke="rgb(255,133,94)" stroke-width="1" opacity="0.996078431372549" d="M 406.5 164 L 407 168.5 L 406 168.5 L 406.5 164 Z " /><path fill="rgb(255,133,94)" stroke="rgb(255,133,94)" stroke-width="1" opacity="0.996078431372549" d="M 235.5 165 L 234.5 167 L 235.5 165 Z " /><path fill="rgb(255,133,94)" stroke="rgb(255,133,94)" stroke-width="1" opacity="0.996078431372549" d="M 276.5 165 L 277.5 167 L 276.5 165 Z " /><path fill="rgb(255,133,94)" stroke="rgb(255,133,94)" stroke-width="1" opacity="0.996078431372549" d="M 167.5 170 L 168 172.5 L 167 172.5 L 167.5 170 Z " /><path fill="rgb(255,133,94)" stroke="rgb(255,133,94)" stroke-width="1" opacity="0.996078431372549" d="M 344.5 170 L 345 172.5 L 344 172.5 L 344.5 170 Z " /><path fill="rgb(255,133,94)" stroke="rgb(255,133,94)" stroke-width="1" opacity="0.996078431372549" d="M 104.5 174 L 105 190.5 L 104 190.5 L 104.5 174 Z " /><path fill="rgb(255,133,94)" stroke="rgb(255,133,94)" stroke-width="1" opacity="0.996078431372549" d="M 407.5 175 L 408 189.5 L 407 189.5 L 407.5 175 Z " /><path fill="rgb(255,133,94)" stroke="rgb(255,133,94)" stroke-width="1" opacity="0.996078431372549" d="M 344.5 192 L 345 194.5 L 344 194.5 L 344.5 192 Z " /><path fill="rgb(255,133,94)" stroke="rgb(255,133,94)" stroke-width="1" opacity="0.996078431372549" d="M 406.5 196 L 407 200.5 L 406 200.5 L 406.5 196 Z " /><path fill="rgb(255,133,94)" stroke="rgb(255,133,94)" stroke-width="1" opacity="0.996078431372549" d="M 105.5 199 L 106 201.5 L 105 201.5 L 105.5 199 Z " /><path fill="rgb(255,133,94)" stroke="rgb(255,133,94)" stroke-width="1" opacity="0.996078431372549" d="M 405.5 205 L 406 207.5 L 405 207.5 L 405.5 205 Z " /><path fill="rgb(255,133,94)" stroke="rgb(255,133,94)" stroke-width="1" opacity="0.996078431372549" d="M 404.5 211 L 405 213.5 L 404 213.5 L 404.5 211 Z " /><path fill="rgb(255,133,94)" stroke="rgb(255,133,94)" stroke-width="1" opacity="0.996078431372549" d="M 214.5 223 L 215.5 225 L 214.5 223 Z " /><path fill="rgb(255,133,94)" stroke="rgb(255,133,94)" stroke-width="1" opacity="0.996078431372549" d="M 297.5 223 L 296.5 225 L 297.5 223 Z " /><path fill="rgb(255,133,94)" stroke="rgb(255,133,94)" stroke-width="1" opacity="0.996078431372549" d="M 220.5 228 L 221.5 230 L 220.5 228 Z " /><path fill="rgb(255,133,94)" stroke="rgb(255,133,94)" stroke-width="1" opacity="0.996078431372549" d="M 185.5 237 L 186.5 239 L 185.5 237 Z " /><path fill="rgb(255,133,94)" stroke="rgb(255,133,94)" stroke-width="1" opacity="0.996078431372549" d="M 312.5 251 L 311.5 253 L 312.5 251 Z " /><path fill="rgb(255,133,94)" stroke="rgb(255,133,94)" stroke-width="1" opacity="0.996078431372549" d="M 389.5 254 L 388.5 256 L 389.5 254 Z " /><path fill="rgb(255,133,94)" stroke="rgb(255,133,94)" stroke-width="1" opacity="0.996078431372549" d="M 385.5 261 L 384.5 263 L 385.5 261 Z " /><path fill="rgb(255,133,94)" stroke="rgb(255,133,94)" stroke-width="1" opacity="0.996078431372549" d="M 383.5 264 L 382.5 266 L 383.5 264 Z " /><path fill="rgb(255,133,94)" stroke="rgb(255,133,94)" stroke-width="1" opacity="0.996078431372549" d="M 381.5 267 L 380.5 269 L 381.5 267 Z " /><path fill="rgb(255,133,94)" stroke="rgb(255,133,94)" stroke-width="1" opacity="0.996078431372549" d="M 379.5 270 L 378.5 272 L 379.5 270 Z " /><path fill="rgb(255,133,94)" stroke="rgb(255,133,94)" stroke-width="1" opacity="0.996078431372549" d="M 246.5 271 L 250 271.5 L 246.5 272 L 246.5 271 Z " /><path fill="rgb(255,133,94)" stroke="rgb(255,133,94)" stroke-width="1" opacity="0.996078431372549" d="M 262.5 271 L 266 271.5 L 262.5 272 L 262.5 271 Z " /><path fill="rgb(255,133,94)" stroke="rgb(255,133,94)" stroke-width="1" opacity="0.996078431372549" d="M 134.5 273 L 135.5 275 L 134.5 273 Z " /><path fill="rgb(255,133,94)" stroke="rgb(255,133,94)" stroke-width="1" opacity="0.996078431372549" d="M 376.5 274 L 374.5 277 L 376.5 274 Z " /><path fill="rgb(255,133,94)" stroke="rgb(255,133,94)" stroke-width="1" opacity="0.996078431372549" d="M 138.5 278 L 140.5 281 L 138.5 278 Z " /><path fill="rgb(255,133,94)" stroke="rgb(255,133,94)" stroke-width="1" opacity="0.996078431372549" d="M 372.5 279 L 369.5 283 L 372.5 279 Z " /><path fill="rgb(255,133,94)" stroke="rgb(255,133,94)" stroke-width="1" opacity="0.996078431372549" d="M 145.5 286 L 152.5 294 L 145.5 286 Z " /><path fill="rgb(255,133,94)" stroke="rgb(255,133,94)" stroke-width="1" opacity="0.996078431372549" d="M 364.5 288 L 361.5 292 L 364.5 288 Z " /><path fill="rgb(255,133,94)" stroke="rgb(255,133,94)" stroke-width="1" opacity="0.996078431372549" d="M 355.5 296 L 352.5 300 L 355.5 296 Z " /><path fill="rgb(255,133,94)" stroke="rgb(255,133,94)" stroke-width="1" opacity="0.996078431372549" d="M 158.5 298 L 160.5 301 L 158.5 298 Z " /><path fill="rgb(255,133,94)" stroke="rgb(255,133,94)" stroke-width="1" opacity="0.996078431372549" d="M 349.5 301 L 347.5 304 L 349.5 301 Z " /><path fill="rgb(255,133,94)" stroke="rgb(255,133,94)" stroke-width="1" opacity="0.996078431372549" d="M 163.5 302 L 164.5 304 L 163.5 302 Z " /><path fill="rgb(255,133,94)" stroke="rgb(255,133,94)" stroke-width="1" opacity="0.996078431372549" d="M 345.5 304 L 344.5 306 L 345.5 304 Z " /><path fill="rgb(255,133,94)" stroke="rgb(255,133,94)" stroke-width="1" opacity="0.996078431372549" d="M 167.5 305 L 168.5 307 L 167.5 305 Z " /><path fill="rgb(255,133,94)" stroke="rgb(255,133,94)" stroke-width="1" opacity="0.996078431372549" d="M 341.5 307 L 340.5 309 L 341.5 307 Z " /><path fill="rgb(255,133,94)" stroke="rgb(255,133,94)" stroke-width="1" opacity="0.996078431372549" d="M 338.5 309 L 337.5 311 L 338.5 309 Z " /><path fill="rgb(255,133,94)" stroke="rgb(255,133,94)" stroke-width="1" opacity="0.996078431372549" d="M 333.5 312 L 332.5 314 L 333.5 312 Z " /><path fill="rgb(255,133,94)" stroke="rgb(255,133,94)" stroke-width="1" opacity="0.996078431372549" d="M 287.5 330 L 290 330.5 L 287.5 331 L 287.5 330 Z " /><path fill="rgb(255,133,94)" stroke="rgb(255,133,94)" stroke-width="1" opacity="0.996078431372549" d="M 282.5 331 L 285 331.5 L 282.5 332 L 282.5 331 Z " /><path fill="rgb(255,133,94)" stroke="rgb(255,133,94)" stroke-width="1" opacity="0.996078431372549" d="M 232.5 332 L 235 332.5 L 232.5 333 L 232.5 332 Z " /><path fill="rgb(255,133,94)" stroke="rgb(255,133,94)" stroke-width="1" opacity="0.996078431372549" d="M 276.5 332 L 279 332.5 L 276.5 333 L 276.5 332 Z " /><path fill="rgb(255,133,94)" stroke="rgb(255,133,94)" stroke-width="1" opacity="0.996078431372549" d="M 240.5 333 L 244 333.5 L 240.5 334 L 240.5 333 Z " /><path fill="rgb(255,133,94)" stroke="rgb(255,133,94)" stroke-width="1" opacity="0.996078431372549" d="M 268.5 333 L 272 333.5 L 268.5 334 L 268.5 333 Z " /><path fill="rgb(255,133,94)" stroke="rgb(255,133,94)" stroke-width="1" opacity="0.996078431372549" d="M 453.5 374 L 448.5 380 L 453.5 374 Z " /><path fill="rgb(255,133,94)" stroke="rgb(255,133,94)" stroke-width="1" opacity="0.996078431372549" d="M 59.5 375 L 63.5 380 L 59.5 375 Z " /><path fill="rgb(255,133,94)" stroke="rgb(255,133,94)" stroke-width="1" opacity="0.996078431372549" d="M 72.5 400 L 73 403.5 L 72 403.5 L 72.5 400 Z " /><path fill="rgb(255,133,94)" stroke="rgb(255,133,94)" stroke-width="1" opacity="0.996078431372549" d="M 439.5 401 L 440 403.5 L 439 403.5 L 439.5 401 Z " /><path fill="rgb(255,133,94)" stroke="rgb(255,133,94)" stroke-width="1" opacity="0.996078431372549" d="M 162.5 444 L 163.5 446 L 162.5 444 Z " /><path fill="rgb(255,133,94)" stroke="rgb(255,133,94)" stroke-width="1" opacity="0.996078431372549" d="M 281.5 467 L 282.5 469 L 281.5 467 Z " /><path fill="rgb(255,194,142)" stroke="rgb(255,194,142)" stroke-width="1" opacity="0.996078431372549" d="M 240.5 32 Q 308.789 30.211 336 69.5 Q 377.069 111.431 376 195.5 Q 368.453 270.453 323.5 308 Q 298.739 332.739 250.5 334 Q 181.203 327.297 146 286.5 Q 104.696 249.304 105 170.5 Q 114.529 101.529 158.5 67 Q 189.131 39.131 240.5 32 Z M 247 93 Q 215 97 197 115 Q 171 136 166 178 Q 166 219 187 241 Q 207 265 245 272 Q 291 274 314 252 Q 341 231 346 188 Q 346 145 324 124 Q 301 92 247 93 Z " /><path fill="rgb(255,194,142)" stroke="rgb(255,194,142)" stroke-width="1" opacity="0.996078431372549" d="M 217.5 139 L 212.5 145 L 217.5 139 Z " /><path fill="rgb(255,194,142)" stroke="rgb(255,194,142)" stroke-width="1" opacity="0.996078431372549" d="M 294.5 139 L 298.5 144 L 294.5 139 Z " /><path fill="rgb(255,194,142)" stroke="rgb(255,194,142)" stroke-width="1" opacity="0.996078431372549" d="M 237.5 202 L 238.5 204 L 237.5 202 Z " /><path fill="rgb(255,194,142)" stroke="rgb(255,194,142)" stroke-width="1" opacity="0.996078431372549" d="M 211.5 219 L 212.5 221 L 211.5 219 Z " /><path fill="rgb(255,194,142)" stroke="rgb(255,194,142)" stroke-width="1" opacity="0.996078431372549" d="M 218.5 226 L 219.5 228 L 218.5 226 Z " /><path fill="rgb(255,194,142)" stroke="rgb(255,194,142)" stroke-width="1" opacity="0.996078431372549" d="M 293.5 226 L 292.5 228 L 293.5 226 Z " /><path fill="rgb(255,194,142)" stroke="rgb(255,194,142)" stroke-width="1" opacity="0.996078431372549" d="M 257.5 457 L 260 457.5 L 257.5 458 L 257.5 457 Z " /><path fill="rgb(255,65,37)" stroke="rgb(255,65,37)" stroke-width="1" opacity="0.9803921568627451" d="M 237.5 0 Q 291.82 -3.32 326.5 13 Q 366.323 30.177 393 60.5 Q 439 105.5 439 196.5 Q 430.353 271.353 386.5 311 Q 384.25 310.25 385 312.5 Q 342.833 360.833 257.5 366 L 255.5 365 Q 253.75 367.75 247.5 366 Q 168.169 358.331 127 312.5 Q 127.75 310.25 125.5 311 Q 73.117 265.883 73 168.5 Q 83.001 87.001 133.5 46 Q 171.382 8.882 237.5 0 Z M 243 31 Q 190 38 159 66 Q 112 101 104 175 Q 105 250 145 287 Q 178 325 241 334 Q 323 335 362 292 Q 401 257 408 190 Q 407 120 372 85 Q 334 31 243 31 Z " /><path fill="rgb(255,65,37)" stroke="rgb(255,65,37)" stroke-width="1" opacity="0.9803921568627451" d="M 243.5 94 Q 299.943 92.057 323 123.5 Q 346.705 144.795 345 191.5 Q 339.097 231.097 313.5 251 Q 292.023 271.523 250.5 272 Q 208.02 266.48 187 239.5 Q 165.568 217.932 167 173.5 Q 172.767 134.767 197.5 115 Q 214.794 98.794 243.5 94 Z M 252 124 Q 232 126 221 136 Q 203 149 198 174 Q 196 209 214 224 Q 227 237 250 241 Q 282 242 297 225 Q 310 213 314 192 Q 316 161 302 147 Q 288 124 252 124 Z " /><path fill="rgb(255,65,37)" stroke="rgb(255,65,37)" stroke-width="1" opacity="0.9803921568627451" d="M 251.5 156 Q 269.085 154.915 276 164.5 Q 282.764 171.236 283 184.5 Q 280.964 197.464 272.5 204 Q 265.719 210.719 250.5 209 Q 240.356 206.644 235 199.5 Q 229.083 192.917 229 180.5 Q 230.569 169.069 237.5 163 L 251.5 156 Z " /><path fill="rgb(255,65,37)" stroke="rgb(255,65,37)" stroke-width="1" opacity="0.9803921568627451" d="M 33 366 Q 56.191 367.079 66 382.5 Q 72.262 390.738 73 404.5 Q 55.28 417.28 25.5 418 L 22 415.5 L 20 408.5 Q 22.851 383.149 33 366 Z " /><path fill="rgb(255,65,37)" stroke="rgb(255,65,37)" stroke-width="1" opacity="0.9803921568627451" d="M 473.5 366 Q 479.583 364.75 479 367.5 Q 490.273 384.727 492 411.5 L 488.5 417 Q 484.667 419.667 476.5 418 Q 453.951 415.049 439 404.5 Q 441.043 382.543 455.5 373 Q 462.308 367.308 473.5 366 Z " /><path fill="rgb(255,65,37)" stroke="rgb(255,65,37)" stroke-width="1" opacity="0.9803921568627451" d="M 131.5 434 Q 157.308 433.692 167 449.5 L 172 458.5 L 160.5 471 Q 150.434 484.434 130.5 488 L 125 483.5 Q 118.125 465.875 120 439.5 L 121 437 L 131.5 434 Z " /><path fill="rgb(255,65,37)" stroke="rgb(255,65,37)" stroke-width="1" opacity="0.9803921568627451" d="M 371.5 434 Q 384.125 433.036 391 437 Q 394.625 444.063 392 460.5 Q 391.992 477.992 383.5 487 L 376.5 488 Q 357.791 479.209 345 464.5 L 340 458.5 Q 344.179 448.179 352.5 442 Q 359.776 435.776 371.5 434 Z " /><path fill="rgb(255,65,37)" stroke="rgb(255,65,37)" stroke-width="1" opacity="0.9803921568627451" d="M 251.5 458 Q 274.258 457.242 284 469.5 Q 276.866 494.366 261.5 511 L 252.5 512 L 249 509.5 Q 234.859 493.141 228 469.5 Q 236.417 460.417 251.5 458 Z " /><path fill="rgb(255,157,115)" stroke="rgb(255,157,115)" stroke-width="1" opacity="0.996078431372549" d="M 247.5 31 L 254 31.5 L 247.5 32 L 247.5 31 Z " /><path fill="rgb(255,157,115)" stroke="rgb(255,157,115)" stroke-width="1" opacity="0.996078431372549" d="M 263.5 31 L 266 31.5 L 263.5 32 L 263.5 31 Z " /><path fill="rgb(255,157,115)" stroke="rgb(255,157,115)" stroke-width="1" opacity="0.996078431372549" d="M 278.5 33 L 281 33.5 L 278.5 34 L 278.5 33 Z " /><path fill="rgb(255,157,115)" stroke="rgb(255,157,115)" stroke-width="1" opacity="0.996078431372549" d="M 282.5 34 Q 336.015 44.485 366 78.5 Q 407.478 116.022 407 195.5 Q 397.916 261.916 356.5 296 Q 329.102 322.602 283.5 331 L 283.5 330 Q 315.75 320.25 335 297.5 Q 378.928 254.428 376 164.5 Q 367.07 91.43 321.5 55 Q 304.558 41.045 282.5 34 Z " /><path fill="rgb(255,157,115)" stroke="rgb(255,157,115)" stroke-width="1" opacity="0.996078431372549" d="M 155.5 69 L 154.5 71 L 155.5 69 Z " /><path fill="rgb(255,157,115)" stroke="rgb(255,157,115)" stroke-width="1" opacity="0.996078431372549" d="M 143.5 81 L 142.5 83 L 143.5 81 Z " /><path fill="rgb(255,157,115)" stroke="rgb(255,157,115)" stroke-width="1" opacity="0.996078431372549" d="M 166.5 179 L 167 185.5 L 166 185.5 L 166.5 179 Z " /><path fill="rgb(255,157,115)" stroke="rgb(255,157,115)" stroke-width="1" opacity="0.996078431372549" d="M 345.5 179 L 346 185.5 L 345 185.5 L 345.5 179 Z " /><path fill="rgb(255,157,115)" stroke="rgb(255,157,115)" stroke-width="1" opacity="0.996078431372549" d="M 327.5 236 L 326.5 238 L 327.5 236 Z " /><path fill="rgb(255,157,115)" stroke="rgb(255,157,115)" stroke-width="1" opacity="0.996078431372549" d="M 189.5 242 L 196.5 250 L 189.5 242 Z " /><path fill="rgb(255,157,115)" stroke="rgb(255,157,115)" stroke-width="1" opacity="0.996078431372549" d="M 322.5 242 L 315.5 250 L 322.5 242 Z " /><path fill="rgb(255,157,115)" stroke="rgb(255,157,115)" stroke-width="1" opacity="0.996078431372549" d="M 136.5 275 L 137.5 277 L 136.5 275 Z " /><path fill="rgb(255,157,115)" stroke="rgb(255,157,115)" stroke-width="1" opacity="0.996078431372549" d="M 141.5 281 L 142.5 283 L 141.5 281 Z " /><path fill="rgb(255,157,115)" stroke="rgb(255,157,115)" stroke-width="1" opacity="0.996078431372549" d="M 156.5 296 L 157.5 298 L 156.5 296 Z " /><path fill="rgb(255,157,115)" stroke="rgb(255,157,115)" stroke-width="1" opacity="0.996078431372549" d="M 279.5 331 L 282 331.5 L 279.5 332 L 279.5 331 Z " /><path fill="rgb(255,157,115)" stroke="rgb(255,157,115)" stroke-width="1" opacity="0.996078431372549" d="M 244.5 333 L 247 333.5 L 244.5 334 L 244.5 333 Z " /><path fill="rgb(255,157,115)" stroke="rgb(255,157,115)" stroke-width="1" opacity="0.996078431372549" d="M 349.5 444 L 347.5 447 L 349.5 444 Z " /><path fill="rgb(255,157,115)" stroke="rgb(255,157,115)" stroke-width="1" opacity="0.996078431372549" d="M 164.5 446 L 165.5 448 L 164.5 446 Z " /><path fill="rgb(255,157,115)" stroke="rgb(255,157,115)" stroke-width="1" opacity="0.996078431372549" d="M 231.5 466 L 230.5 468 L 231.5 466 Z " /><path fill="rgb(0,0,0)" stroke="rgb(0,0,0)" stroke-width="1" opacity="0" d="M 0 0 L 237 0.5 Q 158.74 11.24 119 60.5 Q 73 105.5 73 196.5 Q 81.586 270.914 125 310.5 Q 72.641 315.141 47 346.5 Q 24.221 369.721 20 411.5 L 23.5 417 Q 27.333 419.667 35.5 418 Q 79.046 410.046 102 381.5 Q 125.213 357.713 127.5 313 Q 150.75 337.75 185 351.5 Q 159.588 361.588 144 381.5 Q 118.688 407.688 120 460.5 Q 120.008 477.992 128.5 487 L 135.5 488 Q 154.04 479.04 167 464.5 Q 193.962 438.462 195 386.5 Q 194.021 366.979 187 353.5 L 189.5 353 Q 216.249 365.251 254 366.5 Q 225.551 392.051 224 444.5 Q 227.595 487.405 250.5 511 L 252 511.5 L 0 512 L 0 0 Z " /><path fill="rgb(0,0,0)" stroke="rgb(0,0,0)" stroke-width="1" opacity="0" d="M 275.5 0 L 512 0 L 512 512 L 260 511.5 L 263 509.5 Q 286.361 484.361 288 437.5 Q 284.417 390.583 258 366.5 Q 296.452 364.952 324.5 353 L 324 354.5 Q 316.417 371.417 317 396.5 Q 321.686 446.314 351.5 471 Q 361.566 484.434 381.5 488 L 386 484.5 Q 394.1 467.1 392 439.5 Q 384.904 391.096 353.5 367 Q 342.506 356.994 327 351.5 Q 361.25 337.75 384.5 313 Q 388.177 368.823 422.5 394 Q 445.041 415.459 486.5 418 L 490 415.5 L 492 408.5 Q 485.196 362.304 456.5 338 Q 431.785 314.215 387 310.5 Q 438.9 265.4 439 168.5 Q 428.852 86.148 377.5 45 Q 339.092 8.77 275.5 0 Z " /><path fill="rgb(255,232,175)" stroke="rgb(255,232,175)" stroke-width="1" opacity="0.984313725490196" d="M 248.5 125 Q 287.518 123.982 302 147.5 Q 314.071 160.929 314 186.5 Q 310.931 212.931 294.5 226 Q 279.912 241.912 247.5 240 Q 225.219 235.781 213 221.5 Q 197.971 207.529 198 178.5 Q 202.05 149.55 221.5 136 Q 232 127.5 248.5 125 Z M 254 155 Q 242 157 236 163 L 229 177 Q 227 194 235 201 Q 241 207 252 210 Q 267 211 274 204 Q 281 199 283 189 Q 285 170 276 163 Q 269 155 254 155 Z " /><path fill="rgb(255,232,175)" stroke="rgb(255,232,175)" stroke-width="1" opacity="0.984313725490196" d="M 386 311 Q 439.182 314.515 465 346.5 L 478 364.5 Q 459.583 366.083 450.5 377 L 386 312.5 L 386 311 Z " /><path fill="rgb(255,232,175)" stroke="rgb(255,232,175)" stroke-width="1" opacity="0.984313725490196" d="M 126.5 312 L 127 323.5 Q 119.889 369.389 90.5 393 L 73.5 405 Q 72.635 385.865 62 376.5 L 126.5 312 Z " /><path fill="rgb(255,232,175)" stroke="rgb(255,232,175)" stroke-width="1" opacity="0.984313725490196" d="M 186.5 352 Q 195.412 369.588 195 396.5 Q 191.906 434.906 172.5 457 Q 169.875 457.833 171 454.5 L 159.5 441 L 151 437 L 181 362.5 L 186.5 352 Z " /><path fill="rgb(255,232,175)" stroke="rgb(255,232,175)" stroke-width="1" opacity="0.984313725490196" d="M 326.5 352 Q 352.7 361.3 368 381.5 Q 386.5 402.25 391 436 Q 384.939 433.339 375.5 433 L 361.5 436 L 359 432.5 L 326.5 352 Z " /><path fill="rgb(255,232,175)" stroke="rgb(255,232,175)" stroke-width="1" opacity="0.984313725490196" d="M 256 366 L 262 370.5 Q 286.342 395.658 288 443.5 Q 288 458.5 283.5 469 Q 274.417 457.667 256 457 L 256 366 Z " /><path fill="rgb(255,232,175)" stroke="rgb(255,232,175)" stroke-width="1" opacity="0.984313725490196" d="M 446.5 381 L 445.5 383 L 446.5 381 Z " /><path fill="rgb(255,232,175)" stroke="rgb(255,232,175)" stroke-width="1" opacity="0.984313725490196" d="M 133.5 433 L 138 433.5 L 133.5 434 L 133.5 433 Z " /><path fill="rgb(255,232,175)" stroke="rgb(255,232,175)" stroke-width="1" opacity="0.984313725490196" d="M 345.5 448 L 344.5 450 L 345.5 448 Z " /><path fill="rgb(255,232,175)" stroke="rgb(255,232,175)" stroke-width="1" opacity="0.984313725490196" d="M 252.5 457 L 255 457.5 L 252.5 458 L 252.5 457 Z " /></svg>