<svg width="512" height="512" version="1.1" xmlns="http://www.w3.org/2000/svg" desc="Created with imagetracer.js version 1.2.6" ><path fill="rgb(0,0,0)" stroke="rgb(0,0,0)" stroke-width="1" opacity="0" d="M 0 0 L 172 0.5 L 167 4.5 Q 163.439 109.939 102.5 158 Q 69.729 187.229 24 203.5 L 22 207.5 L 22 243.5 Q 36.792 366.208 107.5 433 Q 109.75 432.25 109 434.5 L 114 438 L 116.5 442 L 125 449.5 L 87.5 450 L 83 452 L 80 458.5 L 80 504.5 L 84.5 511 L 86 511.5 L 0 512 L 0 0 Z " /><path fill="rgb(0,0,0)" stroke="rgb(0,0,0)" stroke-width="1" opacity="0" d="M 340.5 0 L 512 0 L 512 512 L 426 511.5 L 430 508.5 L 432 504.5 L 432 458.5 L 429 452 L 424.5 450 L 387 449.5 L 405 432.5 Q 446.162 390.662 470 331.5 Q 491.925 281.425 490 207.5 L 484.5 201 Q 428.983 184.517 395 146.5 Q 371.633 121.367 358 86.5 Q 344.387 54.613 346 7.5 L 341.5 1 L 340.5 0 Z " /><path fill="rgb(35,81,112)" stroke="rgb(35,81,112)" stroke-width="1" opacity="0.984313725490196" d="M 307.5 0 L 338.5 0 L 343 2 L 346 8.5 Q 344.125 32.875 349 50.5 L 349 52.5 Q 355.508 92.492 375 119.5 L 359.5 140 L 354 135.5 Q 334.114 110.386 323 76.5 Q 312.617 49.383 315 9.5 Q 313.75 3.75 309.5 1 Q 306.5 1.5 307.5 0 Z " /><path fill="rgb(35,81,112)" stroke="rgb(35,81,112)" stroke-width="1" opacity="0.984313725490196" d="M 384.5 134 L 390 142 L 393 143.5 L 406.5 158 L 409.5 160 Q 420.976 171.524 435.5 180 Q 456.497 194.003 484.5 201 L 489 205.5 L 490 207.5 L 490 241.5 Q 476.908 356.628 415 422 Q 412.333 420.875 413 423.5 L 402 434.5 L 402 436 L 400.5 436 L 385.5 450 L 355.5 450 L 359.5 445 L 378 427.5 Q 417.475 385.975 440 327.5 Q 460.444 278.944 459 208.5 L 455.5 203 Q 403.188 187.313 370 152.5 L 384.5 134 Z " /><path fill="rgb(253,219,115)" stroke="rgb(253,219,115)" stroke-width="1" opacity="0.996078431372549" d="M 381.5 130 L 382.5 132 L 381.5 130 Z " /><path fill="rgb(253,219,115)" stroke="rgb(253,219,115)" stroke-width="1" opacity="0.996078431372549" d="M 360.5 139 L 359.5 141 L 360.5 139 Z " /><path fill="rgb(253,219,115)" stroke="rgb(253,219,115)" stroke-width="1" opacity="0.996078431372549" d="M 162.5 211 Q 169.5 210.5 170 216.5 Q 186.51 235.99 200 258.5 Q 209.249 270.251 210 290.5 Q 206.75 312.25 192.5 323 Q 180.956 334.456 156.5 333 Q 136.37 328.63 126 314.5 Q 116.221 303.779 117 282.5 Q 132.114 240.614 160.5 212 L 162.5 211 Z M 160 271 L 156 273 L 148 283 Q 147 294 152 298 L 160 302 Q 168 303 172 300 Q 177 297 179 290 Q 180 282 177 279 Q 173 270 160 271 Z " /><path fill="rgb(253,219,115)" stroke="rgb(253,219,115)" stroke-width="1" opacity="0.996078431372549" d="M 347.5 211 L 353 213.5 Q 371.249 234.751 386 259.5 Q 395.851 271.149 395 293.5 Q 391.03 314.03 376.5 324 Q 365.155 334.155 342.5 333 Q 323.25 329.25 313 316.5 Q 301.188 305.312 303 280.5 Q 318.551 239.051 347.5 211 Z M 346 271 L 340 274 Q 335 278 333 285 Q 332 292 336 296 L 345 302 Q 354 303 359 299 L 364 292 Q 366 281 361 277 Q 357 270 346 271 Z " /><path fill="rgb(253,219,115)" stroke="rgb(253,219,115)" stroke-width="1" opacity="0.996078431372549" d="M 254.5 291 Q 261.25 290.25 262 295.5 L 264 298.5 Q 294.89 326.61 307 373.5 Q 304.948 399.948 288.5 412 Q 275.835 425.335 247.5 423 Q 230.365 418.767 220 409 Q 205.243 395.998 206 366.5 Q 221.611 325.93 248 297 Q 250.667 298.125 250 295.5 L 254.5 291 Z M 252 351 L 240 357 L 234 370 Q 233 379 237 385 Q 242 392 253 395 Q 266 396 272 389 L 278 378 Q 279 365 274 360 Q 268 350 252 351 Z " /><path fill="rgb(253,219,115)" stroke="rgb(253,219,115)" stroke-width="1" opacity="0.996078431372549" d="M 87.5 450 L 424.5 450 L 429 452 L 432 458.5 L 432 504.5 L 427.5 511 L 425.5 512 L 86.5 512 L 82 508.5 L 80 504.5 L 80 458.5 L 83 452 L 87.5 450 Z M 211 473 L 209 474 L 204 480 L 206 487 L 211 489 L 302 489 L 306 487 L 308 483 L 307 478 L 302 473 L 211 473 Z " /><path fill="rgb(252,245,187)" stroke="rgb(252,245,187)" stroke-width="1" opacity="0.996078431372549" d="M 135.5 120 L 139 122.5 Q 146.817 136.183 158 146.5 L 149 154.5 L 147.5 157 L 144 154.5 Q 133.134 145.366 127 131.5 Q 129.75 130.417 129 127 L 132 125.5 L 135.5 120 Z " /><path fill="rgb(252,245,187)" stroke="rgb(252,245,187)" stroke-width="1" opacity="0.996078431372549" d="M 374.5 121 L 384 134.5 L 365.5 157 Q 363.25 157.75 364 155.5 L 358.5 149 L 354 146.5 Q 365.98 135.48 374.5 121 Z " /><path fill="rgb(252,245,187)" stroke="rgb(252,245,187)" stroke-width="1" opacity="0.996078431372549" d="M 180.5 164 Q 204.74 181.26 241 186.5 Q 238.333 190.333 240 198.5 L 241 201 Q 200.19 196.494 173 177.5 Q 178.898 172.898 180.5 164 Z " /><path fill="rgb(252,245,187)" stroke="rgb(252,245,187)" stroke-width="1" opacity="0.996078431372549" d="M 331.5 164 Q 333.646 172.354 339 177.5 Q 312.497 196.497 271.5 201 L 272 199.5 L 273 191.5 L 271 186.5 Q 307.26 181.26 331.5 164 Z " /><path fill="rgb(252,245,187)" stroke="rgb(252,245,187)" stroke-width="1" opacity="0.996078431372549" d="M 156.5 178 Q 159.167 180.833 165.5 180 L 170.5 178 L 171 217.5 L 170 217.5 L 164.5 211 L 159 213.5 L 156.5 217 L 156.5 178 Z " /><path fill="rgb(252,245,187)" stroke="rgb(252,245,187)" stroke-width="1" opacity="0.996078431372549" d="M 341.5 178 Q 344.786 180.714 351.5 180 L 355.5 178 L 356 216.5 L 353 214.5 L 351.5 212 L 347.5 211 L 341.5 218 L 341.5 178 Z " /><path fill="rgb(252,245,187)" stroke="rgb(252,245,187)" stroke-width="1" opacity="0.996078431372549" d="M 248 209 Q 250.875 211.5 257.5 211 L 264 209 L 264 296.5 L 262 297 L 257.5 291 Q 250.75 290.25 250 295.5 Q 250.667 298.125 248 297 L 248 209 Z " /><path fill="rgb(252,245,187)" stroke="rgb(252,245,187)" stroke-width="1" opacity="0.996078431372549" d="M 210.5 473 L 301.5 473 L 307 477.5 L 308 482.5 L 306 487 L 301.5 489 L 210.5 489 L 206 487 L 204 479.5 L 208.5 474 L 210.5 473 Z " /><path fill="rgb(115,134,134)" stroke="rgb(115,134,134)" stroke-width="1" opacity="0.9803921568627451" d="M 135.5 119 L 139 121.5 L 136.5 120 L 134.5 121 L 135.5 119 Z " /><path fill="rgb(115,134,134)" stroke="rgb(115,134,134)" stroke-width="1" opacity="0.9803921568627451" d="M 133.5 122 L 132.5 124 L 133.5 122 Z " /><path fill="rgb(115,134,134)" stroke="rgb(115,134,134)" stroke-width="1" opacity="0.9803921568627451" d="M 139.5 123 L 140.5 125 L 139.5 123 Z " /><path fill="rgb(115,134,134)" stroke="rgb(115,134,134)" stroke-width="1" opacity="0.9803921568627451" d="M 131.5 125 L 130.5 127 L 131.5 125 Z " /><path fill="rgb(115,134,134)" stroke="rgb(115,134,134)" stroke-width="1" opacity="0.9803921568627451" d="M 141.5 126 L 142.5 128 L 141.5 126 Z " /><path fill="rgb(115,134,134)" stroke="rgb(115,134,134)" stroke-width="1" opacity="0.9803921568627451" d="M 380.5 128 L 381.5 130 L 380.5 128 Z " /><path fill="rgb(115,134,134)" stroke="rgb(115,134,134)" stroke-width="1" opacity="0.9803921568627451" d="M 128.5 129 L 127.5 131 L 128.5 129 Z " /><path fill="rgb(115,134,134)" stroke="rgb(115,134,134)" stroke-width="1" opacity="0.9803921568627451" d="M 367.5 130 L 366.5 132 L 367.5 130 Z " /><path fill="rgb(115,134,134)" stroke="rgb(115,134,134)" stroke-width="1" opacity="0.9803921568627451" d="M 126.5 132 L 127.5 134 L 126.5 132 Z " /><path fill="rgb(115,134,134)" stroke="rgb(115,134,134)" stroke-width="1" opacity="0.9803921568627451" d="M 383.5 132 L 384.5 134 L 383.5 132 Z " /><path fill="rgb(115,134,134)" stroke="rgb(115,134,134)" stroke-width="1" opacity="0.9803921568627451" d="M 147.5 134 L 148.5 136 L 147.5 134 Z " /><path fill="rgb(115,134,134)" stroke="rgb(115,134,134)" stroke-width="1" opacity="0.9803921568627451" d="M 131.5 139 L 132.5 141 L 131.5 139 Z " /><path fill="rgb(115,134,134)" stroke="rgb(115,134,134)" stroke-width="1" opacity="0.9803921568627451" d="M 151.5 139 L 158.5 147 L 151.5 139 Z " /><path fill="rgb(115,134,134)" stroke="rgb(115,134,134)" stroke-width="1" opacity="0.9803921568627451" d="M 380.5 139 L 379.5 141 L 380.5 139 Z " /><path fill="rgb(115,134,134)" stroke="rgb(115,134,134)" stroke-width="1" opacity="0.9803921568627451" d="M 358.5 141 L 353.5 147 L 358.5 141 Z " /><path fill="rgb(115,134,134)" stroke="rgb(115,134,134)" stroke-width="1" opacity="0.9803921568627451" d="M 134.5 143 L 136.5 146 L 134.5 143 Z " /><path fill="rgb(115,134,134)" stroke="rgb(115,134,134)" stroke-width="1" opacity="0.9803921568627451" d="M 377.5 143 L 376.5 145 L 377.5 143 Z " /><path fill="rgb(115,134,134)" stroke="rgb(115,134,134)" stroke-width="1" opacity="0.9803921568627451" d="M 138.5 148 L 143.5 154 L 138.5 148 Z " /><path fill="rgb(115,134,134)" stroke="rgb(115,134,134)" stroke-width="1" opacity="0.9803921568627451" d="M 373.5 148 L 371.5 151 L 373.5 148 Z " /><path fill="rgb(115,134,134)" stroke="rgb(115,134,134)" stroke-width="1" opacity="0.9803921568627451" d="M 174.5 150 L 176.5 153 L 174.5 150 Z " /><path fill="rgb(115,134,134)" stroke="rgb(115,134,134)" stroke-width="1" opacity="0.9803921568627451" d="M 369.5 152 L 368.5 154 L 369.5 152 Z " /><path fill="rgb(115,134,134)" stroke="rgb(115,134,134)" stroke-width="1" opacity="0.9803921568627451" d="M 365.5 161 L 366 164.5 L 365 164.5 L 365.5 161 Z " /><path fill="rgb(115,134,134)" stroke="rgb(115,134,134)" stroke-width="1" opacity="0.9803921568627451" d="M 146.5 162 L 147 164.5 L 146 164.5 L 146.5 162 Z " /><path fill="rgb(115,134,134)" stroke="rgb(115,134,134)" stroke-width="1" opacity="0.9803921568627451" d="M 327.5 166 L 326.5 168 L 327.5 166 Z " /><path fill="rgb(115,134,134)" stroke="rgb(115,134,134)" stroke-width="1" opacity="0.9803921568627451" d="M 149.5 172 L 150.5 174 L 149.5 172 Z " /><path fill="rgb(115,134,134)" stroke="rgb(115,134,134)" stroke-width="1" opacity="0.9803921568627451" d="M 152.5 175 L 153.5 177 L 152.5 175 Z " /><path fill="rgb(115,134,134)" stroke="rgb(115,134,134)" stroke-width="1" opacity="0.9803921568627451" d="M 172.5 177 L 173.5 179 L 172.5 177 Z " /><path fill="rgb(115,134,134)" stroke="rgb(115,134,134)" stroke-width="1" opacity="0.9803921568627451" d="M 339.5 177 L 341 177.5 L 338.5 179 L 339.5 177 Z " /><path fill="rgb(115,134,134)" stroke="rgb(115,134,134)" stroke-width="1" opacity="0.9803921568627451" d="M 155.5 178 L 156 217.5 L 155 217.5 L 155.5 178 Z " /><path fill="rgb(115,134,134)" stroke="rgb(115,134,134)" stroke-width="1" opacity="0.9803921568627451" d="M 356.5 178 L 357 217.5 L 356 217.5 L 356.5 178 Z " /><path fill="rgb(115,134,134)" stroke="rgb(115,134,134)" stroke-width="1" opacity="0.9803921568627451" d="M 177.5 180 L 178.5 182 L 177.5 180 Z " /><path fill="rgb(115,134,134)" stroke="rgb(115,134,134)" stroke-width="1" opacity="0.9803921568627451" d="M 334.5 180 L 333.5 182 L 334.5 180 Z " /><path fill="rgb(115,134,134)" stroke="rgb(115,134,134)" stroke-width="1" opacity="0.9803921568627451" d="M 223.5 182 L 226 182.5 L 223.5 183 L 223.5 182 Z " /><path fill="rgb(115,134,134)" stroke="rgb(115,134,134)" stroke-width="1" opacity="0.9803921568627451" d="M 286.5 182 L 289 182.5 L 286.5 183 L 286.5 182 Z " /><path fill="rgb(115,134,134)" stroke="rgb(115,134,134)" stroke-width="1" opacity="0.9803921568627451" d="M 233.5 184 L 236 184.5 L 233.5 185 L 233.5 184 Z " /><path fill="rgb(115,134,134)" stroke="rgb(115,134,134)" stroke-width="1" opacity="0.9803921568627451" d="M 276.5 184 L 279 184.5 L 276.5 185 L 276.5 184 Z " /><path fill="rgb(115,134,134)" stroke="rgb(115,134,134)" stroke-width="1" opacity="0.9803921568627451" d="M 228.5 199 L 231 199.5 L 228.5 200 L 228.5 199 Z " /><path fill="rgb(115,134,134)" stroke="rgb(115,134,134)" stroke-width="1" opacity="0.9803921568627451" d="M 281.5 199 L 284 199.5 L 281.5 200 L 281.5 199 Z " /><path fill="rgb(115,134,134)" stroke="rgb(115,134,134)" stroke-width="1" opacity="0.9803921568627451" d="M 234.5 200 L 237 200.5 L 234.5 201 L 234.5 200 Z " /><path fill="rgb(115,134,134)" stroke="rgb(115,134,134)" stroke-width="1" opacity="0.9803921568627451" d="M 275.5 200 L 278 200.5 L 275.5 201 L 275.5 200 Z " /><path fill="rgb(115,134,134)" stroke="rgb(115,134,134)" stroke-width="1" opacity="0.9803921568627451" d="M 154.5 219 L 153.5 221 L 154.5 219 Z " /><path fill="rgb(115,134,134)" stroke="rgb(115,134,134)" stroke-width="1" opacity="0.9803921568627451" d="M 357.5 219 L 358.5 221 L 357.5 219 Z " /><path fill="rgb(115,134,134)" stroke="rgb(115,134,134)" stroke-width="1" opacity="0.9803921568627451" d="M 174.5 222 L 175.5 224 L 174.5 222 Z " /><path fill="rgb(115,134,134)" stroke="rgb(115,134,134)" stroke-width="1" opacity="0.9803921568627451" d="M 337.5 222 L 336.5 224 L 337.5 222 Z " /><path fill="rgb(115,134,134)" stroke="rgb(115,134,134)" stroke-width="1" opacity="0.9803921568627451" d="M 150.5 224 L 149.5 226 L 150.5 224 Z " /><path fill="rgb(115,134,134)" stroke="rgb(115,134,134)" stroke-width="1" opacity="0.9803921568627451" d="M 361.5 224 L 362.5 226 L 361.5 224 Z " /><path fill="rgb(115,134,134)" stroke="rgb(115,134,134)" stroke-width="1" opacity="0.9803921568627451" d="M 178.5 227 L 179.5 229 L 178.5 227 Z " /><path fill="rgb(115,134,134)" stroke="rgb(115,134,134)" stroke-width="1" opacity="0.9803921568627451" d="M 147.5 228 L 146.5 230 L 147.5 228 Z " /><path fill="rgb(115,134,134)" stroke="rgb(115,134,134)" stroke-width="1" opacity="0.9803921568627451" d="M 365.5 229 L 366.5 231 L 365.5 229 Z " /><path fill="rgb(115,134,134)" stroke="rgb(115,134,134)" stroke-width="1" opacity="0.9803921568627451" d="M 331.5 230 L 330.5 232 L 331.5 230 Z " /><path fill="rgb(115,134,134)" stroke="rgb(115,134,134)" stroke-width="1" opacity="0.9803921568627451" d="M 181.5 231 L 182.5 233 L 181.5 231 Z " /><path fill="rgb(115,134,134)" stroke="rgb(115,134,134)" stroke-width="1" opacity="0.9803921568627451" d="M 144.5 232 L 143.5 234 L 144.5 232 Z " /><path fill="rgb(115,134,134)" stroke="rgb(115,134,134)" stroke-width="1" opacity="0.9803921568627451" d="M 368.5 233 L 369.5 235 L 368.5 233 Z " /><path fill="rgb(115,134,134)" stroke="rgb(115,134,134)" stroke-width="1" opacity="0.9803921568627451" d="M 328.5 234 L 327.5 236 L 328.5 234 Z " /><path fill="rgb(115,134,134)" stroke="rgb(115,134,134)" stroke-width="1" opacity="0.9803921568627451" d="M 184.5 235 L 185.5 237 L 184.5 235 Z " /><path fill="rgb(115,134,134)" stroke="rgb(115,134,134)" stroke-width="1" opacity="0.9803921568627451" d="M 141.5 236 L 140.5 238 L 141.5 236 Z " /><path fill="rgb(115,134,134)" stroke="rgb(115,134,134)" stroke-width="1" opacity="0.9803921568627451" d="M 325.5 238 L 324.5 240 L 325.5 238 Z " /><path fill="rgb(115,134,134)" stroke="rgb(115,134,134)" stroke-width="1" opacity="0.9803921568627451" d="M 373.5 240 L 374.5 242 L 373.5 240 Z " /><path fill="rgb(115,134,134)" stroke="rgb(115,134,134)" stroke-width="1" opacity="0.9803921568627451" d="M 323.5 241 L 322.5 243 L 323.5 241 Z " /><path fill="rgb(115,134,134)" stroke="rgb(115,134,134)" stroke-width="1" opacity="0.9803921568627451" d="M 134.5 246 L 133.5 248 L 134.5 246 Z " /><path fill="rgb(115,134,134)" stroke="rgb(115,134,134)" stroke-width="1" opacity="0.9803921568627451" d="M 193.5 248 L 194.5 250 L 193.5 248 Z " /><path fill="rgb(115,134,134)" stroke="rgb(115,134,134)" stroke-width="1" opacity="0.9803921568627451" d="M 315.5 253 L 314.5 255 L 315.5 253 Z " /><path fill="rgb(115,134,134)" stroke="rgb(115,134,134)" stroke-width="1" opacity="0.9803921568627451" d="M 129.5 254 L 128.5 256 L 129.5 254 Z " /><path fill="rgb(115,134,134)" stroke="rgb(115,134,134)" stroke-width="1" opacity="0.9803921568627451" d="M 302.5 282 L 303 292.5 L 302 292.5 L 302.5 282 Z " /><path fill="rgb(115,134,134)" stroke="rgb(115,134,134)" stroke-width="1" opacity="0.9803921568627451" d="M 117.5 293 L 118 295.5 L 117 295.5 L 117.5 293 Z " /><path fill="rgb(115,134,134)" stroke="rgb(115,134,134)" stroke-width="1" opacity="0.9803921568627451" d="M 245.5 301 L 243.5 304 L 245.5 301 Z " /><path fill="rgb(115,134,134)" stroke="rgb(115,134,134)" stroke-width="1" opacity="0.9803921568627451" d="M 266.5 301 L 268.5 304 L 266.5 301 Z " /><path fill="rgb(115,134,134)" stroke="rgb(115,134,134)" stroke-width="1" opacity="0.9803921568627451" d="M 271.5 307 L 272.5 309 L 271.5 307 Z " /><path fill="rgb(115,134,134)" stroke="rgb(115,134,134)" stroke-width="1" opacity="0.9803921568627451" d="M 238.5 310 L 237.5 312 L 238.5 310 Z " /><path fill="rgb(115,134,134)" stroke="rgb(115,134,134)" stroke-width="1" opacity="0.9803921568627451" d="M 274.5 311 L 275.5 313 L 274.5 311 Z " /><path fill="rgb(115,134,134)" stroke="rgb(115,134,134)" stroke-width="1" opacity="0.9803921568627451" d="M 387.5 312 L 386.5 314 L 387.5 312 Z " /><path fill="rgb(115,134,134)" stroke="rgb(115,134,134)" stroke-width="1" opacity="0.9803921568627451" d="M 311.5 314 L 312.5 316 L 311.5 314 Z " /><path fill="rgb(115,134,134)" stroke="rgb(115,134,134)" stroke-width="1" opacity="0.9803921568627451" d="M 234.5 315 L 233.5 317 L 234.5 315 Z " /><path fill="rgb(115,134,134)" stroke="rgb(115,134,134)" stroke-width="1" opacity="0.9803921568627451" d="M 384.5 316 L 378.5 323 L 384.5 316 Z " /><path fill="rgb(115,134,134)" stroke="rgb(115,134,134)" stroke-width="1" opacity="0.9803921568627451" d="M 128.5 317 L 132.5 322 L 128.5 317 Z " /><path fill="rgb(115,134,134)" stroke="rgb(115,134,134)" stroke-width="1" opacity="0.9803921568627451" d="M 280.5 319 L 281.5 321 L 280.5 319 Z " /><path fill="rgb(115,134,134)" stroke="rgb(115,134,134)" stroke-width="1" opacity="0.9803921568627451" d="M 229.5 322 L 228.5 324 L 229.5 322 Z " /><path fill="rgb(115,134,134)" stroke="rgb(115,134,134)" stroke-width="1" opacity="0.9803921568627451" d="M 319.5 322 L 320.5 324 L 319.5 322 Z " /><path fill="rgb(115,134,134)" stroke="rgb(115,134,134)" stroke-width="1" opacity="0.9803921568627451" d="M 135.5 323 L 136.5 325 L 135.5 323 Z " /><path fill="rgb(115,134,134)" stroke="rgb(115,134,134)" stroke-width="1" opacity="0.9803921568627451" d="M 191.5 323 L 190.5 325 L 191.5 323 Z " /><path fill="rgb(115,134,134)" stroke="rgb(115,134,134)" stroke-width="1" opacity="0.9803921568627451" d="M 375.5 324 L 374.5 326 L 375.5 324 Z " /><path fill="rgb(115,134,134)" stroke="rgb(115,134,134)" stroke-width="1" opacity="0.9803921568627451" d="M 285.5 326 L 286.5 328 L 285.5 326 Z " /><path fill="rgb(115,134,134)" stroke="rgb(115,134,134)" stroke-width="1" opacity="0.9803921568627451" d="M 287.5 329 L 288.5 331 L 287.5 329 Z " /><path fill="rgb(115,134,134)" stroke="rgb(115,134,134)" stroke-width="1" opacity="0.9803921568627451" d="M 289.5 332 L 290.5 334 L 289.5 332 Z " /><path fill="rgb(115,134,134)" stroke="rgb(115,134,134)" stroke-width="1" opacity="0.9803921568627451" d="M 219.5 337 L 218.5 339 L 219.5 337 Z " /><path fill="rgb(115,134,134)" stroke="rgb(115,134,134)" stroke-width="1" opacity="0.9803921568627451" d="M 205.5 369 L 206 377.5 L 205 377.5 L 205.5 369 Z " /><path fill="rgb(115,134,134)" stroke="rgb(115,134,134)" stroke-width="1" opacity="0.9803921568627451" d="M 306.5 369 L 307 371.5 L 306 371.5 L 306.5 369 Z " /><path fill="rgb(115,134,134)" stroke="rgb(115,134,134)" stroke-width="1" opacity="0.9803921568627451" d="M 306.5 374 L 307 378.5 L 306 378.5 L 306.5 374 Z " /><path fill="rgb(115,134,134)" stroke="rgb(115,134,134)" stroke-width="1" opacity="0.9803921568627451" d="M 213.5 400 L 214.5 402 L 213.5 400 Z " /><path fill="rgb(115,134,134)" stroke="rgb(115,134,134)" stroke-width="1" opacity="0.9803921568627451" d="M 296.5 403 L 295.5 405 L 296.5 403 Z " /><path fill="rgb(115,134,134)" stroke="rgb(115,134,134)" stroke-width="1" opacity="0.9803921568627451" d="M 216.5 404 L 219.5 408 L 216.5 404 Z " /><path fill="rgb(115,134,134)" stroke="rgb(115,134,134)" stroke-width="1" opacity="0.9803921568627451" d="M 221.5 409 L 224.5 413 L 221.5 409 Z " /><path fill="rgb(115,134,134)" stroke="rgb(115,134,134)" stroke-width="1" opacity="0.9803921568627451" d="M 251.5 423 L 261 423.5 L 251.5 424 L 251.5 423 Z " /><path fill="rgb(51,94,128)" stroke="rgb(51,94,128)" stroke-width="1" opacity="0.996078431372549" d="M 172.5 0 L 306.5 0 L 313 4.5 L 315 9.5 Q 313.444 29.556 316 45.5 Q 319.02 65.48 325 82.5 Q 337.006 116.494 359 140.5 L 352.5 147 L 351.5 146 Q 340.505 145.732 336 151 Q 331.792 156.125 330.5 165 Q 306.5 181 270.5 185 Q 266.385 176.115 252.5 177 Q 244.964 178.964 241.5 185 L 236.5 185 Q 202.899 179.601 180 163.5 Q 180.982 153.018 174.5 150 Q 170.5 145 160.5 146 L 159.5 147 L 149 136.5 L 136 117.5 Q 150.185 97.185 158 70.5 Q 166.699 43.199 166 6.5 L 170.5 1 L 172.5 0 Z " /><path fill="rgb(51,94,128)" stroke="rgb(51,94,128)" stroke-width="1" opacity="0.996078431372549" d="M 374.5 120 L 373.5 122 L 374.5 120 Z " /><path fill="rgb(51,94,128)" stroke="rgb(51,94,128)" stroke-width="1" opacity="0.996078431372549" d="M 125.5 133 L 129 135.5 Q 136.182 148.318 147 157.5 L 147 161.5 L 146 164.5 Q 147.477 173.023 153.5 177 L 155 177.5 L 155 218.5 Q 136.621 239.121 123 264.5 Q 114.955 274.955 117 295.5 Q 121.25 312.25 132.5 322 Q 144.208 335.292 171.5 333 Q 191.243 328.743 201 314.5 Q 210.723 303.723 210 282.5 Q 197.542 242.958 171 217.5 L 171 178 Q 199.976 196.263 242 202.5 L 246.5 208 L 248 208.5 L 248 298.5 Q 228.622 319.622 214 345.5 Q 204.89 356.89 205 377.5 Q 208.67 401.33 224.5 413 Q 236.603 424.397 260.5 424 Q 285.097 420.097 297 403.5 Q 307.133 391.633 307 369.5 Q 292.784 326.716 264 298.5 L 264 209.5 L 271 201 Q 313.352 197.125 341 178 L 341 217.5 Q 323.737 237.737 310 261.5 Q 301.613 272.613 302 292.5 Q 306.002 313.498 320.5 324 Q 331.862 335.638 357.5 333 Q 375.283 328.783 385 316.5 Q 396.812 305.312 395 280.5 Q 381.519 243.981 357 218.5 L 357 177 L 363 172.5 Q 365.958 168.458 366 161.5 L 365 157.5 L 370.5 153 Q 404.735 187.765 457 204.5 L 459 208.5 L 459 237.5 Q 443.959 375.459 360.5 445 L 354.5 450 L 125.5 450 L 114 439.5 Q 114.75 437.25 112.5 438 L 109 433 L 105 430.5 Q 62.541 386.459 39 323.5 Q 20.124 275.876 22 207.5 L 25.5 202 Q 82.353 182.853 118 142.5 L 125.5 133 Z " /><path fill="rgb(51,94,128)" stroke="rgb(51,94,128)" stroke-width="1" opacity="0.996078431372549" d="M 362.5 136 L 361.5 138 L 362.5 136 Z " /><path fill="rgb(51,94,128)" stroke="rgb(51,94,128)" stroke-width="1" opacity="0.996078431372549" d="M 393.5 144 L 394.5 146 L 393.5 144 Z " /><path fill="rgb(51,94,128)" stroke="rgb(51,94,128)" stroke-width="1" opacity="0.996078431372549" d="M 404.5 432 L 402.5 435 L 404.5 432 Z " /><path fill="rgb(51,94,128)" stroke="rgb(51,94,128)" stroke-width="1" opacity="0.996078431372549" d="M 400.5 436 L 397.5 440 L 400.5 436 Z " /><path fill="rgb(240,125,138)" stroke="rgb(240,125,138)" stroke-width="1" opacity="0.996078431372549" d="M 161.5 146 Q 173.321 146.679 178 154.5 Q 181 158.5 180 166.5 Q 177.893 174.393 171.5 178 Q 167.625 180.625 160.5 180 L 151 175 Q 145.333 170.375 147 157.5 L 155.5 148 L 161.5 146 Z " /><path fill="rgb(240,125,138)" stroke="rgb(240,125,138)" stroke-width="1" opacity="0.996078431372549" d="M 347.5 146 Q 357.88 146.12 362 152.5 Q 366.875 156.625 365 167.5 L 359.5 176 Q 355.833 180.833 346.5 180 Q 338.239 178.761 335 172.5 Q 331.25 168.75 332 160.5 Q 333.85 152.85 339.5 149 L 347.5 146 Z " /><path fill="rgb(240,125,138)" stroke="rgb(240,125,138)" stroke-width="1" opacity="0.996078431372549" d="M 253.5 177 Q 266.541 176.959 271 185.5 Q 273.625 189.375 273 196.5 Q 271.15 204.15 265.5 208 Q 261.458 210.958 254.5 211 Q 246.95 209.55 243 204.5 Q 238.333 199.667 240 188.5 L 246.5 180 L 253.5 177 Z " /><path fill="rgb(240,125,138)" stroke="rgb(240,125,138)" stroke-width="1" opacity="0.996078431372549" d="M 159.5 271 Q 172.917 270.083 177 278.5 Q 179.857 282.143 179 289.5 Q 177.179 296.679 171.5 300 Q 167.833 303.333 159.5 302 L 152 298 Q 146.667 294 148 282.5 L 155.5 273 L 159.5 271 Z " /><path fill="rgb(240,125,138)" stroke="rgb(240,125,138)" stroke-width="1" opacity="0.996078431372549" d="M 345.5 271 Q 357.375 269.625 361 276.5 Q 365.5 281 364 291.5 L 358.5 299 Q 354.333 303.333 344.5 302 L 336 295.5 Q 332.478 292.022 333 284.5 Q 334.55 277.55 339.5 274 L 345.5 271 Z " /><path fill="rgb(240,125,138)" stroke="rgb(240,125,138)" stroke-width="1" opacity="0.996078431372549" d="M 251.5 351 Q 268.123 349.877 274 359.5 Q 279.385 365.115 278 377.5 L 272 389 Q 266.274 395.56 252.5 395 Q 242.25 392.25 237 384.5 Q 233.045 379.455 234 369.5 L 240 357 L 251.5 351 Z " /></svg>