<svg width="512" height="512" version="1.1" xmlns="http://www.w3.org/2000/svg" desc="Created with imagetracer.js version 1.2.6" ><path fill="rgb(0,0,0)" stroke="rgb(0,0,0)" stroke-width="1" opacity="0" d="M 0 0 L 329 0.5 Q 256.536 11.536 220 58.5 Q 180.165 98.665 182 180.5 Q 183.813 200.187 190 215.5 L 0.5 406 L 0 0 Z " /><path fill="rgb(0,0,0)" stroke="rgb(0,0,0)" stroke-width="1" opacity="0" d="M 365.5 0 L 512 0 L 512 146.5 L 511 146.5 Q 502.403 80.597 462.5 46 Q 426.718 9.121 365.5 0 Z " /><path fill="rgb(0,0,0)" stroke="rgb(0,0,0)" stroke-width="1" opacity="0" d="M 383.5 78 Q 412.873 77.127 424 94.5 Q 435 105.5 434 128.5 Q 430.137 147.137 417.5 157 Q 406.771 167.771 384.5 167 Q 365.017 163.483 355 150.5 Q 344.177 139.823 345 117.5 Q 347.834 97.334 361.5 88 Q 369.706 80.206 383.5 78 Z " /><path fill="rgb(0,0,0)" stroke="rgb(0,0,0)" stroke-width="1" opacity="0" d="M 511.5 183 L 512 512 L 106 511.5 L 133 486.5 Q 138.813 480.813 136 466.5 L 135 465.5 L 134 452 Q 146.95 448.7 166.5 449 L 175 445 L 179 436.5 L 182 404 Q 194.097 406.722 210.5 406 Q 216.625 404.625 219 399.5 L 221 395.5 L 221 363 L 254.5 363 L 256.5 362 L 296.5 322 Q 323.023 332.977 363.5 330 Q 436.904 318.904 474 271.5 Q 504.125 238.625 511.5 183 Z " /><path fill="rgb(0,0,0)" stroke="rgb(0,0,0)" stroke-width="1" opacity="0" d="M 0.5 503 L 7.5 511 L 9 511.5 L 0 512 L 0.5 503 Z " /><path fill="rgb(252,190,40)" stroke="rgb(252,190,40)" stroke-width="1" opacity="0.9882352941176471" d="M 342.5 0 Q 423.834 3.166 463 48.5 L 421.5 91 Q 411.17 76.83 386.5 77 Q 363.792 80.292 353 95.5 Q 343.653 105.653 344 125.5 Q 346.272 144.728 358 154.5 L 4.5 507 L 0 499.5 L 0 410.5 L 2 404.5 L 190 216.5 L 190 212.5 Q 179.689 186.811 183 147.5 Q 193.869 77.369 238.5 41 Q 275.052 5.052 342.5 0 Z " /><path fill="rgb(253,162,34)" stroke="rgb(253,162,34)" stroke-width="1" opacity="0.6862745098039216" d="M 329.5 0 L 342 0.5 L 329.5 1 L 329.5 0 Z " /><path fill="rgb(253,162,34)" stroke="rgb(253,162,34)" stroke-width="1" opacity="0.6862745098039216" d="M 352.5 0 L 365 0.5 L 352.5 1 L 352.5 0 Z " /><path fill="rgb(253,162,34)" stroke="rgb(253,162,34)" stroke-width="1" opacity="0.6862745098039216" d="M 322.5 1 L 328 1.5 L 322.5 2 L 322.5 1 Z " /><path fill="rgb(253,162,34)" stroke="rgb(253,162,34)" stroke-width="1" opacity="0.6862745098039216" d="M 366.5 1 L 372 1.5 L 366.5 2 L 366.5 1 Z " /><path fill="rgb(253,162,34)" stroke="rgb(253,162,34)" stroke-width="1" opacity="0.6862745098039216" d="M 316.5 2 L 321 2.5 L 316.5 3 L 316.5 2 Z " /><path fill="rgb(253,162,34)" stroke="rgb(253,162,34)" stroke-width="1" opacity="0.6862745098039216" d="M 373.5 2 L 383 3.5 L 379.5 4 Q 372.643 4.607 373.5 2 Z " /><path fill="rgb(253,162,34)" stroke="rgb(253,162,34)" stroke-width="1" opacity="0.6862745098039216" d="M 311.5 3 L 315 3.5 L 303.5 6 L 303.5 5 L 311.5 3 Z " /><path fill="rgb(253,162,34)" stroke="rgb(253,162,34)" stroke-width="1" opacity="0.6862745098039216" d="M 384.5 4 L 387 4.5 L 384.5 5 L 384.5 4 Z " /><path fill="rgb(253,162,34)" stroke="rgb(253,162,34)" stroke-width="1" opacity="0.6862745098039216" d="M 388.5 5 L 391 5.5 L 388.5 6 L 388.5 5 Z " /><path fill="rgb(253,162,34)" stroke="rgb(253,162,34)" stroke-width="1" opacity="0.6862745098039216" d="M 299.5 6 L 302 6.5 L 291.5 10 L 291.5 9 L 299.5 6 Z " /><path fill="rgb(253,162,34)" stroke="rgb(253,162,34)" stroke-width="1" opacity="0.6862745098039216" d="M 392.5 6 L 406 10.5 L 404.5 11 L 392.5 7 L 392.5 6 Z " /><path fill="rgb(253,162,34)" stroke="rgb(253,162,34)" stroke-width="1" opacity="0.6862745098039216" d="M 285.5 11 L 287 11.5 L 281.5 14 L 281.5 13 L 285.5 11 Z " /><path fill="rgb(253,162,34)" stroke="rgb(253,162,34)" stroke-width="1" opacity="0.6862745098039216" d="M 407.5 11 L 411 12.5 L 409.5 13 L 407.5 11 Z " /><path fill="rgb(253,162,34)" stroke="rgb(253,162,34)" stroke-width="1" opacity="0.6862745098039216" d="M 412.5 13 Q 444.137 26.363 466 49.5 L 475 59.5 L 465 50.5 Q 465.75 48.25 463.5 49 Q 441.843 26.179 412.5 13 Z " /><path fill="rgb(253,162,34)" stroke="rgb(253,162,34)" stroke-width="1" opacity="0.6862745098039216" d="M 278.5 14 L 280 14.5 Q 245.122 30.122 222 57.5 Q 206.408 74.908 196.5 98 L 196 96.5 Q 212.449 61.449 240.5 38 Q 257.155 23.655 278.5 14 Z " /><path fill="rgb(253,162,34)" stroke="rgb(253,162,34)" stroke-width="1" opacity="0.6862745098039216" d="M 475.5 61 L 477.5 64 L 475.5 61 Z " /><path fill="rgb(253,162,34)" stroke="rgb(253,162,34)" stroke-width="1" opacity="0.6862745098039216" d="M 478.5 65 L 487 76.5 L 485 75.5 L 478.5 65 Z " /><path fill="rgb(253,162,34)" stroke="rgb(253,162,34)" stroke-width="1" opacity="0.6862745098039216" d="M 386.5 77 L 393 77.5 L 386.5 78 L 386.5 77 Z " /><path fill="rgb(253,162,34)" stroke="rgb(253,162,34)" stroke-width="1" opacity="0.6862745098039216" d="M 379.5 78 L 383 78.5 L 376.5 80 L 376.5 79 L 379.5 78 Z " /><path fill="rgb(253,162,34)" stroke="rgb(253,162,34)" stroke-width="1" opacity="0.6862745098039216" d="M 396.5 78 L 403 79.5 L 400.5 80 Q 395.7 80.05 396.5 78 Z " /><path fill="rgb(253,162,34)" stroke="rgb(253,162,34)" stroke-width="1" opacity="0.6862745098039216" d="M 487.5 78 L 490 81.5 L 488 80.5 L 487.5 78 Z " /><path fill="rgb(253,162,34)" stroke="rgb(253,162,34)" stroke-width="1" opacity="0.6862745098039216" d="M 404.5 80 L 408 81.5 L 406.5 81 Q 403.5 81.5 404.5 80 Z " /><path fill="rgb(253,162,34)" stroke="rgb(253,162,34)" stroke-width="1" opacity="0.6862745098039216" d="M 371.5 81 L 370.5 83 Q 360.195 86.195 355 94.5 L 348.5 105 L 349 103.5 Q 353.167 92.167 362.5 86 L 371.5 81 Z " /><path fill="rgb(253,162,34)" stroke="rgb(253,162,34)" stroke-width="1" opacity="0.6862745098039216" d="M 409.5 82 Q 419.159 86.341 425 94.5 L 430 102.5 L 428 101.5 Q 424.386 93.114 417.5 88 Q 410.602 86.023 409.5 82 Z " /><path fill="rgb(253,162,34)" stroke="rgb(253,162,34)" stroke-width="1" opacity="0.6862745098039216" d="M 490.5 83 L 493 86.5 L 491 85.5 L 490.5 83 Z " /><path fill="rgb(253,162,34)" stroke="rgb(253,162,34)" stroke-width="1" opacity="0.6862745098039216" d="M 495.5 92 L 499 99.5 L 498 99.5 L 495.5 92 Z " /><path fill="rgb(253,162,34)" stroke="rgb(253,162,34)" stroke-width="1" opacity="0.6862745098039216" d="M 195.5 99 L 196 100.5 L 193.5 105 L 193 103.5 L 195.5 99 Z " /><path fill="rgb(253,162,34)" stroke="rgb(253,162,34)" stroke-width="1" opacity="0.6862745098039216" d="M 501.5 106 L 504 112.5 L 503 112.5 L 501.5 106 Z " /><path fill="rgb(253,162,34)" stroke="rgb(253,162,34)" stroke-width="1" opacity="0.6862745098039216" d="M 191.5 109 L 192 110.5 L 189.5 117 L 189 114.5 L 191.5 109 Z " /><path fill="rgb(253,162,34)" stroke="rgb(253,162,34)" stroke-width="1" opacity="0.6862745098039216" d="M 346.5 109 L 347 111.5 L 345.5 117 L 345 112.5 L 346.5 109 Z " /><path fill="rgb(253,162,34)" stroke="rgb(253,162,34)" stroke-width="1" opacity="0.6862745098039216" d="M 432.5 109 L 433 111.5 L 432 111.5 L 432.5 109 Z " /><path fill="rgb(253,162,34)" stroke="rgb(253,162,34)" stroke-width="1" opacity="0.6862745098039216" d="M 433.5 113 L 434 115.5 L 433 115.5 L 433.5 113 Z " /><path fill="rgb(253,162,34)" stroke="rgb(253,162,34)" stroke-width="1" opacity="0.6862745098039216" d="M 505.5 117 L 506 119.5 L 505 119.5 L 505.5 117 Z " /><path fill="rgb(253,162,34)" stroke="rgb(253,162,34)" stroke-width="1" opacity="0.6862745098039216" d="M 188.5 118 L 189 120.5 L 187.5 124 L 187 121.5 L 188.5 118 Z " /><path fill="rgb(253,162,34)" stroke="rgb(253,162,34)" stroke-width="1" opacity="0.6862745098039216" d="M 344.5 119 L 345 125.5 L 344 125.5 L 344.5 119 Z " /><path fill="rgb(253,162,34)" stroke="rgb(253,162,34)" stroke-width="1" opacity="0.6862745098039216" d="M 434.5 120 L 435 124.5 L 434 124.5 L 434.5 120 Z " /><path fill="rgb(253,162,34)" stroke="rgb(253,162,34)" stroke-width="1" opacity="0.6862745098039216" d="M 506.5 121 L 507 123.5 L 506 123.5 L 506.5 121 Z " /><path fill="rgb(253,162,34)" stroke="rgb(253,162,34)" stroke-width="1" opacity="0.6862745098039216" d="M 186.5 125 L 187 128.5 L 186 128.5 L 186.5 125 Z " /><path fill="rgb(253,162,34)" stroke="rgb(253,162,34)" stroke-width="1" opacity="0.6862745098039216" d="M 507.5 125 L 508 127.5 L 507 127.5 L 507.5 125 Z " /><path fill="rgb(253,162,34)" stroke="rgb(253,162,34)" stroke-width="1" opacity="0.6862745098039216" d="M 345.5 128 Q 348.662 147.338 361.5 157 Q 368.246 163.254 379 165.5 L 376.5 166 Q 361.417 161.083 353 149.5 Q 345.687 141.16 345.5 128 Z " /><path fill="rgb(253,162,34)" stroke="rgb(253,162,34)" stroke-width="1" opacity="0.6862745098039216" d="M 433.5 129 L 434 131.5 L 433 131.5 L 433.5 129 Z " /><path fill="rgb(253,162,34)" stroke="rgb(253,162,34)" stroke-width="1" opacity="0.6862745098039216" d="M 508.5 129 L 509 131.5 L 508 131.5 L 508.5 129 Z " /><path fill="rgb(253,162,34)" stroke="rgb(253,162,34)" stroke-width="1" opacity="0.6862745098039216" d="M 185.5 130 L 186 133.5 L 184.5 139 L 184 134.5 L 185.5 130 Z " /><path fill="rgb(253,162,34)" stroke="rgb(253,162,34)" stroke-width="1" opacity="0.6862745098039216" d="M 432.5 133 L 433 135.5 L 432 135.5 L 432.5 133 Z " /><path fill="rgb(253,162,34)" stroke="rgb(253,162,34)" stroke-width="1" opacity="0.6862745098039216" d="M 509.5 133 L 510 137.5 L 509 137.5 L 509.5 133 Z " /><path fill="rgb(253,162,34)" stroke="rgb(253,162,34)" stroke-width="1" opacity="0.6862745098039216" d="M 430.5 140 L 430 141.5 Q 425.821 151.821 417.5 158 L 407.5 164 L 408.5 162 Q 418.805 158.805 424 150.5 L 430.5 140 Z " /><path fill="rgb(253,162,34)" stroke="rgb(253,162,34)" stroke-width="1" opacity="0.6862745098039216" d="M 510.5 140 L 511 144.5 L 510 144.5 L 510.5 140 Z " /><path fill="rgb(253,162,34)" stroke="rgb(253,162,34)" stroke-width="1" opacity="0.6862745098039216" d="M 183.5 141 L 184 146.5 L 183 146.5 L 183.5 141 Z " /><path fill="rgb(253,162,34)" stroke="rgb(253,162,34)" stroke-width="1" opacity="0.6862745098039216" d="M 511.5 147 L 512 156.5 L 511 156.5 L 511.5 147 Z " /><path fill="rgb(253,162,34)" stroke="rgb(253,162,34)" stroke-width="1" opacity="0.6862745098039216" d="M 182.5 148 L 183 180.5 L 182 180.5 L 182.5 148 Z " /><path fill="rgb(253,162,34)" stroke="rgb(253,162,34)" stroke-width="1" opacity="0.6862745098039216" d="M 400.5 165 L 403 165.5 L 400.5 166 L 400.5 165 Z " /><path fill="rgb(253,162,34)" stroke="rgb(253,162,34)" stroke-width="1" opacity="0.6862745098039216" d="M 380.5 166 L 384 166.5 L 380.5 167 L 380.5 166 Z " /><path fill="rgb(253,162,34)" stroke="rgb(253,162,34)" stroke-width="1" opacity="0.6862745098039216" d="M 395.5 166 L 399 166.5 L 395.5 167 L 395.5 166 Z " /><path fill="rgb(253,162,34)" stroke="rgb(253,162,34)" stroke-width="1" opacity="0.6862745098039216" d="M 388.5 167 L 391 167.5 L 388.5 168 L 388.5 167 Z " /><path fill="rgb(253,162,34)" stroke="rgb(253,162,34)" stroke-width="1" opacity="0.6862745098039216" d="M 511.5 173 L 512 182.5 L 511 182.5 L 511.5 173 Z " /><path fill="rgb(253,162,34)" stroke="rgb(253,162,34)" stroke-width="1" opacity="0.6862745098039216" d="M 183.5 183 L 184 188.5 L 183 188.5 L 183.5 183 Z " /><path fill="rgb(253,162,34)" stroke="rgb(253,162,34)" stroke-width="1" opacity="0.6862745098039216" d="M 510.5 185 L 511 189.5 L 510 189.5 L 510.5 185 Z " /><path fill="rgb(253,162,34)" stroke="rgb(253,162,34)" stroke-width="1" opacity="0.6862745098039216" d="M 184.5 190 L 185 194.5 L 184 194.5 L 184.5 190 Z " /><path fill="rgb(253,162,34)" stroke="rgb(253,162,34)" stroke-width="1" opacity="0.6862745098039216" d="M 509.5 192 L 510 195.5 L 509 195.5 L 509.5 192 Z " /><path fill="rgb(253,162,34)" stroke="rgb(253,162,34)" stroke-width="1" opacity="0.6862745098039216" d="M 185.5 196 L 186 199.5 L 185 199.5 L 185.5 196 Z " /><path fill="rgb(253,162,34)" stroke="rgb(253,162,34)" stroke-width="1" opacity="0.6862745098039216" d="M 508.5 198 L 509 200.5 L 508 200.5 L 508.5 198 Z " /><path fill="rgb(253,162,34)" stroke="rgb(253,162,34)" stroke-width="1" opacity="0.6862745098039216" d="M 186.5 201 L 187 203.5 L 186 203.5 L 186.5 201 Z " /><path fill="rgb(253,162,34)" stroke="rgb(253,162,34)" stroke-width="1" opacity="0.6862745098039216" d="M 507.5 202 L 508 204.5 L 507 204.5 L 507.5 202 Z " /><path fill="rgb(253,162,34)" stroke="rgb(253,162,34)" stroke-width="1" opacity="0.6862745098039216" d="M 187.5 205 L 188 207.5 L 187 207.5 L 187.5 205 Z " /><path fill="rgb(253,162,34)" stroke="rgb(253,162,34)" stroke-width="1" opacity="0.6862745098039216" d="M 506.5 206 L 507 208.5 L 506 208.5 L 506.5 206 Z " /><path fill="rgb(253,162,34)" stroke="rgb(253,162,34)" stroke-width="1" opacity="0.6862745098039216" d="M 188.5 209 L 190 214.5 L 189 214.5 L 188.5 209 Z " /><path fill="rgb(253,162,34)" stroke="rgb(253,162,34)" stroke-width="1" opacity="0.6862745098039216" d="M 505.5 210 L 506 212.5 L 505 212.5 L 505.5 210 Z " /><path fill="rgb(253,162,34)" stroke="rgb(253,162,34)" stroke-width="1" opacity="0.6862745098039216" d="M 504.5 214 L 505 215.5 L 502.5 221 L 502 219.5 L 504.5 214 Z " /><path fill="rgb(253,162,34)" stroke="rgb(253,162,34)" stroke-width="1" opacity="0.6862745098039216" d="M 189.5 216 L 2 404.5 L 0.5 410 L 0 406.5 L 189.5 216 Z " /><path fill="rgb(253,162,34)" stroke="rgb(253,162,34)" stroke-width="1" opacity="0.6862745098039216" d="M 497.5 232 L 498 233.5 L 487.5 252 L 488 250.5 L 497.5 232 Z " /><path fill="rgb(253,162,34)" stroke="rgb(253,162,34)" stroke-width="1" opacity="0.6862745098039216" d="M 486.5 253 L 486 254.5 L 483.5 258 L 485 255.5 L 486.5 253 Z " /><path fill="rgb(253,162,34)" stroke="rgb(253,162,34)" stroke-width="1" opacity="0.6862745098039216" d="M 482.5 259 L 481 261.5 Q 469.809 279.309 453.5 292 L 448.5 296 L 452.5 291 L 473 271.5 L 482.5 259 Z " /><path fill="rgb(253,162,34)" stroke="rgb(253,162,34)" stroke-width="1" opacity="0.6862745098039216" d="M 446.5 296 L 444.5 299 L 441.5 301 L 443.5 298 L 446.5 296 Z " /><path fill="rgb(253,162,34)" stroke="rgb(253,162,34)" stroke-width="1" opacity="0.6862745098039216" d="M 439.5 301 L 437.5 304 L 435.5 305 L 436.5 303 L 439.5 301 Z " /><path fill="rgb(253,162,34)" stroke="rgb(253,162,34)" stroke-width="1" opacity="0.6862745098039216" d="M 433.5 305 L 432.5 307 L 430.5 308 L 431.5 306 L 433.5 305 Z " /><path fill="rgb(253,162,34)" stroke="rgb(253,162,34)" stroke-width="1" opacity="0.6862745098039216" d="M 428.5 308 L 427.5 310 L 414.5 316 L 414.5 315 L 428.5 308 Z " /><path fill="rgb(253,162,34)" stroke="rgb(253,162,34)" stroke-width="1" opacity="0.6862745098039216" d="M 409.5 317 L 411 317.5 L 407.5 319 L 407.5 318 L 409.5 317 Z " /><path fill="rgb(253,162,34)" stroke="rgb(253,162,34)" stroke-width="1" opacity="0.6862745098039216" d="M 401.5 320 L 403 320.5 L 395.5 323 L 395.5 322 L 401.5 320 Z " /><path fill="rgb(253,162,34)" stroke="rgb(253,162,34)" stroke-width="1" opacity="0.6862745098039216" d="M 295.5 322 L 256.5 362 L 252.5 363 L 252.5 362 L 256.5 361 L 295.5 322 Z " /><path fill="rgb(253,162,34)" stroke="rgb(253,162,34)" stroke-width="1" opacity="0.6862745098039216" d="M 300.5 323 L 303 323.5 L 300.5 324 L 300.5 323 Z " /><path fill="rgb(253,162,34)" stroke="rgb(253,162,34)" stroke-width="1" opacity="0.6862745098039216" d="M 388.5 324 L 391 324.5 L 388.5 325 L 388.5 324 Z " /><path fill="rgb(253,162,34)" stroke="rgb(253,162,34)" stroke-width="1" opacity="0.6862745098039216" d="M 308.5 325 L 311 325.5 L 308.5 326 L 308.5 325 Z " /><path fill="rgb(253,162,34)" stroke="rgb(253,162,34)" stroke-width="1" opacity="0.6862745098039216" d="M 384.5 325 L 387 325.5 L 384.5 326 L 384.5 325 Z " /><path fill="rgb(253,162,34)" stroke="rgb(253,162,34)" stroke-width="1" opacity="0.6862745098039216" d="M 312.5 326 L 315 326.5 L 312.5 327 L 312.5 326 Z " /><path fill="rgb(253,162,34)" stroke="rgb(253,162,34)" stroke-width="1" opacity="0.6862745098039216" d="M 379.5 326 L 382 326.5 L 379.5 327 L 379.5 326 Z " /><path fill="rgb(253,162,34)" stroke="rgb(253,162,34)" stroke-width="1" opacity="0.6862745098039216" d="M 317.5 327 L 321 327.5 L 317.5 328 L 317.5 327 Z " /><path fill="rgb(253,162,34)" stroke="rgb(253,162,34)" stroke-width="1" opacity="0.6862745098039216" d="M 374.5 327 L 378 327.5 L 374.5 328 L 374.5 327 Z " /><path fill="rgb(253,162,34)" stroke="rgb(253,162,34)" stroke-width="1" opacity="0.6862745098039216" d="M 323.5 328 L 328 328.5 L 323.5 329 L 323.5 328 Z " /><path fill="rgb(253,162,34)" stroke="rgb(253,162,34)" stroke-width="1" opacity="0.6862745098039216" d="M 367.5 328 L 371 328.5 L 367.5 329 L 367.5 328 Z " /><path fill="rgb(253,162,34)" stroke="rgb(253,162,34)" stroke-width="1" opacity="0.6862745098039216" d="M 331.5 329 L 340 329.5 L 331.5 330 L 331.5 329 Z " /><path fill="rgb(253,162,34)" stroke="rgb(253,162,34)" stroke-width="1" opacity="0.6862745098039216" d="M 354.5 329 L 364 329.5 L 354.5 330 L 354.5 329 Z " /><path fill="rgb(253,162,34)" stroke="rgb(253,162,34)" stroke-width="1" opacity="0.6862745098039216" d="M 220.5 393 L 221 395.5 L 220 395.5 L 220.5 393 Z " /><path fill="rgb(253,162,34)" stroke="rgb(253,162,34)" stroke-width="1" opacity="0.6862745098039216" d="M 218.5 399 L 213.5 405 L 212 404.5 L 218.5 399 Z " /><path fill="rgb(253,162,34)" stroke="rgb(253,162,34)" stroke-width="1" opacity="0.6862745098039216" d="M 181 403 L 186 403.5 L 182 404 L 181.5 409 L 181 403 Z " /><path fill="rgb(253,162,34)" stroke="rgb(253,162,34)" stroke-width="1" opacity="0.6862745098039216" d="M 189.5 404 L 194 404.5 L 189.5 405 L 189.5 404 Z " /><path fill="rgb(253,162,34)" stroke="rgb(253,162,34)" stroke-width="1" opacity="0.6862745098039216" d="M 197.5 405 L 203 405.5 L 197.5 406 L 197.5 405 Z " /><path fill="rgb(253,162,34)" stroke="rgb(253,162,34)" stroke-width="1" opacity="0.6862745098039216" d="M 180.5 412 L 181 418.5 L 180 418.5 L 180.5 412 Z " /><path fill="rgb(253,162,34)" stroke="rgb(253,162,34)" stroke-width="1" opacity="0.6862745098039216" d="M 179.5 423 L 180 429.5 L 179 429.5 L 179.5 423 Z " /><path fill="rgb(253,162,34)" stroke="rgb(253,162,34)" stroke-width="1" opacity="0.6862745098039216" d="M 178.5 434 L 179 436.5 L 178 436.5 L 178.5 434 Z " /><path fill="rgb(253,162,34)" stroke="rgb(253,162,34)" stroke-width="1" opacity="0.6862745098039216" d="M 177.5 438 L 178 439.5 L 175 445 L 168.5 448 L 168.5 447 L 176 441.5 L 177.5 438 Z " /><path fill="rgb(253,162,34)" stroke="rgb(253,162,34)" stroke-width="1" opacity="0.6862745098039216" d="M 163.5 448 L 167 448.5 L 163.5 449 L 163.5 448 Z " /><path fill="rgb(253,162,34)" stroke="rgb(253,162,34)" stroke-width="1" opacity="0.6862745098039216" d="M 152.5 449 L 159 449.5 L 152.5 450 L 152.5 449 Z " /><path fill="rgb(253,162,34)" stroke="rgb(253,162,34)" stroke-width="1" opacity="0.6862745098039216" d="M 142.5 450 L 148 450.5 L 142.5 451 L 142.5 450 Z " /><path fill="rgb(253,162,34)" stroke="rgb(253,162,34)" stroke-width="1" opacity="0.6862745098039216" d="M 133 451 L 138 451.5 L 134 452 L 133.5 455 L 133 451 Z " /><path fill="rgb(253,162,34)" stroke="rgb(253,162,34)" stroke-width="1" opacity="0.6862745098039216" d="M 134.5 458 L 135 462.5 L 134 462.5 L 134.5 458 Z " /><path fill="rgb(253,162,34)" stroke="rgb(253,162,34)" stroke-width="1" opacity="0.6862745098039216" d="M 135.5 466 L 136 471.5 L 135 471.5 L 135.5 466 Z " /><path fill="rgb(253,162,34)" stroke="rgb(253,162,34)" stroke-width="1" opacity="0.6862745098039216" d="M 135.5 479 L 136 481.5 L 125.5 494 L 107.5 511 L 103.5 512 L 103.5 511 L 107.5 510 L 132 486.5 L 135.5 479 Z " /><path fill="rgb(253,162,34)" stroke="rgb(253,162,34)" stroke-width="1" opacity="0.6862745098039216" d="M 0.5 500 Q 1.875 507.125 7.5 510 L 12 511.5 L 9.5 512 L 1 504.5 L 0.5 500 Z " /><path fill="rgb(253,153,35)" stroke="rgb(253,153,35)" stroke-width="1" opacity="0.996078431372549" d="M 462.5 49 L 422.5 90 L 462.5 49 Z " /><path fill="rgb(253,153,35)" stroke="rgb(253,153,35)" stroke-width="1" opacity="0.996078431372549" d="M 469.5 55 L 474.5 61 L 469.5 55 Z " /><path fill="rgb(253,153,35)" stroke="rgb(253,153,35)" stroke-width="1" opacity="0.996078431372549" d="M 476.5 63 L 477.5 65 L 476.5 63 Z " /><path fill="rgb(253,153,35)" stroke="rgb(253,153,35)" stroke-width="1" opacity="0.996078431372549" d="M 481.5 70 L 482.5 72 L 481.5 70 Z " /><path fill="rgb(253,153,35)" stroke="rgb(253,153,35)" stroke-width="1" opacity="0.996078431372549" d="M 425.5 95 L 427.5 98 L 425.5 95 Z " /><path fill="rgb(253,153,35)" stroke="rgb(253,153,35)" stroke-width="1" opacity="0.996078431372549" d="M 434.5 117 L 435 119.5 L 434 119.5 L 434.5 117 Z " /><path fill="rgb(253,153,35)" stroke="rgb(253,153,35)" stroke-width="1" opacity="0.996078431372549" d="M 434.5 125 L 435 127.5 L 434 127.5 L 434.5 125 Z " /><path fill="rgb(253,153,35)" stroke="rgb(253,153,35)" stroke-width="1" opacity="0.996078431372549" d="M 427.5 147 L 425.5 150 L 427.5 147 Z " /><path fill="rgb(253,153,35)" stroke="rgb(253,153,35)" stroke-width="1" opacity="0.996078431372549" d="M 422.5 153 L 420.5 156 L 422.5 153 Z " /><path fill="rgb(253,153,35)" stroke="rgb(253,153,35)" stroke-width="1" opacity="0.996078431372549" d="M 356.5 155 L 5.5 507 L 356.5 155 Z " /><path fill="rgb(253,153,35)" stroke="rgb(253,153,35)" stroke-width="1" opacity="0.996078431372549" d="M 511.5 157 L 512 163.5 L 511 163.5 L 511.5 157 Z " /><path fill="rgb(253,153,35)" stroke="rgb(253,153,35)" stroke-width="1" opacity="0.996078431372549" d="M 362.5 158 L 363.5 160 L 362.5 158 Z " /><path fill="rgb(253,153,35)" stroke="rgb(253,153,35)" stroke-width="1" opacity="0.996078431372549" d="M 416.5 158 L 414.5 161 L 416.5 158 Z " /><path fill="rgb(253,153,35)" stroke="rgb(253,153,35)" stroke-width="1" opacity="0.996078431372549" d="M 511.5 166 L 512 172.5 L 511 172.5 L 511.5 166 Z " /><path fill="rgb(253,153,35)" stroke="rgb(253,153,35)" stroke-width="1" opacity="0.996078431372549" d="M 384.5 167 L 388 167.5 L 384.5 168 L 384.5 167 Z " /><path fill="rgb(253,153,35)" stroke="rgb(253,153,35)" stroke-width="1" opacity="0.996078431372549" d="M 391.5 167 L 395 167.5 L 391.5 168 L 391.5 167 Z " /><path fill="rgb(253,153,35)" stroke="rgb(253,153,35)" stroke-width="1" opacity="0.996078431372549" d="M 486.5 252 L 485.5 254 L 486.5 252 Z " /><path fill="rgb(253,153,35)" stroke="rgb(253,153,35)" stroke-width="1" opacity="0.996078431372549" d="M 482.5 258 L 481.5 260 L 482.5 258 Z " /><path fill="rgb(253,153,35)" stroke="rgb(253,153,35)" stroke-width="1" opacity="0.996078431372549" d="M 479.5 262 L 478.5 264 L 479.5 262 Z " /><path fill="rgb(253,153,35)" stroke="rgb(253,153,35)" stroke-width="1" opacity="0.996078431372549" d="M 476.5 266 L 475.5 268 L 476.5 266 Z " /><path fill="rgb(253,153,35)" stroke="rgb(253,153,35)" stroke-width="1" opacity="0.996078431372549" d="M 472.5 271 L 467.5 277 L 472.5 271 Z " /><path fill="rgb(253,153,35)" stroke="rgb(253,153,35)" stroke-width="1" opacity="0.996078431372549" d="M 456.5 287 L 453.5 291 L 456.5 287 Z " /><path fill="rgb(253,153,35)" stroke="rgb(253,153,35)" stroke-width="1" opacity="0.996078431372549" d="M 449.5 293 L 447.5 296 L 449.5 293 Z " /><path fill="rgb(253,153,35)" stroke="rgb(253,153,35)" stroke-width="1" opacity="0.996078431372549" d="M 441.5 299 L 440.5 301 L 441.5 299 Z " /><path fill="rgb(253,153,35)" stroke="rgb(253,153,35)" stroke-width="1" opacity="0.996078431372549" d="M 371.5 327 L 374 327.5 L 371.5 328 L 371.5 327 Z " /><path fill="rgb(253,153,35)" stroke="rgb(253,153,35)" stroke-width="1" opacity="0.996078431372549" d="M 328.5 328 L 331 328.5 L 328.5 329 L 328.5 328 Z " /><path fill="rgb(253,153,35)" stroke="rgb(253,153,35)" stroke-width="1" opacity="0.996078431372549" d="M 364.5 328 L 367 328.5 L 364.5 329 L 364.5 328 Z " /><path fill="rgb(253,153,35)" stroke="rgb(253,153,35)" stroke-width="1" opacity="0.996078431372549" d="M 340.5 329 L 354 329.5 L 340.5 330 L 340.5 329 Z " /><path fill="rgb(253,153,35)" stroke="rgb(253,153,35)" stroke-width="1" opacity="0.996078431372549" d="M 249.5 362 L 252 362.5 L 249.5 363 L 249.5 362 Z " /><path fill="rgb(253,153,35)" stroke="rgb(253,153,35)" stroke-width="1" opacity="0.996078431372549" d="M 220.5 363 L 221 392.5 L 220 392.5 L 220.5 363 Z " /><path fill="rgb(253,153,35)" stroke="rgb(253,153,35)" stroke-width="1" opacity="0.996078431372549" d="M 186.5 403 L 189 403.5 L 186.5 404 L 186.5 403 Z " /><path fill="rgb(253,153,35)" stroke="rgb(253,153,35)" stroke-width="1" opacity="0.996078431372549" d="M 194.5 404 L 197 404.5 L 194.5 405 L 194.5 404 Z " /><path fill="rgb(253,153,35)" stroke="rgb(253,153,35)" stroke-width="1" opacity="0.996078431372549" d="M 203.5 405 L 209 405.5 L 203.5 406 L 203.5 405 Z " /><path fill="rgb(253,153,35)" stroke="rgb(253,153,35)" stroke-width="1" opacity="0.996078431372549" d="M 180.5 409 L 181 411.5 L 180 411.5 L 180.5 409 Z " /><path fill="rgb(253,153,35)" stroke="rgb(253,153,35)" stroke-width="1" opacity="0.996078431372549" d="M 179.5 419 L 180 422.5 L 179 422.5 L 179.5 419 Z " /><path fill="rgb(253,153,35)" stroke="rgb(253,153,35)" stroke-width="1" opacity="0.996078431372549" d="M 178.5 430 L 179 433.5 L 178 433.5 L 178.5 430 Z " /><path fill="rgb(253,153,35)" stroke="rgb(253,153,35)" stroke-width="1" opacity="0.996078431372549" d="M 159.5 448 L 163 448.5 L 159.5 449 L 159.5 448 Z " /><path fill="rgb(253,153,35)" stroke="rgb(253,153,35)" stroke-width="1" opacity="0.996078431372549" d="M 149.5 449 L 152 449.5 L 149.5 450 L 149.5 449 Z " /><path fill="rgb(253,153,35)" stroke="rgb(253,153,35)" stroke-width="1" opacity="0.996078431372549" d="M 138.5 450 L 142 450.5 L 138.5 451 L 138.5 450 Z " /><path fill="rgb(253,153,35)" stroke="rgb(253,153,35)" stroke-width="1" opacity="0.996078431372549" d="M 133.5 455 L 134 457.5 L 133 457.5 L 133.5 455 Z " /><path fill="rgb(253,153,35)" stroke="rgb(253,153,35)" stroke-width="1" opacity="0.996078431372549" d="M 134.5 463 L 135 465.5 L 134 465.5 L 134.5 463 Z " /><path fill="rgb(253,153,35)" stroke="rgb(253,153,35)" stroke-width="1" opacity="0.996078431372549" d="M 135.5 472 L 136 478.5 L 135 478.5 L 135.5 472 Z " /><path fill="rgb(253,153,35)" stroke="rgb(253,153,35)" stroke-width="1" opacity="0.996078431372549" d="M 131.5 486 L 127.5 491 L 131.5 486 Z " /><path fill="rgb(253,153,35)" stroke="rgb(253,153,35)" stroke-width="1" opacity="0.996078431372549" d="M 100.5 511 L 103 511.5 L 100.5 512 L 100.5 511 Z " /><path fill="rgb(254,153,35)" stroke="rgb(254,153,35)" stroke-width="1" opacity="1" d="M 463.5 49 Q 507.462 87.538 512 165.5 Q 506.595 248.095 457.5 287 Q 416.5 330 331.5 329 Q 311.813 327.187 296.5 321 L 257.5 360 Q 243.522 366.625 220 363 L 220 395.5 L 214.5 403 Q 209.167 407.167 197.5 405 L 196.5 404 L 181 403 L 178 436.5 L 172.5 445 L 165.5 448 L 133 451 Q 135.778 463.528 135 480.5 L 133 484.5 L 108.5 509 L 99.5 512 L 14.5 512 L 5 507.5 L 357.5 155 L 358.5 156 Q 369.989 168.511 394.5 168 Q 413.254 165.254 423 153.5 Q 435.511 142.011 435 117.5 Q 432.5 100 422 90.5 L 463.5 49 Z " /></svg>