<svg width="512" height="512" version="1.1" xmlns="http://www.w3.org/2000/svg" desc="Created with imagetracer.js version 1.2.6" ><path fill="rgb(235,222,227)" stroke="rgb(235,222,227)" stroke-width="1" opacity="0.23921568627450981" d="M 101.5 0 L 103 0.5 L 99.5 3 L 101.5 0 Z " /><path fill="rgb(235,222,227)" stroke="rgb(235,222,227)" stroke-width="1" opacity="0.23921568627450981" d="M 99.5 5 L 146 52.5 L 147 55.5 L 146 55.5 L 145 52.5 L 99 6.5 L 99.5 5 Z " /><path fill="rgb(235,222,227)" stroke="rgb(235,222,227)" stroke-width="1" opacity="0.23921568627450981" d="M 148.5 9 L 149.5 11 L 148.5 9 Z " /><path fill="rgb(235,222,227)" stroke="rgb(235,222,227)" stroke-width="1" opacity="0.23921568627450981" d="M 154.5 13 L 156.5 16 L 154.5 13 Z " /><path fill="rgb(235,222,227)" stroke="rgb(235,222,227)" stroke-width="1" opacity="0.23921568627450981" d="M 158.5 16 L 165.5 24 L 158.5 16 Z " /><path fill="rgb(235,222,227)" stroke="rgb(235,222,227)" stroke-width="1" opacity="0.23921568627450981" d="M 167.5 26 L 169.5 29 L 167.5 26 Z " /><path fill="rgb(235,222,227)" stroke="rgb(235,222,227)" stroke-width="1" opacity="0.23921568627450981" d="M 172.5 33 L 173.5 35 L 172.5 33 Z " /><path fill="rgb(235,222,227)" stroke="rgb(235,222,227)" stroke-width="1" opacity="0.23921568627450981" d="M 57.5 44 L 60.5 44 L 105 88.5 L 60.5 45 Q 56.75 44.25 56 46.5 L 55.5 48 L 55 46.5 L 57.5 44 Z " /><path fill="rgb(235,222,227)" stroke="rgb(235,222,227)" stroke-width="1" opacity="0.23921568627450981" d="M 54.5 52 L 55 62.5 L 54 62.5 L 54.5 52 Z " /><path fill="rgb(235,222,227)" stroke="rgb(235,222,227)" stroke-width="1" opacity="0.23921568627450981" d="M 145.5 64 L 119.5 91 L 145.5 64 Z " /><path fill="rgb(235,222,227)" stroke="rgb(235,222,227)" stroke-width="1" opacity="0.23921568627450981" d="M 55.5 67 L 56 70.5 L 55 70.5 L 55.5 67 Z " /><path fill="rgb(235,222,227)" stroke="rgb(235,222,227)" stroke-width="1" opacity="0.23921568627450981" d="M 182.5 80 L 183 82.5 L 182 82.5 L 182.5 80 Z " /><path fill="rgb(235,222,227)" stroke="rgb(235,222,227)" stroke-width="1" opacity="0.23921568627450981" d="M 60.5 85 L 65 93.5 L 63 92.5 L 60.5 85 Z " /><path fill="rgb(235,222,227)" stroke="rgb(235,222,227)" stroke-width="1" opacity="0.23921568627450981" d="M 234.5 87 L 239 87.5 L 234.5 88 L 234.5 87 Z " /><path fill="rgb(235,222,227)" stroke="rgb(235,222,227)" stroke-width="1" opacity="0.23921568627450981" d="M 106.5 89 L 107.5 91 L 106.5 89 Z " /><path fill="rgb(235,222,227)" stroke="rgb(235,222,227)" stroke-width="1" opacity="0.23921568627450981" d="M 183.5 89 L 205.5 110 L 207 109.5 L 204.5 111 L 183.5 89 Z " /><path fill="rgb(235,222,227)" stroke="rgb(235,222,227)" stroke-width="1" opacity="0.23921568627450981" d="M 222.5 91 L 213.5 101 L 222.5 91 Z " /><path fill="rgb(235,222,227)" stroke="rgb(235,222,227)" stroke-width="1" opacity="0.23921568627450981" d="M 250.5 91 L 251.5 93 L 250.5 91 Z " /><path fill="rgb(235,222,227)" stroke="rgb(235,222,227)" stroke-width="1" opacity="0.23921568627450981" d="M 65.5 95 L 66.5 97 L 65.5 95 Z " /><path fill="rgb(235,222,227)" stroke="rgb(235,222,227)" stroke-width="1" opacity="0.23921568627450981" d="M 256.5 97 L 257.5 99 L 256.5 97 Z " /><path fill="rgb(235,222,227)" stroke="rgb(235,222,227)" stroke-width="1" opacity="0.23921568627450981" d="M 67.5 98 L 81.5 113 L 85 115.5 L 82.5 114 L 69 101.5 L 67.5 98 Z " /><path fill="rgb(235,222,227)" stroke="rgb(235,222,227)" stroke-width="1" opacity="0.23921568627450981" d="M 212.5 102 L 207.5 108 L 212.5 102 Z " /><path fill="rgb(235,222,227)" stroke="rgb(235,222,227)" stroke-width="1" opacity="0.23921568627450981" d="M 261.5 110 L 262 112.5 L 261 112.5 L 261.5 110 Z " /><path fill="rgb(235,222,227)" stroke="rgb(235,222,227)" stroke-width="1" opacity="0.23921568627450981" d="M 86.5 116 L 87.5 118 L 86.5 116 Z " /><path fill="rgb(235,222,227)" stroke="rgb(235,222,227)" stroke-width="1" opacity="0.23921568627450981" d="M 89.5 118 L 98 122.5 L 96.5 123 Q 90.292 121.583 89.5 118 Z " /><path fill="rgb(235,222,227)" stroke="rgb(235,222,227)" stroke-width="1" opacity="0.23921568627450981" d="M 271.5 118 L 278 118.5 L 271.5 119 L 271.5 118 Z " /><path fill="rgb(235,222,227)" stroke="rgb(235,222,227)" stroke-width="1" opacity="0.23921568627450981" d="M 259.5 121 L 262 121.5 Q 259.875 124.75 259.5 121 Z " /><path fill="rgb(235,222,227)" stroke="rgb(235,222,227)" stroke-width="1" opacity="0.23921568627450981" d="M 286.5 121 L 287.5 123 L 286.5 121 Z " /><path fill="rgb(235,222,227)" stroke="rgb(235,222,227)" stroke-width="1" opacity="0.23921568627450981" d="M 289.5 123 L 294.5 129 L 289.5 123 Z " /><path fill="rgb(235,222,227)" stroke="rgb(235,222,227)" stroke-width="1" opacity="0.23921568627450981" d="M 112.5 127 L 116 127.5 L 112.5 128 L 112.5 127 Z " /><path fill="rgb(235,222,227)" stroke="rgb(235,222,227)" stroke-width="1" opacity="0.23921568627450981" d="M 135.5 127 L 139 127.5 L 135.5 128 L 135.5 127 Z " /><path fill="rgb(235,222,227)" stroke="rgb(235,222,227)" stroke-width="1" opacity="0.23921568627450981" d="M 141.5 127 L 144 128.5 L 142.5 128 L 141.5 127 Z " /><path fill="rgb(235,222,227)" stroke="rgb(235,222,227)" stroke-width="1" opacity="0.23921568627450981" d="M 120.5 128 L 131 128.5 L 120.5 129 L 120.5 128 Z " /><path fill="rgb(235,222,227)" stroke="rgb(235,222,227)" stroke-width="1" opacity="0.23921568627450981" d="M 145.5 129 L 153.5 138 L 145.5 129 Z " /><path fill="rgb(235,222,227)" stroke="rgb(235,222,227)" stroke-width="1" opacity="0.23921568627450981" d="M 152.5 139 L 150.5 142 L 152.5 139 Z " /><path fill="rgb(235,222,227)" stroke="rgb(235,222,227)" stroke-width="1" opacity="0.23921568627450981" d="M 148.5 144 L 147.5 146 L 148.5 144 Z " /><path fill="rgb(235,222,227)" stroke="rgb(235,222,227)" stroke-width="1" opacity="0.23921568627450981" d="M 307.5 149 L 311 149.5 L 307.5 150 L 307.5 149 Z " /><path fill="rgb(235,222,227)" stroke="rgb(235,222,227)" stroke-width="1" opacity="0.23921568627450981" d="M 312.5 149 L 316 149.5 L 312.5 150 L 312.5 149 Z " /><path fill="rgb(235,222,227)" stroke="rgb(235,222,227)" stroke-width="1" opacity="0.23921568627450981" d="M 296 153 L 298 153.5 L 295 155.5 L 296 153 Z " /><path fill="rgb(235,222,227)" stroke="rgb(235,222,227)" stroke-width="1" opacity="0.23921568627450981" d="M 328.5 155 L 330.5 158 L 328.5 155 Z " /><path fill="rgb(235,222,227)" stroke="rgb(235,222,227)" stroke-width="1" opacity="0.23921568627450981" d="M 336.5 172 L 337 174.5 L 336 174.5 L 336.5 172 Z " /><path fill="rgb(235,222,227)" stroke="rgb(235,222,227)" stroke-width="1" opacity="0.23921568627450981" d="M 125.5 178 L 124.5 180 L 125.5 178 Z " /><path fill="rgb(235,222,227)" stroke="rgb(235,222,227)" stroke-width="1" opacity="0.23921568627450981" d="M 344.5 180 L 347 180.5 L 344.5 181 L 344.5 180 Z " /><path fill="rgb(235,222,227)" stroke="rgb(235,222,227)" stroke-width="1" opacity="0.23921568627450981" d="M 123.5 181 L 122.5 183 L 123.5 181 Z " /><path fill="rgb(235,222,227)" stroke="rgb(235,222,227)" stroke-width="1" opacity="0.23921568627450981" d="M 334.5 183 L 335 184.5 L 333 185.5 L 334.5 183 Z " /><path fill="rgb(235,222,227)" stroke="rgb(235,222,227)" stroke-width="1" opacity="0.23921568627450981" d="M 121.5 184 L 120.5 186 L 121.5 184 Z " /><path fill="rgb(235,222,227)" stroke="rgb(235,222,227)" stroke-width="1" opacity="0.23921568627450981" d="M 363.5 184 L 365.5 187 L 363.5 184 Z " /><path fill="rgb(235,222,227)" stroke="rgb(235,222,227)" stroke-width="1" opacity="0.23921568627450981" d="M 119.5 187 L 118.5 189 L 119.5 187 Z " /><path fill="rgb(235,222,227)" stroke="rgb(235,222,227)" stroke-width="1" opacity="0.23921568627450981" d="M 367.5 188 L 369.5 191 L 367.5 188 Z " /><path fill="rgb(235,222,227)" stroke="rgb(235,222,227)" stroke-width="1" opacity="0.23921568627450981" d="M 117.5 190 L 116.5 192 L 117.5 190 Z " /><path fill="rgb(235,222,227)" stroke="rgb(235,222,227)" stroke-width="1" opacity="0.23921568627450981" d="M 370.5 192 L 372 194.5 L 371 194.5 L 370.5 192 Z " /><path fill="rgb(235,222,227)" stroke="rgb(235,222,227)" stroke-width="1" opacity="0.23921568627450981" d="M 115.5 193 L 114.5 195 L 115.5 193 Z " /><path fill="rgb(235,222,227)" stroke="rgb(235,222,227)" stroke-width="1" opacity="0.23921568627450981" d="M 371.5 215 L 370.5 217 L 371.5 215 Z " /><path fill="rgb(235,222,227)" stroke="rgb(235,222,227)" stroke-width="1" opacity="0.23921568627450981" d="M 370.5 226 L 371 229.5 L 370 229.5 L 370.5 226 Z " /><path fill="rgb(235,222,227)" stroke="rgb(235,222,227)" stroke-width="1" opacity="0.23921568627450981" d="M 371.5 237 L 372 240.5 L 371 240.5 L 371.5 237 Z " /><path fill="rgb(235,222,227)" stroke="rgb(235,222,227)" stroke-width="1" opacity="0.23921568627450981" d="M 116.5 246 L 117.5 248 L 116.5 246 Z " /><path fill="rgb(235,222,227)" stroke="rgb(235,222,227)" stroke-width="1" opacity="0.23921568627450981" d="M 372.5 249 L 373 251.5 L 372 251.5 L 372.5 249 Z " /><path fill="rgb(235,222,227)" stroke="rgb(235,222,227)" stroke-width="1" opacity="0.23921568627450981" d="M 119.5 250 L 120.5 252 L 119.5 250 Z " /><path fill="rgb(235,222,227)" stroke="rgb(235,222,227)" stroke-width="1" opacity="0.23921568627450981" d="M 122.5 254 L 123.5 256 L 122.5 254 Z " /><path fill="rgb(235,222,227)" stroke="rgb(235,222,227)" stroke-width="1" opacity="0.23921568627450981" d="M 125.5 258 L 126.5 260 L 125.5 258 Z " /><path fill="rgb(235,222,227)" stroke="rgb(235,222,227)" stroke-width="1" opacity="0.23921568627450981" d="M 373.5 260 L 374 263.5 L 373 263.5 L 373.5 260 Z " /><path fill="rgb(235,222,227)" stroke="rgb(235,222,227)" stroke-width="1" opacity="0.23921568627450981" d="M 128.5 262 L 129.5 264 L 128.5 262 Z " /><path fill="rgb(235,222,227)" stroke="rgb(235,222,227)" stroke-width="1" opacity="0.23921568627450981" d="M 131.5 266 L 132.5 268 L 131.5 266 Z " /><path fill="rgb(235,222,227)" stroke="rgb(235,222,227)" stroke-width="1" opacity="0.23921568627450981" d="M 134.5 270 L 135.5 272 L 134.5 270 Z " /><path fill="rgb(235,222,227)" stroke="rgb(235,222,227)" stroke-width="1" opacity="0.23921568627450981" d="M 137.5 274 L 138.5 276 L 137.5 274 Z " /><path fill="rgb(235,222,227)" stroke="rgb(235,222,227)" stroke-width="1" opacity="0.23921568627450981" d="M 140.5 278 L 141.5 280 L 140.5 278 Z " /><path fill="rgb(235,222,227)" stroke="rgb(235,222,227)" stroke-width="1" opacity="0.23921568627450981" d="M 143.5 282 L 144.5 284 L 143.5 282 Z " /><path fill="rgb(235,222,227)" stroke="rgb(235,222,227)" stroke-width="1" opacity="0.23921568627450981" d="M 422.5 283 L 423.5 285 L 422.5 283 Z " /><path fill="rgb(235,222,227)" stroke="rgb(235,222,227)" stroke-width="1" opacity="0.23921568627450981" d="M 425.5 285 L 426.5 287 L 425.5 285 Z " /><path fill="rgb(235,222,227)" stroke="rgb(235,222,227)" stroke-width="1" opacity="0.23921568627450981" d="M 146.5 286 L 147.5 288 L 146.5 286 Z " /><path fill="rgb(235,222,227)" stroke="rgb(235,222,227)" stroke-width="1" opacity="0.23921568627450981" d="M 428.5 287 L 430.5 290 L 428.5 287 Z " /><path fill="rgb(235,222,227)" stroke="rgb(235,222,227)" stroke-width="1" opacity="0.23921568627450981" d="M 149.5 290 L 150.5 292 L 149.5 290 Z " /><path fill="rgb(235,222,227)" stroke="rgb(235,222,227)" stroke-width="1" opacity="0.23921568627450981" d="M 433.5 291 L 440.5 299 L 433.5 291 Z " /><path fill="rgb(235,222,227)" stroke="rgb(235,222,227)" stroke-width="1" opacity="0.23921568627450981" d="M 152.5 294 L 153.5 296 L 152.5 294 Z " /><path fill="rgb(235,222,227)" stroke="rgb(235,222,227)" stroke-width="1" opacity="0.23921568627450981" d="M 155.5 298 L 156.5 300 L 155.5 298 Z " /><path fill="rgb(235,222,227)" stroke="rgb(235,222,227)" stroke-width="1" opacity="0.23921568627450981" d="M 442.5 301 L 443.5 303 L 442.5 301 Z " /><path fill="rgb(235,222,227)" stroke="rgb(235,222,227)" stroke-width="1" opacity="0.23921568627450981" d="M 158.5 302 L 159.5 304 L 158.5 302 Z " /><path fill="rgb(235,222,227)" stroke="rgb(235,222,227)" stroke-width="1" opacity="0.23921568627450981" d="M 445.5 305 L 446.5 307 L 445.5 305 Z " /><path fill="rgb(235,222,227)" stroke="rgb(235,222,227)" stroke-width="1" opacity="0.23921568627450981" d="M 161.5 306 L 162.5 308 L 161.5 306 Z " /><path fill="rgb(235,222,227)" stroke="rgb(235,222,227)" stroke-width="1" opacity="0.23921568627450981" d="M 164.5 310 L 165.5 312 L 164.5 310 Z " /><path fill="rgb(235,222,227)" stroke="rgb(235,222,227)" stroke-width="1" opacity="0.23921568627450981" d="M 399.5 310 L 402 310.5 L 399.5 311 L 399.5 310 Z " /><path fill="rgb(235,222,227)" stroke="rgb(235,222,227)" stroke-width="1" opacity="0.23921568627450981" d="M 391.5 312 L 367 337.5 L 365.5 342 L 365 339.5 L 391.5 312 Z " /><path fill="rgb(235,222,227)" stroke="rgb(235,222,227)" stroke-width="1" opacity="0.23921568627450981" d="M 405.5 312 L 450.5 358 L 405.5 312 Z " /><path fill="rgb(235,222,227)" stroke="rgb(235,222,227)" stroke-width="1" opacity="0.23921568627450981" d="M 167.5 314 L 168.5 316 L 167.5 314 Z " /><path fill="rgb(235,222,227)" stroke="rgb(235,222,227)" stroke-width="1" opacity="0.23921568627450981" d="M 170.5 318 L 171.5 320 L 170.5 318 Z " /><path fill="rgb(235,222,227)" stroke="rgb(235,222,227)" stroke-width="1" opacity="0.23921568627450981" d="M 173.5 322 L 174.5 324 L 173.5 322 Z " /><path fill="rgb(235,222,227)" stroke="rgb(235,222,227)" stroke-width="1" opacity="0.23921568627450981" d="M 176.5 326 L 177.5 328 L 176.5 326 Z " /><path fill="rgb(235,222,227)" stroke="rgb(235,222,227)" stroke-width="1" opacity="0.23921568627450981" d="M 179.5 330 L 180.5 332 L 179.5 330 Z " /><path fill="rgb(235,222,227)" stroke="rgb(235,222,227)" stroke-width="1" opacity="0.23921568627450981" d="M 182.5 334 L 183.5 336 L 182.5 334 Z " /><path fill="rgb(235,222,227)" stroke="rgb(235,222,227)" stroke-width="1" opacity="0.23921568627450981" d="M 185.5 338 L 186.5 340 L 185.5 338 Z " /><path fill="rgb(235,222,227)" stroke="rgb(235,222,227)" stroke-width="1" opacity="0.23921568627450981" d="M 457.5 340 L 458 349.5 L 457 349.5 L 457.5 340 Z " /><path fill="rgb(235,222,227)" stroke="rgb(235,222,227)" stroke-width="1" opacity="0.23921568627450981" d="M 366.5 349 L 367.5 351 L 366.5 349 Z " /><path fill="rgb(235,222,227)" stroke="rgb(235,222,227)" stroke-width="1" opacity="0.23921568627450981" d="M 368.5 352 L 413 396.5 L 413 399.5 L 410 401.5 Q 412.75 400.75 412 396.5 L 368.5 352 Z " /><path fill="rgb(235,222,227)" stroke="rgb(235,222,227)" stroke-width="1" opacity="0.23921568627450981" d="M 341.5 372 L 355.5 387 L 362 391.5 L 360.5 391 Q 349.688 385.313 343 375.5 L 341.5 372 Z " /><path fill="rgb(235,222,227)" stroke="rgb(235,222,227)" stroke-width="1" opacity="0.23921568627450981" d="M 363.5 392 L 367 394.5 L 365.5 394 L 363.5 392 Z " /><path fill="rgb(235,222,227)" stroke="rgb(235,222,227)" stroke-width="1" opacity="0.23921568627450981" d="M 370.5 396 L 374 397.5 L 372.5 398 L 370.5 396 Z " /><path fill="rgb(235,222,227)" stroke="rgb(235,222,227)" stroke-width="1" opacity="0.23921568627450981" d="M 381.5 400 L 384 400.5 L 381.5 401 L 381.5 400 Z " /><path fill="rgb(235,222,227)" stroke="rgb(235,222,227)" stroke-width="1" opacity="0.23921568627450981" d="M 385.5 401 L 389 401.5 L 385.5 402 L 385.5 401 Z " /><path fill="rgb(235,222,227)" stroke="rgb(235,222,227)" stroke-width="1" opacity="0.23921568627450981" d="M 392.5 402 L 407 402.5 L 392.5 403 L 392.5 402 Z " /><path fill="rgb(235,222,227)" stroke="rgb(235,222,227)" stroke-width="1" opacity="0.23921568627450981" d="M 192.5 422 L 191.5 424 L 192.5 422 Z " /><path fill="rgb(235,222,227)" stroke="rgb(235,222,227)" stroke-width="1" opacity="0.23921568627450981" d="M 189.5 424 L 185.5 429 L 189.5 424 Z " /><path fill="rgb(235,222,227)" stroke="rgb(235,222,227)" stroke-width="1" opacity="0.23921568627450981" d="M 184.5 430 L 183.5 432 L 184.5 430 Z " /><path fill="rgb(235,222,227)" stroke="rgb(235,222,227)" stroke-width="1" opacity="0.23921568627450981" d="M 178.5 447 L 179 502.5 L 178 502.5 L 178.5 447 Z " /><path fill="rgb(235,222,227)" stroke="rgb(235,222,227)" stroke-width="1" opacity="0.23921568627450981" d="M 183.5 510 L 184.5 512 L 183.5 510 Z " /><path fill="rgb(230,240,253)" stroke="rgb(230,240,253)" stroke-width="1" opacity="0.996078431372549" d="M 103.5 0 Q 148.828 -0.828 167 25.5 Q 184.551 42.949 183 79.5 Q 180.25 81.25 182 87.5 L 205 111.5 Q 193.317 120.155 189 135 Q 181.615 130.615 167.5 132 L 154.5 138 L 142.5 127 L 135.5 127 L 134.5 128 L 116.5 128 Q 85.648 122.352 70 101.5 Q 53.135 84.365 55 48.5 L 57.5 45 L 60.5 45 L 104.5 89 L 113.5 93 L 119.5 91 L 146 64.5 Q 148.333 61.333 147 54.5 L 100 6.5 L 99 3.5 L 103.5 0 Z " /><path fill="rgb(230,240,253)" stroke="rgb(230,240,253)" stroke-width="1" opacity="0.996078431372549" d="M 221.5 204 Q 230.872 211.628 247.5 212 Q 258.05 209.91 264 204 Q 265.039 216.552 274.5 222 Q 280.7 226.8 293.5 225 L 303.5 220 L 303 221.5 Q 299.875 226.875 301 236.5 Q 303.568 247.932 312.5 253 Q 318.7 257.8 331.5 256 L 343.5 250 L 367.5 274 Q 370.667 276.333 377.5 275 L 378.5 274 L 394.5 274 Q 426.039 279.461 442 300.5 Q 459.077 317.923 457 354.5 L 456 357 L 451.5 358 L 405.5 312 Q 402.5 309 395.5 310 L 391.5 312 L 366 337.5 Q 363.667 340.667 365 347.5 L 368 352.5 L 412 396.5 L 412 399.5 L 409.5 402 L 389.5 402 Q 359.114 396.386 344 375.5 Q 328.175 358.825 329 325.5 Q 332.5 323 330 314.5 L 221.5 204 Z " /><path fill="rgb(230,240,253)" stroke="rgb(230,240,253)" stroke-width="1" opacity="0.996078431372549" d="M 310.5 449 L 317 451 L 319 457.5 L 315.5 463 L 308.5 464 Q 302.75 462.75 304 454.5 L 307.5 450 L 310.5 449 Z " /><path fill="rgb(0,0,0)" stroke="rgb(0,0,0)" stroke-width="1" opacity="0" d="M 0 0 L 101 0.5 Q 98 1.5 99 6.5 L 145 52.5 Q 147.667 54.833 147 60.5 L 146 63.5 L 118.5 91 L 111.5 92 L 105.5 89 L 60.5 44 L 57.5 44 Q 50.897 48.397 54 62.5 Q 58.597 97.403 81.5 114 Q 98.339 129.161 130.5 129 L 140.5 127 Q 149.333 130.667 154 138.5 L 150 141.5 L 111 199.5 Q 105.125 209.125 107 226.5 Q 109.409 238.591 116 246.5 L 188 341.5 L 193 350.5 L 196 360.5 L 196 421 Q 189.075 422.85 185 428.5 Q 179.024 435.524 178 447.5 L 178 502.5 L 181 510 L 184 511.5 L 0 512 L 0 0 Z " /><path fill="rgb(0,0,0)" stroke="rgb(0,0,0)" stroke-width="1" opacity="0" d="M 124.5 0 L 512 0 L 512 512 L 351 511.5 L 356 507.5 L 357 505.5 L 357 441.5 Q 353.656 429.344 344.5 423 L 341 420.5 L 341.5 373 L 355.5 388 Q 372.444 404.056 406.5 403 Q 411.25 402.75 413 399.5 L 413 396.5 L 368 351.5 Q 364.957 348.543 365 342.5 L 367 337.5 L 392.5 312 L 398.5 310 L 404.5 312 L 450.5 358 L 454.5 358 Q 460.844 353.844 458 340.5 Q 454.249 307.251 433.5 291 Q 415.548 271.952 376.5 274 L 374 275 Q 374.638 244.645 370 217.5 Q 375.667 212.167 374 199.5 Q 371.25 189.25 363.5 184 Q 357.286 178.714 344.5 180 L 335.5 184 L 335 181.5 L 337 172.5 Q 336.024 160.476 328.5 155 Q 321.783 148.217 307.5 149 L 297.5 153 L 298 151.5 L 299 137.5 Q 296.558 127.942 289.5 123 Q 283.288 117.712 271.5 118 Q 263.557 118.557 259.5 123 L 260 121.5 L 262 110.5 Q 260.125 96.875 250.5 91 Q 244.5 87 234.5 87 Q 219.375 89.375 213 100.5 L 205.5 110 L 183 88.5 L 182 83.5 Q 185.5 81 183 72.5 L 184 71.5 Q 181.866 33.134 158.5 16 Q 144.352 3.806 124.5 0 Z " /><path fill="rgb(240,203,188)" stroke="rgb(240,203,188)" stroke-width="1" opacity="0.996078431372549" d="M 223.5 91 Q 219.25 94.75 227 98.5 L 228 100.5 L 226 99.5 L 221 93.5 L 223.5 91 Z " /><path fill="rgb(240,203,188)" stroke="rgb(240,203,188)" stroke-width="1" opacity="0.996078431372549" d="M 252.5 93 L 255.5 97 L 252.5 93 Z " /><path fill="rgb(240,203,188)" stroke="rgb(240,203,188)" stroke-width="1" opacity="0.996078431372549" d="M 216.5 98 L 215.5 100 L 216.5 98 Z " /><path fill="rgb(240,203,188)" stroke="rgb(240,203,188)" stroke-width="1" opacity="0.996078431372549" d="M 229.5 104 L 230 106.5 L 229 106.5 L 229.5 104 Z " /><path fill="rgb(240,203,188)" stroke="rgb(240,203,188)" stroke-width="1" opacity="0.996078431372549" d="M 230.5 108 L 231 115.5 L 230 115.5 L 230.5 108 Z " /><path fill="rgb(240,203,188)" stroke="rgb(240,203,188)" stroke-width="1" opacity="0.996078431372549" d="M 229.5 117 L 230 119.5 Q 223.125 135.125 210 144.5 L 215 147.5 L 213.5 148 L 209 146 L 226 125.5 L 229.5 117 Z " /><path fill="rgb(240,203,188)" stroke="rgb(240,203,188)" stroke-width="1" opacity="0.996078431372549" d="M 258.5 122 L 266 132.5 L 265 132.5 L 259.5 125 Q 256.167 123.875 257 126.5 L 243.5 141 L 249 134.5 L 257.5 124 L 259 123.5 L 258.5 122 Z " /><path fill="rgb(240,203,188)" stroke="rgb(240,203,188)" stroke-width="1" opacity="0.996078431372549" d="M 266.5 134 L 268 139.5 L 267 139.5 L 266.5 134 Z " /><path fill="rgb(240,203,188)" stroke="rgb(240,203,188)" stroke-width="1" opacity="0.996078431372549" d="M 154.5 138 L 150 143.5 L 129.5 174 L 130 172.5 Q 139.832 152.832 154.5 138 Z " /><path fill="rgb(240,203,188)" stroke="rgb(240,203,188)" stroke-width="1" opacity="0.996078431372549" d="M 298.5 139 L 299 145.5 L 298 145.5 L 298.5 139 Z " /><path fill="rgb(240,203,188)" stroke="rgb(240,203,188)" stroke-width="1" opacity="0.996078431372549" d="M 242.5 142 L 237.5 148 L 242.5 142 Z " /><path fill="rgb(240,203,188)" stroke="rgb(240,203,188)" stroke-width="1" opacity="0.996078431372549" d="M 267.5 145 L 268 148.5 L 267 148.5 L 267.5 145 Z " /><path fill="rgb(240,203,188)" stroke="rgb(240,203,188)" stroke-width="1" opacity="0.996078431372549" d="M 216.5 148 L 226 152.5 L 224.5 153 Q 215.833 151.667 216.5 148 Z " /><path fill="rgb(240,203,188)" stroke="rgb(240,203,188)" stroke-width="1" opacity="0.996078431372549" d="M 266.5 150 L 267 151.5 Q 262.942 159.942 256 165.5 L 264 172.5 Q 258.75 179.25 248.5 181 L 248.5 180 Q 259.074 180.574 262 173.5 Q 262.5 169.5 259.5 169 L 255 167 Q 262.433 160.528 266.5 150 Z " /><path fill="rgb(240,203,188)" stroke="rgb(240,203,188)" stroke-width="1" opacity="0.996078431372549" d="M 234.5 151 L 231.5 155 L 227 153.5 L 228.5 153 L 231.5 154 L 234.5 151 Z " /><path fill="rgb(240,203,188)" stroke="rgb(240,203,188)" stroke-width="1" opacity="0.996078431372549" d="M 295.5 154 L 300 157.5 L 304 164.5 L 303 164.5 L 295.5 154 Z " /><path fill="rgb(240,203,188)" stroke="rgb(240,203,188)" stroke-width="1" opacity="0.996078431372549" d="M 326.5 154 L 331.5 160 L 326.5 154 Z " /><path fill="rgb(240,203,188)" stroke="rgb(240,203,188)" stroke-width="1" opacity="0.996078431372549" d="M 294.5 156 L 292 159.5 L 290 162.5 L 285 169 L 283 168.5 L 294.5 156 Z " /><path fill="rgb(240,203,188)" stroke="rgb(240,203,188)" stroke-width="1" opacity="0.996078431372549" d="M 304.5 166 Q 307.2 169.8 306 177.5 L 305 177.5 L 304.5 166 Z " /><path fill="rgb(240,203,188)" stroke="rgb(240,203,188)" stroke-width="1" opacity="0.996078431372549" d="M 197.5 168 L 201 168.5 Q 190.731 170.231 186 177.5 L 182.5 185 L 182 182.5 Q 185 175 191.5 171 L 197.5 168 Z " /><path fill="rgb(240,203,188)" stroke="rgb(240,203,188)" stroke-width="1" opacity="0.996078431372549" d="M 206.5 168 L 210 168.5 L 206.5 169 L 206.5 168 Z " /><path fill="rgb(240,203,188)" stroke="rgb(240,203,188)" stroke-width="1" opacity="0.996078431372549" d="M 211.5 169 L 215 170.5 L 213.5 171 L 211.5 169 Z " /><path fill="rgb(240,203,188)" stroke="rgb(240,203,188)" stroke-width="1" opacity="0.996078431372549" d="M 282.5 170 L 279 174.5 L 271.5 183 L 277 176.5 L 282.5 170 Z " /><path fill="rgb(240,203,188)" stroke="rgb(240,203,188)" stroke-width="1" opacity="0.996078431372549" d="M 216.5 171 L 220 172.5 L 218.5 173 L 216.5 171 Z " /><path fill="rgb(240,203,188)" stroke="rgb(240,203,188)" stroke-width="1" opacity="0.996078431372549" d="M 221.5 173 L 227 175.5 L 225.5 176 Q 220.833 175.167 221.5 173 Z " /><path fill="rgb(240,203,188)" stroke="rgb(240,203,188)" stroke-width="1" opacity="0.996078431372549" d="M 228.5 176 L 234 178.5 L 232.5 179 Q 227.833 178.167 228.5 176 Z " /><path fill="rgb(240,203,188)" stroke="rgb(240,203,188)" stroke-width="1" opacity="0.996078431372549" d="M 335.5 177 L 336 179.5 L 335 179.5 L 335.5 177 Z " /><path fill="rgb(240,203,188)" stroke="rgb(240,203,188)" stroke-width="1" opacity="0.996078431372549" d="M 304.5 179 L 305 181.5 L 301 188.5 L 273.5 221 L 273 218 L 276 216.5 L 300 188.5 L 304.5 179 Z " /><path fill="rgb(240,203,188)" stroke="rgb(240,203,188)" stroke-width="1" opacity="0.996078431372549" d="M 238.5 180 L 241 180.5 L 238.5 181 L 238.5 180 Z " /><path fill="rgb(240,203,188)" stroke="rgb(240,203,188)" stroke-width="1" opacity="0.996078431372549" d="M 347.5 180 L 352 180.5 L 347.5 181 L 347.5 180 Z " /><path fill="rgb(240,203,188)" stroke="rgb(240,203,188)" stroke-width="1" opacity="0.996078431372549" d="M 243.5 181 L 246 181.5 L 243.5 182 L 243.5 181 Z " /><path fill="rgb(240,203,188)" stroke="rgb(240,203,188)" stroke-width="1" opacity="0.996078431372549" d="M 333.5 184 L 336 184.5 L 335 186.5 L 338.5 191 Q 333.563 188.313 333.5 184 Z " /><path fill="rgb(240,203,188)" stroke="rgb(240,203,188)" stroke-width="1" opacity="0.996078431372549" d="M 181.5 186 L 182 191.5 L 181 191.5 L 181.5 186 Z " /><path fill="rgb(240,203,188)" stroke="rgb(240,203,188)" stroke-width="1" opacity="0.996078431372549" d="M 268.5 186 L 269 192.5 L 268 192.5 L 268.5 186 Z " /><path fill="rgb(240,203,188)" stroke="rgb(240,203,188)" stroke-width="1" opacity="0.996078431372549" d="M 332.5 186 L 331 188.5 L 325 197 L 323 196.5 L 332.5 186 Z " /><path fill="rgb(240,203,188)" stroke="rgb(240,203,188)" stroke-width="1" opacity="0.996078431372549" d="M 339.5 192 Q 343.03 194.97 343 201.5 L 342 201.5 L 339.5 192 Z " /><path fill="rgb(240,203,188)" stroke="rgb(240,203,188)" stroke-width="1" opacity="0.996078431372549" d="M 182.5 193 L 186 200.5 L 328.5 343 L 329.5 341 L 330 342.5 L 329.5 345 L 184 199.5 Q 181 197 182.5 193 Z " /><path fill="rgb(240,203,188)" stroke="rgb(240,203,188)" stroke-width="1" opacity="0.996078431372549" d="M 267.5 194 L 268 196.5 L 260.5 206 L 265 200.5 L 267.5 194 Z " /><path fill="rgb(240,203,188)" stroke="rgb(240,203,188)" stroke-width="1" opacity="0.996078431372549" d="M 322.5 198 L 319 202.5 L 311.5 211 L 317 204.5 L 322.5 198 Z " /><path fill="rgb(240,203,188)" stroke="rgb(240,203,188)" stroke-width="1" opacity="0.996078431372549" d="M 373.5 201 L 374 207.5 L 373 207.5 L 373.5 201 Z " /><path fill="rgb(240,203,188)" stroke="rgb(240,203,188)" stroke-width="1" opacity="0.996078431372549" d="M 218.5 202 L 221 203.5 L 219.5 204 L 218.5 202 Z " /><path fill="rgb(240,203,188)" stroke="rgb(240,203,188)" stroke-width="1" opacity="0.996078431372549" d="M 342.5 207 L 343 210.5 L 342 210.5 L 342.5 207 Z " /><path fill="rgb(240,203,188)" stroke="rgb(240,203,188)" stroke-width="1" opacity="0.996078431372549" d="M 310.5 212 L 303.5 220 L 310.5 212 Z " /><path fill="rgb(240,203,188)" stroke="rgb(240,203,188)" stroke-width="1" opacity="0.996078431372549" d="M 341.5 212 L 342 213.5 Q 328.938 234.438 311 250.5 L 311.5 252 Q 306.75 248.75 315 245.5 L 339 217.5 L 341.5 212 Z " /><path fill="rgb(240,203,188)" stroke="rgb(240,203,188)" stroke-width="1" opacity="0.996078431372549" d="M 369.5 217 L 370 220 L 366 222.5 L 343.5 249 L 346 245.5 L 369.5 217 Z " /><path fill="rgb(240,203,188)" stroke="rgb(240,203,188)" stroke-width="1" opacity="0.996078431372549" d="M 291.5 224 L 294 224.5 L 291.5 225 L 291.5 224 Z " /><path fill="rgb(240,203,188)" stroke="rgb(240,203,188)" stroke-width="1" opacity="0.996078431372549" d="M 371.5 243 L 372 246.5 L 371 246.5 L 371.5 243 Z " /><path fill="rgb(240,203,188)" stroke="rgb(240,203,188)" stroke-width="1" opacity="0.996078431372549" d="M 337.5 252 L 336.5 254 L 337.5 252 Z " /><path fill="rgb(240,203,188)" stroke="rgb(240,203,188)" stroke-width="1" opacity="0.996078431372549" d="M 372.5 252 L 373 254.5 L 372 254.5 L 372.5 252 Z " /><path fill="rgb(240,203,188)" stroke="rgb(240,203,188)" stroke-width="1" opacity="0.996078431372549" d="M 122.5 253 L 123.5 255 L 122.5 253 Z " /><path fill="rgb(240,203,188)" stroke="rgb(240,203,188)" stroke-width="1" opacity="0.996078431372549" d="M 320.5 255 L 323 255.5 L 320.5 256 L 320.5 255 Z " /><path fill="rgb(240,203,188)" stroke="rgb(240,203,188)" stroke-width="1" opacity="0.996078431372549" d="M 328.5 255 L 331 255.5 L 328.5 256 L 328.5 255 Z " /><path fill="rgb(240,203,188)" stroke="rgb(240,203,188)" stroke-width="1" opacity="0.996078431372549" d="M 125.5 257 L 126.5 259 L 125.5 257 Z " /><path fill="rgb(240,203,188)" stroke="rgb(240,203,188)" stroke-width="1" opacity="0.996078431372549" d="M 373.5 266 L 374 268.5 L 373 268.5 L 373.5 266 Z " /><path fill="rgb(240,203,188)" stroke="rgb(240,203,188)" stroke-width="1" opacity="0.996078431372549" d="M 133.5 268 L 135.5 271 L 133.5 268 Z " /><path fill="rgb(240,203,188)" stroke="rgb(240,203,188)" stroke-width="1" opacity="0.996078431372549" d="M 373.5 272 L 374 274.5 L 373 274.5 L 373.5 272 Z " /><path fill="rgb(240,203,188)" stroke="rgb(240,203,188)" stroke-width="1" opacity="0.996078431372549" d="M 142.5 280 L 143.5 282 L 142.5 280 Z " /><path fill="rgb(240,203,188)" stroke="rgb(240,203,188)" stroke-width="1" opacity="0.996078431372549" d="M 145.5 284 L 146.5 286 L 145.5 284 Z " /><path fill="rgb(240,203,188)" stroke="rgb(240,203,188)" stroke-width="1" opacity="0.996078431372549" d="M 329.5 320 L 330 322.5 L 329 322.5 L 329.5 320 Z " /><path fill="rgb(240,203,188)" stroke="rgb(240,203,188)" stroke-width="1" opacity="0.996078431372549" d="M 178.5 328 L 180.5 331 L 178.5 328 Z " /><path fill="rgb(240,203,188)" stroke="rgb(240,203,188)" stroke-width="1" opacity="0.996078431372549" d="M 181.5 332 L 183.5 335 L 181.5 332 Z " /><path fill="rgb(240,203,188)" stroke="rgb(240,203,188)" stroke-width="1" opacity="0.996078431372549" d="M 184.5 336 L 185.5 338 L 184.5 336 Z " /><path fill="rgb(240,203,188)" stroke="rgb(240,203,188)" stroke-width="1" opacity="0.996078431372549" d="M 189.5 343 L 190.5 345 L 189.5 343 Z " /><path fill="rgb(240,203,188)" stroke="rgb(240,203,188)" stroke-width="1" opacity="0.996078431372549" d="M 196.5 361 L 197 364.5 L 196 364.5 L 196.5 361 Z " /><path fill="rgb(240,203,188)" stroke="rgb(240,203,188)" stroke-width="1" opacity="0.996078431372549" d="M 340.5 370 L 341 421 L 339 420.5 L 340 419.5 L 340.5 370 Z " /><path fill="rgb(240,203,188)" stroke="rgb(240,203,188)" stroke-width="1" opacity="0.996078431372549" d="M 209.5 417 L 327 417.5 L 209.5 418 L 209.5 417 Z " /><path fill="rgb(240,203,188)" stroke="rgb(240,203,188)" stroke-width="1" opacity="0.996078431372549" d="M 305.5 461 L 306.5 463 L 305.5 461 Z " /><path fill="rgb(225,151,149)" stroke="rgb(225,151,149)" stroke-width="1" opacity="0.996078431372549" d="M 232.5 88 Q 250.961 87.039 257 98.5 Q 262 104 261 115.5 Q 250.897 139.397 231.5 154 Q 218.063 151.937 210 144.5 L 227 125.5 Q 232 120 231 108.5 Q 229.071 98.429 222 93.5 Q 225.432 88.932 232.5 88 Z " /><path fill="rgb(225,151,149)" stroke="rgb(225,151,149)" stroke-width="1" opacity="0.996078431372549" d="M 269.5 119 Q 287.25 118.25 294 128.5 Q 299.692 134.808 298 148.5 L 295 155.5 L 268 186.5 Q 268.597 202.097 258.5 207 Q 252.538 212.538 239.5 211 L 219.5 203 L 329 313.5 L 330 319.5 L 329 320.5 L 329 342.5 L 329.5 344 L 186 200.5 Q 180.833 196.167 182 185.5 Q 184.833 176.833 191.5 172 Q 196.5 168 205.5 168 Q 222.747 177.753 245.5 182 Q 257.667 180.167 264 172.5 L 256 165.5 Q 269.739 158.739 268 136.5 L 260 123.5 L 269.5 119 Z " /><path fill="rgb(225,151,149)" stroke="rgb(225,151,149)" stroke-width="1" opacity="0.996078431372549" d="M 306.5 150 Q 325.75 148.75 332 160.5 Q 336.424 166.076 336 176.5 Q 334.689 184.689 330 189.5 L 301.5 221 Q 295.625 225.625 284.5 225 L 274 221 L 277 215.5 L 303 185.5 Q 307.091 180.091 306 169.5 Q 304.111 160.889 298.5 156 Q 295.875 156.667 297 154 L 306.5 150 Z " /><path fill="rgb(225,151,149)" stroke="rgb(225,151,149)" stroke-width="1" opacity="0.996078431372549" d="M 343.5 181 Q 362.521 179.479 369 190.5 Q 374.833 196.167 373 209.5 L 369 218.5 L 340.5 251 Q 334.567 256.067 323.5 256 Q 315.112 255.387 311 250.5 L 340 217.5 Q 344.8 211.3 343 198.5 L 335 185.5 L 343.5 181 Z " /><path fill="rgb(225,151,149)" stroke="rgb(225,151,149)" stroke-width="1" opacity="0.996078431372549" d="M 203.5 418 L 332.5 418 Q 344.496 421.004 351 429.5 L 357 443.5 L 357 504.5 L 353.5 510 L 350.5 512 L 185.5 512 L 180 507.5 L 179 505.5 L 179 442.5 Q 182.004 430.504 190.5 424 L 203.5 418 Z M 309 449 L 304 454 L 305 462 L 309 464 Q 317 466 319 460 L 318 453 Q 316 448 309 449 Z " /><path fill="rgb(241,204,189)" stroke="rgb(241,204,189)" stroke-width="1" opacity="1" d="M 220.5 94 L 226 98.5 Q 231.385 104.115 230 116.5 Q 223.062 135.147 209 146 L 231.5 155 L 257 126.5 L 257 125 Q 261.667 124.25 263 128.5 Q 267.833 134.167 268 144.5 Q 264.414 159.093 255 167 L 262 171.5 L 260.5 175 Q 254.328 181.328 241.5 181 L 209.5 168 L 197.5 168 Q 188.75 171.25 184 178.5 Q 180.318 182.818 181 191.5 L 184 199.5 L 331 346.5 Q 332.788 360.213 340 368.5 L 340 420 L 326.5 417 L 209.5 417 Q 201.038 417.319 196 420 L 196 367.5 L 197 366.5 L 197 364.5 Q 197.6 359.9 195 358.5 L 195 356.5 Q 190.25 337.125 178 326 Q 175.333 327.125 176 324.5 L 175 322 Q 172.333 323.125 173 320.5 Q 154.986 300.79 142 278 L 139 276.5 Q 139.6 272.367 137 272.5 L 133 266 Q 130.333 267.125 131 264.5 L 130 262 Q 127.333 263.125 128 260.5 L 125.5 257 Q 122.875 257.833 124 254.5 L 121 253 Q 121.8 248.725 119 248.5 L 118 246 L 115 244.5 L 110 235.5 Q 112.5 234 109 232.5 L 107 224.5 L 108 221.5 L 107 218.5 L 108 216.5 L 108 214.5 L 109 210.5 L 109 208.5 Q 113.061 190.456 124 180 Q 127 181.25 126 177.5 L 128 174 L 131 172.5 Q 141.509 151.509 157.5 136 Q 164.786 130.286 179.5 132 L 189 135 Q 194.583 117.539 208.5 107 Q 210.75 107.75 210 105.5 L 214.5 100 L 217 98.5 L 220.5 94 Z " /><path fill="rgb(241,204,189)" stroke="rgb(241,204,189)" stroke-width="1" opacity="1" d="M 295.5 156 L 302 161.5 Q 306.227 167.273 305 178.5 L 300 188.5 L 274.5 218 Q 272.25 217.25 273 219.5 L 268 215.5 L 263 203.5 Q 270 198.5 269 185.5 Q 278.114 178.659 283 169 Q 285.667 170.125 285 167.5 L 290 161 Q 292.667 162.125 292 159.5 L 295.5 156 Z " /><path fill="rgb(241,204,189)" stroke="rgb(241,204,189)" stroke-width="1" opacity="1" d="M 333.5 186 Q 342.56 191.94 343 206.5 L 339 217.5 L 310.5 250 L 304 244.5 Q 299.773 238.727 301 227.5 L 303 221.5 L 302.5 220 L 304 220.5 L 323 197 Q 325.667 198.125 325 195.5 L 333.5 186 Z " /><path fill="rgb(241,204,189)" stroke="rgb(241,204,189)" stroke-width="1" opacity="1" d="M 220.5 204 L 223 204.5 L 222 205.5 L 328.5 313 L 220.5 204 Z " /><path fill="rgb(241,204,189)" stroke="rgb(241,204,189)" stroke-width="1" opacity="1" d="M 241.5 211 L 248 211.5 L 241.5 212 L 241.5 211 Z " /><path fill="rgb(241,204,189)" stroke="rgb(241,204,189)" stroke-width="1" opacity="1" d="M 368.5 220 L 370 220.5 L 369 222.5 L 371 232.5 L 370 235.5 L 372 242.5 L 371 246.5 L 373 257.5 L 373 259.5 L 374 265.5 L 373 268.5 L 374 271.5 L 373 275 L 367.5 274 L 342 249.5 L 347 245.5 L 368.5 220 Z " /></svg>