<svg width="512" height="512" version="1.1" xmlns="http://www.w3.org/2000/svg" desc="Created with imagetracer.js version 1.2.6" ><path fill="rgb(20,28,33)" stroke="rgb(20,28,33)" stroke-width="1" opacity="0.30980392156862746" d="M 0 0 L 512 0 L 512 448.5 L 511 448.5 L 441 302.5 L 441 300 L 439 299.5 L 439 50.5 Q 436.55 41.45 429.5 37 L 418.5 33 L 93.5 33 Q 80.939 34.439 76 43.5 L 73 50.5 L 73 300 Q 70 298.75 71 302.5 L 0.5 449 L 0 0 Z " /><path fill="rgb(20,28,33)" stroke="rgb(20,28,33)" stroke-width="1" opacity="0.30980392156862746" d="M 0.5 458 Q 2.277 468.223 9.5 473 L 21.5 479 L 490.5 479 Q 500.64 476.64 506 469.5 Q 510.329 465.329 511.5 458 L 512 512 L 0.5 512 L 0 511.5 L 0.5 458 Z " /><path fill="rgb(86,190,232)" stroke="rgb(86,190,232)" stroke-width="1" opacity="1" d="M 93.5 33 L 418.5 33 Q 431.061 34.439 436 43.5 L 439 50.5 L 439 300 L 73 300 L 73 50.5 Q 75.45 41.45 82.5 37 L 93.5 33 Z M 95 56 L 95 278 L 417 278 L 417 56 L 95 56 Z " /><path fill="rgb(86,190,232)" stroke="rgb(86,190,232)" stroke-width="1" opacity="1" d="M 97 310 L 120.5 310 L 121 312.5 L 118 321 L 93.5 321 L 93 319.5 L 97 310 Z " /><path fill="rgb(86,190,232)" stroke="rgb(86,190,232)" stroke-width="1" opacity="1" d="M 130 310 L 152.5 310 Q 153.625 310.125 153 315.5 L 152 321 L 127.5 321 L 127 319.5 L 130 310 Z " /><path fill="rgb(86,190,232)" stroke="rgb(86,190,232)" stroke-width="1" opacity="1" d="M 163 310 L 185.5 310 Q 186.625 310.125 186 315.5 L 185 321 L 160.5 321 L 160 319.5 L 163 310 Z " /><path fill="rgb(86,190,232)" stroke="rgb(86,190,232)" stroke-width="1" opacity="1" d="M 195 310 L 217.5 310 L 219 311.5 Q 215.75 313.806 218 321 L 193.5 321 L 193 319.5 L 195 310 Z " /><path fill="rgb(86,190,232)" stroke="rgb(86,190,232)" stroke-width="1" opacity="1" d="M 229.5 310 L 250.5 310 L 252 311.5 L 252 321 L 227 321 Q 225.386 312.955 229.5 310 Z " /><path fill="rgb(86,190,232)" stroke="rgb(86,190,232)" stroke-width="1" opacity="1" d="M 261.5 310 L 282.5 310 L 284 311.5 L 285 321 L 260 321 L 260 311.5 L 261.5 310 Z " /><path fill="rgb(86,190,232)" stroke="rgb(86,190,232)" stroke-width="1" opacity="1" d="M 294.5 310 L 349.5 310 L 350 313.5 L 352 321 L 294.5 321 Q 293 320.5 294 312.5 Q 291.75 311.25 294.5 310 Z " /><path fill="rgb(86,190,232)" stroke="rgb(86,190,232)" stroke-width="1" opacity="1" d="M 359 310 L 381.5 310 L 382 311.5 L 385 321 L 360.5 321 Q 359.5 321 360 316.5 L 359 310 Z " /><path fill="rgb(86,190,232)" stroke="rgb(86,190,232)" stroke-width="1" opacity="1" d="M 391 310 L 414.5 310 L 415 311.5 L 419 321 L 394.5 321 L 394 318.5 L 391 310 Z " /><path fill="rgb(86,190,232)" stroke="rgb(86,190,232)" stroke-width="1" opacity="1" d="M 92.5 325 L 149.5 325 L 150 328.5 L 146.5 337 L 87.5 337 L 87 335.5 L 92.5 325 Z " /><path fill="rgb(86,190,232)" stroke="rgb(86,190,232)" stroke-width="1" opacity="1" d="M 159 325 L 182.5 325 Q 183.625 325.125 183 330.5 L 180.5 337 L 156.5 337 L 156 334.5 L 159 325 Z " /><path fill="rgb(86,190,232)" stroke="rgb(86,190,232)" stroke-width="1" opacity="1" d="M 193 325 L 217 325 L 217 337 L 191.5 337 L 191 334.5 L 193 325 Z " /><path fill="rgb(86,190,232)" stroke="rgb(86,190,232)" stroke-width="1" opacity="1" d="M 227 325 L 250.5 325 L 252 326.5 L 252 337 L 226 337 L 227 325 Z " /><path fill="rgb(86,190,232)" stroke="rgb(86,190,232)" stroke-width="1" opacity="1" d="M 261.5 325 L 284.5 325 Q 285.875 325.375 285 332.5 L 286 337 L 260 337 L 260 326.5 L 261.5 325 Z " /><path fill="rgb(86,190,232)" stroke="rgb(86,190,232)" stroke-width="1" opacity="1" d="M 295 325 L 318.5 325 L 319 327.5 L 321 337 L 295 337 L 295 325 Z " /><path fill="rgb(86,190,232)" stroke="rgb(86,190,232)" stroke-width="1" opacity="1" d="M 329 325 L 352.5 325 L 353 326.5 L 356 337 L 331.5 337 L 330 335.5 L 329 325 Z " /><path fill="rgb(86,190,232)" stroke="rgb(86,190,232)" stroke-width="1" opacity="1" d="M 362 325 L 386.5 325 L 388 326.5 L 390 337 L 365.5 337 L 364 335.5 L 362 325 Z " /><path fill="rgb(86,190,232)" stroke="rgb(86,190,232)" stroke-width="1" opacity="1" d="M 396 325 L 419.5 325 L 421 326.5 L 425 337 L 400.5 337 L 399 335.5 L 396 325 Z " /><path fill="rgb(86,190,232)" stroke="rgb(86,190,232)" stroke-width="1" opacity="1" d="M 84 341 L 109.5 341 L 110 342.5 L 106 355 L 79 354.5 L 84 341 Z " /><path fill="rgb(86,190,232)" stroke="rgb(86,190,232)" stroke-width="1" opacity="1" d="M 120.5 341 L 144.5 341 L 145 343.5 L 142 355 L 115 354.5 Q 115.984 345.984 120.5 341 Z " /><path fill="rgb(86,190,232)" stroke="rgb(86,190,232)" stroke-width="1" opacity="1" d="M 155.5 341 L 179.5 341 Q 180.5 341 180 345.5 L 178 355 L 152.5 355 L 152 351.5 Q 151.523 344.023 155.5 341 Z " /><path fill="rgb(86,190,232)" stroke="rgb(86,190,232)" stroke-width="1" opacity="1" d="M 190 341 L 215.5 341 Q 216.75 341.25 216 347.5 Q 213.25 349.321 215 355 L 189 355 L 189 346.5 L 190 341 Z " /><path fill="rgb(86,190,232)" stroke="rgb(86,190,232)" stroke-width="1" opacity="1" d="M 225 341 L 250.5 341 L 252 342.5 Q 249.167 346.735 251 355 L 225 355 L 225 341 Z " /><path fill="rgb(86,190,232)" stroke="rgb(86,190,232)" stroke-width="1" opacity="1" d="M 261.5 341 L 287 341 L 287 355 L 261 355 L 261 344.5 L 260 342.5 L 261.5 341 Z " /><path fill="rgb(86,190,232)" stroke="rgb(86,190,232)" stroke-width="1" opacity="1" d="M 296 341 L 321.5 341 Q 322.5 341 322 345.5 Q 325.25 347.806 323 355 L 297.5 355 Q 296.25 354.75 297 348.5 Q 294.25 346.679 296 341 Z " /><path fill="rgb(86,190,232)" stroke="rgb(86,190,232)" stroke-width="1" opacity="1" d="M 367 341 L 391.5 341 L 393 342.5 L 397 354.5 L 370 355 L 367 341 Z " /><path fill="rgb(86,190,232)" stroke="rgb(86,190,232)" stroke-width="1" opacity="1" d="M 402 341 L 427.5 341 L 428 342.5 L 433 354.5 L 406 355 L 402 341 Z " /><path fill="rgb(86,190,232)" stroke="rgb(86,190,232)" stroke-width="1" opacity="1" d="M 332 342 L 356.5 342 L 358 343.5 L 365 372.5 L 337 373 L 332 342 Z " /><path fill="rgb(86,190,232)" stroke="rgb(86,190,232)" stroke-width="1" opacity="1" d="M 78.5 359 L 103.5 359 L 104 361.5 L 100 373 L 72.5 373 L 72 371.5 L 78.5 359 Z " /><path fill="rgb(86,190,232)" stroke="rgb(86,190,232)" stroke-width="1" opacity="1" d="M 114 359 L 139.5 359 L 141 360.5 L 138 373 L 110.5 373 L 110 371.5 L 114 359 Z " /><path fill="rgb(86,190,232)" stroke="rgb(86,190,232)" stroke-width="1" opacity="1" d="M 151.5 359 L 287.5 359 Q 288.75 359.25 288 365.5 Q 290.75 367.321 289 373 L 147 372.5 Q 147.672 364.172 151.5 359 Z " /><path fill="rgb(86,190,232)" stroke="rgb(86,190,232)" stroke-width="1" opacity="1" d="M 298 359 L 323.5 359 L 324 360.5 L 326 373 L 299.5 373 L 299 371.5 Q 295 368.458 298 359 Z " /><path fill="rgb(86,190,232)" stroke="rgb(86,190,232)" stroke-width="1" opacity="1" d="M 372.5 359 L 397.5 359 L 398 360.5 L 402 373 L 374.5 373 L 374 369.5 L 371 360.5 L 372.5 359 Z " /><path fill="rgb(86,190,232)" stroke="rgb(86,190,232)" stroke-width="1" opacity="1" d="M 408 359 L 433.5 359 L 435 360.5 L 440 373 L 412.5 373 L 412 370.5 L 408 359 Z " /><path fill="rgb(85,192,235)" stroke="rgb(85,192,235)" stroke-width="1" opacity="1" d="M 95 56 L 417 56 L 417 278 L 95 278 L 95 56 Z " /><path fill="rgb(206,214,224)" stroke="rgb(206,214,224)" stroke-width="1" opacity="0.9882352941176471" d="M 153.5 310 L 154 312.5 L 153 312.5 L 153.5 310 Z " /><path fill="rgb(206,214,224)" stroke="rgb(206,214,224)" stroke-width="1" opacity="0.9882352941176471" d="M 186.5 310 L 187 312.5 L 186 312.5 L 186.5 310 Z " /><path fill="rgb(206,214,224)" stroke="rgb(206,214,224)" stroke-width="1" opacity="0.9882352941176471" d="M 358.5 310 L 359 312.5 L 358 312.5 L 358.5 310 Z " /><path fill="rgb(206,214,224)" stroke="rgb(206,214,224)" stroke-width="1" opacity="0.9882352941176471" d="M 218.5 312 L 219 315.5 L 218 315.5 L 218.5 312 Z " /><path fill="rgb(206,214,224)" stroke="rgb(206,214,224)" stroke-width="1" opacity="0.9882352941176471" d="M 293.5 312 L 294 315.5 L 293 315.5 L 293.5 312 Z " /><path fill="rgb(206,214,224)" stroke="rgb(206,214,224)" stroke-width="1" opacity="0.9882352941176471" d="M 227.5 314 L 228 317.5 L 227 317.5 L 227.5 314 Z " /><path fill="rgb(206,214,224)" stroke="rgb(206,214,224)" stroke-width="1" opacity="0.9882352941176471" d="M 284.5 314 L 285 317.5 L 284 317.5 L 284.5 314 Z " /><path fill="rgb(206,214,224)" stroke="rgb(206,214,224)" stroke-width="1" opacity="0.9882352941176471" d="M 217.5 325 L 218 330.5 L 217 330.5 L 217.5 325 Z " /><path fill="rgb(206,214,224)" stroke="rgb(206,214,224)" stroke-width="1" opacity="0.9882352941176471" d="M 294.5 325 L 295 330.5 L 294 330.5 L 294.5 325 Z " /><path fill="rgb(206,214,224)" stroke="rgb(206,214,224)" stroke-width="1" opacity="0.9882352941176471" d="M 226.5 328 L 227 332.5 L 226 332.5 L 226.5 328 Z " /><path fill="rgb(206,214,224)" stroke="rgb(206,214,224)" stroke-width="1" opacity="0.9882352941176471" d="M 285.5 328 L 286 332.5 L 285 332.5 L 285.5 328 Z " /><path fill="rgb(206,214,224)" stroke="rgb(206,214,224)" stroke-width="1" opacity="0.9882352941176471" d="M 189.5 341 L 190 345.5 L 189 345.5 L 189.5 341 Z " /><path fill="rgb(206,214,224)" stroke="rgb(206,214,224)" stroke-width="1" opacity="0.9882352941176471" d="M 216.5 341 L 217 343.5 L 216 343.5 L 216.5 341 Z " /><path fill="rgb(206,214,224)" stroke="rgb(206,214,224)" stroke-width="1" opacity="0.9882352941176471" d="M 295.5 341 L 296 343.5 L 295 343.5 L 295.5 341 Z " /><path fill="rgb(206,214,224)" stroke="rgb(206,214,224)" stroke-width="1" opacity="0.9882352941176471" d="M 322.5 341 L 323 345.5 L 322 345.5 L 322.5 341 Z " /><path fill="rgb(206,214,224)" stroke="rgb(206,214,224)" stroke-width="1" opacity="0.9882352941176471" d="M 251.5 344 L 252 348.5 L 251 348.5 L 251.5 344 Z " /><path fill="rgb(206,214,224)" stroke="rgb(206,214,224)" stroke-width="1" opacity="0.9882352941176471" d="M 260.5 344 L 261 348.5 L 260 348.5 L 260.5 344 Z " /><path fill="rgb(206,214,224)" stroke="rgb(206,214,224)" stroke-width="1" opacity="0.9882352941176471" d="M 179.5 346 L 180 348.5 L 179 348.5 L 179.5 346 Z " /><path fill="rgb(206,214,224)" stroke="rgb(206,214,224)" stroke-width="1" opacity="0.9882352941176471" d="M 215.5 348 L 216 350.5 L 215 350.5 L 215.5 348 Z " /><path fill="rgb(206,214,224)" stroke="rgb(206,214,224)" stroke-width="1" opacity="0.9882352941176471" d="M 296.5 348 L 297 350.5 L 296 350.5 L 296.5 348 Z " /><path fill="rgb(206,214,224)" stroke="rgb(206,214,224)" stroke-width="1" opacity="0.9882352941176471" d="M 151.5 353 L 152 355 L 177.5 355 L 178 353.5 L 179 353.5 L 177.5 356 L 151.5 356 L 151.5 353 Z " /><path fill="rgb(206,214,224)" stroke="rgb(206,214,224)" stroke-width="1" opacity="0.9882352941176471" d="M 188.5 354 L 189.5 355 L 214 355.5 L 189.5 356 L 188.5 354 Z " /><path fill="rgb(206,214,224)" stroke="rgb(206,214,224)" stroke-width="1" opacity="0.9882352941176471" d="M 323.5 354 L 322.5 356 L 298 355.5 L 322.5 355 L 323.5 354 Z " /><path fill="rgb(206,214,224)" stroke="rgb(206,214,224)" stroke-width="1" opacity="0.9882352941176471" d="M 79.5 355 L 106 355.5 L 79.5 356 L 79.5 355 Z " /><path fill="rgb(206,214,224)" stroke="rgb(206,214,224)" stroke-width="1" opacity="0.9882352941176471" d="M 115.5 355 L 142 355.5 L 115.5 356 L 115.5 355 Z " /><path fill="rgb(206,214,224)" stroke="rgb(206,214,224)" stroke-width="1" opacity="0.9882352941176471" d="M 225.5 355 L 251 355.5 L 225.5 356 L 225.5 355 Z " /><path fill="rgb(206,214,224)" stroke="rgb(206,214,224)" stroke-width="1" opacity="0.9882352941176471" d="M 261.5 355 L 287 355.5 L 261.5 356 L 261.5 355 Z " /><path fill="rgb(206,214,224)" stroke="rgb(206,214,224)" stroke-width="1" opacity="0.9882352941176471" d="M 370.5 355 L 397 355.5 L 370.5 356 L 370.5 355 Z " /><path fill="rgb(206,214,224)" stroke="rgb(206,214,224)" stroke-width="1" opacity="0.9882352941176471" d="M 406.5 355 L 433 355.5 L 406.5 356 L 406.5 355 Z " /><path fill="rgb(206,214,224)" stroke="rgb(206,214,224)" stroke-width="1" opacity="0.9882352941176471" d="M 297.5 359 L 298 363.5 L 297 363.5 L 297.5 359 Z " /><path fill="rgb(206,214,224)" stroke="rgb(206,214,224)" stroke-width="1" opacity="0.9882352941176471" d="M 288.5 361 L 289 365.5 L 288 365.5 L 288.5 361 Z " /><path fill="rgb(206,214,224)" stroke="rgb(206,214,224)" stroke-width="1" opacity="0.9882352941176471" d="M 335.5 364 L 336 366.5 L 335 366.5 L 335.5 364 Z " /><path fill="rgb(206,214,224)" stroke="rgb(206,214,224)" stroke-width="1" opacity="0.9882352941176471" d="M 298.5 371 L 299 373 L 325.5 373 L 326 371.5 L 327 371.5 L 326.5 374 L 298 374 L 298.5 371 Z " /><path fill="rgb(206,214,224)" stroke="rgb(206,214,224)" stroke-width="1" opacity="0.9882352941176471" d="M 71.5 372 L 72.5 373 L 99 373.5 L 71 374 L 71.5 372 Z " /><path fill="rgb(206,214,224)" stroke="rgb(206,214,224)" stroke-width="1" opacity="0.9882352941176471" d="M 440.5 372 L 441 374 L 413 373.5 L 439.5 373 L 440.5 372 Z " /><path fill="rgb(206,214,224)" stroke="rgb(206,214,224)" stroke-width="1" opacity="0.9882352941176471" d="M 110.5 373 L 138 373.5 L 110.5 374 L 110.5 373 Z " /><path fill="rgb(206,214,224)" stroke="rgb(206,214,224)" stroke-width="1" opacity="0.9882352941176471" d="M 147.5 373 L 289 373.5 L 147.5 374 L 147.5 373 Z " /><path fill="rgb(206,214,224)" stroke="rgb(206,214,224)" stroke-width="1" opacity="0.9882352941176471" d="M 337.5 373 L 365 373.5 L 337.5 374 L 337.5 373 Z " /><path fill="rgb(206,214,224)" stroke="rgb(206,214,224)" stroke-width="1" opacity="0.9882352941176471" d="M 374.5 373 L 402 373.5 L 374.5 374 L 374.5 373 Z " /><path fill="rgb(206,214,224)" stroke="rgb(206,214,224)" stroke-width="1" opacity="0.9882352941176471" d="M 221.5 385 L 290.5 385 L 292 386.5 L 315 434 L 197.5 434 L 197 432.5 L 221.5 385 Z " /><path fill="rgb(206,214,224)" stroke="rgb(206,214,224)" stroke-width="1" opacity="0.9882352941176471" d="M 0 451 L 511.5 451 Q 512.75 451.25 512 457.5 Q 509.858 466.858 503.5 472 L 490.5 479 L 21.5 479 Q 12.613 476.387 7 470.5 Q -0.325 464.125 0 451 Z " /><path fill="rgb(242,242,243)" stroke="rgb(242,242,243)" stroke-width="1" opacity="0.9921568627450981" d="M 71 300 L 440.5 300 L 441 302.5 L 512 451 L 0.5 451 L 0 449.5 L 71 302.5 L 71 300 Z M 98 310 L 93 319 L 94 321 L 118 321 L 122 312 L 122 310 L 98 310 Z M 131 310 L 127 319 L 128 321 L 152 321 L 154 313 L 154 310 L 131 310 Z M 164 310 L 160 319 L 161 321 L 185 321 L 187 313 L 187 310 L 164 310 Z M 195 310 L 193 318 L 194 321 L 218 321 L 219 316 Q 220 310 219 310 L 195 310 Z M 228 310 L 227 315 Q 226 321 228 321 L 252 321 L 252 310 L 228 310 Z M 260 310 L 260 321 L 285 321 Q 287 315 284 314 L 284 310 L 260 310 Z M 293 310 L 294 317 Q 293 321 295 321 L 352 321 L 350 312 L 350 310 L 293 310 Z M 358 310 L 360 319 L 361 321 L 385 321 L 383 312 L 382 310 L 358 310 Z M 390 310 L 394 320 L 395 321 L 419 321 L 416 312 L 415 310 L 390 310 Z M 91 325 L 86 337 L 148 337 L 151 326 L 91 325 Z M 158 325 Q 158 332 155 337 L 182 337 L 184 327 L 184 325 L 158 325 Z M 194 325 Q 190 327 191 333 Q 190 337 192 337 L 217 337 L 218 331 Q 219 325 218 325 L 194 325 Z M 227 325 L 226 329 L 226 337 L 252 337 L 252 325 L 227 325 Z M 260 325 L 260 337 L 286 337 Q 288 330 285 328 L 285 325 L 260 325 Z M 294 325 L 295 332 Q 294 337 296 337 L 321 337 L 320 327 L 319 325 L 294 325 Z M 328 325 L 330 337 L 357 337 L 354 329 L 354 325 L 328 325 Z M 362 325 L 364 337 L 391 337 L 388 329 L 388 325 L 362 325 Z M 396 325 L 399 337 L 426 337 L 421 327 L 421 325 L 396 325 Z M 85 341 L 79 354 L 80 356 L 106 356 L 110 344 L 110 341 L 85 341 Z M 119 341 L 115 354 L 116 356 L 142 356 L 145 346 Q 145 341 145 341 L 119 341 Z M 154 341 L 151 354 L 152 356 L 178 356 L 179 355 Q 177 346 181 343 L 181 341 L 154 341 Z M 189 341 Q 192 351 188 355 L 190 356 L 214 356 Q 218 353 217 344 L 217 341 L 189 341 Z M 225 341 L 225 356 L 251 356 Q 249 350 252 349 Q 253 341 252 341 L 225 341 Z M 260 341 Q 258 347 261 350 Q 260 356 262 356 L 287 356 L 287 341 L 260 341 Z M 295 341 L 297 355 L 299 356 L 323 356 Q 325 355 323 354 L 323 341 L 295 341 Z M 367 341 Q 366 349 370 355 L 371 356 L 397 356 L 393 343 L 393 341 L 367 341 Z M 402 341 L 406 355 L 407 356 L 433 356 L 429 343 L 428 341 L 402 341 Z M 332 342 Q 332 359 337 373 L 338 374 L 365 374 L 358 346 L 358 342 L 332 342 Z M 77 359 Q 78 368 71 373 L 72 374 L 99 374 L 105 361 L 105 359 L 77 359 Z M 115 359 L 110 371 L 111 374 L 138 374 L 141 363 L 141 359 L 115 359 Z M 150 359 L 147 371 L 148 374 L 289 374 Q 292 364 288 361 L 288 359 L 150 359 Z M 297 359 L 298 365 L 298 374 L 327 374 L 325 365 Q 326 359 325 359 L 297 359 Z M 371 359 L 374 372 L 375 374 L 402 374 L 399 361 L 398 359 L 371 359 Z M 407 359 L 412 373 L 414 374 L 441 374 L 435 362 L 435 359 L 407 359 Z M 222 385 L 197 433 L 198 434 L 315 434 L 292 387 L 291 385 L 222 385 Z " /></svg>