<svg width="512" height="512" version="1.1" xmlns="http://www.w3.org/2000/svg" desc="Created with imagetracer.js version 1.2.6" ><path fill="rgb(168,204,216)" stroke="rgb(168,204,216)" stroke-width="1" opacity="0.996078431372549" d="M 50.5 12 L 96 12.5 L 70.5 44 L 40 44 L 40 22.5 L 46.5 14 L 50.5 12 Z " /><path fill="rgb(168,204,216)" stroke="rgb(168,204,216)" stroke-width="1" opacity="0.996078431372549" d="M 239.5 12 L 296 12.5 L 270.5 44 L 214 43.5 L 239.5 12 Z " /><path fill="rgb(168,204,216)" stroke="rgb(168,204,216)" stroke-width="1" opacity="0.996078431372549" d="M 447.5 12 Q 465.033 8.967 470 18.5 Q 475.667 26.902 472 44 L 422 43.5 L 447.5 12 Z " /><path fill="rgb(168,204,216)" stroke="rgb(168,204,216)" stroke-width="1" opacity="0.996078431372549" d="M 248.5 112 L 407.5 112 Q 412.25 112.25 414 115.5 L 415 122.5 L 412.5 126 L 407.5 128 L 248.5 128 Q 242.95 127.55 241 123.5 Q 239.25 114.75 244.5 113 L 248.5 112 Z " /><path fill="rgb(168,204,216)" stroke="rgb(168,204,216)" stroke-width="1" opacity="0.996078431372549" d="M 162.5 113 Q 171.531 111.469 174 116.5 L 175 125.5 L 171.5 130 L 162.5 131 L 158 127.5 L 157 118.5 L 160.5 114 L 162.5 113 Z " /><path fill="rgb(168,204,216)" stroke="rgb(168,204,216)" stroke-width="1" opacity="0.996078431372549" d="M 140.5 132 L 165.5 171 L 166 165.5 L 163 154.5 L 177 141.5 L 207 185.5 L 207 187.5 Q 186.986 197.986 154.5 196 Q 123.586 197.914 105 187.5 L 140.5 132 Z " /><path fill="rgb(168,204,216)" stroke="rgb(168,204,216)" stroke-width="1" opacity="0.996078431372549" d="M 248.5 144 L 407.5 144 Q 413.05 144.45 415 148.5 Q 416.25 155.75 412.5 158 L 407.5 160 L 248.5 160 L 241 155.5 Q 239.25 146.75 244.5 145 L 248.5 144 Z " /><path fill="rgb(168,204,216)" stroke="rgb(168,204,216)" stroke-width="1" opacity="0.996078431372549" d="M 248.5 176 L 367.5 176 Q 372.25 176.25 374 179.5 L 375 186.5 L 372.5 190 L 367.5 192 L 248.5 192 L 241 187.5 Q 239.25 178.75 244.5 177 L 248.5 176 Z " /><path fill="rgb(238,238,238)" stroke="rgb(238,238,238)" stroke-width="1" opacity="1" d="M 95.5 13 L 94.5 15 L 95.5 13 Z " /><path fill="rgb(238,238,238)" stroke="rgb(238,238,238)" stroke-width="1" opacity="1" d="M 134.5 13 L 132.5 16 L 134.5 13 Z " /><path fill="rgb(238,238,238)" stroke="rgb(238,238,238)" stroke-width="1" opacity="1" d="M 191.5 13 L 189.5 16 L 191.5 13 Z " /><path fill="rgb(238,238,238)" stroke="rgb(238,238,238)" stroke-width="1" opacity="1" d="M 295.5 13 L 294.5 15 L 295.5 13 Z " /><path fill="rgb(238,238,238)" stroke="rgb(238,238,238)" stroke-width="1" opacity="1" d="M 342.5 13 L 340.5 16 L 342.5 13 Z " /><path fill="rgb(238,238,238)" stroke="rgb(238,238,238)" stroke-width="1" opacity="1" d="M 399.5 13 L 397.5 16 L 399.5 13 Z " /><path fill="rgb(238,238,238)" stroke="rgb(238,238,238)" stroke-width="1" opacity="1" d="M 237.5 14 L 236.5 16 L 237.5 14 Z " /><path fill="rgb(238,238,238)" stroke="rgb(238,238,238)" stroke-width="1" opacity="1" d="M 445.5 14 L 444.5 16 L 445.5 14 Z " /><path fill="rgb(238,238,238)" stroke="rgb(238,238,238)" stroke-width="1" opacity="1" d="M 91.5 18 L 90.5 20 L 91.5 18 Z " /><path fill="rgb(238,238,238)" stroke="rgb(238,238,238)" stroke-width="1" opacity="1" d="M 130.5 18 L 128.5 21 L 130.5 18 Z " /><path fill="rgb(238,238,238)" stroke="rgb(238,238,238)" stroke-width="1" opacity="1" d="M 187.5 18 L 185.5 21 L 187.5 18 Z " /><path fill="rgb(238,238,238)" stroke="rgb(238,238,238)" stroke-width="1" opacity="1" d="M 291.5 18 L 290.5 20 L 291.5 18 Z " /><path fill="rgb(238,238,238)" stroke="rgb(238,238,238)" stroke-width="1" opacity="1" d="M 338.5 18 L 336.5 21 L 338.5 18 Z " /><path fill="rgb(238,238,238)" stroke="rgb(238,238,238)" stroke-width="1" opacity="1" d="M 395.5 18 L 393.5 21 L 395.5 18 Z " /><path fill="rgb(238,238,238)" stroke="rgb(238,238,238)" stroke-width="1" opacity="1" d="M 233.5 19 L 232.5 21 L 233.5 19 Z " /><path fill="rgb(238,238,238)" stroke="rgb(238,238,238)" stroke-width="1" opacity="1" d="M 441.5 19 L 440.5 21 L 441.5 19 Z " /><path fill="rgb(238,238,238)" stroke="rgb(238,238,238)" stroke-width="1" opacity="1" d="M 87.5 23 L 86.5 25 L 87.5 23 Z " /><path fill="rgb(238,238,238)" stroke="rgb(238,238,238)" stroke-width="1" opacity="1" d="M 126.5 23 L 124.5 26 L 126.5 23 Z " /><path fill="rgb(238,238,238)" stroke="rgb(238,238,238)" stroke-width="1" opacity="1" d="M 183.5 23 L 181.5 26 L 183.5 23 Z " /><path fill="rgb(238,238,238)" stroke="rgb(238,238,238)" stroke-width="1" opacity="1" d="M 287.5 23 L 286.5 25 L 287.5 23 Z " /><path fill="rgb(238,238,238)" stroke="rgb(238,238,238)" stroke-width="1" opacity="1" d="M 334.5 23 L 332.5 26 L 334.5 23 Z " /><path fill="rgb(238,238,238)" stroke="rgb(238,238,238)" stroke-width="1" opacity="1" d="M 391.5 23 L 389.5 26 L 391.5 23 Z " /><path fill="rgb(238,238,238)" stroke="rgb(238,238,238)" stroke-width="1" opacity="1" d="M 229.5 24 L 228.5 26 L 229.5 24 Z " /><path fill="rgb(238,238,238)" stroke="rgb(238,238,238)" stroke-width="1" opacity="1" d="M 437.5 24 L 436.5 26 L 437.5 24 Z " /><path fill="rgb(238,238,238)" stroke="rgb(238,238,238)" stroke-width="1" opacity="1" d="M 83.5 28 L 82.5 30 L 83.5 28 Z " /><path fill="rgb(238,238,238)" stroke="rgb(238,238,238)" stroke-width="1" opacity="1" d="M 122.5 28 L 120.5 31 L 122.5 28 Z " /><path fill="rgb(238,238,238)" stroke="rgb(238,238,238)" stroke-width="1" opacity="1" d="M 179.5 28 L 177.5 31 L 179.5 28 Z " /><path fill="rgb(238,238,238)" stroke="rgb(238,238,238)" stroke-width="1" opacity="1" d="M 283.5 28 L 282.5 30 L 283.5 28 Z " /><path fill="rgb(238,238,238)" stroke="rgb(238,238,238)" stroke-width="1" opacity="1" d="M 330.5 28 L 328.5 31 L 330.5 28 Z " /><path fill="rgb(238,238,238)" stroke="rgb(238,238,238)" stroke-width="1" opacity="1" d="M 387.5 28 L 385.5 31 L 387.5 28 Z " /><path fill="rgb(238,238,238)" stroke="rgb(238,238,238)" stroke-width="1" opacity="1" d="M 225.5 29 L 224.5 31 L 225.5 29 Z " /><path fill="rgb(238,238,238)" stroke="rgb(238,238,238)" stroke-width="1" opacity="1" d="M 433.5 29 L 432.5 31 L 433.5 29 Z " /><path fill="rgb(238,238,238)" stroke="rgb(238,238,238)" stroke-width="1" opacity="1" d="M 79.5 33 L 78.5 35 L 79.5 33 Z " /><path fill="rgb(238,238,238)" stroke="rgb(238,238,238)" stroke-width="1" opacity="1" d="M 118.5 33 L 116.5 36 L 118.5 33 Z " /><path fill="rgb(238,238,238)" stroke="rgb(238,238,238)" stroke-width="1" opacity="1" d="M 175.5 33 L 173.5 36 L 175.5 33 Z " /><path fill="rgb(238,238,238)" stroke="rgb(238,238,238)" stroke-width="1" opacity="1" d="M 279.5 33 L 278.5 35 L 279.5 33 Z " /><path fill="rgb(238,238,238)" stroke="rgb(238,238,238)" stroke-width="1" opacity="1" d="M 326.5 33 L 324.5 36 L 326.5 33 Z " /><path fill="rgb(238,238,238)" stroke="rgb(238,238,238)" stroke-width="1" opacity="1" d="M 383.5 33 L 381.5 36 L 383.5 33 Z " /><path fill="rgb(238,238,238)" stroke="rgb(238,238,238)" stroke-width="1" opacity="1" d="M 221.5 34 L 220.5 36 L 221.5 34 Z " /><path fill="rgb(238,238,238)" stroke="rgb(238,238,238)" stroke-width="1" opacity="1" d="M 429.5 34 L 428.5 36 L 429.5 34 Z " /><path fill="rgb(238,238,238)" stroke="rgb(238,238,238)" stroke-width="1" opacity="1" d="M 75.5 38 L 74.5 40 L 75.5 38 Z " /><path fill="rgb(238,238,238)" stroke="rgb(238,238,238)" stroke-width="1" opacity="1" d="M 114.5 38 L 112.5 41 L 114.5 38 Z " /><path fill="rgb(238,238,238)" stroke="rgb(238,238,238)" stroke-width="1" opacity="1" d="M 171.5 38 L 169.5 41 L 171.5 38 Z " /><path fill="rgb(238,238,238)" stroke="rgb(238,238,238)" stroke-width="1" opacity="1" d="M 275.5 38 L 274.5 40 L 275.5 38 Z " /><path fill="rgb(238,238,238)" stroke="rgb(238,238,238)" stroke-width="1" opacity="1" d="M 322.5 38 L 320.5 41 L 322.5 38 Z " /><path fill="rgb(238,238,238)" stroke="rgb(238,238,238)" stroke-width="1" opacity="1" d="M 379.5 38 L 377.5 41 L 379.5 38 Z " /><path fill="rgb(238,238,238)" stroke="rgb(238,238,238)" stroke-width="1" opacity="1" d="M 217.5 39 L 216.5 41 L 217.5 39 Z " /><path fill="rgb(238,238,238)" stroke="rgb(238,238,238)" stroke-width="1" opacity="1" d="M 425.5 39 L 424.5 41 L 425.5 39 Z " /><path fill="rgb(238,238,238)" stroke="rgb(238,238,238)" stroke-width="1" opacity="1" d="M 162.5 112 Q 171.167 110.667 174 114 Q 177.143 117.571 176 126.5 L 174 130 Q 170.875 133.5 161.5 132 L 158 130 Q 154.5 126.875 156 117.5 L 158 114 L 162.5 112 Z M 163 113 L 161 114 L 157 119 L 158 128 L 163 131 L 172 130 L 175 126 L 174 117 Q 172 111 163 113 Z " /><path fill="rgb(238,238,238)" stroke="rgb(238,238,238)" stroke-width="1" opacity="1" d="M 244.5 112 L 248 112.5 Q 242.438 112.438 241 116.5 Q 239.25 125.25 244.5 127 L 248 127.5 L 244.5 128 L 241 125.5 L 240 116.5 L 242.5 113 L 244.5 112 Z " /><path fill="rgb(238,238,238)" stroke="rgb(238,238,238)" stroke-width="1" opacity="1" d="M 408.5 112 Q 413.625 111.375 415 114.5 L 416 123.5 L 413.5 127 L 408.5 128 L 408.5 127 L 414 124.5 L 415 117.5 L 411.5 113 Q 407.5 113.75 408.5 112 Z " /><path fill="rgb(238,238,238)" stroke="rgb(238,238,238)" stroke-width="1" opacity="1" d="M 140.5 130 L 163.5 166 L 164 160.5 L 162 153.5 L 176.5 140 L 208 185.5 L 208 188.5 Q 201.817 194.317 189.5 194 L 189.5 193 Q 201.081 193.081 207 187.5 L 207 185.5 L 176.5 141 L 163 154.5 L 164 155.5 L 166 170.5 L 164 169.5 L 140.5 132 L 105 187.5 Q 123.754 197.246 154 195.5 L 133.5 196 Q 115.217 195.783 104 188.5 L 106 182.5 L 140.5 130 Z " /><path fill="rgb(238,238,238)" stroke="rgb(238,238,238)" stroke-width="1" opacity="1" d="M 244.5 144 L 248 144.5 Q 242.438 144.438 241 148.5 Q 239.25 156.25 243.5 158 L 248 159.5 L 244.5 160 L 241 157.5 L 240 148.5 L 242.5 145 L 244.5 144 Z " /><path fill="rgb(238,238,238)" stroke="rgb(238,238,238)" stroke-width="1" opacity="1" d="M 408.5 144 Q 413.625 143.375 415 146.5 L 416 155.5 L 413.5 159 L 408.5 160 L 408.5 159 L 414 156.5 L 415 148.5 Q 414.25 144.25 408.5 145 L 408.5 144 Z " /><path fill="rgb(238,238,238)" stroke="rgb(238,238,238)" stroke-width="1" opacity="1" d="M 244.5 176 L 248 176.5 Q 242.438 176.438 241 180.5 Q 239.25 188.25 243.5 190 L 248 191.5 L 244.5 192 L 241 189.5 L 240 180.5 L 242.5 177 L 244.5 176 Z " /><path fill="rgb(238,238,238)" stroke="rgb(238,238,238)" stroke-width="1" opacity="1" d="M 368.5 176 Q 373.625 175.375 375 178.5 L 376 187.5 L 373.5 191 L 368.5 192 L 368.5 191 L 374 188.5 L 375 181.5 L 371.5 177 Q 367.5 177.75 368.5 176 Z " /><path fill="rgb(238,238,238)" stroke="rgb(238,238,238)" stroke-width="1" opacity="1" d="M 179.5 194 L 188 194.5 Q 175.364 197.364 158.5 196 L 158.5 195 L 178.5 195 L 179.5 194 Z " /><path fill="rgb(238,238,238)" stroke="rgb(238,238,238)" stroke-width="1" opacity="1" d="M 49.5 225 L 53 226.5 L 51.5 227 L 49.5 225 Z " /><path fill="rgb(238,238,238)" stroke="rgb(238,238,238)" stroke-width="1" opacity="1" d="M 65.5 232 L 69 233.5 L 67.5 234 L 65.5 232 Z " /><path fill="rgb(238,238,238)" stroke="rgb(238,238,238)" stroke-width="1" opacity="1" d="M 81.5 239 L 85 240.5 L 83.5 241 L 81.5 239 Z " /><path fill="rgb(238,238,238)" stroke="rgb(238,238,238)" stroke-width="1" opacity="1" d="M 97.5 246 L 101 247.5 L 99.5 248 L 97.5 246 Z " /><path fill="rgb(238,238,238)" stroke="rgb(238,238,238)" stroke-width="1" opacity="1" d="M 113.5 253 L 117 254.5 L 115.5 255 L 113.5 253 Z " /><path fill="rgb(238,238,238)" stroke="rgb(238,238,238)" stroke-width="1" opacity="1" d="M 129.5 260 L 133 261.5 L 131.5 262 L 129.5 260 Z " /><path fill="rgb(238,238,238)" stroke="rgb(238,238,238)" stroke-width="1" opacity="1" d="M 145.5 267 L 149 268.5 L 147.5 269 L 145.5 267 Z " /><path fill="rgb(238,238,238)" stroke="rgb(238,238,238)" stroke-width="1" opacity="1" d="M 161.5 274 L 165 275.5 L 163.5 276 L 161.5 274 Z " /><path fill="rgb(238,238,238)" stroke="rgb(238,238,238)" stroke-width="1" opacity="1" d="M 177.5 281 L 181 282.5 L 179.5 283 L 177.5 281 Z " /><path fill="rgb(238,238,238)" stroke="rgb(238,238,238)" stroke-width="1" opacity="1" d="M 193.5 288 L 197 289.5 L 195.5 290 L 193.5 288 Z " /><path fill="rgb(238,238,238)" stroke="rgb(238,238,238)" stroke-width="1" opacity="1" d="M 209.5 295 L 213 296.5 L 211.5 297 L 209.5 295 Z " /><path fill="rgb(238,238,238)" stroke="rgb(238,238,238)" stroke-width="1" opacity="1" d="M 225.5 302 L 229 303.5 L 227.5 304 L 225.5 302 Z " /><path fill="rgb(238,238,238)" stroke="rgb(238,238,238)" stroke-width="1" opacity="1" d="M 241.5 309 L 245 310.5 L 243.5 311 L 241.5 309 Z " /><path fill="rgb(239,239,239)" stroke="rgb(239,239,239)" stroke-width="1" opacity="1" d="M 96 12 L 135 12.5 L 110 43.5 L 168 44 L 192 12 L 239 12.5 L 214 43.5 L 272 44 L 296 12 L 343 12.5 L 318 43.5 L 376 44 L 400 12 L 447 12.5 L 422 43.5 L 472 44 L 472 220.5 L 470.5 222 L 269.5 310 Q 264.941 315.441 254.5 315 L 40 220.5 L 40 44.5 L 40.5 44 L 71.5 44 L 72 42.5 L 96 12 Z M 163 112 L 158 114 L 156 118 Q 155 127 158 130 L 162 132 Q 171 134 174 130 L 176 127 Q 177 118 174 114 Q 171 111 163 112 Z M 245 112 L 243 113 L 240 117 L 241 126 L 245 128 L 412 128 L 414 127 L 416 124 L 415 115 L 412 112 L 245 112 Z M 141 130 L 106 183 L 104 189 Q 115 196 134 196 Q 179 201 208 189 L 208 186 L 177 140 L 162 154 L 165 167 L 165 168 L 141 130 Z M 245 144 L 243 145 L 240 149 L 241 158 L 245 160 L 412 160 L 414 159 L 416 156 L 415 147 L 412 144 L 245 144 Z M 245 176 L 243 177 L 240 181 L 241 190 L 245 192 L 372 192 L 374 191 L 376 188 L 375 179 L 372 176 L 245 176 Z " /><path fill="rgb(12,7,3)" stroke="rgb(12,7,3)" stroke-width="1" opacity="0.054901960784313725" d="M 0 0 L 512 0 L 512 202.5 L 510.5 202 L 472 180 L 472 22.5 L 465.5 14 L 461.5 12 L 50.5 12 L 42 18.5 L 40 22.5 L 40 179.5 L 38.5 181 L 0 203 L 0 0 Z " /><path fill="rgb(12,7,3)" stroke="rgb(12,7,3)" stroke-width="1" opacity="0.054901960784313725" d="M 0.5 483 Q 2.833 492.667 10.5 497 L 17.5 500 L 494.5 500 Q 504.25 497.25 509 489.5 L 511.5 483 L 512 512 L 0.5 512 L 0 511.5 L 0.5 483 Z " /><path fill="rgb(233,191,91)" stroke="rgb(233,191,91)" stroke-width="1" opacity="0.996078431372549" d="M 135 12 L 192 12.5 L 166.5 44 L 111.5 44 L 111 42.5 L 135 12 Z " /><path fill="rgb(233,191,91)" stroke="rgb(233,191,91)" stroke-width="1" opacity="0.996078431372549" d="M 343 12 L 400 12.5 L 374.5 44 L 319.5 44 L 319 42.5 L 343 12 Z " /><path fill="rgb(233,191,91)" stroke="rgb(233,191,91)" stroke-width="1" opacity="0.996078431372549" d="M 39.5 180 L 40 222 L 256.5 316 L 472 222 L 472 180.5 L 473.5 180 L 512 203.5 L 512 482.5 Q 509.25 492.25 501.5 497 L 494.5 500 L 17.5 500 Q 7.75 497.25 3 489.5 L 0 482.5 L 0 203 L 39.5 180 Z " /></svg>