<svg width="512" height="512" version="1.1" xmlns="http://www.w3.org/2000/svg" desc="Created with imagetracer.js version 1.2.6" ><path fill="rgb(0,0,0)" stroke="rgb(0,0,0)" stroke-width="1" opacity="0" d="M 0 0 L 151 0.5 L 142 7.5 L 140 12.5 L 140 86.5 Q 142.107 94.393 148.5 98 Q 157.363 101.778 171 100 L 166 132 Q 124.168 127.324 109 150.5 Q 101.798 159.298 99 172.5 L 99 471.5 Q 103.63 492.37 118.5 503 Q 126.092 509.908 139 511.5 L 0 512 L 0 0 Z " /><path fill="rgb(0,0,0)" stroke="rgb(0,0,0)" stroke-width="1" opacity="0" d="M 361.5 0 L 511.5 0 L 512 0.5 L 512 512 L 373 511.5 Q 393 507.5 403 493.5 Q 410.202 484.702 413 471.5 L 413 172.5 Q 408.411 152.589 394.5 142 Q 378.922 127.781 346 132 L 341 100 Q 362.525 103.228 370 91.5 L 372 86.5 L 372 12.5 Q 370.179 5.321 364.5 2 Q 360.75 1.75 361.5 0 Z " /><path fill="rgb(251,68,85)" stroke="rgb(251,68,85)" stroke-width="1" opacity="0.9882352941176471" d="M 314 99 L 339.5 99 L 341 100.5 L 346 132 L 166.5 132 L 166 129.5 Q 169.917 126.417 168 117.5 L 169.5 116 L 298.5 116 Q 307.023 114.523 311 108.5 Q 314.287 105.131 314 99 Z " /><path fill="rgb(251,68,85)" stroke="rgb(251,68,85)" stroke-width="1" opacity="0.9882352941176471" d="M 396 145 L 403 150.5 Q 413.369 161.113 413 181 L 396 181 L 396 145 Z " /><path fill="rgb(251,68,85)" stroke="rgb(251,68,85)" stroke-width="1" opacity="0.9882352941176471" d="M 331.5 289 Q 340.023 290.477 344 296.5 L 346 300.5 L 346 343.5 L 339.5 352 L 332.5 355 L 289 355 L 289 397.5 Q 287.523 406.023 281.5 410 Q 266.077 416.577 240.5 413 Q 230.288 412.212 226 405.5 L 223 397.5 L 224.5 396 L 260.5 396 L 269 390.5 Q 277.286 376.786 273 350.5 L 278.5 342 L 284.5 339 L 315.5 339 Q 323.05 337.55 327 332.5 L 330 326.5 L 330 290.5 L 331.5 289 Z " /><path fill="rgb(251,68,85)" stroke="rgb(251,68,85)" stroke-width="1" opacity="0.9882352941176471" d="M 396 463 L 413 463 L 413 471.5 Q 408.63 491.63 394.5 502 Q 385.702 509.202 372.5 512 L 139.5 512 Q 121.617 508.383 112 496.5 L 112.5 495 L 370.5 495 Q 383.234 491.734 390 482.5 Q 397.105 475.927 396 463 Z " /><path fill="rgb(254,234,200)" stroke="rgb(254,234,200)" stroke-width="1" opacity="0.9921568627450981" d="M 396 182 L 412.5 182 L 413 182.5 L 413 462 L 396.5 462 L 396 461.5 L 396 182 Z " /><path fill="rgb(254,234,200)" stroke="rgb(254,234,200)" stroke-width="1" opacity="0.9921568627450981" d="M 230.5 233 L 229.5 235 L 230.5 233 Z " /><path fill="rgb(254,234,200)" stroke="rgb(254,234,200)" stroke-width="1" opacity="0.9921568627450981" d="M 281.5 233 L 282.5 235 L 281.5 233 Z " /><path fill="rgb(254,234,200)" stroke="rgb(254,234,200)" stroke-width="1" opacity="0.9921568627450981" d="M 226.5 237 L 225.5 239 L 226.5 237 Z " /><path fill="rgb(254,234,200)" stroke="rgb(254,234,200)" stroke-width="1" opacity="0.9921568627450981" d="M 285.5 237 L 286.5 239 L 285.5 237 Z " /><path fill="rgb(254,234,200)" stroke="rgb(254,234,200)" stroke-width="1" opacity="0.9921568627450981" d="M 172.5 291 L 171.5 293 L 172.5 291 Z " /><path fill="rgb(254,234,200)" stroke="rgb(254,234,200)" stroke-width="1" opacity="0.9921568627450981" d="M 168.5 295 L 167.5 297 L 168.5 295 Z " /><path fill="rgb(254,234,200)" stroke="rgb(254,234,200)" stroke-width="1" opacity="0.9921568627450981" d="M 167.5 347 L 168.5 349 L 167.5 347 Z " /><path fill="rgb(254,180,96)" stroke="rgb(254,180,96)" stroke-width="1" opacity="0.9921568627450981" d="M 151.5 0 L 360.5 0 L 370 7.5 L 372 12.5 L 372 86.5 Q 369.893 94.393 363.5 98 Q 354.778 101.778 340.5 100 L 339.5 99 L 172.5 99 L 171.5 100 L 155.5 100 Q 145.694 98.806 142 91.5 L 140 86.5 L 140 12.5 Q 141.821 5.321 147.5 2 L 151.5 0 Z " /><path fill="rgb(254,180,96)" stroke="rgb(254,180,96)" stroke-width="1" opacity="0.9921568627450981" d="M 228.5 235 L 227.5 237 L 228.5 235 Z " /><path fill="rgb(254,180,96)" stroke="rgb(254,180,96)" stroke-width="1" opacity="0.9921568627450981" d="M 283.5 235 L 284.5 237 L 283.5 235 Z " /><path fill="rgb(254,180,96)" stroke="rgb(254,180,96)" stroke-width="1" opacity="0.9921568627450981" d="M 170.5 293 L 169.5 295 L 170.5 293 Z " /><path fill="rgb(254,180,96)" stroke="rgb(254,180,96)" stroke-width="1" opacity="0.9921568627450981" d="M 99.5 462 L 397 462.5 L 99.5 463 L 99.5 462 Z " /><path fill="rgb(255,245,231)" stroke="rgb(255,245,231)" stroke-width="1" opacity="0.996078431372549" d="M 222.5 247 L 223 288.5 L 222 288.5 L 222.5 247 Z " /><path fill="rgb(255,245,231)" stroke="rgb(255,245,231)" stroke-width="1" opacity="0.996078431372549" d="M 289.5 247 L 290 288.5 L 289 288.5 L 289.5 247 Z " /><path fill="rgb(255,245,231)" stroke="rgb(255,245,231)" stroke-width="1" opacity="0.996078431372549" d="M 168.5 349 L 170.5 352 L 168.5 349 Z " /><path fill="rgb(255,245,231)" stroke="rgb(255,245,231)" stroke-width="1" opacity="0.996078431372549" d="M 343.5 349 L 341.5 352 L 343.5 349 Z " /><path fill="rgb(255,245,231)" stroke="rgb(255,245,231)" stroke-width="1" opacity="0.996078431372549" d="M 180.5 355 L 223 355 L 223 396.5 L 222 396.5 L 222 356 L 180.5 356 L 180.5 355 Z " /><path fill="rgb(255,245,231)" stroke="rgb(255,245,231)" stroke-width="1" opacity="0.996078431372549" d="M 290.5 355 L 332 355.5 L 290 356 L 289.5 397 L 289 356.5 L 290.5 355 Z " /><path fill="rgb(255,245,231)" stroke="rgb(255,245,231)" stroke-width="1" opacity="0.996078431372549" d="M 226.5 407 L 228.5 410 L 226.5 407 Z " /><path fill="rgb(255,245,231)" stroke="rgb(255,245,231)" stroke-width="1" opacity="0.996078431372549" d="M 285.5 407 L 283.5 410 L 285.5 407 Z " /><path fill="rgb(255,246,232)" stroke="rgb(255,246,232)" stroke-width="1" opacity="1" d="M 100.5 182 L 396 182 L 396 462 L 100.5 462 L 99 460.5 L 99 183.5 L 100.5 182 Z M 235 231 L 227 235 Q 223 239 222 248 L 222 289 L 177 289 L 169 293 L 165 301 L 165 344 L 168 350 Q 172 355 181 356 L 222 356 L 222 397 L 226 408 L 235 413 L 278 413 L 284 410 Q 289 406 290 397 L 290 356 L 332 356 Q 338 355 342 352 L 347 344 L 347 301 L 343 293 L 336 289 L 290 289 L 290 248 Q 289 239 285 235 L 278 231 L 235 231 Z " /><path fill="rgb(254,94,121)" stroke="rgb(254,94,121)" stroke-width="1" opacity="0.996078431372549" d="M 172.5 99 L 313.5 99 L 314 101.5 Q 312.761 109.761 306.5 113 L 298.5 116 L 169 116 L 171 100.5 L 172.5 99 Z " /><path fill="rgb(254,94,121)" stroke="rgb(254,94,121)" stroke-width="1" opacity="0.996078431372549" d="M 139.5 132 L 372.5 132 Q 387.721 135.279 397 144.5 L 396 145.5 L 396 181 L 413 181.5 L 99 182 Q 99.396 153.788 117.5 142 Q 126.298 134.798 139.5 132 Z " /><path fill="rgb(254,94,121)" stroke="rgb(254,94,121)" stroke-width="1" opacity="0.996078431372549" d="M 237.5 231 L 273.5 231 Q 283.306 232.194 287 239.5 L 289 244.5 L 289 289 L 331 289.5 L 330 290.5 L 330 326.5 L 324.5 335 L 315.5 339 L 284.5 339 L 276 344.5 L 273 350.5 L 273 380.5 Q 271.914 388.914 266.5 393 L 260.5 396 L 224.5 396 L 223.5 397 L 223 355 L 178.5 355 L 169 349.5 L 165 340.5 L 165 303.5 Q 166.625 294.625 173.5 291 L 178.5 289 L 223 289 L 223 244.5 Q 225.107 236.607 231.5 233 L 237.5 231 Z " /><path fill="rgb(254,94,121)" stroke="rgb(254,94,121)" stroke-width="1" opacity="0.996078431372549" d="M 341.5 293 L 342.5 295 L 341.5 293 Z " /><path fill="rgb(254,94,121)" stroke="rgb(254,94,121)" stroke-width="1" opacity="0.996078431372549" d="M 346.5 303 L 347 341.5 L 346 341.5 L 346.5 303 Z " /><path fill="rgb(254,94,121)" stroke="rgb(254,94,121)" stroke-width="1" opacity="0.996078431372549" d="M 342.5 349 L 340.5 352 L 342.5 349 Z " /><path fill="rgb(254,94,121)" stroke="rgb(254,94,121)" stroke-width="1" opacity="0.996078431372549" d="M 226.5 406 L 228.5 409 L 226.5 406 Z " /><path fill="rgb(254,94,121)" stroke="rgb(254,94,121)" stroke-width="1" opacity="0.996078431372549" d="M 284.5 407 L 283.5 409 L 284.5 407 Z " /><path fill="rgb(254,94,121)" stroke="rgb(254,94,121)" stroke-width="1" opacity="0.996078431372549" d="M 236.5 412 L 240 412.5 L 236.5 413 L 236.5 412 Z " /><path fill="rgb(254,94,121)" stroke="rgb(254,94,121)" stroke-width="1" opacity="0.996078431372549" d="M 272.5 412 L 276 412.5 L 272.5 413 L 272.5 412 Z " /><path fill="rgb(254,94,121)" stroke="rgb(254,94,121)" stroke-width="1" opacity="0.996078431372549" d="M 397.5 462 L 413 462.5 L 397.5 463 L 397.5 462 Z " /><path fill="rgb(254,94,121)" stroke="rgb(254,94,121)" stroke-width="1" opacity="0.996078431372549" d="M 99 463 L 395.5 463 Q 396.75 463.25 396 469.5 Q 392.734 482.234 383.5 489 L 370.5 495 L 112.5 495 L 111.5 496 Q 99.282 484.945 99 463 Z " /></svg>