<svg width="512" height="512" version="1.1" xmlns="http://www.w3.org/2000/svg" desc="Created with imagetracer.js version 1.2.6" ><path fill="rgb(216,91,75)" stroke="rgb(216,91,75)" stroke-width="1" opacity="1" d="M 205.5 13 Q 236.827 10.173 248 27.5 L 253.5 35 Q 259.75 36.25 261 32.5 L 268.5 23 Q 279.903 10.403 306.5 13 Q 323.869 17.131 333 29.5 Q 343.535 40.465 342 63.5 Q 328.747 96.747 302.5 117 Q 280.882 137.382 255.5 154 Q 222.669 130.831 195 102.5 Q 180.844 88.656 172 69.5 Q 168.25 62.25 170 49.5 Q 173.919 31.419 186.5 22 Q 194.25 15.75 205.5 13 Z " /><path fill="rgb(216,91,75)" stroke="rgb(216,91,75)" stroke-width="1" opacity="1" d="M 120.5 15 L 121.5 17 L 120.5 15 Z " /><path fill="rgb(216,91,75)" stroke="rgb(216,91,75)" stroke-width="1" opacity="1" d="M 391.5 15 L 390.5 17 L 391.5 15 Z " /><path fill="rgb(216,91,75)" stroke="rgb(216,91,75)" stroke-width="1" opacity="1" d="M 114.5 17 L 113.5 19 L 114.5 17 Z " /><path fill="rgb(216,91,75)" stroke="rgb(216,91,75)" stroke-width="1" opacity="1" d="M 397.5 17 L 398.5 19 L 397.5 17 Z " /><path fill="rgb(216,91,75)" stroke="rgb(216,91,75)" stroke-width="1" opacity="1" d="M 123.5 20 L 124.5 22 L 123.5 20 Z " /><path fill="rgb(216,91,75)" stroke="rgb(216,91,75)" stroke-width="1" opacity="1" d="M 388.5 20 L 387.5 22 L 388.5 20 Z " /><path fill="rgb(216,91,75)" stroke="rgb(216,91,75)" stroke-width="1" opacity="1" d="M 108.5 24 L 107.5 26 L 108.5 24 Z " /><path fill="rgb(216,91,75)" stroke="rgb(216,91,75)" stroke-width="1" opacity="1" d="M 403.5 24 L 404.5 26 L 403.5 24 Z " /><path fill="rgb(216,91,75)" stroke="rgb(216,91,75)" stroke-width="1" opacity="1" d="M 129.5 25 L 130.5 27 L 129.5 25 Z " /><path fill="rgb(216,91,75)" stroke="rgb(216,91,75)" stroke-width="1" opacity="1" d="M 382.5 25 L 381.5 27 L 382.5 25 Z " /><path fill="rgb(216,91,75)" stroke="rgb(216,91,75)" stroke-width="1" opacity="1" d="M 101.5 29 L 103 32.5 L 101 31.5 L 101.5 29 Z " /><path fill="rgb(216,91,75)" stroke="rgb(216,91,75)" stroke-width="1" opacity="1" d="M 134.5 29 L 135 31.5 L 133 32.5 L 134.5 29 Z " /><path fill="rgb(216,91,75)" stroke="rgb(216,91,75)" stroke-width="1" opacity="1" d="M 377.5 29 L 379 32.5 L 377 31.5 L 377.5 29 Z " /><path fill="rgb(216,91,75)" stroke="rgb(216,91,75)" stroke-width="1" opacity="1" d="M 410.5 29 L 411 31.5 L 409 32.5 L 410.5 29 Z " /><path fill="rgb(216,91,75)" stroke="rgb(216,91,75)" stroke-width="1" opacity="1" d="M 108.5 35 L 112.5 40 L 108.5 35 Z " /><path fill="rgb(216,91,75)" stroke="rgb(216,91,75)" stroke-width="1" opacity="1" d="M 127.5 35 L 123.5 40 L 127.5 35 Z " /><path fill="rgb(216,91,75)" stroke="rgb(216,91,75)" stroke-width="1" opacity="1" d="M 384.5 35 L 388.5 40 L 384.5 35 Z " /><path fill="rgb(216,91,75)" stroke="rgb(216,91,75)" stroke-width="1" opacity="1" d="M 403.5 35 L 399.5 40 L 403.5 35 Z " /><path fill="rgb(216,91,75)" stroke="rgb(216,91,75)" stroke-width="1" opacity="1" d="M 114.5 43 L 115.5 45 L 114.5 43 Z " /><path fill="rgb(216,91,75)" stroke="rgb(216,91,75)" stroke-width="1" opacity="1" d="M 397.5 43 L 396.5 45 L 397.5 43 Z " /><path fill="rgb(216,91,75)" stroke="rgb(216,91,75)" stroke-width="1" opacity="1" d="M 120.5 45 L 119.5 47 L 120.5 45 Z " /><path fill="rgb(216,91,75)" stroke="rgb(216,91,75)" stroke-width="1" opacity="1" d="M 391.5 45 L 392.5 47 L 391.5 45 Z " /><path fill="rgb(216,91,75)" stroke="rgb(216,91,75)" stroke-width="1" opacity="1" d="M 50.5 57 L 49.5 59 L 50.5 57 Z " /><path fill="rgb(216,91,75)" stroke="rgb(216,91,75)" stroke-width="1" opacity="1" d="M 461.5 57 L 462.5 59 L 461.5 57 Z " /><path fill="rgb(216,91,75)" stroke="rgb(216,91,75)" stroke-width="1" opacity="1" d="M 48.5 60 L 47.5 62 L 48.5 60 Z " /><path fill="rgb(216,91,75)" stroke="rgb(216,91,75)" stroke-width="1" opacity="1" d="M 463.5 60 L 464.5 62 L 463.5 60 Z " /><path fill="rgb(216,91,75)" stroke="rgb(216,91,75)" stroke-width="1" opacity="1" d="M 56.5 63 L 57.5 65 L 56.5 63 Z " /><path fill="rgb(216,91,75)" stroke="rgb(216,91,75)" stroke-width="1" opacity="1" d="M 455.5 63 L 454.5 65 L 455.5 63 Z " /><path fill="rgb(216,91,75)" stroke="rgb(216,91,75)" stroke-width="1" opacity="1" d="M 45.5 65 L 43.5 68 L 45.5 65 Z " /><path fill="rgb(216,91,75)" stroke="rgb(216,91,75)" stroke-width="1" opacity="1" d="M 466.5 65 L 468.5 68 L 466.5 65 Z " /><path fill="rgb(216,91,75)" stroke="rgb(216,91,75)" stroke-width="1" opacity="1" d="M 41.5 68 L 40.5 70 L 41.5 68 Z " /><path fill="rgb(216,91,75)" stroke="rgb(216,91,75)" stroke-width="1" opacity="1" d="M 470.5 68 L 474 70.5 L 472.5 70 L 470.5 68 Z " /><path fill="rgb(216,91,75)" stroke="rgb(216,91,75)" stroke-width="1" opacity="1" d="M 65.5 70 L 66.5 72 L 65.5 70 Z " /><path fill="rgb(216,91,75)" stroke="rgb(216,91,75)" stroke-width="1" opacity="1" d="M 446.5 70 L 445.5 72 L 446.5 70 Z " /><path fill="rgb(216,91,75)" stroke="rgb(216,91,75)" stroke-width="1" opacity="1" d="M 36.5 71 L 35.5 73 L 36.5 71 Z " /><path fill="rgb(216,91,75)" stroke="rgb(216,91,75)" stroke-width="1" opacity="1" d="M 475.5 71 L 476.5 73 L 475.5 71 Z " /><path fill="rgb(216,91,75)" stroke="rgb(216,91,75)" stroke-width="1" opacity="1" d="M 68.5 73 L 69 74.5 L 66 76.5 L 68.5 73 Z " /><path fill="rgb(216,91,75)" stroke="rgb(216,91,75)" stroke-width="1" opacity="1" d="M 443.5 73 L 446 76.5 L 443 74.5 L 443.5 73 Z " /><path fill="rgb(216,91,75)" stroke="rgb(216,91,75)" stroke-width="1" opacity="1" d="M 35.5 75 L 39 77.5 L 37.5 77 L 35.5 75 Z " /><path fill="rgb(216,91,75)" stroke="rgb(216,91,75)" stroke-width="1" opacity="1" d="M 476.5 75 L 475.5 77 L 473.5 78 L 474.5 76 L 476.5 75 Z " /><path fill="rgb(216,91,75)" stroke="rgb(216,91,75)" stroke-width="1" opacity="1" d="M 42.5 79 L 46.5 84 L 42.5 79 Z " /><path fill="rgb(216,91,75)" stroke="rgb(216,91,75)" stroke-width="1" opacity="1" d="M 469.5 79 L 466.5 83 L 469.5 79 Z " /><path fill="rgb(216,91,75)" stroke="rgb(216,91,75)" stroke-width="1" opacity="1" d="M 59.5 80 L 57.5 83 L 59.5 80 Z " /><path fill="rgb(216,91,75)" stroke="rgb(216,91,75)" stroke-width="1" opacity="1" d="M 452.5 80 L 454.5 83 L 452.5 80 Z " /><path fill="rgb(216,91,75)" stroke="rgb(216,91,75)" stroke-width="1" opacity="1" d="M 54.5 88 L 52.5 91 L 49 89.5 L 50.5 90 L 54.5 88 Z " /><path fill="rgb(216,91,75)" stroke="rgb(216,91,75)" stroke-width="1" opacity="1" d="M 457.5 88 L 461.5 90 L 463 89.5 L 459.5 91 L 457.5 88 Z " /><path fill="rgb(216,91,75)" stroke="rgb(216,91,75)" stroke-width="1" opacity="1" d="M 127.5 108 L 126.5 110 L 127.5 108 Z " /><path fill="rgb(216,91,75)" stroke="rgb(216,91,75)" stroke-width="1" opacity="1" d="M 384.5 108 L 385.5 110 L 384.5 108 Z " /><path fill="rgb(216,91,75)" stroke="rgb(216,91,75)" stroke-width="1" opacity="1" d="M 135.5 112 L 136.5 114 L 135.5 112 Z " /><path fill="rgb(216,91,75)" stroke="rgb(216,91,75)" stroke-width="1" opacity="1" d="M 376.5 112 L 375.5 114 L 376.5 112 Z " /><path fill="rgb(216,91,75)" stroke="rgb(216,91,75)" stroke-width="1" opacity="1" d="M 124.5 113 L 121.5 117 L 124.5 113 Z " /><path fill="rgb(216,91,75)" stroke="rgb(216,91,75)" stroke-width="1" opacity="1" d="M 387.5 113 L 390.5 117 L 387.5 113 Z " /><path fill="rgb(216,91,75)" stroke="rgb(216,91,75)" stroke-width="1" opacity="1" d="M 139.5 116 L 140.5 118 L 139.5 116 Z " /><path fill="rgb(216,91,75)" stroke="rgb(216,91,75)" stroke-width="1" opacity="1" d="M 372.5 116 L 371.5 118 L 372.5 116 Z " /><path fill="rgb(216,91,75)" stroke="rgb(216,91,75)" stroke-width="1" opacity="1" d="M 119.5 117 L 118.5 119 L 119.5 117 Z " /><path fill="rgb(216,91,75)" stroke="rgb(216,91,75)" stroke-width="1" opacity="1" d="M 392.5 117 L 396 119.5 L 394.5 119 L 392.5 117 Z " /><path fill="rgb(216,91,75)" stroke="rgb(216,91,75)" stroke-width="1" opacity="1" d="M 118.5 126 L 119.5 128 L 118.5 126 Z " /><path fill="rgb(216,91,75)" stroke="rgb(216,91,75)" stroke-width="1" opacity="1" d="M 393.5 126 L 392.5 128 L 393.5 126 Z " /><path fill="rgb(216,91,75)" stroke="rgb(216,91,75)" stroke-width="1" opacity="1" d="M 140.5 127 L 139.5 129 L 140.5 127 Z " /><path fill="rgb(216,91,75)" stroke="rgb(216,91,75)" stroke-width="1" opacity="1" d="M 371.5 127 L 372.5 129 L 371.5 127 Z " /><path fill="rgb(216,91,75)" stroke="rgb(216,91,75)" stroke-width="1" opacity="1" d="M 121.5 128 L 124.5 132 L 121.5 128 Z " /><path fill="rgb(216,91,75)" stroke="rgb(216,91,75)" stroke-width="1" opacity="1" d="M 390.5 128 L 387.5 132 L 390.5 128 Z " /><path fill="rgb(216,91,75)" stroke="rgb(216,91,75)" stroke-width="1" opacity="1" d="M 375.5 131 L 376.5 133 L 375.5 131 Z " /><path fill="rgb(216,91,75)" stroke="rgb(216,91,75)" stroke-width="1" opacity="1" d="M 125.5 133 L 128 136.5 L 126 135.5 L 125.5 133 Z " /><path fill="rgb(216,91,75)" stroke="rgb(216,91,75)" stroke-width="1" opacity="1" d="M 385.5 135 L 384.5 137 L 385.5 135 Z " /><path fill="rgb(216,91,75)" stroke="rgb(216,91,75)" stroke-width="1" opacity="1" d="M 87.5 203 L 92 203.5 L 87.5 204 L 87.5 203 Z " /><path fill="rgb(216,91,75)" stroke="rgb(216,91,75)" stroke-width="1" opacity="1" d="M 420.5 203 L 425 203.5 L 420.5 204 L 420.5 203 Z " /><path fill="rgb(216,91,75)" stroke="rgb(216,91,75)" stroke-width="1" opacity="1" d="M 439.5 209 L 440.5 211 L 439.5 209 Z " /><path fill="rgb(216,91,75)" stroke="rgb(216,91,75)" stroke-width="1" opacity="1" d="M 214.5 215 L 215 217.5 L 214 217.5 L 214.5 215 Z " /><path fill="rgb(216,91,75)" stroke="rgb(216,91,75)" stroke-width="1" opacity="1" d="M 297.5 215 L 298 217.5 L 297 217.5 L 297.5 215 Z " /><path fill="rgb(216,91,75)" stroke="rgb(216,91,75)" stroke-width="1" opacity="1" d="M 65.5 216 L 64.5 218 L 65.5 216 Z " /><path fill="rgb(216,91,75)" stroke="rgb(216,91,75)" stroke-width="1" opacity="1" d="M 446.5 216 L 447.5 218 L 446.5 216 Z " /><path fill="rgb(216,91,75)" stroke="rgb(216,91,75)" stroke-width="1" opacity="1" d="M 63.5 219 L 62.5 221 L 63.5 219 Z " /><path fill="rgb(216,91,75)" stroke="rgb(216,91,75)" stroke-width="1" opacity="1" d="M 448.5 219 L 449.5 221 L 448.5 219 Z " /><path fill="rgb(216,91,75)" stroke="rgb(216,91,75)" stroke-width="1" opacity="1" d="M 58.5 233 L 59 240.5 L 58 240.5 L 58.5 233 Z " /><path fill="rgb(216,91,75)" stroke="rgb(216,91,75)" stroke-width="1" opacity="1" d="M 453.5 233 L 454 240.5 L 453 240.5 L 453.5 233 Z " /><path fill="rgb(216,91,75)" stroke="rgb(216,91,75)" stroke-width="1" opacity="1" d="M 65.5 257 L 70.5 263 L 65.5 257 Z " /><path fill="rgb(216,91,75)" stroke="rgb(216,91,75)" stroke-width="1" opacity="1" d="M 446.5 257 L 441.5 263 L 446.5 257 Z " /><path fill="rgb(216,91,75)" stroke="rgb(216,91,75)" stroke-width="1" opacity="1" d="M 438.5 264 L 437.5 266 L 438.5 264 Z " /><path fill="rgb(216,91,75)" stroke="rgb(216,91,75)" stroke-width="1" opacity="1" d="M 112.5 265 L 113 270.5 L 112 270.5 L 112.5 265 Z " /><path fill="rgb(216,91,75)" stroke="rgb(216,91,75)" stroke-width="1" opacity="1" d="M 102.5 267 L 103 269.5 L 102 269.5 L 102.5 267 Z " /><path fill="rgb(216,91,75)" stroke="rgb(216,91,75)" stroke-width="1" opacity="1" d="M 399.5 267 L 400 271.5 L 399 271.5 L 399.5 267 Z " /><path fill="rgb(216,91,75)" stroke="rgb(216,91,75)" stroke-width="1" opacity="1" d="M 409.5 267 L 410 269.5 L 409 269.5 L 409.5 267 Z " /><path fill="rgb(216,91,75)" stroke="rgb(216,91,75)" stroke-width="1" opacity="1" d="M 113.5 276 L 114 278.5 L 113 278.5 L 113.5 276 Z " /><path fill="rgb(216,91,75)" stroke="rgb(216,91,75)" stroke-width="1" opacity="1" d="M 114.5 282 L 115 284.5 L 114 284.5 L 114.5 282 Z " /><path fill="rgb(216,91,75)" stroke="rgb(216,91,75)" stroke-width="1" opacity="1" d="M 219.5 317 L 223 317.5 L 219.5 318 L 219.5 317 Z " /><path fill="rgb(216,91,75)" stroke="rgb(216,91,75)" stroke-width="1" opacity="1" d="M 289.5 317 L 293 317.5 L 289.5 318 L 289.5 317 Z " /><path fill="rgb(216,91,75)" stroke="rgb(216,91,75)" stroke-width="1" opacity="1" d="M 131.5 329 L 132.5 331 L 131.5 329 Z " /><path fill="rgb(216,91,75)" stroke="rgb(216,91,75)" stroke-width="1" opacity="1" d="M 251.5 333 L 261 333.5 L 251.5 334 L 251.5 333 Z " /><path fill="rgb(216,91,75)" stroke="rgb(216,91,75)" stroke-width="1" opacity="1" d="M 225.5 334 L 226.5 336 L 225.5 334 Z " /><path fill="rgb(216,91,75)" stroke="rgb(216,91,75)" stroke-width="1" opacity="1" d="M 286.5 334 L 285.5 336 L 286.5 334 Z " /><path fill="rgb(216,91,75)" stroke="rgb(216,91,75)" stroke-width="1" opacity="1" d="M 375.5 337 L 374.5 339 L 375.5 337 Z " /><path fill="rgb(216,91,75)" stroke="rgb(216,91,75)" stroke-width="1" opacity="1" d="M 139.5 341 L 140.5 343 L 139.5 341 Z " /><path fill="rgb(216,91,75)" stroke="rgb(216,91,75)" stroke-width="1" opacity="1" d="M 252.5 343 L 260 343.5 L 252.5 344 L 252.5 343 Z " /><path fill="rgb(216,91,75)" stroke="rgb(216,91,75)" stroke-width="1" opacity="1" d="M 142.5 345 L 143.5 347 L 142.5 345 Z " /><path fill="rgb(216,91,75)" stroke="rgb(216,91,75)" stroke-width="1" opacity="1" d="M 369.5 345 L 368.5 347 L 369.5 345 Z " /><path fill="rgb(216,91,75)" stroke="rgb(216,91,75)" stroke-width="1" opacity="1" d="M 146.5 350 L 150.5 355 L 146.5 350 Z " /><path fill="rgb(216,91,75)" stroke="rgb(216,91,75)" stroke-width="1" opacity="1" d="M 365.5 350 L 363.5 353 L 365.5 350 Z " /><path fill="rgb(216,91,75)" stroke="rgb(216,91,75)" stroke-width="1" opacity="1" d="M 158.5 362 L 161.5 366 L 158.5 362 Z " /><path fill="rgb(216,91,75)" stroke="rgb(216,91,75)" stroke-width="1" opacity="1" d="M 351.5 364 L 349.5 367 L 351.5 364 Z " /><path fill="rgb(216,91,75)" stroke="rgb(216,91,75)" stroke-width="1" opacity="1" d="M 166.5 369 L 167.5 371 L 166.5 369 Z " /><path fill="rgb(216,91,75)" stroke="rgb(216,91,75)" stroke-width="1" opacity="1" d="M 345.5 369 L 344.5 371 L 345.5 369 Z " /><path fill="rgb(216,91,75)" stroke="rgb(216,91,75)" stroke-width="1" opacity="1" d="M 170.5 372 L 171.5 374 L 170.5 372 Z " /><path fill="rgb(216,91,75)" stroke="rgb(216,91,75)" stroke-width="1" opacity="1" d="M 275.5 399 L 278 399.5 L 275.5 400 L 275.5 399 Z " /><path fill="rgb(216,91,75)" stroke="rgb(216,91,75)" stroke-width="1" opacity="1" d="M 243.5 400 L 248 400.5 L 243.5 401 L 243.5 400 Z " /><path fill="rgb(216,91,75)" stroke="rgb(216,91,75)" stroke-width="1" opacity="1" d="M 264.5 400 L 269 400.5 L 264.5 401 L 264.5 400 Z " /><path fill="rgb(216,91,75)" stroke="rgb(216,91,75)" stroke-width="1" opacity="1" d="M 195.5 406 L 196 408.5 L 195 408.5 L 195.5 406 Z " /><path fill="rgb(216,91,75)" stroke="rgb(216,91,75)" stroke-width="1" opacity="1" d="M 234.5 409 L 237 409.5 L 234.5 410 L 234.5 409 Z " /><path fill="rgb(216,91,75)" stroke="rgb(216,91,75)" stroke-width="1" opacity="1" d="M 275.5 409 L 278 409.5 L 275.5 410 L 275.5 409 Z " /><path fill="rgb(216,91,75)" stroke="rgb(216,91,75)" stroke-width="1" opacity="1" d="M 243.5 410 L 248 410.5 L 243.5 411 L 243.5 410 Z " /><path fill="rgb(216,91,75)" stroke="rgb(216,91,75)" stroke-width="1" opacity="1" d="M 264.5 410 L 269 410.5 L 264.5 411 L 264.5 410 Z " /><path fill="rgb(216,91,75)" stroke="rgb(216,91,75)" stroke-width="1" opacity="1" d="M 184.5 434 L 183.5 436 L 184.5 434 Z " /><path fill="rgb(216,91,75)" stroke="rgb(216,91,75)" stroke-width="1" opacity="1" d="M 328.5 435 L 329.5 437 L 328.5 435 Z " /><path fill="rgb(216,91,75)" stroke="rgb(216,91,75)" stroke-width="1" opacity="1" d="M 175.5 443 L 174.5 445 L 175.5 443 Z " /><path fill="rgb(216,91,75)" stroke="rgb(216,91,75)" stroke-width="1" opacity="1" d="M 336.5 443 L 337.5 445 L 336.5 443 Z " /><path fill="rgb(216,91,75)" stroke="rgb(216,91,75)" stroke-width="1" opacity="1" d="M 171.5 446 L 170.5 448 L 171.5 446 Z " /><path fill="rgb(216,91,75)" stroke="rgb(216,91,75)" stroke-width="1" opacity="1" d="M 148.5 455 L 151 455.5 L 148.5 456 L 148.5 455 Z " /><path fill="rgb(216,91,75)" stroke="rgb(216,91,75)" stroke-width="1" opacity="1" d="M 361.5 455 L 364 455.5 L 361.5 456 L 361.5 455 Z " /><path fill="rgb(216,91,75)" stroke="rgb(216,91,75)" stroke-width="1" opacity="1" d="M 121.5 456 L 141 456.5 L 121.5 457 L 121.5 456 Z " /><path fill="rgb(216,91,75)" stroke="rgb(216,91,75)" stroke-width="1" opacity="1" d="M 371.5 456 L 391 456.5 L 371.5 457 L 371.5 456 Z " /><path fill="rgb(216,91,75)" stroke="rgb(216,91,75)" stroke-width="1" opacity="1" d="M 113.5 457 L 116 457.5 L 113.5 458 L 113.5 457 Z " /><path fill="rgb(216,91,75)" stroke="rgb(216,91,75)" stroke-width="1" opacity="1" d="M 190.5 461 L 189.5 463 L 190.5 461 Z " /><path fill="rgb(216,91,75)" stroke="rgb(216,91,75)" stroke-width="1" opacity="1" d="M 321.5 461 L 322.5 463 L 321.5 461 Z " /><path fill="rgb(216,91,75)" stroke="rgb(216,91,75)" stroke-width="1" opacity="1" d="M 197.5 462 L 201.5 467 L 197.5 462 Z " /><path fill="rgb(216,91,75)" stroke="rgb(216,91,75)" stroke-width="1" opacity="1" d="M 314.5 462 L 310.5 467 L 314.5 462 Z " /><path fill="rgb(216,91,75)" stroke="rgb(216,91,75)" stroke-width="1" opacity="1" d="M 188.5 464 L 189 466.5 L 188 466.5 L 188.5 464 Z " /><path fill="rgb(216,91,75)" stroke="rgb(216,91,75)" stroke-width="1" opacity="1" d="M 323.5 464 L 324 466.5 L 323 466.5 L 323.5 464 Z " /><path fill="rgb(216,91,75)" stroke="rgb(216,91,75)" stroke-width="1" opacity="1" d="M 75.5 470 L 74.5 472 L 75.5 470 Z " /><path fill="rgb(216,91,75)" stroke="rgb(216,91,75)" stroke-width="1" opacity="1" d="M 191.5 470 L 195.5 475 L 191.5 470 Z " /><path fill="rgb(216,91,75)" stroke="rgb(216,91,75)" stroke-width="1" opacity="1" d="M 320.5 470 L 316.5 475 L 320.5 470 Z " /><path fill="rgb(216,91,75)" stroke="rgb(216,91,75)" stroke-width="1" opacity="1" d="M 223.5 477 L 226 477.5 L 223.5 478 L 223.5 477 Z " /><path fill="rgb(216,91,75)" stroke="rgb(216,91,75)" stroke-width="1" opacity="1" d="M 286.5 477 L 289 477.5 L 286.5 478 L 286.5 477 Z " /><path fill="rgb(216,91,75)" stroke="rgb(216,91,75)" stroke-width="1" opacity="1" d="M 63.5 478 L 61.5 481 L 63.5 478 Z " /><path fill="rgb(216,91,75)" stroke="rgb(216,91,75)" stroke-width="1" opacity="1" d="M 231.5 478 L 238 478.5 L 231.5 479 L 231.5 478 Z " /><path fill="rgb(216,91,75)" stroke="rgb(216,91,75)" stroke-width="1" opacity="1" d="M 274.5 478 L 281 478.5 L 274.5 479 L 274.5 478 Z " /><path fill="rgb(216,91,75)" stroke="rgb(216,91,75)" stroke-width="1" opacity="1" d="M 448.5 478 L 449.5 480 L 448.5 478 Z " /><path fill="rgb(216,91,75)" stroke="rgb(216,91,75)" stroke-width="1" opacity="1" d="M 240.5 479 L 241.5 481 L 240.5 479 Z " /><path fill="rgb(216,91,75)" stroke="rgb(216,91,75)" stroke-width="1" opacity="1" d="M 271.5 479 L 270.5 481 L 271.5 479 Z " /><path fill="rgb(216,91,75)" stroke="rgb(216,91,75)" stroke-width="1" opacity="1" d="M 57.5 483 L 48.5 493 L 57.5 483 Z " /><path fill="rgb(216,91,75)" stroke="rgb(216,91,75)" stroke-width="1" opacity="1" d="M 454.5 483 L 463.5 493 L 454.5 483 Z " /><path fill="rgb(216,91,75)" stroke="rgb(216,91,75)" stroke-width="1" opacity="1" d="M 231.5 488 L 239 488.5 L 231.5 489 L 231.5 488 Z " /><path fill="rgb(216,91,75)" stroke="rgb(216,91,75)" stroke-width="1" opacity="1" d="M 273.5 488 L 281 488.5 L 273.5 489 L 273.5 488 Z " /><path fill="rgb(216,91,75)" stroke="rgb(216,91,75)" stroke-width="1" opacity="1" d="M 45.5 496 L 44.5 498 L 45.5 496 Z " /><path fill="rgb(216,91,75)" stroke="rgb(216,91,75)" stroke-width="1" opacity="1" d="M 467.5 497 L 468.5 499 L 467.5 497 Z " /><path fill="rgb(0,0,0)" stroke="rgb(0,0,0)" stroke-width="1" opacity="0" d="M 0 0 L 512 0 L 512 512 L 0 512 L 0 0 Z M 117 3 L 112 5 Q 106 9 104 16 L 98 19 Q 93 22 91 29 Q 90 36 94 39 L 102 43 L 108 53 L 116 57 Q 122 58 126 55 Q 130 52 131 47 Q 134 42 140 41 Q 144 38 145 33 Q 146 25 142 22 L 132 16 L 127 6 L 117 3 Z M 205 3 Q 190 6 181 14 Q 165 26 160 49 Q 158 67 164 77 Q 173 93 185 107 Q 216 140 255 166 Q 286 150 309 125 Q 338 103 352 65 Q 354 37 341 24 Q 330 8 308 3 Q 271 1 257 21 Q 242 1 205 3 Z M 393 3 L 384 7 L 380 16 L 370 21 L 367 28 Q 366 34 369 38 Q 372 42 378 43 Q 382 46 383 52 L 391 57 Q 399 58 403 54 L 407 47 L 417 40 L 421 33 Q 422 26 419 24 Q 415 18 408 16 L 405 10 Q 402 3 393 3 Z M 49 47 L 45 49 L 38 59 L 31 63 L 25 71 Q 24 78 27 82 L 36 87 Q 40 90 41 96 Q 44 100 51 101 L 59 99 Q 63 96 65 90 L 73 85 L 78 79 Q 80 71 77 68 Q 73 61 66 60 L 63 54 Q 60 46 49 47 Z M 458 47 L 455 48 Q 448 52 446 60 L 441 62 L 434 70 Q 433 77 435 81 Q 438 85 445 87 L 449 95 Q 452 99 459 101 Q 465 101 469 98 L 473 91 L 483 84 L 487 78 Q 488 70 485 67 L 476 60 L 471 53 Q 468 46 458 47 Z M 127 96 L 123 98 L 117 107 L 109 112 L 104 119 Q 103 127 106 131 L 114 135 L 120 145 L 127 149 Q 133 150 137 148 Q 142 145 144 138 L 151 134 Q 156 132 157 126 L 156 117 Q 153 111 146 109 L 142 103 Q 139 94 127 96 Z M 378 96 L 376 97 Q 370 100 368 108 L 362 111 L 355 119 L 356 129 Q 359 134 367 136 L 370 143 L 378 149 Q 386 150 390 147 L 395 139 L 404 133 L 408 127 Q 409 118 406 115 L 398 109 L 392 101 Q 389 94 378 96 Z M 105 178 Q 99 182 102 193 Q 79 191 67 201 Q 50 211 48 236 Q 49 254 58 265 Q 71 283 104 280 Q 112 329 140 359 Q 159 380 186 395 Q 187 418 176 430 Q 167 440 153 445 Q 114 444 87 454 Q 66 462 51 476 Q 37 488 28 504 Q 27 509 32 510 L 481 510 L 484 507 L 483 502 L 471 486 Q 453 465 426 454 Q 401 444 364 446 Q 351 443 343 436 Q 325 424 326 395 Q 343 385 358 373 Q 397 341 408 280 Q 436 283 449 270 Q 462 260 464 239 Q 464 220 455 211 Q 443 191 410 193 Q 412 184 409 180 L 408 178 L 105 178 Z " /><path fill="rgb(1,1,1)" stroke="rgb(1,1,1)" stroke-width="1" opacity="0.9882352941176471" d="M 116.5 3 L 127 6 L 132 16 L 142 21.5 Q 145.833 24.667 145 32.5 Q 143.75 38.25 139.5 41 Q 133.75 42.25 131 46.5 Q 129.75 52.25 125.5 55 Q 122.214 57.714 115.5 57 L 108 52.5 L 101.5 43 L 94 38.5 Q 90.333 35.667 91 28.5 Q 92.536 22.036 97.5 19 L 104 16 Q 105.85 9.075 111.5 5 L 116.5 3 Z M 118 13 L 112 22 L 104 27 Q 101 27 101 32 L 108 35 L 116 46 Q 115 49 120 47 L 123 41 Q 126 35 134 33 L 135 30 L 127 24 L 122 17 L 118 13 Z " /><path fill="rgb(1,1,1)" stroke="rgb(1,1,1)" stroke-width="1" opacity="0.9882352941176471" d="M 204.5 3 Q 241.507 0.993 256.5 21 Q 270.761 0.761 307.5 3 Q 329.516 7.984 341 23.5 Q 353.985 36.515 352 64.5 Q 338.131 102.631 308.5 125 Q 285.7 149.7 254.5 166 Q 216.477 139.523 185 106.5 Q 172.729 93.271 164 76.5 Q 158 66.5 160 48.5 Q 164.615 25.615 180.5 14 Q 189.875 5.875 204.5 3 Z M 206 13 Q 194 16 187 22 Q 174 31 170 50 Q 168 62 172 70 Q 181 89 195 103 Q 223 131 256 154 Q 281 137 303 117 Q 329 97 342 64 Q 344 40 333 30 Q 324 17 307 13 Q 280 10 269 23 L 261 33 Q 260 36 254 35 L 248 28 Q 237 10 206 13 Z " /><path fill="rgb(1,1,1)" stroke="rgb(1,1,1)" stroke-width="1" opacity="0.9882352941176471" d="M 392.5 3 Q 401.6 3.4 405 9.5 L 408 16 Q 414.925 17.85 419 23.5 Q 421.571 26.429 421 32.5 L 416.5 40 L 407 46.5 L 402.5 54 Q 399 58 390.5 57 L 383 51.5 Q 381.75 45.75 377.5 43 Q 371.75 41.75 369 37.5 Q 366.286 34.214 367 27.5 L 370 21 L 380 16 L 384 7 L 392.5 3 Z M 394 13 L 387 23 L 380 27 Q 376 27 377 32 L 384 35 Q 389 38 391 46 Q 392 48 396 47 L 399 41 Q 402 35 410 33 L 411 30 L 403 24 L 397 16 L 394 13 Z " /><path fill="rgb(1,1,1)" stroke="rgb(1,1,1)" stroke-width="1" opacity="0.9882352941176471" d="M 48.5 47 Q 59.95 46.05 63 53.5 L 66 60 Q 73.281 61.375 77 67.5 Q 79.5 71 78 78.5 L 72.5 85 L 65 89.5 Q 63.464 95.964 58.5 99 L 50.5 101 Q 43.875 100.125 41 95.5 Q 39.75 89.75 35.5 87 L 27 81.5 Q 23.833 78.167 25 70.5 L 30.5 63 L 38 58.5 L 44.5 49 L 48.5 47 Z M 51 57 L 46 65 L 37 71 Q 34 72 35 76 L 42 79 Q 47 82 49 90 L 53 91 L 57 84 Q 60 79 67 77 L 69 74 Q 66 69 61 68 L 55 60 Q 55 57 51 57 Z " /><path fill="rgb(1,1,1)" stroke="rgb(1,1,1)" stroke-width="1" opacity="0.9882352941176471" d="M 457.5 47 Q 468.269 45.731 471 52.5 L 475.5 60 L 485 66.5 Q 488.167 69.833 487 77.5 L 482.5 84 L 473 90.5 L 468.5 98 Q 465.287 101.287 458.5 101 Q 452.036 99.464 449 94.5 L 444.5 87 Q 438.036 85.464 435 80.5 Q 432.5 77 434 69.5 L 440.5 62 L 446 60 Q 448.15 52.425 454.5 48 L 457.5 47 Z M 460 57 L 454 66 L 447 70 L 443 75 L 451 79 Q 455 82 457 89 Q 458 92 462 91 L 465 85 Q 468 79 476 77 Q 478 76 477 73 L 470 68 L 463 59 L 460 57 Z " /><path fill="rgb(1,1,1)" stroke="rgb(1,1,1)" stroke-width="1" opacity="0.9882352941176471" d="M 126.5 96 Q 139.357 94.143 142 102.5 L 145.5 109 Q 152.679 110.821 156 116.5 L 157 125.5 Q 155.625 131.625 150.5 134 L 144 137.5 Q 142.179 144.679 136.5 148 Q 133.333 150.333 126.5 149 L 120 144.5 L 113.5 135 L 106 130.5 Q 102.667 126.833 104 118.5 L 108.5 112 L 117 106.5 L 122.5 98 L 126.5 96 Z M 128 106 L 125 113 Q 121 118 114 120 L 113 123 L 114 125 L 121 128 L 128 138 Q 127 141 132 139 L 136 132 L 145 126 Q 148 126 147 122 L 139 116 L 134 109 Q 133 105 128 106 Z " /><path fill="rgb(1,1,1)" stroke="rgb(1,1,1)" stroke-width="1" opacity="0.9882352941176471" d="M 377.5 96 Q 388.636 94.364 392 100.5 L 397.5 109 L 406 114.5 Q 409.333 118.167 408 126.5 L 403.5 133 L 395 138.5 L 389.5 147 Q 385.833 150.333 377.5 149 L 370 142.5 L 366.5 136 Q 359.321 134.179 356 128.5 L 355 118.5 L 361.5 111 L 368 107.5 Q 369.821 100.321 375.5 97 L 377.5 96 Z M 381 106 L 375 115 L 368 119 Q 365 119 365 124 L 374 129 L 378 137 Q 379 140 384 139 L 387 133 Q 391 127 398 125 L 399 123 L 398 120 L 392 117 L 384 108 Q 385 104 381 106 Z " /><path fill="rgb(1,1,1)" stroke="rgb(1,1,1)" stroke-width="1" opacity="0.9882352941176471" d="M 104.5 178 L 407.5 178 L 409 179.5 Q 412 184.062 410 193 Q 442.666 191.059 455 210.5 Q 463.799 220.201 464 238.5 Q 461.895 259.895 448.5 270 Q 435.547 282.807 408 280 Q 397.25 340.5 357.5 373 Q 343.472 385.472 326 394.5 Q 325.362 424.138 342.5 436 Q 350.808 443.192 363.5 446 Q 400.734 443.766 425.5 454 Q 452.984 465.016 471 485.5 L 483 501.5 L 484 506.5 L 480.5 510 L 31.5 510 Q 27.25 509.25 28 503.5 Q 37.167 487.667 50.5 476 Q 65.738 462.238 86.5 454 Q 113.609 443.609 152.5 445 Q 167.355 440.355 176 429.5 Q 187.25 418.25 186 394.5 Q 159.12 380.38 140 358.5 Q 111.666 328.985 104 280 Q 70.926 282.794 58 264.5 Q 48.741 254.259 48 235.5 Q 50.435 211.435 66.5 201 Q 79.126 191.352 102 193 Q 99.5 182.125 104.5 178 Z M 112 188 L 112 271 L 113 272 L 114 285 Q 123 325 146 351 Q 179 392 244 401 Q 315 402 350 367 Q 390 335 400 272 L 400 189 L 400 188 L 112 188 Z M 88 203 Q 78 204 73 209 Q 61 217 58 234 Q 58 249 65 258 Q 75 274 103 270 L 102 267 L 102 204 L 102 203 L 88 203 Z M 410 203 L 410 267 L 409 270 Q 431 273 442 263 Q 451 255 454 241 Q 454 226 448 218 Q 438 201 410 203 Z M 196 399 Q 195 423 183 437 Q 174 447 160 453 L 148 456 Q 120 454 100 460 Q 74 467 58 483 L 43 500 L 469 500 L 464 493 Q 448 474 425 464 Q 398 453 360 455 Q 345 451 336 443 Q 317 429 316 399 Q 294 409 264 411 Q 223 412 196 399 Z " /><path fill="rgb(1,1,1)" stroke="rgb(1,1,1)" stroke-width="1" opacity="0.9882352941176471" d="M 158.5 211 Q 168.398 218.102 184.5 219 Q 200.372 218.372 209.5 211 L 214 213.5 Q 215.25 219.75 211.5 221 Q 199 229.5 176.5 228 Q 162.52 225.98 154 218.5 L 155 212 L 158.5 211 Z " /><path fill="rgb(1,1,1)" stroke="rgb(1,1,1)" stroke-width="1" opacity="0.9882352941176471" d="M 302.5 211 Q 311.872 218.628 328.5 219 Q 343.853 217.853 353.5 211 L 357 212 L 358 218.5 Q 345.835 229.835 320.5 228 Q 306.52 225.98 298 218.5 Q 296.75 213.25 299.5 212 L 302.5 211 Z " /><path fill="rgb(1,1,1)" stroke="rgb(1,1,1)" stroke-width="1" opacity="0.9882352941176471" d="M 218.5 318 Q 224.75 316.75 226 320.5 L 232.5 328 Q 242.5 335 260.5 334 Q 277.892 332.392 286 321.5 L 288.5 318 Q 293.75 316.75 295 319.5 L 296 322.5 Q 293.417 329.917 287.5 334 Q 274.15 346.15 245.5 343 Q 228.101 339.899 219 328.5 L 216 321.5 L 218.5 318 Z " /><path fill="rgb(1,1,1)" stroke="rgb(1,1,1)" stroke-width="1" opacity="0.9882352941176471" d="M 191.5 461 L 195.5 461 Q 203.827 470.673 216.5 476 Q 225.876 479.624 239.5 479 L 242 481.5 L 243 483.5 L 240.5 488 Q 205.016 488.741 190 470 L 189 463.5 L 191.5 461 Z " /><path fill="rgb(1,1,1)" stroke="rgb(1,1,1)" stroke-width="1" opacity="0.9882352941176471" d="M 316.5 461 Q 322 460 323 463.5 L 322 470 Q 306.984 488.741 271.5 488 L 269 483.5 L 272.5 479 Q 303.84 479.34 316.5 461 Z " /><path fill="rgb(251,197,182)" stroke="rgb(251,197,182)" stroke-width="1" opacity="1" d="M 130.5 188 L 131 267.5 L 130 267.5 L 130.5 188 Z " /><path fill="rgb(251,197,182)" stroke="rgb(251,197,182)" stroke-width="1" opacity="1" d="M 212.5 211 L 213.5 213 L 212.5 211 Z " /><path fill="rgb(251,197,182)" stroke="rgb(251,197,182)" stroke-width="1" opacity="1" d="M 299.5 211 L 298.5 213 L 299.5 211 Z " /><path fill="rgb(251,197,182)" stroke="rgb(251,197,182)" stroke-width="1" opacity="1" d="M 399.5 259 L 400 262.5 L 399 262.5 L 399.5 259 Z " /><path fill="rgb(251,197,182)" stroke="rgb(251,197,182)" stroke-width="1" opacity="1" d="M 131.5 273 L 132 276.5 L 131 276.5 L 131.5 273 Z " /><path fill="rgb(251,197,182)" stroke="rgb(251,197,182)" stroke-width="1" opacity="1" d="M 132.5 280 L 133 283.5 L 132 283.5 L 132.5 280 Z " /><path fill="rgb(251,197,182)" stroke="rgb(251,197,182)" stroke-width="1" opacity="1" d="M 133.5 286 L 134 288.5 L 133 288.5 L 133.5 286 Z " /><path fill="rgb(251,197,182)" stroke="rgb(251,197,182)" stroke-width="1" opacity="1" d="M 148.5 328 L 149.5 330 L 148.5 328 Z " /><path fill="rgb(251,197,182)" stroke="rgb(251,197,182)" stroke-width="1" opacity="1" d="M 288.5 333 L 287.5 335 L 288.5 333 Z " /><path fill="rgb(251,197,182)" stroke="rgb(251,197,182)" stroke-width="1" opacity="1" d="M 154.5 338 L 155.5 340 L 154.5 338 Z " /><path fill="rgb(251,197,182)" stroke="rgb(251,197,182)" stroke-width="1" opacity="1" d="M 156.5 341 L 157.5 343 L 156.5 341 Z " /><path fill="rgb(251,197,182)" stroke="rgb(251,197,182)" stroke-width="1" opacity="1" d="M 370.5 343 L 369.5 345 L 370.5 343 Z " /><path fill="rgb(251,197,182)" stroke="rgb(251,197,182)" stroke-width="1" opacity="1" d="M 159.5 345 L 160.5 347 L 159.5 345 Z " /><path fill="rgb(251,197,182)" stroke="rgb(251,197,182)" stroke-width="1" opacity="1" d="M 366.5 348 L 365.5 350 L 366.5 348 Z " /><path fill="rgb(251,197,182)" stroke="rgb(251,197,182)" stroke-width="1" opacity="1" d="M 162.5 349 L 164.5 352 L 162.5 349 Z " /><path fill="rgb(251,197,182)" stroke="rgb(251,197,182)" stroke-width="1" opacity="1" d="M 167.5 355 L 180.5 369 L 167.5 355 Z " /><path fill="rgb(251,197,182)" stroke="rgb(251,197,182)" stroke-width="1" opacity="1" d="M 348.5 366 L 347.5 368 L 348.5 366 Z " /><path fill="rgb(251,197,182)" stroke="rgb(251,197,182)" stroke-width="1" opacity="1" d="M 343.5 370 L 342.5 372 L 343.5 370 Z " /><path fill="rgb(251,197,182)" stroke="rgb(251,197,182)" stroke-width="1" opacity="1" d="M 184.5 371 L 186.5 374 L 184.5 371 Z " /><path fill="rgb(251,197,182)" stroke="rgb(251,197,182)" stroke-width="1" opacity="1" d="M 189.5 375 L 190.5 377 L 189.5 375 Z " /><path fill="rgb(251,197,182)" stroke="rgb(251,197,182)" stroke-width="1" opacity="1" d="M 193.5 378 L 194.5 380 L 193.5 378 Z " /><path fill="rgb(251,197,182)" stroke="rgb(251,197,182)" stroke-width="1" opacity="1" d="M 196.5 380 L 197.5 382 L 196.5 380 Z " /><path fill="rgb(251,197,182)" stroke="rgb(251,197,182)" stroke-width="1" opacity="1" d="M 199.5 382 L 200.5 384 L 199.5 382 Z " /><path fill="rgb(251,197,182)" stroke="rgb(251,197,182)" stroke-width="1" opacity="1" d="M 204.5 385 L 205.5 387 L 204.5 385 Z " /><path fill="rgb(251,197,182)" stroke="rgb(251,197,182)" stroke-width="1" opacity="1" d="M 213.5 407 L 214 410.5 L 213 410.5 L 213.5 407 Z " /><path fill="rgb(251,197,182)" stroke="rgb(251,197,182)" stroke-width="1" opacity="1" d="M 208.5 423 L 209 424.5 L 207 425.5 L 208.5 423 Z " /><path fill="rgb(251,197,182)" stroke="rgb(251,197,182)" stroke-width="1" opacity="1" d="M 204.5 430 L 203.5 432 L 204.5 430 Z " /><path fill="rgb(251,197,182)" stroke="rgb(251,197,182)" stroke-width="1" opacity="1" d="M 201.5 434 L 197.5 439 L 201.5 434 Z " /><path fill="rgb(251,197,182)" stroke="rgb(251,197,182)" stroke-width="1" opacity="1" d="M 329.5 437 L 331.5 440 L 329.5 437 Z " /><path fill="rgb(251,197,182)" stroke="rgb(251,197,182)" stroke-width="1" opacity="1" d="M 194.5 440 L 193.5 442 L 194.5 440 Z " /><path fill="rgb(251,197,182)" stroke="rgb(251,197,182)" stroke-width="1" opacity="1" d="M 333.5 441 L 335.5 444 L 333.5 441 Z " /><path fill="rgb(251,197,182)" stroke="rgb(251,197,182)" stroke-width="1" opacity="1" d="M 188.5 444 L 187.5 446 L 185.5 447 L 186.5 445 L 188.5 444 Z " /><path fill="rgb(251,197,182)" stroke="rgb(251,197,182)" stroke-width="1" opacity="1" d="M 171.5 450 L 174 450.5 L 171.5 451 L 171.5 450 Z " /><path fill="rgb(251,197,182)" stroke="rgb(251,197,182)" stroke-width="1" opacity="1" d="M 164.5 451 L 168 451.5 L 164.5 452 L 164.5 451 Z " /><path fill="rgb(251,197,182)" stroke="rgb(251,197,182)" stroke-width="1" opacity="1" d="M 99.5 464 L 98.5 466 L 96.5 467 L 97.5 465 L 99.5 464 Z " /><path fill="rgb(251,197,182)" stroke="rgb(251,197,182)" stroke-width="1" opacity="1" d="M 202.5 466 L 203.5 468 L 202.5 466 Z " /><path fill="rgb(251,197,182)" stroke="rgb(251,197,182)" stroke-width="1" opacity="1" d="M 309.5 466 L 308.5 468 L 309.5 466 Z " /><path fill="rgb(251,197,182)" stroke="rgb(251,197,182)" stroke-width="1" opacity="1" d="M 92.5 468 L 91.5 470 L 92.5 468 Z " /><path fill="rgb(251,197,182)" stroke="rgb(251,197,182)" stroke-width="1" opacity="1" d="M 189.5 469 L 191.5 472 L 189.5 469 Z " /><path fill="rgb(251,197,182)" stroke="rgb(251,197,182)" stroke-width="1" opacity="1" d="M 322.5 469 L 321.5 471 L 322.5 469 Z " /><path fill="rgb(251,197,182)" stroke="rgb(251,197,182)" stroke-width="1" opacity="1" d="M 89.5 470 L 88.5 472 L 89.5 470 Z " /><path fill="rgb(251,197,182)" stroke="rgb(251,197,182)" stroke-width="1" opacity="1" d="M 85.5 473 L 84.5 475 L 85.5 473 Z " /><path fill="rgb(251,197,182)" stroke="rgb(251,197,182)" stroke-width="1" opacity="1" d="M 81.5 476 L 79.5 479 L 81.5 476 Z " /><path fill="rgb(251,197,182)" stroke="rgb(251,197,182)" stroke-width="1" opacity="1" d="M 75.5 481 L 69.5 488 L 75.5 481 Z " /><path fill="rgb(251,197,182)" stroke="rgb(251,197,182)" stroke-width="1" opacity="1" d="M 451.5 481 L 452.5 483 L 451.5 481 Z " /><path fill="rgb(251,197,182)" stroke="rgb(251,197,182)" stroke-width="1" opacity="1" d="M 66.5 491 L 63.5 495 L 66.5 491 Z " /><path fill="rgb(251,197,182)" stroke="rgb(251,197,182)" stroke-width="1" opacity="1" d="M 463.5 493 L 464.5 495 L 463.5 493 Z " /><path fill="rgb(251,197,182)" stroke="rgb(251,197,182)" stroke-width="1" opacity="1" d="M 62.5 496 L 60.5 499 L 62.5 496 Z " /><path fill="rgb(255,205,190)" stroke="rgb(255,205,190)" stroke-width="1" opacity="1" d="M 158.5 343 L 159.5 345 L 158.5 343 Z " /><path fill="rgb(255,205,190)" stroke="rgb(255,205,190)" stroke-width="1" opacity="1" d="M 161.5 347 L 162.5 349 L 161.5 347 Z " /><path fill="rgb(255,205,190)" stroke="rgb(255,205,190)" stroke-width="1" opacity="1" d="M 165.5 352 L 167.5 355 L 165.5 352 Z " /><path fill="rgb(255,205,190)" stroke="rgb(255,205,190)" stroke-width="1" opacity="1" d="M 181.5 368 L 183.5 371 L 181.5 368 Z " /><path fill="rgb(255,205,190)" stroke="rgb(255,205,190)" stroke-width="1" opacity="1" d="M 187.5 373 L 188.5 375 L 187.5 373 Z " /><path fill="rgb(255,205,190)" stroke="rgb(255,205,190)" stroke-width="1" opacity="1" d="M 206.5 428 L 205.5 430 L 206.5 428 Z " /><path fill="rgb(255,205,190)" stroke="rgb(255,205,190)" stroke-width="1" opacity="1" d="M 203.5 432 L 202.5 434 L 203.5 432 Z " /><path fill="rgb(255,205,190)" stroke="rgb(255,205,190)" stroke-width="1" opacity="1" d="M 196.5 439 L 195.5 441 L 196.5 439 Z " /><path fill="rgb(255,205,190)" stroke="rgb(255,205,190)" stroke-width="1" opacity="1" d="M 192.5 442 L 191.5 444 L 192.5 442 Z " /><path fill="rgb(255,205,190)" stroke="rgb(255,205,190)" stroke-width="1" opacity="1" d="M 320.5 471 L 318.5 474 L 320.5 471 Z " /><path fill="rgb(255,205,190)" stroke="rgb(255,205,190)" stroke-width="1" opacity="1" d="M 192.5 472 L 193.5 474 L 192.5 472 Z " /><path fill="rgb(255,205,190)" stroke="rgb(255,205,190)" stroke-width="1" opacity="1" d="M 83.5 475 L 82.5 477 L 83.5 475 Z " /><path fill="rgb(255,205,190)" stroke="rgb(255,205,190)" stroke-width="1" opacity="1" d="M 78.5 479 L 67.5 491 L 78.5 479 Z " /><path fill="rgb(255,205,190)" stroke="rgb(255,205,190)" stroke-width="1" opacity="1" d="M 453.5 483 L 454.5 485 L 453.5 483 Z " /><path fill="rgb(255,205,190)" stroke="rgb(255,205,190)" stroke-width="1" opacity="1" d="M 64.5 494 L 63.5 496 L 64.5 494 Z " /><path fill="rgb(255,206,191)" stroke="rgb(255,206,191)" stroke-width="1" opacity="1" d="M 131 188 L 399.5 188 L 400 188.5 L 400 258.5 Q 394.485 330.985 350.5 365 Q 315.089 402.089 240.5 400 Q 194.885 387.115 168 355.5 Q 144.105 329.395 134 289.5 L 132 271.5 L 131 270.5 L 131 188 Z M 156 211 Q 152 213 153 219 Q 162 227 179 229 Q 203 230 215 219 Q 216 213 213 211 L 207 211 Q 200 217 189 218 L 175 217 Q 166 216 162 211 L 156 211 Z M 300 211 Q 296 212 297 219 Q 306 227 323 229 Q 347 230 359 219 Q 360 213 357 211 L 351 211 Q 344 217 333 218 L 319 217 Q 310 216 306 211 L 300 211 Z M 219 317 L 216 320 Q 215 326 218 329 Q 228 342 249 344 Q 274 346 288 335 Q 297 333 296 320 Q 295 316 289 317 L 285 322 Q 278 331 263 333 Q 243 335 233 327 L 227 321 Q 226 316 219 317 Z " /><path fill="rgb(255,206,191)" stroke="rgb(255,206,191)" stroke-width="1" opacity="1" d="M 313.5 400 Q 319.125 399.125 316 410.5 Q 320.738 432.262 335.5 444 Q 345.25 452.25 359.5 456 Q 394.824 454.176 419.5 463 Q 445.265 472.735 462 491.5 L 467 499 L 61 498.5 L 81.5 477 Q 96.939 463.939 118.5 457 L 146.5 457 Q 161.813 450.813 181.5 449 Q 195.594 443.594 204 432.5 Q 213.722 423.131 214 406 Q 237.573 413.661 272.5 411 Q 296 408.5 313.5 400 Z M 192 460 L 189 461 L 188 464 L 189 470 Q 202 485 228 489 Q 239 491 243 487 Q 244 481 242 479 Q 228 479 217 475 Q 204 470 196 460 L 192 460 Z M 317 460 Q 302 479 270 479 Q 268 481 269 487 L 273 489 Q 304 490 319 474 L 324 468 L 323 461 L 317 460 Z " /><path fill="rgb(250,182,140)" stroke="rgb(250,182,140)" stroke-width="1" opacity="1" d="M 116 14 Q 120.8 12.125 120 15.5 L 127.5 25 L 134 28 Q 135 31.813 132.5 33 Q 126.036 34.536 123 39.5 L 118.5 47 L 116 45.5 Q 113.75 38.75 108.5 35 L 102 31.5 Q 100.5 27.125 103.5 28 L 113 20.5 L 116 14 Z " /><path fill="rgb(250,182,140)" stroke="rgb(250,182,140)" stroke-width="1" opacity="1" d="M 392 14 Q 396.8 12.125 396 15.5 L 404.5 26 L 410 28 Q 411 31.813 408.5 33 Q 402.036 34.536 399 39.5 L 394.5 47 L 391 44.5 Q 389.464 38.036 384.5 35 L 378 31.5 Q 376.5 27.125 379.5 28 L 389 20.5 L 392 14 Z " /><path fill="rgb(250,182,140)" stroke="rgb(250,182,140)" stroke-width="1" opacity="1" d="M 51.5 57 L 54 58 Q 55.375 65.281 61.5 69 L 68 72 Q 68.75 75.833 65.5 77 L 57 82.5 L 52.5 90 L 49 88.5 Q 47.464 82.036 42.5 79 L 35 74.5 L 37.5 71 L 46 65.5 L 51.5 57 Z " /><path fill="rgb(250,182,140)" stroke="rgb(250,182,140)" stroke-width="1" opacity="1" d="M 460.5 57 L 468.5 68 L 477 73.5 L 475.5 76 L 466 82.5 L 461.5 90 Q 457.5 90.5 457 87.5 L 452.5 80 L 444 74.5 Q 442.875 71.167 445.5 72 L 456 63.5 L 458 58 L 460.5 57 Z " /><path fill="rgb(250,182,140)" stroke="rgb(250,182,140)" stroke-width="1" opacity="1" d="M 129.5 106 L 133 107.5 Q 134.821 114.679 140.5 118 L 147 121.5 L 145.5 125 Q 138.321 126.821 135 132.5 L 131.5 139 L 128 137.5 L 121.5 128 L 114 123.5 L 115.5 120 L 125 113.5 L 129.5 106 Z " /><path fill="rgb(250,182,140)" stroke="rgb(250,182,140)" stroke-width="1" opacity="1" d="M 380.5 106 L 384 107.5 L 390.5 117 L 398 121.5 L 396.5 125 L 387 131.5 L 382.5 139 L 379 137.5 Q 377.179 130.321 371.5 127 L 365 123.5 L 366.5 120 Q 373.679 118.179 377 112.5 L 380.5 106 Z " /><path fill="rgb(250,182,140)" stroke="rgb(250,182,140)" stroke-width="1" opacity="1" d="M 112 188 L 129.5 188 L 130 188.5 L 130 267.5 Q 138.301 335.199 180.5 369 Q 200.523 387.477 229 397.5 L 226.5 398 Q 178.968 386.532 151 355.5 Q 126.715 330.285 116 291.5 Q 112.211 280.789 113 265.5 L 112 264.5 L 112 188 Z " /><path fill="rgb(250,182,140)" stroke="rgb(250,182,140)" stroke-width="1" opacity="1" d="M 92.5 203 Q 100 201 102 204.5 L 102 269.5 L 101.5 270 L 86.5 270 Q 71.354 266.646 64 255.5 Q 56.941 247.059 59 229.5 Q 62.376 216.876 71.5 210 Q 79.38 203.88 92.5 203 Z " /><path fill="rgb(250,182,140)" stroke="rgb(250,182,140)" stroke-width="1" opacity="1" d="M 411.5 203 Q 436.078 201.922 446 215.5 Q 455.333 223.667 453 243.5 Q 449.75 257.25 439.5 264 Q 429.588 272.4 410 270 L 410 204.5 L 411.5 203 Z " /><path fill="rgb(250,182,140)" stroke="rgb(250,182,140)" stroke-width="1" opacity="1" d="M 154.5 219 L 155.5 221 L 154.5 219 Z " /><path fill="rgb(250,182,140)" stroke="rgb(250,182,140)" stroke-width="1" opacity="1" d="M 213.5 219 L 212.5 221 L 213.5 219 Z " /><path fill="rgb(250,182,140)" stroke="rgb(250,182,140)" stroke-width="1" opacity="1" d="M 298.5 219 L 299.5 221 L 298.5 219 Z " /><path fill="rgb(250,182,140)" stroke="rgb(250,182,140)" stroke-width="1" opacity="1" d="M 357.5 219 L 356.5 221 L 357.5 219 Z " /><path fill="rgb(250,182,140)" stroke="rgb(250,182,140)" stroke-width="1" opacity="1" d="M 180.5 228 L 189 228.5 L 180.5 229 L 180.5 228 Z " /><path fill="rgb(250,182,140)" stroke="rgb(250,182,140)" stroke-width="1" opacity="1" d="M 323.5 228 L 332 228.5 L 323.5 229 L 323.5 228 Z " /><path fill="rgb(250,182,140)" stroke="rgb(250,182,140)" stroke-width="1" opacity="1" d="M 399.5 263 L 400 266.5 L 399 266.5 L 399.5 263 Z " /><path fill="rgb(250,182,140)" stroke="rgb(250,182,140)" stroke-width="1" opacity="1" d="M 227.5 322 L 228.5 324 L 227.5 322 Z " /><path fill="rgb(250,182,140)" stroke="rgb(250,182,140)" stroke-width="1" opacity="1" d="M 284.5 322 L 280.5 327 L 284.5 322 Z " /><path fill="rgb(250,182,140)" stroke="rgb(250,182,140)" stroke-width="1" opacity="1" d="M 230.5 325 L 231.5 327 L 230.5 325 Z " /><path fill="rgb(250,182,140)" stroke="rgb(250,182,140)" stroke-width="1" opacity="1" d="M 220.5 330 L 223.5 334 L 220.5 330 Z " /><path fill="rgb(250,182,140)" stroke="rgb(250,182,140)" stroke-width="1" opacity="1" d="M 291.5 330 L 289.5 333 L 291.5 330 Z " /><path fill="rgb(250,182,140)" stroke="rgb(250,182,140)" stroke-width="1" opacity="1" d="M 249.5 343 L 252 343.5 L 249.5 344 L 249.5 343 Z " /><path fill="rgb(250,182,140)" stroke="rgb(250,182,140)" stroke-width="1" opacity="1" d="M 260.5 343 L 263 343.5 L 260.5 344 L 260.5 343 Z " /><path fill="rgb(250,182,140)" stroke="rgb(250,182,140)" stroke-width="1" opacity="1" d="M 362.5 353 L 352.5 364 L 362.5 353 Z " /><path fill="rgb(250,182,140)" stroke="rgb(250,182,140)" stroke-width="1" opacity="1" d="M 196.5 399 L 215 405.5 Q 210.543 428.043 195.5 440 Q 184.907 449.907 165.5 451 L 165.5 450 Q 177.75 444.75 185 434.5 Q 196.087 422.087 196.5 399 Z " /><path fill="rgb(250,182,140)" stroke="rgb(250,182,140)" stroke-width="1" opacity="1" d="M 248.5 400 L 255 400.5 L 248.5 401 L 248.5 400 Z " /><path fill="rgb(250,182,140)" stroke="rgb(250,182,140)" stroke-width="1" opacity="1" d="M 257.5 400 L 264 400.5 L 257.5 401 L 257.5 400 Z " /><path fill="rgb(250,182,140)" stroke="rgb(250,182,140)" stroke-width="1" opacity="1" d="M 240.5 410 L 243 410.5 L 240.5 411 L 240.5 410 Z " /><path fill="rgb(250,182,140)" stroke="rgb(250,182,140)" stroke-width="1" opacity="1" d="M 269.5 410 L 272 410.5 L 269.5 411 L 269.5 410 Z " /><path fill="rgb(250,182,140)" stroke="rgb(250,182,140)" stroke-width="1" opacity="1" d="M 141.5 456 L 145 456.5 L 141.5 457 L 141.5 456 Z " /><path fill="rgb(250,182,140)" stroke="rgb(250,182,140)" stroke-width="1" opacity="1" d="M 367.5 456 L 371 456.5 L 367.5 457 L 367.5 456 Z " /><path fill="rgb(250,182,140)" stroke="rgb(250,182,140)" stroke-width="1" opacity="1" d="M 109.5 458 L 113 458.5 Q 86.006 468.006 69 487.5 L 60 498.5 L 469 499.5 L 43.5 500 L 46 496.5 L 60.5 481 Q 79.686 464.186 109.5 458 Z " /><path fill="rgb(250,182,140)" stroke="rgb(250,182,140)" stroke-width="1" opacity="1" d="M 196.5 475 L 197.5 477 L 196.5 475 Z " /><path fill="rgb(250,182,140)" stroke="rgb(250,182,140)" stroke-width="1" opacity="1" d="M 315.5 475 L 314.5 477 L 315.5 475 Z " /><path fill="rgb(250,182,140)" stroke="rgb(250,182,140)" stroke-width="1" opacity="1" d="M 228.5 488 L 231 488.5 L 228.5 489 L 228.5 488 Z " /><path fill="rgb(250,182,140)" stroke="rgb(250,182,140)" stroke-width="1" opacity="1" d="M 281.5 488 L 284 488.5 L 281.5 489 L 281.5 488 Z " /><path fill="rgb(250,182,140)" stroke="rgb(250,182,140)" stroke-width="1" opacity="1" d="M 465.5 495 L 466.5 497 L 465.5 495 Z " /></svg>