<svg width="512" height="512" version="1.1" xmlns="http://www.w3.org/2000/svg" desc="Created with imagetracer.js version 1.2.6" ><path fill="rgb(240,125,124)" stroke="rgb(240,125,124)" stroke-width="1" opacity="0.9921568627450981" d="M 106.5 24 Q 121.883 21.617 126 30.5 Q 129.833 35.167 128 45.5 L 121.5 54 Q 117.5 53.908 120 64 L 207.5 64 L 208 64.5 L 208 88 L 256 88 L 256 200 L 168.5 200 L 168 199.5 L 168 168 L 120 168 L 120 271.5 L 119.5 272 L 104 272 L 104 54.5 L 102.5 54 Q 93.617 49.883 96 34.5 L 102.5 26 L 106.5 24 Z " /><path fill="rgb(240,125,124)" stroke="rgb(240,125,124)" stroke-width="1" opacity="0.9921568627450981" d="M 86.5 280 L 93.5 282 L 125 313.5 L 114.5 325 L 97.5 309 L 97 310.5 Q 103.636 338.364 123.5 353 Q 137.368 364.632 159.5 368 L 216 368 L 216 383.5 L 215.5 384 L 161.5 384 Q 121.747 379.253 102 354.5 Q 87.447 338.553 81.5 314 L 70.5 332 L 58 323.5 L 82 282 L 86.5 280 Z " /><path fill="rgb(240,125,124)" stroke="rgb(240,125,124)" stroke-width="1" opacity="0.9921568627450981" d="M 376.5 322 L 406 372 L 428.5 359 L 437.5 358 L 447 363.5 L 481 418.5 L 483 427.5 Q 482.311 435.311 477.5 439 L 456 452.5 L 457 456 Q 466.227 456.068 470 462.5 Q 473.833 467.167 472 477.5 L 465.5 486 Q 460.833 489.833 450.5 488 L 442 481.5 Q 438.167 476.833 440 466.5 L 442 463.5 L 371 344.5 L 370 340.5 Q 377.593 335.593 376.5 322 Z " /><path fill="rgb(14,197,247)" stroke="rgb(14,197,247)" stroke-width="1" opacity="0.6784313725490196" d="M 234.5 24 L 247 24.5 L 234.5 25 L 234.5 24 Z " /><path fill="rgb(14,197,247)" stroke="rgb(14,197,247)" stroke-width="1" opacity="0.6784313725490196" d="M 265.5 24 L 278 24.5 L 265.5 25 L 265.5 24 Z " /><path fill="rgb(14,197,247)" stroke="rgb(14,197,247)" stroke-width="1" opacity="0.6784313725490196" d="M 226.5 25 L 232 25.5 L 226.5 26 L 226.5 25 Z " /><path fill="rgb(14,197,247)" stroke="rgb(14,197,247)" stroke-width="1" opacity="0.6784313725490196" d="M 280.5 25 L 286 25.5 L 280.5 26 L 280.5 25 Z " /><path fill="rgb(14,197,247)" stroke="rgb(14,197,247)" stroke-width="1" opacity="0.6784313725490196" d="M 218.5 26 L 224 26.5 L 213.5 28 L 213.5 27 L 218.5 26 Z " /><path fill="rgb(14,197,247)" stroke="rgb(14,197,247)" stroke-width="1" opacity="0.6784313725490196" d="M 288.5 26 L 293 26.5 L 288.5 27 L 288.5 26 Z " /><path fill="rgb(14,197,247)" stroke="rgb(14,197,247)" stroke-width="1" opacity="0.6784313725490196" d="M 294.5 27 L 299 27.5 L 294.5 28 L 294.5 27 Z " /><path fill="rgb(14,197,247)" stroke="rgb(14,197,247)" stroke-width="1" opacity="0.6784313725490196" d="M 208.5 28 L 212 28.5 L 208.5 29 L 208.5 28 Z " /><path fill="rgb(14,197,247)" stroke="rgb(14,197,247)" stroke-width="1" opacity="0.6784313725490196" d="M 300.5 28 L 304 28.5 L 300.5 29 L 300.5 28 Z " /><path fill="rgb(14,197,247)" stroke="rgb(14,197,247)" stroke-width="1" opacity="0.6784313725490196" d="M 203.5 29 L 207 29.5 L 199.5 31 L 199.5 30 L 203.5 29 Z " /><path fill="rgb(14,197,247)" stroke="rgb(14,197,247)" stroke-width="1" opacity="0.6784313725490196" d="M 195.5 31 L 198 31.5 L 192.5 33 L 192.5 32 L 195.5 31 Z " /><path fill="rgb(14,197,247)" stroke="rgb(14,197,247)" stroke-width="1" opacity="0.6784313725490196" d="M 188.5 33 L 191 33.5 Q 153.707 44.207 125.5 64 L 125.5 63 Q 152.96 43.96 188.5 33 Z " /><path fill="rgb(14,197,247)" stroke="rgb(14,197,247)" stroke-width="1" opacity="0.6784313725490196" d="M 103.5 80 L 104 82 L 102.5 82 L 82 102.5 Q 56.552 131.052 40.5 169 L 41 167.5 Q 59.511 122.294 91 91 L 92.5 91 L 103.5 80 Z " /><path fill="rgb(14,197,247)" stroke="rgb(14,197,247)" stroke-width="1" opacity="0.6784313725490196" d="M 473.5 337 L 474 338.5 L 456 376 L 454 375.5 Q 466.692 359.192 473.5 337 Z " /><path fill="rgb(14,197,247)" stroke="rgb(14,197,247)" stroke-width="1" opacity="0.6784313725490196" d="M 417.5 422 L 408.5 432 Q 390.388 448.388 367.5 460 L 367.5 459 Q 396.229 444.229 417.5 422 Z " /><path fill="rgb(14,197,247)" stroke="rgb(14,197,247)" stroke-width="1" opacity="0.6784313725490196" d="M 333.5 474 L 336 474.5 L 321.5 479 L 321.5 478 L 333.5 474 Z " /><path fill="rgb(14,197,247)" stroke="rgb(14,197,247)" stroke-width="1" opacity="0.6784313725490196" d="M 192.5 479 L 207 482.5 L 203.5 483 L 192.5 480 L 192.5 479 Z " /><path fill="rgb(14,197,247)" stroke="rgb(14,197,247)" stroke-width="1" opacity="0.6784313725490196" d="M 317.5 479 L 320 479.5 L 305.5 483 L 305.5 482 L 317.5 479 Z " /><path fill="rgb(14,197,247)" stroke="rgb(14,197,247)" stroke-width="1" opacity="0.6784313725490196" d="M 208.5 483 L 212 483.5 L 208.5 484 L 208.5 483 Z " /><path fill="rgb(14,197,247)" stroke="rgb(14,197,247)" stroke-width="1" opacity="0.6784313725490196" d="M 300.5 483 L 304 483.5 L 300.5 484 L 300.5 483 Z " /><path fill="rgb(14,197,247)" stroke="rgb(14,197,247)" stroke-width="1" opacity="0.6784313725490196" d="M 213.5 484 L 218 484.5 L 213.5 485 L 213.5 484 Z " /><path fill="rgb(14,197,247)" stroke="rgb(14,197,247)" stroke-width="1" opacity="0.6784313725490196" d="M 294.5 484 L 299 484.5 L 294.5 485 L 294.5 484 Z " /><path fill="rgb(14,197,247)" stroke="rgb(14,197,247)" stroke-width="1" opacity="0.6784313725490196" d="M 219.5 485 L 224 485.5 L 219.5 486 L 219.5 485 Z " /><path fill="rgb(14,197,247)" stroke="rgb(14,197,247)" stroke-width="1" opacity="0.6784313725490196" d="M 287.5 485 L 293 485.5 L 287.5 486 L 287.5 485 Z " /><path fill="rgb(14,197,247)" stroke="rgb(14,197,247)" stroke-width="1" opacity="0.6784313725490196" d="M 226.5 486 L 232 486.5 L 226.5 487 L 226.5 486 Z " /><path fill="rgb(14,197,247)" stroke="rgb(14,197,247)" stroke-width="1" opacity="0.6784313725490196" d="M 280.5 486 L 286 486.5 L 280.5 487 L 280.5 486 Z " /><path fill="rgb(14,197,247)" stroke="rgb(14,197,247)" stroke-width="1" opacity="0.6784313725490196" d="M 265.5 487 L 278 487.5 L 265.5 488 L 265.5 487 Z " /><path fill="rgb(0,0,0)" stroke="rgb(0,0,0)" stroke-width="1" opacity="0" d="M 0 0 L 512 0 L 512 512 L 0 512 L 0 0 Z M 107 24 L 103 26 L 96 35 Q 94 50 103 54 L 104 55 L 104 80 L 93 91 L 91 91 Q 37 142 24 235 Q 20 295 37 336 Q 56 386 91 421 Q 141 475 233 488 Q 294 492 336 475 L 344 488 Q 358 491 365 486 Q 371 482 372 474 Q 372 465 368 461 Q 396 445 418 423 L 442 464 L 440 467 Q 438 477 442 482 L 451 488 Q 461 490 466 486 L 472 478 Q 474 467 470 463 Q 466 456 457 456 L 456 453 L 478 439 Q 482 435 483 428 L 481 419 L 455 377 Q 481 337 488 278 Q 492 215 474 174 Q 455 125 421 91 Q 370 37 278 24 Q 230 21 196 31 L 162 43 Q 142 51 127 63 L 120 64 Q 118 54 122 54 L 128 46 Q 130 35 126 31 Q 122 22 107 24 Z " /><path fill="rgb(62,141,244)" stroke="rgb(62,141,244)" stroke-width="1" opacity="0.6784313725490196" d="M 306.5 29 L 309 29.5 L 306.5 30 L 306.5 29 Z " /><path fill="rgb(62,141,244)" stroke="rgb(62,141,244)" stroke-width="1" opacity="0.6784313725490196" d="M 310.5 30 L 313 30.5 L 310.5 31 L 310.5 30 Z " /><path fill="rgb(62,141,244)" stroke="rgb(62,141,244)" stroke-width="1" opacity="0.6784313725490196" d="M 314.5 31 L 317 31.5 L 314.5 32 L 314.5 31 Z " /><path fill="rgb(62,141,244)" stroke="rgb(62,141,244)" stroke-width="1" opacity="0.6784313725490196" d="M 321.5 33 L 324 33.5 L 321.5 34 L 321.5 33 Z " /><path fill="rgb(62,141,244)" stroke="rgb(62,141,244)" stroke-width="1" opacity="0.6784313725490196" d="M 334.5 37 L 341 39.5 L 339.5 40 Q 333.786 39.464 334.5 37 Z " /><path fill="rgb(62,141,244)" stroke="rgb(62,141,244)" stroke-width="1" opacity="0.6784313725490196" d="M 342.5 40 L 346 41.5 L 344.5 42 L 342.5 40 Z " /><path fill="rgb(62,141,244)" stroke="rgb(62,141,244)" stroke-width="1" opacity="0.6784313725490196" d="M 349.5 43 L 359 47.5 L 357.5 48 Q 348.833 46.667 349.5 43 Z " /><path fill="rgb(62,141,244)" stroke="rgb(62,141,244)" stroke-width="1" opacity="0.6784313725490196" d="M 362.5 49 L 377 57.5 L 375.5 57 Q 364.417 54.833 362.5 49 Z " /><path fill="rgb(62,141,244)" stroke="rgb(62,141,244)" stroke-width="1" opacity="0.6784313725490196" d="M 378.5 58 L 389 65.5 L 386.5 64 Q 379.602 62.023 378.5 58 Z " /><path fill="rgb(62,141,244)" stroke="rgb(62,141,244)" stroke-width="1" opacity="0.6784313725490196" d="M 390.5 66 L 401 74.5 L 397.5 72 Q 391.958 69.875 390.5 66 Z " /><path fill="rgb(62,141,244)" stroke="rgb(62,141,244)" stroke-width="1" opacity="0.6784313725490196" d="M 402.5 75 L 432 103.5 L 407.5 80 L 402.5 75 Z " /><path fill="rgb(62,141,244)" stroke="rgb(62,141,244)" stroke-width="1" opacity="0.6784313725490196" d="M 432.5 105 L 436.5 110 L 432.5 105 Z " /><path fill="rgb(62,141,244)" stroke="rgb(62,141,244)" stroke-width="1" opacity="0.6784313725490196" d="M 437.5 111 L 446 121.5 L 443 119.5 L 437.5 111 Z " /><path fill="rgb(62,141,244)" stroke="rgb(62,141,244)" stroke-width="1" opacity="0.6784313725490196" d="M 446.5 123 L 455 135.5 L 453 134.5 L 446.5 123 Z " /><path fill="rgb(62,141,244)" stroke="rgb(62,141,244)" stroke-width="1" opacity="0.6784313725490196" d="M 455.5 137 Q 464.491 147.509 469 162.5 L 468 162.5 L 455.5 137 Z " /><path fill="rgb(62,141,244)" stroke="rgb(62,141,244)" stroke-width="1" opacity="0.6784313725490196" d="M 469.5 164 L 472 169.5 L 471 169.5 L 469.5 164 Z " /><path fill="rgb(62,141,244)" stroke="rgb(62,141,244)" stroke-width="1" opacity="0.6784313725490196" d="M 40.5 169 L 104 231.5 L 41.5 170 L 40.5 169 Z " /><path fill="rgb(62,141,244)" stroke="rgb(62,141,244)" stroke-width="1" opacity="0.6784313725490196" d="M 472.5 171 L 475 177.5 L 474 177.5 L 472.5 171 Z " /><path fill="rgb(62,141,244)" stroke="rgb(62,141,244)" stroke-width="1" opacity="0.6784313725490196" d="M 33.5 188 L 34 190.5 L 33 190.5 L 33.5 188 Z " /><path fill="rgb(62,141,244)" stroke="rgb(62,141,244)" stroke-width="1" opacity="0.6784313725490196" d="M 478.5 188 L 479 190.5 L 478 190.5 L 478.5 188 Z " /><path fill="rgb(62,141,244)" stroke="rgb(62,141,244)" stroke-width="1" opacity="0.6784313725490196" d="M 480.5 195 L 481 197.5 L 480 197.5 L 480.5 195 Z " /><path fill="rgb(62,141,244)" stroke="rgb(62,141,244)" stroke-width="1" opacity="0.6784313725490196" d="M 30.5 199 L 31 201.5 L 30 201.5 L 30.5 199 Z " /><path fill="rgb(62,141,244)" stroke="rgb(62,141,244)" stroke-width="1" opacity="0.6784313725490196" d="M 481.5 199 L 482 201.5 L 481 201.5 L 481.5 199 Z " /><path fill="rgb(62,141,244)" stroke="rgb(62,141,244)" stroke-width="1" opacity="0.6784313725490196" d="M 29.5 203 L 30 206.5 L 29 206.5 L 29.5 203 Z " /><path fill="rgb(62,141,244)" stroke="rgb(62,141,244)" stroke-width="1" opacity="0.6784313725490196" d="M 482.5 203 L 483 205.5 L 482 205.5 L 482.5 203 Z " /><path fill="rgb(62,141,244)" stroke="rgb(62,141,244)" stroke-width="1" opacity="0.6784313725490196" d="M 28.5 208 L 29 210.5 L 28 210.5 L 28.5 208 Z " /><path fill="rgb(62,141,244)" stroke="rgb(62,141,244)" stroke-width="1" opacity="0.6784313725490196" d="M 483.5 208 L 484 210.5 L 483 210.5 L 483.5 208 Z " /><path fill="rgb(62,141,244)" stroke="rgb(62,141,244)" stroke-width="1" opacity="0.6784313725490196" d="M 27.5 213 L 28 216.5 L 27 216.5 L 27.5 213 Z " /><path fill="rgb(62,141,244)" stroke="rgb(62,141,244)" stroke-width="1" opacity="0.6784313725490196" d="M 484.5 213 L 485 216.5 L 484 216.5 L 484.5 213 Z " /><path fill="rgb(62,141,244)" stroke="rgb(62,141,244)" stroke-width="1" opacity="0.6784313725490196" d="M 26.5 219 L 27 222.5 L 26 222.5 L 26.5 219 Z " /><path fill="rgb(62,141,244)" stroke="rgb(62,141,244)" stroke-width="1" opacity="0.6784313725490196" d="M 485.5 219 L 486 222.5 L 485 222.5 L 485.5 219 Z " /><path fill="rgb(62,141,244)" stroke="rgb(62,141,244)" stroke-width="1" opacity="0.6784313725490196" d="M 486.5 225 L 487 230.5 L 486 230.5 L 486.5 225 Z " /><path fill="rgb(62,141,244)" stroke="rgb(62,141,244)" stroke-width="1" opacity="0.6784313725490196" d="M 25.5 226 L 26 230.5 L 25 230.5 L 25.5 226 Z " /><path fill="rgb(62,141,244)" stroke="rgb(62,141,244)" stroke-width="1" opacity="0.6784313725490196" d="M 24.5 234 L 25 242.5 L 24 242.5 L 24.5 234 Z " /><path fill="rgb(62,141,244)" stroke="rgb(62,141,244)" stroke-width="1" opacity="0.6784313725490196" d="M 487.5 234 L 488 243.5 L 487 243.5 L 487.5 234 Z " /><path fill="rgb(62,141,244)" stroke="rgb(62,141,244)" stroke-width="1" opacity="0.6784313725490196" d="M 338.5 237 L 329 247.5 L 329.5 249 L 328 247.5 L 338.5 237 Z " /><path fill="rgb(62,141,244)" stroke="rgb(62,141,244)" stroke-width="1" opacity="0.6784313725490196" d="M 429.5 245 L 431.5 248 L 429.5 245 Z " /><path fill="rgb(62,141,244)" stroke="rgb(62,141,244)" stroke-width="1" opacity="0.6784313725490196" d="M 120.5 248 L 150.5 279 L 120.5 248 Z " /><path fill="rgb(62,141,244)" stroke="rgb(62,141,244)" stroke-width="1" opacity="0.6784313725490196" d="M 295.5 248 L 272.5 272 L 295.5 248 Z " /><path fill="rgb(62,141,244)" stroke="rgb(62,141,244)" stroke-width="1" opacity="0.6784313725490196" d="M 370.5 263 L 371.5 265 L 370.5 263 Z " /><path fill="rgb(62,141,244)" stroke="rgb(62,141,244)" stroke-width="1" opacity="0.6784313725490196" d="M 24.5 268 L 25 277.5 L 24 277.5 L 24.5 268 Z " /><path fill="rgb(62,141,244)" stroke="rgb(62,141,244)" stroke-width="1" opacity="0.6784313725490196" d="M 487.5 268 L 488 277.5 L 487 277.5 L 487.5 268 Z " /><path fill="rgb(62,141,244)" stroke="rgb(62,141,244)" stroke-width="1" opacity="0.6784313725490196" d="M 25.5 281 L 26 286.5 L 25 286.5 L 25.5 281 Z " /><path fill="rgb(62,141,244)" stroke="rgb(62,141,244)" stroke-width="1" opacity="0.6784313725490196" d="M 486.5 281 L 487 286.5 L 486 286.5 L 486.5 281 Z " /><path fill="rgb(62,141,244)" stroke="rgb(62,141,244)" stroke-width="1" opacity="0.6784313725490196" d="M 26.5 289 L 27 293.5 L 26 293.5 L 26.5 289 Z " /><path fill="rgb(62,141,244)" stroke="rgb(62,141,244)" stroke-width="1" opacity="0.6784313725490196" d="M 485.5 289 L 486 292.5 L 485 292.5 L 485.5 289 Z " /><path fill="rgb(62,141,244)" stroke="rgb(62,141,244)" stroke-width="1" opacity="0.6784313725490196" d="M 27.5 295 L 28 298.5 L 27 298.5 L 27.5 295 Z " /><path fill="rgb(62,141,244)" stroke="rgb(62,141,244)" stroke-width="1" opacity="0.6784313725490196" d="M 484.5 295 L 485 298.5 L 484 298.5 L 484.5 295 Z " /><path fill="rgb(62,141,244)" stroke="rgb(62,141,244)" stroke-width="1" opacity="0.6784313725490196" d="M 28.5 301 L 29 303.5 L 28 303.5 L 28.5 301 Z " /><path fill="rgb(62,141,244)" stroke="rgb(62,141,244)" stroke-width="1" opacity="0.6784313725490196" d="M 483.5 301 L 484 303.5 L 483 303.5 L 483.5 301 Z " /><path fill="rgb(62,141,244)" stroke="rgb(62,141,244)" stroke-width="1" opacity="0.6784313725490196" d="M 29.5 306 L 30 308.5 L 29 308.5 L 29.5 306 Z " /><path fill="rgb(62,141,244)" stroke="rgb(62,141,244)" stroke-width="1" opacity="0.6784313725490196" d="M 482.5 306 L 483 308.5 L 482 308.5 L 482.5 306 Z " /><path fill="rgb(62,141,244)" stroke="rgb(62,141,244)" stroke-width="1" opacity="0.6784313725490196" d="M 30.5 310 L 31 312.5 L 30 312.5 L 30.5 310 Z " /><path fill="rgb(62,141,244)" stroke="rgb(62,141,244)" stroke-width="1" opacity="0.6784313725490196" d="M 31.5 314 L 32 316.5 L 31 316.5 L 31.5 314 Z " /><path fill="rgb(62,141,244)" stroke="rgb(62,141,244)" stroke-width="1" opacity="0.6784313725490196" d="M 480.5 314 L 481 316.5 L 480 316.5 L 480.5 314 Z " /><path fill="rgb(62,141,244)" stroke="rgb(62,141,244)" stroke-width="1" opacity="0.6784313725490196" d="M 33.5 321 L 34 323.5 L 33 323.5 L 33.5 321 Z " /><path fill="rgb(62,141,244)" stroke="rgb(62,141,244)" stroke-width="1" opacity="0.6784313725490196" d="M 477.5 324 L 478 326.5 L 477 326.5 L 477.5 324 Z " /><path fill="rgb(62,141,244)" stroke="rgb(62,141,244)" stroke-width="1" opacity="0.6784313725490196" d="M 475.5 331 L 476 332.5 L 473.5 337 L 474 335.5 L 475.5 331 Z " /><path fill="rgb(62,141,244)" stroke="rgb(62,141,244)" stroke-width="1" opacity="0.6784313725490196" d="M 37.5 334 L 39 337.5 L 38 337.5 L 37.5 334 Z " /><path fill="rgb(62,141,244)" stroke="rgb(62,141,244)" stroke-width="1" opacity="0.6784313725490196" d="M 40.5 342 L 43 347.5 L 42 347.5 L 40.5 342 Z " /><path fill="rgb(62,141,244)" stroke="rgb(62,141,244)" stroke-width="1" opacity="0.6784313725490196" d="M 287.5 344 L 232.5 400 L 287.5 344 Z " /><path fill="rgb(62,141,244)" stroke="rgb(62,141,244)" stroke-width="1" opacity="0.6784313725490196" d="M 43.5 349 L 47 356.5 L 46 356.5 L 43.5 349 Z " /><path fill="rgb(62,141,244)" stroke="rgb(62,141,244)" stroke-width="1" opacity="0.6784313725490196" d="M 47.5 358 L 54 369.5 L 52 368.5 L 47.5 358 Z " /><path fill="rgb(62,141,244)" stroke="rgb(62,141,244)" stroke-width="1" opacity="0.6784313725490196" d="M 311.5 368 L 264.5 416 L 311.5 368 Z " /><path fill="rgb(62,141,244)" stroke="rgb(62,141,244)" stroke-width="1" opacity="0.6784313725490196" d="M 54.5 371 L 60 379.5 L 58 378.5 L 54.5 371 Z " /><path fill="rgb(62,141,244)" stroke="rgb(62,141,244)" stroke-width="1" opacity="0.6784313725490196" d="M 60.5 381 L 75 400.5 L 71 397.5 Q 61.667 389.833 60.5 381 Z " /><path fill="rgb(62,141,244)" stroke="rgb(62,141,244)" stroke-width="1" opacity="0.6784313725490196" d="M 168.5 384 L 182.5 399 L 168.5 384 Z " /><path fill="rgb(62,141,244)" stroke="rgb(62,141,244)" stroke-width="1" opacity="0.6784313725490196" d="M 75.5 402 L 103.5 431 L 110 436.5 L 104.5 432 L 80 408.5 L 75.5 402 Z " /><path fill="rgb(62,141,244)" stroke="rgb(62,141,244)" stroke-width="1" opacity="0.6784313725490196" d="M 111.5 437 L 122 445.5 L 119.5 444 Q 113.5 441.5 111.5 437 Z " /><path fill="rgb(62,141,244)" stroke="rgb(62,141,244)" stroke-width="1" opacity="0.6784313725490196" d="M 123.5 446 L 141 457.5 L 139.5 457 Q 127.258 453.409 123.5 446 Z " /><path fill="rgb(62,141,244)" stroke="rgb(62,141,244)" stroke-width="1" opacity="0.6784313725490196" d="M 142.5 458 L 163 468.5 L 161.5 469 L 143.5 460 L 142.5 458 Z " /><path fill="rgb(62,141,244)" stroke="rgb(62,141,244)" stroke-width="1" opacity="0.6784313725490196" d="M 367.5 460 L 371 468.5 L 370 468.5 L 367.5 460 Z " /><path fill="rgb(62,141,244)" stroke="rgb(62,141,244)" stroke-width="1" opacity="0.6784313725490196" d="M 166.5 470 L 170 471.5 L 168.5 472 L 166.5 470 Z " /><path fill="rgb(62,141,244)" stroke="rgb(62,141,244)" stroke-width="1" opacity="0.6784313725490196" d="M 371.5 470 L 372 473.5 L 371 473.5 L 371.5 470 Z " /><path fill="rgb(62,141,244)" stroke="rgb(62,141,244)" stroke-width="1" opacity="0.6784313725490196" d="M 171.5 472 L 181 475.5 L 179.5 476 Q 170.773 475.477 171.5 472 Z " /><path fill="rgb(62,141,244)" stroke="rgb(62,141,244)" stroke-width="1" opacity="0.6784313725490196" d="M 336.5 474 L 344 487.5 L 342 486.5 L 336 475.5 L 336.5 474 Z " /><path fill="rgb(62,141,244)" stroke="rgb(62,141,244)" stroke-width="1" opacity="0.6784313725490196" d="M 370.5 475 L 371 477.5 L 364.5 486 L 358.5 488 L 358.5 487 Q 365.125 486.125 368 481.5 L 370.5 475 Z " /><path fill="rgb(62,141,244)" stroke="rgb(62,141,244)" stroke-width="1" opacity="0.6784313725490196" d="M 185.5 477 L 191 478.5 L 188.5 479 Q 184.75 478.75 185.5 477 Z " /><path fill="rgb(8,203,248)" stroke="rgb(8,203,248)" stroke-width="1" opacity="0.996078431372549" d="M 307.5 111 L 308.5 113 L 307.5 111 Z " /><path fill="rgb(8,203,248)" stroke="rgb(8,203,248)" stroke-width="1" opacity="0.996078431372549" d="M 309.5 114 L 310.5 116 L 309.5 114 Z " /><path fill="rgb(8,203,248)" stroke="rgb(8,203,248)" stroke-width="1" opacity="0.996078431372549" d="M 316.5 121 L 317.5 123 L 316.5 121 Z " /><path fill="rgb(8,203,248)" stroke="rgb(8,203,248)" stroke-width="1" opacity="0.996078431372549" d="M 319.5 123 L 320.5 125 L 319.5 123 Z " /><path fill="rgb(8,203,248)" stroke="rgb(8,203,248)" stroke-width="1" opacity="0.996078431372549" d="M 328.5 127 L 331 127.5 L 328.5 128 L 328.5 127 Z " /><path fill="rgb(8,203,248)" stroke="rgb(8,203,248)" stroke-width="1" opacity="0.996078431372549" d="M 345.5 128 L 349 128.5 L 345.5 129 L 345.5 128 Z " /><path fill="rgb(8,203,248)" stroke="rgb(8,203,248)" stroke-width="1" opacity="0.996078431372549" d="M 361.5 133 L 362.5 135 L 361.5 133 Z " /><path fill="rgb(8,203,248)" stroke="rgb(8,203,248)" stroke-width="1" opacity="0.996078431372549" d="M 364.5 135 L 368.5 140 L 364.5 135 Z " /><path fill="rgb(8,203,248)" stroke="rgb(8,203,248)" stroke-width="1" opacity="0.996078431372549" d="M 369.5 141 L 370.5 143 L 369.5 141 Z " /><path fill="rgb(8,203,248)" stroke="rgb(8,203,248)" stroke-width="1" opacity="0.996078431372549" d="M 375.5 155 L 376 158.5 L 375 158.5 L 375.5 155 Z " /><path fill="rgb(8,203,248)" stroke="rgb(8,203,248)" stroke-width="1" opacity="0.996078431372549" d="M 335.5 173 L 336.5 175 L 335.5 173 Z " /><path fill="rgb(8,203,248)" stroke="rgb(8,203,248)" stroke-width="1" opacity="0.996078431372549" d="M 341.5 179 L 342.5 181 L 341.5 179 Z " /><path fill="rgb(8,203,248)" stroke="rgb(8,203,248)" stroke-width="1" opacity="0.996078431372549" d="M 381.5 197 L 384.5 201 L 381.5 197 Z " /><path fill="rgb(8,203,248)" stroke="rgb(8,203,248)" stroke-width="1" opacity="0.996078431372549" d="M 386.5 202 L 388.5 205 L 386.5 202 Z " /><path fill="rgb(8,203,248)" stroke="rgb(8,203,248)" stroke-width="1" opacity="0.996078431372549" d="M 390.5 206 L 398.5 215 L 390.5 206 Z " /><path fill="rgb(8,203,248)" stroke="rgb(8,203,248)" stroke-width="1" opacity="0.996078431372549" d="M 400.5 216 L 408.5 225 L 400.5 216 Z " /><path fill="rgb(8,203,248)" stroke="rgb(8,203,248)" stroke-width="1" opacity="0.996078431372549" d="M 410.5 226 L 418.5 235 L 410.5 226 Z " /><path fill="rgb(8,203,248)" stroke="rgb(8,203,248)" stroke-width="1" opacity="0.996078431372549" d="M 341.5 234 L 339.5 237 L 341.5 234 Z " /><path fill="rgb(8,203,248)" stroke="rgb(8,203,248)" stroke-width="1" opacity="0.996078431372549" d="M 420.5 236 L 428.5 245 L 420.5 236 Z " /><path fill="rgb(8,203,248)" stroke="rgb(8,203,248)" stroke-width="1" opacity="0.996078431372549" d="M 433.5 250 L 434.5 252 L 433.5 250 Z " /><path fill="rgb(8,203,248)" stroke="rgb(8,203,248)" stroke-width="1" opacity="0.996078431372549" d="M 368.5 261 L 369.5 263 L 368.5 261 Z " /><path fill="rgb(8,203,248)" stroke="rgb(8,203,248)" stroke-width="1" opacity="0.996078431372549" d="M 439.5 264 L 440 266.5 L 439 266.5 L 439.5 264 Z " /><path fill="rgb(8,203,248)" stroke="rgb(8,203,248)" stroke-width="1" opacity="0.996078431372549" d="M 372.5 265 L 373.5 267 L 372.5 265 Z " /><path fill="rgb(8,203,248)" stroke="rgb(8,203,248)" stroke-width="1" opacity="0.996078431372549" d="M 151.5 279 L 154.5 283 L 151.5 279 Z " /><path fill="rgb(8,203,248)" stroke="rgb(8,203,248)" stroke-width="1" opacity="0.996078431372549" d="M 196.5 299 L 197.5 301 L 196.5 299 Z " /><path fill="rgb(8,203,248)" stroke="rgb(8,203,248)" stroke-width="1" opacity="0.996078431372549" d="M 445.5 309 L 448.5 313 L 445.5 309 Z " /><path fill="rgb(8,203,248)" stroke="rgb(8,203,248)" stroke-width="1" opacity="0.996078431372549" d="M 450.5 314 L 452.5 317 L 450.5 314 Z " /><path fill="rgb(8,203,248)" stroke="rgb(8,203,248)" stroke-width="1" opacity="0.996078431372549" d="M 454.5 318 L 462.5 327 L 454.5 318 Z " /><path fill="rgb(8,203,248)" stroke="rgb(8,203,248)" stroke-width="1" opacity="0.996078431372549" d="M 376.5 321 L 377.5 323 L 376.5 321 Z " /><path fill="rgb(8,203,248)" stroke="rgb(8,203,248)" stroke-width="1" opacity="0.996078431372549" d="M 379.5 326 L 380.5 328 L 379.5 326 Z " /><path fill="rgb(8,203,248)" stroke="rgb(8,203,248)" stroke-width="1" opacity="0.996078431372549" d="M 464.5 328 L 472.5 337 L 464.5 328 Z " /><path fill="rgb(8,203,248)" stroke="rgb(8,203,248)" stroke-width="1" opacity="0.996078431372549" d="M 382.5 331 L 383.5 333 L 382.5 331 Z " /><path fill="rgb(8,203,248)" stroke="rgb(8,203,248)" stroke-width="1" opacity="0.996078431372549" d="M 385.5 336 L 386.5 338 L 385.5 336 Z " /><path fill="rgb(8,203,248)" stroke="rgb(8,203,248)" stroke-width="1" opacity="0.996078431372549" d="M 388.5 341 L 389.5 343 L 388.5 341 Z " /><path fill="rgb(8,203,248)" stroke="rgb(8,203,248)" stroke-width="1" opacity="0.996078431372549" d="M 369.5 342 L 370.5 344 L 369.5 342 Z " /><path fill="rgb(8,203,248)" stroke="rgb(8,203,248)" stroke-width="1" opacity="0.996078431372549" d="M 391.5 346 L 392.5 348 L 391.5 346 Z " /><path fill="rgb(8,203,248)" stroke="rgb(8,203,248)" stroke-width="1" opacity="0.996078431372549" d="M 372.5 347 L 373.5 349 L 372.5 347 Z " /><path fill="rgb(8,203,248)" stroke="rgb(8,203,248)" stroke-width="1" opacity="0.996078431372549" d="M 394.5 351 L 395.5 353 L 394.5 351 Z " /><path fill="rgb(8,203,248)" stroke="rgb(8,203,248)" stroke-width="1" opacity="0.996078431372549" d="M 375.5 352 L 376.5 354 L 375.5 352 Z " /><path fill="rgb(8,203,248)" stroke="rgb(8,203,248)" stroke-width="1" opacity="0.996078431372549" d="M 397.5 356 L 398.5 358 L 397.5 356 Z " /><path fill="rgb(8,203,248)" stroke="rgb(8,203,248)" stroke-width="1" opacity="0.996078431372549" d="M 378.5 357 L 379.5 359 L 378.5 357 Z " /><path fill="rgb(8,203,248)" stroke="rgb(8,203,248)" stroke-width="1" opacity="0.996078431372549" d="M 433.5 357 L 436 357.5 L 433.5 358 L 433.5 357 Z " /><path fill="rgb(8,203,248)" stroke="rgb(8,203,248)" stroke-width="1" opacity="0.996078431372549" d="M 442.5 359 L 443.5 361 L 442.5 359 Z " /><path fill="rgb(8,203,248)" stroke="rgb(8,203,248)" stroke-width="1" opacity="0.996078431372549" d="M 400.5 361 L 401.5 363 L 400.5 361 Z " /><path fill="rgb(8,203,248)" stroke="rgb(8,203,248)" stroke-width="1" opacity="0.996078431372549" d="M 445.5 361 L 446.5 363 L 445.5 361 Z " /><path fill="rgb(8,203,248)" stroke="rgb(8,203,248)" stroke-width="1" opacity="0.996078431372549" d="M 381.5 362 L 382.5 364 L 381.5 362 Z " /><path fill="rgb(8,203,248)" stroke="rgb(8,203,248)" stroke-width="1" opacity="0.996078431372549" d="M 160.5 364 L 161 366.5 L 160 366.5 L 160.5 364 Z " /><path fill="rgb(8,203,248)" stroke="rgb(8,203,248)" stroke-width="1" opacity="0.996078431372549" d="M 403.5 366 L 404.5 368 L 403.5 366 Z " /><path fill="rgb(8,203,248)" stroke="rgb(8,203,248)" stroke-width="1" opacity="0.996078431372549" d="M 384.5 367 L 385.5 369 L 384.5 367 Z " /><path fill="rgb(8,203,248)" stroke="rgb(8,203,248)" stroke-width="1" opacity="0.996078431372549" d="M 387.5 372 L 388.5 374 L 387.5 372 Z " /><path fill="rgb(8,203,248)" stroke="rgb(8,203,248)" stroke-width="1" opacity="0.996078431372549" d="M 390.5 377 L 391.5 379 L 390.5 377 Z " /><path fill="rgb(8,203,248)" stroke="rgb(8,203,248)" stroke-width="1" opacity="0.996078431372549" d="M 393.5 382 L 394.5 384 L 393.5 382 Z " /><path fill="rgb(8,203,248)" stroke="rgb(8,203,248)" stroke-width="1" opacity="0.996078431372549" d="M 396.5 387 L 397.5 389 L 396.5 387 Z " /><path fill="rgb(8,203,248)" stroke="rgb(8,203,248)" stroke-width="1" opacity="0.996078431372549" d="M 399.5 392 L 400.5 394 L 399.5 392 Z " /><path fill="rgb(8,203,248)" stroke="rgb(8,203,248)" stroke-width="1" opacity="0.996078431372549" d="M 402.5 397 L 403.5 399 L 402.5 397 Z " /><path fill="rgb(8,203,248)" stroke="rgb(8,203,248)" stroke-width="1" opacity="0.996078431372549" d="M 183.5 399 L 186.5 403 L 183.5 399 Z " /><path fill="rgb(8,203,248)" stroke="rgb(8,203,248)" stroke-width="1" opacity="0.996078431372549" d="M 405.5 402 L 406.5 404 L 405.5 402 Z " /><path fill="rgb(8,203,248)" stroke="rgb(8,203,248)" stroke-width="1" opacity="0.996078431372549" d="M 408.5 407 L 409.5 409 L 408.5 407 Z " /><path fill="rgb(8,203,248)" stroke="rgb(8,203,248)" stroke-width="1" opacity="0.996078431372549" d="M 411.5 412 L 412.5 414 L 411.5 412 Z " /><path fill="rgb(8,203,248)" stroke="rgb(8,203,248)" stroke-width="1" opacity="0.996078431372549" d="M 414.5 417 L 415.5 419 L 414.5 417 Z " /><path fill="rgb(8,203,248)" stroke="rgb(8,203,248)" stroke-width="1" opacity="0.996078431372549" d="M 344.5 424 L 345.5 426 L 344.5 424 Z " /><path fill="rgb(8,203,248)" stroke="rgb(8,203,248)" stroke-width="1" opacity="0.996078431372549" d="M 347.5 429 L 348.5 431 L 347.5 429 Z " /><path fill="rgb(8,203,248)" stroke="rgb(8,203,248)" stroke-width="1" opacity="0.996078431372549" d="M 349.5 432 L 350.5 434 L 349.5 432 Z " /><path fill="rgb(8,203,248)" stroke="rgb(8,203,248)" stroke-width="1" opacity="0.996078431372549" d="M 313.5 435 L 314.5 437 L 313.5 435 Z " /><path fill="rgb(8,203,248)" stroke="rgb(8,203,248)" stroke-width="1" opacity="0.996078431372549" d="M 352.5 437 L 353.5 439 L 352.5 437 Z " /><path fill="rgb(8,203,248)" stroke="rgb(8,203,248)" stroke-width="1" opacity="0.996078431372549" d="M 354.5 440 L 355.5 442 L 354.5 440 Z " /><path fill="rgb(8,203,248)" stroke="rgb(8,203,248)" stroke-width="1" opacity="0.996078431372549" d="M 317.5 442 L 318.5 444 L 317.5 442 Z " /><path fill="rgb(8,203,248)" stroke="rgb(8,203,248)" stroke-width="1" opacity="0.996078431372549" d="M 357.5 445 L 358.5 447 L 357.5 445 Z " /><path fill="rgb(8,203,248)" stroke="rgb(8,203,248)" stroke-width="1" opacity="0.996078431372549" d="M 359.5 448 L 360.5 450 L 359.5 448 Z " /><path fill="rgb(8,203,248)" stroke="rgb(8,203,248)" stroke-width="1" opacity="0.996078431372549" d="M 321.5 449 L 322.5 451 L 321.5 449 Z " /><path fill="rgb(8,203,248)" stroke="rgb(8,203,248)" stroke-width="1" opacity="0.996078431372549" d="M 362.5 453 L 363.5 455 L 362.5 453 Z " /><path fill="rgb(8,203,248)" stroke="rgb(8,203,248)" stroke-width="1" opacity="0.996078431372549" d="M 325.5 456 L 326.5 458 L 325.5 456 Z " /><path fill="rgb(8,203,248)" stroke="rgb(8,203,248)" stroke-width="1" opacity="0.996078431372549" d="M 364.5 456 L 365.5 458 L 364.5 456 Z " /><path fill="rgb(8,203,248)" stroke="rgb(8,203,248)" stroke-width="1" opacity="0.996078431372549" d="M 329.5 463 L 330.5 465 L 329.5 463 Z " /><path fill="rgb(8,203,248)" stroke="rgb(8,203,248)" stroke-width="1" opacity="0.996078431372549" d="M 333.5 470 L 334.5 472 L 333.5 470 Z " /><path fill="rgb(8,204,249)" stroke="rgb(8,204,249)" stroke-width="1" opacity="1" d="M 247.5 24 L 249.5 25 Q 252.25 21.25 261.5 24 L 263.5 24 Q 286.006 24.819 304 29 L 304 102.5 Q 306.886 116.614 317.5 123 L 328.5 128 Q 343.833 126.667 354.5 130 Q 363.536 133.464 369 140.5 L 375 152.5 Q 377.625 166.875 376 185.5 L 381 197.5 L 433 249.5 Q 438.692 256.308 440 267.5 L 440 269.5 Q 436.5 291 442 303.5 L 445 309.5 L 473 338.5 Q 466.25 359.25 454.5 375 L 445.5 361 Q 441.5 357 433.5 357 Q 416.462 361.03 406 371 L 376 320.5 L 376 270.5 L 368.5 261 L 329 247.5 Q 339.167 241.667 344 230.5 L 344 182.5 L 340 176 Q 317.82 164.691 288 160 L 288 232.5 L 295 248.5 L 271.5 272 L 192 272 Q 187.346 293.506 197.5 301 L 202.5 304 L 288 304 L 288 343.5 L 232 399.5 L 232 486 Q 209.65 484.934 192 479 L 192 414.5 Q 185.956 394.044 169 384.5 L 216 384 L 216 368 L 161.5 368 L 161 364.5 L 160 363.5 L 160 294.5 L 159 290.5 L 155 282.5 L 120 247.5 L 120 168 L 168 168 L 168 199.5 L 168.5 200 L 256 200 L 256 88 L 208 88 L 208 64.5 L 207.5 64 L 127.5 64 L 127.5 63 Q 173.135 29.135 247.5 24 Z " /><path fill="rgb(8,204,249)" stroke="rgb(8,204,249)" stroke-width="1" opacity="1" d="M 102.5 82 L 104 82.5 L 104 230.5 L 41 168.5 Q 62.9 116.4 102.5 82 Z " /><path fill="rgb(8,204,249)" stroke="rgb(8,204,249)" stroke-width="1" opacity="1" d="M 368.5 342 L 417 422.5 Q 395.5 445.25 366 459 L 344 423.5 L 344 344 L 365.5 344 L 368.5 342 Z " /><path fill="rgb(8,204,249)" stroke="rgb(8,204,249)" stroke-width="1" opacity="1" d="M 311.5 369 L 312 433.5 L 335 474 Q 301.715 487.449 254.5 488 L 254.5 487 L 260 484 L 264 477.5 L 264 416.5 L 311.5 369 Z " /><path fill="rgb(100,97,240)" stroke="rgb(100,97,240)" stroke-width="1" opacity="0.996078431372549" d="M 377.5 58 L 378.5 60 L 377.5 58 Z " /><path fill="rgb(100,97,240)" stroke="rgb(100,97,240)" stroke-width="1" opacity="0.996078431372549" d="M 380.5 60 L 381.5 62 L 380.5 60 Z " /><path fill="rgb(100,97,240)" stroke="rgb(100,97,240)" stroke-width="1" opacity="0.996078431372549" d="M 386.5 64 L 387.5 66 L 386.5 64 Z " /><path fill="rgb(100,97,240)" stroke="rgb(100,97,240)" stroke-width="1" opacity="0.996078431372549" d="M 389.5 66 L 390.5 68 L 389.5 66 Z " /><path fill="rgb(100,97,240)" stroke="rgb(100,97,240)" stroke-width="1" opacity="0.996078431372549" d="M 397.5 72 L 398.5 74 L 397.5 72 Z " /><path fill="rgb(100,97,240)" stroke="rgb(100,97,240)" stroke-width="1" opacity="0.996078431372549" d="M 401.5 75 L 403.5 78 L 401.5 75 Z " /><path fill="rgb(100,97,240)" stroke="rgb(100,97,240)" stroke-width="1" opacity="0.996078431372549" d="M 407.5 80 L 411.5 85 L 407.5 80 Z " /><path fill="rgb(100,97,240)" stroke="rgb(100,97,240)" stroke-width="1" opacity="0.996078431372549" d="M 428.5 101 L 431.5 105 L 428.5 101 Z " /><path fill="rgb(100,97,240)" stroke="rgb(100,97,240)" stroke-width="1" opacity="0.996078431372549" d="M 434.5 108 L 436.5 111 L 434.5 108 Z " /><path fill="rgb(100,97,240)" stroke="rgb(100,97,240)" stroke-width="1" opacity="0.996078431372549" d="M 438.5 113 L 439.5 115 L 438.5 113 Z " /><path fill="rgb(100,97,240)" stroke="rgb(100,97,240)" stroke-width="1" opacity="0.996078431372549" d="M 444.5 121 L 445.5 123 L 444.5 121 Z " /><path fill="rgb(100,97,240)" stroke="rgb(100,97,240)" stroke-width="1" opacity="0.996078431372549" d="M 26.5 223 L 27 225.5 L 26 225.5 L 26.5 223 Z " /><path fill="rgb(100,97,240)" stroke="rgb(100,97,240)" stroke-width="1" opacity="0.996078431372549" d="M 25.5 231 L 26 233.5 L 25 233.5 L 25.5 231 Z " /><path fill="rgb(100,97,240)" stroke="rgb(100,97,240)" stroke-width="1" opacity="0.996078431372549" d="M 486.5 231 L 487 233.5 L 486 233.5 L 486.5 231 Z " /><path fill="rgb(100,97,240)" stroke="rgb(100,97,240)" stroke-width="1" opacity="0.996078431372549" d="M 24.5 243 L 25 252.5 L 24 252.5 L 24.5 243 Z " /><path fill="rgb(100,97,240)" stroke="rgb(100,97,240)" stroke-width="1" opacity="0.996078431372549" d="M 487.5 244 L 488 253.5 L 487 253.5 L 487.5 244 Z " /><path fill="rgb(100,97,240)" stroke="rgb(100,97,240)" stroke-width="1" opacity="0.996078431372549" d="M 24.5 259 L 25 267.5 L 24 267.5 L 24.5 259 Z " /><path fill="rgb(100,97,240)" stroke="rgb(100,97,240)" stroke-width="1" opacity="0.996078431372549" d="M 487.5 259 L 488 267.5 L 487 267.5 L 487.5 259 Z " /><path fill="rgb(100,97,240)" stroke="rgb(100,97,240)" stroke-width="1" opacity="0.996078431372549" d="M 25.5 278 L 26 280.5 L 25 280.5 L 25.5 278 Z " /><path fill="rgb(100,97,240)" stroke="rgb(100,97,240)" stroke-width="1" opacity="0.996078431372549" d="M 486.5 278 L 487 280.5 L 486 280.5 L 486.5 278 Z " /><path fill="rgb(100,97,240)" stroke="rgb(100,97,240)" stroke-width="1" opacity="0.996078431372549" d="M 340.5 296 Q 348.458 294.542 351 298.5 L 352 300.5 L 352 339.5 Q 350.438 345 344 344 L 344 424.5 L 367 460.5 Q 371.769 464.731 371 474.5 Q 369.45 481.45 364.5 485 Q 357.95 489.95 344.5 488 L 312 431.5 L 312 368.5 L 338 342.5 L 337 341.5 L 336 339.5 L 336 300.5 L 338.5 297 L 340.5 296 Z " /><path fill="rgb(100,97,240)" stroke="rgb(100,97,240)" stroke-width="1" opacity="0.996078431372549" d="M 64.5 386 L 65.5 388 L 64.5 386 Z " /><path fill="rgb(100,97,240)" stroke="rgb(100,97,240)" stroke-width="1" opacity="0.996078431372549" d="M 66.5 389 L 67.5 391 L 66.5 389 Z " /><path fill="rgb(100,97,240)" stroke="rgb(100,97,240)" stroke-width="1" opacity="0.996078431372549" d="M 72.5 397 L 73.5 399 L 72.5 397 Z " /><path fill="rgb(100,97,240)" stroke="rgb(100,97,240)" stroke-width="1" opacity="0.996078431372549" d="M 75.5 401 L 77.5 404 L 75.5 401 Z " /><path fill="rgb(100,97,240)" stroke="rgb(100,97,240)" stroke-width="1" opacity="0.996078431372549" d="M 81.5 408 L 84.5 412 L 81.5 408 Z " /><path fill="rgb(100,97,240)" stroke="rgb(100,97,240)" stroke-width="1" opacity="0.996078431372549" d="M 100.5 427 L 103.5 431 L 100.5 427 Z " /><path fill="rgb(100,97,240)" stroke="rgb(100,97,240)" stroke-width="1" opacity="0.996078431372549" d="M 108.5 434 L 110.5 437 L 108.5 434 Z " /><path fill="rgb(100,97,240)" stroke="rgb(100,97,240)" stroke-width="1" opacity="0.996078431372549" d="M 113.5 438 L 114.5 440 L 113.5 438 Z " /><path fill="rgb(100,97,240)" stroke="rgb(100,97,240)" stroke-width="1" opacity="0.996078431372549" d="M 121.5 444 L 122.5 446 L 121.5 444 Z " /><path fill="rgb(100,97,240)" stroke="rgb(100,97,240)" stroke-width="1" opacity="0.996078431372549" d="M 130.5 450 L 131.5 452 L 130.5 450 Z " /><path fill="rgb(100,97,240)" stroke="rgb(100,97,240)" stroke-width="1" opacity="0.996078431372549" d="M 248.5 487 L 251 487.5 L 248.5 488 L 248.5 487 Z " /><path fill="rgb(101,98,241)" stroke="rgb(101,98,241)" stroke-width="1" opacity="1" d="M 304 30 Q 383.146 47.509 428 100.5 Q 483.203 154.297 488 258.5 Q 486.936 303.936 472.5 336 L 445 308.5 L 442 302.5 Q 436.444 287.556 440 263.5 L 435 251.5 L 381 196.5 L 376 183.5 Q 378.9 163.6 375 150.5 Q 371.662 140.838 364.5 135 Q 352.181 124.819 327.5 127 Q 317.867 124.133 312 117.5 Q 306.09 110.91 304 100.5 L 304 30 Z " /><path fill="rgb(101,98,241)" stroke="rgb(101,98,241)" stroke-width="1" opacity="1" d="M 288 160 L 333.5 173 L 341 178.5 L 344 185.5 L 344 228.5 Q 339.75 241.75 328 247.5 L 329.5 249 L 364.5 260 L 374 267.5 L 376 272.5 L 376 331.5 Q 374.464 337.964 369.5 341 Q 362.6 346.1 348.5 344 L 352 339.5 L 352 300.5 L 349.5 297 L 340.5 296 L 337 298.5 L 336 300.5 L 336 339.5 L 338 342.5 L 264 415.5 L 264 475.5 L 257.5 485 Q 247.643 489.846 232 488 L 232 400.5 L 288 344.5 L 288 304 L 204.5 304 L 195 297.5 Q 188.667 289.221 192 272 L 272.5 272 L 296 248.5 L 288 231.5 L 288 160 Z " /><path fill="rgb(101,98,241)" stroke="rgb(101,98,241)" stroke-width="1" opacity="1" d="M 41.5 170 L 104 232.5 L 104 272 L 120 272 L 120 249.5 L 155 283.5 L 160 296.5 L 160 366.5 L 161 367.5 L 159.5 368 Q 127.175 362.325 111 340.5 Q 100.667 328.333 97 309.5 L 113.5 325 L 125 314.5 L 93.5 282 L 86.5 280 L 82 282 L 58 323.5 L 70.5 332 L 81.5 314 Q 89.008 344.492 109.5 362 Q 129.578 381.922 167.5 384 L 187 403.5 L 192 416.5 L 192 478 Q 125.645 458.639 85 412.5 Q 29.28 358.22 24 253.5 Q 25.255 204.255 41.5 170 Z " /></svg>