<svg width="512" height="512" version="1.1" xmlns="http://www.w3.org/2000/svg" desc="Created with imagetracer.js version 1.2.6" ><path fill="rgb(207,205,178)" stroke="rgb(207,205,178)" stroke-width="1" opacity="0.996078431372549" d="M 360.5 24 L 455 119.5 L 360 120 L 360.5 24 Z " /><path fill="rgb(207,205,178)" stroke="rgb(207,205,178)" stroke-width="1" opacity="0.996078431372549" d="M 456 64 L 487.5 64 L 488 64.5 L 488 463.5 Q 485.338 473.838 478.5 480 Q 471.028 488.263 456 488 L 456 64 Z " /><path fill="rgb(207,205,178)" stroke="rgb(207,205,178)" stroke-width="1" opacity="0.996078431372549" d="M 334.5 83 L 336 85.5 L 335 85.5 L 334.5 83 Z " /><path fill="rgb(207,205,178)" stroke="rgb(207,205,178)" stroke-width="1" opacity="0.996078431372549" d="M 291.5 94 L 294 95.5 L 292.5 96 L 291.5 94 Z " /><path fill="rgb(207,205,178)" stroke="rgb(207,205,178)" stroke-width="1" opacity="0.996078431372549" d="M 271.5 122 L 272 123.5 L 270 124.5 L 271.5 122 Z " /><path fill="rgb(207,205,178)" stroke="rgb(207,205,178)" stroke-width="1" opacity="0.996078431372549" d="M 335.5 122 L 336 123.5 L 334 124.5 L 335.5 122 Z " /><path fill="rgb(207,205,178)" stroke="rgb(207,205,178)" stroke-width="1" opacity="0.996078431372549" d="M 195.5 126 L 198 127.5 L 196.5 128 L 195.5 126 Z " /><path fill="rgb(207,205,178)" stroke="rgb(207,205,178)" stroke-width="1" opacity="0.996078431372549" d="M 268.5 126 L 267.5 128 L 266 127.5 L 268.5 126 Z " /><path fill="rgb(207,205,178)" stroke="rgb(207,205,178)" stroke-width="1" opacity="0.996078431372549" d="M 332.5 126 L 331.5 128 L 330 127.5 L 332.5 126 Z " /><path fill="rgb(229,228,209)" stroke="rgb(229,228,209)" stroke-width="1" opacity="0.996078431372549" d="M 376.5 40 L 455.5 120 L 376.5 40 Z " /><path fill="rgb(229,228,209)" stroke="rgb(229,228,209)" stroke-width="1" opacity="0.996078431372549" d="M 24.5 456 Q 25.043 473.958 36.5 481 Q 43.232 487.268 56 487.5 L 48.5 488 Q 38.779 485.721 33 479.5 L 31 476.5 Q 21.975 470.275 24.5 456 Z " /><path fill="rgb(229,228,209)" stroke="rgb(229,228,209)" stroke-width="1" opacity="1" d="M 24 24 L 359.5 24 L 360 24.5 L 360 120 L 456 120 L 456 488 L 56.5 488 Q 38.693 486.807 31 475.5 Q 24.755 468.245 24 455.5 L 24 24 Z M 48 48 L 48 128 L 64 128 L 64 128 L 64 65 L 66 64 L 69 71 L 90 128 L 120 128 L 120 48 L 105 48 L 104 49 L 104 112 L 103 112 L 78 50 L 78 48 L 48 48 Z M 136 48 L 136 128 L 176 128 L 176 112 L 152 112 L 152 96 L 176 96 L 176 80 L 152 80 L 152 64 L 176 64 L 176 48 L 136 48 Z M 192 48 L 192 124 L 197 128 L 220 128 Q 229 120 231 106 Q 230 103 233 104 L 240 124 L 245 128 L 268 128 L 272 124 L 272 48 L 257 48 L 256 49 L 256 112 L 255 112 L 252 109 L 240 77 Q 238 70 229 72 L 224 77 L 212 109 L 210 112 L 208 112 L 208 49 L 208 48 L 192 48 Z M 293 48 L 288 53 L 288 92 L 293 96 L 320 96 L 320 112 L 288 112 L 288 128 L 332 128 L 336 124 L 336 85 L 332 80 L 304 80 L 304 64 L 336 64 L 336 48 L 293 48 Z M 48 144 L 48 160 L 49 160 L 432 160 L 432 145 L 432 144 L 48 144 Z M 56 192 L 56 288 L 232 288 L 232 192 L 56 192 Z M 264 192 L 264 224 L 265 224 L 424 224 L 424 193 L 424 192 L 264 192 Z M 264 256 L 264 288 L 265 288 L 424 288 L 424 257 L 424 256 L 264 256 Z M 48 312 L 48 328 L 49 328 L 240 328 L 240 313 L 240 312 L 48 312 Z M 256 312 L 256 328 L 288 328 L 288 312 L 256 312 Z M 312 320 L 312 384 L 424 384 L 424 320 L 312 320 Z M 48 344 L 48 360 L 49 360 L 160 360 L 160 345 L 160 344 L 48 344 Z M 176 344 L 176 360 L 177 360 L 288 360 L 288 345 L 288 344 L 176 344 Z M 48 376 L 48 392 L 49 392 L 224 392 L 224 377 L 224 376 L 48 376 Z M 240 376 L 240 392 L 288 392 L 288 376 L 240 376 Z M 56 416 L 56 448 L 57 448 L 424 448 L 424 417 L 424 416 L 56 416 Z " /><path fill="rgb(229,228,209)" stroke="rgb(229,228,209)" stroke-width="1" opacity="1" d="M 377.5 40 L 456 40 L 456 118.5 L 377.5 40 Z " /><path fill="rgb(215,87,69)" stroke="rgb(215,87,69)" stroke-width="1" opacity="1" d="M 48 48 L 77.5 48 L 78 50.5 L 101 112 L 104 111.5 L 104 48.5 L 104.5 48 L 120 48 L 120 128 L 90 128 L 67 64 L 64 64.5 L 64 127.5 L 63.5 128 L 48 128 L 48 48 Z " /><path fill="rgb(215,87,69)" stroke="rgb(215,87,69)" stroke-width="1" opacity="1" d="M 136 48 L 176 48 L 176 64 L 152 64 L 152 80 L 176 80 L 176 96 L 152 96 L 152 112 L 176 112 L 176 128 L 136 128 L 136 48 Z " /><path fill="rgb(215,87,69)" stroke="rgb(215,87,69)" stroke-width="1" opacity="1" d="M 192 48 L 207.5 48 L 208 48.5 L 208 111.5 L 211 112 L 224 77.5 L 227.5 73 L 234.5 72 L 239 75.5 L 253 112 L 256 111.5 L 256 48.5 L 256.5 48 L 272 48 L 272 121.5 L 270 126 Q 262.893 130.714 246.5 128 L 241 124.5 L 233 103 Q 230.333 101.875 231 104.5 L 222 126 Q 214.893 130.714 198.5 128 L 194 126 L 192 121.5 L 192 48 Z " /><path fill="rgb(215,87,69)" stroke="rgb(215,87,69)" stroke-width="1" opacity="1" d="M 294.5 48 L 336 48 L 336 64 L 304 64 L 304 80 L 329.5 80 L 334 82 L 336 86.5 L 336 121.5 L 334 126 L 329.5 128 L 288 128 L 288 112 L 320 112 L 320 96 L 294.5 96 L 290 94 L 288 89.5 L 288 54.5 L 291.5 49 L 294.5 48 Z " /><path fill="rgb(249,187,75)" stroke="rgb(249,187,75)" stroke-width="1" opacity="0.996078431372549" d="M 56 192 L 232 192 L 232 288 L 56 288 L 56 192 Z " /><path fill="rgb(249,187,75)" stroke="rgb(249,187,75)" stroke-width="1" opacity="0.996078431372549" d="M 264 192 L 423.5 192 L 424 192.5 L 424 224 L 264.5 224 L 264 223.5 L 264 192 Z " /><path fill="rgb(249,187,75)" stroke="rgb(249,187,75)" stroke-width="1" opacity="0.996078431372549" d="M 264 256 L 423.5 256 L 424 256.5 L 424 288 L 264.5 288 L 264 287.5 L 264 256 Z " /><path fill="rgb(249,187,75)" stroke="rgb(249,187,75)" stroke-width="1" opacity="0.996078431372549" d="M 312 320 L 424 320 L 424 384 L 312 384 L 312 320 Z " /><path fill="rgb(0,0,0)" stroke="rgb(0,0,0)" stroke-width="1" opacity="0" d="M 0 0 L 512 0 L 512 512 L 0 512 L 0 0 Z M 24 24 L 24 464 L 31 478 Q 37 485 49 488 L 464 488 L 478 481 Q 485 475 488 464 L 488 65 L 488 64 L 456 64 L 456 40 L 377 40 L 361 24 L 24 24 Z " /><path fill="rgb(49,102,151)" stroke="rgb(49,102,151)" stroke-width="1" opacity="1" d="M 48 144 L 431.5 144 L 432 144.5 L 432 160 L 48.5 160 L 48 159.5 L 48 144 Z " /><path fill="rgb(49,102,151)" stroke="rgb(49,102,151)" stroke-width="1" opacity="1" d="M 48 312 L 239.5 312 L 240 312.5 L 240 328 L 48.5 328 L 48 327.5 L 48 312 Z " /><path fill="rgb(49,102,151)" stroke="rgb(49,102,151)" stroke-width="1" opacity="1" d="M 256 312 L 288 312 L 288 328 L 256 328 L 256 312 Z " /><path fill="rgb(49,102,151)" stroke="rgb(49,102,151)" stroke-width="1" opacity="1" d="M 48 344 L 159.5 344 L 160 344.5 L 160 360 L 48.5 360 L 48 359.5 L 48 344 Z " /><path fill="rgb(49,102,151)" stroke="rgb(49,102,151)" stroke-width="1" opacity="1" d="M 176 344 L 287.5 344 L 288 344.5 L 288 360 L 176.5 360 L 176 359.5 L 176 344 Z " /><path fill="rgb(49,102,151)" stroke="rgb(49,102,151)" stroke-width="1" opacity="1" d="M 48 376 L 223.5 376 L 224 376.5 L 224 392 L 48.5 392 L 48 391.5 L 48 376 Z " /><path fill="rgb(49,102,151)" stroke="rgb(49,102,151)" stroke-width="1" opacity="1" d="M 240 376 L 288 376 L 288 392 L 240 392 L 240 376 Z " /><path fill="rgb(49,102,151)" stroke="rgb(49,102,151)" stroke-width="1" opacity="1" d="M 56 416 L 423.5 416 L 424 416.5 L 424 448 L 56.5 448 L 56 447.5 L 56 416 Z " /></svg>