<svg width="512" height="512" version="1.1" xmlns="http://www.w3.org/2000/svg" desc="Created with imagetracer.js version 1.2.6" ><path fill="rgb(166,177,230)" stroke="rgb(166,177,230)" stroke-width="1" opacity="0.9098039215686274" d="M 327.5 188 L 324.5 192 L 327.5 188 Z " /><path fill="rgb(166,177,230)" stroke="rgb(166,177,230)" stroke-width="1" opacity="0.9098039215686274" d="M 344.5 188 L 347.5 192 L 344.5 188 Z " /><path fill="rgb(166,177,230)" stroke="rgb(166,177,230)" stroke-width="1" opacity="0.9098039215686274" d="M 320.5 197 L 319.5 199 L 320.5 197 Z " /><path fill="rgb(166,177,230)" stroke="rgb(166,177,230)" stroke-width="1" opacity="0.9098039215686274" d="M 351.5 197 L 352.5 199 L 351.5 197 Z " /><path fill="rgb(166,177,230)" stroke="rgb(166,177,230)" stroke-width="1" opacity="0.9098039215686274" d="M 315.5 204 L 314.5 206 L 315.5 204 Z " /><path fill="rgb(166,177,230)" stroke="rgb(166,177,230)" stroke-width="1" opacity="0.9098039215686274" d="M 356.5 204 L 357.5 206 L 356.5 204 Z " /><path fill="rgb(166,177,230)" stroke="rgb(166,177,230)" stroke-width="1" opacity="0.9098039215686274" d="M 310.5 211 L 309.5 213 L 310.5 211 Z " /><path fill="rgb(166,177,230)" stroke="rgb(166,177,230)" stroke-width="1" opacity="0.9098039215686274" d="M 361.5 211 L 362.5 213 L 361.5 211 Z " /><path fill="rgb(166,177,230)" stroke="rgb(166,177,230)" stroke-width="1" opacity="0.9098039215686274" d="M 305.5 218 L 304.5 220 L 305.5 218 Z " /><path fill="rgb(166,177,230)" stroke="rgb(166,177,230)" stroke-width="1" opacity="0.9098039215686274" d="M 366.5 218 L 367.5 220 L 366.5 218 Z " /><path fill="rgb(166,177,230)" stroke="rgb(166,177,230)" stroke-width="1" opacity="0.9098039215686274" d="M 300.5 225 L 299.5 227 L 300.5 225 Z " /><path fill="rgb(166,177,230)" stroke="rgb(166,177,230)" stroke-width="1" opacity="0.9098039215686274" d="M 371.5 225 L 372.5 227 L 371.5 225 Z " /><path fill="rgb(166,177,230)" stroke="rgb(166,177,230)" stroke-width="1" opacity="0.9098039215686274" d="M 295.5 232 L 294.5 234 L 295.5 232 Z " /><path fill="rgb(166,177,230)" stroke="rgb(166,177,230)" stroke-width="1" opacity="0.9098039215686274" d="M 376.5 232 L 377.5 234 L 376.5 232 Z " /><path fill="rgb(166,177,230)" stroke="rgb(166,177,230)" stroke-width="1" opacity="0.9098039215686274" d="M 290.5 239 L 289.5 241 L 290.5 239 Z " /><path fill="rgb(166,177,230)" stroke="rgb(166,177,230)" stroke-width="1" opacity="0.9098039215686274" d="M 381.5 239 L 382.5 241 L 381.5 239 Z " /><path fill="rgb(166,177,230)" stroke="rgb(166,177,230)" stroke-width="1" opacity="0.9098039215686274" d="M 285.5 246 L 284.5 248 L 285.5 246 Z " /><path fill="rgb(166,177,230)" stroke="rgb(166,177,230)" stroke-width="1" opacity="0.9098039215686274" d="M 386.5 246 L 387.5 248 L 386.5 246 Z " /><path fill="rgb(166,177,230)" stroke="rgb(166,177,230)" stroke-width="1" opacity="0.9098039215686274" d="M 135.5 252 L 132.5 256 L 135.5 252 Z " /><path fill="rgb(166,177,230)" stroke="rgb(166,177,230)" stroke-width="1" opacity="0.9098039215686274" d="M 152.5 252 L 155.5 256 L 152.5 252 Z " /><path fill="rgb(166,177,230)" stroke="rgb(166,177,230)" stroke-width="1" opacity="0.9098039215686274" d="M 280.5 253 L 279.5 255 L 280.5 253 Z " /><path fill="rgb(166,177,230)" stroke="rgb(166,177,230)" stroke-width="1" opacity="0.9098039215686274" d="M 391.5 253 L 392.5 255 L 391.5 253 Z " /><path fill="rgb(166,177,230)" stroke="rgb(166,177,230)" stroke-width="1" opacity="0.9098039215686274" d="M 130.5 258 L 128.5 261 L 130.5 258 Z " /><path fill="rgb(166,177,230)" stroke="rgb(166,177,230)" stroke-width="1" opacity="0.9098039215686274" d="M 157.5 258 L 159.5 261 L 157.5 258 Z " /><path fill="rgb(166,177,230)" stroke="rgb(166,177,230)" stroke-width="1" opacity="0.9098039215686274" d="M 275.5 260 L 274.5 262 L 275.5 260 Z " /><path fill="rgb(166,177,230)" stroke="rgb(166,177,230)" stroke-width="1" opacity="0.9098039215686274" d="M 396.5 260 L 397.5 262 L 396.5 260 Z " /><path fill="rgb(166,177,230)" stroke="rgb(166,177,230)" stroke-width="1" opacity="0.9098039215686274" d="M 126.5 263 L 124.5 266 L 126.5 263 Z " /><path fill="rgb(166,177,230)" stroke="rgb(166,177,230)" stroke-width="1" opacity="0.9098039215686274" d="M 161.5 263 L 163.5 266 L 161.5 263 Z " /><path fill="rgb(166,177,230)" stroke="rgb(166,177,230)" stroke-width="1" opacity="0.9098039215686274" d="M 270.5 267 L 269.5 269 L 270.5 267 Z " /><path fill="rgb(166,177,230)" stroke="rgb(166,177,230)" stroke-width="1" opacity="0.9098039215686274" d="M 401.5 267 L 402.5 269 L 401.5 267 Z " /><path fill="rgb(166,177,230)" stroke="rgb(166,177,230)" stroke-width="1" opacity="0.9098039215686274" d="M 122.5 268 L 120.5 271 L 122.5 268 Z " /><path fill="rgb(166,177,230)" stroke="rgb(166,177,230)" stroke-width="1" opacity="0.9098039215686274" d="M 165.5 268 L 167.5 271 L 165.5 268 Z " /><path fill="rgb(166,177,230)" stroke="rgb(166,177,230)" stroke-width="1" opacity="0.9098039215686274" d="M 118.5 273 L 116.5 276 L 118.5 273 Z " /><path fill="rgb(166,177,230)" stroke="rgb(166,177,230)" stroke-width="1" opacity="0.9098039215686274" d="M 169.5 273 L 171.5 276 L 169.5 273 Z " /><path fill="rgb(166,177,230)" stroke="rgb(166,177,230)" stroke-width="1" opacity="0.9098039215686274" d="M 265.5 274 L 264.5 276 L 265.5 274 Z " /><path fill="rgb(166,177,230)" stroke="rgb(166,177,230)" stroke-width="1" opacity="0.9098039215686274" d="M 406.5 274 L 407.5 276 L 406.5 274 Z " /><path fill="rgb(166,177,230)" stroke="rgb(166,177,230)" stroke-width="1" opacity="0.9098039215686274" d="M 114.5 278 L 112.5 281 L 114.5 278 Z " /><path fill="rgb(166,177,230)" stroke="rgb(166,177,230)" stroke-width="1" opacity="0.9098039215686274" d="M 173.5 278 L 175.5 281 L 173.5 278 Z " /><path fill="rgb(166,177,230)" stroke="rgb(166,177,230)" stroke-width="1" opacity="0.9098039215686274" d="M 260.5 281 L 259.5 283 L 260.5 281 Z " /><path fill="rgb(166,177,230)" stroke="rgb(166,177,230)" stroke-width="1" opacity="0.9098039215686274" d="M 411.5 281 L 412.5 283 L 411.5 281 Z " /><path fill="rgb(166,177,230)" stroke="rgb(166,177,230)" stroke-width="1" opacity="0.9098039215686274" d="M 110.5 283 L 108.5 286 L 110.5 283 Z " /><path fill="rgb(166,177,230)" stroke="rgb(166,177,230)" stroke-width="1" opacity="0.9098039215686274" d="M 177.5 283 L 179.5 286 L 177.5 283 Z " /><path fill="rgb(166,177,230)" stroke="rgb(166,177,230)" stroke-width="1" opacity="0.9098039215686274" d="M 106.5 288 L 104.5 291 L 106.5 288 Z " /><path fill="rgb(166,177,230)" stroke="rgb(166,177,230)" stroke-width="1" opacity="0.9098039215686274" d="M 181.5 288 L 183.5 291 L 181.5 288 Z " /><path fill="rgb(166,177,230)" stroke="rgb(166,177,230)" stroke-width="1" opacity="0.9098039215686274" d="M 255.5 288 L 254.5 290 L 255.5 288 Z " /><path fill="rgb(166,177,230)" stroke="rgb(166,177,230)" stroke-width="1" opacity="0.9098039215686274" d="M 416.5 288 L 417.5 290 L 416.5 288 Z " /><path fill="rgb(166,177,230)" stroke="rgb(166,177,230)" stroke-width="1" opacity="0.9098039215686274" d="M 102.5 293 L 100.5 296 L 102.5 293 Z " /><path fill="rgb(166,177,230)" stroke="rgb(166,177,230)" stroke-width="1" opacity="0.9098039215686274" d="M 185.5 293 L 187.5 296 L 185.5 293 Z " /><path fill="rgb(166,177,230)" stroke="rgb(166,177,230)" stroke-width="1" opacity="0.9098039215686274" d="M 250.5 295 L 249.5 297 L 250.5 295 Z " /><path fill="rgb(166,177,230)" stroke="rgb(166,177,230)" stroke-width="1" opacity="0.9098039215686274" d="M 421.5 295 L 422.5 297 L 421.5 295 Z " /><path fill="rgb(166,177,230)" stroke="rgb(166,177,230)" stroke-width="1" opacity="0.9098039215686274" d="M 98.5 298 L 96.5 301 L 98.5 298 Z " /><path fill="rgb(166,177,230)" stroke="rgb(166,177,230)" stroke-width="1" opacity="0.9098039215686274" d="M 189.5 298 L 191.5 301 L 189.5 298 Z " /><path fill="rgb(166,177,230)" stroke="rgb(166,177,230)" stroke-width="1" opacity="0.9098039215686274" d="M 245.5 302 L 244.5 304 L 245.5 302 Z " /><path fill="rgb(166,177,230)" stroke="rgb(166,177,230)" stroke-width="1" opacity="0.9098039215686274" d="M 426.5 302 L 427.5 304 L 426.5 302 Z " /><path fill="rgb(166,177,230)" stroke="rgb(166,177,230)" stroke-width="1" opacity="0.9098039215686274" d="M 94.5 303 L 92.5 306 L 94.5 303 Z " /><path fill="rgb(166,177,230)" stroke="rgb(166,177,230)" stroke-width="1" opacity="0.9098039215686274" d="M 193.5 303 L 195.5 306 L 193.5 303 Z " /><path fill="rgb(166,177,230)" stroke="rgb(166,177,230)" stroke-width="1" opacity="0.9098039215686274" d="M 90.5 308 L 88.5 311 L 90.5 308 Z " /><path fill="rgb(166,177,230)" stroke="rgb(166,177,230)" stroke-width="1" opacity="0.9098039215686274" d="M 197.5 308 L 199.5 311 L 197.5 308 Z " /><path fill="rgb(166,177,230)" stroke="rgb(166,177,230)" stroke-width="1" opacity="0.9098039215686274" d="M 240.5 309 L 239.5 311 L 240.5 309 Z " /><path fill="rgb(166,177,230)" stroke="rgb(166,177,230)" stroke-width="1" opacity="0.9098039215686274" d="M 431.5 309 L 432.5 311 L 431.5 309 Z " /><path fill="rgb(166,177,230)" stroke="rgb(166,177,230)" stroke-width="1" opacity="0.9098039215686274" d="M 86.5 313 L 84.5 316 L 86.5 313 Z " /><path fill="rgb(166,177,230)" stroke="rgb(166,177,230)" stroke-width="1" opacity="0.9098039215686274" d="M 201.5 313 L 203.5 316 L 201.5 313 Z " /><path fill="rgb(166,177,230)" stroke="rgb(166,177,230)" stroke-width="1" opacity="0.9098039215686274" d="M 235.5 316 L 234.5 318 L 235.5 316 Z " /><path fill="rgb(166,177,230)" stroke="rgb(166,177,230)" stroke-width="1" opacity="0.9098039215686274" d="M 436.5 316 L 437.5 318 L 436.5 316 Z " /><path fill="rgb(166,177,230)" stroke="rgb(166,177,230)" stroke-width="1" opacity="0.9098039215686274" d="M 82.5 318 L 80.5 321 L 82.5 318 Z " /><path fill="rgb(166,177,230)" stroke="rgb(166,177,230)" stroke-width="1" opacity="0.9098039215686274" d="M 205.5 318 L 207.5 321 L 205.5 318 Z " /><path fill="rgb(166,177,230)" stroke="rgb(166,177,230)" stroke-width="1" opacity="0.9098039215686274" d="M 78.5 323 L 76.5 326 L 78.5 323 Z " /><path fill="rgb(166,177,230)" stroke="rgb(166,177,230)" stroke-width="1" opacity="0.9098039215686274" d="M 209.5 323 L 211.5 326 L 209.5 323 Z " /><path fill="rgb(166,177,230)" stroke="rgb(166,177,230)" stroke-width="1" opacity="0.9098039215686274" d="M 230.5 323 L 229.5 325 L 230.5 323 Z " /><path fill="rgb(166,177,230)" stroke="rgb(166,177,230)" stroke-width="1" opacity="0.9098039215686274" d="M 441.5 323 L 442.5 325 L 441.5 323 Z " /><path fill="rgb(166,177,230)" stroke="rgb(166,177,230)" stroke-width="1" opacity="0.9098039215686274" d="M 74.5 328 L 72.5 331 L 74.5 328 Z " /><path fill="rgb(166,177,230)" stroke="rgb(166,177,230)" stroke-width="1" opacity="0.9098039215686274" d="M 213.5 328 L 215.5 331 L 213.5 328 Z " /><path fill="rgb(166,177,230)" stroke="rgb(166,177,230)" stroke-width="1" opacity="0.9098039215686274" d="M 225.5 330 L 224.5 332 L 225.5 330 Z " /><path fill="rgb(166,177,230)" stroke="rgb(166,177,230)" stroke-width="1" opacity="0.9098039215686274" d="M 446.5 330 L 447.5 332 L 446.5 330 Z " /><path fill="rgb(166,177,230)" stroke="rgb(166,177,230)" stroke-width="1" opacity="0.9098039215686274" d="M 70.5 333 L 68.5 336 L 70.5 333 Z " /><path fill="rgb(166,177,230)" stroke="rgb(166,177,230)" stroke-width="1" opacity="0.9098039215686274" d="M 217.5 333 L 219.5 336 L 217.5 333 Z " /><path fill="rgb(166,177,230)" stroke="rgb(166,177,230)" stroke-width="1" opacity="0.9098039215686274" d="M 451.5 337 L 452.5 339 L 451.5 337 Z " /><path fill="rgb(166,177,230)" stroke="rgb(166,177,230)" stroke-width="1" opacity="0.9098039215686274" d="M 66.5 338 L 64.5 341 L 66.5 338 Z " /><path fill="rgb(166,177,230)" stroke="rgb(166,177,230)" stroke-width="1" opacity="0.9098039215686274" d="M 62.5 343 L 60.5 346 L 62.5 343 Z " /><path fill="rgb(166,177,230)" stroke="rgb(166,177,230)" stroke-width="1" opacity="0.9098039215686274" d="M 456.5 344 L 457.5 346 L 456.5 344 Z " /><path fill="rgb(166,177,230)" stroke="rgb(166,177,230)" stroke-width="1" opacity="0.9098039215686274" d="M 58.5 348 L 56.5 351 L 58.5 348 Z " /><path fill="rgb(166,177,230)" stroke="rgb(166,177,230)" stroke-width="1" opacity="0.9098039215686274" d="M 461.5 351 L 462.5 353 L 461.5 351 Z " /><path fill="rgb(166,177,230)" stroke="rgb(166,177,230)" stroke-width="1" opacity="0.9098039215686274" d="M 54.5 353 L 52.5 356 L 54.5 353 Z " /><path fill="rgb(166,177,230)" stroke="rgb(166,177,230)" stroke-width="1" opacity="0.9098039215686274" d="M 50.5 358 L 48.5 361 L 50.5 358 Z " /><path fill="rgb(166,177,230)" stroke="rgb(166,177,230)" stroke-width="1" opacity="0.9098039215686274" d="M 466.5 358 L 467.5 360 L 466.5 358 Z " /><path fill="rgb(166,177,230)" stroke="rgb(166,177,230)" stroke-width="1" opacity="0.9098039215686274" d="M 46.5 363 L 44.5 366 L 46.5 363 Z " /><path fill="rgb(166,177,230)" stroke="rgb(166,177,230)" stroke-width="1" opacity="0.9098039215686274" d="M 471.5 365 L 472.5 367 L 471.5 365 Z " /><path fill="rgb(166,177,230)" stroke="rgb(166,177,230)" stroke-width="1" opacity="0.9098039215686274" d="M 42.5 368 L 40.5 371 L 42.5 368 Z " /><path fill="rgb(166,177,230)" stroke="rgb(166,177,230)" stroke-width="1" opacity="0.9098039215686274" d="M 476.5 372 L 477.5 374 L 476.5 372 Z " /><path fill="rgb(166,177,230)" stroke="rgb(166,177,230)" stroke-width="1" opacity="0.9098039215686274" d="M 38.5 373 L 36.5 376 L 38.5 373 Z " /><path fill="rgb(166,177,230)" stroke="rgb(166,177,230)" stroke-width="1" opacity="0.9098039215686274" d="M 34.5 378 L 32.5 381 L 34.5 378 Z " /><path fill="rgb(166,177,230)" stroke="rgb(166,177,230)" stroke-width="1" opacity="0.9098039215686274" d="M 481.5 379 L 482.5 381 L 481.5 379 Z " /><path fill="rgb(166,177,230)" stroke="rgb(166,177,230)" stroke-width="1" opacity="0.9098039215686274" d="M 30.5 383 L 28.5 386 L 30.5 383 Z " /><path fill="rgb(166,177,230)" stroke="rgb(166,177,230)" stroke-width="1" opacity="0.9098039215686274" d="M 486.5 386 L 487.5 388 L 486.5 386 Z " /><path fill="rgb(166,177,230)" stroke="rgb(166,177,230)" stroke-width="1" opacity="0.9098039215686274" d="M 26.5 388 L 24.5 391 L 26.5 388 Z " /><path fill="rgb(166,177,230)" stroke="rgb(166,177,230)" stroke-width="1" opacity="0.9098039215686274" d="M 22.5 393 L 20.5 396 L 22.5 393 Z " /><path fill="rgb(166,177,230)" stroke="rgb(166,177,230)" stroke-width="1" opacity="0.9098039215686274" d="M 491.5 393 L 492.5 395 L 491.5 393 Z " /><path fill="rgb(166,177,230)" stroke="rgb(166,177,230)" stroke-width="1" opacity="0.9098039215686274" d="M 18.5 398 L 16.5 401 L 18.5 398 Z " /><path fill="rgb(166,177,230)" stroke="rgb(166,177,230)" stroke-width="1" opacity="0.9098039215686274" d="M 496.5 400 L 497.5 402 L 496.5 400 Z " /><path fill="rgb(166,177,230)" stroke="rgb(166,177,230)" stroke-width="1" opacity="0.9098039215686274" d="M 14.5 403 L 12.5 406 L 14.5 403 Z " /><path fill="rgb(166,177,230)" stroke="rgb(166,177,230)" stroke-width="1" opacity="0.9098039215686274" d="M 501.5 407 L 502.5 409 L 501.5 407 Z " /><path fill="rgb(166,177,230)" stroke="rgb(166,177,230)" stroke-width="1" opacity="0.9098039215686274" d="M 10.5 408 L 8.5 411 L 10.5 408 Z " /><path fill="rgb(166,177,230)" stroke="rgb(166,177,230)" stroke-width="1" opacity="0.9098039215686274" d="M 7.5 414 L 21 429.5 L 10 419.5 L 7.5 414 Z " /><path fill="rgb(166,177,230)" stroke="rgb(166,177,230)" stroke-width="1" opacity="0.9098039215686274" d="M 503.5 416 L 502.5 418 L 503.5 416 Z " /><path fill="rgb(166,177,230)" stroke="rgb(166,177,230)" stroke-width="1" opacity="0.9098039215686274" d="M 501.5 419 L 491.5 430 L 501.5 419 Z " /><path fill="rgb(166,177,230)" stroke="rgb(166,177,230)" stroke-width="1" opacity="0.9098039215686274" d="M 22.5 430 L 26 432.5 L 24.5 432 L 22.5 430 Z " /><path fill="rgb(166,177,230)" stroke="rgb(166,177,230)" stroke-width="1" opacity="0.9098039215686274" d="M 489.5 430 L 488.5 432 L 489.5 430 Z " /><path fill="rgb(166,177,230)" stroke="rgb(166,177,230)" stroke-width="1" opacity="0.9098039215686274" d="M 29.5 434 L 33 435.5 L 31.5 436 L 29.5 434 Z " /><path fill="rgb(166,177,230)" stroke="rgb(166,177,230)" stroke-width="1" opacity="0.9098039215686274" d="M 38.5 437 L 41 437.5 L 38.5 438 L 38.5 437 Z " /><path fill="rgb(166,177,230)" stroke="rgb(166,177,230)" stroke-width="1" opacity="0.9098039215686274" d="M 471.5 437 L 474 437.5 L 471.5 438 L 471.5 437 Z " /><path fill="rgb(165,190,254)" stroke="rgb(165,190,254)" stroke-width="1" opacity="0.996078431372549" d="M 38.5 74 L 48 74.5 Q 24.524 75.524 14 89.5 Q 3.292 99.792 2.5 120 L 2 110.5 Q 5.953 95.453 15.5 86 Q 24.655 77.655 38.5 74 Z " /><path fill="rgb(165,190,254)" stroke="rgb(165,190,254)" stroke-width="1" opacity="0.996078431372549" d="M 464.5 74 Q 487.958 74.042 498 87.5 Q 510.017 97.483 510 119.5 L 509 119.5 Q 508.604 95.896 494.5 86 Q 483.036 75.332 464.5 74 Z " /><path fill="rgb(165,190,254)" stroke="rgb(165,190,254)" stroke-width="1" opacity="0.996078431372549" d="M 190.5 130 L 194 130.5 L 190.5 131 L 190.5 130 Z " /><path fill="rgb(165,190,254)" stroke="rgb(165,190,254)" stroke-width="1" opacity="0.996078431372549" d="M 206.5 130 L 210 130.5 L 206.5 131 L 206.5 130 Z " /><path fill="rgb(165,190,254)" stroke="rgb(165,190,254)" stroke-width="1" opacity="0.996078431372549" d="M 186.5 131 L 189 131.5 L 186.5 132 L 186.5 131 Z " /><path fill="rgb(165,190,254)" stroke="rgb(165,190,254)" stroke-width="1" opacity="0.996078431372549" d="M 177.5 135 L 176.5 137 L 174.5 138 L 175.5 136 L 177.5 135 Z " /><path fill="rgb(165,190,254)" stroke="rgb(165,190,254)" stroke-width="1" opacity="0.996078431372549" d="M 224.5 136 L 225.5 138 L 224.5 136 Z " /><path fill="rgb(165,190,254)" stroke="rgb(165,190,254)" stroke-width="1" opacity="0.996078431372549" d="M 172.5 138 L 168.5 143 L 172.5 138 Z " /><path fill="rgb(165,190,254)" stroke="rgb(165,190,254)" stroke-width="1" opacity="0.996078431372549" d="M 227.5 138 L 230.5 142 L 227.5 138 Z " /><path fill="rgb(165,190,254)" stroke="rgb(165,190,254)" stroke-width="1" opacity="0.996078431372549" d="M 166.5 144 L 162.5 149 L 166.5 144 Z " /><path fill="rgb(165,190,254)" stroke="rgb(165,190,254)" stroke-width="1" opacity="0.996078431372549" d="M 233.5 144 L 237.5 149 L 233.5 144 Z " /><path fill="rgb(165,190,254)" stroke="rgb(165,190,254)" stroke-width="1" opacity="0.996078431372549" d="M 161.5 150 L 160.5 152 L 161.5 150 Z " /><path fill="rgb(165,190,254)" stroke="rgb(165,190,254)" stroke-width="1" opacity="0.996078431372549" d="M 238.5 150 L 241 153.5 L 239 152.5 L 238.5 150 Z " /><path fill="rgb(165,190,254)" stroke="rgb(165,190,254)" stroke-width="1" opacity="0.996078431372549" d="M 244.5 162 L 245 164.5 L 244 164.5 L 244.5 162 Z " /><path fill="rgb(165,190,254)" stroke="rgb(165,190,254)" stroke-width="1" opacity="0.996078431372549" d="M 154.5 166 L 155 168.5 L 154 168.5 L 154.5 166 Z " /><path fill="rgb(165,190,254)" stroke="rgb(165,190,254)" stroke-width="1" opacity="0.996078431372549" d="M 245.5 166 L 246 169.5 L 245 169.5 L 245.5 166 Z " /><path fill="rgb(165,190,254)" stroke="rgb(165,190,254)" stroke-width="1" opacity="0.996078431372549" d="M 245.5 182 L 246 185.5 L 245 185.5 L 245.5 182 Z " /><path fill="rgb(165,190,254)" stroke="rgb(165,190,254)" stroke-width="1" opacity="0.996078431372549" d="M 154.5 183 L 155 185.5 L 154 185.5 L 154.5 183 Z " /><path fill="rgb(165,190,254)" stroke="rgb(165,190,254)" stroke-width="1" opacity="0.996078431372549" d="M 244.5 187 L 245 189.5 L 244 189.5 L 244.5 187 Z " /><path fill="rgb(165,190,254)" stroke="rgb(165,190,254)" stroke-width="1" opacity="0.996078431372549" d="M 321.5 195 L 320.5 197 L 321.5 195 Z " /><path fill="rgb(165,190,254)" stroke="rgb(165,190,254)" stroke-width="1" opacity="0.996078431372549" d="M 350.5 195 L 351.5 197 L 350.5 195 Z " /><path fill="rgb(165,190,254)" stroke="rgb(165,190,254)" stroke-width="1" opacity="0.996078431372549" d="M 240.5 198 L 240 199.5 L 238.5 202 L 239 200.5 L 240.5 198 Z " /><path fill="rgb(165,190,254)" stroke="rgb(165,190,254)" stroke-width="1" opacity="0.996078431372549" d="M 160.5 200 L 161.5 202 L 160.5 200 Z " /><path fill="rgb(165,190,254)" stroke="rgb(165,190,254)" stroke-width="1" opacity="0.996078431372549" d="M 316.5 202 L 315.5 204 L 316.5 202 Z " /><path fill="rgb(165,190,254)" stroke="rgb(165,190,254)" stroke-width="1" opacity="0.996078431372549" d="M 355.5 202 L 356.5 204 L 355.5 202 Z " /><path fill="rgb(165,190,254)" stroke="rgb(165,190,254)" stroke-width="1" opacity="0.996078431372549" d="M 162.5 203 L 166.5 208 L 162.5 203 Z " /><path fill="rgb(165,190,254)" stroke="rgb(165,190,254)" stroke-width="1" opacity="0.996078431372549" d="M 237.5 203 L 233.5 208 L 237.5 203 Z " /><path fill="rgb(165,190,254)" stroke="rgb(165,190,254)" stroke-width="1" opacity="0.996078431372549" d="M 168.5 209 L 172.5 214 L 168.5 209 Z " /><path fill="rgb(165,190,254)" stroke="rgb(165,190,254)" stroke-width="1" opacity="0.996078431372549" d="M 311.5 209 L 310.5 211 L 311.5 209 Z " /><path fill="rgb(165,190,254)" stroke="rgb(165,190,254)" stroke-width="1" opacity="0.996078431372549" d="M 360.5 209 L 361.5 211 L 360.5 209 Z " /><path fill="rgb(165,190,254)" stroke="rgb(165,190,254)" stroke-width="1" opacity="0.996078431372549" d="M 230.5 210 L 227.5 214 L 230.5 210 Z " /><path fill="rgb(165,190,254)" stroke="rgb(165,190,254)" stroke-width="1" opacity="0.996078431372549" d="M 174.5 214 L 178 216.5 L 176.5 216 L 174.5 214 Z " /><path fill="rgb(165,190,254)" stroke="rgb(165,190,254)" stroke-width="1" opacity="0.996078431372549" d="M 225.5 214 L 224.5 216 L 225.5 214 Z " /><path fill="rgb(165,190,254)" stroke="rgb(165,190,254)" stroke-width="1" opacity="0.996078431372549" d="M 306.5 216 L 305.5 218 L 306.5 216 Z " /><path fill="rgb(165,190,254)" stroke="rgb(165,190,254)" stroke-width="1" opacity="0.996078431372549" d="M 365.5 216 L 366.5 218 L 365.5 216 Z " /><path fill="rgb(165,190,254)" stroke="rgb(165,190,254)" stroke-width="1" opacity="0.996078431372549" d="M 186.5 220 L 189 220.5 L 186.5 221 L 186.5 220 Z " /><path fill="rgb(165,190,254)" stroke="rgb(165,190,254)" stroke-width="1" opacity="0.996078431372549" d="M 190.5 221 L 194 221.5 L 190.5 222 L 190.5 221 Z " /><path fill="rgb(165,190,254)" stroke="rgb(165,190,254)" stroke-width="1" opacity="0.996078431372549" d="M 206.5 221 L 210 221.5 L 206.5 222 L 206.5 221 Z " /><path fill="rgb(165,190,254)" stroke="rgb(165,190,254)" stroke-width="1" opacity="0.996078431372549" d="M 301.5 223 L 300.5 225 L 301.5 223 Z " /><path fill="rgb(165,190,254)" stroke="rgb(165,190,254)" stroke-width="1" opacity="0.996078431372549" d="M 370.5 223 L 371.5 225 L 370.5 223 Z " /><path fill="rgb(165,190,254)" stroke="rgb(165,190,254)" stroke-width="1" opacity="0.996078431372549" d="M 296.5 230 L 295.5 232 L 296.5 230 Z " /><path fill="rgb(165,190,254)" stroke="rgb(165,190,254)" stroke-width="1" opacity="0.996078431372549" d="M 375.5 230 L 376.5 232 L 375.5 230 Z " /><path fill="rgb(165,190,254)" stroke="rgb(165,190,254)" stroke-width="1" opacity="0.996078431372549" d="M 291.5 237 L 290.5 239 L 291.5 237 Z " /><path fill="rgb(165,190,254)" stroke="rgb(165,190,254)" stroke-width="1" opacity="0.996078431372549" d="M 380.5 237 L 381.5 239 L 380.5 237 Z " /><path fill="rgb(165,190,254)" stroke="rgb(165,190,254)" stroke-width="1" opacity="0.996078431372549" d="M 286.5 244 L 285.5 246 L 286.5 244 Z " /><path fill="rgb(165,190,254)" stroke="rgb(165,190,254)" stroke-width="1" opacity="0.996078431372549" d="M 385.5 244 L 386.5 246 L 385.5 244 Z " /><path fill="rgb(165,190,254)" stroke="rgb(165,190,254)" stroke-width="1" opacity="0.996078431372549" d="M 281.5 251 L 280.5 253 L 281.5 251 Z " /><path fill="rgb(165,190,254)" stroke="rgb(165,190,254)" stroke-width="1" opacity="0.996078431372549" d="M 390.5 251 L 391.5 253 L 390.5 251 Z " /><path fill="rgb(165,190,254)" stroke="rgb(165,190,254)" stroke-width="1" opacity="0.996078431372549" d="M 131.5 256 L 130.5 258 L 131.5 256 Z " /><path fill="rgb(165,190,254)" stroke="rgb(165,190,254)" stroke-width="1" opacity="0.996078431372549" d="M 156.5 256 L 157.5 258 L 156.5 256 Z " /><path fill="rgb(165,190,254)" stroke="rgb(165,190,254)" stroke-width="1" opacity="0.996078431372549" d="M 276.5 258 L 275.5 260 L 276.5 258 Z " /><path fill="rgb(165,190,254)" stroke="rgb(165,190,254)" stroke-width="1" opacity="0.996078431372549" d="M 395.5 258 L 396.5 260 L 395.5 258 Z " /><path fill="rgb(165,190,254)" stroke="rgb(165,190,254)" stroke-width="1" opacity="0.996078431372549" d="M 127.5 261 L 126.5 263 L 127.5 261 Z " /><path fill="rgb(165,190,254)" stroke="rgb(165,190,254)" stroke-width="1" opacity="0.996078431372549" d="M 160.5 261 L 161.5 263 L 160.5 261 Z " /><path fill="rgb(165,190,254)" stroke="rgb(165,190,254)" stroke-width="1" opacity="0.996078431372549" d="M 271.5 265 L 270.5 267 L 271.5 265 Z " /><path fill="rgb(165,190,254)" stroke="rgb(165,190,254)" stroke-width="1" opacity="0.996078431372549" d="M 400.5 265 L 401.5 267 L 400.5 265 Z " /><path fill="rgb(165,190,254)" stroke="rgb(165,190,254)" stroke-width="1" opacity="0.996078431372549" d="M 123.5 266 L 122.5 268 L 123.5 266 Z " /><path fill="rgb(165,190,254)" stroke="rgb(165,190,254)" stroke-width="1" opacity="0.996078431372549" d="M 164.5 266 L 165.5 268 L 164.5 266 Z " /><path fill="rgb(165,190,254)" stroke="rgb(165,190,254)" stroke-width="1" opacity="0.996078431372549" d="M 119.5 271 L 118.5 273 L 119.5 271 Z " /><path fill="rgb(165,190,254)" stroke="rgb(165,190,254)" stroke-width="1" opacity="0.996078431372549" d="M 168.5 271 L 169.5 273 L 168.5 271 Z " /><path fill="rgb(165,190,254)" stroke="rgb(165,190,254)" stroke-width="1" opacity="0.996078431372549" d="M 405.5 272 L 406.5 274 L 405.5 272 Z " /><path fill="rgb(165,190,254)" stroke="rgb(165,190,254)" stroke-width="1" opacity="0.996078431372549" d="M 115.5 276 L 114.5 278 L 115.5 276 Z " /><path fill="rgb(165,190,254)" stroke="rgb(165,190,254)" stroke-width="1" opacity="0.996078431372549" d="M 172.5 276 L 173.5 278 L 172.5 276 Z " /><path fill="rgb(165,190,254)" stroke="rgb(165,190,254)" stroke-width="1" opacity="0.996078431372549" d="M 410.5 279 L 411.5 281 L 410.5 279 Z " /><path fill="rgb(165,190,254)" stroke="rgb(165,190,254)" stroke-width="1" opacity="0.996078431372549" d="M 111.5 281 L 110.5 283 L 111.5 281 Z " /><path fill="rgb(165,190,254)" stroke="rgb(165,190,254)" stroke-width="1" opacity="0.996078431372549" d="M 176.5 281 L 177.5 283 L 176.5 281 Z " /><path fill="rgb(165,190,254)" stroke="rgb(165,190,254)" stroke-width="1" opacity="0.996078431372549" d="M 107.5 286 L 106.5 288 L 107.5 286 Z " /><path fill="rgb(165,190,254)" stroke="rgb(165,190,254)" stroke-width="1" opacity="0.996078431372549" d="M 180.5 286 L 181.5 288 L 180.5 286 Z " /><path fill="rgb(165,190,254)" stroke="rgb(165,190,254)" stroke-width="1" opacity="0.996078431372549" d="M 415.5 286 L 416.5 288 L 415.5 286 Z " /><path fill="rgb(165,190,254)" stroke="rgb(165,190,254)" stroke-width="1" opacity="0.996078431372549" d="M 103.5 291 L 102.5 293 L 103.5 291 Z " /><path fill="rgb(165,190,254)" stroke="rgb(165,190,254)" stroke-width="1" opacity="0.996078431372549" d="M 184.5 291 L 185.5 293 L 184.5 291 Z " /><path fill="rgb(165,190,254)" stroke="rgb(165,190,254)" stroke-width="1" opacity="0.996078431372549" d="M 420.5 293 L 421.5 295 L 420.5 293 Z " /><path fill="rgb(165,190,254)" stroke="rgb(165,190,254)" stroke-width="1" opacity="0.996078431372549" d="M 99.5 296 L 98.5 298 L 99.5 296 Z " /><path fill="rgb(165,190,254)" stroke="rgb(165,190,254)" stroke-width="1" opacity="0.996078431372549" d="M 188.5 296 L 189.5 298 L 188.5 296 Z " /><path fill="rgb(165,190,254)" stroke="rgb(165,190,254)" stroke-width="1" opacity="0.996078431372549" d="M 425.5 300 L 426.5 302 L 425.5 300 Z " /><path fill="rgb(165,190,254)" stroke="rgb(165,190,254)" stroke-width="1" opacity="0.996078431372549" d="M 95.5 301 L 94.5 303 L 95.5 301 Z " /><path fill="rgb(165,190,254)" stroke="rgb(165,190,254)" stroke-width="1" opacity="0.996078431372549" d="M 192.5 301 L 193.5 303 L 192.5 301 Z " /><path fill="rgb(165,190,254)" stroke="rgb(165,190,254)" stroke-width="1" opacity="0.996078431372549" d="M 91.5 306 L 90.5 308 L 91.5 306 Z " /><path fill="rgb(165,190,254)" stroke="rgb(165,190,254)" stroke-width="1" opacity="0.996078431372549" d="M 196.5 306 L 197.5 308 L 196.5 306 Z " /><path fill="rgb(165,190,254)" stroke="rgb(165,190,254)" stroke-width="1" opacity="0.996078431372549" d="M 430.5 307 L 431.5 309 L 430.5 307 Z " /><path fill="rgb(165,190,254)" stroke="rgb(165,190,254)" stroke-width="1" opacity="0.996078431372549" d="M 87.5 311 L 86.5 313 L 87.5 311 Z " /><path fill="rgb(165,190,254)" stroke="rgb(165,190,254)" stroke-width="1" opacity="0.996078431372549" d="M 200.5 311 L 201.5 313 L 200.5 311 Z " /><path fill="rgb(165,190,254)" stroke="rgb(165,190,254)" stroke-width="1" opacity="0.996078431372549" d="M 435.5 314 L 436.5 316 L 435.5 314 Z " /><path fill="rgb(165,190,254)" stroke="rgb(165,190,254)" stroke-width="1" opacity="0.996078431372549" d="M 83.5 316 L 82.5 318 L 83.5 316 Z " /><path fill="rgb(165,190,254)" stroke="rgb(165,190,254)" stroke-width="1" opacity="0.996078431372549" d="M 204.5 316 L 205.5 318 L 204.5 316 Z " /><path fill="rgb(165,190,254)" stroke="rgb(165,190,254)" stroke-width="1" opacity="0.996078431372549" d="M 79.5 321 L 78.5 323 L 79.5 321 Z " /><path fill="rgb(165,190,254)" stroke="rgb(165,190,254)" stroke-width="1" opacity="0.996078431372549" d="M 208.5 321 L 209.5 323 L 208.5 321 Z " /><path fill="rgb(165,190,254)" stroke="rgb(165,190,254)" stroke-width="1" opacity="0.996078431372549" d="M 440.5 321 L 441.5 323 L 440.5 321 Z " /><path fill="rgb(165,190,254)" stroke="rgb(165,190,254)" stroke-width="1" opacity="0.996078431372549" d="M 75.5 326 L 74.5 328 L 75.5 326 Z " /><path fill="rgb(165,190,254)" stroke="rgb(165,190,254)" stroke-width="1" opacity="0.996078431372549" d="M 212.5 326 L 213.5 328 L 212.5 326 Z " /><path fill="rgb(165,190,254)" stroke="rgb(165,190,254)" stroke-width="1" opacity="0.996078431372549" d="M 445.5 328 L 446.5 330 L 445.5 328 Z " /><path fill="rgb(165,190,254)" stroke="rgb(165,190,254)" stroke-width="1" opacity="0.996078431372549" d="M 71.5 331 L 70.5 333 L 71.5 331 Z " /><path fill="rgb(165,190,254)" stroke="rgb(165,190,254)" stroke-width="1" opacity="0.996078431372549" d="M 216.5 331 L 217.5 333 L 216.5 331 Z " /><path fill="rgb(165,190,254)" stroke="rgb(165,190,254)" stroke-width="1" opacity="0.996078431372549" d="M 221.5 335 L 220.5 337 L 221.5 335 Z " /><path fill="rgb(165,190,254)" stroke="rgb(165,190,254)" stroke-width="1" opacity="0.996078431372549" d="M 450.5 335 L 451.5 337 L 450.5 335 Z " /><path fill="rgb(165,190,254)" stroke="rgb(165,190,254)" stroke-width="1" opacity="0.996078431372549" d="M 67.5 336 L 66.5 338 L 67.5 336 Z " /><path fill="rgb(165,190,254)" stroke="rgb(165,190,254)" stroke-width="1" opacity="0.996078431372549" d="M 63.5 341 L 62.5 343 L 63.5 341 Z " /><path fill="rgb(165,190,254)" stroke="rgb(165,190,254)" stroke-width="1" opacity="0.996078431372549" d="M 455.5 342 L 456.5 344 L 455.5 342 Z " /><path fill="rgb(165,190,254)" stroke="rgb(165,190,254)" stroke-width="1" opacity="0.996078431372549" d="M 59.5 346 L 58.5 348 L 59.5 346 Z " /><path fill="rgb(165,190,254)" stroke="rgb(165,190,254)" stroke-width="1" opacity="0.996078431372549" d="M 460.5 349 L 461.5 351 L 460.5 349 Z " /><path fill="rgb(165,190,254)" stroke="rgb(165,190,254)" stroke-width="1" opacity="0.996078431372549" d="M 55.5 351 L 54.5 353 L 55.5 351 Z " /><path fill="rgb(165,190,254)" stroke="rgb(165,190,254)" stroke-width="1" opacity="0.996078431372549" d="M 51.5 356 L 50.5 358 L 51.5 356 Z " /><path fill="rgb(165,190,254)" stroke="rgb(165,190,254)" stroke-width="1" opacity="0.996078431372549" d="M 465.5 356 L 466.5 358 L 465.5 356 Z " /><path fill="rgb(165,190,254)" stroke="rgb(165,190,254)" stroke-width="1" opacity="0.996078431372549" d="M 47.5 361 L 46.5 363 L 47.5 361 Z " /><path fill="rgb(165,190,254)" stroke="rgb(165,190,254)" stroke-width="1" opacity="0.996078431372549" d="M 470.5 363 L 471.5 365 L 470.5 363 Z " /><path fill="rgb(165,190,254)" stroke="rgb(165,190,254)" stroke-width="1" opacity="0.996078431372549" d="M 43.5 366 L 42.5 368 L 43.5 366 Z " /><path fill="rgb(165,190,254)" stroke="rgb(165,190,254)" stroke-width="1" opacity="0.996078431372549" d="M 475.5 370 L 476.5 372 L 475.5 370 Z " /><path fill="rgb(165,190,254)" stroke="rgb(165,190,254)" stroke-width="1" opacity="0.996078431372549" d="M 39.5 371 L 38.5 373 L 39.5 371 Z " /><path fill="rgb(165,190,254)" stroke="rgb(165,190,254)" stroke-width="1" opacity="0.996078431372549" d="M 35.5 376 L 34.5 378 L 35.5 376 Z " /><path fill="rgb(165,190,254)" stroke="rgb(165,190,254)" stroke-width="1" opacity="0.996078431372549" d="M 480.5 377 L 481.5 379 L 480.5 377 Z " /><path fill="rgb(165,190,254)" stroke="rgb(165,190,254)" stroke-width="1" opacity="0.996078431372549" d="M 31.5 381 L 30.5 383 L 31.5 381 Z " /><path fill="rgb(165,190,254)" stroke="rgb(165,190,254)" stroke-width="1" opacity="0.996078431372549" d="M 485.5 384 L 486.5 386 L 485.5 384 Z " /><path fill="rgb(165,190,254)" stroke="rgb(165,190,254)" stroke-width="1" opacity="0.996078431372549" d="M 27.5 386 L 26.5 388 L 27.5 386 Z " /><path fill="rgb(165,190,254)" stroke="rgb(165,190,254)" stroke-width="1" opacity="0.996078431372549" d="M 23.5 391 L 22.5 393 L 23.5 391 Z " /><path fill="rgb(165,190,254)" stroke="rgb(165,190,254)" stroke-width="1" opacity="0.996078431372549" d="M 490.5 391 L 491.5 393 L 490.5 391 Z " /><path fill="rgb(165,190,254)" stroke="rgb(165,190,254)" stroke-width="1" opacity="0.996078431372549" d="M 2.5 392 Q 2.044 404.956 8 411.5 L 6 412.5 Q 0.292 404.958 2.5 392 Z " /><path fill="rgb(165,190,254)" stroke="rgb(165,190,254)" stroke-width="1" opacity="0.996078431372549" d="M 509.5 392 L 510 401.5 L 505.5 413 L 505 410.5 Q 509.897 403.897 509.5 392 Z " /><path fill="rgb(165,190,254)" stroke="rgb(165,190,254)" stroke-width="1" opacity="0.996078431372549" d="M 19.5 396 L 18.5 398 L 19.5 396 Z " /><path fill="rgb(165,190,254)" stroke="rgb(165,190,254)" stroke-width="1" opacity="0.996078431372549" d="M 495.5 398 L 496.5 400 L 495.5 398 Z " /><path fill="rgb(165,190,254)" stroke="rgb(165,190,254)" stroke-width="1" opacity="0.996078431372549" d="M 15.5 401 L 14.5 403 L 15.5 401 Z " /><path fill="rgb(165,190,254)" stroke="rgb(165,190,254)" stroke-width="1" opacity="0.996078431372549" d="M 500.5 405 L 501.5 407 L 500.5 405 Z " /><path fill="rgb(165,190,254)" stroke="rgb(165,190,254)" stroke-width="1" opacity="0.996078431372549" d="M 11.5 406 L 10.5 408 L 11.5 406 Z " /><path fill="rgb(165,190,255)" stroke="rgb(165,190,255)" stroke-width="1" opacity="1" d="M 48.5 74 L 463.5 74 Q 486.883 75.617 498 89.5 Q 508.668 100.332 510 120.5 L 510 391.5 Q 509.958 403.958 504.5 411 L 352 196.5 L 343.5 187 Q 339.333 184.167 330.5 186 L 323 192.5 L 220.5 336 L 151.5 251 Q 147.333 248.167 138.5 250 L 130 257.5 L 7.5 411 Q 2.042 403.958 2 391.5 L 2 120.5 Q 3.617 97.117 17.5 86 Q 28.332 75.332 48.5 74 Z M 191 130 Q 180 132 173 138 Q 159 148 154 167 Q 151 192 162 204 Q 172 217 191 222 Q 216 225 228 214 Q 241 204 246 186 Q 249 160 238 149 Q 226 127 191 130 Z " /><path fill="rgb(0,0,0)" stroke="rgb(0,0,0)" stroke-width="1" opacity="0" d="M 0 0 L 512 0 L 512 512 L 0 512 L 0 0 Z M 39 74 Q 24 78 16 86 Q 6 95 2 111 L 2 402 Q 6 416 14 425 Q 23 434 39 438 L 474 438 Q 488 434 497 426 Q 506 417 510 402 L 510 111 Q 507 96 498 88 Q 489 78 474 74 L 39 74 Z " /><path fill="rgb(252,208,121)" stroke="rgb(252,208,121)" stroke-width="1" opacity="0.996078431372549" d="M 194.5 130 Q 221.25 129.25 233 143.5 Q 246.758 155.242 246 181.5 Q 242.915 199.915 231.5 210 Q 220.332 223.332 194.5 222 Q 176.571 219.285 167 209 Q 153.252 197.007 154 169.5 Q 157.093 152.459 167 143 Q 176.571 132.715 194.5 130 Z " /><path fill="rgb(176,118,109)" stroke="rgb(176,118,109)" stroke-width="1" opacity="0.996078431372549" d="M 332.5 186 Q 346.044 184.456 349 193.5 L 505 413.5 Q 499.687 423.688 490.5 430 Q 482.5 436 470.5 438 L 41.5 438 Q 21 434 11 419.5 L 7 412.5 L 136.5 252 Q 139.786 249.286 146.5 250 Q 153.679 251.821 157 257.5 L 220.5 337 L 323 193.5 L 328.5 188 L 332.5 186 Z " /></svg>