<svg width="512" height="512" version="1.1" xmlns="http://www.w3.org/2000/svg" desc="Created with imagetracer.js version 1.2.6" ><path fill="rgb(216,218,219)" stroke="rgb(216,218,219)" stroke-width="1" opacity="0.8156862745098039" d="M 193.5 66 L 286 66.5 L 193.5 67 L 193.5 66 Z " /><path fill="rgb(216,218,219)" stroke="rgb(216,218,219)" stroke-width="1" opacity="0.8156862745098039" d="M 167.5 67 L 187 67.5 L 167.5 68 L 167.5 67 Z " /><path fill="rgb(216,218,219)" stroke="rgb(216,218,219)" stroke-width="1" opacity="0.8156862745098039" d="M 292.5 67 L 312 67.5 L 292.5 68 L 292.5 67 Z " /><path fill="rgb(216,218,219)" stroke="rgb(216,218,219)" stroke-width="1" opacity="0.8156862745098039" d="M 149.5 68 L 163 68.5 L 149.5 69 L 149.5 68 Z " /><path fill="rgb(216,218,219)" stroke="rgb(216,218,219)" stroke-width="1" opacity="0.8156862745098039" d="M 316.5 68 L 330 68.5 L 316.5 69 L 316.5 68 Z " /><path fill="rgb(216,218,219)" stroke="rgb(216,218,219)" stroke-width="1" opacity="0.8156862745098039" d="M 133.5 69 L 146 69.5 L 133.5 70 L 133.5 69 Z " /><path fill="rgb(216,218,219)" stroke="rgb(216,218,219)" stroke-width="1" opacity="0.8156862745098039" d="M 333.5 69 L 346 69.5 L 333.5 70 L 333.5 69 Z " /><path fill="rgb(216,218,219)" stroke="rgb(216,218,219)" stroke-width="1" opacity="0.8156862745098039" d="M 120.5 70 L 131 70.5 L 120.5 71 L 120.5 70 Z " /><path fill="rgb(216,218,219)" stroke="rgb(216,218,219)" stroke-width="1" opacity="0.8156862745098039" d="M 349.5 70 L 360 70.5 L 349.5 71 L 349.5 70 Z " /><path fill="rgb(216,218,219)" stroke="rgb(216,218,219)" stroke-width="1" opacity="0.8156862745098039" d="M 107.5 71 L 117 71.5 L 107.5 72 L 107.5 71 Z " /><path fill="rgb(216,218,219)" stroke="rgb(216,218,219)" stroke-width="1" opacity="0.8156862745098039" d="M 362.5 71 L 372 71.5 L 362.5 72 L 362.5 71 Z " /><path fill="rgb(216,218,219)" stroke="rgb(216,218,219)" stroke-width="1" opacity="0.8156862745098039" d="M 13.5 72 L 17 72.5 Q 7.792 73.292 4 79.5 L 0.5 88 L 0 85.5 Q 2.107 77.607 8.5 74 L 13.5 72 Z " /><path fill="rgb(216,218,219)" stroke="rgb(216,218,219)" stroke-width="1" opacity="0.8156862745098039" d="M 21.5 72 L 24.5 72 L 35.5 79 L 41 79.5 L 35.5 80 Q 30.542 74.458 21.5 73 L 21.5 72 Z " /><path fill="rgb(216,218,219)" stroke="rgb(216,218,219)" stroke-width="1" opacity="0.8156862745098039" d="M 96.5 72 L 106 72.5 L 96.5 73 L 96.5 72 Z " /><path fill="rgb(216,218,219)" stroke="rgb(216,218,219)" stroke-width="1" opacity="0.8156862745098039" d="M 373.5 72 L 383 72.5 L 373.5 73 L 373.5 72 Z " /><path fill="rgb(216,218,219)" stroke="rgb(216,218,219)" stroke-width="1" opacity="0.8156862745098039" d="M 454.5 72 L 458 72.5 Q 450 73.5 446.5 79 L 438.5 80 L 438.5 79 Q 450.972 79.972 454.5 72 Z " /><path fill="rgb(216,218,219)" stroke="rgb(216,218,219)" stroke-width="1" opacity="0.8156862745098039" d="M 463.5 72 Q 473.306 73.194 477 80.5 L 478 83.5 L 477 83.5 Q 475.625 77.375 470.5 75 L 463.5 73 L 463.5 72 Z " /><path fill="rgb(216,218,219)" stroke="rgb(216,218,219)" stroke-width="1" opacity="0.8156862745098039" d="M 85.5 73 L 95 73.5 L 85.5 74 L 85.5 73 Z " /><path fill="rgb(216,218,219)" stroke="rgb(216,218,219)" stroke-width="1" opacity="0.8156862745098039" d="M 385.5 73 L 394 73.5 L 385.5 74 L 385.5 73 Z " /><path fill="rgb(216,218,219)" stroke="rgb(216,218,219)" stroke-width="1" opacity="0.8156862745098039" d="M 76.5 74 L 84 74.5 L 76.5 75 L 76.5 74 Z " /><path fill="rgb(216,218,219)" stroke="rgb(216,218,219)" stroke-width="1" opacity="0.8156862745098039" d="M 395.5 74 L 403 74.5 L 395.5 75 L 395.5 74 Z " /><path fill="rgb(216,218,219)" stroke="rgb(216,218,219)" stroke-width="1" opacity="0.8156862745098039" d="M 67.5 75 L 75 75.5 L 67.5 76 L 67.5 75 Z " /><path fill="rgb(216,218,219)" stroke="rgb(216,218,219)" stroke-width="1" opacity="0.8156862745098039" d="M 404.5 75 L 412 75.5 L 404.5 76 L 404.5 75 Z " /><path fill="rgb(216,218,219)" stroke="rgb(216,218,219)" stroke-width="1" opacity="0.8156862745098039" d="M 58.5 76 L 66 76.5 L 58.5 77 L 58.5 76 Z " /><path fill="rgb(216,218,219)" stroke="rgb(216,218,219)" stroke-width="1" opacity="0.8156862745098039" d="M 414.5 76 L 421 76.5 L 414.5 77 L 414.5 76 Z " /><path fill="rgb(216,218,219)" stroke="rgb(216,218,219)" stroke-width="1" opacity="0.8156862745098039" d="M 50.5 77 L 57 77.5 L 50.5 78 L 50.5 77 Z " /><path fill="rgb(216,218,219)" stroke="rgb(216,218,219)" stroke-width="1" opacity="0.8156862745098039" d="M 422.5 77 L 429 77.5 L 422.5 78 L 422.5 77 Z " /><path fill="rgb(216,218,219)" stroke="rgb(216,218,219)" stroke-width="1" opacity="0.8156862745098039" d="M 42.5 78 L 49 78.5 L 42.5 79 L 42.5 78 Z " /><path fill="rgb(216,218,219)" stroke="rgb(216,218,219)" stroke-width="1" opacity="0.8156862745098039" d="M 430.5 78 L 437 78.5 L 430.5 79 L 430.5 78 Z " /><path fill="rgb(216,218,219)" stroke="rgb(216,218,219)" stroke-width="1" opacity="0.8156862745098039" d="M 478.5 85 L 479 89.5 L 478 89.5 L 478.5 85 Z " /><path fill="rgb(216,218,219)" stroke="rgb(216,218,219)" stroke-width="1" opacity="0.8156862745098039" d="M 478.5 91 L 479 96.5 Q 474.942 104.942 468 110.5 L 468 112.5 L 470 118.5 L 469 118.5 L 467 110.5 Q 476.863 104.863 478.5 91 Z " /><path fill="rgb(216,218,219)" stroke="rgb(216,218,219)" stroke-width="1" opacity="0.8156862745098039" d="M 0.5 93 L 3 100.5 L 12 109.5 L 12 112.5 Q 7.381 120.881 6.5 133 L 6 128.5 L 11 110.5 Q 1.057 104.993 0.5 93 Z " /><path fill="rgb(216,218,219)" stroke="rgb(216,218,219)" stroke-width="1" opacity="0.8156862745098039" d="M 470.5 120 L 471 122.5 L 470 122.5 L 470.5 120 Z " /><path fill="rgb(216,218,219)" stroke="rgb(216,218,219)" stroke-width="1" opacity="0.8156862745098039" d="M 471.5 124 L 473 132.5 L 472 132.5 L 471.5 124 Z " /><path fill="rgb(216,218,219)" stroke="rgb(216,218,219)" stroke-width="1" opacity="0.8156862745098039" d="M 5.5 134 L 6 138.5 L 5 138.5 L 5.5 134 Z " /><path fill="rgb(216,218,219)" stroke="rgb(216,218,219)" stroke-width="1" opacity="0.8156862745098039" d="M 473.5 134 L 474 139.5 L 473 139.5 L 473.5 134 Z " /><path fill="rgb(216,218,219)" stroke="rgb(216,218,219)" stroke-width="1" opacity="0.8156862745098039" d="M 4.5 140 L 5 146.5 L 4 146.5 L 4.5 140 Z " /><path fill="rgb(216,218,219)" stroke="rgb(216,218,219)" stroke-width="1" opacity="0.8156862745098039" d="M 474.5 141 L 476 155.5 L 475 155.5 L 474.5 141 Z " /><path fill="rgb(216,218,219)" stroke="rgb(216,218,219)" stroke-width="1" opacity="0.8156862745098039" d="M 3.5 148 L 4 154.5 L 3 154.5 L 3.5 148 Z " /><path fill="rgb(216,218,219)" stroke="rgb(216,218,219)" stroke-width="1" opacity="0.8156862745098039" d="M 2.5 157 L 3 165.5 L 2 165.5 L 2.5 157 Z " /><path fill="rgb(216,218,219)" stroke="rgb(216,218,219)" stroke-width="1" opacity="0.8156862745098039" d="M 476.5 157 L 477 166.5 L 476 166.5 L 476.5 157 Z " /><path fill="rgb(216,218,219)" stroke="rgb(216,218,219)" stroke-width="1" opacity="0.8156862745098039" d="M 1.5 167 L 2 180.5 L 1 180.5 L 1.5 167 Z " /><path fill="rgb(216,218,219)" stroke="rgb(216,218,219)" stroke-width="1" opacity="0.8156862745098039" d="M 477.5 168 L 478 182.5 L 477 182.5 L 477.5 168 Z " /><path fill="rgb(216,218,219)" stroke="rgb(216,218,219)" stroke-width="1" opacity="0.8156862745098039" d="M 0.5 183 L 1 209.5 L 0 209.5 L 0.5 183 Z " /><path fill="rgb(216,218,219)" stroke="rgb(216,218,219)" stroke-width="1" opacity="0.8156862745098039" d="M 478.5 184 L 479 209.5 L 478 209.5 L 478.5 184 Z " /><path fill="rgb(216,218,219)" stroke="rgb(216,218,219)" stroke-width="1" opacity="0.8156862745098039" d="M 0.5 235 L 1 260.5 L 0 260.5 L 0.5 235 Z " /><path fill="rgb(216,218,219)" stroke="rgb(216,218,219)" stroke-width="1" opacity="0.8156862745098039" d="M 1.5 263 L 2 276.5 L 1 276.5 L 1.5 263 Z " /><path fill="rgb(216,218,219)" stroke="rgb(216,218,219)" stroke-width="1" opacity="0.8156862745098039" d="M 2.5 278 L 3 287.5 L 2 287.5 L 2.5 278 Z " /><path fill="rgb(216,218,219)" stroke="rgb(216,218,219)" stroke-width="1" opacity="0.8156862745098039" d="M 3.5 289 L 4 295.5 L 3 295.5 L 3.5 289 Z " /><path fill="rgb(216,218,219)" stroke="rgb(216,218,219)" stroke-width="1" opacity="0.8156862745098039" d="M 4.5 297 L 5 303.5 L 4 303.5 L 4.5 297 Z " /><path fill="rgb(216,218,219)" stroke="rgb(216,218,219)" stroke-width="1" opacity="0.8156862745098039" d="M 5.5 305 L 7 315.5 L 6 315.5 L 5.5 305 Z " /><path fill="rgb(216,218,219)" stroke="rgb(216,218,219)" stroke-width="1" opacity="0.8156862745098039" d="M 7.5 317 L 12 333.5 Q -1.2 337.8 1 357.5 Q 2.821 364.679 8.5 368 L 16 370.5 L 12.5 371 L 2 362.5 Q -1.429 357.429 0 347.5 Q 3.417 338.417 11 333.5 L 11 331.5 Q 6.928 325.517 7.5 317 Z " /><path fill="rgb(216,218,219)" stroke="rgb(216,218,219)" stroke-width="1" opacity="0.8156862745098039" d="M 32.5 364 L 39 364.5 L 33.5 365 Q 29.5 370 21.5 371 L 21.5 370 Q 29.361 369.361 32.5 364 Z " /><path fill="rgb(216,218,219)" stroke="rgb(216,218,219)" stroke-width="1" opacity="0.8156862745098039" d="M 40.5 365 L 47 365.5 L 40.5 366 L 40.5 365 Z " /><path fill="rgb(216,218,219)" stroke="rgb(216,218,219)" stroke-width="1" opacity="0.8156862745098039" d="M 48.5 366 L 55 366.5 L 48.5 367 L 48.5 366 Z " /><path fill="rgb(216,218,219)" stroke="rgb(216,218,219)" stroke-width="1" opacity="0.8156862745098039" d="M 56.5 367 L 64 367.5 L 56.5 368 L 56.5 367 Z " /><path fill="rgb(216,218,219)" stroke="rgb(216,218,219)" stroke-width="1" opacity="0.8156862745098039" d="M 65.5 368 L 73 368.5 L 65.5 369 L 65.5 368 Z " /><path fill="rgb(216,218,219)" stroke="rgb(216,218,219)" stroke-width="1" opacity="0.8156862745098039" d="M 74.5 369 L 82 369.5 L 74.5 370 L 74.5 369 Z " /><path fill="rgb(216,218,219)" stroke="rgb(216,218,219)" stroke-width="1" opacity="0.8156862745098039" d="M 83.5 370 L 92 370.5 L 83.5 371 L 83.5 370 Z " /><path fill="rgb(216,218,219)" stroke="rgb(216,218,219)" stroke-width="1" opacity="0.8156862745098039" d="M 94.5 371 L 103 371.5 L 94.5 372 L 94.5 371 Z " /><path fill="rgb(216,218,219)" stroke="rgb(216,218,219)" stroke-width="1" opacity="0.8156862745098039" d="M 104.5 372 L 115 372.5 L 104.5 373 L 104.5 372 Z " /><path fill="rgb(216,218,219)" stroke="rgb(216,218,219)" stroke-width="1" opacity="0.8156862745098039" d="M 117.5 373 L 128 373.5 L 117.5 374 L 117.5 373 Z " /><path fill="rgb(216,218,219)" stroke="rgb(216,218,219)" stroke-width="1" opacity="0.8156862745098039" d="M 130.5 374 L 141 374.5 L 130.5 375 L 130.5 374 Z " /><path fill="rgb(216,218,219)" stroke="rgb(216,218,219)" stroke-width="1" opacity="0.8156862745098039" d="M 145.5 375 L 148 375.5 L 145.5 376 L 145.5 375 Z " /><path fill="rgb(216,218,219)" stroke="rgb(216,218,219)" stroke-width="1" opacity="0.8156862745098039" d="M 153.5 411 L 152.5 413 L 153.5 411 Z " /><path fill="rgb(225,226,226)" stroke="rgb(225,226,226)" stroke-width="1" opacity="0.9921568627450981" d="M 187.5 67 L 192 67.5 L 187.5 68 L 187.5 67 Z " /><path fill="rgb(225,226,226)" stroke="rgb(225,226,226)" stroke-width="1" opacity="0.9921568627450981" d="M 288.5 67 L 292 67.5 L 288.5 68 L 288.5 67 Z " /><path fill="rgb(225,226,226)" stroke="rgb(225,226,226)" stroke-width="1" opacity="0.9921568627450981" d="M 163.5 68 L 166 68.5 L 163.5 69 L 163.5 68 Z " /><path fill="rgb(225,226,226)" stroke="rgb(225,226,226)" stroke-width="1" opacity="0.9921568627450981" d="M 313.5 68 L 316 68.5 L 313.5 69 L 313.5 68 Z " /><path fill="rgb(225,226,226)" stroke="rgb(225,226,226)" stroke-width="1" opacity="0.9921568627450981" d="M 17.5 72 L 21 72.5 L 17.5 73 L 17.5 72 Z " /><path fill="rgb(225,226,226)" stroke="rgb(225,226,226)" stroke-width="1" opacity="0.9921568627450981" d="M 28.5 75 L 29.5 77 L 28.5 75 Z " /><path fill="rgb(225,226,226)" stroke="rgb(225,226,226)" stroke-width="1" opacity="0.9921568627450981" d="M 450.5 75 L 449.5 77 L 450.5 75 Z " /><path fill="rgb(225,226,226)" stroke="rgb(225,226,226)" stroke-width="1" opacity="0.9921568627450981" d="M 470.5 75 L 471.5 77 L 470.5 75 Z " /><path fill="rgb(225,226,226)" stroke="rgb(225,226,226)" stroke-width="1" opacity="0.9921568627450981" d="M 7.5 76 L 4.5 80 L 7.5 76 Z " /><path fill="rgb(225,226,226)" stroke="rgb(225,226,226)" stroke-width="1" opacity="0.9921568627450981" d="M 474.5 79 L 475.5 81 L 474.5 79 Z " /><path fill="rgb(225,226,226)" stroke="rgb(225,226,226)" stroke-width="1" opacity="0.9921568627450981" d="M 0.5 88 L 1 92.5 L 0 92.5 L 0.5 88 Z " /><path fill="rgb(225,226,226)" stroke="rgb(225,226,226)" stroke-width="1" opacity="0.9921568627450981" d="M 475.5 100 L 474.5 102 L 475.5 100 Z " /><path fill="rgb(225,226,226)" stroke="rgb(225,226,226)" stroke-width="1" opacity="0.9921568627450981" d="M 0.5 210 L 1 220.5 L 0 220.5 L 0.5 210 Z " /><path fill="rgb(225,226,226)" stroke="rgb(225,226,226)" stroke-width="1" opacity="0.9921568627450981" d="M 478.5 210 L 479 215.5 L 478 215.5 L 478.5 210 Z " /><path fill="rgb(225,226,226)" stroke="rgb(225,226,226)" stroke-width="1" opacity="0.9921568627450981" d="M 0.5 223 L 1 234.5 L 0 234.5 L 0.5 223 Z " /><path fill="rgb(225,226,226)" stroke="rgb(225,226,226)" stroke-width="1" opacity="0.9921568627450981" d="M 11.5 334 L 5.5 341 L 11.5 334 Z " /><path fill="rgb(225,226,226)" stroke="rgb(225,226,226)" stroke-width="1" opacity="0.9921568627450981" d="M 3.5 362 L 4.5 364 L 3.5 362 Z " /><path fill="rgb(226,226,226)" stroke="rgb(226,226,226)" stroke-width="1" opacity="1" d="M 192.5 67 Q 328.447 63.553 444.5 80 Q 449.925 72.925 461.5 72 Q 469.315 73.685 474 78.5 Q 479.818 83.182 478 95.5 Q 474.205 104.205 467 109.5 L 467 113.5 Q 477.333 143.361 477 183 Q 466.97 181.542 463.5 188 L 453.5 188 Q 373.866 176.134 280.5 178 Q 210.883 179.883 147.5 188 Q 143.875 181.125 131.5 183 L 124 189.5 Q 121.429 192.429 122 198.5 Q 124.25 206.75 131 210.5 L 131 213.5 Q 119.417 256.417 122 313.5 Q 122.628 346.155 128 373 Q 78.552 370.745 32.5 364 Q 28 370.5 17.5 371 Q 9.214 369.786 5 364.5 Q -0.636 360.136 1 348.5 Q 4.417 339.417 12 334.5 L 12 331.5 Q -1.475 283.975 0 221.5 Q -1.013 158.487 12 109.5 Q -0.583 104.583 1 85.5 L 9.5 75 Q 13.833 71.333 23.5 73 Q 27.639 81.361 41.5 80 Q 112.691 69.191 192.5 67 Z M 51 104 L 48 105 Q 40 118 38 139 Q 33 167 34 203 L 33 204 Q 32 254 37 299 Q 38 324 50 340 L 55 339 Q 64 322 66 297 Q 70 264 69 226 L 70 225 Q 72 157 56 108 Q 56 103 51 104 Z " /><path fill="rgb(226,226,226)" stroke="rgb(226,226,226)" stroke-width="1" opacity="1" d="M 285.5 207 L 295 207.5 L 285.5 208 L 285.5 207 Z " /><path fill="rgb(226,226,226)" stroke="rgb(226,226,226)" stroke-width="1" opacity="1" d="M 362.5 207 L 372 207.5 L 362.5 208 L 362.5 207 Z " /><path fill="rgb(226,226,226)" stroke="rgb(226,226,226)" stroke-width="1" opacity="1" d="M 263.5 208 L 269 208.5 L 263.5 209 L 263.5 208 Z " /><path fill="rgb(226,226,226)" stroke="rgb(226,226,226)" stroke-width="1" opacity="1" d="M 388.5 208 L 393 208.5 L 388.5 209 L 388.5 208 Z " /><path fill="rgb(226,226,226)" stroke="rgb(226,226,226)" stroke-width="1" opacity="1" d="M 247.5 209 L 252 209.5 L 247.5 210 L 247.5 209 Z " /><path fill="rgb(226,226,226)" stroke="rgb(226,226,226)" stroke-width="1" opacity="1" d="M 405.5 209 L 410 209.5 L 405.5 210 L 405.5 209 Z " /><path fill="rgb(226,226,226)" stroke="rgb(226,226,226)" stroke-width="1" opacity="1" d="M 234.5 210 L 238 210.5 L 234.5 211 L 234.5 210 Z " /><path fill="rgb(226,226,226)" stroke="rgb(226,226,226)" stroke-width="1" opacity="1" d="M 419.5 210 L 423 210.5 L 419.5 211 L 419.5 210 Z " /><path fill="rgb(226,226,226)" stroke="rgb(226,226,226)" stroke-width="1" opacity="1" d="M 222.5 211 L 226 211.5 L 222.5 212 L 222.5 211 Z " /><path fill="rgb(226,226,226)" stroke="rgb(226,226,226)" stroke-width="1" opacity="1" d="M 431.5 211 L 435 211.5 L 431.5 212 L 431.5 211 Z " /><path fill="rgb(226,226,226)" stroke="rgb(226,226,226)" stroke-width="1" opacity="1" d="M 212.5 212 L 215 212.5 L 212.5 213 L 212.5 212 Z " /><path fill="rgb(226,226,226)" stroke="rgb(226,226,226)" stroke-width="1" opacity="1" d="M 442.5 212 L 446 212.5 L 442.5 213 L 442.5 212 Z " /><path fill="rgb(226,226,226)" stroke="rgb(226,226,226)" stroke-width="1" opacity="1" d="M 202.5 213 L 205 213.5 L 202.5 214 L 202.5 213 Z " /><path fill="rgb(226,226,226)" stroke="rgb(226,226,226)" stroke-width="1" opacity="1" d="M 452.5 213 L 455 213.5 L 452.5 214 L 452.5 213 Z " /><path fill="rgb(226,226,226)" stroke="rgb(226,226,226)" stroke-width="1" opacity="1" d="M 193.5 214 L 196 214.5 L 193.5 215 L 193.5 214 Z " /><path fill="rgb(226,226,226)" stroke="rgb(226,226,226)" stroke-width="1" opacity="1" d="M 461.5 214 L 464 214.5 L 461.5 215 L 461.5 214 Z " /><path fill="rgb(226,226,226)" stroke="rgb(226,226,226)" stroke-width="1" opacity="1" d="M 149.5 215 L 148.5 217 L 149.5 215 Z " /><path fill="rgb(226,226,226)" stroke="rgb(226,226,226)" stroke-width="1" opacity="1" d="M 185.5 215 L 188 215.5 L 185.5 216 L 185.5 215 Z " /><path fill="rgb(226,226,226)" stroke="rgb(226,226,226)" stroke-width="1" opacity="1" d="M 148.5 265 L 149 267.5 L 148 267.5 L 148.5 265 Z " /><path fill="rgb(226,226,226)" stroke="rgb(226,226,226)" stroke-width="1" opacity="1" d="M 147.5 273 L 148 275.5 L 147 275.5 L 147.5 273 Z " /><path fill="rgb(226,226,226)" stroke="rgb(226,226,226)" stroke-width="1" opacity="1" d="M 146.5 283 L 147 287.5 L 146 287.5 L 146.5 283 Z " /><path fill="rgb(226,226,226)" stroke="rgb(226,226,226)" stroke-width="1" opacity="1" d="M 145.5 299 L 146 306.5 L 145 306.5 L 145.5 299 Z " /><path fill="rgb(226,226,226)" stroke="rgb(226,226,226)" stroke-width="1" opacity="1" d="M 145.5 345 L 146 353.5 L 145 353.5 L 145.5 345 Z " /><path fill="rgb(226,226,226)" stroke="rgb(226,226,226)" stroke-width="1" opacity="1" d="M 146.5 365 L 147 368.5 L 146 368.5 L 146.5 365 Z " /><path fill="rgb(174,192,214)" stroke="rgb(174,192,214)" stroke-width="1" opacity="0.996078431372549" d="M 50.5 104 Q 55.5 103.5 56 107.5 Q 75.165 170.835 69 259.5 L 68 260.5 Q 68.833 291.333 63 315.5 Q 60.555 329.42 55 339 L 49.5 340 L 43 328.5 Q 37.879 310.621 36 289.5 Q 31.933 249.067 33 203.5 Q 33.656 169.656 38 139.5 Q 39.848 118.395 48 105 L 50.5 104 Z " /><path fill="rgb(174,192,214)" stroke="rgb(174,192,214)" stroke-width="1" opacity="0.996078431372549" d="M 280.5 178 Q 378.48 176.52 463.5 188 Q 466.25 181.75 476.5 183 L 478 184.5 L 478 216 Q 389.948 203.839 285.5 207 Q 226.082 209.082 172.5 217 Q 168.625 209.875 156.5 211 L 148 216.5 Q 143.833 220.333 145 229.5 L 154 241.5 Q 140.672 288.672 145 353.5 L 146 354.5 Q 145.125 366.813 147 375 Q 141 373 130.5 374 L 129 374.5 Q 119.759 332.741 122 279.5 Q 122.535 241.035 131 210.5 Q 122.523 206.477 122 194.5 Q 123.821 187.321 129.5 184 Q 133 181.5 140.5 183 Q 144.417 190.083 157.5 188 Q 214.978 178.978 280.5 178 Z " /><path fill="rgb(174,192,214)" stroke="rgb(174,192,214)" stroke-width="1" opacity="0.996078431372549" d="M 186.5 244 L 190 246.5 Q 204.465 289.535 200 351.5 L 199 352.5 Q 199.839 375.339 195 392.5 Q 193.771 402.771 187.5 408 Q 182.5 408.5 182 404.5 Q 169.422 362.078 173 303.5 Q 173.083 268.208 184 245 L 186.5 244 Z " /><path fill="rgb(179,218,253)" stroke="rgb(179,218,253)" stroke-width="1" opacity="0.9803921568627451" d="M 494.5 211 Q 505.313 209.688 509 215.5 Q 513.5 220 512 230.5 L 510 235 Q 507.333 233.875 508 236.5 Q 503.25 237.25 504 243.5 Q 511.483 265.017 512 293.5 L 511 297.5 L 512 298.5 L 512 354.5 L 511 359.5 Q 513.5 368 510 370.5 L 510 372.5 Q 509.668 395.978 504 413 Q 508.292 412.344 508 416.5 Q 513.8 420.2 512 431.5 L 507.5 438 Q 504 442 495.5 441 Q 489.706 440.294 487 436.5 L 486.5 435 L 485.5 436 L 463.5 438 L 462.5 439 L 460.5 439 L 455 438.5 Q 464.6 435.1 469 426.5 Q 480.239 408.239 483 381.5 Q 487.256 346.256 486 305.5 Q 485.384 274.116 480 247.5 Q 475.199 228.742 466 215 L 478.5 217 L 480.5 216 L 484.5 217 L 494.5 211 Z " /><path fill="rgb(179,218,253)" stroke="rgb(179,218,253)" stroke-width="1" opacity="0.9803921568627451" d="M 198.5 283 L 199 286.5 L 198 286.5 L 198.5 283 Z " /><path fill="rgb(179,218,253)" stroke="rgb(179,218,253)" stroke-width="1" opacity="0.9803921568627451" d="M 174.5 285 L 175 288.5 L 174 288.5 L 174.5 285 Z " /><path fill="rgb(179,218,253)" stroke="rgb(179,218,253)" stroke-width="1" opacity="0.9803921568627451" d="M 199.5 294 L 200 300.5 L 199 300.5 L 199.5 294 Z " /><path fill="rgb(179,218,253)" stroke="rgb(179,218,253)" stroke-width="1" opacity="0.9803921568627451" d="M 173.5 297 L 174 302.5 L 173 302.5 L 173.5 297 Z " /><path fill="rgb(179,218,253)" stroke="rgb(179,218,253)" stroke-width="1" opacity="0.9803921568627451" d="M 200.5 320 L 201 330.5 L 200 330.5 L 200.5 320 Z " /><path fill="rgb(179,218,253)" stroke="rgb(179,218,253)" stroke-width="1" opacity="0.9803921568627451" d="M 173.5 349 L 174 355.5 L 173 355.5 L 173.5 349 Z " /><path fill="rgb(179,218,253)" stroke="rgb(179,218,253)" stroke-width="1" opacity="0.9803921568627451" d="M 199.5 352 L 200 358.5 L 199 358.5 L 199.5 352 Z " /><path fill="rgb(179,218,253)" stroke="rgb(179,218,253)" stroke-width="1" opacity="0.9803921568627451" d="M 174.5 364 L 175 367.5 L 174 367.5 L 174.5 364 Z " /><path fill="rgb(179,218,253)" stroke="rgb(179,218,253)" stroke-width="1" opacity="0.9803921568627451" d="M 198.5 366 L 199 368.5 L 198 368.5 L 198.5 366 Z " /><path fill="rgb(179,218,253)" stroke="rgb(179,218,253)" stroke-width="1" opacity="0.9803921568627451" d="M 175.5 374 L 176 376.5 L 175 376.5 L 175.5 374 Z " /><path fill="rgb(179,218,253)" stroke="rgb(179,218,253)" stroke-width="1" opacity="0.9803921568627451" d="M 197.5 375 L 198 377.5 L 197 377.5 L 197.5 375 Z " /><path fill="rgb(179,218,253)" stroke="rgb(179,218,253)" stroke-width="1" opacity="0.9803921568627451" d="M 183.5 406 L 184.5 408 L 183.5 406 Z " /><path fill="rgb(179,218,253)" stroke="rgb(179,218,253)" stroke-width="1" opacity="0.9803921568627451" d="M 189.5 406 L 188.5 408 L 189.5 406 Z " /><path fill="rgb(196,225,254)" stroke="rgb(196,225,254)" stroke-width="1" opacity="0.996078431372549" d="M 295.5 207 L 324 207.5 L 295.5 208 L 295.5 207 Z " /><path fill="rgb(196,225,254)" stroke="rgb(196,225,254)" stroke-width="1" opacity="0.996078431372549" d="M 334.5 207 L 362 207.5 L 334.5 208 L 334.5 207 Z " /><path fill="rgb(196,225,254)" stroke="rgb(196,225,254)" stroke-width="1" opacity="0.996078431372549" d="M 269.5 208 L 280 208.5 L 269.5 209 L 269.5 208 Z " /><path fill="rgb(196,225,254)" stroke="rgb(196,225,254)" stroke-width="1" opacity="0.996078431372549" d="M 377.5 208 L 388 208.5 L 377.5 209 L 377.5 208 Z " /><path fill="rgb(196,225,254)" stroke="rgb(196,225,254)" stroke-width="1" opacity="0.996078431372549" d="M 252.5 209 L 260 209.5 L 252.5 210 L 252.5 209 Z " /><path fill="rgb(196,225,254)" stroke="rgb(196,225,254)" stroke-width="1" opacity="0.996078431372549" d="M 397.5 209 L 405 209.5 L 397.5 210 L 397.5 209 Z " /><path fill="rgb(196,225,254)" stroke="rgb(196,225,254)" stroke-width="1" opacity="0.996078431372549" d="M 238.5 210 L 245 210.5 L 238.5 211 L 238.5 210 Z " /><path fill="rgb(196,225,254)" stroke="rgb(196,225,254)" stroke-width="1" opacity="0.996078431372549" d="M 412.5 210 L 419 210.5 L 412.5 211 L 412.5 210 Z " /><path fill="rgb(196,225,254)" stroke="rgb(196,225,254)" stroke-width="1" opacity="0.996078431372549" d="M 158.5 211 L 161 211.5 L 158.5 212 L 158.5 211 Z " /><path fill="rgb(196,225,254)" stroke="rgb(196,225,254)" stroke-width="1" opacity="0.996078431372549" d="M 226.5 211 L 232 211.5 L 226.5 212 L 226.5 211 Z " /><path fill="rgb(196,225,254)" stroke="rgb(196,225,254)" stroke-width="1" opacity="0.996078431372549" d="M 426.5 211 L 431 211.5 L 426.5 212 L 426.5 211 Z " /><path fill="rgb(196,225,254)" stroke="rgb(196,225,254)" stroke-width="1" opacity="0.996078431372549" d="M 154.5 212 L 156 212.5 L 147.5 219 L 152.5 213 L 154.5 212 Z " /><path fill="rgb(196,225,254)" stroke="rgb(196,225,254)" stroke-width="1" opacity="0.996078431372549" d="M 163.5 212 L 169 215.5 L 166.5 214 Q 162.75 213.75 163.5 212 Z " /><path fill="rgb(196,225,254)" stroke="rgb(196,225,254)" stroke-width="1" opacity="0.996078431372549" d="M 215.5 212 L 220 212.5 L 215.5 213 L 215.5 212 Z " /><path fill="rgb(196,225,254)" stroke="rgb(196,225,254)" stroke-width="1" opacity="0.996078431372549" d="M 437.5 212 L 442 212.5 L 437.5 213 L 437.5 212 Z " /><path fill="rgb(196,225,254)" stroke="rgb(196,225,254)" stroke-width="1" opacity="0.996078431372549" d="M 205.5 213 L 210 213.5 L 205.5 214 L 205.5 213 Z " /><path fill="rgb(196,225,254)" stroke="rgb(196,225,254)" stroke-width="1" opacity="0.996078431372549" d="M 448.5 213 L 452 213.5 L 448.5 214 L 448.5 213 Z " /><path fill="rgb(196,225,254)" stroke="rgb(196,225,254)" stroke-width="1" opacity="0.996078431372549" d="M 196.5 214 L 200 214.5 L 196.5 215 L 196.5 214 Z " /><path fill="rgb(196,225,254)" stroke="rgb(196,225,254)" stroke-width="1" opacity="0.996078431372549" d="M 457.5 214 L 461 214.5 L 457.5 215 L 457.5 214 Z " /><path fill="rgb(196,225,254)" stroke="rgb(196,225,254)" stroke-width="1" opacity="0.996078431372549" d="M 188.5 215 L 191 215.5 L 188.5 216 L 188.5 215 Z " /><path fill="rgb(196,225,254)" stroke="rgb(196,225,254)" stroke-width="1" opacity="0.996078431372549" d="M 179.5 216 L 184 216.5 L 179.5 217 L 179.5 216 Z " /><path fill="rgb(196,225,254)" stroke="rgb(196,225,254)" stroke-width="1" opacity="0.996078431372549" d="M 172.5 217 L 176 217.5 L 172.5 218 L 172.5 217 Z " /><path fill="rgb(196,225,254)" stroke="rgb(196,225,254)" stroke-width="1" opacity="0.996078431372549" d="M 69.5 220 L 70 224.5 L 69 224.5 L 69.5 220 Z " /><path fill="rgb(196,225,254)" stroke="rgb(196,225,254)" stroke-width="1" opacity="0.996078431372549" d="M 145.5 223 L 146 228.5 L 145 228.5 L 145.5 223 Z " /><path fill="rgb(196,225,254)" stroke="rgb(196,225,254)" stroke-width="1" opacity="0.996078431372549" d="M 148.5 234 L 155 241.5 L 154 241.5 L 148.5 234 Z " /><path fill="rgb(196,225,254)" stroke="rgb(196,225,254)" stroke-width="1" opacity="0.996078431372549" d="M 152.5 246 L 153 248.5 L 152 248.5 L 152.5 246 Z " /><path fill="rgb(196,225,254)" stroke="rgb(196,225,254)" stroke-width="1" opacity="0.996078431372549" d="M 151.5 250 L 152 252.5 L 151 252.5 L 151.5 250 Z " /><path fill="rgb(196,225,254)" stroke="rgb(196,225,254)" stroke-width="1" opacity="0.996078431372549" d="M 150.5 255 L 151 257.5 L 150 257.5 L 150.5 255 Z " /><path fill="rgb(196,225,254)" stroke="rgb(196,225,254)" stroke-width="1" opacity="0.996078431372549" d="M 148.5 268 L 149 271.5 L 148 271.5 L 148.5 268 Z " /><path fill="rgb(196,225,254)" stroke="rgb(196,225,254)" stroke-width="1" opacity="0.996078431372549" d="M 147.5 276 L 148 281.5 L 147 281.5 L 147.5 276 Z " /><path fill="rgb(196,225,254)" stroke="rgb(196,225,254)" stroke-width="1" opacity="0.996078431372549" d="M 146.5 288 L 147 295.5 L 146 295.5 L 146.5 288 Z " /><path fill="rgb(196,225,254)" stroke="rgb(196,225,254)" stroke-width="1" opacity="0.996078431372549" d="M 511.5 294 L 512 297.5 L 511 297.5 L 511.5 294 Z " /><path fill="rgb(196,225,254)" stroke="rgb(196,225,254)" stroke-width="1" opacity="0.996078431372549" d="M 485.5 305 L 486 307.5 L 485 307.5 L 485.5 305 Z " /><path fill="rgb(196,225,254)" stroke="rgb(196,225,254)" stroke-width="1" opacity="0.996078431372549" d="M 145.5 307 L 146 344.5 L 145 344.5 L 145.5 307 Z " /><path fill="rgb(196,225,254)" stroke="rgb(196,225,254)" stroke-width="1" opacity="0.996078431372549" d="M 200.5 315 L 201 319.5 L 200 319.5 L 200.5 315 Z " /><path fill="rgb(196,225,254)" stroke="rgb(196,225,254)" stroke-width="1" opacity="0.996078431372549" d="M 172.5 323 L 173 329.5 L 172 329.5 L 172.5 323 Z " /><path fill="rgb(196,225,254)" stroke="rgb(196,225,254)" stroke-width="1" opacity="0.996078431372549" d="M 200.5 331 L 201 337.5 L 200 337.5 L 200.5 331 Z " /><path fill="rgb(196,225,254)" stroke="rgb(196,225,254)" stroke-width="1" opacity="0.996078431372549" d="M 485.5 339 L 486 341.5 L 485 341.5 L 485.5 339 Z " /><path fill="rgb(196,225,254)" stroke="rgb(196,225,254)" stroke-width="1" opacity="0.996078431372549" d="M 146.5 357 L 147 364.5 L 146 364.5 L 146.5 357 Z " /><path fill="rgb(196,225,254)" stroke="rgb(196,225,254)" stroke-width="1" opacity="0.996078431372549" d="M 147.5 371 L 148 374.5 L 147 374.5 L 147.5 371 Z " /><path fill="rgb(196,225,254)" stroke="rgb(196,225,254)" stroke-width="1" opacity="0.996078431372549" d="M 149.5 391 L 150 394.5 L 149 394.5 L 149.5 391 Z " /><path fill="rgb(196,225,254)" stroke="rgb(196,225,254)" stroke-width="1" opacity="0.996078431372549" d="M 151.5 414 L 150.5 416 L 151.5 414 Z " /><path fill="rgb(196,225,254)" stroke="rgb(196,225,254)" stroke-width="1" opacity="0.996078431372549" d="M 170.5 435 L 172 435.5 L 168.5 438 L 170.5 435 Z " /><path fill="rgb(196,225,254)" stroke="rgb(196,225,254)" stroke-width="1" opacity="0.996078431372549" d="M 213.5 440 L 216 440.5 L 213.5 441 L 213.5 440 Z " /><path fill="rgb(196,225,254)" stroke="rgb(196,225,254)" stroke-width="1" opacity="0.996078431372549" d="M 237.5 442 L 243 442.5 L 237.5 443 L 237.5 442 Z " /><path fill="rgb(196,225,254)" stroke="rgb(196,225,254)" stroke-width="1" opacity="0.996078431372549" d="M 415.5 442 L 422 442.5 L 415.5 443 L 415.5 442 Z " /><path fill="rgb(196,225,254)" stroke="rgb(196,225,254)" stroke-width="1" opacity="0.996078431372549" d="M 250.5 443 L 253 443.5 L 250.5 444 L 250.5 443 Z " /><path fill="rgb(196,225,254)" stroke="rgb(196,225,254)" stroke-width="1" opacity="0.996078431372549" d="M 271.5 444 L 275 444.5 L 271.5 445 L 271.5 444 Z " /><path fill="rgb(196,225,254)" stroke="rgb(196,225,254)" stroke-width="1" opacity="0.996078431372549" d="M 385.5 444 L 389 444.5 L 385.5 445 L 385.5 444 Z " /><path fill="rgb(196,225,254)" stroke="rgb(196,225,254)" stroke-width="1" opacity="0.996078431372549" d="M 289.5 445 L 292 445.5 L 289.5 446 L 289.5 445 Z " /><path fill="rgb(196,225,254)" stroke="rgb(196,225,254)" stroke-width="1" opacity="0.996078431372549" d="M 293.5 445 L 298 445.5 L 293.5 446 L 293.5 445 Z " /><path fill="rgb(196,225,254)" stroke="rgb(196,225,254)" stroke-width="1" opacity="0.996078431372549" d="M 357.5 445 L 361 445.5 L 357.5 446 L 357.5 445 Z " /><path fill="rgb(196,225,254)" stroke="rgb(196,225,254)" stroke-width="1" opacity="0.996078431372549" d="M 362.5 445 L 367 445.5 L 362.5 446 L 362.5 445 Z " /><path fill="rgb(0,0,0)" stroke="rgb(0,0,0)" stroke-width="1" opacity="0" d="M 0 0 L 512 0 L 512 219.5 L 511 219.5 L 507.5 214 Q 503.667 209.833 494.5 211 L 482.5 217 L 479 216 Q 480.984 156.246 468 110.5 Q 474.942 104.942 479 96.5 L 479 85.5 Q 476.893 77.607 470.5 74 L 460.5 71 Q 448.925 71.925 443.5 79 L 437.5 79 Q 325.594 62.406 193.5 66 Q 110.648 68.648 35.5 79 Q 30.139 69.861 13.5 72 Q 5.607 74.107 2 80.5 L 0.5 85 L 0 0 Z " /><path fill="rgb(0,0,0)" stroke="rgb(0,0,0)" stroke-width="1" opacity="0" d="M 0.5 97 Q 7.852 102.648 11 112.5 Q 0.732 142.732 0.5 183 L 0.5 97 Z " /><path fill="rgb(0,0,0)" stroke="rgb(0,0,0)" stroke-width="1" opacity="0" d="M 511.5 231 L 512 292.5 L 511 292.5 Q 511.119 262.881 504 240.5 L 511.5 231 Z " /><path fill="rgb(0,0,0)" stroke="rgb(0,0,0)" stroke-width="1" opacity="0" d="M 0.5 261 Q 0.622 302.378 11 333.5 Q 3.5 338 0.5 347 L 0.5 261 Z " /><path fill="rgb(0,0,0)" stroke="rgb(0,0,0)" stroke-width="1" opacity="0" d="M 0.5 358 Q 2.125 365.875 8.5 369 L 18.5 372 Q 28.829 371.329 33.5 365 L 39.5 365 Q 90.853 373.328 147 376 Q 147.75 395.625 153 411.5 Q 143.316 415.316 145 430.5 L 151.5 439 Q 155.143 441.857 162.5 441 Q 165.846 434.846 176.5 436 Q 264.645 449.355 369.5 446 Q 430.722 443.722 486.5 436 Q 490.465 442.035 501.5 441 L 510 435.5 L 511.5 432 L 512 512 L 0.5 512 L 0 511.5 L 0.5 358 Z " /><path fill="rgb(0,0,0)" stroke="rgb(0,0,0)" stroke-width="1" opacity="0" d="M 511.5 360 L 512 420.5 L 511 420.5 L 504 411.5 L 504 409.5 Q 511.962 388.962 511.5 360 Z " /><path fill="rgb(196,226,255)" stroke="rgb(196,226,255)" stroke-width="1" opacity="1" d="M 324.5 207 Q 400.778 206.222 466 216.5 Q 477.867 233.633 482 258.5 Q 487.13 295.37 486 338.5 Q 485.402 373.402 479 402.5 Q 474.148 425.148 458.5 437 L 454 438 Q 455.313 441.333 450.5 440 L 448.5 440 L 445.5 439 L 445 441 L 442.5 440 L 440.5 441 L 438.5 441 L 431.5 442 L 429.5 442 L 427.5 441 L 425.5 442 L 423.5 442 Q 412.833 441.333 405.5 444 L 403.5 443 L 401.5 444 L 399.5 444 L 397.5 443 L 389.5 445 L 385.5 444 L 383.5 445 L 379.5 445 Q 370.25 442.25 367.5 446 L 362.5 445 L 360.5 445 L 356.5 446 L 354.5 445 L 352.5 445 Q 349 447.5 341.5 446 L 339.5 446 L 309.5 446 L 308.5 445 L 306.5 446 L 304.5 445 L 302.5 445 L 300.5 446 L 297.5 445 L 292.5 446 L 291.5 445 Q 279.4 446.6 271.5 444 L 268.5 445 L 257.5 443 L 255.5 444 L 252.5 443 L 249.5 444 Q 246.417 440.083 237.5 442 L 235.5 442 L 230.5 441 L 228.5 442 L 226.5 442 L 205.5 439 L 203.5 440 L 199.5 438 L 196.5 439 L 188.5 437 L 186.5 438 L 182.5 436 L 180.5 437 L 177.5 436 L 173.5 435 L 171.5 435 Q 168.447 440.447 160.5 441 L 158.5 441 L 151 439 Q 151.545 433.811 147 433.5 L 145 429.5 L 145 427.5 L 146 423.5 Q 143.5 422 147 420.5 Q 146.5 416.5 149.5 416 L 152 414.5 L 154 410.5 L 152 407.5 Q 152.667 394.833 148 387.5 L 148 385.5 L 149 383.5 L 147 379.5 L 147 377.5 L 148 371.5 Q 142.471 338.529 146 296.5 Q 146.484 264.484 155 240.5 Q 144.2 237.3 146 221.5 L 152.5 214 Q 155.5 211 162.5 212 Q 165.438 218.563 175.5 218 Q 244.722 207.222 324.5 207 Z M 186 244 Q 177 252 176 269 Q 172 294 172 324 Q 170 371 182 406 Q 183 410 188 409 Q 196 401 197 386 Q 201 365 200 339 L 201 338 Q 204 283 190 245 L 186 244 Z " /></svg>