<svg width="512" height="512" version="1.1" xmlns="http://www.w3.org/2000/svg" desc="Created with imagetracer.js version 1.2.6" ><path fill="rgb(0,0,0)" stroke="rgb(0,0,0)" stroke-width="1" opacity="0" d="M 0 0 L 512 0 L 512 512 L 0 512 L 0 0 Z M 249 24 L 235 31 Q 227 37 224 49 L 224 104 Q 226 114 233 120 L 190 120 Q 177 122 169 128 L 113 183 L 88 168 L 88 142 L 86 138 Q 83 135 74 136 Q 67 142 64 151 L 36 144 L 31 145 L 26 151 Q 25 156 28 159 L 72 214 Q 83 227 104 232 Q 133 235 147 222 L 176 194 L 176 264 L 104 264 L 104 296 L 120 296 L 120 322 L 160 377 L 160 496 L 352 496 L 352 377 L 392 322 L 392 296 L 408 296 L 408 264 L 336 264 L 337 193 L 366 222 Q 375 229 389 232 Q 420 235 434 220 Q 463 191 486 155 L 485 149 L 479 144 L 449 151 Q 445 142 439 136 Q 429 135 426 138 L 424 142 L 424 168 L 401 183 L 344 128 Q 335 122 323 120 L 279 120 Q 286 114 288 104 L 288 56 L 298 52 L 304 44 Q 306 33 301 29 L 295 24 L 249 24 Z " /><path fill="rgb(254,205,182)" stroke="rgb(254,205,182)" stroke-width="1" opacity="0.9725490196078431" d="M 248.5 56 L 288 56 L 288 103.5 Q 285.494 113.994 278.5 120 Q 270.167 130.167 249.5 128 Q 238.11 124.89 231 117.5 Q 220.167 106.333 224 80.5 L 248.5 56 Z " /><path fill="rgb(254,205,182)" stroke="rgb(254,205,182)" stroke-width="1" opacity="0.9725490196078431" d="M 73.5 136 Q 82.875 134.5 86 138 L 88 141.5 L 88 167.5 L 55.5 192 L 28 158.5 Q 25.333 156.167 26 150.5 L 30.5 145 L 35.5 144 L 63.5 151 Q 66.547 141.547 73.5 136 Z " /><path fill="rgb(254,205,182)" stroke="rgb(254,205,182)" stroke-width="1" opacity="0.9725490196078431" d="M 429.5 136 Q 440.75 133.75 443 140.5 L 448.5 151 L 478.5 144 L 485 148.5 L 486 154.5 L 456.5 192 L 424 167.5 L 424 141.5 L 426 138 L 429.5 136 Z " /><path fill="rgb(254,205,182)" stroke="rgb(254,205,182)" stroke-width="1" opacity="0.9725490196078431" d="M 77.5 218 L 78.5 220 L 77.5 218 Z " /><path fill="rgb(254,205,182)" stroke="rgb(254,205,182)" stroke-width="1" opacity="0.9725490196078431" d="M 434.5 218 L 433.5 220 L 434.5 218 Z " /><path fill="rgb(90,143,254)" stroke="rgb(90,143,254)" stroke-width="1" opacity="0.9921568627450981" d="M 189.5 120 L 234.5 120 Q 241.539 127.461 255 128.5 L 240 144.5 L 248 161.5 L 239 195.5 L 255.5 215 L 261 210.5 L 273 194.5 L 264 159.5 L 272 143.5 L 257.5 128 Q 270.946 127.446 277.5 120 L 322.5 120 Q 337.688 122.812 347.5 131 L 400.5 183 L 422.5 168 L 424.5 168 L 456 192.5 L 435.5 218 Q 421.794 234.794 388.5 232 Q 374.704 229.296 365.5 222 L 336.5 193 L 336 264 L 176 264 L 176 193.5 L 146.5 222 Q 132.814 234.814 103.5 232 Q 84.18 227.32 73 214.5 L 56 192.5 L 87.5 168 L 89.5 168 L 112.5 183 L 164.5 131 Q 174.604 123.104 189.5 120 Z " /><path fill="rgb(218,132,55)" stroke="rgb(218,132,55)" stroke-width="1" opacity="0.996078431372549" d="M 248.5 24 L 294.5 24 L 301 28.5 Q 305.875 32.625 304 43.5 L 297.5 52 L 289.5 56 L 248.5 56 L 224.5 80 L 224 48.5 Q 226.892 37.392 234.5 31 L 248.5 24 Z " /><path fill="rgb(218,132,55)" stroke="rgb(218,132,55)" stroke-width="1" opacity="0.996078431372549" d="M 255.5 128 L 272 143.5 L 264 161.5 L 273 195.5 L 256.5 215 L 251 210.5 L 239 194.5 L 248 159.5 L 240 143.5 L 255.5 128 Z " /><path fill="rgb(218,132,55)" stroke="rgb(218,132,55)" stroke-width="1" opacity="0.996078431372549" d="M 104 264 L 407.5 264 L 408 264.5 L 408 296 L 392 296 L 392 321.5 L 352 376.5 L 352 496 L 160 496 L 160 376.5 L 120 321.5 L 120 296 L 104 296 L 104 264 Z " /></svg>