<svg width="512" height="512" version="1.1" xmlns="http://www.w3.org/2000/svg" desc="Created with imagetracer.js version 1.2.6" ><path fill="rgb(0,0,0)" stroke="rgb(0,0,0)" stroke-width="1" opacity="0" d="M 0 0 L 268 0.5 L 263.5 3 L 232.5 34 L 83.5 34 Q 76.321 35.821 73 41.5 L 71 45.5 L 71 500.5 Q 72.536 506.964 77.5 510 L 81 511.5 L 0 512 L 0 0 Z " /><path fill="rgb(0,0,0)" stroke="rgb(0,0,0)" stroke-width="1" opacity="0" d="M 280.5 0 L 512 0 L 512 512 L 431 511.5 L 439 505.5 L 441 500.5 L 441 45.5 L 437 38 L 428.5 34 L 281 33.5 Q 292.348 28.848 291 11.5 L 287 4 Q 279.85 3.2 280.5 0 Z " /><path fill="rgb(235,229,238)" stroke="rgb(235,229,238)" stroke-width="1" opacity="0.9921568627450981" d="M 268.5 0 Q 282.063 -1.833 287 4 Q 292.5 8.313 291 20.5 Q 288.321 29.821 280.5 34 L 247.5 66 Q 243.4 69.9 234.5 69 L 226 65 Q 220.5 60.688 222 48.5 Q 239.404 22.404 263.5 3 L 268.5 0 Z " /><path fill="rgb(235,229,238)" stroke="rgb(235,229,238)" stroke-width="1" opacity="0.9921568627450981" d="M 364.5 59 L 390.5 59 L 395 62.5 L 396 69.5 L 393.5 73 L 389.5 75 L 365.5 75 L 361 73 Q 358.167 71.042 359 64.5 L 362.5 60 L 364.5 59 Z " /><path fill="rgb(235,229,238)" stroke="rgb(235,229,238)" stroke-width="1" opacity="0.9921568627450981" d="M 123.5 411 L 388.5 411 L 395 414.5 L 396 422.5 L 390.5 427 L 121.5 427 L 116 422.5 Q 114.75 415.25 118.5 413 L 123.5 411 Z " /><path fill="rgb(235,229,238)" stroke="rgb(235,229,238)" stroke-width="1" opacity="0.9921568627450981" d="M 122.5 442 L 164.5 442 L 169 444 Q 171.833 445.958 171 452.5 L 167.5 457 L 164.5 458 L 121.5 458 L 117 454.5 L 116 447.5 L 119.5 443 L 122.5 442 Z " /><path fill="rgb(235,229,238)" stroke="rgb(235,229,238)" stroke-width="1" opacity="0.9921568627450981" d="M 198.5 442 L 389.5 442 L 395 445.5 L 396 452.5 L 392.5 457 L 390.5 458 L 197.5 458 L 193 454.5 L 192 447.5 L 195.5 443 L 198.5 442 Z " /><path fill="rgb(235,229,238)" stroke="rgb(235,229,238)" stroke-width="1" opacity="0.9921568627450981" d="M 197.5 473 L 314.5 473 L 319 476.5 L 320 483.5 L 316.5 488 L 313.5 489 L 198.5 489 L 193 485.5 L 192 478.5 L 195.5 474 L 197.5 473 Z " /><path fill="rgb(103,122,214)" stroke="rgb(103,122,214)" stroke-width="1" opacity="0.9921568627450981" d="M 385.5 34 L 428.5 34 Q 435.679 35.821 439 41.5 L 441 45.5 L 441 500.5 Q 439.464 506.964 434.5 510 L 430.5 512 L 387.5 512 L 387.5 511 Q 395.583 510.583 398 504.5 L 400 500.5 L 400 287.5 Q 405.6 284.1 404 273.5 L 400 268.5 L 400 215.5 Q 405.6 212.1 404 201.5 L 400 195.5 L 400 46.5 Q 398.75 40.75 394.5 38 Q 391.543 34.957 385.5 35 L 385.5 34 Z " /><path fill="rgb(254,224,118)" stroke="rgb(254,224,118)" stroke-width="1" opacity="1" d="M 212.5 96 L 209.5 100 L 212.5 96 Z " /><path fill="rgb(254,224,118)" stroke="rgb(254,224,118)" stroke-width="1" opacity="1" d="M 299.5 96 L 302.5 100 L 299.5 96 Z " /><path fill="rgb(254,224,118)" stroke="rgb(254,224,118)" stroke-width="1" opacity="1" d="M 228.5 97 L 231.5 101 L 228.5 97 Z " /><path fill="rgb(254,224,118)" stroke="rgb(254,224,118)" stroke-width="1" opacity="1" d="M 283.5 97 L 281.5 100 L 283.5 97 Z " /><path fill="rgb(254,224,118)" stroke="rgb(254,224,118)" stroke-width="1" opacity="1" d="M 243.5 113 L 248.5 119 L 243.5 113 Z " /><path fill="rgb(254,224,118)" stroke="rgb(254,224,118)" stroke-width="1" opacity="1" d="M 268.5 113 L 263.5 119 L 268.5 113 Z " /><path fill="rgb(254,224,118)" stroke="rgb(254,224,118)" stroke-width="1" opacity="1" d="M 148.5 133 L 147.5 135 L 148.5 133 Z " /><path fill="rgb(254,224,118)" stroke="rgb(254,224,118)" stroke-width="1" opacity="1" d="M 363.5 133 L 364.5 135 L 363.5 133 Z " /><path fill="rgb(254,224,118)" stroke="rgb(254,224,118)" stroke-width="1" opacity="1" d="M 199.5 134 L 196.5 138 L 199.5 134 Z " /><path fill="rgb(254,224,118)" stroke="rgb(254,224,118)" stroke-width="1" opacity="1" d="M 312.5 134 L 315.5 138 L 312.5 134 Z " /><path fill="rgb(254,224,118)" stroke="rgb(254,224,118)" stroke-width="1" opacity="1" d="M 235.5 173 L 287 173.5 L 235.5 174 L 235.5 173 Z " /><path fill="rgb(254,224,118)" stroke="rgb(254,224,118)" stroke-width="1" opacity="1" d="M 230.5 175 L 229.5 177 L 230.5 175 Z " /><path fill="rgb(254,224,118)" stroke="rgb(254,224,118)" stroke-width="1" opacity="1" d="M 291.5 175 L 292.5 177 L 291.5 175 Z " /><path fill="rgb(254,224,118)" stroke="rgb(254,224,118)" stroke-width="1" opacity="1" d="M 227.5 177 L 226.5 179 L 227.5 177 Z " /><path fill="rgb(254,224,118)" stroke="rgb(254,224,118)" stroke-width="1" opacity="1" d="M 294.5 177 L 295.5 179 L 294.5 177 Z " /><path fill="rgb(254,224,118)" stroke="rgb(254,224,118)" stroke-width="1" opacity="1" d="M 225.5 180 L 225 181.5 L 224.5 183 L 224 181.5 L 225.5 180 Z " /><path fill="rgb(254,224,118)" stroke="rgb(254,224,118)" stroke-width="1" opacity="1" d="M 296.5 180 L 297.5 182 L 296.5 180 Z " /><path fill="rgb(254,224,118)" stroke="rgb(254,224,118)" stroke-width="1" opacity="1" d="M 151.5 182 L 149.5 185 L 151.5 182 Z " /><path fill="rgb(254,224,118)" stroke="rgb(254,224,118)" stroke-width="1" opacity="1" d="M 360.5 182 L 362.5 185 L 360.5 182 Z " /><path fill="rgb(254,224,118)" stroke="rgb(254,224,118)" stroke-width="1" opacity="1" d="M 113.5 195 L 110.5 199 L 113.5 195 Z " /><path fill="rgb(254,224,118)" stroke="rgb(254,224,118)" stroke-width="1" opacity="1" d="M 398.5 195 Q 405.058 197.442 404 207.5 Q 400.464 218.964 390.5 224 L 400 213.5 Q 402.4 199 398.5 195 Z " /><path fill="rgb(254,224,118)" stroke="rgb(254,224,118)" stroke-width="1" opacity="1" d="M 108.5 203 L 109 207.5 L 108 207.5 L 108.5 203 Z " /><path fill="rgb(254,224,118)" stroke="rgb(254,224,118)" stroke-width="1" opacity="1" d="M 214.5 203 L 223 203.5 L 214.5 204 L 214.5 203 Z " /><path fill="rgb(254,224,118)" stroke="rgb(254,224,118)" stroke-width="1" opacity="1" d="M 208.5 205 L 206.5 208 L 208.5 205 Z " /><path fill="rgb(254,224,118)" stroke="rgb(254,224,118)" stroke-width="1" opacity="1" d="M 204.5 211 L 205 230.5 L 204 230.5 L 204.5 211 Z " /><path fill="rgb(254,224,118)" stroke="rgb(254,224,118)" stroke-width="1" opacity="1" d="M 111.5 213 L 121.5 224 L 111.5 213 Z " /><path fill="rgb(254,224,118)" stroke="rgb(254,224,118)" stroke-width="1" opacity="1" d="M 205.5 233 L 208 237.5 L 206 236.5 L 205.5 233 Z " /><path fill="rgb(254,224,118)" stroke="rgb(254,224,118)" stroke-width="1" opacity="1" d="M 208.5 239 L 210.5 242 L 208.5 239 Z " /><path fill="rgb(254,224,118)" stroke="rgb(254,224,118)" stroke-width="1" opacity="1" d="M 211.5 243 L 213.5 246 L 211.5 243 Z " /><path fill="rgb(254,224,118)" stroke="rgb(254,224,118)" stroke-width="1" opacity="1" d="M 214.5 247 L 216.5 250 L 214.5 247 Z " /><path fill="rgb(254,224,118)" stroke="rgb(254,224,118)" stroke-width="1" opacity="1" d="M 133.5 248 L 127.5 255 L 133.5 248 Z " /><path fill="rgb(254,224,118)" stroke="rgb(254,224,118)" stroke-width="1" opacity="1" d="M 378.5 248 L 384.5 255 L 378.5 248 Z " /><path fill="rgb(254,224,118)" stroke="rgb(254,224,118)" stroke-width="1" opacity="1" d="M 217.5 251 L 218.5 253 L 217.5 251 Z " /><path fill="rgb(254,224,118)" stroke="rgb(254,224,118)" stroke-width="1" opacity="1" d="M 288.5 255 L 289 258.5 L 288 258.5 L 288.5 255 Z " /><path fill="rgb(254,224,118)" stroke="rgb(254,224,118)" stroke-width="1" opacity="1" d="M 114.5 266 L 111.5 270 L 114.5 266 Z " /><path fill="rgb(254,224,118)" stroke="rgb(254,224,118)" stroke-width="1" opacity="1" d="M 397.5 266 Q 404.396 269.604 404 280.5 L 400.5 286 Q 402.933 270.353 397.5 266 Z " /><path fill="rgb(254,224,118)" stroke="rgb(254,224,118)" stroke-width="1" opacity="1" d="M 288.5 267 L 289 273.5 L 288 273.5 L 288.5 267 Z " /><path fill="rgb(254,224,118)" stroke="rgb(254,224,118)" stroke-width="1" opacity="1" d="M 110.5 271 L 109.5 273 L 110.5 271 Z " /><path fill="rgb(254,224,118)" stroke="rgb(254,224,118)" stroke-width="1" opacity="1" d="M 221.5 273 L 222 280.5 L 221 280.5 L 221.5 273 Z " /><path fill="rgb(254,224,118)" stroke="rgb(254,224,118)" stroke-width="1" opacity="1" d="M 108.5 275 L 109 279.5 L 108 279.5 L 108.5 275 Z " /><path fill="rgb(254,224,118)" stroke="rgb(254,224,118)" stroke-width="1" opacity="1" d="M 289.5 280 L 290 286.5 L 289 286.5 L 289.5 280 Z " /><path fill="rgb(254,224,118)" stroke="rgb(254,224,118)" stroke-width="1" opacity="1" d="M 113.5 287 L 114.5 289 L 113.5 287 Z " /><path fill="rgb(254,224,118)" stroke="rgb(254,224,118)" stroke-width="1" opacity="1" d="M 220.5 287 L 221 293.5 L 220 293.5 L 220.5 287 Z " /><path fill="rgb(254,224,118)" stroke="rgb(254,224,118)" stroke-width="1" opacity="1" d="M 398.5 287 L 397.5 289 L 398.5 287 Z " /><path fill="rgb(254,224,118)" stroke="rgb(254,224,118)" stroke-width="1" opacity="1" d="M 290.5 294 L 291 300.5 L 290 300.5 L 290.5 294 Z " /><path fill="rgb(254,224,118)" stroke="rgb(254,224,118)" stroke-width="1" opacity="1" d="M 149.5 298 L 151.5 301 L 149.5 298 Z " /><path fill="rgb(254,224,118)" stroke="rgb(254,224,118)" stroke-width="1" opacity="1" d="M 362.5 298 L 360.5 301 L 362.5 298 Z " /><path fill="rgb(254,224,118)" stroke="rgb(254,224,118)" stroke-width="1" opacity="1" d="M 219.5 300 L 220 307.5 L 219 307.5 L 219.5 300 Z " /><path fill="rgb(254,224,118)" stroke="rgb(254,224,118)" stroke-width="1" opacity="1" d="M 291.5 307 L 292 313.5 L 291 313.5 L 291.5 307 Z " /><path fill="rgb(254,224,118)" stroke="rgb(254,224,118)" stroke-width="1" opacity="1" d="M 218.5 314 L 219 320.5 L 218 320.5 L 218.5 314 Z " /><path fill="rgb(254,224,118)" stroke="rgb(254,224,118)" stroke-width="1" opacity="1" d="M 292.5 320 L 293 327.5 L 292 327.5 L 292.5 320 Z " /><path fill="rgb(254,224,118)" stroke="rgb(254,224,118)" stroke-width="1" opacity="1" d="M 217.5 327 L 218 333.5 L 217 333.5 L 217.5 327 Z " /><path fill="rgb(254,224,118)" stroke="rgb(254,224,118)" stroke-width="1" opacity="1" d="M 293.5 334 L 294 340.5 L 293 340.5 L 293.5 334 Z " /><path fill="rgb(254,224,118)" stroke="rgb(254,224,118)" stroke-width="1" opacity="1" d="M 216.5 341 L 217 347.5 L 216 347.5 L 216.5 341 Z " /><path fill="rgb(254,224,118)" stroke="rgb(254,224,118)" stroke-width="1" opacity="1" d="M 197.5 346 L 198.5 348 L 197.5 346 Z " /><path fill="rgb(254,224,118)" stroke="rgb(254,224,118)" stroke-width="1" opacity="1" d="M 314.5 346 L 313.5 348 L 314.5 346 Z " /><path fill="rgb(254,224,118)" stroke="rgb(254,224,118)" stroke-width="1" opacity="1" d="M 294.5 347 L 295 354.5 L 294 354.5 L 294.5 347 Z " /><path fill="rgb(254,224,118)" stroke="rgb(254,224,118)" stroke-width="1" opacity="1" d="M 147.5 348 L 149.5 351 L 147.5 348 Z " /><path fill="rgb(254,224,118)" stroke="rgb(254,224,118)" stroke-width="1" opacity="1" d="M 364.5 348 L 362.5 351 L 364.5 348 Z " /><path fill="rgb(254,224,118)" stroke="rgb(254,224,118)" stroke-width="1" opacity="1" d="M 215.5 354 L 216 360.5 L 215 360.5 L 215.5 354 Z " /><path fill="rgb(254,224,118)" stroke="rgb(254,224,118)" stroke-width="1" opacity="1" d="M 295.5 361 L 296 367.5 L 295 367.5 L 295.5 361 Z " /><path fill="rgb(254,224,118)" stroke="rgb(254,224,118)" stroke-width="1" opacity="1" d="M 214.5 368 L 215 374.5 L 214 374.5 L 214.5 368 Z " /><path fill="rgb(254,224,118)" stroke="rgb(254,224,118)" stroke-width="1" opacity="1" d="M 296.5 374 L 297 381.5 L 296 381.5 L 296.5 374 Z " /><path fill="rgb(254,224,118)" stroke="rgb(254,224,118)" stroke-width="1" opacity="1" d="M 213.5 381 L 214 387 L 212 386.5 L 213.5 381 Z " /><path fill="rgb(254,224,118)" stroke="rgb(254,224,118)" stroke-width="1" opacity="1" d="M 299.5 386 L 298.5 388 L 299.5 386 Z " /><path fill="rgb(213,133,116)" stroke="rgb(213,133,116)" stroke-width="1" opacity="0.996078431372549" d="M 280.5 100 L 268.5 113 L 280.5 100 Z " /><path fill="rgb(213,133,116)" stroke="rgb(213,133,116)" stroke-width="1" opacity="0.996078431372549" d="M 232.5 101 L 244.5 114 L 232.5 101 Z " /><path fill="rgb(213,133,116)" stroke="rgb(213,133,116)" stroke-width="1" opacity="0.996078431372549" d="M 189.5 138 L 193 138.5 L 189.5 139 L 189.5 138 Z " /><path fill="rgb(213,133,116)" stroke="rgb(213,133,116)" stroke-width="1" opacity="0.996078431372549" d="M 319.5 138 L 323 138.5 L 319.5 139 L 319.5 138 Z " /><path fill="rgb(213,133,116)" stroke="rgb(213,133,116)" stroke-width="1" opacity="0.996078431372549" d="M 144.5 140 L 145 144.5 L 144 144.5 L 144.5 140 Z " /><path fill="rgb(213,133,116)" stroke="rgb(213,133,116)" stroke-width="1" opacity="0.996078431372549" d="M 367.5 140 L 368 144.5 L 367 144.5 L 367.5 140 Z " /><path fill="rgb(213,133,116)" stroke="rgb(213,133,116)" stroke-width="1" opacity="0.996078431372549" d="M 234.5 174 L 287.5 174 L 296 179.5 L 299 185.5 L 299 219.5 L 288 255.5 L 288 273.5 L 289 274.5 Q 290.793 334.277 297 389 L 291.5 390 L 285.5 388 L 264 366.5 Q 264.75 364.25 262.5 365 Q 260.571 360.929 253.5 362 L 248 365 L 248 366.5 L 226.5 388 L 219.5 390 L 213 387.5 L 214 386.5 Q 215.068 345.068 220 307.5 L 220 294.5 L 221 293.5 Q 218 283.5 222 280.5 L 222 259.5 Q 215.959 243.541 205 232.5 L 205 210.5 L 209.5 205 Q 214.062 202 223 204 Q 219.7 184.908 228.5 177 L 234.5 174 Z " /><path fill="rgb(213,133,116)" stroke="rgb(213,133,116)" stroke-width="1" opacity="0.996078431372549" d="M 122.5 224 L 133.5 236 L 122.5 224 Z " /><path fill="rgb(213,133,116)" stroke="rgb(213,133,116)" stroke-width="1" opacity="0.996078431372549" d="M 389.5 224 L 378.5 236 L 389.5 224 Z " /><path fill="rgb(213,133,116)" stroke="rgb(213,133,116)" stroke-width="1" opacity="0.996078431372549" d="M 135.5 240 L 136 243.5 L 135 243.5 L 135.5 240 Z " /><path fill="rgb(213,133,116)" stroke="rgb(213,133,116)" stroke-width="1" opacity="0.996078431372549" d="M 376.5 240 L 377 243.5 L 376 243.5 L 376.5 240 Z " /><path fill="rgb(213,133,116)" stroke="rgb(213,133,116)" stroke-width="1" opacity="0.996078431372549" d="M 383.5 252 L 396.5 266 L 383.5 252 Z " /><path fill="rgb(213,133,116)" stroke="rgb(213,133,116)" stroke-width="1" opacity="0.996078431372549" d="M 126.5 254 L 115.5 266 L 126.5 254 Z " /><path fill="rgb(213,133,116)" stroke="rgb(213,133,116)" stroke-width="1" opacity="0.996078431372549" d="M 401.5 285 L 399.5 288 L 401.5 285 Z " /><path fill="rgb(213,133,116)" stroke="rgb(213,133,116)" stroke-width="1" opacity="0.996078431372549" d="M 111.5 286 L 112.5 288 L 111.5 286 Z " /><path fill="rgb(213,133,116)" stroke="rgb(213,133,116)" stroke-width="1" opacity="0.996078431372549" d="M 144.5 338 L 145 342.5 L 144 342.5 L 144.5 338 Z " /><path fill="rgb(213,133,116)" stroke="rgb(213,133,116)" stroke-width="1" opacity="0.996078431372549" d="M 367.5 338 L 368 342.5 L 367 342.5 L 367.5 338 Z " /><path fill="rgb(213,133,116)" stroke="rgb(213,133,116)" stroke-width="1" opacity="0.996078431372549" d="M 210.5 385 L 211.5 387 L 210.5 385 Z " /><path fill="rgb(213,133,116)" stroke="rgb(213,133,116)" stroke-width="1" opacity="0.996078431372549" d="M 301.5 385 L 300.5 387 L 301.5 385 Z " /><path fill="rgb(255,225,119)" stroke="rgb(255,225,119)" stroke-width="1" opacity="1" d="M 217.5 94 Q 223.571 93.429 226.5 96 L 243 112.5 L 248.5 119 L 256.5 122 Q 264.85 119.85 269 113.5 L 285.5 96 Q 288.429 93.429 294.5 94 L 303 100.5 L 311 132.5 L 315.5 138 L 324.5 139 L 355.5 130 Q 362.125 130.875 365 135.5 Q 368 138.5 367 145.5 L 359 171.5 L 359 180.5 L 362.5 185 Q 375.045 191.955 393.5 193 L 400 197.5 L 400 213.5 L 377 236.5 L 376 244.5 L 384.5 255 L 400 269.5 L 400 286.5 L 398.5 287 Q 384.708 295.208 364.5 297 L 360 300.5 Q 357.5 304 359 311.5 Q 366.009 324.491 367 343.5 L 361.5 351 L 353.5 353 Q 338.976 345.524 318.5 344 L 313 347.5 Q 306.693 360.193 305 377.5 L 300.5 386 L 297.5 388 L 288 259.5 L 299 221.5 L 299 183.5 L 294.5 177 L 286.5 173 L 235.5 173 L 226 178.5 Q 219.833 186.452 223 203 Q 210.866 201.223 206 207.5 Q 200.833 214.833 204 230.5 Q 208.428 246.572 220 255.5 Q 223.375 261.625 222 272.5 L 221 273.5 L 221 286.5 L 220 287.5 Q 218.562 339.148 213 386 L 210 384.5 Q 203.693 371.807 202 354.5 L 197.5 346 Q 194.833 343.167 188.5 344 Q 173.432 349.932 155.5 353 Q 149.036 351.464 146 346.5 L 145 337.5 L 153 311.5 L 153 302.5 L 149.5 298 Q 126.584 295.416 111 285.5 Q 107.667 281.833 109 273.5 L 126.5 255 L 134 248.5 Q 137 245.5 136 238.5 L 110 211.5 Q 107.667 208.333 109 201.5 L 114.5 195 Q 127.045 188.045 145.5 187 L 152 182.5 Q 154.5 179 153 171.5 Q 145.991 158.509 145 139.5 L 150.5 132 L 157.5 130 L 187.5 139 L 194.5 139 L 200 134.5 L 208 102.5 L 213.5 96 L 217.5 94 Z " /><path fill="rgb(108,127,216)" stroke="rgb(108,127,216)" stroke-width="1" opacity="1" d="M 84.5 34 L 233 34.5 Q 219.479 38.479 222 58.5 L 227.5 66 Q 231.667 70.333 241.5 69 L 247.5 66 L 279.5 34 L 384.5 34 Q 393.729 35.271 398 41.5 L 400 46.5 L 400 195.5 L 402 197.5 L 397.5 194 L 365.5 186 L 361 182.5 Q 358.333 180.167 359 174.5 Q 366.17 160.17 368 140.5 Q 366.75 134.75 362.5 132 Q 359.167 128.833 351.5 130 L 325.5 138 L 317.5 138 L 313 134.5 L 304 100.5 L 298.5 95 Q 295 92.5 287.5 94 L 268 112.5 L 262.5 119 Q 259.833 121.833 253.5 121 L 245 114.5 L 227.5 96 Q 224.3 92.2 215.5 94 L 208 100.5 Q 206.583 123.083 196.5 137 Q 193.333 139.333 186.5 138 L 160.5 130 L 153.5 130 L 146 135.5 Q 143.429 138.429 144 144.5 Q 151.17 158.83 153 178.5 L 148.5 185 L 116.5 193 L 109 199.5 L 108 208.5 L 110 212.5 L 135 237.5 L 135 245.5 L 127.5 254 L 110 270.5 Q 107 273.5 108 280.5 L 112.5 288 Q 125.193 294.307 142.5 296 L 151 300.5 Q 153.833 303.167 153 309.5 Q 145.742 323.242 144 342.5 Q 145.536 348.964 150.5 352 Q 154 354.5 161.5 353 L 187.5 345 L 194.5 345 L 199 348.5 L 207 379.5 L 211.5 387 L 219.5 390 L 226.5 388 L 248 366.5 Q 247.25 364.25 249.5 365 Q 251.429 360.929 258.5 362 L 264 365 L 264 366.5 L 285.5 388 L 292.5 390 L 302 385.5 Q 308.629 371.629 311 353.5 L 314.5 347 Q 317.1 343.6 324.5 345 L 350.5 353 L 359.5 353 L 366 347.5 Q 368.571 344.571 368 338.5 L 359 309.5 L 359 304.5 L 362.5 299 Q 383.888 295.024 400 288 L 400 500.5 L 392.5 510 L 386.5 512 L 81.5 512 L 74 506.5 L 71 500.5 L 71 46.5 Q 72.536 40.036 77.5 37 L 84.5 34 Z M 365 59 L 363 60 L 359 65 Q 358 71 361 73 L 366 75 L 390 75 L 394 73 L 396 70 L 395 63 L 391 59 L 365 59 Z M 124 411 L 119 413 Q 115 415 116 423 L 122 427 L 391 427 L 396 423 L 395 415 L 389 411 L 124 411 Z M 123 442 L 120 443 L 116 448 L 117 455 L 122 458 L 165 458 L 168 457 L 171 453 Q 172 446 169 444 L 165 442 L 123 442 Z M 199 442 L 196 443 L 192 448 L 193 455 L 198 458 L 391 458 L 393 457 L 396 453 L 395 446 L 390 442 L 199 442 Z M 198 473 L 196 474 L 192 479 L 193 486 L 199 489 L 314 489 L 317 488 L 320 484 L 319 477 L 315 473 L 198 473 Z " /><path fill="rgb(108,127,216)" stroke="rgb(108,127,216)" stroke-width="1" opacity="1" d="M 400.5 214 L 400 215.5 L 399.5 268 L 379 248.5 Q 375.4 245.6 377 237.5 L 400.5 214 Z " /></svg>