<svg width="512" height="512" version="1.1" xmlns="http://www.w3.org/2000/svg" desc="Created with imagetracer.js version 1.2.6" ><path fill="rgb(244,216,202)" stroke="rgb(244,216,202)" stroke-width="1" opacity="0.9921568627450981" d="M 139.5 46 Q 188.231 44.269 208 71.5 Q 229.167 90.333 227 132.5 Q 222.427 163.427 203.5 180 Q 184.453 203.453 139.5 201 Q 105.331 194.669 88 171.5 Q 70 151.5 72 111.5 Q 77.953 81.453 97.5 65 Q 113.187 50.187 139.5 46 Z " /><path fill="rgb(0,0,0)" stroke="rgb(0,0,0)" stroke-width="1" opacity="0" d="M 0 0 L 512 0 L 512 512 L 0 512 L 0 0 Z M 140 46 Q 113 50 98 65 Q 73 84 72 126 Q 51 130 37 142 Q 21 153 16 175 L 16 293 L 21 304 Q 30 318 56 316 L 53 326 L 53 432 Q 55 444 61 452 Q 69 462 85 466 Q 105 468 115 459 Q 127 451 130 434 L 130 388 L 169 388 L 169 434 Q 171 444 176 451 Q 184 462 201 466 Q 221 468 231 459 Q 243 450 246 432 L 246 325 L 243 316 Q 263 317 273 309 Q 280 303 283 293 L 283 175 Q 280 161 273 153 Q 256 133 227 126 Q 227 90 208 72 Q 188 44 140 46 Z M 388 139 Q 355 143 337 161 Q 312 181 306 220 Q 304 267 328 290 Q 348 314 388 320 Q 436 321 459 296 Q 482 276 487 238 Q 488 189 462 167 Q 439 138 388 139 Z M 302 351 L 300 352 L 296 358 Q 299 394 318 415 Q 342 447 393 452 Q 438 451 462 428 Q 489 407 496 366 Q 498 357 495 354 L 492 351 L 302 351 Z " /><path fill="rgb(96,183,254)" stroke="rgb(96,183,254)" stroke-width="1" opacity="0.996078431372549" d="M 227 126 Q 254.521 132.173 271 150.5 Q 280.275 159.725 283 175.5 L 283 292.5 Q 280.913 301.067 276 306 Q 272.783 305.4 272.5 308 Q 263.85 317.35 243.5 315 Q 239.211 305.289 231.5 299 Q 221.5 289 199.5 291 Q 184.904 294.904 177 305.5 Q 170.014 313.514 169 327.5 L 169 388 Q 159.818 390.75 157 386.5 L 157 329.5 L 158 328.5 Q 156.5 321 159 317.5 L 149.5 309 L 140 317.5 L 142 328.5 L 142 386.5 Q 139.182 390.75 130 388 L 130 325.5 Q 127.75 324.25 129 319.5 Q 124.75 305.75 114.5 298 Q 105.386 288.614 84.5 291 Q 70.678 294.178 63 303.5 L 55.5 315 Q 43.917 317.75 44 313.5 Q 48.39 300.39 57.5 292 Q 70.104 277.104 99.5 279 Q 119.529 282.971 130 296.5 L 133.5 302 Q 143.015 297.015 141 280.5 Q 138.607 271.893 131.5 268 L 120.5 265 L 65.5 265 L 61 260.5 L 61 196.5 L 65.5 192 Q 73.813 190.688 76 195.5 L 77 198.5 L 77 249 Q 105.95 246.5 129.5 250 Q 142.602 253.398 149.5 263 Q 156.5 253.5 169.5 250 Q 193.05 246.5 222 249 L 222 198.5 L 225.5 193 L 233.5 192 L 238 196.5 L 238 260.5 L 233.5 265 L 178.5 265 Q 177.25 267.25 172.5 266 Q 163.893 268.393 160 275.5 Q 156.429 280.929 158 291.5 Q 160.25 298.25 165.5 302 L 175.5 290 Q 188.282 277.282 215.5 279 Q 233.432 283.068 244 294.5 L 252.5 307 L 257 303.5 Q 261.905 298.405 263 289.5 L 263 178.5 Q 259.151 154.349 242.5 143 L 227 133.5 L 227 126 Z " /><path fill="rgb(137,200,253)" stroke="rgb(137,200,253)" stroke-width="1" opacity="0.9921568627450981" d="M 69.5 126 Q 74.5 124.625 72 131.5 Q 77.604 167.396 101.5 185 Q 121.069 203.431 161.5 201 Q 189.889 195.389 206 177.5 Q 222.839 161.839 226.5 133 Q 242.462 140.538 253 153.5 Q 260.878 163.122 263 178.5 L 263 289.5 Q 260.837 300.837 253.5 307 L 251 305.5 Q 247.443 296.557 240.5 291 Q 227.847 277.153 199.5 279 Q 179.536 283.036 169 296.5 L 165.5 302 Q 155.985 297.015 158 280.5 Q 160.393 271.893 167.5 268 L 178.5 265 L 233.5 265 L 238 260.5 L 238 196.5 L 233.5 192 Q 225.188 190.688 223 195.5 L 222 198.5 L 222 249 Q 193.05 246.5 169.5 250 Q 156.5 253.5 149.5 263 Q 142.602 253.398 129.5 250 Q 105.95 246.5 77 249 L 77 198.5 L 73.5 193 L 65.5 192 L 61 196.5 L 61 260.5 L 65.5 265 L 120.5 265 Q 121.75 267.25 126.5 266 Q 135.107 268.393 139 275.5 Q 142.571 280.929 141 291.5 Q 138.75 298.25 133.5 302 L 123.5 290 Q 110.718 277.282 83.5 279 Q 65.568 283.068 55 294.5 Q 47.087 302.782 44 315 Q 28.442 313.769 21 303.5 L 16 292.5 L 16 174.5 Q 21.082 153.082 36.5 142 Q 50.464 131.464 69.5 126 Z " /><path fill="rgb(137,200,253)" stroke="rgb(137,200,253)" stroke-width="1" opacity="0.9921568627450981" d="M 263.5 143 L 264.5 145 L 263.5 143 Z " /><path fill="rgb(137,200,253)" stroke="rgb(137,200,253)" stroke-width="1" opacity="0.9921568627450981" d="M 271.5 151 L 272.5 153 L 271.5 151 Z " /><path fill="rgb(137,200,253)" stroke="rgb(137,200,253)" stroke-width="1" opacity="0.9921568627450981" d="M 66.5 300 L 63.5 304 L 66.5 300 Z " /><path fill="rgb(137,200,253)" stroke="rgb(137,200,253)" stroke-width="1" opacity="0.9921568627450981" d="M 277.5 303 L 276.5 305 L 277.5 303 Z " /><path fill="rgb(137,200,253)" stroke="rgb(137,200,253)" stroke-width="1" opacity="0.9921568627450981" d="M 149.5 309 L 159 317.5 Q 156.5 321 158 328.5 L 157 329.5 L 157 386.5 L 157.5 388 L 141 387.5 L 142 386.5 L 142 328.5 L 140 317.5 L 149.5 309 Z " /><path fill="rgb(137,200,253)" stroke="rgb(137,200,253)" stroke-width="1" opacity="0.9921568627450981" d="M 169.5 327 L 170 387.5 L 169 387.5 L 169.5 327 Z " /><path fill="rgb(254,209,87)" stroke="rgb(254,209,87)" stroke-width="1" opacity="0.9882352941176471" d="M 387.5 139 Q 439.215 138.285 462 166.5 Q 487.507 188.993 487 237.5 Q 482.036 276.036 458.5 296 Q 435.772 320.772 387.5 320 Q 348.466 314.034 328 289.5 Q 304.446 267.054 306 219.5 Q 312.296 181.296 336.5 161 Q 355.476 143.476 387.5 139 Z " /><path fill="rgb(145,133,146)" stroke="rgb(145,133,146)" stroke-width="1" opacity="0.984313725490196" d="M 84.5 291 Q 112.196 289.304 122 305.5 Q 128.489 313.011 130 325.5 L 130 433.5 Q 126.639 450.639 114.5 459 Q 105.13 468.13 84.5 466 Q 69.143 462.357 61 451.5 Q 54.604 443.896 53 431.5 L 53 325.5 Q 56.69 306.19 70.5 297 L 84.5 291 Z " /><path fill="rgb(145,133,146)" stroke="rgb(145,133,146)" stroke-width="1" opacity="0.984313725490196" d="M 199.5 291 Q 226.986 289.014 237 304.5 Q 244.299 312.201 246 325.5 L 246 431.5 Q 243.083 449.083 231.5 458 Q 221.799 467.799 200.5 466 Q 184.26 462.24 176 450.5 Q 170.906 443.594 169 433.5 L 169 388.5 L 170 387.5 L 170 321.5 Q 173.407 306.907 183.5 299 L 199.5 291 Z " /><path fill="rgb(145,133,146)" stroke="rgb(145,133,146)" stroke-width="1" opacity="0.984313725490196" d="M 301.5 351 L 491.5 351 L 495 353.5 Q 497.667 357.333 496 365.5 Q 488.807 406.807 461.5 428 Q 437.785 450.785 392.5 452 Q 341.75 446.75 318 414.5 Q 299.408 393.592 296 357.5 L 299.5 352 L 301.5 351 Z " /></svg>