<svg width="512" height="512" version="1.1" xmlns="http://www.w3.org/2000/svg" desc="Created with imagetracer.js version 1.2.6" ><path fill="rgb(249,230,200)" stroke="rgb(249,230,200)" stroke-width="1" opacity="0.984313725490196" d="M 423.5 8 Q 435.25 7.25 440 13.5 Q 445.818 18.182 444 30.5 Q 442.464 36.964 437.5 40 Q 432.667 44.667 421.5 43 L 414 37.5 Q 408.975 32.525 409 22.5 Q 410.85 14.85 416.5 11 L 423.5 8 Z " /><path fill="rgb(249,230,200)" stroke="rgb(249,230,200)" stroke-width="1" opacity="0.984313725490196" d="M 55.5 128 L 113.5 128 L 119 132.5 Q 122.6 144.448 120 162 L 51 162 L 51 132.5 L 55.5 128 Z " /><path fill="rgb(249,230,200)" stroke="rgb(249,230,200)" stroke-width="1" opacity="0.984313725490196" d="M 332.5 196 L 471.5 196 L 477 200.5 L 478 202.5 L 478 241.5 L 474.5 246 L 472.5 247 L 329.5 247 L 326 244.5 L 324 239.5 L 324 204.5 L 327.5 198 L 332.5 196 Z " /><path fill="rgb(0,0,0)" stroke="rgb(0,0,0)" stroke-width="1" opacity="0" d="M 0 0 L 512 0 L 512 187.5 L 511 187.5 Q 508.35 174.15 498.5 168 Q 486.257 158.053 461 162 L 461 132.5 L 456.5 128 L 396.5 128 L 393 131.5 L 392 133.5 L 392 162 L 359 162 L 359 133.5 L 355.5 129 L 353.5 128 L 294.5 128 L 290 132.5 L 290 162 L 120.5 162 L 120 161.5 L 120 141 L 123.5 141 L 406.5 41 L 415.5 39 Q 419.5 45 431.5 43 Q 438.25 40.75 442 35.5 Q 445.429 30.429 444 20.5 L 438.5 12 Q 433.699 7.301 423.5 8 Q 415.85 9.85 412 15.5 L 408.5 23 L 130.5 120 Q 119.35 121.85 112.5 128 L 55.5 128 L 51 132.5 L 51 162 L 26.5 162 Q 13.032 165.532 6 175.5 Q 1.161 179.661 0.5 188 L 0 0 Z " /><path fill="rgb(0,0,0)" stroke="rgb(0,0,0)" stroke-width="1" opacity="0" d="M 0.5 478 Q 3.363 490.637 12.5 497 Q 18.948 502.052 28.5 504 L 482.5 504 Q 497.348 501.348 505 491.5 Q 509.953 486.453 511.5 478 L 512 512 L 0.5 512 L 0 511.5 L 0.5 478 Z " /><path fill="rgb(125,131,173)" stroke="rgb(125,131,173)" stroke-width="1" opacity="0.996078431372549" d="M 329.5 128 L 353.5 128 L 356 129 L 359 135.5 L 359 162 L 335 162 L 335 135.5 L 330.5 129 L 329.5 128 Z " /><path fill="rgb(125,131,173)" stroke="rgb(125,131,173)" stroke-width="1" opacity="0.996078431372549" d="M 431.5 128 L 455.5 128 L 460 131.5 L 461 133.5 L 461 162 L 437 162 L 437 133.5 L 433.5 129 Q 430.5 129.5 431.5 128 Z " /><path fill="rgb(125,131,173)" stroke="rgb(125,131,173)" stroke-width="1" opacity="0.996078431372549" d="M 137.5 222 Q 203.276 223.224 231 262.5 Q 255.481 288.519 256 338.5 Q 250.686 390.686 218.5 416 Q 192.268 443.268 138.5 443 L 138.5 442 Q 178.702 435.202 201 410.5 Q 233.245 382.245 232 320.5 Q 224.218 272.782 193.5 248 Q 170.893 228.543 137.5 222 Z " /><path fill="rgb(125,131,173)" stroke="rgb(125,131,173)" stroke-width="1" opacity="0.996078431372549" d="M 344.5 282 Q 363.521 280.479 370 291.5 Q 376.833 297.667 375 312.5 Q 371.942 323.442 363.5 329 Q 357.794 332.794 348.5 333 L 339 329.5 L 347 322.5 Q 352.288 316.288 352 304.5 Q 350.042 293.958 343.5 288 L 339 284.5 L 344.5 282 Z " /><path fill="rgb(125,131,173)" stroke="rgb(125,131,173)" stroke-width="1" opacity="0.996078431372549" d="M 446.5 282 Q 464.464 280.036 471 289.5 Q 477.764 296.236 478 309.5 Q 475.837 320.838 468.5 327 Q 461.667 334.167 445.5 332 L 441 329.5 L 450 321.5 Q 455.538 315.538 454 302.5 Q 451.396 291.604 443.5 286 L 441 284.5 L 446.5 282 Z " /><path fill="rgb(125,131,173)" stroke="rgb(125,131,173)" stroke-width="1" opacity="0.996078431372549" d="M 139.5 290 Q 168.084 289.416 179 306.5 Q 188.272 316.728 188 336.5 Q 185.254 355.254 173.5 365 Q 162.392 377.392 136.5 375 Q 122.391 371.345 114 363 Q 102.777 352.442 102 330.5 Q 104.427 308.927 118.5 299 Q 126.589 292.089 139.5 290 Z " /><path fill="rgb(188,210,220)" stroke="rgb(188,210,220)" stroke-width="1" opacity="0.9921568627450981" d="M 370.5 36 L 369.5 38 L 368 37.5 L 370.5 36 Z " /><path fill="rgb(188,210,220)" stroke="rgb(188,210,220)" stroke-width="1" opacity="0.9921568627450981" d="M 356.5 41 L 358 41.5 L 355.5 43 L 356.5 41 Z " /><path fill="rgb(188,210,220)" stroke="rgb(188,210,220)" stroke-width="1" opacity="0.9921568627450981" d="M 401.5 42 L 400.5 44 L 399 43.5 L 401.5 42 Z " /><path fill="rgb(188,210,220)" stroke="rgb(188,210,220)" stroke-width="1" opacity="0.9921568627450981" d="M 336.5 48 L 338 48.5 L 335.5 50 L 336.5 48 Z " /><path fill="rgb(188,210,220)" stroke="rgb(188,210,220)" stroke-width="1" opacity="0.9921568627450981" d="M 381.5 49 L 380.5 51 L 379 50.5 L 381.5 49 Z " /><path fill="rgb(188,210,220)" stroke="rgb(188,210,220)" stroke-width="1" opacity="0.9921568627450981" d="M 316.5 55 L 318 55.5 L 315.5 57 L 316.5 55 Z " /><path fill="rgb(188,210,220)" stroke="rgb(188,210,220)" stroke-width="1" opacity="0.9921568627450981" d="M 361.5 56 L 360.5 58 L 359 57.5 L 361.5 56 Z " /><path fill="rgb(188,210,220)" stroke="rgb(188,210,220)" stroke-width="1" opacity="0.9921568627450981" d="M 296.5 62 L 298 62.5 L 295.5 64 L 296.5 62 Z " /><path fill="rgb(188,210,220)" stroke="rgb(188,210,220)" stroke-width="1" opacity="0.9921568627450981" d="M 341.5 63 L 340.5 65 L 339 64.5 L 341.5 63 Z " /><path fill="rgb(188,210,220)" stroke="rgb(188,210,220)" stroke-width="1" opacity="0.9921568627450981" d="M 276.5 69 L 278 69.5 L 275.5 71 L 276.5 69 Z " /><path fill="rgb(188,210,220)" stroke="rgb(188,210,220)" stroke-width="1" opacity="0.9921568627450981" d="M 321.5 70 L 320.5 72 L 319 71.5 L 321.5 70 Z " /><path fill="rgb(188,210,220)" stroke="rgb(188,210,220)" stroke-width="1" opacity="0.9921568627450981" d="M 256.5 76 L 258 76.5 L 255.5 78 L 256.5 76 Z " /><path fill="rgb(188,210,220)" stroke="rgb(188,210,220)" stroke-width="1" opacity="0.9921568627450981" d="M 301.5 77 L 300.5 79 L 299 78.5 L 301.5 77 Z " /><path fill="rgb(188,210,220)" stroke="rgb(188,210,220)" stroke-width="1" opacity="0.9921568627450981" d="M 236.5 83 L 238 83.5 L 235.5 85 L 236.5 83 Z " /><path fill="rgb(188,210,220)" stroke="rgb(188,210,220)" stroke-width="1" opacity="0.9921568627450981" d="M 281.5 84 L 280.5 86 L 279 85.5 L 281.5 84 Z " /><path fill="rgb(188,210,220)" stroke="rgb(188,210,220)" stroke-width="1" opacity="0.9921568627450981" d="M 216.5 90 L 218 90.5 L 215.5 92 L 216.5 90 Z " /><path fill="rgb(188,210,220)" stroke="rgb(188,210,220)" stroke-width="1" opacity="0.9921568627450981" d="M 261.5 91 L 260.5 93 L 259 92.5 L 261.5 91 Z " /><path fill="rgb(188,210,220)" stroke="rgb(188,210,220)" stroke-width="1" opacity="0.9921568627450981" d="M 196.5 97 L 198 97.5 L 195.5 99 L 196.5 97 Z " /><path fill="rgb(188,210,220)" stroke="rgb(188,210,220)" stroke-width="1" opacity="0.9921568627450981" d="M 241.5 98 L 240.5 100 L 239 99.5 L 241.5 98 Z " /><path fill="rgb(188,210,220)" stroke="rgb(188,210,220)" stroke-width="1" opacity="0.9921568627450981" d="M 176.5 104 L 178 104.5 L 175.5 106 L 176.5 104 Z " /><path fill="rgb(188,210,220)" stroke="rgb(188,210,220)" stroke-width="1" opacity="0.9921568627450981" d="M 221.5 105 L 220.5 107 L 219 106.5 L 221.5 105 Z " /><path fill="rgb(188,210,220)" stroke="rgb(188,210,220)" stroke-width="1" opacity="0.9921568627450981" d="M 156.5 111 L 158 111.5 L 155.5 113 L 156.5 111 Z " /><path fill="rgb(188,210,220)" stroke="rgb(188,210,220)" stroke-width="1" opacity="0.9921568627450981" d="M 201.5 112 L 200.5 114 L 199 113.5 L 201.5 112 Z " /><path fill="rgb(188,210,220)" stroke="rgb(188,210,220)" stroke-width="1" opacity="0.9921568627450981" d="M 136.5 118 L 138 118.5 L 135.5 120 L 136.5 118 Z " /><path fill="rgb(188,210,220)" stroke="rgb(188,210,220)" stroke-width="1" opacity="0.9921568627450981" d="M 181.5 119 L 180.5 121 L 179 120.5 L 181.5 119 Z " /><path fill="rgb(188,210,220)" stroke="rgb(188,210,220)" stroke-width="1" opacity="0.9921568627450981" d="M 116.5 125 L 118 125.5 L 113.5 128 L 114.5 126 L 116.5 125 Z " /><path fill="rgb(188,210,220)" stroke="rgb(188,210,220)" stroke-width="1" opacity="0.9921568627450981" d="M 155.5 128 L 158 128.5 L 154.5 130 L 155.5 128 Z " /><path fill="rgb(188,210,220)" stroke="rgb(188,210,220)" stroke-width="1" opacity="0.9921568627450981" d="M 28.5 162 L 31 162.5 L 28.5 163 L 28.5 162 Z " /><path fill="rgb(188,210,220)" stroke="rgb(188,210,220)" stroke-width="1" opacity="0.9921568627450981" d="M 273.5 162 L 290 162.5 L 273.5 163 L 273.5 162 Z " /><path fill="rgb(188,210,220)" stroke="rgb(188,210,220)" stroke-width="1" opacity="0.9921568627450981" d="M 23.5 163 L 25 163.5 L 20.5 165 L 20.5 164 L 23.5 163 Z " /><path fill="rgb(188,210,220)" stroke="rgb(188,210,220)" stroke-width="1" opacity="0.9921568627450981" d="M 18.5 165 L 17.5 167 L 16 166.5 L 18.5 165 Z " /><path fill="rgb(188,210,220)" stroke="rgb(188,210,220)" stroke-width="1" opacity="0.9921568627450981" d="M 13.5 168 L 15 168.5 L 10.5 172 L 13.5 168 Z " /><path fill="rgb(188,210,220)" stroke="rgb(188,210,220)" stroke-width="1" opacity="0.9921568627450981" d="M 8.5 173 L 7 175.5 L 4.5 179 L 6 176.5 L 8.5 173 Z " /><path fill="rgb(188,210,220)" stroke="rgb(188,210,220)" stroke-width="1" opacity="0.9921568627450981" d="M 3.5 180 L 4 181.5 L 2.5 184 L 2 182.5 L 3.5 180 Z " /><path fill="rgb(188,210,220)" stroke="rgb(188,210,220)" stroke-width="1" opacity="0.9921568627450981" d="M 141.5 221 L 149 221.5 L 141.5 222 L 141.5 221 Z " /><path fill="rgb(188,210,220)" stroke="rgb(188,210,220)" stroke-width="1" opacity="0.9921568627450981" d="M 129.5 222 L 133 222.5 L 129.5 223 L 129.5 222 Z " /><path fill="rgb(188,210,220)" stroke="rgb(188,210,220)" stroke-width="1" opacity="0.9921568627450981" d="M 123.5 223 L 126 223.5 L 123.5 224 L 123.5 223 Z " /><path fill="rgb(188,210,220)" stroke="rgb(188,210,220)" stroke-width="1" opacity="0.9921568627450981" d="M 96.5 232 L 98 232.5 L 91.5 236 L 92.5 234 L 96.5 232 Z " /><path fill="rgb(188,210,220)" stroke="rgb(188,210,220)" stroke-width="1" opacity="0.9921568627450981" d="M 87.5 237 L 86.5 239 L 87.5 237 Z " /><path fill="rgb(188,210,220)" stroke="rgb(188,210,220)" stroke-width="1" opacity="0.9921568627450981" d="M 204.5 238 L 205.5 240 L 204.5 238 Z " /><path fill="rgb(188,210,220)" stroke="rgb(188,210,220)" stroke-width="1" opacity="0.9921568627450981" d="M 82.5 240 L 80.5 243 L 82.5 240 Z " /><path fill="rgb(188,210,220)" stroke="rgb(188,210,220)" stroke-width="1" opacity="0.9921568627450981" d="M 207.5 240 L 208.5 242 L 207.5 240 Z " /><path fill="rgb(188,210,220)" stroke="rgb(188,210,220)" stroke-width="1" opacity="0.9921568627450981" d="M 78.5 243 L 76.5 246 L 78.5 243 Z " /><path fill="rgb(188,210,220)" stroke="rgb(188,210,220)" stroke-width="1" opacity="0.9921568627450981" d="M 74.5 246 L 67.5 254 L 74.5 246 Z " /><path fill="rgb(188,210,220)" stroke="rgb(188,210,220)" stroke-width="1" opacity="0.9921568627450981" d="M 215.5 246 L 217.5 249 L 215.5 246 Z " /><path fill="rgb(188,210,220)" stroke="rgb(188,210,220)" stroke-width="1" opacity="0.9921568627450981" d="M 65.5 255 L 59.5 262 L 65.5 255 Z " /><path fill="rgb(188,210,220)" stroke="rgb(188,210,220)" stroke-width="1" opacity="0.9921568627450981" d="M 229.5 260 L 231.5 263 L 229.5 260 Z " /><path fill="rgb(188,210,220)" stroke="rgb(188,210,220)" stroke-width="1" opacity="0.9921568627450981" d="M 57.5 264 L 55.5 267 L 57.5 264 Z " /><path fill="rgb(188,210,220)" stroke="rgb(188,210,220)" stroke-width="1" opacity="0.9921568627450981" d="M 54.5 268 L 53.5 270 L 54.5 268 Z " /><path fill="rgb(188,210,220)" stroke="rgb(188,210,220)" stroke-width="1" opacity="0.9921568627450981" d="M 236.5 269 L 237.5 271 L 236.5 269 Z " /><path fill="rgb(188,210,220)" stroke="rgb(188,210,220)" stroke-width="1" opacity="0.9921568627450981" d="M 52.5 271 L 51.5 273 L 52.5 271 Z " /><path fill="rgb(188,210,220)" stroke="rgb(188,210,220)" stroke-width="1" opacity="0.9921568627450981" d="M 50.5 274 L 49.5 276 L 50.5 274 Z " /><path fill="rgb(188,210,220)" stroke="rgb(188,210,220)" stroke-width="1" opacity="0.9921568627450981" d="M 34.5 319 L 35 323.5 L 34 323.5 L 34.5 319 Z " /><path fill="rgb(188,210,220)" stroke="rgb(188,210,220)" stroke-width="1" opacity="0.9921568627450981" d="M 34.5 342 L 35 345.5 L 34 345.5 L 34.5 342 Z " /><path fill="rgb(188,210,220)" stroke="rgb(188,210,220)" stroke-width="1" opacity="0.9921568627450981" d="M 35.5 350 L 36 352.5 L 35 352.5 L 35.5 350 Z " /><path fill="rgb(188,210,220)" stroke="rgb(188,210,220)" stroke-width="1" opacity="0.9921568627450981" d="M 42.5 375 L 44 378.5 L 43 378.5 L 42.5 375 Z " /><path fill="rgb(188,210,220)" stroke="rgb(188,210,220)" stroke-width="1" opacity="0.9921568627450981" d="M 47.5 386 L 48.5 388 L 47.5 386 Z " /><path fill="rgb(188,210,220)" stroke="rgb(188,210,220)" stroke-width="1" opacity="0.9921568627450981" d="M 50.5 391 L 51.5 393 L 50.5 391 Z " /><path fill="rgb(188,210,220)" stroke="rgb(188,210,220)" stroke-width="1" opacity="0.9921568627450981" d="M 238.5 393 L 237.5 395 L 238.5 393 Z " /><path fill="rgb(188,210,220)" stroke="rgb(188,210,220)" stroke-width="1" opacity="0.9921568627450981" d="M 52.5 394 L 53.5 396 L 52.5 394 Z " /><path fill="rgb(188,210,220)" stroke="rgb(188,210,220)" stroke-width="1" opacity="0.9921568627450981" d="M 236.5 396 L 235.5 398 L 236.5 396 Z " /><path fill="rgb(188,210,220)" stroke="rgb(188,210,220)" stroke-width="1" opacity="0.9921568627450981" d="M 54.5 397 L 55.5 399 L 54.5 397 Z " /><path fill="rgb(188,210,220)" stroke="rgb(188,210,220)" stroke-width="1" opacity="0.9921568627450981" d="M 56.5 400 L 59.5 404 L 56.5 400 Z " /><path fill="rgb(188,210,220)" stroke="rgb(188,210,220)" stroke-width="1" opacity="0.9921568627450981" d="M 233.5 400 L 232.5 402 L 233.5 400 Z " /><path fill="rgb(188,210,220)" stroke="rgb(188,210,220)" stroke-width="1" opacity="0.9921568627450981" d="M 229.5 405 L 224.5 411 L 229.5 405 Z " /><path fill="rgb(188,210,220)" stroke="rgb(188,210,220)" stroke-width="1" opacity="0.9921568627450981" d="M 61.5 406 L 71.5 417 L 61.5 406 Z " /><path fill="rgb(188,210,220)" stroke="rgb(188,210,220)" stroke-width="1" opacity="0.9921568627450981" d="M 222.5 412 L 217.5 418 L 222.5 412 Z " /><path fill="rgb(188,210,220)" stroke="rgb(188,210,220)" stroke-width="1" opacity="0.9921568627450981" d="M 74.5 418 L 76.5 421 L 74.5 418 Z " /><path fill="rgb(188,210,220)" stroke="rgb(188,210,220)" stroke-width="1" opacity="0.9921568627450981" d="M 213.5 420 L 212.5 422 L 213.5 420 Z " /><path fill="rgb(188,210,220)" stroke="rgb(188,210,220)" stroke-width="1" opacity="0.9921568627450981" d="M 79.5 422 L 80.5 424 L 79.5 422 Z " /><path fill="rgb(188,210,220)" stroke="rgb(188,210,220)" stroke-width="1" opacity="0.9921568627450981" d="M 82.5 424 L 83.5 426 L 82.5 424 Z " /><path fill="rgb(188,210,220)" stroke="rgb(188,210,220)" stroke-width="1" opacity="0.9921568627450981" d="M 85.5 426 L 86.5 428 L 85.5 426 Z " /><path fill="rgb(188,210,220)" stroke="rgb(188,210,220)" stroke-width="1" opacity="0.9921568627450981" d="M 90.5 429 L 91.5 431 L 90.5 429 Z " /><path fill="rgb(188,210,220)" stroke="rgb(188,210,220)" stroke-width="1" opacity="0.9921568627450981" d="M 97.5 433 L 101 434.5 L 99.5 435 L 97.5 433 Z " /><path fill="rgb(188,210,220)" stroke="rgb(188,210,220)" stroke-width="1" opacity="0.9921568627450981" d="M 155.5 443 L 158 443.5 L 155.5 444 L 155.5 443 Z " /><path fill="rgb(188,210,220)" stroke="rgb(188,210,220)" stroke-width="1" opacity="0.9921568627450981" d="M 0.5 475 L 2 480.5 L 1 480.5 L 0.5 475 Z " /><path fill="rgb(188,210,220)" stroke="rgb(188,210,220)" stroke-width="1" opacity="0.9921568627450981" d="M 5.5 488 L 8 492 Q 10.667 490.875 10 493.5 L 11.5 496 L 5.5 488 Z " /><path fill="rgb(188,210,220)" stroke="rgb(188,210,220)" stroke-width="1" opacity="0.9921568627450981" d="M 13.5 496 L 15.5 499 L 13.5 496 Z " /><path fill="rgb(188,210,220)" stroke="rgb(188,210,220)" stroke-width="1" opacity="0.9921568627450981" d="M 29.5 503 L 290 503.5 L 29.5 504 L 29.5 503 Z " /><path fill="rgb(157,196,254)" stroke="rgb(157,196,254)" stroke-width="1" opacity="0.996078431372549" d="M 290 162 L 485.5 162 Q 498.968 165.532 506 175.5 L 512 188.5 L 512 477.5 Q 508.624 490.124 499.5 497 Q 492.886 502.386 482.5 504 L 290 504 L 290 162 Z M 331 196 L 329 197 L 324 203 L 324 242 L 325 244 L 332 248 L 472 248 L 478 243 L 478 202 L 477 200 L 473 196 L 331 196 Z M 350 281 Q 341 282 336 286 Q 326 292 324 305 Q 324 316 329 323 Q 335 330 346 333 Q 359 334 366 328 Q 374 322 376 310 Q 376 296 369 290 Q 363 282 350 281 Z M 450 281 L 438 286 Q 430 291 427 302 Q 425 315 431 322 Q 437 330 449 333 Q 461 334 467 329 Q 475 323 478 313 Q 479 299 474 293 Q 467 281 450 281 Z M 323 359 L 321 360 Q 315 362 317 371 L 324 375 L 479 375 L 482 374 L 486 368 L 485 364 L 480 359 L 323 359 Z M 324 393 L 321 394 Q 315 396 317 405 L 323 409 L 480 409 L 482 408 L 486 402 L 485 398 L 479 393 L 324 393 Z M 325 427 L 320 429 Q 316 431 317 439 L 323 443 L 480 443 L 482 442 L 486 436 L 485 432 Q 483 427 478 427 L 325 427 Z " /><path fill="rgb(134,142,175)" stroke="rgb(134,142,175)" stroke-width="1" opacity="0.996078431372549" d="M 294.5 128 L 328.5 128 L 334 132.5 Q 338.375 143.662 335 162 L 290 162 L 290 132.5 L 294.5 128 Z " /><path fill="rgb(134,142,175)" stroke="rgb(134,142,175)" stroke-width="1" opacity="0.996078431372549" d="M 397.5 128 L 430.5 128 L 436 131.5 L 437 133.5 L 437 162 L 392 162 L 392 134.5 L 395.5 129 L 397.5 128 Z " /><path fill="rgb(134,142,175)" stroke="rgb(134,142,175)" stroke-width="1" opacity="0.996078431372549" d="M 356.5 130 L 357.5 132 L 356.5 130 Z " /><path fill="rgb(134,142,175)" stroke="rgb(134,142,175)" stroke-width="1" opacity="0.996078431372549" d="M 133.5 222 Q 180.407 229.593 205 259.5 Q 234.192 286.808 232 345.5 Q 225.22 389.22 198.5 413 Q 176.607 436.107 138 442.5 L 155 443.5 L 135.5 444 Q 85.188 436.812 60 404.5 Q 33.422 378.078 34 324.5 Q 41.25 271.75 75.5 246 Q 97.654 227.154 133.5 222 Z M 140 290 Q 127 292 119 299 Q 104 309 102 331 Q 103 352 114 363 Q 122 371 137 375 Q 162 377 174 365 Q 185 355 188 337 Q 188 317 179 307 Q 168 289 140 290 Z " /><path fill="rgb(134,142,175)" stroke="rgb(134,142,175)" stroke-width="1" opacity="0.996078431372549" d="M 153.5 222 L 159 222.5 L 153.5 223 L 153.5 222 Z " /><path fill="rgb(134,142,175)" stroke="rgb(134,142,175)" stroke-width="1" opacity="0.996078431372549" d="M 162.5 223 L 165 223.5 L 162.5 224 L 162.5 223 Z " /><path fill="rgb(134,142,175)" stroke="rgb(134,142,175)" stroke-width="1" opacity="0.996078431372549" d="M 209.5 242 L 210.5 244 L 209.5 242 Z " /><path fill="rgb(134,142,175)" stroke="rgb(134,142,175)" stroke-width="1" opacity="0.996078431372549" d="M 213.5 245 L 214.5 247 L 213.5 245 Z " /><path fill="rgb(134,142,175)" stroke="rgb(134,142,175)" stroke-width="1" opacity="0.996078431372549" d="M 218.5 249 L 228.5 260 L 218.5 249 Z " /><path fill="rgb(134,142,175)" stroke="rgb(134,142,175)" stroke-width="1" opacity="0.996078431372549" d="M 231.5 263 L 232.5 265 L 231.5 263 Z " /><path fill="rgb(134,142,175)" stroke="rgb(134,142,175)" stroke-width="1" opacity="0.996078431372549" d="M 234.5 267 L 235.5 269 L 234.5 267 Z " /><path fill="rgb(134,142,175)" stroke="rgb(134,142,175)" stroke-width="1" opacity="0.996078431372549" d="M 238.5 273 L 239.5 275 L 238.5 273 Z " /><path fill="rgb(134,142,175)" stroke="rgb(134,142,175)" stroke-width="1" opacity="0.996078431372549" d="M 241.5 278 L 242.5 280 L 241.5 278 Z " /><path fill="rgb(134,142,175)" stroke="rgb(134,142,175)" stroke-width="1" opacity="0.996078431372549" d="M 449.5 281 L 455 281.5 L 449.5 282 L 449.5 281 Z " /><path fill="rgb(134,142,175)" stroke="rgb(134,142,175)" stroke-width="1" opacity="0.996078431372549" d="M 338.5 284 L 345 289.5 Q 352.335 295.665 352 309.5 Q 350.201 322.201 341.5 328 L 339 329.5 L 339.5 331 L 329 322.5 Q 323.712 316.288 324 304.5 Q 326.25 291.75 335.5 286 L 338.5 284 Z " /><path fill="rgb(134,142,175)" stroke="rgb(134,142,175)" stroke-width="1" opacity="0.996078431372549" d="M 440.5 284 L 449 291.5 Q 455.563 297.938 454 312.5 Q 450.942 323.442 442.5 329 L 440.5 330 L 431 321.5 Q 425.308 315.192 427 301.5 Q 429.75 291.25 437.5 286 L 440.5 284 Z " /><path fill="rgb(134,142,175)" stroke="rgb(134,142,175)" stroke-width="1" opacity="0.996078431372549" d="M 363.5 285 L 364.5 287 L 363.5 285 Z " /><path fill="rgb(134,142,175)" stroke="rgb(134,142,175)" stroke-width="1" opacity="0.996078431372549" d="M 467.5 286 L 468.5 288 L 467.5 286 Z " /><path fill="rgb(134,142,175)" stroke="rgb(134,142,175)" stroke-width="1" opacity="0.996078431372549" d="M 367.5 288 L 368.5 290 L 367.5 288 Z " /><path fill="rgb(134,142,175)" stroke="rgb(134,142,175)" stroke-width="1" opacity="0.996078431372549" d="M 471.5 290 L 473.5 293 L 471.5 290 Z " /><path fill="rgb(134,142,175)" stroke="rgb(134,142,175)" stroke-width="1" opacity="0.996078431372549" d="M 370.5 292 L 371.5 294 L 370.5 292 Z " /><path fill="rgb(134,142,175)" stroke="rgb(134,142,175)" stroke-width="1" opacity="0.996078431372549" d="M 477.5 302 L 478 304.5 L 477 304.5 L 477.5 302 Z " /><path fill="rgb(134,142,175)" stroke="rgb(134,142,175)" stroke-width="1" opacity="0.996078431372549" d="M 375.5 304 L 376 309.5 L 375 309.5 L 375.5 304 Z " /><path fill="rgb(134,142,175)" stroke="rgb(134,142,175)" stroke-width="1" opacity="0.996078431372549" d="M 253.5 308 L 254 310.5 L 253 310.5 L 253.5 308 Z " /><path fill="rgb(134,142,175)" stroke="rgb(134,142,175)" stroke-width="1" opacity="0.996078431372549" d="M 477.5 310 L 478 312.5 L 477 312.5 L 477.5 310 Z " /><path fill="rgb(134,142,175)" stroke="rgb(134,142,175)" stroke-width="1" opacity="0.996078431372549" d="M 254.5 314 L 255 316.5 L 254 316.5 L 254.5 314 Z " /><path fill="rgb(134,142,175)" stroke="rgb(134,142,175)" stroke-width="1" opacity="0.996078431372549" d="M 372.5 319 L 371.5 321 L 372.5 319 Z " /><path fill="rgb(134,142,175)" stroke="rgb(134,142,175)" stroke-width="1" opacity="0.996078431372549" d="M 255.5 320 L 256 325.5 L 255 325.5 L 255.5 320 Z " /><path fill="rgb(134,142,175)" stroke="rgb(134,142,175)" stroke-width="1" opacity="0.996078431372549" d="M 473.5 321 L 472.5 323 L 473.5 321 Z " /><path fill="rgb(134,142,175)" stroke="rgb(134,142,175)" stroke-width="1" opacity="0.996078431372549" d="M 370.5 322 L 365.5 328 L 370.5 322 Z " /><path fill="rgb(134,142,175)" stroke="rgb(134,142,175)" stroke-width="1" opacity="0.996078431372549" d="M 467.5 327 L 466.5 329 L 467.5 327 Z " /><path fill="rgb(134,142,175)" stroke="rgb(134,142,175)" stroke-width="1" opacity="0.996078431372549" d="M 345.5 332 L 348 332.5 L 345.5 333 L 345.5 332 Z " /><path fill="rgb(134,142,175)" stroke="rgb(134,142,175)" stroke-width="1" opacity="0.996078431372549" d="M 352.5 332 L 355 332.5 L 352.5 333 L 352.5 332 Z " /><path fill="rgb(134,142,175)" stroke="rgb(134,142,175)" stroke-width="1" opacity="0.996078431372549" d="M 448.5 332 L 457 332.5 L 448.5 333 L 448.5 332 Z " /><path fill="rgb(134,142,175)" stroke="rgb(134,142,175)" stroke-width="1" opacity="0.996078431372549" d="M 255.5 339 L 256 344.5 L 255 344.5 L 255.5 339 Z " /><path fill="rgb(134,142,175)" stroke="rgb(134,142,175)" stroke-width="1" opacity="0.996078431372549" d="M 254.5 349 L 255 351.5 L 254 351.5 L 254.5 349 Z " /><path fill="rgb(134,142,175)" stroke="rgb(134,142,175)" stroke-width="1" opacity="0.996078431372549" d="M 322.5 359 L 479.5 359 L 485 363.5 L 486 367.5 L 481.5 374 L 478.5 375 L 323.5 375 L 317 370.5 Q 315.25 361.75 320.5 360 L 322.5 359 Z " /><path fill="rgb(134,142,175)" stroke="rgb(134,142,175)" stroke-width="1" opacity="0.996078431372549" d="M 240.5 389 L 239.5 391 L 240.5 389 Z " /><path fill="rgb(134,142,175)" stroke="rgb(134,142,175)" stroke-width="1" opacity="0.996078431372549" d="M 323.5 393 L 478.5 393 L 485 397.5 L 486 401.5 L 481.5 408 L 479.5 409 L 322.5 409 L 317 404.5 Q 315.25 395.75 320.5 394 L 323.5 393 Z " /><path fill="rgb(134,142,175)" stroke="rgb(134,142,175)" stroke-width="1" opacity="0.996078431372549" d="M 234.5 398 L 233.5 400 L 234.5 398 Z " /><path fill="rgb(134,142,175)" stroke="rgb(134,142,175)" stroke-width="1" opacity="0.996078431372549" d="M 231.5 402 L 228.5 406 L 231.5 402 Z " /><path fill="rgb(134,142,175)" stroke="rgb(134,142,175)" stroke-width="1" opacity="0.996078431372549" d="M 217.5 416 L 215.5 419 L 217.5 416 Z " /><path fill="rgb(134,142,175)" stroke="rgb(134,142,175)" stroke-width="1" opacity="0.996078431372549" d="M 211.5 421 L 210.5 423 L 211.5 421 Z " /><path fill="rgb(134,142,175)" stroke="rgb(134,142,175)" stroke-width="1" opacity="0.996078431372549" d="M 208.5 423 L 207.5 425 L 208.5 423 Z " /><path fill="rgb(134,142,175)" stroke="rgb(134,142,175)" stroke-width="1" opacity="0.996078431372549" d="M 202.5 427 L 201.5 429 L 202.5 427 Z " /><path fill="rgb(134,142,175)" stroke="rgb(134,142,175)" stroke-width="1" opacity="0.996078431372549" d="M 324.5 427 L 477.5 427 Q 483.05 427.45 485 431.5 L 486 435.5 L 481.5 442 L 479.5 443 L 322.5 443 L 317 438.5 Q 315.75 431.25 319.5 429 L 324.5 427 Z " /><path fill="rgb(134,142,175)" stroke="rgb(134,142,175)" stroke-width="1" opacity="0.996078431372549" d="M 170.5 440 L 173 440.5 L 170.5 441 L 170.5 440 Z " /><path fill="rgb(134,142,175)" stroke="rgb(134,142,175)" stroke-width="1" opacity="0.996078431372549" d="M 159.5 442 L 163 442.5 L 159.5 443 L 159.5 442 Z " /><path fill="rgb(189,211,221)" stroke="rgb(189,211,221)" stroke-width="1" opacity="1" d="M 407.5 24 Q 412.917 22.607 410 30.5 L 414 37.5 L 402.5 43 L 400.5 43 Q 395.417 48.417 384.5 48 L 382.5 50 L 380.5 50 Q 375.417 55.417 364.5 55 L 362.5 57 L 360.5 57 Q 355.417 62.417 344.5 62 L 342.5 64 L 340.5 64 Q 335.417 69.417 324.5 69 L 322.5 71 L 320.5 71 Q 315.417 76.417 304.5 76 L 302.5 78 L 300.5 78 Q 295.417 83.417 284.5 83 L 282.5 85 L 280.5 85 Q 275.417 90.417 264.5 90 L 262.5 92 L 260.5 92 Q 255.417 97.417 244.5 97 L 242.5 99 L 240.5 99 Q 235.417 104.417 224.5 104 L 222.5 106 L 220.5 106 Q 215.417 111.417 204.5 111 L 202.5 113 L 200.5 113 Q 195.417 118.417 184.5 118 L 182.5 120 L 180.5 120 L 120.5 141 Q 120.975 132.025 115.5 129 Q 112.875 129.667 114 127 Q 121.965 122.014 133 121 Q 131.875 118.333 134.5 119 L 136.5 119 L 153 114 Q 151.875 111.333 154.5 112 L 156.5 112 L 173 107 Q 171.875 104.333 174.5 105 L 176.5 105 L 193 100 Q 191.875 97.333 194.5 98 L 196.5 98 L 213 93 Q 211.875 90.333 214.5 91 L 216.5 91 L 233 86 Q 231.875 83.333 234.5 84 L 236.5 84 L 253 79 Q 251.875 76.333 254.5 77 L 256.5 77 L 273 72 Q 271.875 69.333 274.5 70 L 276.5 70 L 293 65 Q 291.875 62.333 294.5 63 L 296.5 63 L 313 58 Q 311.875 55.333 314.5 56 L 316.5 56 L 333 51 Q 331.875 48.333 334.5 49 L 336.5 49 L 353 44 Q 351.875 41.333 354.5 42 L 356.5 42 Q 366.779 41.779 371.5 36 L 373 36.5 L 373.5 35 L 375.5 35 L 393 30 L 393.5 28 L 395.5 28 L 407.5 24 Z " /><path fill="rgb(189,211,221)" stroke="rgb(189,211,221)" stroke-width="1" opacity="1" d="M 27.5 162 L 30.5 163 L 31.5 162 L 50.5 162 L 52.5 162 L 118.5 162 L 119.5 163 L 120.5 162 L 272.5 162 L 273.5 163 L 290 163 L 290 503 L 28.5 503 L 26.5 502 L 24.5 502 Q 15.116 499.884 10 493.5 L 8 490.5 L 5 486 Q 1.667 487.313 3 482.5 L 0 474.5 L 0 193.5 L 1 191.5 L 1 189.5 Q 3 178.25 9 172 L 15 169 Q 13.75 166 17.5 167 L 27.5 162 Z M 142 221 Q 98 224 75 246 Q 42 271 34 320 Q 32 379 61 407 Q 86 437 134 444 Q 191 446 218 418 Q 248 393 256 347 Q 259 290 232 263 Q 205 224 142 221 Z " /><path fill="rgb(189,211,221)" stroke="rgb(189,211,221)" stroke-width="1" opacity="1" d="M 474.5 197 L 476.5 200 L 474.5 197 Z " /><path fill="rgb(189,211,221)" stroke="rgb(189,211,221)" stroke-width="1" opacity="1" d="M 331.5 247 L 472 247.5 L 331.5 248 L 331.5 247 Z " /></svg>