<svg width="512" height="512" version="1.1" xmlns="http://www.w3.org/2000/svg" desc="Created with imagetracer.js version 1.2.6" ><path fill="rgb(0,0,0)" stroke="rgb(0,0,0)" stroke-width="1" opacity="0" d="M 0 0 L 512 0 L 512 381.5 L 509.5 380 L 506 378.5 L 426 182.5 L 421.5 177 Q 377.63 170.87 345.5 153 Q 298.396 127.604 264 89.5 L 260.5 85 L 253.5 84 L 248 88.5 L 229.5 108 Q 176.083 161.583 87 179.5 Q 46.999 281.499 3.5 380 L 0.5 382 L 0 0 Z " /><path fill="rgb(0,0,0)" stroke="rgb(0,0,0)" stroke-width="1" opacity="0" d="M 85.5 217 L 86 380 L 18.5 380 L 18 378.5 L 85.5 217 Z " /><path fill="rgb(0,0,0)" stroke="rgb(0,0,0)" stroke-width="1" opacity="0" d="M 426.5 217 L 493 380 L 426 380 L 426.5 217 Z " /><path fill="rgb(0,0,0)" stroke="rgb(0,0,0)" stroke-width="1" opacity="0" d="M 0.5 425 L 1 427 L 3.5 428 L 508.5 428 L 511 427 L 511.5 425 L 512 512 L 0.5 512 L 0 511.5 L 0.5 425 Z " /><path fill="rgb(250,61,72)" stroke="rgb(250,61,72)" stroke-width="1" opacity="1" d="M 245.5 128 L 266.5 128 L 269 130.5 L 269 149 L 286.5 149 L 291 152.5 L 291 173.5 L 288.5 176 L 270.5 176 L 269 177.5 L 269 195.5 L 266.5 198 L 245.5 198 L 243 195.5 Q 240.5 190 242 180.5 L 243 177 Q 226.674 180.938 221 173.5 L 221 152.5 L 223.5 150 L 241.5 150 L 243 148.5 Q 240.5 143 242 133.5 L 245.5 128 Z " /><path fill="rgb(254,168,113)" stroke="rgb(254,168,113)" stroke-width="1" opacity="0.996078431372549" d="M 247.5 127 L 265 127.5 L 247.5 128 L 247.5 127 Z " /><path fill="rgb(254,168,113)" stroke="rgb(254,168,113)" stroke-width="1" opacity="0.996078431372549" d="M 244.5 128 L 243.5 130 L 244.5 128 Z " /><path fill="rgb(254,168,113)" stroke="rgb(254,168,113)" stroke-width="1" opacity="0.996078431372549" d="M 267.5 128 L 268.5 130 L 267.5 128 Z " /><path fill="rgb(254,168,113)" stroke="rgb(254,168,113)" stroke-width="1" opacity="0.996078431372549" d="M 269.5 131 L 270 148.5 L 269 148.5 L 269.5 131 Z " /><path fill="rgb(254,168,113)" stroke="rgb(254,168,113)" stroke-width="1" opacity="0.996078431372549" d="M 242.5 146 L 243 148.5 L 241.5 150 L 224.5 150 L 224.5 149 L 241.5 149 L 242.5 146 Z " /><path fill="rgb(254,168,113)" stroke="rgb(254,168,113)" stroke-width="1" opacity="0.996078431372549" d="M 287.5 149 L 291 151.5 L 288.5 150 L 287.5 149 Z " /><path fill="rgb(254,168,113)" stroke="rgb(254,168,113)" stroke-width="1" opacity="0.996078431372549" d="M 222.5 150 L 221.5 152 L 222.5 150 Z " /><path fill="rgb(254,168,113)" stroke="rgb(254,168,113)" stroke-width="1" opacity="0.996078431372549" d="M 220.5 153 L 221 171.5 L 220 171.5 L 220.5 153 Z " /><path fill="rgb(254,168,113)" stroke="rgb(254,168,113)" stroke-width="1" opacity="0.996078431372549" d="M 291.5 154 L 292 172.5 L 291 172.5 L 291.5 154 Z " /><path fill="rgb(254,168,113)" stroke="rgb(254,168,113)" stroke-width="1" opacity="0.996078431372549" d="M 221.5 174 L 225 176.5 L 223.5 177 L 221.5 174 Z " /><path fill="rgb(254,168,113)" stroke="rgb(254,168,113)" stroke-width="1" opacity="0.996078431372549" d="M 290.5 174 L 289.5 176 L 290.5 174 Z " /><path fill="rgb(254,168,113)" stroke="rgb(254,168,113)" stroke-width="1" opacity="0.996078431372549" d="M 270.5 176 L 288 176.5 L 270 177 L 269.5 195 L 269 177.5 L 270.5 176 Z " /><path fill="rgb(254,168,113)" stroke="rgb(254,168,113)" stroke-width="1" opacity="0.996078431372549" d="M 242.5 177 L 243 179.5 L 242 179.5 L 242.5 177 Z " /><path fill="rgb(254,168,113)" stroke="rgb(254,168,113)" stroke-width="1" opacity="0.996078431372549" d="M 89.5 178 L 88.5 180 L 89.5 178 Z " /><path fill="rgb(254,168,113)" stroke="rgb(254,168,113)" stroke-width="1" opacity="0.996078431372549" d="M 243.5 196 L 244.5 198 L 243.5 196 Z " /><path fill="rgb(254,168,113)" stroke="rgb(254,168,113)" stroke-width="1" opacity="0.996078431372549" d="M 268.5 196 L 267.5 198 L 268.5 196 Z " /><path fill="rgb(254,168,113)" stroke="rgb(254,168,113)" stroke-width="1" opacity="0.996078431372549" d="M 247.5 198 L 266 198.5 L 247.5 199 L 247.5 198 Z " /><path fill="rgb(254,168,113)" stroke="rgb(254,168,113)" stroke-width="1" opacity="0.996078431372549" d="M 251.5 209 L 248.5 213 L 251.5 209 Z " /><path fill="rgb(254,168,113)" stroke="rgb(254,168,113)" stroke-width="1" opacity="0.996078431372549" d="M 260.5 209 L 263.5 213 L 260.5 209 Z " /><path fill="rgb(254,168,113)" stroke="rgb(254,168,113)" stroke-width="1" opacity="0.996078431372549" d="M 245.5 216 L 245 217.5 Q 219.39 311.39 168.5 380 L 166 379.5 L 166 259.5 L 169.5 256 Q 194.886 252.886 212.5 242 Q 231.387 231.387 245.5 216 Z " /><path fill="rgb(254,168,113)" stroke="rgb(254,168,113)" stroke-width="1" opacity="0.996078431372549" d="M 266.5 216 Q 280.781 231.219 299.5 242 Q 317.244 252.756 342.5 256 L 346 259.5 L 346 379.5 L 343 380 Q 292.192 310.192 266.5 216 Z " /><path fill="rgb(85,79,69)" stroke="rgb(85,79,69)" stroke-width="1" opacity="0.9882352941176471" d="M 86.5 182 L 87 213.5 L 18 380 L 4 379.5 L 86.5 182 Z " /><path fill="rgb(85,79,69)" stroke="rgb(85,79,69)" stroke-width="1" opacity="0.9882352941176471" d="M 425.5 182 L 507 379.5 L 493 380 L 427 219.5 L 425 213.5 L 425.5 182 Z " /><path fill="rgb(85,79,69)" stroke="rgb(85,79,69)" stroke-width="1" opacity="0.9882352941176471" d="M 253.5 208 Q 264.75 206.75 266 215.5 Q 292.4 310.4 343 380 L 169 379.5 Q 193.132 350.632 209 313.5 Q 229.964 268.464 245 217.5 L 253.5 208 Z " /><path fill="rgb(254,208,140)" stroke="rgb(254,208,140)" stroke-width="1" opacity="0.9882352941176471" d="M 253.5 84 Q 262.125 82.875 264 88.5 L 282.5 108 Q 309.499 133.501 343.5 152 Q 374.234 169.766 416.5 176 Q 422.25 177.25 425 181.5 Q 428.278 278.277 426 380 L 346 380 L 346 259.5 L 342.5 256 Q 317.244 252.756 299.5 242 Q 279.018 230.482 264 213.5 L 260.5 209 L 253.5 208 L 248 212.5 L 236.5 225 Q 221.64 238.14 202.5 247 Q 188.644 254.144 169.5 256 L 166 259.5 L 166 380 L 86 380 L 86 215.5 L 87 214.5 L 87 181.5 L 90.5 178 Q 176.465 160.738 228 110 Q 226.875 107.333 229.5 108 L 248 89.5 L 248 88 Q 250.667 89.125 250 86.5 L 253.5 84 Z M 248 127 L 245 128 Q 238 134 242 149 Q 229 146 223 150 L 220 154 Q 218 167 221 175 L 224 177 L 242 177 Q 239 190 243 197 L 248 199 Q 261 202 268 198 Q 274 192 270 177 Q 283 180 290 176 L 292 173 Q 294 159 291 152 L 289 149 L 270 149 Q 273 136 269 130 Q 263 124 248 127 Z " /><path fill="rgb(178,174,171)" stroke="rgb(178,174,171)" stroke-width="1" opacity="0.8352941176470589" d="M 88.5 178 L 88 179.5 L 87.5 181 L 87 179.5 L 88.5 178 Z " /><path fill="rgb(178,174,171)" stroke="rgb(178,174,171)" stroke-width="1" opacity="0.8352941176470589" d="M 2.5 380 L 5 380.5 L 1 383.5 L 0.5 385 L 0 382.5 L 2.5 380 Z " /><path fill="rgb(178,174,171)" stroke="rgb(178,174,171)" stroke-width="1" opacity="0.8352941176470589" d="M 507.5 380 Q 511.5 379.5 512 382.5 L 511.5 385 L 508.5 381 L 507.5 380 Z " /><path fill="rgb(178,174,171)" stroke="rgb(178,174,171)" stroke-width="1" opacity="0.8352941176470589" d="M 0.5 422 L 3.5 427 L 508.5 427 L 511 424.5 L 511.5 422 L 512 424.5 L 511 427 L 508.5 428 L 3.5 428 L 1 427 L 0.5 422 Z " /><path fill="rgb(179,179,178)" stroke="rgb(179,179,178)" stroke-width="1" opacity="1" d="M 5.5 380 L 506.5 380 L 511 383.5 L 512 385.5 L 512 421.5 L 508.5 427 L 3.5 427 L 1 424.5 L 0 421.5 L 0 385.5 L 3.5 381 L 5.5 380 Z " /></svg>