<svg width="512" height="512" version="1.1" xmlns="http://www.w3.org/2000/svg" desc="Created with imagetracer.js version 1.2.6" ><path fill="rgb(168,167,121)" stroke="rgb(168,167,121)" stroke-width="1" opacity="0.9803921568627451" d="M 69.5 16 Q 91.987 13.789 105 20 Q 106.313 23.333 101.5 22 Q 83.42 27.42 73 40.5 Q 58.343 54.343 61 85.5 Q 65.738 107.262 80.5 119 Q 93.162 131.656 118 131 Q 119.125 133.667 116.5 133 Q 101.281 146.781 69.5 144 Q 44.543 138.957 31 122.5 Q 13.347 106.153 16 69.5 Q 21.274 43.774 38.5 30 Q 50.25 19.25 69.5 16 Z " /><path fill="rgb(168,167,121)" stroke="rgb(168,167,121)" stroke-width="1" opacity="0.9803921568627451" d="M 318 16 Q 321.813 15 323 17.5 L 338.5 46 L 375.5 46 Q 376.5 46 376 50.5 L 359 85.5 L 375 114.5 L 375 119 L 339.5 119 L 337 121.5 L 320.5 149 Q 317.167 150.125 318 147.5 L 303 119 L 264.5 119 Q 263.375 118.875 264 113.5 Q 270.875 95.875 281 81.5 L 281 78.5 L 265 49.5 L 265 46 L 300.5 46 L 302 44.5 L 318 16 Z " /><path fill="rgb(168,167,121)" stroke="rgb(168,167,121)" stroke-width="1" opacity="0.9803921568627451" d="M 108 48 L 112 49.5 L 118 63 L 134.5 65 L 136 66.5 L 124 79.5 L 124 82.5 Q 126.889 88.392 126 97 Q 116.531 97.553 111.5 90 L 108.5 90 L 94.5 97 L 93 94.5 L 96 79.5 L 84 66.5 Q 95.31 66.31 102 61.5 L 108 48 Z " /><path fill="rgb(168,167,121)" stroke="rgb(168,167,121)" stroke-width="1" opacity="0.9803921568627451" d="M 180.5 144 Q 224.813 141.875 242 166 L 254 188.5 L 254 190.5 L 256 196.5 L 256 198.5 Q 257.131 242.131 231.5 259 Q 215.505 274.505 181.5 272 Q 155.774 266.726 142 249.5 Q 125.207 232.793 128 196.5 Q 133.274 171.274 150.5 158 Q 162.2 147.7 180.5 144 Z " /><path fill="rgb(168,167,121)" stroke="rgb(168,167,121)" stroke-width="1" opacity="0.9803921568627451" d="M 436.5 144 Q 446.932 142.568 450 148.5 L 452 152.5 L 452 176 L 483.5 176 L 490 180.5 Q 493.167 183.833 492 191.5 L 487.5 198 L 483.5 200 L 452 200 L 452 263.5 L 447.5 270 Q 444.167 273.167 436.5 272 L 430 267.5 L 428 263.5 L 428 200 L 396.5 200 L 390 195.5 Q 386.833 192.167 388 184.5 L 392.5 178 L 396.5 176 L 428 176 L 428 152.5 L 432.5 146 L 436.5 144 Z " /><path fill="rgb(168,167,121)" stroke="rgb(168,167,121)" stroke-width="1" opacity="0.9803921568627451" d="M 64 176 L 80 176 L 80 192 L 64 192 L 64 176 Z " /><path fill="rgb(168,167,121)" stroke="rgb(168,167,121)" stroke-width="1" opacity="0.9803921568627451" d="M 312 176 L 328 176 L 328 192 L 312 192 L 312 176 Z " /><path fill="rgb(168,167,121)" stroke="rgb(168,167,121)" stroke-width="1" opacity="0.9803921568627451" d="M 64 216 L 80 216 L 80 232 L 64 232 L 64 216 Z " /><path fill="rgb(168,167,121)" stroke="rgb(168,167,121)" stroke-width="1" opacity="0.9803921568627451" d="M 312 216 L 328 216 L 328 232 L 312 232 L 312 216 Z " /><path fill="rgb(168,167,121)" stroke="rgb(168,167,121)" stroke-width="1" opacity="0.9803921568627451" d="M 64 256 L 80 256 L 80 272 L 64 272 L 64 256 Z " /><path fill="rgb(168,167,121)" stroke="rgb(168,167,121)" stroke-width="1" opacity="0.9803921568627451" d="M 312 256 L 328 256 L 328 272 L 312 272 L 312 256 Z " /><path fill="rgb(168,167,121)" stroke="rgb(168,167,121)" stroke-width="1" opacity="0.9803921568627451" d="M 64 296 L 80 296 L 80 312 L 64 312 L 64 296 Z " /><path fill="rgb(168,167,121)" stroke="rgb(168,167,121)" stroke-width="1" opacity="0.9803921568627451" d="M 184 296 L 200 296 L 200 312 L 184 312 L 184 296 Z " /><path fill="rgb(168,167,121)" stroke="rgb(168,167,121)" stroke-width="1" opacity="0.9803921568627451" d="M 312 296 L 328 296 L 328 312 L 312 312 L 312 296 Z " /><path fill="rgb(168,167,121)" stroke="rgb(168,167,121)" stroke-width="1" opacity="0.9803921568627451" d="M 432 296 L 448 296 L 448 312 L 432 312 L 432 296 Z " /><path fill="rgb(168,167,121)" stroke="rgb(168,167,121)" stroke-width="1" opacity="0.9803921568627451" d="M 64.5 332 Q 87.523 329.477 95 342.5 Q 102.5 350 100 367.5 Q 96.917 377.417 89.5 383 Q 82 390.5 64.5 388 Q 54.583 384.917 49 377.5 Q 41.5 370 44 352.5 Q 47.083 342.583 54.5 337 L 64.5 332 Z " /><path fill="rgb(168,167,121)" stroke="rgb(168,167,121)" stroke-width="1" opacity="0.9803921568627451" d="M 184.5 332 Q 207.523 329.477 215 342.5 Q 222.5 350 220 367.5 Q 216.917 377.417 209.5 383 Q 202 390.5 184.5 388 Q 174.583 384.917 169 377.5 Q 161.5 370 164 352.5 Q 167.083 342.583 174.5 337 L 184.5 332 Z " /><path fill="rgb(168,167,121)" stroke="rgb(168,167,121)" stroke-width="1" opacity="0.9803921568627451" d="M 312.5 332 Q 335.523 329.477 343 342.5 Q 350.5 350 348 367.5 Q 344.917 377.417 337.5 383 Q 330 390.5 312.5 388 Q 302.583 384.917 297 377.5 Q 289.5 370 292 352.5 Q 295.083 342.583 302.5 337 L 312.5 332 Z " /><path fill="rgb(168,167,121)" stroke="rgb(168,167,121)" stroke-width="1" opacity="0.9803921568627451" d="M 432.5 332 Q 455.523 329.477 463 342.5 Q 470.5 350 468 367.5 Q 464.917 377.417 457.5 383 Q 450 390.5 432.5 388 Q 422.583 384.917 417 377.5 Q 409.5 370 412 352.5 Q 415.083 342.583 422.5 337 L 432.5 332 Z " /><path fill="rgb(168,167,121)" stroke="rgb(168,167,121)" stroke-width="1" opacity="0.9803921568627451" d="M 48.5 400 L 95.5 400 Q 107.496 403.004 114 411.5 L 120 424.5 L 120 493.5 L 117.5 496 L 26.5 496 L 24 493.5 L 24 424.5 Q 27.004 412.504 35.5 406 L 48.5 400 Z " /><path fill="rgb(168,167,121)" stroke="rgb(168,167,121)" stroke-width="1" opacity="0.9803921568627451" d="M 167.5 400 L 216.5 400 Q 226.994 402.798 233 409 L 240 422.5 L 240 494.5 L 238.5 496 L 145.5 496 L 144 494.5 L 144 422.5 L 152 408 Q 157.779 402.629 167.5 400 Z " /><path fill="rgb(168,167,121)" stroke="rgb(168,167,121)" stroke-width="1" opacity="0.9803921568627451" d="M 294.5 400 L 345.5 400 Q 355.864 403.136 362 410.5 L 368 422.5 L 368 494.5 L 366.5 496 L 273.5 496 L 272 494.5 L 272 422.5 Q 275.136 412.136 282.5 406 L 294.5 400 Z " /><path fill="rgb(168,167,121)" stroke="rgb(168,167,121)" stroke-width="1" opacity="0.9803921568627451" d="M 415.5 400 L 464.5 400 Q 476.656 403.344 483 412.5 L 488 423.5 L 488 493.5 L 485.5 496 L 394.5 496 L 392 493.5 L 392 423.5 Q 395.344 411.344 404.5 405 L 415.5 400 Z " /><path fill="rgb(0,0,0)" stroke="rgb(0,0,0)" stroke-width="1" opacity="0" d="M 0 0 L 512 0 L 512 512 L 0 512 L 0 0 Z M 70 16 Q 50 19 39 30 Q 21 44 16 70 Q 13 106 31 123 Q 45 139 70 144 Q 101 147 117 133 Q 119 134 118 131 Q 93 132 81 119 Q 66 107 61 86 Q 58 54 73 41 Q 83 27 102 22 Q 106 23 105 20 Q 92 14 70 16 Z M 318 16 L 302 45 L 301 46 L 265 46 L 265 50 L 281 79 L 281 82 Q 271 96 264 114 Q 263 119 265 119 L 303 119 L 318 148 Q 317 150 321 149 L 337 122 L 340 119 L 375 119 L 375 115 L 359 86 L 376 51 Q 376 46 376 46 L 339 46 L 323 18 Q 322 15 318 16 Z M 108 48 L 102 62 Q 95 66 84 67 L 96 80 L 93 95 L 95 97 L 109 90 L 112 90 Q 117 98 126 97 Q 127 88 124 83 L 124 80 L 136 67 L 135 65 L 118 63 L 112 50 L 108 48 Z M 181 144 Q 162 148 151 158 Q 133 171 128 197 Q 125 233 142 250 Q 156 267 182 272 Q 216 275 232 259 Q 257 242 256 199 L 256 197 L 254 191 L 254 189 L 242 166 Q 225 142 181 144 Z M 437 144 L 433 146 L 428 153 L 428 176 L 397 176 L 393 178 L 388 185 Q 387 192 390 196 L 397 200 L 428 200 L 428 264 L 430 268 L 437 272 Q 444 273 448 270 L 452 264 L 452 200 L 484 200 L 488 198 L 492 192 Q 493 184 490 181 L 484 176 L 452 176 L 452 153 L 450 149 Q 447 143 437 144 Z M 64 176 L 64 192 L 80 192 L 80 176 L 64 176 Z M 312 176 L 312 192 L 328 192 L 328 176 L 312 176 Z M 64 216 L 64 232 L 80 232 L 80 216 L 64 216 Z M 312 216 L 312 232 L 328 232 L 328 216 L 312 216 Z M 64 256 L 64 272 L 80 272 L 80 256 L 64 256 Z M 312 256 L 312 272 L 328 272 L 328 256 L 312 256 Z M 64 296 L 64 312 L 80 312 L 80 296 L 64 296 Z M 184 296 L 184 312 L 200 312 L 200 296 L 184 296 Z M 312 296 L 312 312 L 328 312 L 328 296 L 312 296 Z M 432 296 L 432 312 L 448 312 L 448 296 L 432 296 Z M 65 332 L 55 337 Q 47 343 44 353 Q 42 370 49 378 Q 55 385 65 388 Q 82 391 90 383 Q 97 377 100 368 Q 103 350 95 343 Q 88 329 65 332 Z M 185 332 L 175 337 Q 167 343 164 353 Q 162 370 169 378 Q 175 385 185 388 Q 202 391 210 383 Q 217 377 220 368 Q 223 350 215 343 Q 208 329 185 332 Z M 313 332 L 303 337 Q 295 343 292 353 Q 290 370 297 378 Q 303 385 313 388 Q 330 391 338 383 Q 345 377 348 368 Q 351 350 343 343 Q 336 329 313 332 Z M 433 332 L 423 337 Q 415 343 412 353 Q 410 370 417 378 Q 423 385 433 388 Q 450 391 458 383 Q 465 377 468 368 Q 471 350 463 343 Q 456 329 433 332 Z M 49 400 L 36 406 Q 27 413 24 425 L 24 494 L 27 496 L 118 496 L 120 494 L 120 425 L 114 412 Q 107 403 96 400 L 49 400 Z M 168 400 Q 158 403 152 408 L 144 423 L 144 495 L 146 496 L 239 496 L 240 495 L 240 423 L 233 409 Q 227 403 217 400 L 168 400 Z M 295 400 L 283 406 Q 275 412 272 423 L 272 495 L 274 496 L 367 496 L 368 495 L 368 423 L 362 411 Q 356 403 346 400 L 295 400 Z M 416 400 L 405 405 Q 395 411 392 424 L 392 494 L 395 496 L 486 496 L 488 494 L 488 424 L 483 413 Q 477 403 465 400 L 416 400 Z " /></svg>