<svg width="512" height="512" version="1.1" xmlns="http://www.w3.org/2000/svg" desc="Created with imagetracer.js version 1.2.6" ><path fill="rgb(0,0,0)" stroke="rgb(0,0,0)" stroke-width="1" opacity="0" d="M 0 0 L 392 0.5 Q 386.5 0 385 3.5 L 384 9.5 Q 387 16 399.5 13 Q 401.5 10 408.5 12 Q 454.337 18.163 477 47.5 Q 498.756 69.244 500 111.5 Q 496 114.5 499 124.5 Q 500 129 506.5 128 L 511 124.5 L 511.5 120 L 512 512 L 135 511.5 L 149.5 505 L 455 199.5 Q 462 191.5 461 175.5 Q 444.961 118.039 402.5 87 Q 382.266 68.234 355.5 56 Q 344.351 50.649 327.5 51 Q 318.282 52.282 312.5 57 L 7 362.5 L 0.5 377 L 0 0 Z M 399 25 Q 393 25 391 30 Q 390 37 395 38 Q 404 41 407 37 Q 434 39 450 53 Q 476 71 474 118 Q 475 122 483 121 L 487 115 Q 488 71 466 52 Q 446 24 399 25 Z M 405 50 L 399 52 Q 397 54 398 60 L 402 63 Q 415 61 424 65 L 438 74 L 447 89 Q 451 97 449 111 L 453 114 Q 458 115 460 113 L 462 109 Q 463 84 452 72 Q 439 50 405 50 Z " /><path fill="rgb(0,0,0)" stroke="rgb(0,0,0)" stroke-width="1" opacity="0" d="M 417.5 0 L 512 0 L 512 94.5 L 511 94.5 Q 503.854 48.646 473.5 26 Q 451.484 6.051 417.5 0 Z " /><path fill="rgb(0,0,0)" stroke="rgb(0,0,0)" stroke-width="1" opacity="0" d="M 0.5 393 L 7 407.5 L 104.5 505 L 119 511.5 L 0 512 L 0.5 393 Z " /><path fill="rgb(128,127,94)" stroke="rgb(128,127,94)" stroke-width="1" opacity="0.9686274509803922" d="M 392.5 0 Q 458.865 -0.365 486 38.5 Q 513.643 64.357 512 119.5 Q 512.083 125.083 508.5 127 L 502.5 128 Q 496 125 499 112.5 Q 502 110.5 500 103.5 Q 493.837 57.663 464.5 35 Q 442.756 13.244 400.5 12 Q 397.5 16 387.5 13 Q 383 12 384 5.5 L 387.5 1 L 392.5 0 Z " /><path fill="rgb(128,127,94)" stroke="rgb(128,127,94)" stroke-width="1" opacity="0.9686274509803922" d="M 398.5 25 Q 446.087 24.413 466 51.5 Q 488.007 71.493 487 114.5 L 482.5 121 Q 475.25 122.25 474 117.5 Q 476.414 70.586 449.5 53 Q 434.273 38.727 406.5 37 Q 403.75 40.75 394.5 38 Q 389.75 36.75 391 29.5 Q 392.95 25.45 398.5 25 Z " /><path fill="rgb(128,127,94)" stroke="rgb(128,127,94)" stroke-width="1" opacity="0.9686274509803922" d="M 404.5 50 Q 439.131 49.869 452 71.5 Q 463.216 83.784 462 108.5 L 460 113 Q 457.938 114.625 452.5 114 L 449 110.5 Q 451 96.5 447 88.5 L 438 74 L 423.5 65 Q 415.5 61 401.5 63 L 398 59.5 Q 397.375 54.063 399 52 L 404.5 50 Z " /><path fill="rgb(128,127,94)" stroke="rgb(128,127,94)" stroke-width="1" opacity="0.9686274509803922" d="M 325.5 80 Q 342.677 78.823 348 89.5 Q 352.217 94.783 352 104.5 Q 349.643 115.643 341.5 121 Q 336.091 125.091 325.5 124 Q 316.393 122.107 312 115.5 Q 306.167 109.833 308 96.5 Q 310.5 88.5 316.5 84 L 325.5 80 Z " /><path fill="rgb(128,127,94)" stroke="rgb(128,127,94)" stroke-width="1" opacity="0.9686274509803922" d="M 276.5 124 L 275.5 126 L 276.5 124 Z " /><path fill="rgb(128,127,94)" stroke="rgb(128,127,94)" stroke-width="1" opacity="0.9686274509803922" d="M 356.5 124 L 352.5 129 L 356.5 124 Z " /><path fill="rgb(128,127,94)" stroke="rgb(128,127,94)" stroke-width="1" opacity="0.9686274509803922" d="M 315.5 135 L 316 140.5 L 315 140.5 L 315.5 135 Z " /><path fill="rgb(128,127,94)" stroke="rgb(128,127,94)" stroke-width="1" opacity="0.9686274509803922" d="M 312.5 149 L 311.5 151 L 312.5 149 Z " /><path fill="rgb(128,127,94)" stroke="rgb(128,127,94)" stroke-width="1" opacity="0.9686274509803922" d="M 275.5 150 L 276.5 152 L 275.5 150 Z " /><path fill="rgb(128,127,94)" stroke="rgb(128,127,94)" stroke-width="1" opacity="0.9686274509803922" d="M 280.5 155 L 281.5 157 L 280.5 155 Z " /><path fill="rgb(128,127,94)" stroke="rgb(128,127,94)" stroke-width="1" opacity="0.9686274509803922" d="M 329.5 156 L 332 156.5 L 329.5 157 L 329.5 156 Z " /><path fill="rgb(128,127,94)" stroke="rgb(128,127,94)" stroke-width="1" opacity="0.9686274509803922" d="M 386.5 156 L 383.5 160 L 386.5 156 Z " /><path fill="rgb(128,127,94)" stroke="rgb(128,127,94)" stroke-width="1" opacity="0.9686274509803922" d="M 356.5 159 L 357.5 161 L 356.5 159 Z " /><path fill="rgb(128,127,94)" stroke="rgb(128,127,94)" stroke-width="1" opacity="0.9686274509803922" d="M 319.5 161 L 317.5 164 L 319.5 161 Z " /><path fill="rgb(128,127,94)" stroke="rgb(128,127,94)" stroke-width="1" opacity="0.9686274509803922" d="M 350.5 192 L 347.5 196 L 350.5 192 Z " /><path fill="rgb(128,127,94)" stroke="rgb(128,127,94)" stroke-width="1" opacity="0.9686274509803922" d="M 320.5 195 L 321.5 197 L 320.5 195 Z " /><path fill="rgb(128,127,94)" stroke="rgb(128,127,94)" stroke-width="1" opacity="0.9686274509803922" d="M 371.5 196 L 377 196.5 L 371.5 197 L 371.5 196 Z " /><path fill="rgb(128,127,94)" stroke="rgb(128,127,94)" stroke-width="1" opacity="0.9686274509803922" d="M 230.5 201 Q 248.453 199.547 254 210.5 Q 259 216 257 228.5 Q 254.5 236.5 248.5 241 Q 243.231 246.231 231.5 245 Q 221.625 242.875 217 235.5 Q 213.425 230.075 213 221.5 Q 214.983 209.483 223.5 204 L 230.5 201 Z " /><path fill="rgb(128,127,94)" stroke="rgb(128,127,94)" stroke-width="1" opacity="0.9686274509803922" d="M 284.5 201 Q 301.481 199.519 307 209.5 Q 312.667 214.833 311 227.5 Q 308.75 235.25 303.5 240 Q 298.333 246.333 285.5 245 Q 274.795 242.705 270 234.5 Q 265.909 229.091 267 218.5 Q 269.508 210.008 275.5 205 L 284.5 201 Z " /><path fill="rgb(128,127,94)" stroke="rgb(128,127,94)" stroke-width="1" opacity="0.9686274509803922" d="M 387.5 235 L 386.5 237 L 387.5 235 Z " /><path fill="rgb(128,127,94)" stroke="rgb(128,127,94)" stroke-width="1" opacity="0.9686274509803922" d="M 233.5 254 Q 247.163 254.337 253 262.5 Q 257.833 268.167 258 278.5 Q 256.25 288.75 249.5 294 Q 243.833 298.833 233.5 299 Q 223.25 297.25 218 290.5 Q 213.167 284.833 213 274.5 Q 214.75 264.25 221.5 259 Q 225.826 254.826 233.5 254 Z " /><path fill="rgb(128,127,94)" stroke="rgb(128,127,94)" stroke-width="1" opacity="0.9686274509803922" d="M 283.5 255 Q 303.091 252.409 308 264.5 Q 312.5 270 311 281.5 Q 308.167 290.167 301.5 295 Q 296.771 298.771 288.5 299 Q 276.375 297.625 271 289.5 Q 266 284 267 272.5 Q 268.893 263.393 275.5 259 L 283.5 255 Z " /><path fill="rgb(128,127,94)" stroke="rgb(128,127,94)" stroke-width="1" opacity="0.9686274509803922" d="M 149.5 256 L 157 256.5 L 149.5 257 L 149.5 256 Z " /><path fill="rgb(128,127,94)" stroke="rgb(128,127,94)" stroke-width="1" opacity="0.9686274509803922" d="M 166.5 260 L 170.5 265 L 166.5 260 Z " /><path fill="rgb(128,127,94)" stroke="rgb(128,127,94)" stroke-width="1" opacity="0.9686274509803922" d="M 136.5 264 L 135.5 266 L 136.5 264 Z " /><path fill="rgb(128,127,94)" stroke="rgb(128,127,94)" stroke-width="1" opacity="0.9686274509803922" d="M 131.5 275 L 132 280.5 L 131 280.5 L 131.5 275 Z " /><path fill="rgb(128,127,94)" stroke="rgb(128,127,94)" stroke-width="1" opacity="0.9686274509803922" d="M 137.5 293 L 138.5 295 L 137.5 293 Z " /><path fill="rgb(128,127,94)" stroke="rgb(128,127,94)" stroke-width="1" opacity="0.9686274509803922" d="M 104.5 296 L 103.5 298 L 104.5 296 Z " /><path fill="rgb(128,127,94)" stroke="rgb(128,127,94)" stroke-width="1" opacity="0.9686274509803922" d="M 191.5 296 L 196 296.5 L 191.5 297 L 191.5 296 Z " /><path fill="rgb(128,127,94)" stroke="rgb(128,127,94)" stroke-width="1" opacity="0.9686274509803922" d="M 134.5 301 L 135.5 303 L 134.5 301 Z " /><path fill="rgb(128,127,94)" stroke="rgb(128,127,94)" stroke-width="1" opacity="0.9686274509803922" d="M 179.5 301 L 176.5 305 L 179.5 301 Z " /><path fill="rgb(128,127,94)" stroke="rgb(128,127,94)" stroke-width="1" opacity="0.9686274509803922" d="M 207.5 301 L 210.5 305 L 207.5 301 Z " /><path fill="rgb(128,127,94)" stroke="rgb(128,127,94)" stroke-width="1" opacity="0.9686274509803922" d="M 171.5 316 L 172 319.5 L 171 319.5 L 171.5 316 Z " /><path fill="rgb(128,127,94)" stroke="rgb(128,127,94)" stroke-width="1" opacity="0.9686274509803922" d="M 215.5 316 L 216 320.5 L 215 320.5 L 215.5 316 Z " /><path fill="rgb(128,127,94)" stroke="rgb(128,127,94)" stroke-width="1" opacity="0.9686274509803922" d="M 210.5 332 L 207.5 336 L 210.5 332 Z " /><path fill="rgb(128,127,94)" stroke="rgb(128,127,94)" stroke-width="1" opacity="0.9686274509803922" d="M 177.5 333 L 178.5 335 L 177.5 333 Z " /><path fill="rgb(128,127,94)" stroke="rgb(128,127,94)" stroke-width="1" opacity="0.9686274509803922" d="M 114.5 336 L 120 336.5 L 114.5 337 L 114.5 336 Z " /><path fill="rgb(128,127,94)" stroke="rgb(128,127,94)" stroke-width="1" opacity="0.9686274509803922" d="M 169.5 336 L 170.5 338 L 169.5 336 Z " /><path fill="rgb(128,127,94)" stroke="rgb(128,127,94)" stroke-width="1" opacity="0.9686274509803922" d="M 143.5 337 L 140.5 341 L 143.5 337 Z " /><path fill="rgb(128,127,94)" stroke="rgb(128,127,94)" stroke-width="1" opacity="0.9686274509803922" d="M 192.5 340 L 195 340.5 L 192.5 341 L 192.5 340 Z " /><path fill="rgb(128,127,94)" stroke="rgb(128,127,94)" stroke-width="1" opacity="0.9686274509803922" d="M 174.5 341 L 175.5 343 L 174.5 341 Z " /><path fill="rgb(128,127,94)" stroke="rgb(128,127,94)" stroke-width="1" opacity="0.9686274509803922" d="M 247.5 341 L 251.5 346 L 247.5 341 Z " /><path fill="rgb(128,127,94)" stroke="rgb(128,127,94)" stroke-width="1" opacity="0.9686274509803922" d="M 255.5 355 L 256 361.5 L 255 361.5 L 255.5 355 Z " /><path fill="rgb(128,127,94)" stroke="rgb(128,127,94)" stroke-width="1" opacity="0.9686274509803922" d="M 174.5 368 L 171.5 372 L 174.5 368 Z " /><path fill="rgb(128,127,94)" stroke="rgb(128,127,94)" stroke-width="1" opacity="0.9686274509803922" d="M 217.5 373 L 219.5 376 L 217.5 373 Z " /><path fill="rgb(128,127,94)" stroke="rgb(128,127,94)" stroke-width="1" opacity="0.9686274509803922" d="M 153.5 376 L 156 376.5 L 153.5 377 L 153.5 376 Z " /><path fill="rgb(128,127,94)" stroke="rgb(128,127,94)" stroke-width="1" opacity="0.9686274509803922" d="M 230.5 380 L 237 380.5 L 230.5 381 L 230.5 380 Z " /><path fill="rgb(128,127,94)" stroke="rgb(128,127,94)" stroke-width="1" opacity="0.9686274509803922" d="M 214.5 381 L 215.5 383 L 214.5 381 Z " /><path fill="rgb(128,127,94)" stroke="rgb(128,127,94)" stroke-width="1" opacity="0.9686274509803922" d="M 175.5 391 L 176 397.5 L 175 397.5 L 175.5 391 Z " /><path fill="rgb(128,127,94)" stroke="rgb(128,127,94)" stroke-width="1" opacity="0.9686274509803922" d="M 215.5 407 L 214.5 409 L 215.5 407 Z " /><path fill="rgb(205,225,212)" stroke="rgb(205,225,212)" stroke-width="1" opacity="1" d="M 290.5 116 Q 305.473 115.527 311 124.5 Q 316.833 130.167 315 143.5 Q 312.5 151.5 306.5 156 Q 300.924 160.424 290.5 160 Q 281.889 158.111 277 152.5 Q 270.5 147 272 133.5 Q 274.25 125.75 279.5 121 L 290.5 116 Z " /><path fill="rgb(205,225,212)" stroke="rgb(205,225,212)" stroke-width="1" opacity="1" d="M 367.5 120 Q 382.625 119.875 388 129.5 Q 392.217 134.783 392 144.5 Q 390.125 156.125 381.5 161 Q 376.091 165.091 365.5 164 Q 357.75 161.75 353 156.5 Q 347.277 150.723 348 138.5 Q 350.023 128.523 357.5 124 L 367.5 120 Z " /><path fill="rgb(205,225,212)" stroke="rgb(205,225,212)" stroke-width="1" opacity="1" d="M 332.5 156 Q 346.801 156.199 352 165.5 Q 356 170.5 356 179.5 Q 354.017 191.517 345.5 197 Q 340.091 201.091 329.5 200 Q 321.75 197.75 317 192.5 Q 311.277 186.723 312 174.5 Q 314.023 164.523 321.5 160 L 332.5 156 Z " /><path fill="rgb(205,225,212)" stroke="rgb(205,225,212)" stroke-width="1" opacity="1" d="M 405.5 161 Q 422.677 159.823 428 170.5 Q 433 176 431 188.5 Q 428.417 195.917 422.5 200 Q 416.924 204.424 406.5 204 Q 396.625 201.875 392 194.5 Q 387.35 188.65 389 176.5 Q 391.917 168.417 398.5 164 L 405.5 161 Z " /><path fill="rgb(205,225,212)" stroke="rgb(205,225,212)" stroke-width="1" opacity="1" d="M 368.5 197 Q 386.242 195.258 392 205.5 Q 396.217 210.783 396 220.5 Q 394.45 229.95 388.5 235 Q 383 241.5 369.5 240 Q 361.327 238.173 357 232.5 Q 351.277 226.723 352 214.5 Q 354.125 204.625 361.5 200 L 368.5 197 Z " /><path fill="rgb(205,225,212)" stroke="rgb(205,225,212)" stroke-width="1" opacity="1" d="M 147.5 257 Q 166.715 254.785 172 266.5 Q 176.5 272 175 283.5 Q 172.5 291.5 166.5 296 Q 161.231 301.231 149.5 300 Q 139.523 297.977 135 290.5 Q 130.35 284.65 132 272.5 Q 134.11 265.11 139.5 261 L 147.5 257 Z " /><path fill="rgb(205,225,212)" stroke="rgb(205,225,212)" stroke-width="1" opacity="1" d="M 112.5 293 Q 128.025 291.975 134 300.5 Q 139.5 306 139 317.5 Q 136.929 327.929 129.5 333 Q 123.65 337.65 111.5 336 Q 103.15 333.85 99 327.5 Q 94.576 321.924 95 311.5 Q 96.889 302.889 102.5 298 L 112.5 293 Z " /><path fill="rgb(205,225,212)" stroke="rgb(205,225,212)" stroke-width="1" opacity="1" d="M 188.5 297 Q 207.375 294.625 212 306.5 Q 216.833 311.667 215 323.5 Q 212.55 332.55 205.5 337 Q 200 341.5 188.5 340 Q 179.45 337.55 175 330.5 Q 170.5 325 172 313.5 Q 174.45 304.45 181.5 300 L 188.5 297 Z " /><path fill="rgb(205,225,212)" stroke="rgb(205,225,212)" stroke-width="1" opacity="1" d="M 153.5 333 Q 168.271 332.229 174 340.5 Q 180.333 345.667 179 358.5 Q 176.977 368.477 169.5 373 Q 164.771 376.771 156.5 377 Q 144.375 375.625 139 367.5 Q 134.783 362.217 135 352.5 Q 136.875 340.875 145.5 336 L 153.5 333 Z " /><path fill="rgb(205,225,212)" stroke="rgb(205,225,212)" stroke-width="1" opacity="1" d="M 228.5 337 Q 246.453 335.547 252 346.5 Q 257 352 255 364.5 Q 252.89 371.89 247.5 376 Q 241.5 382 227.5 380 Q 219.417 377.083 215 370.5 Q 210.65 365.35 212 354.5 Q 213.893 345.393 220.5 341 L 228.5 337 Z " /><path fill="rgb(205,225,212)" stroke="rgb(205,225,212)" stroke-width="1" opacity="1" d="M 194.5 373 Q 208.507 372.493 214 380.5 Q 220.5 386 219 399.5 Q 216.75 407.25 211.5 412 Q 206 417.5 194.5 417 Q 184.786 415.214 180 408.5 Q 174 402.5 176 388.5 Q 178.583 381.083 184.5 377 L 194.5 373 Z " /><path fill="rgb(0,70,95)" stroke="rgb(0,70,95)" stroke-width="1" opacity="0.9921568627450981" d="M 327.5 51 L 337 51.5 L 327.5 52 L 327.5 51 Z " /><path fill="rgb(0,70,95)" stroke="rgb(0,70,95)" stroke-width="1" opacity="0.9921568627450981" d="M 322.5 52 L 326 52.5 Q 316.68 53.68 311.5 59 L 9 361.5 L 2.5 373 L 2 371.5 L 7 362.5 L 312.5 57 L 322.5 52 Z " /><path fill="rgb(0,70,95)" stroke="rgb(0,70,95)" stroke-width="1" opacity="0.9921568627450981" d="M 338.5 52 L 343 52.5 L 338.5 53 L 338.5 52 Z " /><path fill="rgb(0,70,95)" stroke="rgb(0,70,95)" stroke-width="1" opacity="0.9921568627450981" d="M 344.5 53 Q 394.778 71.222 425 109.5 Q 443.619 128.881 455 155.5 L 454 155.5 Q 435.821 117.179 405.5 91 Q 380.152 65.737 344.5 53 Z " /><path fill="rgb(0,70,95)" stroke="rgb(0,70,95)" stroke-width="1" opacity="0.9921568627450981" d="M 455.5 157 Q 459.646 163.354 460 173.5 L 459 173.5 Q 459.412 162.471 455.5 157 Z " /><path fill="rgb(0,70,95)" stroke="rgb(0,70,95)" stroke-width="1" opacity="0.9921568627450981" d="M 460.5 175 L 461 184.5 L 460 184.5 L 460.5 175 Z " /><path fill="rgb(0,70,95)" stroke="rgb(0,70,95)" stroke-width="1" opacity="0.9921568627450981" d="M 459.5 186 L 460 189.5 L 455 199.5 L 149.5 505 L 139.5 510 L 139.5 509 L 150.5 503 L 453 200.5 Q 458.32 195.32 459.5 186 Z " /><path fill="rgb(0,70,95)" stroke="rgb(0,70,95)" stroke-width="1" opacity="0.9921568627450981" d="M 1.5 374 L 2 376.5 L 1 377.5 L 1 392.5 Q 3.546 402.954 10 409.5 L 103.5 503 Q 112.5 513.5 134.5 511 L 137.5 510 L 137.5 511 Q 130.875 513.875 119.5 512 L 104.5 505 L 7 407.5 Q -2.386 398.386 0 377.5 L 1.5 374 Z " /><path fill="rgb(0,70,95)" stroke="rgb(0,70,95)" stroke-width="1" opacity="1" d="M 326.5 52 Q 354.648 51.352 369.5 64 Q 398.871 81.629 421 106.5 Q 441.627 127.873 455 156.5 Q 461.196 167.304 460 185.5 Q 458.286 194.786 453 200.5 L 150.5 503 Q 141.209 513.209 119.5 511 L 103.5 503 L 10 409.5 Q -1.596 400.596 1 377.5 L 9 361.5 L 311.5 59 Q 317.214 53.714 326.5 52 Z M 326 80 L 317 84 Q 310 89 308 97 Q 306 110 312 116 Q 316 122 326 124 Q 336 125 342 121 Q 350 116 352 105 Q 352 95 348 90 Q 343 79 326 80 Z M 289 116 L 281 120 Q 272 125 271 138 L 275 151 Q 279 158 289 160 Q 300 162 306 157 Q 314 152 316 141 Q 316 131 312 126 Q 306 115 289 116 Z M 366 120 L 357 124 Q 351 129 348 137 Q 346 150 352 156 Q 356 162 365 164 Q 378 166 384 160 Q 389 155 392 147 Q 393 136 389 131 Q 384 119 366 120 Z M 330 156 L 320 161 Q 314 165 312 173 Q 310 186 316 192 Q 320 198 329 200 Q 342 202 348 196 Q 354 191 356 182 Q 357 172 353 167 Q 348 155 330 156 Z M 406 161 L 399 164 Q 392 168 389 177 Q 387 189 392 195 Q 397 202 407 204 Q 417 204 423 200 Q 428 196 431 189 Q 433 176 428 171 Q 423 160 406 161 Z M 372 196 L 363 199 Q 355 204 352 214 Q 350 226 356 232 Q 360 237 368 240 Q 381 242 387 237 Q 394 232 396 223 Q 397 212 393 207 Q 388 196 372 196 Z M 231 201 L 224 204 Q 215 209 213 222 Q 213 230 217 236 Q 222 243 232 245 Q 243 246 249 241 Q 255 237 257 229 Q 259 216 254 211 Q 248 200 231 201 Z M 285 201 L 276 205 Q 270 210 267 219 Q 266 229 270 235 Q 275 243 286 245 Q 298 246 304 240 Q 309 235 311 228 Q 313 215 307 210 Q 301 200 285 201 Z M 234 254 Q 226 255 222 259 Q 215 264 213 275 Q 213 285 218 291 Q 223 297 234 299 Q 244 299 250 294 Q 256 289 258 279 Q 258 268 253 263 Q 247 254 234 254 Z M 284 255 L 276 259 Q 269 263 267 273 Q 266 284 271 290 Q 276 298 289 299 Q 297 299 302 295 Q 308 290 311 282 Q 313 270 308 265 Q 303 252 284 255 Z M 150 256 L 141 260 Q 133 265 131 276 Q 131 288 137 294 L 148 300 Q 160 302 166 297 Q 174 291 176 279 Q 176 269 171 265 Q 165 255 150 256 Z M 117 292 Q 109 292 105 296 Q 98 301 95 310 Q 94 321 98 327 Q 103 335 115 337 Q 124 338 129 334 Q 136 329 139 320 Q 141 308 136 303 Q 130 293 117 292 Z M 192 296 Q 184 297 180 301 Q 173 306 171 317 Q 171 328 177 334 Q 182 340 193 341 Q 202 341 208 336 Q 214 331 216 321 Q 216 310 211 305 Q 206 296 192 296 Z M 152 333 L 144 337 Q 138 342 135 351 Q 134 361 138 367 Q 143 375 154 377 Q 166 378 172 372 Q 177 368 179 361 Q 181 348 176 343 Q 170 331 152 333 Z M 233 336 L 222 340 Q 215 344 212 353 Q 210 368 217 374 Q 222 379 231 381 Q 241 381 247 377 Q 254 372 256 362 Q 256 351 252 346 Q 246 337 233 336 Z M 193 373 L 186 376 Q 178 381 175 392 Q 175 402 179 408 Q 183 415 193 417 Q 205 418 211 413 Q 219 407 220 395 Q 220 387 216 383 Q 210 372 193 373 Z " /></svg>