<svg width="512" height="512" version="1.1" xmlns="http://www.w3.org/2000/svg" desc="Created with imagetracer.js version 1.2.6" ><path fill="rgb(213,221,234)" stroke="rgb(213,221,234)" stroke-width="1" opacity="0.9803921568627451" d="M 236.5 178 L 237.5 180 L 236.5 178 Z " /><path fill="rgb(213,221,234)" stroke="rgb(213,221,234)" stroke-width="1" opacity="0.9803921568627451" d="M 240.5 181 L 241.5 183 L 240.5 181 Z " /><path fill="rgb(213,221,234)" stroke="rgb(213,221,234)" stroke-width="1" opacity="0.9803921568627451" d="M 244.5 184 L 245.5 186 L 244.5 184 Z " /><path fill="rgb(213,221,234)" stroke="rgb(213,221,234)" stroke-width="1" opacity="0.9803921568627451" d="M 249.5 188 L 250.5 190 L 249.5 188 Z " /><path fill="rgb(213,221,234)" stroke="rgb(213,221,234)" stroke-width="1" opacity="0.9803921568627451" d="M 253.5 191 L 256.5 195 L 253.5 191 Z " /><path fill="rgb(213,221,234)" stroke="rgb(213,221,234)" stroke-width="1" opacity="0.9803921568627451" d="M 259.5 196 L 261.5 199 L 259.5 196 Z " /><path fill="rgb(213,221,234)" stroke="rgb(213,221,234)" stroke-width="1" opacity="0.9803921568627451" d="M 264.5 200 L 268.5 205 L 264.5 200 Z " /><path fill="rgb(213,221,234)" stroke="rgb(213,221,234)" stroke-width="1" opacity="0.9803921568627451" d="M 271.5 206 L 275.5 211 L 271.5 206 Z " /><path fill="rgb(213,221,234)" stroke="rgb(213,221,234)" stroke-width="1" opacity="0.9803921568627451" d="M 279.5 213 L 285.5 220 L 279.5 213 Z " /><path fill="rgb(213,221,234)" stroke="rgb(213,221,234)" stroke-width="1" opacity="0.9803921568627451" d="M 453.5 214 Q 461.4 213.1 463 218.5 L 482 253.5 L 476.5 261 L 362.5 337 Q 357.531 327.469 358 312.5 L 395.5 252 L 453.5 214 Z " /><path fill="rgb(213,221,234)" stroke="rgb(213,221,234)" stroke-width="1" opacity="0.9803921568627451" d="M 291.5 224 L 319.5 253 L 291.5 224 Z " /><path fill="rgb(213,221,234)" stroke="rgb(213,221,234)" stroke-width="1" opacity="0.9803921568627451" d="M 323.5 257 L 327.5 262 L 323.5 257 Z " /><path fill="rgb(213,221,234)" stroke="rgb(213,221,234)" stroke-width="1" opacity="0.9803921568627451" d="M 330.5 265 L 332.5 268 L 330.5 265 Z " /><path fill="rgb(213,221,234)" stroke="rgb(213,221,234)" stroke-width="1" opacity="0.9803921568627451" d="M 334.5 270 L 336.5 273 L 334.5 270 Z " /><path fill="rgb(213,221,234)" stroke="rgb(213,221,234)" stroke-width="1" opacity="0.9803921568627451" d="M 338.5 275 L 340.5 278 L 338.5 275 Z " /><path fill="rgb(213,221,234)" stroke="rgb(213,221,234)" stroke-width="1" opacity="0.9803921568627451" d="M 341.5 279 L 342.5 281 L 341.5 279 Z " /><path fill="rgb(88,115,175)" stroke="rgb(88,115,175)" stroke-width="1" opacity="0.9921568627450981" d="M 168.5 24 L 235.5 24 Q 252.479 28.021 261 40.5 L 267 52.5 L 273 89.5 L 275.5 96 L 295 106 L 295 108.5 L 277.5 140 L 224.5 112 L 215.5 112 L 208 117.5 L 191.5 150 Q 161.527 130.973 121.5 122 L 122 123.5 Q 126.634 142.866 127 166.5 Q 126.35 172.85 121.5 175 L 113.5 176 Q 107.75 174.75 105 170.5 Q 101 157 104 136.5 L 105 135.5 L 106 119.5 L 109.5 115 L 114.5 114 L 128 102.5 L 136 54.5 Q 139.904 39.904 150.5 32 Q 157.5 26 168.5 24 Z M 182 47 L 172 51 Q 159 60 159 82 L 160 88 Q 173 82 191 80 Q 222 77 244 84 Q 245 67 238 57 Q 233 49 223 47 L 182 47 Z " /><path fill="rgb(88,115,175)" stroke="rgb(88,115,175)" stroke-width="1" opacity="0.9921568627450981" d="M 234.5 176 L 235.5 178 L 234.5 176 Z " /><path fill="rgb(88,115,175)" stroke="rgb(88,115,175)" stroke-width="1" opacity="0.9921568627450981" d="M 242.5 182 L 243.5 184 L 242.5 182 Z " /><path fill="rgb(88,115,175)" stroke="rgb(88,115,175)" stroke-width="1" opacity="0.9921568627450981" d="M 246.5 185 L 247.5 187 L 246.5 185 Z " /><path fill="rgb(88,115,175)" stroke="rgb(88,115,175)" stroke-width="1" opacity="0.9921568627450981" d="M 76.5 300 L 260.5 300 Q 262.25 302.75 268.5 301 Q 314.959 310.541 341 340.5 Q 358.94 359.56 367.5 388 L 368 383.5 Q 366.932 359.068 362 338.5 Q 381.5 321.25 405 310 Q 415.34 366.862 414 436.5 Q 409.491 462.991 391.5 476 Q 380.94 484.94 364.5 488 Q 323.306 486.306 286.5 489 L 286.5 488 Q 309.63 486.13 320 471.5 Q 335.761 453.761 331 415.5 Q 325.887 371.897 301 349 Q 280.433 328.33 245.5 321 Q 238.5 323 236.5 320 L 126 320 Q 132.435 343.18 132 374.5 L 126.5 382 L 116.5 384 L 109 379.5 L 107 375.5 L 107 342.5 L 108 341.5 Q 107.4 328.75 110 320 Q 67.888 318.264 49 340 L 48 311.5 L 47 310.5 Q 58.417 301.917 76.5 300 Z " /><path fill="rgb(0,0,0)" stroke="rgb(0,0,0)" stroke-width="1" opacity="0" d="M 0 0 L 512 0 L 512 512 L 0 512 L 0 0 Z M 169 24 Q 158 26 151 32 Q 140 40 136 55 L 128 103 L 115 114 L 110 115 Q 105 117 106 124 Q 93 127 85 136 Q 49 177 47 253 Q 44 294 49 329 L 49 341 Q 33 356 30 385 L 30 445 Q 31 461 39 471 Q 50 486 75 489 Q 222 491 365 488 Q 380 485 391 477 Q 409 464 414 437 Q 415 367 405 310 L 477 261 L 482 255 Q 474 233 462 216 L 459 214 Q 452 213 450 216 L 399 250 L 396 252 L 429 196 Q 430 185 426 181 Q 375 136 315 101 Q 301 99 296 105 L 296 107 Q 288 99 276 96 L 273 90 L 267 53 L 261 41 Q 252 28 236 24 L 169 24 Z " /><path fill="rgb(0,0,0)" stroke="rgb(0,0,0)" stroke-width="1" opacity="0" d="M 181.5 47 L 222.5 47 Q 232.929 49.071 238 56.5 Q 244.612 67.043 244 84 Q 222.47 77.36 190.5 80 Q 172.512 81.512 159.5 88 L 159 81.5 Q 159.037 60.037 171.5 51 L 181.5 47 Z " /><path fill="rgb(132,173,229)" stroke="rgb(132,173,229)" stroke-width="1" opacity="0.8235294117647058" d="M 101.5 125 L 103 125.5 Q 87.357 131.857 78 144.5 Q 62.75 164.25 56.5 193 L 56 190.5 Q 63.453 157.453 83.5 137 Q 90.833 129.333 101.5 125 Z " /><path fill="rgb(132,173,229)" stroke="rgb(132,173,229)" stroke-width="1" opacity="0.8235294117647058" d="M 55.5 194 L 56 197.5 L 54.5 202 L 54 198.5 L 55.5 194 Z " /><path fill="rgb(132,173,229)" stroke="rgb(132,173,229)" stroke-width="1" opacity="0.8235294117647058" d="M 53.5 203 L 54 206.5 L 53 206.5 L 53.5 203 Z " /><path fill="rgb(132,173,229)" stroke="rgb(132,173,229)" stroke-width="1" opacity="0.8235294117647058" d="M 52.5 208 L 53 212.5 L 52 212.5 L 52.5 208 Z " /><path fill="rgb(132,173,229)" stroke="rgb(132,173,229)" stroke-width="1" opacity="0.8235294117647058" d="M 51.5 214 L 52 219.5 L 50.5 227 L 50 220.5 L 51.5 214 Z " /><path fill="rgb(132,173,229)" stroke="rgb(132,173,229)" stroke-width="1" opacity="0.8235294117647058" d="M 49.5 228 L 50 236.5 L 49 236.5 L 49.5 228 Z " /><path fill="rgb(132,173,229)" stroke="rgb(132,173,229)" stroke-width="1" opacity="0.8235294117647058" d="M 48.5 238 L 49 249.5 L 48 249.5 L 48.5 238 Z " /><path fill="rgb(132,173,229)" stroke="rgb(132,173,229)" stroke-width="1" opacity="0.8235294117647058" d="M 47.5 252 L 48 309.5 L 47 309.5 L 47.5 252 Z " /><path fill="rgb(132,173,229)" stroke="rgb(132,173,229)" stroke-width="1" opacity="0.8235294117647058" d="M 49.5 340 L 50 341.5 Q 36.419 353.419 32.5 375 L 32 371.5 Q 36.997 351.997 49.5 340 Z " /><path fill="rgb(132,173,229)" stroke="rgb(132,173,229)" stroke-width="1" opacity="0.8235294117647058" d="M 31.5 376 L 32 381.5 L 31 381.5 L 31.5 376 Z " /><path fill="rgb(132,173,229)" stroke="rgb(132,173,229)" stroke-width="1" opacity="0.8235294117647058" d="M 30.5 385 L 31 444.5 L 30 444.5 L 30.5 385 Z " /><path fill="rgb(132,173,229)" stroke="rgb(132,173,229)" stroke-width="1" opacity="0.8235294117647058" d="M 31.5 448 L 32 452.5 L 31 452.5 L 31.5 448 Z " /><path fill="rgb(132,173,229)" stroke="rgb(132,173,229)" stroke-width="1" opacity="0.8235294117647058" d="M 32.5 454 Q 36.382 469.618 47.5 478 Q 54.246 484.254 65 486.5 L 62.5 487 Q 47.417 482.083 39 470.5 Q 32.372 463.914 32.5 454 Z " /><path fill="rgb(132,173,229)" stroke="rgb(132,173,229)" stroke-width="1" opacity="0.8235294117647058" d="M 66.5 487 L 71 487.5 L 66.5 488 L 66.5 487 Z " /><path fill="rgb(132,173,229)" stroke="rgb(132,173,229)" stroke-width="1" opacity="0.8235294117647058" d="M 74.5 488 L 286 488.5 L 74.5 489 L 74.5 488 Z " /><path fill="rgb(210,234,254)" stroke="rgb(210,234,254)" stroke-width="1" opacity="0.996078431372549" d="M 122.5 122 Q 184.646 139.854 230.5 174 Q 281.018 210.982 323 256.5 Q 336.487 270.406 346 287 Q 327.8 275.844 303.5 270 Q 278.928 266.072 250.5 266 L 219.5 259 Q 191.912 250.088 175 230.5 L 163 210.5 Q 157.321 184.679 148 162.5 Q 137.613 138.93 122.5 122 Z " /><path fill="rgb(238,157,83)" stroke="rgb(238,157,83)" stroke-width="1" opacity="0.9921568627450981" d="M 303.5 101 Q 312.375 99.625 317.5 102 L 333.5 112 Q 382.76 143.24 426 180.5 Q 430.2 185.3 429 195.5 L 357.5 314 Q 353.063 291.937 341 277.5 Q 318.489 248.511 291.5 224 Q 248.108 180.392 192 149.5 Q 198.771 128.771 211.5 114 Q 215.5 110.5 224.5 112 L 277.5 140 L 296 105 L 303.5 101 Z " /><path fill="rgb(143,187,238)" stroke="rgb(143,187,238)" stroke-width="1" opacity="0.996078431372549" d="M 104.5 132 L 105 135.5 L 104 135.5 L 104.5 132 Z " /><path fill="rgb(143,187,238)" stroke="rgb(143,187,238)" stroke-width="1" opacity="0.996078431372549" d="M 89.5 133 L 88.5 135 L 89.5 133 Z " /><path fill="rgb(143,187,238)" stroke="rgb(143,187,238)" stroke-width="1" opacity="0.996078431372549" d="M 124.5 136 L 125 138.5 L 124 138.5 L 124.5 136 Z " /><path fill="rgb(143,187,238)" stroke="rgb(143,187,238)" stroke-width="1" opacity="0.996078431372549" d="M 80.5 142 L 78.5 145 L 80.5 142 Z " /><path fill="rgb(143,187,238)" stroke="rgb(143,187,238)" stroke-width="1" opacity="0.996078431372549" d="M 125.5 144 L 126 147.5 L 125 147.5 L 125.5 144 Z " /><path fill="rgb(143,187,238)" stroke="rgb(143,187,238)" stroke-width="1" opacity="0.996078431372549" d="M 76.5 147 L 75.5 149 L 76.5 147 Z " /><path fill="rgb(143,187,238)" stroke="rgb(143,187,238)" stroke-width="1" opacity="0.996078431372549" d="M 126.5 156 L 127 164.5 L 126 164.5 L 126.5 156 Z " /><path fill="rgb(143,187,238)" stroke="rgb(143,187,238)" stroke-width="1" opacity="0.996078431372549" d="M 105.5 171 L 110 174.5 L 108.5 175 L 105.5 171 Z " /><path fill="rgb(143,187,238)" stroke="rgb(143,187,238)" stroke-width="1" opacity="0.996078431372549" d="M 125.5 171 L 122.5 175 L 125.5 171 Z " /><path fill="rgb(143,187,238)" stroke="rgb(143,187,238)" stroke-width="1" opacity="0.996078431372549" d="M 348.5 290 L 351 294.5 L 350 294.5 L 348.5 290 Z " /><path fill="rgb(143,187,238)" stroke="rgb(143,187,238)" stroke-width="1" opacity="0.996078431372549" d="M 80.5 299 L 256 299.5 L 80.5 300 L 80.5 299 Z " /><path fill="rgb(143,187,238)" stroke="rgb(143,187,238)" stroke-width="1" opacity="0.996078431372549" d="M 71.5 300 L 76 300.5 L 71.5 301 L 71.5 300 Z " /><path fill="rgb(143,187,238)" stroke="rgb(143,187,238)" stroke-width="1" opacity="0.996078431372549" d="M 261.5 300 L 266 300.5 L 261.5 301 L 261.5 300 Z " /><path fill="rgb(143,187,238)" stroke="rgb(143,187,238)" stroke-width="1" opacity="0.996078431372549" d="M 67.5 301 L 70 301.5 L 67.5 302 L 67.5 301 Z " /><path fill="rgb(143,187,238)" stroke="rgb(143,187,238)" stroke-width="1" opacity="0.996078431372549" d="M 269.5 301 L 272 301.5 L 269.5 302 L 269.5 301 Z " /><path fill="rgb(143,187,238)" stroke="rgb(143,187,238)" stroke-width="1" opacity="0.996078431372549" d="M 274.5 302 L 277 302.5 L 274.5 303 L 274.5 302 Z " /><path fill="rgb(143,187,238)" stroke="rgb(143,187,238)" stroke-width="1" opacity="0.996078431372549" d="M 278.5 303 L 281 303.5 L 278.5 304 L 278.5 303 Z " /><path fill="rgb(143,187,238)" stroke="rgb(143,187,238)" stroke-width="1" opacity="0.996078431372549" d="M 282.5 304 L 285 304.5 L 282.5 305 L 282.5 304 Z " /><path fill="rgb(143,187,238)" stroke="rgb(143,187,238)" stroke-width="1" opacity="0.996078431372549" d="M 54.5 305 L 56 305.5 L 52.5 307 L 52.5 306 L 54.5 305 Z " /><path fill="rgb(143,187,238)" stroke="rgb(143,187,238)" stroke-width="1" opacity="0.996078431372549" d="M 289.5 306 L 293 307.5 L 291.5 308 L 289.5 306 Z " /><path fill="rgb(143,187,238)" stroke="rgb(143,187,238)" stroke-width="1" opacity="0.996078431372549" d="M 299.5 310 L 310 315.5 L 308.5 315 Q 298.808 313.942 299.5 310 Z " /><path fill="rgb(143,187,238)" stroke="rgb(143,187,238)" stroke-width="1" opacity="0.996078431372549" d="M 397.5 313 L 396.5 315 L 397.5 313 Z " /><path fill="rgb(143,187,238)" stroke="rgb(143,187,238)" stroke-width="1" opacity="0.996078431372549" d="M 357.5 314 L 358 316.5 L 357 316.5 L 357.5 314 Z " /><path fill="rgb(143,187,238)" stroke="rgb(143,187,238)" stroke-width="1" opacity="0.996078431372549" d="M 311.5 316 L 315 318.5 L 313.5 318 L 311.5 316 Z " /><path fill="rgb(143,187,238)" stroke="rgb(143,187,238)" stroke-width="1" opacity="0.996078431372549" d="M 391.5 317 L 389.5 320 L 391.5 317 Z " /><path fill="rgb(143,187,238)" stroke="rgb(143,187,238)" stroke-width="1" opacity="0.996078431372549" d="M 358.5 318 L 359 320.5 L 358 320.5 L 358.5 318 Z " /><path fill="rgb(143,187,238)" stroke="rgb(143,187,238)" stroke-width="1" opacity="0.996078431372549" d="M 316.5 319 L 317.5 321 L 316.5 319 Z " /><path fill="rgb(143,187,238)" stroke="rgb(143,187,238)" stroke-width="1" opacity="0.996078431372549" d="M 91.5 320 L 110 320.5 L 91.5 321 L 91.5 320 Z " /><path fill="rgb(143,187,238)" stroke="rgb(143,187,238)" stroke-width="1" opacity="0.996078431372549" d="M 126 320 L 237 320.5 L 127 321 L 126.5 323 L 126 320 Z " /><path fill="rgb(143,187,238)" stroke="rgb(143,187,238)" stroke-width="1" opacity="0.996078431372549" d="M 387.5 320 L 386.5 322 L 387.5 320 Z " /><path fill="rgb(143,187,238)" stroke="rgb(143,187,238)" stroke-width="1" opacity="0.996078431372549" d="M 85.5 321 L 89 321.5 L 85.5 322 L 85.5 321 Z " /><path fill="rgb(143,187,238)" stroke="rgb(143,187,238)" stroke-width="1" opacity="0.996078431372549" d="M 241.5 321 L 246 321.5 L 241.5 322 L 241.5 321 Z " /><path fill="rgb(143,187,238)" stroke="rgb(143,187,238)" stroke-width="1" opacity="0.996078431372549" d="M 319.5 321 L 320.5 323 L 319.5 321 Z " /><path fill="rgb(143,187,238)" stroke="rgb(143,187,238)" stroke-width="1" opacity="0.996078431372549" d="M 81.5 322 L 84 322.5 L 81.5 323 L 81.5 322 Z " /><path fill="rgb(143,187,238)" stroke="rgb(143,187,238)" stroke-width="1" opacity="0.996078431372549" d="M 109.5 322 L 110 324.5 L 109 324.5 L 109.5 322 Z " /><path fill="rgb(143,187,238)" stroke="rgb(143,187,238)" stroke-width="1" opacity="0.996078431372549" d="M 247.5 322 L 251 322.5 L 247.5 323 L 247.5 322 Z " /><path fill="rgb(143,187,238)" stroke="rgb(143,187,238)" stroke-width="1" opacity="0.996078431372549" d="M 359.5 322 L 360 325.5 L 359 325.5 L 359.5 322 Z " /><path fill="rgb(143,187,238)" stroke="rgb(143,187,238)" stroke-width="1" opacity="0.996078431372549" d="M 384.5 322 L 383.5 324 L 384.5 322 Z " /><path fill="rgb(143,187,238)" stroke="rgb(143,187,238)" stroke-width="1" opacity="0.996078431372549" d="M 77.5 323 L 80 323.5 L 75.5 325 L 75.5 324 L 77.5 323 Z " /><path fill="rgb(143,187,238)" stroke="rgb(143,187,238)" stroke-width="1" opacity="0.996078431372549" d="M 252.5 323 L 255 323.5 L 252.5 324 L 252.5 323 Z " /><path fill="rgb(143,187,238)" stroke="rgb(143,187,238)" stroke-width="1" opacity="0.996078431372549" d="M 322.5 323 L 342 340.5 L 352 353.5 L 349 351.5 Q 342.171 340.329 332.5 332 Q 325.417 328.333 322.5 323 Z " /><path fill="rgb(143,187,238)" stroke="rgb(143,187,238)" stroke-width="1" opacity="0.996078431372549" d="M 256.5 324 L 264 326.5 L 262.5 327 Q 255.75 326.75 256.5 324 Z " /><path fill="rgb(143,187,238)" stroke="rgb(143,187,238)" stroke-width="1" opacity="0.996078431372549" d="M 381.5 324 L 380.5 326 L 381.5 324 Z " /><path fill="rgb(143,187,238)" stroke="rgb(143,187,238)" stroke-width="1" opacity="0.996078431372549" d="M 72.5 325 L 74 325.5 L 70.5 327 L 70.5 326 L 72.5 325 Z " /><path fill="rgb(143,187,238)" stroke="rgb(143,187,238)" stroke-width="1" opacity="0.996078431372549" d="M 378.5 326 L 377.5 328 L 378.5 326 Z " /><path fill="rgb(143,187,238)" stroke="rgb(143,187,238)" stroke-width="1" opacity="0.996078431372549" d="M 360.5 327 L 361 330.5 L 360 330.5 L 360.5 327 Z " /><path fill="rgb(143,187,238)" stroke="rgb(143,187,238)" stroke-width="1" opacity="0.996078431372549" d="M 66.5 328 L 65.5 330 L 63.5 331 L 64.5 329 L 66.5 328 Z " /><path fill="rgb(143,187,238)" stroke="rgb(143,187,238)" stroke-width="1" opacity="0.996078431372549" d="M 375.5 328 L 374.5 330 L 375.5 328 Z " /><path fill="rgb(143,187,238)" stroke="rgb(143,187,238)" stroke-width="1" opacity="0.996078431372549" d="M 108.5 329 L 109 331.5 L 108 331.5 L 108.5 329 Z " /><path fill="rgb(143,187,238)" stroke="rgb(143,187,238)" stroke-width="1" opacity="0.996078431372549" d="M 270.5 329 L 279 333.5 L 277.5 333 Q 269.8 332.2 270.5 329 Z " /><path fill="rgb(143,187,238)" stroke="rgb(143,187,238)" stroke-width="1" opacity="0.996078431372549" d="M 128.5 330 L 129 332.5 L 128 332.5 L 128.5 330 Z " /><path fill="rgb(143,187,238)" stroke="rgb(143,187,238)" stroke-width="1" opacity="0.996078431372549" d="M 372.5 330 L 371.5 332 L 372.5 330 Z " /><path fill="rgb(143,187,238)" stroke="rgb(143,187,238)" stroke-width="1" opacity="0.996078431372549" d="M 61.5 331 L 60.5 333 L 61.5 331 Z " /><path fill="rgb(143,187,238)" stroke="rgb(143,187,238)" stroke-width="1" opacity="0.996078431372549" d="M 369.5 332 L 368.5 334 L 369.5 332 Z " /><path fill="rgb(143,187,238)" stroke="rgb(143,187,238)" stroke-width="1" opacity="0.996078431372549" d="M 58.5 333 L 56.5 336 L 58.5 333 Z " /><path fill="rgb(143,187,238)" stroke="rgb(143,187,238)" stroke-width="1" opacity="0.996078431372549" d="M 361.5 333 L 362.5 337 L 366.5 334 L 364.5 337 L 362.5 338 Q 359.813 336.813 361.5 333 Z " /><path fill="rgb(143,187,238)" stroke="rgb(143,187,238)" stroke-width="1" opacity="0.996078431372549" d="M 280.5 334 L 284 336.5 L 282.5 336 L 280.5 334 Z " /><path fill="rgb(143,187,238)" stroke="rgb(143,187,238)" stroke-width="1" opacity="0.996078431372549" d="M 54.5 336 L 50.5 341 L 54.5 336 Z " /><path fill="rgb(143,187,238)" stroke="rgb(143,187,238)" stroke-width="1" opacity="0.996078431372549" d="M 129.5 336 L 130 338.5 L 129 338.5 L 129.5 336 Z " /><path fill="rgb(143,187,238)" stroke="rgb(143,187,238)" stroke-width="1" opacity="0.996078431372549" d="M 107.5 337 L 108 341.5 L 107 341.5 L 107.5 337 Z " /><path fill="rgb(143,187,238)" stroke="rgb(143,187,238)" stroke-width="1" opacity="0.996078431372549" d="M 285.5 337 L 301 349 L 314 365.5 L 311 363.5 Q 304.187 350.812 292.5 343 Q 286.958 340.875 285.5 337 Z " /><path fill="rgb(143,187,238)" stroke="rgb(143,187,238)" stroke-width="1" opacity="0.996078431372549" d="M 362.5 339 L 363 343.5 L 362 343.5 L 362.5 339 Z " /><path fill="rgb(143,187,238)" stroke="rgb(143,187,238)" stroke-width="1" opacity="0.996078431372549" d="M 47.5 344 L 45.5 347 L 47.5 344 Z " /><path fill="rgb(143,187,238)" stroke="rgb(143,187,238)" stroke-width="1" opacity="0.996078431372549" d="M 130.5 344 L 131 347.5 L 130 347.5 L 130.5 344 Z " /><path fill="rgb(143,187,238)" stroke="rgb(143,187,238)" stroke-width="1" opacity="0.996078431372549" d="M 363.5 346 L 364 350.5 L 363 350.5 L 363.5 346 Z " /><path fill="rgb(143,187,238)" stroke="rgb(143,187,238)" stroke-width="1" opacity="0.996078431372549" d="M 364.5 353 L 365 358.5 L 364 358.5 L 364.5 353 Z " /><path fill="rgb(143,187,238)" stroke="rgb(143,187,238)" stroke-width="1" opacity="0.996078431372549" d="M 131.5 355 L 132 360.5 L 131 360.5 L 131.5 355 Z " /><path fill="rgb(143,187,238)" stroke="rgb(143,187,238)" stroke-width="1" opacity="0.996078431372549" d="M 352.5 355 L 358 363.5 L 356 362.5 L 352.5 355 Z " /><path fill="rgb(143,187,238)" stroke="rgb(143,187,238)" stroke-width="1" opacity="0.996078431372549" d="M 365.5 362 L 366 367.5 L 365 367.5 L 365.5 362 Z " /><path fill="rgb(143,187,238)" stroke="rgb(143,187,238)" stroke-width="1" opacity="0.996078431372549" d="M 314.5 367 L 317 370.5 L 315 369.5 L 314.5 367 Z " /><path fill="rgb(143,187,238)" stroke="rgb(143,187,238)" stroke-width="1" opacity="0.996078431372549" d="M 366.5 371 L 367 378.5 L 366 378.5 L 366.5 371 Z " /><path fill="rgb(143,187,238)" stroke="rgb(143,187,238)" stroke-width="1" opacity="0.996078431372549" d="M 317.5 372 L 322 380.5 L 321 380.5 L 317.5 372 Z " /><path fill="rgb(143,187,238)" stroke="rgb(143,187,238)" stroke-width="1" opacity="0.996078431372549" d="M 363.5 375 L 365 378.5 L 364 378.5 L 363.5 375 Z " /><path fill="rgb(143,187,238)" stroke="rgb(143,187,238)" stroke-width="1" opacity="0.996078431372549" d="M 130.5 378 L 127.5 382 L 130.5 378 Z " /><path fill="rgb(143,187,238)" stroke="rgb(143,187,238)" stroke-width="1" opacity="0.996078431372549" d="M 109.5 380 L 110.5 382 L 109.5 380 Z " /><path fill="rgb(143,187,238)" stroke="rgb(143,187,238)" stroke-width="1" opacity="0.996078431372549" d="M 31.5 382 L 32 384.5 L 31 384.5 L 31.5 382 Z " /><path fill="rgb(143,187,238)" stroke="rgb(143,187,238)" stroke-width="1" opacity="0.996078431372549" d="M 120.5 383 L 123 383.5 L 120.5 384 L 120.5 383 Z " /><path fill="rgb(143,187,238)" stroke="rgb(143,187,238)" stroke-width="1" opacity="0.996078431372549" d="M 366 383 Q 369.667 381.65 368 387.5 L 367 387.5 L 366 383 Z " /><path fill="rgb(143,187,238)" stroke="rgb(143,187,238)" stroke-width="1" opacity="0.996078431372549" d="M 327.5 396 L 328 398.5 L 327 398.5 L 327.5 396 Z " /><path fill="rgb(143,187,238)" stroke="rgb(143,187,238)" stroke-width="1" opacity="0.996078431372549" d="M 328.5 400 L 329 403.5 L 328 403.5 L 328.5 400 Z " /><path fill="rgb(143,187,238)" stroke="rgb(143,187,238)" stroke-width="1" opacity="0.996078431372549" d="M 329.5 406 L 330 410.5 L 329 410.5 L 329.5 406 Z " /><path fill="rgb(143,187,238)" stroke="rgb(143,187,238)" stroke-width="1" opacity="0.996078431372549" d="M 330.5 415 L 331 445.5 L 330 445.5 L 330.5 415 Z " /><path fill="rgb(143,187,238)" stroke="rgb(143,187,238)" stroke-width="1" opacity="0.996078431372549" d="M 31.5 445 L 32 447.5 L 31 447.5 L 31.5 445 Z " /><path fill="rgb(143,187,238)" stroke="rgb(143,187,238)" stroke-width="1" opacity="0.996078431372549" d="M 329.5 448 L 330 451.5 L 329 451.5 L 329.5 448 Z " /><path fill="rgb(143,187,238)" stroke="rgb(143,187,238)" stroke-width="1" opacity="0.996078431372549" d="M 326.5 459 L 327 460.5 L 324.5 464 L 325 462.5 L 326.5 459 Z " /><path fill="rgb(143,187,238)" stroke="rgb(143,187,238)" stroke-width="1" opacity="0.996078431372549" d="M 323.5 465 L 323 466.5 L 320.5 470 L 322 467.5 L 323.5 465 Z " /><path fill="rgb(143,187,238)" stroke="rgb(143,187,238)" stroke-width="1" opacity="0.996078431372549" d="M 41.5 471 L 43.5 474 L 41.5 471 Z " /><path fill="rgb(143,187,238)" stroke="rgb(143,187,238)" stroke-width="1" opacity="0.996078431372549" d="M 319.5 471 L 313.5 478 L 310.5 480 L 312.5 477 L 319.5 471 Z " /><path fill="rgb(143,187,238)" stroke="rgb(143,187,238)" stroke-width="1" opacity="0.996078431372549" d="M 45.5 475 L 47.5 478 L 45.5 475 Z " /><path fill="rgb(143,187,238)" stroke="rgb(143,187,238)" stroke-width="1" opacity="0.996078431372549" d="M 308.5 480 L 307.5 482 L 305.5 483 L 306.5 481 L 308.5 480 Z " /><path fill="rgb(143,187,238)" stroke="rgb(143,187,238)" stroke-width="1" opacity="0.996078431372549" d="M 293.5 486 L 296 486.5 L 293.5 487 L 293.5 486 Z " /><path fill="rgb(143,187,238)" stroke="rgb(143,187,238)" stroke-width="1" opacity="0.996078431372549" d="M 286.5 487 L 292 487.5 L 286.5 488 L 286.5 487 Z " /><path fill="rgb(143,187,239)" stroke="rgb(143,187,239)" stroke-width="1" opacity="1" d="M 122.5 123 Q 138.358 139.642 148 162.5 Q 156.582 181.918 161 205.5 L 169 222.5 L 184.5 240 Q 199.075 252.425 219.5 259 L 250.5 266 Q 278.928 266.072 303.5 270 Q 329.25 276.25 348 289.5 Q 365.333 328.167 367 382.5 L 366 382.5 Q 355.578 350.422 332.5 331 Q 307.526 306.974 265.5 300 Q 257.75 302.25 255.5 299 L 80.5 299 Q 61.195 300.923 48 308 Q 44.945 250.191 54 203.5 Q 61.823 160.323 87.5 135 L 104.5 125 L 105 131.5 L 104 132.5 L 104 168.5 L 108.5 175 L 120.5 176 L 126 171.5 Q 128.5 166 127 156.5 Q 125.845 137.508 122.5 123 Z " /><path fill="rgb(143,187,239)" stroke="rgb(143,187,239)" stroke-width="1" opacity="1" d="M 89.5 321 L 110 321.5 Q 103.921 344.421 107 376.5 L 110.5 382 Q 114.167 385.333 122.5 384 Q 128.25 382.75 131 378.5 Q 135.5 371 132 355.5 Q 130.753 336.471 127 321 L 240.5 321 L 251.5 323 Q 288.026 332.474 308 358.5 Q 334.977 387.023 330 447.5 Q 326.25 466.75 313.5 477 Q 303.369 486.369 285.5 488 L 73.5 488 Q 54.17 485.613 44 475 Q 35.667 466.521 32 452.5 Q 27.722 422.778 31 385.5 Q 34.493 351.993 55.5 336 Q 68.567 324.567 89.5 321 Z " /></svg>