<svg width="512" height="512" version="1.1" xmlns="http://www.w3.org/2000/svg" desc="Created with imagetracer.js version 1.2.6" ><path fill="rgb(0,0,0)" stroke="rgb(0,0,0)" stroke-width="1" opacity="0" d="M 0 0 L 512 0 L 512 512 L 0 512 L 0 0 Z M 393 6 Q 381 8 374 14 Q 359 27 350 45 L 256 189 L 253 196 L 205 218 L 202 213 L 198 209 Q 177 214 162 225 L 158 225 Q 154 210 144 200 Q 127 180 97 175 Q 54 173 35 193 Q 12 210 6 245 Q 5 281 24 299 Q 40 318 71 323 Q 97 325 113 317 Q 192 285 264 248 Q 227 320 195 399 L 189 421 Q 187 462 207 482 Q 223 501 254 506 Q 291 507 309 488 Q 331 470 337 436 Q 339 393 318 374 Q 306 359 287 354 L 287 351 L 303 318 L 303 314 L 294 308 L 315 261 L 489 148 Q 502 138 506 120 Q 507 99 500 88 L 498 87 L 493 87 L 369 143 L 425 20 Q 426 14 424 12 Q 413 5 393 6 Z " /><path fill="rgb(0,0,0)" stroke="rgb(0,0,0)" stroke-width="1" opacity="0" d="M 80.5 220 Q 104.326 218.174 112 232.5 Q 117.538 238.462 116 251.5 Q 112.996 263.496 104.5 270 Q 95.45 278.95 76.5 278 Q 64.414 276.086 58 268.5 Q 50.167 261.833 52 245.5 Q 55.344 233.344 64.5 227 Q 70.948 221.948 80.5 220 Z " /><path fill="rgb(0,0,0)" stroke="rgb(0,0,0)" stroke-width="1" opacity="0" d="M 260.5 396 Q 280.705 394.795 287 407.5 Q 293.765 415.235 292 431.5 Q 288.75 446.25 278.5 454 Q 271.833 461.833 255.5 460 Q 246.933 458.067 242 452.5 Q 232.646 444.354 234 425.5 Q 236.882 409.882 247.5 402 L 260.5 396 Z " /><path fill="rgb(217,217,217)" stroke="rgb(217,217,217)" stroke-width="1" opacity="1" d="M 395.5 18 L 410 20 Q 383.604 88.124 350.5 152 L 272.5 187 L 274 184.5 L 358 54.5 Q 366.6 36.6 380.5 24 Q 386.282 19.282 395.5 18 Z " /><path fill="rgb(217,217,217)" stroke="rgb(217,217,217)" stroke-width="1" opacity="1" d="M 491.5 101 Q 494.729 107.271 494 117.5 Q 491.139 132.139 480.5 139 L 316.5 246 Q 312.143 249.143 303.5 248 Q 289.279 236.721 269.5 231 L 219 256 L 209 229 L 491.5 101 Z M 319 191 L 310 194 Q 304 198 301 206 Q 300 216 304 222 Q 308 229 319 230 Q 327 230 332 226 Q 337 222 339 215 Q 340 204 336 200 Q 332 191 319 191 Z " /><path fill="rgb(217,217,217)" stroke="rgb(217,217,217)" stroke-width="1" opacity="1" d="M 317.5 204 Q 324.75 202.75 326 207.5 L 327 211.5 L 322.5 217 Q 315.25 218.25 314 213.5 L 313 209.5 L 315 205 L 317.5 204 Z " /><path fill="rgb(217,217,217)" stroke="rgb(217,217,217)" stroke-width="1" opacity="1" d="M 277 249 Q 286.989 258.024 302 260 L 283 303 L 256 293 L 277 249 Z " /><path fill="rgb(1,1,1)" stroke="rgb(1,1,1)" stroke-width="1" opacity="0.9882352941176471" d="M 392.5 6 Q 412.824 4.778 424 12 Q 425.625 14.063 425 19.5 L 369 143 L 492.5 87 L 497.5 87 L 500 88 Q 507.222 99.176 506 119.5 Q 501.998 138.498 488.5 148 L 315 260.5 L 294 307.5 L 303 313.5 L 303 317.5 L 287 350.5 L 287 354 Q 306.337 359.382 318 373.5 Q 338.525 393.475 337 435.5 Q 330.899 469.899 308.5 488 Q 290.992 506.992 253.5 506 Q 222.772 501.228 207 481.5 Q 186.655 462.345 189 420.5 L 195 398.5 Q 226.927 319.953 264 248 Q 191.795 285.318 112.5 317 Q 96.833 325.333 70.5 323 Q 40.442 317.558 24 298.5 Q 5.493 281.007 6 244.5 Q 11.75 210.25 34.5 193 Q 54.307 172.807 96.5 175 Q 127.021 180.479 144 199.5 Q 154.333 209.542 158 225 L 161.5 225 Q 176.833 214.333 197.5 209 L 202 212.5 L 204.5 218 L 253 195.5 L 256 188.5 L 350 44.5 Q 359.196 26.696 373.5 14 Q 380.935 7.935 392.5 6 Z M 393 18 L 379 25 L 370 36 L 272 187 L 351 152 L 354 148 L 411 20 Q 404 17 393 18 Z M 491 101 L 217 225 L 209 230 L 220 257 L 269 232 L 274 232 Q 287 243 307 249 Q 317 248 324 242 L 484 137 Q 491 131 494 120 Q 496 108 492 103 Q 493 100 491 101 Z M 77 187 Q 56 190 44 201 Q 23 216 18 247 Q 17 274 30 288 Q 44 306 72 311 Q 90 313 103 308 L 208 262 L 193 223 L 157 240 L 151 239 Q 146 220 135 208 Q 117 186 77 187 Z M 277 248 L 255 293 L 283 303 L 302 261 L 277 248 Z M 251 304 L 214 388 L 207 401 L 201 421 Q 199 457 216 474 Q 229 490 254 494 Q 284 495 300 480 Q 320 465 325 435 Q 327 398 309 382 Q 297 367 275 363 L 272 360 L 272 355 L 289 320 L 286 317 L 251 304 Z " /><path fill="rgb(1,1,1)" stroke="rgb(1,1,1)" stroke-width="1" opacity="0.9882352941176471" d="M 314.5 192 Q 328.833 190.167 334 197.5 Q 339.025 202.475 339 212.5 Q 336.977 222.477 329.5 227 Q 324.786 230.286 315.5 229 L 306 223.5 Q 300 219 301 207.5 Q 302.667 199.167 308.5 195 L 314.5 192 Z M 320 203 L 313 208 L 314 215 L 320 218 L 324 217 L 327 213 L 326 207 Q 324 203 320 203 Z " /><path fill="rgb(1,1,1)" stroke="rgb(1,1,1)" stroke-width="1" opacity="0.9882352941176471" d="M 79.5 208 Q 109.657 206.843 121 224.5 Q 129.304 233.696 128 252.5 Q 124.534 269.034 113.5 278 Q 101.847 290.847 76.5 290 Q 55.75 286.75 46 272.5 Q 38.05 263.95 40 245.5 Q 43.75 227.25 56.5 218 Q 65.457 210.457 79.5 208 Z M 81 220 Q 71 222 65 227 Q 55 233 52 246 Q 50 262 58 269 Q 64 276 77 278 Q 95 279 105 270 Q 113 263 116 252 Q 118 238 112 233 Q 104 218 81 220 Z " /><path fill="rgb(1,1,1)" stroke="rgb(1,1,1)" stroke-width="1" opacity="0.9882352941176471" d="M 259.5 384 Q 286.596 382.904 296 399.5 Q 305.444 410.556 304 432.5 Q 300.029 452.529 286.5 463 Q 276.199 473.699 253.5 472 Q 237.15 467.85 229 455.5 Q 220.856 444.644 222 424.5 Q 225.397 404.397 238.5 394 Q 246.549 386.549 259.5 384 Z M 261 396 L 248 402 Q 237 410 234 426 Q 233 444 242 453 Q 247 458 256 460 Q 272 462 279 454 Q 289 446 292 432 Q 294 415 287 408 Q 281 395 261 396 Z " /><path fill="rgb(227,92,92)" stroke="rgb(227,92,92)" stroke-width="1" opacity="1" d="M 392.5 18 L 395 18.5 L 392.5 19 L 392.5 18 Z " /><path fill="rgb(227,92,92)" stroke="rgb(227,92,92)" stroke-width="1" opacity="1" d="M 401.5 18 L 404 18.5 L 401.5 19 L 401.5 18 Z " /><path fill="rgb(227,92,92)" stroke="rgb(227,92,92)" stroke-width="1" opacity="1" d="M 382.5 22 L 381.5 24 L 382.5 22 Z " /><path fill="rgb(227,92,92)" stroke="rgb(227,92,92)" stroke-width="1" opacity="1" d="M 378.5 25 L 375.5 29 L 378.5 25 Z " /><path fill="rgb(227,92,92)" stroke="rgb(227,92,92)" stroke-width="1" opacity="1" d="M 373.5 31 L 372.5 33 L 373.5 31 Z " /><path fill="rgb(227,92,92)" stroke="rgb(227,92,92)" stroke-width="1" opacity="1" d="M 371.5 34 L 370.5 36 L 371.5 34 Z " /><path fill="rgb(227,92,92)" stroke="rgb(227,92,92)" stroke-width="1" opacity="1" d="M 356.5 57 L 355.5 59 L 356.5 57 Z " /><path fill="rgb(227,92,92)" stroke="rgb(227,92,92)" stroke-width="1" opacity="1" d="M 339.5 83 L 338.5 85 L 339.5 83 Z " /><path fill="rgb(227,92,92)" stroke="rgb(227,92,92)" stroke-width="1" opacity="1" d="M 324.5 106 L 323.5 108 L 324.5 106 Z " /><path fill="rgb(227,92,92)" stroke="rgb(227,92,92)" stroke-width="1" opacity="1" d="M 493.5 107 L 494 109.5 L 493 109.5 L 493.5 107 Z " /><path fill="rgb(227,92,92)" stroke="rgb(227,92,92)" stroke-width="1" opacity="1" d="M 322.5 109 L 321.5 111 L 322.5 109 Z " /><path fill="rgb(227,92,92)" stroke="rgb(227,92,92)" stroke-width="1" opacity="1" d="M 307.5 132 L 306.5 134 L 307.5 132 Z " /><path fill="rgb(227,92,92)" stroke="rgb(227,92,92)" stroke-width="1" opacity="1" d="M 486.5 133 L 483.5 137 L 486.5 133 Z " /><path fill="rgb(227,92,92)" stroke="rgb(227,92,92)" stroke-width="1" opacity="1" d="M 471.5 144 L 470.5 146 L 471.5 144 Z " /><path fill="rgb(227,92,92)" stroke="rgb(227,92,92)" stroke-width="1" opacity="1" d="M 290.5 158 L 289.5 160 L 290.5 158 Z " /><path fill="rgb(227,92,92)" stroke="rgb(227,92,92)" stroke-width="1" opacity="1" d="M 448.5 159 L 447.5 161 L 448.5 159 Z " /><path fill="rgb(227,92,92)" stroke="rgb(227,92,92)" stroke-width="1" opacity="1" d="M 425.5 174 L 424.5 176 L 425.5 174 Z " /><path fill="rgb(227,92,92)" stroke="rgb(227,92,92)" stroke-width="1" opacity="1" d="M 275.5 181 L 274.5 183 L 275.5 181 Z " /><path fill="rgb(227,92,92)" stroke="rgb(227,92,92)" stroke-width="1" opacity="1" d="M 273.5 184 L 272.5 186 L 273.5 184 Z " /><path fill="rgb(227,92,92)" stroke="rgb(227,92,92)" stroke-width="1" opacity="1" d="M 76.5 187 Q 117.488 185.512 135 207.5 Q 146.254 219.746 150.5 239 L 156.5 240 L 192.5 223 L 208 261.5 L 102.5 308 Q 90.188 312.688 71.5 311 Q 44.151 305.849 30 287.5 Q 16.821 274.179 18 246.5 Q 23.007 216.007 43.5 201 Q 56.296 190.296 76.5 187 Z M 80 208 Q 65 210 57 218 Q 44 227 40 246 Q 38 264 46 273 Q 56 287 77 290 Q 102 291 114 278 Q 125 269 128 253 Q 129 234 121 225 Q 110 207 80 208 Z " /><path fill="rgb(227,92,92)" stroke="rgb(227,92,92)" stroke-width="1" opacity="1" d="M 318.5 191 L 322 191.5 L 318.5 192 L 318.5 191 Z " /><path fill="rgb(227,92,92)" stroke="rgb(227,92,92)" stroke-width="1" opacity="1" d="M 334.5 198 L 335.5 200 L 334.5 198 Z " /><path fill="rgb(227,92,92)" stroke="rgb(227,92,92)" stroke-width="1" opacity="1" d="M 323.5 204 L 325.5 207 L 323.5 204 Z " /><path fill="rgb(227,92,92)" stroke="rgb(227,92,92)" stroke-width="1" opacity="1" d="M 314.5 206 L 314 207.5 L 313.5 209 L 313 207.5 L 314.5 206 Z " /><path fill="rgb(227,92,92)" stroke="rgb(227,92,92)" stroke-width="1" opacity="1" d="M 376.5 206 L 375.5 208 L 376.5 206 Z " /><path fill="rgb(227,92,92)" stroke="rgb(227,92,92)" stroke-width="1" opacity="1" d="M 314.5 214 L 316.5 217 L 314.5 214 Z " /><path fill="rgb(227,92,92)" stroke="rgb(227,92,92)" stroke-width="1" opacity="1" d="M 325.5 214 L 323.5 217 L 325.5 214 Z " /><path fill="rgb(227,92,92)" stroke="rgb(227,92,92)" stroke-width="1" opacity="1" d="M 304.5 221 L 305.5 223 L 304.5 221 Z " /><path fill="rgb(227,92,92)" stroke="rgb(227,92,92)" stroke-width="1" opacity="1" d="M 335.5 221 L 331.5 226 L 335.5 221 Z " /><path fill="rgb(227,92,92)" stroke="rgb(227,92,92)" stroke-width="1" opacity="1" d="M 353.5 221 L 352.5 223 L 353.5 221 Z " /><path fill="rgb(227,92,92)" stroke="rgb(227,92,92)" stroke-width="1" opacity="1" d="M 308.5 225 L 309.5 227 L 308.5 225 Z " /><path fill="rgb(227,92,92)" stroke="rgb(227,92,92)" stroke-width="1" opacity="1" d="M 318.5 229 L 322 229.5 L 318.5 230 L 318.5 229 Z " /><path fill="rgb(227,92,92)" stroke="rgb(227,92,92)" stroke-width="1" opacity="1" d="M 269.5 231 L 273 231.5 L 269.5 232 L 269.5 231 Z " /><path fill="rgb(227,92,92)" stroke="rgb(227,92,92)" stroke-width="1" opacity="1" d="M 327.5 238 L 326.5 240 L 327.5 238 Z " /><path fill="rgb(227,92,92)" stroke="rgb(227,92,92)" stroke-width="1" opacity="1" d="M 324.5 240 L 323.5 242 L 324.5 240 Z " /><path fill="rgb(227,92,92)" stroke="rgb(227,92,92)" stroke-width="1" opacity="1" d="M 306.5 248 L 310 248.5 L 306.5 249 L 306.5 248 Z " /><path fill="rgb(227,92,92)" stroke="rgb(227,92,92)" stroke-width="1" opacity="1" d="M 250.5 304 L 285.5 317 L 289 319.5 L 272 354.5 L 272 359.5 L 274.5 363 Q 297.22 366.78 309 381.5 Q 326.696 398.304 325 434.5 Q 319.985 464.985 299.5 480 Q 284.386 494.886 253.5 494 Q 228.808 489.692 216 473.5 Q 198.748 456.752 201 420.5 L 207 400.5 L 214 387.5 L 250.5 304 Z M 260 384 Q 247 387 239 394 Q 225 404 222 425 Q 221 445 229 456 Q 237 468 254 472 Q 276 474 287 463 Q 300 453 304 433 Q 305 411 296 400 Q 287 383 260 384 Z " /></svg>