<svg width="512" height="512" version="1.1" xmlns="http://www.w3.org/2000/svg" desc="Created with imagetracer.js version 1.2.6" ><path fill="rgb(254,244,244)" stroke="rgb(254,244,244)" stroke-width="1" opacity="1" d="M 389.5 64 Q 410.963 64.037 420 76.5 Q 429.387 85.613 428 105.5 Q 424.997 119.497 415.5 127 L 401.5 134 Q 398.691 106.309 380.5 94 Q 372.467 87.058 361 85 Q 363.75 76.125 371.5 71 Q 378.308 65.308 389.5 64 Z " /><path fill="rgb(254,244,244)" stroke="rgb(254,244,244)" stroke-width="1" opacity="1" d="M 122.5 83 Q 146.72 81.78 156 95.5 Q 165.175 104.325 164 123.5 Q 160.833 140.333 148.5 148 Q 140.416 154.416 125.5 154 Q 108.25 151.25 100 139.5 Q 92.31 131.19 93 114.5 Q 95.433 98.933 105.5 91 Q 112.09 85.09 122.5 83 Z " /><path fill="rgb(254,244,244)" stroke="rgb(254,244,244)" stroke-width="1" opacity="1" d="M 339.5 101 Q 344.188 99.938 342 108.5 Q 346.285 127.215 358.5 138 Q 367.2 146.657 381 149 Q 378.977 158.182 371.5 163 Q 362.727 172.227 342.5 170 Q 329.369 166.631 322 157.5 Q 313.641 148.859 314 131.5 Q 316.625 115.125 327.5 107 L 339.5 101 Z " /><path fill="rgb(254,244,244)" stroke="rgb(254,244,244)" stroke-width="1" opacity="1" d="M 358 101 Q 370.116 103.618 377 112.5 Q 383.858 120.142 385 133.5 L 383.5 133 Q 370.15 130.35 364 120.5 Q 356.895 113.927 358 101 Z " /><path fill="rgb(254,244,244)" stroke="rgb(254,244,244)" stroke-width="1" opacity="1" d="M 92.5 325 Q 108.363 323.637 116 330.5 Q 105.761 342.761 107 366.5 Q 109.3 380.7 116 390.5 Q 108.803 397.303 93.5 396 Q 76.818 393.182 69 381.5 Q 61.526 373.474 62 357.5 Q 64.728 339.228 77.5 331 L 92.5 325 Z " /><path fill="rgb(254,244,244)" stroke="rgb(254,244,244)" stroke-width="1" opacity="1" d="M 153.5 325 Q 178.069 324.431 187 339.5 Q 193.629 347.371 194 361.5 Q 191.952 380.452 179.5 389 Q 170.9 396.9 153.5 396 Q 144.956 395.044 140 390.5 Q 149.5 378 149 355.5 Q 147.166 339.834 139 330.5 Q 144.75 326.25 153.5 325 Z " /><path fill="rgb(254,244,244)" stroke="rgb(254,244,244)" stroke-width="1" opacity="1" d="M 349.5 325 Q 364.803 323.697 372 330.5 Q 360.677 342.677 363 368.5 Q 365.611 381.389 372 390.5 Q 364.25 396.75 349.5 396 Q 332.091 392.909 324 380.5 Q 317.384 372.116 318 356.5 Q 321.091 339.091 333.5 331 Q 340.033 326.533 349.5 325 Z " /><path fill="rgb(254,244,244)" stroke="rgb(254,244,244)" stroke-width="1" opacity="1" d="M 409.5 325 Q 434.069 324.431 443 339.5 Q 451.1 348.4 449 367.5 Q 445.864 381.864 435.5 389 Q 426.9 396.9 409.5 396 Q 400.75 394.75 395 390.5 Q 405.781 378.781 405 355.5 Q 403.166 339.834 395 330.5 Q 400.75 326.25 409.5 325 Z " /><path fill="rgb(254,244,244)" stroke="rgb(254,244,244)" stroke-width="1" opacity="1" d="M 127 343 Q 129.667 341.875 129 344.5 Q 134.714 351.786 133 366.5 L 129 378 Q 126.333 379.125 127 376.5 Q 120.846 369.154 123 353.5 L 127 343 Z " /><path fill="rgb(254,244,244)" stroke="rgb(254,244,244)" stroke-width="1" opacity="1" d="M 383 343 Q 385.667 341.875 385 344.5 Q 390.333 351.667 389 365.5 L 385 378 Q 382.333 379.125 383 376.5 Q 376.846 369.154 379 353.5 L 383 343 Z " /><path fill="rgb(0,198,154)" stroke="rgb(0,198,154)" stroke-width="1" opacity="0.9725490196078431" d="M 0 0 L 18 0.5 Q 10.364 2.364 6 7.5 L 0.5 18 L 0 0 Z " /><path fill="rgb(0,198,154)" stroke="rgb(0,198,154)" stroke-width="1" opacity="0.9725490196078431" d="M 238.5 0 L 512 0 L 512 274.5 L 511 274.5 Q 508.977 264.523 501.5 260 L 492.5 256 L 256 256 L 256 17.5 Q 253.167 8.833 246.5 4 Q 237.773 3.477 238.5 0 Z M 387 64 Q 375 66 369 73 L 360 85 Q 373 88 383 96 Q 399 108 400 134 Q 409 135 414 129 Q 427 120 429 100 Q 428 86 422 79 Q 413 63 387 64 Z M 342 100 L 329 106 Q 317 113 314 129 Q 312 152 324 161 Q 332 169 346 171 Q 361 172 370 165 Q 379 159 382 149 Q 370 147 362 140 Q 344 128 342 100 Z M 358 100 Q 357 115 366 124 Q 373 132 385 134 Q 385 122 379 115 Q 372 104 358 100 Z " /><path fill="rgb(0,198,154)" stroke="rgb(0,198,154)" stroke-width="1" opacity="0.9725490196078431" d="M 0.5 237 Q 2.625 248.375 11.5 253 L 18 255 Q 19.25 258 15.5 257 L 5 264.5 L 0.5 274 L 0.5 237 Z " /><path fill="rgb(0,198,154)" stroke="rgb(0,198,154)" stroke-width="1" opacity="0.9725490196078431" d="M 511.5 493 L 512 512 L 493 511.5 Q 503.724 509.724 508 501.5 L 511.5 493 Z " /><path fill="rgb(0,198,154)" stroke="rgb(0,198,154)" stroke-width="1" opacity="0.9725490196078431" d="M 0.5 494 Q 2.604 502.396 8.5 507 L 18 511.5 L 0 512 L 0.5 494 Z " /><path fill="rgb(0,198,154)" stroke="rgb(0,198,154)" stroke-width="1" opacity="0.9725490196078431" d="M 255 494 Q 258 492.75 257 496.5 Q 260.333 504.667 267.5 509 L 274 511.5 L 238.5 512 L 238.5 511 Q 246.833 509.333 251 503.5 L 255 494 Z " /><path fill="rgb(131,208,220)" stroke="rgb(131,208,220)" stroke-width="1" opacity="1" d="M 386.5 64 L 389 64.5 L 386.5 65 L 386.5 64 Z " /><path fill="rgb(131,208,220)" stroke="rgb(131,208,220)" stroke-width="1" opacity="1" d="M 397.5 64 L 400 64.5 L 397.5 65 L 397.5 64 Z " /><path fill="rgb(131,208,220)" stroke="rgb(131,208,220)" stroke-width="1" opacity="1" d="M 410.5 68 L 411.5 70 L 410.5 68 Z " /><path fill="rgb(131,208,220)" stroke="rgb(131,208,220)" stroke-width="1" opacity="1" d="M 373.5 69 L 372.5 71 L 373.5 69 Z " /><path fill="rgb(131,208,220)" stroke="rgb(131,208,220)" stroke-width="1" opacity="1" d="M 413.5 70 L 414.5 72 L 413.5 70 Z " /><path fill="rgb(131,208,220)" stroke="rgb(131,208,220)" stroke-width="1" opacity="1" d="M 368.5 73 L 366.5 76 L 368.5 73 Z " /><path fill="rgb(131,208,220)" stroke="rgb(131,208,220)" stroke-width="1" opacity="1" d="M 420.5 77 L 421.5 79 L 420.5 77 Z " /><path fill="rgb(131,208,220)" stroke="rgb(131,208,220)" stroke-width="1" opacity="1" d="M 360.5 84 L 363 85.5 L 361.5 86 L 360.5 84 Z " /><path fill="rgb(131,208,220)" stroke="rgb(131,208,220)" stroke-width="1" opacity="1" d="M 380.5 94 L 381.5 96 L 380.5 94 Z " /><path fill="rgb(131,208,220)" stroke="rgb(131,208,220)" stroke-width="1" opacity="1" d="M 357.5 100 L 358 104.5 L 357 104.5 L 357.5 100 Z " /><path fill="rgb(131,208,220)" stroke="rgb(131,208,220)" stroke-width="1" opacity="1" d="M 389.5 103 L 390.5 105 L 389.5 103 Z " /><path fill="rgb(131,208,220)" stroke="rgb(131,208,220)" stroke-width="1" opacity="1" d="M 342.5 106 L 343 108.5 L 342 108.5 L 342.5 106 Z " /><path fill="rgb(131,208,220)" stroke="rgb(131,208,220)" stroke-width="1" opacity="1" d="M 321.5 113 L 320.5 115 L 321.5 113 Z " /><path fill="rgb(131,208,220)" stroke="rgb(131,208,220)" stroke-width="1" opacity="1" d="M 377.5 113 L 378.5 115 L 377.5 113 Z " /><path fill="rgb(131,208,220)" stroke="rgb(131,208,220)" stroke-width="1" opacity="1" d="M 319.5 116 L 318.5 118 L 319.5 116 Z " /><path fill="rgb(131,208,220)" stroke="rgb(131,208,220)" stroke-width="1" opacity="1" d="M 379.5 116 L 380.5 118 L 379.5 116 Z " /><path fill="rgb(131,208,220)" stroke="rgb(131,208,220)" stroke-width="1" opacity="1" d="M 421.5 120 L 420.5 122 L 421.5 120 Z " /><path fill="rgb(131,208,220)" stroke="rgb(131,208,220)" stroke-width="1" opacity="1" d="M 366.5 123 L 369.5 127 L 366.5 123 Z " /><path fill="rgb(131,208,220)" stroke="rgb(131,208,220)" stroke-width="1" opacity="1" d="M 414.5 127 L 413.5 129 L 414.5 127 Z " /><path fill="rgb(131,208,220)" stroke="rgb(131,208,220)" stroke-width="1" opacity="1" d="M 314.5 128 L 315 130.5 L 314 130.5 L 314.5 128 Z " /><path fill="rgb(131,208,220)" stroke="rgb(131,208,220)" stroke-width="1" opacity="1" d="M 372.5 128 L 373.5 130 L 372.5 128 Z " /><path fill="rgb(131,208,220)" stroke="rgb(131,208,220)" stroke-width="1" opacity="1" d="M 384.5 128 L 385 130.5 L 384 130.5 L 384.5 128 Z " /><path fill="rgb(131,208,220)" stroke="rgb(131,208,220)" stroke-width="1" opacity="1" d="M 351.5 129 L 352.5 131 L 351.5 129 Z " /><path fill="rgb(131,208,220)" stroke="rgb(131,208,220)" stroke-width="1" opacity="1" d="M 400.5 130 L 401 133.5 L 400 133.5 L 400.5 130 Z " /><path fill="rgb(131,208,220)" stroke="rgb(131,208,220)" stroke-width="1" opacity="1" d="M 355.5 134 L 358.5 138 L 355.5 134 Z " /><path fill="rgb(131,208,220)" stroke="rgb(131,208,220)" stroke-width="1" opacity="1" d="M 314.5 139 L 315 141.5 L 314 141.5 L 314.5 139 Z " /><path fill="rgb(131,208,220)" stroke="rgb(131,208,220)" stroke-width="1" opacity="1" d="M 362.5 140 L 363.5 142 L 362.5 140 Z " /><path fill="rgb(131,208,220)" stroke="rgb(131,208,220)" stroke-width="1" opacity="1" d="M 320.5 155 L 321.5 157 L 320.5 155 Z " /><path fill="rgb(131,208,220)" stroke="rgb(131,208,220)" stroke-width="1" opacity="1" d="M 328.5 163 L 329.5 165 L 328.5 163 Z " /><path fill="rgb(131,208,220)" stroke="rgb(131,208,220)" stroke-width="1" opacity="1" d="M 370.5 163 L 369.5 165 L 370.5 163 Z " /><path fill="rgb(131,208,220)" stroke="rgb(131,208,220)" stroke-width="1" opacity="1" d="M 345.5 170 L 354 170.5 L 345.5 171 L 345.5 170 Z " /><path fill="rgb(131,208,220)" stroke="rgb(131,208,220)" stroke-width="1" opacity="1" d="M 346.5 325 L 349 325.5 L 346.5 326 L 346.5 325 Z " /><path fill="rgb(131,208,220)" stroke="rgb(131,208,220)" stroke-width="1" opacity="1" d="M 330.5 333 L 326.5 338 L 330.5 333 Z " /><path fill="rgb(131,208,220)" stroke="rgb(131,208,220)" stroke-width="1" opacity="1" d="M 363.5 352 L 364 354.5 L 363 354.5 L 363.5 352 Z " /><path fill="rgb(131,208,220)" stroke="rgb(131,208,220)" stroke-width="1" opacity="1" d="M 404.5 355 L 405 365.5 L 404 365.5 L 404.5 355 Z " /><path fill="rgb(131,208,220)" stroke="rgb(131,208,220)" stroke-width="1" opacity="1" d="M 449.5 356 L 450 364.5 L 449 364.5 L 449.5 356 Z " /><path fill="rgb(131,208,220)" stroke="rgb(131,208,220)" stroke-width="1" opacity="1" d="M 378.5 357 L 379 363.5 L 378 363.5 L 378.5 357 Z " /><path fill="rgb(131,208,220)" stroke="rgb(131,208,220)" stroke-width="1" opacity="1" d="M 363.5 366 L 364 368.5 L 363 368.5 L 363.5 366 Z " /><path fill="rgb(131,208,220)" stroke="rgb(131,208,220)" stroke-width="1" opacity="1" d="M 443.5 380 L 442.5 382 L 443.5 380 Z " /><path fill="rgb(131,208,220)" stroke="rgb(131,208,220)" stroke-width="1" opacity="1" d="M 326.5 383 L 330.5 388 L 326.5 383 Z " /><path fill="rgb(131,208,220)" stroke="rgb(131,208,220)" stroke-width="1" opacity="1" d="M 358.5 395 L 361 395.5 L 358.5 396 L 358.5 395 Z " /><path fill="rgb(254,215,92)" stroke="rgb(254,215,92)" stroke-width="1" opacity="0.996078431372549" d="M 18.5 0 L 237.5 0 Q 247.058 2.442 252 9.5 L 256 17.5 L 256 256 L 18.5 256 Q 8.05 252.95 3 244.5 L 0 236.5 L 0 18.5 Q 2.25 10.75 7.5 6 L 18.5 0 Z M 123 83 Q 112 85 106 91 Q 95 99 93 115 Q 92 131 100 140 Q 108 151 126 154 Q 140 154 149 148 Q 161 140 164 124 Q 165 104 156 96 Q 147 82 123 83 Z " /><path fill="rgb(0,192,253)" stroke="rgb(0,192,253)" stroke-width="1" opacity="0.996078431372549" d="M 348.5 309 Q 372.076 308.424 384.5 319 Q 395.943 308.443 418.5 309 Q 444.298 312.702 456 330.5 Q 467.137 343.363 465 369.5 Q 460.107 391.107 444.5 402 Q 435.517 409.433 422 411 L 422.5 437 Q 425.688 432.687 434.5 434 Q 438.917 436.083 439 442.5 L 435.5 448 L 418.5 458 L 412.5 459 L 391 446.5 L 389 440.5 L 392.5 435 L 400.5 434 L 405.5 437 L 406 411 Q 392.483 409.433 383.5 402 Q 374.946 409.213 362 411 L 362.5 437 Q 365.375 432.875 373.5 434 Q 379.5 435.5 378 444.5 Q 368.439 455.439 351.5 459 Q 338.25 454.75 330 445.5 L 329 439.5 L 333.5 434 Q 342.861 432.833 346 437 L 346 411.5 L 343.5 411 Q 325.219 406.781 315 394.5 Q 302.421 382.079 302 357.5 Q 305.084 333.084 320.5 321 Q 331.091 311.591 348.5 309 Z M 347 325 L 331 333 Q 321 341 318 355 Q 317 374 326 384 Q 334 393 348 396 Q 365 398 373 391 Q 365 381 363 366 Q 362 342 373 331 Q 365 323 347 325 Z M 408 325 Q 400 326 395 331 Q 402 339 404 352 Q 407 378 395 391 L 408 396 Q 426 398 435 390 Q 447 382 450 365 Q 450 344 440 335 Q 431 323 408 325 Z M 384 342 Q 379 348 378 358 Q 378 371 384 379 L 389 368 Q 391 350 384 342 Z " /><path fill="rgb(0,219,252)" stroke="rgb(0,219,252)" stroke-width="1" opacity="0.996078431372549" d="M 480 256 Q 500.7 253.977 508 266.5 L 512 276.5 L 512 492.5 Q 509.25 502.75 501.5 508 L 492.5 512 L 275.5 512 Q 264.068 509.432 259 500.5 Q 254.05 493.758 256 481 L 457.5 481 Q 467.73 479.73 473 473.5 L 475 470.5 L 480 461.5 L 480 256 Z " /><path fill="rgb(0,219,252)" stroke="rgb(0,219,252)" stroke-width="1" opacity="0.996078431372549" d="M 380.5 316 L 381.5 318 L 380.5 316 Z " /><path fill="rgb(0,219,252)" stroke="rgb(0,219,252)" stroke-width="1" opacity="0.996078431372549" d="M 442.5 317 L 443.5 319 L 442.5 317 Z " /><path fill="rgb(0,219,252)" stroke="rgb(0,219,252)" stroke-width="1" opacity="0.996078431372549" d="M 322.5 319 L 321.5 321 L 322.5 319 Z " /><path fill="rgb(0,219,252)" stroke="rgb(0,219,252)" stroke-width="1" opacity="0.996078431372549" d="M 446.5 320 L 453.5 328 L 446.5 320 Z " /><path fill="rgb(0,219,252)" stroke="rgb(0,219,252)" stroke-width="1" opacity="0.996078431372549" d="M 313.5 328 L 312.5 330 L 313.5 328 Z " /><path fill="rgb(0,219,252)" stroke="rgb(0,219,252)" stroke-width="1" opacity="0.996078431372549" d="M 309.5 334 L 308.5 336 L 309.5 334 Z " /><path fill="rgb(0,219,252)" stroke="rgb(0,219,252)" stroke-width="1" opacity="0.996078431372549" d="M 302.5 354 L 303 356.5 L 302 356.5 L 302.5 354 Z " /><path fill="rgb(0,219,252)" stroke="rgb(0,219,252)" stroke-width="1" opacity="0.996078431372549" d="M 465.5 358 L 466 362.5 L 465 362.5 L 465.5 358 Z " /><path fill="rgb(0,219,252)" stroke="rgb(0,219,252)" stroke-width="1" opacity="0.996078431372549" d="M 302.5 364 L 303 366.5 L 302 366.5 L 302.5 364 Z " /><path fill="rgb(0,219,252)" stroke="rgb(0,219,252)" stroke-width="1" opacity="0.996078431372549" d="M 312.5 391 L 314.5 394 L 312.5 391 Z " /><path fill="rgb(0,219,252)" stroke="rgb(0,219,252)" stroke-width="1" opacity="0.996078431372549" d="M 454.5 392 L 446.5 401 L 454.5 392 Z " /><path fill="rgb(0,219,252)" stroke="rgb(0,219,252)" stroke-width="1" opacity="0.996078431372549" d="M 320.5 399 L 322.5 402 L 320.5 399 Z " /><path fill="rgb(0,219,252)" stroke="rgb(0,219,252)" stroke-width="1" opacity="0.996078431372549" d="M 443.5 402 L 442.5 404 L 443.5 402 Z " /><path fill="rgb(0,219,252)" stroke="rgb(0,219,252)" stroke-width="1" opacity="0.996078431372549" d="M 381.5 403 L 380.5 405 L 381.5 403 Z " /><path fill="rgb(0,219,252)" stroke="rgb(0,219,252)" stroke-width="1" opacity="0.996078431372549" d="M 327.5 404 L 328.5 406 L 327.5 404 Z " /><path fill="rgb(0,219,252)" stroke="rgb(0,219,252)" stroke-width="1" opacity="0.996078431372549" d="M 345.5 411 L 346 437 L 344 436.5 L 345 435.5 L 345.5 411 Z " /><path fill="rgb(0,219,252)" stroke="rgb(0,219,252)" stroke-width="1" opacity="0.996078431372549" d="M 335.5 433 L 339 433.5 L 335.5 434 L 335.5 433 Z " /><path fill="rgb(0,219,252)" stroke="rgb(0,219,252)" stroke-width="1" opacity="0.996078431372549" d="M 368.5 433 L 372 433.5 L 368.5 434 L 368.5 433 Z " /><path fill="rgb(0,219,252)" stroke="rgb(0,219,252)" stroke-width="1" opacity="0.996078431372549" d="M 395.5 433 L 399 433.5 L 395.5 434 L 395.5 433 Z " /><path fill="rgb(0,219,252)" stroke="rgb(0,219,252)" stroke-width="1" opacity="0.996078431372549" d="M 429.5 433 L 433 433.5 L 429.5 434 L 429.5 433 Z " /><path fill="rgb(0,219,252)" stroke="rgb(0,219,252)" stroke-width="1" opacity="0.996078431372549" d="M 332.5 434 L 330.5 437 L 332.5 434 Z " /><path fill="rgb(0,219,252)" stroke="rgb(0,219,252)" stroke-width="1" opacity="0.996078431372549" d="M 374.5 434 L 377.5 438 L 374.5 434 Z " /><path fill="rgb(0,219,252)" stroke="rgb(0,219,252)" stroke-width="1" opacity="0.996078431372549" d="M 377.5 445 L 374.5 449 L 377.5 445 Z " /><path fill="rgb(0,219,252)" stroke="rgb(0,219,252)" stroke-width="1" opacity="0.996078431372549" d="M 330.5 446 L 332.5 449 L 330.5 446 Z " /><path fill="rgb(0,219,252)" stroke="rgb(0,219,252)" stroke-width="1" opacity="0.996078431372549" d="M 434.5 448 L 433.5 450 L 434.5 448 Z " /><path fill="rgb(0,219,252)" stroke="rgb(0,219,252)" stroke-width="1" opacity="0.996078431372549" d="M 370.5 450 L 369.5 452 L 370.5 450 Z " /><path fill="rgb(254,141,196)" stroke="rgb(254,141,196)" stroke-width="1" opacity="0.996078431372549" d="M 18.5 256 L 256 256 L 256 493.5 Q 253.492 501.992 247.5 507 L 237.5 512 L 18.5 512 Q 10.008 509.492 5 503.5 L 0 493.5 L 0 274.5 Q 2.508 266.008 8.5 261 L 18.5 256 Z M 93 325 L 78 331 Q 65 339 62 358 Q 62 373 69 382 Q 77 393 94 396 Q 109 397 116 391 Q 109 381 107 367 Q 106 343 116 331 Q 108 324 93 325 Z M 154 325 Q 145 326 139 331 Q 147 340 149 356 Q 150 378 140 391 Q 145 395 154 396 Q 171 397 180 389 Q 192 380 194 362 Q 194 347 187 340 Q 178 324 154 325 Z M 127 343 L 123 354 Q 121 369 127 377 Q 126 379 129 378 L 133 367 Q 135 352 129 345 Q 130 342 127 343 Z " /><path fill="rgb(0,220,252)" stroke="rgb(0,220,252)" stroke-width="1" opacity="1" d="M 256 256 L 480 256 L 480 461.5 L 475 472 Q 472.333 470.875 473 473.5 Q 467.73 479.73 457.5 481 L 256 481 L 256 256 Z M 348 309 Q 332 311 323 319 Q 306 330 302 355 Q 301 379 312 392 Q 322 406 342 411 L 345 412 L 345 436 L 339 433 L 333 434 L 329 439 L 330 447 L 351 459 L 357 459 L 375 449 Q 380 447 378 438 L 372 433 Q 365 432 364 436 L 362 436 L 362 411 Q 375 410 383 403 L 386 403 Q 392 409 403 411 L 406 412 L 406 436 L 399 433 L 394 434 L 389 440 L 390 446 Q 398 455 412 459 L 417 459 L 437 448 Q 440 445 439 439 L 433 433 Q 426 433 423 437 L 422 411 Q 437 410 447 401 Q 463 389 466 363 Q 465 340 454 328 Q 443 313 421 309 Q 395 307 384 319 Q 372 308 348 309 Z " /></svg>