<svg width="512" height="512" version="1.1" xmlns="http://www.w3.org/2000/svg" desc="Created with imagetracer.js version 1.2.6" ><path fill="rgb(252,112,96)" stroke="rgb(252,112,96)" stroke-width="1" opacity="0.6470588235294118" d="M 253.5 23 Q 264.703 22.297 270 27.5 L 268.5 28 Q 263.714 23.286 253.5 24 L 242.5 28 L 242.5 27 L 253.5 23 Z " /><path fill="rgb(252,112,96)" stroke="rgb(252,112,96)" stroke-width="1" opacity="0.6470588235294118" d="M 239.5 28 L 241 28.5 L 219.5 36 L 219.5 35 L 239.5 28 Z " /><path fill="rgb(252,112,96)" stroke="rgb(252,112,96)" stroke-width="1" opacity="0.6470588235294118" d="M 277.5 30 L 293 35.5 L 291.5 36 Q 280.825 34.575 277.5 30 Z " /><path fill="rgb(252,112,96)" stroke="rgb(252,112,96)" stroke-width="1" opacity="0.6470588235294118" d="M 216.5 36 L 218 36.5 L 196.5 44 L 196.5 43 L 216.5 36 Z " /><path fill="rgb(252,112,96)" stroke="rgb(252,112,96)" stroke-width="1" opacity="0.6470588235294118" d="M 300.5 38 L 316 43.5 L 314.5 44 Q 303.825 42.575 300.5 38 Z " /><path fill="rgb(252,112,96)" stroke="rgb(252,112,96)" stroke-width="1" opacity="0.6470588235294118" d="M 190.5 45 L 192 45.5 L 173.5 52 L 173.5 51 L 190.5 45 Z " /><path fill="rgb(252,112,96)" stroke="rgb(252,112,96)" stroke-width="1" opacity="0.6470588235294118" d="M 323.5 46 L 342 52.5 L 340.5 53 Q 327.625 51.375 323.5 46 Z " /><path fill="rgb(252,112,96)" stroke="rgb(252,112,96)" stroke-width="1" opacity="0.6470588235294118" d="M 167.5 53 L 169 53.5 L 147.5 61 L 147.5 60 L 167.5 53 Z " /><path fill="rgb(252,112,96)" stroke="rgb(252,112,96)" stroke-width="1" opacity="0.6470588235294118" d="M 346.5 54 L 365 60.5 L 363.5 61 Q 350.625 59.375 346.5 54 Z " /><path fill="rgb(252,112,96)" stroke="rgb(252,112,96)" stroke-width="1" opacity="0.6470588235294118" d="M 144.5 61 L 146 61.5 L 124.5 69 L 124.5 68 L 144.5 61 Z " /><path fill="rgb(252,112,96)" stroke="rgb(252,112,96)" stroke-width="1" opacity="0.6470588235294118" d="M 121.5 69 L 123 69.5 L 101.5 77 L 101.5 76 L 121.5 69 Z " /><path fill="rgb(252,112,96)" stroke="rgb(252,112,96)" stroke-width="1" opacity="0.6470588235294118" d="M 98.5 77 L 100 77.5 L 78.5 85 L 78.5 84 L 98.5 77 Z " /><path fill="rgb(252,112,96)" stroke="rgb(252,112,96)" stroke-width="1" opacity="0.6470588235294118" d="M 72.5 86 L 74 86.5 L 55.5 93 L 55.5 92 L 72.5 86 Z " /><path fill="rgb(252,112,96)" stroke="rgb(252,112,96)" stroke-width="1" opacity="0.6470588235294118" d="M 441.5 87 L 460 93.5 L 458.5 94 Q 445.625 92.375 441.5 87 Z " /><path fill="rgb(252,112,96)" stroke="rgb(252,112,96)" stroke-width="1" opacity="0.6470588235294118" d="M 49.5 94 L 51 94.5 L 29.5 102 L 29.5 101 L 49.5 94 Z " /><path fill="rgb(252,112,96)" stroke="rgb(252,112,96)" stroke-width="1" opacity="0.6470588235294118" d="M 464.5 95 L 483 101.5 L 481.5 102 Q 468.625 100.375 464.5 95 Z " /><path fill="rgb(252,112,96)" stroke="rgb(252,112,96)" stroke-width="1" opacity="0.6470588235294118" d="M 26.5 102 L 28 102.5 L 6.5 110 L 6.5 109 L 26.5 102 Z " /><path fill="rgb(252,112,96)" stroke="rgb(252,112,96)" stroke-width="1" opacity="0.6470588235294118" d="M 487.5 103 L 506 109.5 L 504.5 110 Q 491.625 108.375 487.5 103 Z " /><path fill="rgb(252,112,96)" stroke="rgb(252,112,96)" stroke-width="1" opacity="0.6470588235294118" d="M 3.5 110 L 5 110.5 L 0.5 112 L 0.5 111 L 3.5 110 Z " /><path fill="rgb(252,112,96)" stroke="rgb(252,112,96)" stroke-width="1" opacity="0.6470588235294118" d="M 31.5 176 L 30.5 178 L 20.5 181 L 20.5 180 L 31.5 176 Z " /><path fill="rgb(252,112,96)" stroke="rgb(252,112,96)" stroke-width="1" opacity="0.6470588235294118" d="M 480.5 177 L 501 184.5 L 499.5 185 L 481.5 179 L 480.5 177 Z " /><path fill="rgb(252,112,96)" stroke="rgb(252,112,96)" stroke-width="1" opacity="0.6470588235294118" d="M 2.5 186 L 4 186.5 L 0.5 188 L 0.5 187 L 2.5 186 Z " /><path fill="rgb(252,112,96)" stroke="rgb(252,112,96)" stroke-width="1" opacity="0.6470588235294118" d="M 505.5 186 L 512 188.5 L 510.5 189 Q 504.786 188.464 505.5 186 Z " /><path fill="rgb(231,230,253)" stroke="rgb(231,230,253)" stroke-width="1" opacity="0.25098039215686274" d="M 31.5 177 L 32 511.5 L 31 511.5 L 31.5 177 Z " /><path fill="rgb(231,230,253)" stroke="rgb(231,230,253)" stroke-width="1" opacity="0.25098039215686274" d="M 480.5 178 L 481 511.5 L 480 511.5 L 480.5 178 Z " /><path fill="rgb(0,0,0)" stroke="rgb(0,0,0)" stroke-width="1" opacity="0" d="M 0 0 L 369.5 0 L 370 0.5 L 370 62 L 267.5 26 Q 262.625 22.375 253.5 23 L 0 111 L 0 0 Z " /><path fill="rgb(0,0,0)" stroke="rgb(0,0,0)" stroke-width="1" opacity="0" d="M 434 0 L 512 0 L 512 111 L 434 85 L 434 0 Z " /><path fill="rgb(0,0,0)" stroke="rgb(0,0,0)" stroke-width="1" opacity="0" d="M 28.5 178 L 31 178.5 L 31 512 L 0.5 512 L 0 511.5 L 0 188 L 28.5 178 Z " /><path fill="rgb(0,0,0)" stroke="rgb(0,0,0)" stroke-width="1" opacity="0" d="M 481 179 L 512 189 L 512 511.5 L 511.5 512 L 481 512 L 481 179 Z " /><path fill="rgb(249,247,246)" stroke="rgb(249,247,246)" stroke-width="1" opacity="0.9921568627450981" d="M 254.5 101 L 256 101.5 L 256 512 L 32 512 L 32 177.5 L 33.5 176 L 254.5 101 Z M 108 304 Q 96 306 90 312 Q 81 318 79 331 L 79 433 L 209 433 L 209 332 L 204 319 Q 197 307 181 304 L 108 304 Z " /><path fill="rgb(228,227,254)" stroke="rgb(228,227,254)" stroke-width="1" opacity="1" d="M 367.5 208 L 370 208.5 L 367.5 209 L 367.5 208 Z " /><path fill="rgb(228,227,254)" stroke="rgb(228,227,254)" stroke-width="1" opacity="1" d="M 358.5 209 L 361 209.5 L 358.5 210 L 358.5 209 Z " /><path fill="rgb(228,227,254)" stroke="rgb(228,227,254)" stroke-width="1" opacity="1" d="M 375.5 209 L 379 209.5 L 375.5 210 L 375.5 209 Z " /><path fill="rgb(228,227,254)" stroke="rgb(228,227,254)" stroke-width="1" opacity="1" d="M 354.5 210 L 357 210.5 L 354.5 211 L 354.5 210 Z " /><path fill="rgb(228,227,254)" stroke="rgb(228,227,254)" stroke-width="1" opacity="1" d="M 380.5 210 L 383 210.5 L 380.5 211 L 380.5 210 Z " /><path fill="rgb(228,227,254)" stroke="rgb(228,227,254)" stroke-width="1" opacity="1" d="M 343.5 215 L 342.5 217 L 339.5 219 L 341.5 216 L 343.5 215 Z " /><path fill="rgb(228,227,254)" stroke="rgb(228,227,254)" stroke-width="1" opacity="1" d="M 393.5 215 L 394.5 217 L 393.5 215 Z " /><path fill="rgb(228,227,254)" stroke="rgb(228,227,254)" stroke-width="1" opacity="1" d="M 396.5 217 L 398.5 220 L 396.5 217 Z " /><path fill="rgb(228,227,254)" stroke="rgb(228,227,254)" stroke-width="1" opacity="1" d="M 337.5 219 L 331.5 226 L 337.5 219 Z " /><path fill="rgb(228,227,254)" stroke="rgb(228,227,254)" stroke-width="1" opacity="1" d="M 401.5 221 L 404.5 225 L 401.5 221 Z " /><path fill="rgb(228,227,254)" stroke="rgb(228,227,254)" stroke-width="1" opacity="1" d="M 405.5 226 L 407.5 229 L 405.5 226 Z " /><path fill="rgb(228,227,254)" stroke="rgb(228,227,254)" stroke-width="1" opacity="1" d="M 330.5 227 L 328.5 230 L 330.5 227 Z " /><path fill="rgb(228,227,254)" stroke="rgb(228,227,254)" stroke-width="1" opacity="1" d="M 408.5 230 L 409.5 232 L 408.5 230 Z " /><path fill="rgb(228,227,254)" stroke="rgb(228,227,254)" stroke-width="1" opacity="1" d="M 326.5 233 L 326 234.5 L 324.5 238 L 324 236.5 L 326.5 233 Z " /><path fill="rgb(228,227,254)" stroke="rgb(228,227,254)" stroke-width="1" opacity="1" d="M 321.5 245 L 322 247.5 L 321 247.5 L 321.5 245 Z " /><path fill="rgb(228,227,254)" stroke="rgb(228,227,254)" stroke-width="1" opacity="1" d="M 415.5 246 L 416 248.5 L 415 248.5 L 415.5 246 Z " /><path fill="rgb(228,227,254)" stroke="rgb(228,227,254)" stroke-width="1" opacity="1" d="M 320.5 251 L 321 262.5 L 320 262.5 L 320.5 251 Z " /><path fill="rgb(228,227,254)" stroke="rgb(228,227,254)" stroke-width="1" opacity="1" d="M 416.5 253 L 417 260.5 L 416 260.5 L 416.5 253 Z " /><path fill="rgb(228,227,254)" stroke="rgb(228,227,254)" stroke-width="1" opacity="1" d="M 415.5 264 L 416 266.5 L 415 266.5 L 415.5 264 Z " /><path fill="rgb(228,227,254)" stroke="rgb(228,227,254)" stroke-width="1" opacity="1" d="M 323.5 273 L 325 276.5 L 324 276.5 L 323.5 273 Z " /><path fill="rgb(228,227,254)" stroke="rgb(228,227,254)" stroke-width="1" opacity="1" d="M 412.5 275 L 413 276.5 L 409.5 282 L 410 280.5 L 412.5 275 Z " /><path fill="rgb(228,227,254)" stroke="rgb(228,227,254)" stroke-width="1" opacity="1" d="M 326.5 280 L 327.5 282 L 326.5 280 Z " /><path fill="rgb(228,227,254)" stroke="rgb(228,227,254)" stroke-width="1" opacity="1" d="M 328.5 283 L 329.5 285 L 328.5 283 Z " /><path fill="rgb(228,227,254)" stroke="rgb(228,227,254)" stroke-width="1" opacity="1" d="M 408.5 283 L 406.5 286 L 408.5 283 Z " /><path fill="rgb(228,227,254)" stroke="rgb(228,227,254)" stroke-width="1" opacity="1" d="M 330.5 286 L 338.5 295 L 330.5 286 Z " /><path fill="rgb(228,227,254)" stroke="rgb(228,227,254)" stroke-width="1" opacity="1" d="M 405.5 287 L 398.5 295 L 405.5 287 Z " /><path fill="rgb(228,227,254)" stroke="rgb(228,227,254)" stroke-width="1" opacity="1" d="M 340.5 295 L 341.5 297 L 340.5 295 Z " /><path fill="rgb(228,227,254)" stroke="rgb(228,227,254)" stroke-width="1" opacity="1" d="M 396.5 295 L 395.5 297 L 396.5 295 Z " /><path fill="rgb(228,227,254)" stroke="rgb(228,227,254)" stroke-width="1" opacity="1" d="M 343.5 297 L 344.5 299 L 343.5 297 Z " /><path fill="rgb(228,227,254)" stroke="rgb(228,227,254)" stroke-width="1" opacity="1" d="M 393.5 297 L 392.5 299 L 390.5 300 L 391.5 298 L 393.5 297 Z " /><path fill="rgb(228,227,254)" stroke="rgb(228,227,254)" stroke-width="1" opacity="1" d="M 387.5 300 L 389 300.5 L 385.5 302 L 385.5 301 L 387.5 300 Z " /><path fill="rgb(228,227,254)" stroke="rgb(228,227,254)" stroke-width="1" opacity="1" d="M 315.5 310 L 309.5 317 L 315.5 310 Z " /><path fill="rgb(228,227,254)" stroke="rgb(228,227,254)" stroke-width="1" opacity="1" d="M 420.5 310 L 422.5 313 L 420.5 310 Z " /><path fill="rgb(228,227,254)" stroke="rgb(228,227,254)" stroke-width="1" opacity="1" d="M 425.5 315 L 426.5 317 L 425.5 315 Z " /><path fill="rgb(254,219,205)" stroke="rgb(254,219,205)" stroke-width="1" opacity="0.996078431372549" d="M 361.5 209 Q 392.692 207.808 405 225.5 Q 417.723 237.277 416 263.5 Q 411.998 284.498 397.5 295 Q 389.868 301.368 378 303.5 L 405 304.5 L 372.5 305 Q 370.75 302.25 364.5 304 L 363.5 305 L 331.5 305 L 331.5 304 L 359 303.5 Q 339.435 299.565 330 285.5 Q 318.362 274.138 321 248.5 Q 325.114 229.114 338.5 219 Q 347.457 211.457 361.5 209 Z " /><path fill="rgb(254,219,205)" stroke="rgb(254,219,205)" stroke-width="1" opacity="0.996078431372549" d="M 107.5 304 L 181 304.5 L 107.5 305 L 107.5 304 Z " /><path fill="rgb(254,219,205)" stroke="rgb(254,219,205)" stroke-width="1" opacity="0.996078431372549" d="M 93.5 309 L 92.5 311 L 93.5 309 Z " /><path fill="rgb(254,219,205)" stroke="rgb(254,219,205)" stroke-width="1" opacity="0.996078431372549" d="M 194.5 309 L 196.5 312 L 194.5 309 Z " /><path fill="rgb(254,219,205)" stroke="rgb(254,219,205)" stroke-width="1" opacity="0.996078431372549" d="M 317.5 309 L 316.5 311 L 317.5 309 Z " /><path fill="rgb(254,219,205)" stroke="rgb(254,219,205)" stroke-width="1" opacity="0.996078431372549" d="M 89.5 312 L 87.5 315 L 89.5 312 Z " /><path fill="rgb(254,219,205)" stroke="rgb(254,219,205)" stroke-width="1" opacity="0.996078431372549" d="M 423.5 313 L 424.5 315 L 423.5 313 Z " /><path fill="rgb(254,219,205)" stroke="rgb(254,219,205)" stroke-width="1" opacity="0.996078431372549" d="M 85.5 317 L 84.5 319 L 85.5 317 Z " /><path fill="rgb(254,219,205)" stroke="rgb(254,219,205)" stroke-width="1" opacity="0.996078431372549" d="M 202.5 317 L 203.5 319 L 202.5 317 Z " /><path fill="rgb(254,219,205)" stroke="rgb(254,219,205)" stroke-width="1" opacity="0.996078431372549" d="M 309.5 317 L 308.5 319 L 309.5 317 Z " /><path fill="rgb(254,219,205)" stroke="rgb(254,219,205)" stroke-width="1" opacity="0.996078431372549" d="M 83.5 320 L 83 321.5 L 82.5 323 L 82 321.5 L 83.5 320 Z " /><path fill="rgb(254,219,205)" stroke="rgb(254,219,205)" stroke-width="1" opacity="0.996078431372549" d="M 79.5 330 L 80 333.5 L 79 333.5 L 79.5 330 Z " /><path fill="rgb(254,219,205)" stroke="rgb(254,219,205)" stroke-width="1" opacity="0.996078431372549" d="M 208.5 331 L 209 433 L 79 432.5 L 208 432 L 208.5 331 Z " /><path fill="rgb(254,219,205)" stroke="rgb(254,219,205)" stroke-width="1" opacity="0.996078431372549" d="M 303.5 432 L 433 432.5 L 303.5 433 L 303.5 432 Z " /><path fill="rgb(254,115,92)" stroke="rgb(254,115,92)" stroke-width="1" opacity="0.996078431372549" d="M 370 0 L 434 0 L 434 84.5 L 443.5 89 L 512 112 L 512 187.5 L 510.5 188 L 255.5 100 L 0 187 L 0 112.5 L 2.5 112 L 241.5 28 Q 247.375 23.375 258.5 24 L 369.5 63 L 370 0 Z " /><path fill="rgb(254,115,92)" stroke="rgb(254,115,92)" stroke-width="1" opacity="0.996078431372549" d="M 364.5 304 Q 384 307 408.5 305 Q 420.656 308.344 427 317.5 Q 431.514 323.486 433 332.5 L 433 432 L 303 432 L 303 333.5 Q 305.652 318.652 315.5 311 L 328.5 305 L 363.5 305 L 364.5 304 Z " /><path fill="rgb(254,115,92)" stroke="rgb(254,115,92)" stroke-width="1" opacity="0.996078431372549" d="M 104.5 305 L 183.5 305 Q 195.496 308.004 202 316.5 L 208 329.5 L 208 432 L 79 432 L 79 334.5 Q 81.313 318.813 91.5 311 L 104.5 305 Z " /><path fill="rgb(228,228,255)" stroke="rgb(228,228,255)" stroke-width="1" opacity="1" d="M 256 101 L 480 178 L 480 512 L 256 512 L 256 101 Z M 368 208 Q 348 209 338 219 Q 323 230 320 252 Q 319 275 330 287 Q 339 299 357 304 Q 329 300 316 310 Q 306 317 303 330 L 303 433 L 433 433 L 433 330 L 427 317 Q 414 299 380 304 Q 392 302 399 295 Q 414 284 417 261 Q 417 237 405 225 Q 393 209 368 208 Z " /></svg>