<svg width="512" height="512" version="1.1" xmlns="http://www.w3.org/2000/svg" desc="Created with imagetracer.js version 1.2.6" ><path fill="rgb(102,176,247)" stroke="rgb(102,176,247)" stroke-width="1" opacity="0.5019607843137255" d="M 147.5 68 L 146.5 70 L 140.5 75 L 145.5 69 L 147.5 68 Z " /><path fill="rgb(102,176,247)" stroke="rgb(102,176,247)" stroke-width="1" opacity="0.5019607843137255" d="M 161.5 68 L 164 71.5 L 163 71.5 L 161.5 68 Z " /><path fill="rgb(102,176,247)" stroke="rgb(102,176,247)" stroke-width="1" opacity="0.5019607843137255" d="M 139.5 76 L 132.5 84 L 139.5 76 Z " /><path fill="rgb(102,176,247)" stroke="rgb(102,176,247)" stroke-width="1" opacity="0.5019607843137255" d="M 165.5 76 L 166 81.5 L 164.5 87 L 164 82.5 L 165.5 76 Z " /><path fill="rgb(102,176,247)" stroke="rgb(102,176,247)" stroke-width="1" opacity="0.5019607843137255" d="M 293.5 84 L 301 84.5 L 293.5 85 L 293.5 84 Z " /><path fill="rgb(102,176,247)" stroke="rgb(102,176,247)" stroke-width="1" opacity="0.5019607843137255" d="M 131.5 85 L 124.5 93 L 131.5 85 Z " /><path fill="rgb(102,176,247)" stroke="rgb(102,176,247)" stroke-width="1" opacity="0.5019607843137255" d="M 286.5 85 L 290 85.5 L 286.5 86 L 286.5 85 Z " /><path fill="rgb(102,176,247)" stroke="rgb(102,176,247)" stroke-width="1" opacity="0.5019607843137255" d="M 281.5 86 L 285 86.5 L 273.5 90 L 273.5 89 L 281.5 86 Z " /><path fill="rgb(102,176,247)" stroke="rgb(102,176,247)" stroke-width="1" opacity="0.5019607843137255" d="M 306.5 87 L 311 92.5 L 309 93 Q 309.536 88.333 306.5 87 Z " /><path fill="rgb(102,176,247)" stroke="rgb(102,176,247)" stroke-width="1" opacity="0.5019607843137255" d="M 163.5 89 L 164 108.5 L 163 108.5 L 163.5 89 Z " /><path fill="rgb(102,176,247)" stroke="rgb(102,176,247)" stroke-width="1" opacity="0.5019607843137255" d="M 270.5 90 L 272 90.5 Q 256 97.5 246 110.5 L 236.5 127 L 236 125.5 Q 243.409 108.409 257.5 98 L 270.5 90 Z " /><path fill="rgb(102,176,247)" stroke="rgb(102,176,247)" stroke-width="1" opacity="0.5019607843137255" d="M 123.5 94 L 117 101.5 L 51.5 175 L 59 166.5 L 123.5 94 Z " /><path fill="rgb(102,176,247)" stroke="rgb(102,176,247)" stroke-width="1" opacity="0.5019607843137255" d="M 310.5 94 L 311 100.5 L 310 100.5 L 310.5 94 Z " /><path fill="rgb(102,176,247)" stroke="rgb(102,176,247)" stroke-width="1" opacity="0.5019607843137255" d="M 309.5 107 L 310 121.5 L 309 121.5 L 309.5 107 Z " /><path fill="rgb(102,176,247)" stroke="rgb(102,176,247)" stroke-width="1" opacity="0.5019607843137255" d="M 164.5 112 L 165 117.5 L 164 117.5 L 164.5 112 Z " /><path fill="rgb(102,176,247)" stroke="rgb(102,176,247)" stroke-width="1" opacity="0.5019607843137255" d="M 165.5 119 L 166 122.5 L 165 122.5 L 165.5 119 Z " /><path fill="rgb(102,176,247)" stroke="rgb(102,176,247)" stroke-width="1" opacity="0.5019607843137255" d="M 166.5 124 L 168 130.5 L 167 130.5 L 166.5 124 Z " /><path fill="rgb(102,176,247)" stroke="rgb(102,176,247)" stroke-width="1" opacity="0.5019607843137255" d="M 235.5 128 L 236 129.5 L 234.5 133 L 234 130.5 L 235.5 128 Z " /><path fill="rgb(102,176,247)" stroke="rgb(102,176,247)" stroke-width="1" opacity="0.5019607843137255" d="M 308.5 128 L 309 142.5 L 308 142.5 L 308.5 128 Z " /><path fill="rgb(102,176,247)" stroke="rgb(102,176,247)" stroke-width="1" opacity="0.5019607843137255" d="M 168.5 132 L 172 140.5 L 171 140.5 L 168.5 132 Z " /><path fill="rgb(102,176,247)" stroke="rgb(102,176,247)" stroke-width="1" opacity="0.5019607843137255" d="M 233.5 134 L 234 136.5 L 233 136.5 L 233.5 134 Z " /><path fill="rgb(102,176,247)" stroke="rgb(102,176,247)" stroke-width="1" opacity="0.5019607843137255" d="M 232.5 138 L 233 141.5 L 232 141.5 L 232.5 138 Z " /><path fill="rgb(102,176,247)" stroke="rgb(102,176,247)" stroke-width="1" opacity="0.5019607843137255" d="M 172.5 142 Q 177.816 152.684 186.5 160 L 195 165.5 L 193.5 165 Q 183.841 160.659 178 152.5 L 172.5 142 Z " /><path fill="rgb(102,176,247)" stroke="rgb(102,176,247)" stroke-width="1" opacity="0.5019607843137255" d="M 231.5 143 L 232 171.5 L 233 172.5 L 231 173 L 231.5 143 Z " /><path fill="rgb(102,176,247)" stroke="rgb(102,176,247)" stroke-width="1" opacity="0.5019607843137255" d="M 307.5 150 L 308 154.5 L 307 154.5 L 307.5 150 Z " /><path fill="rgb(102,176,247)" stroke="rgb(102,176,247)" stroke-width="1" opacity="0.5019607843137255" d="M 308.5 156 L 311 159.5 L 309 158.5 L 308.5 156 Z " /><path fill="rgb(102,176,247)" stroke="rgb(102,176,247)" stroke-width="1" opacity="0.5019607843137255" d="M 311.5 161 L 314 164.5 L 312 163.5 L 311.5 161 Z " /><path fill="rgb(102,176,247)" stroke="rgb(102,176,247)" stroke-width="1" opacity="0.5019607843137255" d="M 198.5 167 L 202 168.5 L 200.5 169 L 198.5 167 Z " /><path fill="rgb(102,176,247)" stroke="rgb(102,176,247)" stroke-width="1" opacity="0.5019607843137255" d="M 315.5 168 L 318 171.5 L 316 170.5 L 315.5 168 Z " /><path fill="rgb(102,176,247)" stroke="rgb(102,176,247)" stroke-width="1" opacity="0.5019607843137255" d="M 206.5 170 L 209 170.5 L 206.5 171 L 206.5 170 Z " /><path fill="rgb(102,176,247)" stroke="rgb(102,176,247)" stroke-width="1" opacity="0.5019607843137255" d="M 210.5 171 L 213 171.5 L 210.5 172 L 210.5 171 Z " /><path fill="rgb(102,176,247)" stroke="rgb(102,176,247)" stroke-width="1" opacity="0.5019607843137255" d="M 248.5 171 L 252 171.5 L 248.5 172 L 248.5 171 Z " /><path fill="rgb(102,176,247)" stroke="rgb(102,176,247)" stroke-width="1" opacity="0.5019607843137255" d="M 215.5 172 L 221 172.5 L 215.5 173 L 215.5 172 Z " /><path fill="rgb(102,176,247)" stroke="rgb(102,176,247)" stroke-width="1" opacity="0.5019607843137255" d="M 238.5 172 L 246 172.5 L 238.5 173 L 238.5 172 Z " /><path fill="rgb(102,176,247)" stroke="rgb(102,176,247)" stroke-width="1" opacity="0.5019607843137255" d="M 336.5 175 L 340 177.5 L 339.5 179 L 337.5 176 L 336.5 175 Z " /><path fill="rgb(102,176,247)" stroke="rgb(102,176,247)" stroke-width="1" opacity="0.5019607843137255" d="M 50.5 176 L 43.5 184 L 50.5 176 Z " /><path fill="rgb(102,176,247)" stroke="rgb(102,176,247)" stroke-width="1" opacity="0.5019607843137255" d="M 339.5 181 L 340 182.5 L 337 184.5 L 339.5 181 Z " /><path fill="rgb(102,176,247)" stroke="rgb(102,176,247)" stroke-width="1" opacity="0.5019607843137255" d="M 42.5 185 L 35.5 193 L 42.5 185 Z " /><path fill="rgb(102,176,247)" stroke="rgb(102,176,247)" stroke-width="1" opacity="0.5019607843137255" d="M 325.5 185 L 336 185.5 L 325.5 186 L 325.5 185 Z " /><path fill="rgb(102,176,247)" stroke="rgb(102,176,247)" stroke-width="1" opacity="0.5019607843137255" d="M 326.5 187 L 329 190.5 L 327 189.5 L 326.5 187 Z " /><path fill="rgb(102,176,247)" stroke="rgb(102,176,247)" stroke-width="1" opacity="0.5019607843137255" d="M 330.5 194 L 333 197.5 L 331 196.5 L 330.5 194 Z " /><path fill="rgb(102,176,247)" stroke="rgb(102,176,247)" stroke-width="1" opacity="0.5019607843137255" d="M 33.5 195 L 29.5 200 L 33.5 195 Z " /><path fill="rgb(102,176,247)" stroke="rgb(102,176,247)" stroke-width="1" opacity="0.5019607843137255" d="M 28.5 201 L 27.5 203 L 28.5 201 Z " /><path fill="rgb(102,176,247)" stroke="rgb(102,176,247)" stroke-width="1" opacity="0.5019607843137255" d="M 337.5 202 L 355 202.5 L 337.5 203 L 337.5 202 Z " /><path fill="rgb(102,176,247)" stroke="rgb(102,176,247)" stroke-width="1" opacity="0.5019607843137255" d="M 356.5 203 L 357.5 205 L 356.5 203 Z " /><path fill="rgb(102,176,247)" stroke="rgb(102,176,247)" stroke-width="1" opacity="0.5019607843137255" d="M 26.5 204 L 25.5 206 L 26.5 204 Z " /><path fill="rgb(102,176,247)" stroke="rgb(102,176,247)" stroke-width="1" opacity="0.5019607843137255" d="M 358.5 206 L 359 209.5 L 358 209.5 L 358.5 206 Z " /><path fill="rgb(102,176,247)" stroke="rgb(102,176,247)" stroke-width="1" opacity="0.5019607843137255" d="M 341.5 213 L 344 216.5 L 342 215.5 L 341.5 213 Z " /><path fill="rgb(102,176,247)" stroke="rgb(102,176,247)" stroke-width="1" opacity="0.5019607843137255" d="M 345.5 220 L 348 223.5 L 346 222.5 L 345.5 220 Z " /><path fill="rgb(102,176,247)" stroke="rgb(102,176,247)" stroke-width="1" opacity="0.5019607843137255" d="M 19.5 223 L 20 225.5 L 19 225.5 L 19.5 223 Z " /><path fill="rgb(102,176,247)" stroke="rgb(102,176,247)" stroke-width="1" opacity="0.5019607843137255" d="M 349.5 227 L 351 229.5 L 350 229.5 L 349.5 227 Z " /><path fill="rgb(102,176,247)" stroke="rgb(102,176,247)" stroke-width="1" opacity="0.5019607843137255" d="M 368.5 230 L 372 232.5 L 369.5 231 L 368.5 230 Z " /><path fill="rgb(102,176,247)" stroke="rgb(102,176,247)" stroke-width="1" opacity="0.5019607843137255" d="M 19.5 234 L 20 236.5 L 19 236.5 L 19.5 234 Z " /><path fill="rgb(102,176,247)" stroke="rgb(102,176,247)" stroke-width="1" opacity="0.5019607843137255" d="M 372.5 234 L 373 236.5 L 372 236.5 L 372.5 234 Z " /><path fill="rgb(102,176,247)" stroke="rgb(102,176,247)" stroke-width="1" opacity="0.5019607843137255" d="M 371.5 238 L 370.5 240 L 371.5 238 Z " /><path fill="rgb(102,176,247)" stroke="rgb(102,176,247)" stroke-width="1" opacity="0.5019607843137255" d="M 357 240 L 369 240.5 L 358 241.5 L 358.5 243 L 357 240 Z " /><path fill="rgb(102,176,247)" stroke="rgb(102,176,247)" stroke-width="1" opacity="0.5019607843137255" d="M 360.5 246 L 363 249.5 L 361 248.5 L 360.5 246 Z " /><path fill="rgb(102,176,247)" stroke="rgb(102,176,247)" stroke-width="1" opacity="0.5019607843137255" d="M 364.5 253 L 367 256.5 L 365 255.5 L 364.5 253 Z " /><path fill="rgb(102,176,247)" stroke="rgb(102,176,247)" stroke-width="1" opacity="0.5019607843137255" d="M 26.5 255 L 27.5 257 L 26.5 255 Z " /><path fill="rgb(102,176,247)" stroke="rgb(102,176,247)" stroke-width="1" opacity="0.5019607843137255" d="M 385.5 257 L 387.5 260 L 385.5 257 Z " /><path fill="rgb(102,176,247)" stroke="rgb(102,176,247)" stroke-width="1" opacity="0.5019607843137255" d="M 28.5 258 L 37.5 268 L 28.5 258 Z " /><path fill="rgb(102,176,247)" stroke="rgb(102,176,247)" stroke-width="1" opacity="0.5019607843137255" d="M 387.5 264 L 385.5 267 L 387.5 264 Z " /><path fill="rgb(102,176,247)" stroke="rgb(102,176,247)" stroke-width="1" opacity="0.5019607843137255" d="M 372.5 267 L 373.5 269 L 372.5 267 Z " /><path fill="rgb(102,176,247)" stroke="rgb(102,176,247)" stroke-width="1" opacity="0.5019607843137255" d="M 39.5 268 L 42.5 272 L 39.5 268 Z " /><path fill="rgb(102,176,247)" stroke="rgb(102,176,247)" stroke-width="1" opacity="0.5019607843137255" d="M 44.5 272 L 47.5 276 L 44.5 272 Z " /><path fill="rgb(102,176,247)" stroke="rgb(102,176,247)" stroke-width="1" opacity="0.5019607843137255" d="M 375.5 272 L 378 275.5 L 376 274.5 L 375.5 272 Z " /><path fill="rgb(102,176,247)" stroke="rgb(102,176,247)" stroke-width="1" opacity="0.5019607843137255" d="M 49.5 276 L 52.5 280 L 49.5 276 Z " /><path fill="rgb(102,176,247)" stroke="rgb(102,176,247)" stroke-width="1" opacity="0.5019607843137255" d="M 379.5 279 L 382 282.5 L 380 281.5 L 379.5 279 Z " /><path fill="rgb(102,176,247)" stroke="rgb(102,176,247)" stroke-width="1" opacity="0.5019607843137255" d="M 54.5 280 L 56.5 283 L 54.5 280 Z " /><path fill="rgb(102,176,247)" stroke="rgb(102,176,247)" stroke-width="1" opacity="0.5019607843137255" d="M 58.5 283 L 60.5 286 L 58.5 283 Z " /><path fill="rgb(102,176,247)" stroke="rgb(102,176,247)" stroke-width="1" opacity="0.5019607843137255" d="M 382.5 284 L 385 287.5 L 383 286.5 L 382.5 284 Z " /><path fill="rgb(102,176,247)" stroke="rgb(102,176,247)" stroke-width="1" opacity="0.5019607843137255" d="M 63.5 287 L 65.5 290 L 63.5 287 Z " /><path fill="rgb(102,176,247)" stroke="rgb(102,176,247)" stroke-width="1" opacity="0.5019607843137255" d="M 67.5 290 L 69.5 293 L 67.5 290 Z " /><path fill="rgb(102,176,247)" stroke="rgb(102,176,247)" stroke-width="1" opacity="0.5019607843137255" d="M 386.5 291 L 389 294.5 L 387 293.5 L 386.5 291 Z " /><path fill="rgb(102,176,247)" stroke="rgb(102,176,247)" stroke-width="1" opacity="0.5019607843137255" d="M 72.5 294 L 73.5 296 L 72.5 294 Z " /><path fill="rgb(102,176,247)" stroke="rgb(102,176,247)" stroke-width="1" opacity="0.5019607843137255" d="M 76.5 297 L 77.5 299 L 76.5 297 Z " /><path fill="rgb(102,176,247)" stroke="rgb(102,176,247)" stroke-width="1" opacity="0.5019607843137255" d="M 390.5 298 L 392 300.5 L 391 300.5 L 390.5 298 Z " /><path fill="rgb(102,176,247)" stroke="rgb(102,176,247)" stroke-width="1" opacity="0.5019607843137255" d="M 80.5 300 L 81.5 302 L 80.5 300 Z " /><path fill="rgb(102,176,247)" stroke="rgb(102,176,247)" stroke-width="1" opacity="0.5019607843137255" d="M 84.5 303 L 85.5 305 L 84.5 303 Z " /><path fill="rgb(102,176,247)" stroke="rgb(102,176,247)" stroke-width="1" opacity="0.5019607843137255" d="M 88.5 306 L 89.5 308 L 88.5 306 Z " /><path fill="rgb(102,176,247)" stroke="rgb(102,176,247)" stroke-width="1" opacity="0.5019607843137255" d="M 92.5 309 L 93.5 311 L 92.5 309 Z " /><path fill="rgb(102,176,247)" stroke="rgb(102,176,247)" stroke-width="1" opacity="0.5019607843137255" d="M 95.5 311 L 97.5 314 L 95.5 311 Z " /><path fill="rgb(102,176,247)" stroke="rgb(102,176,247)" stroke-width="1" opacity="0.5019607843137255" d="M 99.5 314 L 100.5 316 L 99.5 314 Z " /><path fill="rgb(102,176,247)" stroke="rgb(102,176,247)" stroke-width="1" opacity="0.5019607843137255" d="M 102.5 316 L 104.5 319 L 102.5 316 Z " /><path fill="rgb(102,176,247)" stroke="rgb(102,176,247)" stroke-width="1" opacity="0.5019607843137255" d="M 106.5 319 L 107.5 321 L 106.5 319 Z " /><path fill="rgb(102,176,247)" stroke="rgb(102,176,247)" stroke-width="1" opacity="0.5019607843137255" d="M 110.5 322 L 111.5 324 L 110.5 322 Z " /><path fill="rgb(102,176,247)" stroke="rgb(102,176,247)" stroke-width="1" opacity="0.5019607843137255" d="M 113.5 324 L 115.5 327 L 113.5 324 Z " /><path fill="rgb(102,176,247)" stroke="rgb(102,176,247)" stroke-width="1" opacity="0.5019607843137255" d="M 117.5 327 L 118.5 329 L 117.5 327 Z " /><path fill="rgb(102,176,247)" stroke="rgb(102,176,247)" stroke-width="1" opacity="0.5019607843137255" d="M 120.5 329 L 121.5 331 L 120.5 329 Z " /><path fill="rgb(102,176,247)" stroke="rgb(102,176,247)" stroke-width="1" opacity="0.5019607843137255" d="M 123.5 331 L 124.5 333 L 123.5 331 Z " /><path fill="rgb(102,176,247)" stroke="rgb(102,176,247)" stroke-width="1" opacity="0.5019607843137255" d="M 127.5 334 L 128.5 336 L 127.5 334 Z " /><path fill="rgb(102,176,247)" stroke="rgb(102,176,247)" stroke-width="1" opacity="0.5019607843137255" d="M 130.5 336 L 131.5 338 L 130.5 336 Z " /><path fill="rgb(102,176,247)" stroke="rgb(102,176,247)" stroke-width="1" opacity="0.5019607843137255" d="M 133.5 338 L 134.5 340 L 133.5 338 Z " /><path fill="rgb(102,176,247)" stroke="rgb(102,176,247)" stroke-width="1" opacity="0.5019607843137255" d="M 136.5 340 L 137.5 342 L 136.5 340 Z " /><path fill="rgb(102,176,247)" stroke="rgb(102,176,247)" stroke-width="1" opacity="0.5019607843137255" d="M 139.5 342 L 140.5 344 L 139.5 342 Z " /><path fill="rgb(102,176,247)" stroke="rgb(102,176,247)" stroke-width="1" opacity="0.5019607843137255" d="M 142.5 344 L 143.5 346 L 142.5 344 Z " /><path fill="rgb(102,176,247)" stroke="rgb(102,176,247)" stroke-width="1" opacity="0.5019607843137255" d="M 145.5 346 L 146.5 348 L 145.5 346 Z " /><path fill="rgb(102,176,247)" stroke="rgb(102,176,247)" stroke-width="1" opacity="0.5019607843137255" d="M 148.5 348 L 149.5 350 L 148.5 348 Z " /><path fill="rgb(102,176,247)" stroke="rgb(102,176,247)" stroke-width="1" opacity="0.5019607843137255" d="M 151.5 350 L 152.5 352 L 151.5 350 Z " /><path fill="rgb(102,176,247)" stroke="rgb(102,176,247)" stroke-width="1" opacity="0.5019607843137255" d="M 154.5 352 L 155.5 354 L 154.5 352 Z " /><path fill="rgb(102,176,247)" stroke="rgb(102,176,247)" stroke-width="1" opacity="0.5019607843137255" d="M 159.5 355 L 160.5 357 L 159.5 355 Z " /><path fill="rgb(102,176,247)" stroke="rgb(102,176,247)" stroke-width="1" opacity="0.5019607843137255" d="M 162.5 357 L 163.5 359 L 162.5 357 Z " /><path fill="rgb(102,176,247)" stroke="rgb(102,176,247)" stroke-width="1" opacity="0.5019607843137255" d="M 165.5 359 L 166.5 361 L 165.5 359 Z " /><path fill="rgb(102,176,247)" stroke="rgb(102,176,247)" stroke-width="1" opacity="0.5019607843137255" d="M 170.5 362 L 171.5 364 L 170.5 362 Z " /><path fill="rgb(102,176,247)" stroke="rgb(102,176,247)" stroke-width="1" opacity="0.5019607843137255" d="M 173.5 364 L 174.5 366 L 173.5 364 Z " /><path fill="rgb(102,176,247)" stroke="rgb(102,176,247)" stroke-width="1" opacity="0.5019607843137255" d="M 178.5 367 L 179.5 369 L 178.5 367 Z " /><path fill="rgb(102,176,247)" stroke="rgb(102,176,247)" stroke-width="1" opacity="0.5019607843137255" d="M 183.5 370 L 184.5 372 L 183.5 370 Z " /><path fill="rgb(102,176,247)" stroke="rgb(102,176,247)" stroke-width="1" opacity="0.5019607843137255" d="M 188.5 373 L 189.5 375 L 188.5 373 Z " /><path fill="rgb(102,176,247)" stroke="rgb(102,176,247)" stroke-width="1" opacity="0.5019607843137255" d="M 487.5 375 L 491 382.5 L 490 382.5 L 487.5 375 Z " /><path fill="rgb(102,176,247)" stroke="rgb(102,176,247)" stroke-width="1" opacity="0.5019607843137255" d="M 193.5 376 L 194.5 378 L 193.5 376 Z " /><path fill="rgb(102,176,247)" stroke="rgb(102,176,247)" stroke-width="1" opacity="0.5019607843137255" d="M 200.5 380 L 201.5 382 L 200.5 380 Z " /><path fill="rgb(102,176,247)" stroke="rgb(102,176,247)" stroke-width="1" opacity="0.5019607843137255" d="M 207.5 384 L 211 386.5 L 209.5 386 L 207.5 384 Z " /><path fill="rgb(102,176,247)" stroke="rgb(102,176,247)" stroke-width="1" opacity="0.5019607843137255" d="M 491.5 384 L 492 386.5 L 491 386.5 L 491.5 384 Z " /><path fill="rgb(102,176,247)" stroke="rgb(102,176,247)" stroke-width="1" opacity="0.5019607843137255" d="M 218.5 390 L 219.5 392 L 218.5 390 Z " /><path fill="rgb(102,176,247)" stroke="rgb(102,176,247)" stroke-width="1" opacity="0.5019607843137255" d="M 492.5 395 L 493 398.5 L 492 398.5 L 492.5 395 Z " /><path fill="rgb(102,176,247)" stroke="rgb(102,176,247)" stroke-width="1" opacity="0.5019607843137255" d="M 256.5 409 L 259 410.5 L 257.5 411 L 256.5 409 Z " /><path fill="rgb(102,176,247)" stroke="rgb(102,176,247)" stroke-width="1" opacity="0.5019607843137255" d="M 486.5 411 L 483.5 415 L 486.5 411 Z " /><path fill="rgb(102,176,247)" stroke="rgb(102,176,247)" stroke-width="1" opacity="0.5019607843137255" d="M 480.5 416 L 479.5 418 L 480.5 416 Z " /><path fill="rgb(102,176,247)" stroke="rgb(102,176,247)" stroke-width="1" opacity="0.5019607843137255" d="M 357.5 442 L 360 442.5 L 357.5 443 L 357.5 442 Z " /><path fill="rgb(102,176,247)" stroke="rgb(102,176,247)" stroke-width="1" opacity="0.5019607843137255" d="M 365.5 443 L 368 443.5 L 365.5 444 L 365.5 443 Z " /><path fill="rgb(102,176,247)" stroke="rgb(102,176,247)" stroke-width="1" opacity="0.5019607843137255" d="M 409.5 443 L 412 443.5 L 409.5 444 L 409.5 443 Z " /><path fill="rgb(102,176,247)" stroke="rgb(102,176,247)" stroke-width="1" opacity="0.5019607843137255" d="M 375.5 444 L 381 444.5 L 375.5 445 L 375.5 444 Z " /><path fill="rgb(102,176,247)" stroke="rgb(102,176,247)" stroke-width="1" opacity="0.5019607843137255" d="M 397.5 444 L 402 444.5 L 397.5 445 L 397.5 444 Z " /><path fill="rgb(100,184,254)" stroke="rgb(100,184,254)" stroke-width="1" opacity="0.996078431372549" d="M 160.5 68 L 162.5 71 L 160.5 68 Z " /><path fill="rgb(100,184,254)" stroke="rgb(100,184,254)" stroke-width="1" opacity="0.996078431372549" d="M 143.5 72 L 140.5 76 L 143.5 72 Z " /><path fill="rgb(100,184,254)" stroke="rgb(100,184,254)" stroke-width="1" opacity="0.996078431372549" d="M 137.5 79 L 132.5 85 L 137.5 79 Z " /><path fill="rgb(100,184,254)" stroke="rgb(100,184,254)" stroke-width="1" opacity="0.996078431372549" d="M 162.5 82 L 164 82.5 L 151 94.5 L 56.5 201 L 58 198.5 L 159.5 84 L 162.5 82 Z " /><path fill="rgb(100,184,254)" stroke="rgb(100,184,254)" stroke-width="1" opacity="0.996078431372549" d="M 290.5 85 L 291.5 87 Q 261.96 90.96 248 110.5 Q 229.547 130.547 232.5 172 L 232 144.5 Q 234.662 128.2 241 117 Q 243.667 118.125 243 115.5 L 251 105 L 254 103.5 Q 253.25 101.25 255.5 102 L 257 99 Q 270.435 89.147 290.5 85 Z " /><path fill="rgb(100,184,254)" stroke="rgb(100,184,254)" stroke-width="1" opacity="0.996078431372549" d="M 293.5 85 Q 301 83.5 304 86.5 L 302.5 87 Q 300.5 84 293.5 86 L 293.5 85 Z " /><path fill="rgb(100,184,254)" stroke="rgb(100,184,254)" stroke-width="1" opacity="0.996078431372549" d="M 305.5 87 L 306.5 89 L 305.5 87 Z " /><path fill="rgb(100,184,254)" stroke="rgb(100,184,254)" stroke-width="1" opacity="0.996078431372549" d="M 129.5 88 L 124.5 94 L 129.5 88 Z " /><path fill="rgb(100,184,254)" stroke="rgb(100,184,254)" stroke-width="1" opacity="0.996078431372549" d="M 303.5 92 L 309 92.5 Q 274.234 95.234 259 117.5 Q 251.779 125.779 248.5 138 L 248 134.5 Q 254.337 119.337 265.5 109 Q 279.223 95.223 303.5 92 Z " /><path fill="rgb(100,184,254)" stroke="rgb(100,184,254)" stroke-width="1" opacity="0.996078431372549" d="M 122.5 96 L 117.5 102 L 122.5 96 Z " /><path fill="rgb(100,184,254)" stroke="rgb(100,184,254)" stroke-width="1" opacity="0.996078431372549" d="M 114.5 105 L 109.5 111 L 114.5 105 Z " /><path fill="rgb(100,184,254)" stroke="rgb(100,184,254)" stroke-width="1" opacity="0.996078431372549" d="M 107.5 113 L 101.5 120 L 107.5 113 Z " /><path fill="rgb(100,184,254)" stroke="rgb(100,184,254)" stroke-width="1" opacity="0.996078431372549" d="M 99.5 122 L 93.5 129 L 99.5 122 Z " /><path fill="rgb(100,184,254)" stroke="rgb(100,184,254)" stroke-width="1" opacity="0.996078431372549" d="M 92.5 130 L 85.5 138 L 92.5 130 Z " /><path fill="rgb(100,184,254)" stroke="rgb(100,184,254)" stroke-width="1" opacity="0.996078431372549" d="M 84.5 139 L 78 146.5 L 58 169.5 L 57.5 173 Q 54.75 171.75 57 170.5 L 84.5 139 Z " /><path fill="rgb(100,184,254)" stroke="rgb(100,184,254)" stroke-width="1" opacity="0.996078431372549" d="M 247.5 140 Q 249 148.5 254.5 153 Q 258.313 157.688 268.5 156 Q 290.07 150.07 307.5 140 L 308 142 L 272.5 156 L 259.5 157 L 250 149.5 L 247.5 140 Z " /><path fill="rgb(100,184,254)" stroke="rgb(100,184,254)" stroke-width="1" opacity="0.996078431372549" d="M 307.5 145 L 308 149.5 L 307 149.5 L 307.5 145 Z " /><path fill="rgb(100,184,254)" stroke="rgb(100,184,254)" stroke-width="1" opacity="0.996078431372549" d="M 306.5 154 L 307.5 156 L 305.5 156 L 304 155.5 L 306.5 154 Z " /><path fill="rgb(100,184,254)" stroke="rgb(100,184,254)" stroke-width="1" opacity="0.996078431372549" d="M 301.5 156 L 303 156.5 L 286.5 163 L 286.5 162 L 301.5 156 Z " /><path fill="rgb(100,184,254)" stroke="rgb(100,184,254)" stroke-width="1" opacity="0.996078431372549" d="M 309.5 159 L 310.5 161 L 309.5 159 Z " /><path fill="rgb(100,184,254)" stroke="rgb(100,184,254)" stroke-width="1" opacity="0.996078431372549" d="M 282.5 163 L 285 163.5 L 276.5 166 L 276.5 165 L 282.5 163 Z " /><path fill="rgb(100,184,254)" stroke="rgb(100,184,254)" stroke-width="1" opacity="0.996078431372549" d="M 313.5 165 L 315 167.5 L 313 166.5 L 313.5 165 Z " /><path fill="rgb(100,184,254)" stroke="rgb(100,184,254)" stroke-width="1" opacity="0.996078431372549" d="M 232.5 173 L 236 173.5 L 232.5 174 L 232.5 173 Z " /><path fill="rgb(100,184,254)" stroke="rgb(100,184,254)" stroke-width="1" opacity="0.996078431372549" d="M 54.5 185 L 55 191.5 L 54 191.5 L 54.5 185 Z " /><path fill="rgb(100,184,254)" stroke="rgb(100,184,254)" stroke-width="1" opacity="0.996078431372549" d="M 297.5 185 L 325 185.5 L 297.5 186 L 297.5 185 Z " /><path fill="rgb(100,184,254)" stroke="rgb(100,184,254)" stroke-width="1" opacity="0.996078431372549" d="M 277.5 186 Q 280.125 185.167 279 188.5 L 288 206.5 L 152.5 286 L 152.5 285 L 286 206.5 L 277.5 187 L 132.5 272 L 133.5 270 L 277.5 186 Z " /><path fill="rgb(100,184,254)" stroke="rgb(100,184,254)" stroke-width="1" opacity="0.996078431372549" d="M 313.5 203 L 312.5 205 L 313.5 203 Z " /><path fill="rgb(100,184,254)" stroke="rgb(100,184,254)" stroke-width="1" opacity="0.996078431372549" d="M 342.5 216 L 343.5 218 L 342.5 216 Z " /><path fill="rgb(100,184,254)" stroke="rgb(100,184,254)" stroke-width="1" opacity="0.996078431372549" d="M 297.5 229 Q 300.833 227.875 300 230.5 L 311 247.5 L 195.5 316 L 195 314 L 200.5 312 L 309 247.5 L 298.5 230 L 174.5 302 L 175.5 300 L 297.5 229 Z " /><path fill="rgb(100,184,254)" stroke="rgb(100,184,254)" stroke-width="1" opacity="0.996078431372549" d="M 325.5 234 L 326 236.5 L 325 236.5 L 325.5 234 Z " /><path fill="rgb(100,184,254)" stroke="rgb(100,184,254)" stroke-width="1" opacity="0.996078431372549" d="M 326.5 238 L 327.5 240 L 326.5 238 Z " /><path fill="rgb(100,184,254)" stroke="rgb(100,184,254)" stroke-width="1" opacity="0.996078431372549" d="M 350.5 240 L 357 240.5 L 350.5 241 L 350.5 240 Z " /><path fill="rgb(100,184,254)" stroke="rgb(100,184,254)" stroke-width="1" opacity="0.996078431372549" d="M 357.5 242 L 358.5 244 L 357.5 242 Z " /><path fill="rgb(100,184,254)" stroke="rgb(100,184,254)" stroke-width="1" opacity="0.996078431372549" d="M 45.5 245 L 46.5 247 L 45.5 245 Z " /><path fill="rgb(100,184,254)" stroke="rgb(100,184,254)" stroke-width="1" opacity="0.996078431372549" d="M 48.5 248 L 49.5 250 L 48.5 248 Z " /><path fill="rgb(100,184,254)" stroke="rgb(100,184,254)" stroke-width="1" opacity="0.996078431372549" d="M 343.5 257 L 342.5 259 L 343.5 257 Z " /><path fill="rgb(100,184,254)" stroke="rgb(100,184,254)" stroke-width="1" opacity="0.996078431372549" d="M 342.5 266 L 343.5 268 L 342.5 266 Z " /><path fill="rgb(100,184,254)" stroke="rgb(100,184,254)" stroke-width="1" opacity="0.996078431372549" d="M 325.5 268 L 344 284.5 L 252.5 339 L 241.5 344 L 241.5 343 L 250.5 339 L 342 284.5 L 327 270.5 L 326.5 269 L 220.5 331 L 220.5 330 L 312.5 277 L 325.5 268 Z " /><path fill="rgb(100,184,254)" stroke="rgb(100,184,254)" stroke-width="1" opacity="0.996078431372549" d="M 372.5 268 L 373.5 270 L 372.5 268 Z " /><path fill="rgb(100,184,254)" stroke="rgb(100,184,254)" stroke-width="1" opacity="0.996078431372549" d="M 384.5 288 L 386 290.5 L 384 289.5 L 384.5 288 Z " /><path fill="rgb(100,184,254)" stroke="rgb(100,184,254)" stroke-width="1" opacity="0.996078431372549" d="M 387.5 294 L 388.5 296 L 387.5 294 Z " /><path fill="rgb(100,184,254)" stroke="rgb(100,184,254)" stroke-width="1" opacity="0.996078431372549" d="M 388.5 364 L 390.5 367 L 388.5 364 Z " /><path fill="rgb(100,184,254)" stroke="rgb(100,184,254)" stroke-width="1" opacity="0.996078431372549" d="M 453.5 379 L 456 379.5 L 453.5 380 L 453.5 379 Z " /><path fill="rgb(100,184,254)" stroke="rgb(100,184,254)" stroke-width="1" opacity="0.996078431372549" d="M 394.5 429 L 398 429.5 L 394.5 430 L 394.5 429 Z " /><path fill="rgb(100,184,254)" stroke="rgb(100,184,254)" stroke-width="1" opacity="0.996078431372549" d="M 409.5 429 L 412 429.5 L 409.5 430 L 409.5 429 Z " /><path fill="rgb(100,184,254)" stroke="rgb(100,184,254)" stroke-width="1" opacity="0.996078431372549" d="M 393.5 444 L 397 444.5 L 393.5 445 L 393.5 444 Z " /><path fill="rgb(0,1,1)" stroke="rgb(0,1,1)" stroke-width="1" opacity="0.9882352941176471" d="M 295 176 L 314 176.5 Q 311.75 177.75 313 182.5 L 314.5 185 Q 299.458 188.542 294 182.5 L 295 176 Z " /><path fill="rgb(0,1,1)" stroke="rgb(0,1,1)" stroke-width="1" opacity="0.9882352941176471" d="M 39.5 192 L 39 193.5 Q 33.669 202.669 34 217.5 L 37 231.5 Q 31.9 238.4 34 252.5 L 40 266.5 L 37.5 265 L 31 259.5 Q 18.984 248.016 21 222.5 Q 25.589 202.589 39.5 192 Z " /><path fill="rgb(0,1,1)" stroke="rgb(0,1,1)" stroke-width="1" opacity="0.9882352941176471" d="M 315.5 203 L 333 203.5 L 331 207.5 L 333 211.5 L 314.5 212 Q 311.75 210.75 313 205.5 L 315.5 203 Z " /><path fill="rgb(0,1,1)" stroke="rgb(0,1,1)" stroke-width="1" opacity="0.9882352941176471" d="M 328.5 231 L 347 231.5 L 345 236.5 L 347.5 240 Q 333.125 242.25 327 239 L 326 234.5 L 328.5 231 Z " /><path fill="rgb(0,1,1)" stroke="rgb(0,1,1)" stroke-width="1" opacity="0.9882352941176471" d="M 345.5 258 L 363 258.5 Q 360.4 259.9 361 264.5 L 362.5 267 L 344.5 267 L 342 264.5 L 343 259 L 345.5 258 Z " /><path fill="rgb(0,1,1)" stroke="rgb(0,1,1)" stroke-width="1" opacity="0.9882352941176471" d="M 391 302 Q 441.909 323.845 478 361.5 L 487 374.5 Q 460.613 381.613 424.5 379 Q 398.319 376.681 386 360.5 Q 379.384 352.116 380 336.5 Q 382.317 315.708 391 302 Z " /><path fill="rgb(101,185,255)" stroke="rgb(101,185,255)" stroke-width="1" opacity="1" d="M 162.5 83 Q 165.5 82.125 164 86.5 L 163 89.5 Q 160.193 139.807 186.5 161 Q 203.191 175.309 235.5 174 Q 276.759 170.259 306.5 155 Q 313.104 162.128 316 172 Q 319.333 170.875 318 175 L 295.5 175 L 293 177.5 Q 291.75 183.75 295.5 185 L 297.5 186 L 326 186 L 327 191 L 329 191.5 L 328.5 193 Q 330.75 192.25 330 194.5 L 331 198 Q 334 196.75 333 200.5 L 333.5 202 Q 317.75 198.25 312 204.5 Q 310.5 211.5 314.5 213 L 340.5 213 L 342 214.5 L 350 229.5 L 328.5 230 L 326 232.5 L 325 236.5 L 327.5 240 L 329.5 241 L 357 241 Q 362.91 247.394 365 257 L 343.5 257 L 342 258.5 L 341 264.5 L 343.5 268 Q 360.562 269.375 372 267 Q 378.9 284 390 297.5 L 391 301.5 Q 378.179 317.679 380 348.5 Q 382.869 360.131 390.5 367 Q 412.557 383.943 455.5 380 L 456.5 379 Q 474.7 379.6 488 376 L 492 387.5 Q 461.093 405.593 410.5 404 Q 369.225 400.275 336.5 388 Q 286.018 369.982 243 344.5 L 344 284.5 L 325.5 268 L 312.5 277 L 220 330.5 L 220.5 332 L 196 316.5 L 197.5 314 L 311 247.5 L 300 229 Q 290.142 228.475 284.5 236 L 174 301.5 L 174.5 303 L 151 286.5 Q 220.977 247.977 288 206.5 L 279 188.5 L 279 186 L 273.5 188 L 130.5 272 Q 93.389 249.111 64 218.5 Q 57.75 210.75 55 199.5 L 56 199.5 L 56.5 201 L 162.5 83 Z " /><path fill="rgb(101,185,255)" stroke="rgb(101,185,255)" stroke-width="1" opacity="1" d="M 303.5 93 L 310 93 L 310 104.5 L 309 107.5 Q 310.563 127.063 306.5 141 L 272.5 155 L 259.5 156 L 252 150.5 Q 248 146.5 248 138.5 Q 254.453 118.453 269.5 107 Q 282.183 95.683 303.5 93 Z " /><path fill="rgb(101,185,255)" stroke="rgb(101,185,255)" stroke-width="1" opacity="1" d="M 261.5 96 L 260.5 98 L 261.5 96 Z " /><path fill="rgb(101,185,255)" stroke="rgb(101,185,255)" stroke-width="1" opacity="1" d="M 256.5 100 L 255.5 102 L 256.5 100 Z " /><path fill="rgb(101,185,255)" stroke="rgb(101,185,255)" stroke-width="1" opacity="1" d="M 253.5 103 L 252.5 105 L 253.5 103 Z " /><path fill="rgb(101,185,255)" stroke="rgb(101,185,255)" stroke-width="1" opacity="1" d="M 250.5 106 L 246.5 111 L 250.5 106 Z " /><path fill="rgb(101,185,255)" stroke="rgb(101,185,255)" stroke-width="1" opacity="1" d="M 244.5 113 L 243.5 115 L 244.5 113 Z " /><path fill="rgb(101,185,255)" stroke="rgb(101,185,255)" stroke-width="1" opacity="1" d="M 54.5 181 L 55 184.5 L 54 184.5 L 54.5 181 Z " /><path fill="rgb(101,185,255)" stroke="rgb(101,185,255)" stroke-width="1" opacity="1" d="M 54.5 192 L 55 195.5 L 54 195.5 L 54.5 192 Z " /><path fill="rgb(101,185,255)" stroke="rgb(101,185,255)" stroke-width="1" opacity="1" d="M 137.5 276 L 138.5 278 L 137.5 276 Z " /><path fill="rgb(101,185,255)" stroke="rgb(101,185,255)" stroke-width="1" opacity="1" d="M 144.5 281 L 145.5 283 L 144.5 281 Z " /><path fill="rgb(101,185,255)" stroke="rgb(101,185,255)" stroke-width="1" opacity="1" d="M 148.5 284 L 149.5 286 L 148.5 284 Z " /><path fill="rgb(101,185,255)" stroke="rgb(101,185,255)" stroke-width="1" opacity="1" d="M 188.5 311 L 189.5 313 L 188.5 311 Z " /><path fill="rgb(73,110,198)" stroke="rgb(73,110,198)" stroke-width="1" opacity="0.9921568627450981" d="M 153.5 67 Q 160.75 66.75 163 71.5 Q 165.857 75.435 165 82 Q 157.47 81.304 155 88.5 L 56.5 200 Q 51.625 193.875 55 179.5 L 58 169.5 L 138 79.5 L 144 71 L 153.5 67 Z " /><path fill="rgb(73,110,198)" stroke="rgb(73,110,198)" stroke-width="1" opacity="0.9921568627450981" d="M 292.5 86 Q 304.688 84.313 309 90.5 Q 309.583 93.25 303.5 92 Q 275.964 96.464 261 113.5 Q 250.959 123.959 247 140.5 Q 248.375 150.625 255.5 155 Q 259.5 158.5 268.5 157 L 308 142 Q 306.2 145.8 307 153.5 L 305.5 155 Q 274.954 170.199 233 173 Q 228.897 121.113 257.5 101 Q 270.593 89.093 292.5 86 Z " /><path fill="rgb(73,110,198)" stroke="rgb(73,110,198)" stroke-width="1" opacity="0.9921568627450981" d="M 296.5 175 L 335.5 175 L 339 177.5 L 340 180.5 L 336.5 185 L 315.5 185 L 313 182.5 Q 311.75 177.75 314 176.5 L 296.5 176 L 296.5 175 Z " /><path fill="rgb(73,110,198)" stroke="rgb(73,110,198)" stroke-width="1" opacity="0.9921568627450981" d="M 294.5 176 L 295 177.5 L 293.5 182 L 293 178.5 L 294.5 176 Z " /><path fill="rgb(73,110,198)" stroke="rgb(73,110,198)" stroke-width="1" opacity="0.9921568627450981" d="M 294.5 183 L 297 184.5 L 295.5 185 L 294.5 183 Z " /><path fill="rgb(73,110,198)" stroke="rgb(73,110,198)" stroke-width="1" opacity="0.9921568627450981" d="M 277.5 187 L 286 206.5 L 151.5 286 L 132 272.5 L 277.5 187 Z " /><path fill="rgb(73,110,198)" stroke="rgb(73,110,198)" stroke-width="1" opacity="0.9921568627450981" d="M 40.5 188 Q 43.25 189.25 41 190.5 Q 41.75 192.75 39.5 192 L 39.5 194 L 38.5 193 L 32 199.5 Q 19.277 211.277 21 237.5 Q 24.617 255.383 36.5 265 L 38.5 266 L 39 264.5 Q 31.941 256.059 34 238.5 L 36.5 232 Q 41.418 242.582 49.5 250 Q 145.835 332.165 264.5 392 Q 301.405 410.095 344.5 422 Q 373.417 430.583 411.5 430 Q 458.204 426.204 488.5 406 L 488 407.5 L 484.5 413 Q 447.884 443.384 382.5 445 Q 338.144 441.856 303.5 429 Q 259.28 413.22 220.5 392 Q 115.165 333.835 28 257.5 Q 18.939 246.561 19 226.5 Q 22.997 200.497 40.5 188 Z " /><path fill="rgb(73,110,198)" stroke="rgb(73,110,198)" stroke-width="1" opacity="0.9921568627450981" d="M 36.5 200 L 37 202.5 L 36 202.5 L 36.5 200 Z " /><path fill="rgb(73,110,198)" stroke="rgb(73,110,198)" stroke-width="1" opacity="0.9921568627450981" d="M 317.5 202 L 355.5 203 L 358 205.5 Q 359.25 210.75 356.5 212 L 354.5 213 L 315.5 213 L 315.5 212 L 333 211.5 L 331 207.5 L 333 203.5 L 317.5 203 L 317.5 202 Z " /><path fill="rgb(73,110,198)" stroke="rgb(73,110,198)" stroke-width="1" opacity="0.9921568627450981" d="M 314.5 203 L 313 205.5 Q 311.75 210.25 314 211.5 L 312 210.5 Q 310.75 204.25 314.5 203 Z " /><path fill="rgb(73,110,198)" stroke="rgb(73,110,198)" stroke-width="1" opacity="0.9921568627450981" d="M 35.5 204 L 36 207.5 L 35 207.5 L 35.5 204 Z " /><path fill="rgb(73,110,198)" stroke="rgb(73,110,198)" stroke-width="1" opacity="0.9921568627450981" d="M 34.5 210 L 35 217.5 L 34 217.5 L 34.5 210 Z " /><path fill="rgb(73,110,198)" stroke="rgb(73,110,198)" stroke-width="1" opacity="0.9921568627450981" d="M 35.5 221 L 36 224.5 L 35 224.5 L 35.5 221 Z " /><path fill="rgb(73,110,198)" stroke="rgb(73,110,198)" stroke-width="1" opacity="0.9921568627450981" d="M 36.5 226 L 37 228.5 L 36 228.5 L 36.5 226 Z " /><path fill="rgb(73,110,198)" stroke="rgb(73,110,198)" stroke-width="1" opacity="0.9921568627450981" d="M 297.5 230 L 300 231.5 L 309 247.5 L 194.5 315 L 175 302.5 L 297.5 230 Z " /><path fill="rgb(73,110,198)" stroke="rgb(73,110,198)" stroke-width="1" opacity="0.9921568627450981" d="M 329.5 230 L 367.5 230 L 372 233.5 Q 373 239 369.5 240 L 330.5 241 L 330.5 240 L 348 239.5 Q 344.5 239 345 234.5 L 347 231.5 L 329.5 231 L 329.5 230 Z " /><path fill="rgb(73,110,198)" stroke="rgb(73,110,198)" stroke-width="1" opacity="0.9921568627450981" d="M 327.5 231 L 327 232.5 L 326.5 234 L 326 232.5 L 327.5 231 Z " /><path fill="rgb(73,110,198)" stroke="rgb(73,110,198)" stroke-width="1" opacity="0.9921568627450981" d="M 344.5 257 L 384.5 257 L 388 260.5 Q 388.75 266.25 384.5 267 L 344.5 268 L 342.5 265 L 344.5 267 L 362.5 267 L 361 264.5 Q 360.4 259.9 363 258.5 L 345.5 258 L 343 259 L 341.5 264 L 341 261.5 L 344.5 257 Z " /><path fill="rgb(73,110,198)" stroke="rgb(73,110,198)" stroke-width="1" opacity="0.9921568627450981" d="M 326.5 269 L 336.5 280 L 342 284.5 L 250.5 339 Q 248.045 343.545 240.5 343 L 221 331.5 L 326.5 269 Z " /><path fill="rgb(73,110,198)" stroke="rgb(73,110,198)" stroke-width="1" opacity="0.9921568627450981" d="M 431.5 323 L 432.5 325 L 431.5 323 Z " /><path fill="rgb(73,110,198)" stroke="rgb(73,110,198)" stroke-width="1" opacity="0.9921568627450981" d="M 381.5 326 L 382 328.5 L 381 328.5 L 381.5 326 Z " /><path fill="rgb(73,110,198)" stroke="rgb(73,110,198)" stroke-width="1" opacity="0.9921568627450981" d="M 380.5 331 L 381 335.5 L 380 335.5 L 380.5 331 Z " /><path fill="rgb(73,110,198)" stroke="rgb(73,110,198)" stroke-width="1" opacity="0.9921568627450981" d="M 443.5 331 L 444.5 333 L 443.5 331 Z " /><path fill="rgb(73,110,198)" stroke="rgb(73,110,198)" stroke-width="1" opacity="0.9921568627450981" d="M 456.5 341 L 457.5 343 L 456.5 341 Z " /><path fill="rgb(73,110,198)" stroke="rgb(73,110,198)" stroke-width="1" opacity="0.9921568627450981" d="M 380.5 344 L 381 347.5 L 380 347.5 L 380.5 344 Z " /><path fill="rgb(73,110,198)" stroke="rgb(73,110,198)" stroke-width="1" opacity="0.9921568627450981" d="M 462.5 346 L 464.5 349 L 462.5 346 Z " /><path fill="rgb(73,110,198)" stroke="rgb(73,110,198)" stroke-width="1" opacity="0.9921568627450981" d="M 384.5 358 L 385.5 360 L 384.5 358 Z " /><path fill="rgb(73,110,198)" stroke="rgb(73,110,198)" stroke-width="1" opacity="0.9921568627450981" d="M 386.5 361 L 393.5 369 L 386.5 361 Z " /><path fill="rgb(73,110,198)" stroke="rgb(73,110,198)" stroke-width="1" opacity="0.9921568627450981" d="M 478.5 362 L 480.5 365 L 478.5 362 Z " /><path fill="rgb(73,110,198)" stroke="rgb(73,110,198)" stroke-width="1" opacity="0.9921568627450981" d="M 482.5 367 L 483.5 369 L 482.5 367 Z " /><path fill="rgb(73,110,198)" stroke="rgb(73,110,198)" stroke-width="1" opacity="0.9921568627450981" d="M 395.5 369 L 396.5 371 L 395.5 369 Z " /><path fill="rgb(73,110,198)" stroke="rgb(73,110,198)" stroke-width="1" opacity="0.9921568627450981" d="M 484.5 375 L 487 375.5 L 484.5 376 L 484.5 375 Z " /><path fill="rgb(73,110,198)" stroke="rgb(73,110,198)" stroke-width="1" opacity="0.9921568627450981" d="M 477.5 376 L 481 376.5 L 477.5 377 L 477.5 376 Z " /><path fill="rgb(73,110,198)" stroke="rgb(73,110,198)" stroke-width="1" opacity="0.9921568627450981" d="M 470.5 377 L 474 377.5 L 470.5 378 L 470.5 377 Z " /><path fill="rgb(73,110,198)" stroke="rgb(73,110,198)" stroke-width="1" opacity="0.9921568627450981" d="M 420.5 378 L 424 378.5 L 420.5 379 L 420.5 378 Z " /><path fill="rgb(73,110,198)" stroke="rgb(73,110,198)" stroke-width="1" opacity="0.9921568627450981" d="M 461.5 378 L 465 378.5 L 461.5 379 L 461.5 378 Z " /><path fill="rgb(73,110,198)" stroke="rgb(73,110,198)" stroke-width="1" opacity="0.9921568627450981" d="M 429.5 379 L 453 379.5 L 429.5 380 L 429.5 379 Z " /><path fill="rgb(0,0,0)" stroke="rgb(0,0,0)" stroke-width="1" opacity="0" d="M 0 0 L 512 0 L 512 512 L 0 512 L 0 0 Z M 155 66 L 146 69 L 29 200 Q 21 209 19 224 Q 18 247 28 259 Q 115 334 220 392 Q 284 432 376 445 Q 446 446 484 415 Q 494 407 494 390 Q 495 386 492 387 Q 488 369 476 358 L 475 358 L 457 341 Q 454 342 455 339 Q 427 318 394 302 L 373 268 L 386 267 Q 389 266 388 260 L 386 257 L 368 257 L 358 242 L 371 240 L 373 237 L 372 233 L 370 230 L 351 230 L 342 214 Q 353 215 358 212 L 359 210 L 358 205 Q 352 198 336 202 L 326 187 L 338 185 Q 341 184 340 178 L 338 175 L 319 175 L 308 156 L 311 95 L 311 93 L 310 91 L 301 84 Q 272 84 258 98 Q 226 118 231 173 Q 202 174 187 160 Q 167 144 164 112 Q 161 93 166 82 Q 167 74 164 71 Q 161 66 155 66 Z " /><path fill="rgb(220,219,254)" stroke="rgb(220,219,254)" stroke-width="1" opacity="0.996078431372549" d="M 55.5 171 L 57 173.5 Q 52.091 181.091 54 195.5 Q 58.429 217.071 73.5 228 Q 168.464 308.536 285.5 367 Q 318.16 382.84 355.5 394 Q 388.285 405.215 433.5 404 Q 469.094 400.401 494 387 Q 493.66 398.519 489.5 407 L 487.5 407 Q 453.286 428.786 398.5 430 Q 307.445 420.055 244.5 382 Q 136.816 323.424 47 248 Q 40.875 241.438 37 231.5 L 37 229.5 Q 34.167 221.333 35 209.5 Q 36.28 197.28 42 189.5 L 40 189.5 L 55.5 171 Z " /><path fill="rgb(220,219,254)" stroke="rgb(220,219,254)" stroke-width="1" opacity="0.996078431372549" d="M 482.5 414 L 481.5 416 L 474.5 421 L 476.5 418 L 482.5 414 Z " /><path fill="rgb(220,219,254)" stroke="rgb(220,219,254)" stroke-width="1" opacity="0.996078431372549" d="M 472.5 421 L 471.5 423 L 469.5 424 L 470.5 422 L 472.5 421 Z " /><path fill="rgb(220,219,254)" stroke="rgb(220,219,254)" stroke-width="1" opacity="0.996078431372549" d="M 465.5 425 L 464.5 427 L 459.5 429 L 459.5 428 L 465.5 425 Z " /></svg>