<svg width="512" height="512" version="1.1" xmlns="http://www.w3.org/2000/svg" desc="Created with imagetracer.js version 1.2.6" ><path fill="rgb(214,243,253)" stroke="rgb(214,243,253)" stroke-width="1" opacity="0.9882352941176471" d="M 337.5 15 Q 366.728 12.772 377 29.5 Q 383.625 37.875 386.5 50 Q 400.956 53.544 408 64.5 L 409.5 67 Q 417.875 62.875 432.5 65 Q 447.093 68.407 455 78.5 Q 465.492 88.508 464 110.5 L 462 116.5 L 462.5 118 Q 446.505 107.995 423.5 105 L 356 105 Q 353.916 132.658 335.5 145 Q 323.448 156.948 296.5 154 Q 277.443 149.557 267 136.5 Q 256.47 124.03 255 102.5 Q 257.144 78.644 271.5 67 Q 283.089 54.648 305 54 Q 307.001 32.205 321.5 22 Q 327.948 16.948 337.5 15 Z " /><path fill="rgb(214,243,253)" stroke="rgb(214,243,253)" stroke-width="1" opacity="0.9882352941176471" d="M 65.5 397 Q 86.367 396.133 95.5 407 Q 107.5 396 131.5 397 Q 154.047 400.453 165 415.5 L 167.5 419 Q 173.983 413.483 185.5 413 Q 204.71 414.79 213 427.5 Q 221.5 435.5 219 454.5 Q 215.734 467.234 206.5 474 Q 198.19 481.69 181.5 481 L 167.5 476 L 159.5 485 Q 146.612 499.612 116.5 497 Q 95.63 492.37 85 477.5 L 77.5 463 Q 74.5 467 64.5 464 Q 49.354 460.646 42 449.5 Q 34.941 441.059 37 423.5 Q 40.75 411.25 49.5 404 Q 55.948 398.948 65.5 397 Z " /><path fill="rgb(254,156,216)" stroke="rgb(254,156,216)" stroke-width="1" opacity="0.996078431372549" d="M 383.5 105 Q 460.126 99.374 490 140.5 Q 506.947 159.553 512 190.5 L 512 351.5 Q 504.401 394.401 475.5 416 Q 443.786 444.286 377.5 438 L 377.5 437 Q 422.847 432.347 445 404.5 Q 464.81 383.81 470 348.5 L 470 193.5 Q 463.917 153.583 439.5 132 Q 418.182 110.768 383.5 105 Z " /><path fill="rgb(254,156,216)" stroke="rgb(254,156,216)" stroke-width="1" opacity="0.996078431372549" d="M 168.5 186 L 343.5 186 Q 380.274 192.726 399 217.5 Q 416.804 237.196 418 273.5 Q 413.178 318.178 384.5 339 Q 368.617 351.617 344.5 356 L 167.5 356 Q 130.709 348.791 112 323.5 Q 94.744 304.256 94 268.5 Q 98.635 224.635 126.5 204 Q 142.679 190.179 168.5 186 Z M 145 236 L 136 240 Q 129 244 127 254 Q 127 263 131 268 Q 142 276 158 280 L 161 285 L 160 288 L 154 292 L 147 292 Q 139 290 135 284 L 129 284 L 124 290 L 125 295 Q 132 303 144 306 Q 160 308 168 301 Q 173 296 175 289 Q 176 279 172 275 Q 162 262 144 259 Q 141 258 142 254 L 148 250 Q 159 250 165 256 Q 171 256 173 252 L 172 245 Q 164 235 145 236 Z M 216 236 Q 206 238 200 243 Q 189 251 186 267 Q 185 284 193 293 Q 200 303 215 306 Q 236 308 245 298 Q 255 290 257 273 Q 256 256 248 248 Q 239 235 216 236 Z M 291 236 L 289 237 L 284 244 L 264 297 Q 263 305 268 306 L 276 305 L 280 295 L 282 293 L 305 293 L 309 304 L 313 306 Q 321 308 322 303 Q 323 295 320 291 L 301 241 Q 299 235 291 236 Z M 347 236 L 345 237 L 342 241 L 342 303 L 346 306 L 354 305 L 356 302 L 356 282 Q 372 284 381 276 Q 386 271 388 262 Q 389 250 383 245 Q 373 232 347 236 Z " /><path fill="rgb(254,156,216)" stroke="rgb(254,156,216)" stroke-width="1" opacity="0.996078431372549" d="M 217.5 250 Q 233.893 249.107 239 259.5 Q 243.5 265 242 276.5 Q 239.083 284.583 232.5 289 Q 227.7 293.2 217.5 292 Q 209.167 290.333 205 284.5 Q 199.975 279.525 200 269.5 Q 201.55 260.05 207.5 255 L 217.5 250 Z " /><path fill="rgb(254,156,216)" stroke="rgb(254,156,216)" stroke-width="1" opacity="0.996078431372549" d="M 356 250 Q 369.248 247.479 373 255.5 Q 374.75 265.25 368.5 267 L 357.5 268 L 356 266.5 L 356 250 Z " /><path fill="rgb(254,156,216)" stroke="rgb(254,156,216)" stroke-width="1" opacity="0.996078431372549" d="M 292 262 Q 295 260.75 294 264.5 L 299 278 L 287.5 278 L 287 276.5 L 292 262 Z " /><path fill="rgb(254,174,225)" stroke="rgb(254,174,225)" stroke-width="1" opacity="1" d="M 91.5 104 L 255.5 104 Q 256.875 104.375 256 111.5 Q 259.871 132.129 273.5 143 Q 286.466 156.534 315.5 154 Q 335.865 149.365 346 134.5 Q 355.167 123.5 356 105 Q 417.444 102.78 444 136.5 Q 464.548 157.452 470 193.5 L 470 348.5 Q 463.577 390.077 437.5 412 Q 415.3 433.3 376.5 438 L 218.5 438 Q 214.078 425.922 204.5 419 Q 197.262 413.238 184.5 413 Q 173.735 413.735 167.5 419 L 157.5 408 Q 145.377 395.623 119.5 397 Q 104.375 399.375 94.5 407 Q 85.747 396.253 65.5 397 Q 52.266 399.766 45 408.5 L 39.5 417 L 36.5 416 L 21 400.5 Q 4.937 381.563 0 351.5 L 0 191.5 Q 7.536 149.036 35.5 127 Q 56.208 108.208 91.5 104 Z M 169 186 Q 143 190 127 204 Q 99 225 94 269 Q 95 304 112 324 Q 131 349 168 356 L 345 356 Q 369 352 385 339 Q 413 318 418 274 Q 417 237 399 218 Q 380 193 344 186 L 169 186 Z " /><path fill="rgb(254,174,225)" stroke="rgb(254,174,225)" stroke-width="1" opacity="1" d="M 144.5 236 Q 163.875 234.625 172 244.5 L 173 251.5 Q 170.917 255.917 164.5 256 Q 158.831 250.169 147.5 250 L 142 253.5 Q 141 258 143.5 259 Q 162.363 262.137 172 274.5 Q 176.05 278.95 175 288.5 Q 172.75 296.25 167.5 301 Q 160.333 308.333 143.5 306 Q 131.504 302.996 125 294.5 L 124 289.5 L 128.5 284 L 134.5 284 Q 138.833 289.667 146.5 292 L 153.5 292 L 160 287.5 L 161 284.5 L 157.5 280 Q 142.069 275.931 131 267.5 Q 126.525 262.975 127 253.5 Q 128.75 244.25 135.5 240 L 144.5 236 Z " /><path fill="rgb(254,174,225)" stroke="rgb(254,174,225)" stroke-width="1" opacity="1" d="M 215.5 236 Q 238.742 234.758 248 247.5 Q 256.496 256.004 257 272.5 Q 255.25 289.75 244.5 298 Q 235.5 308 214.5 306 Q 200.136 302.864 193 292.5 Q 185.1 283.9 186 266.5 Q 188.882 250.882 199.5 243 Q 205.948 237.948 215.5 236 Z M 218 250 L 208 255 Q 202 260 200 270 Q 200 280 205 285 Q 209 290 218 292 Q 228 293 233 289 Q 239 285 242 277 Q 244 265 239 260 Q 234 249 218 250 Z " /><path fill="rgb(254,174,225)" stroke="rgb(254,174,225)" stroke-width="1" opacity="1" d="M 290.5 236 Q 299.125 234.875 301 240.5 L 320 290.5 Q 322.75 294.75 322 302.5 Q 320.5 307.5 312.5 306 L 309 303.5 L 304.5 293 L 281.5 293 L 280 294.5 L 275.5 305 L 267.5 306 Q 262.5 304.5 264 296.5 L 284 243.5 L 288.5 237 L 290.5 236 Z M 292 262 L 287 277 L 288 278 L 299 278 L 294 265 Q 295 261 292 262 Z " /><path fill="rgb(254,174,225)" stroke="rgb(254,174,225)" stroke-width="1" opacity="1" d="M 346.5 236 Q 373.443 231.557 383 244.5 Q 388.5 250 388 261.5 Q 386.45 270.95 380.5 276 Q 372.418 283.624 356 282 L 356 301.5 L 353.5 305 L 345.5 306 L 342 302.5 L 342 240.5 L 344.5 237 L 346.5 236 Z M 356 250 L 356 267 L 358 268 L 369 267 Q 375 265 373 256 Q 369 247 356 250 Z " /><path fill="rgb(0,0,0)" stroke="rgb(0,0,0)" stroke-width="1" opacity="0" d="M 0 0 L 512 0 L 512 189.5 L 511 189.5 Q 503.835 147.165 475.5 126 L 462 116.5 Q 465.5 110 464 98.5 Q 460.974 82.526 450.5 74 Q 440 62.5 415.5 65 L 409.5 67 L 398.5 55 L 385 48.5 Q 382.023 30.477 369.5 22 Q 359.435 12.565 337.5 15 Q 321.26 18.76 313 30.5 Q 305.486 39.27 305 54 Q 280.313 55.5 268 70.5 Q 256.221 82.461 255 104 L 91.5 104 Q 89.75 106.75 83.5 105 Q 43.152 113.152 22 140.5 Q 5.206 159.206 0.5 190 L 0 0 Z " /><path fill="rgb(0,0,0)" stroke="rgb(0,0,0)" stroke-width="1" opacity="0" d="M 0.5 352 Q 7.664 394.836 36.5 416 L 39 417.5 Q 35.25 424.75 37 437.5 Q 40.25 451.25 50.5 458 Q 58.7 465.8 76.5 464 L 78 463.5 Q 83.25 479.25 95.5 488 Q 107.8 499.7 134.5 497 Q 153.673 493.173 164 480.5 L 167.5 476 Q 175.31 481.69 189.5 481 Q 205.118 478.118 213 467.5 Q 221.368 458.868 219 439.5 L 218.5 438 L 422.5 438 Q 468.25 430.75 491 400.5 Q 507.048 382.048 511.5 352 L 512 512 L 0.5 512 L 0 511.5 L 0.5 352 Z " /></svg>