<svg width="512" height="512" version="1.1" xmlns="http://www.w3.org/2000/svg" desc="Created with imagetracer.js version 1.2.6" ><path fill="rgb(1,1,1)" stroke="rgb(1,1,1)" stroke-width="1" opacity="0.9882352941176471" d="M 436.5 0 Q 478.186 -2.686 496 18.5 Q 514.221 36.779 512 75.5 Q 498.719 152.219 450.5 194 Q 427.473 217.973 377.5 215 Q 367.729 209.271 351.5 210 Q 333.515 215.015 325 229.5 L 268.5 289 Q 259.75 290.75 258 285.5 Q 256.5 273.5 264 270.5 L 241.5 248 L 239.5 248 L 53.5 426 Q 32.301 431.801 20 446.5 Q 13.611 454.111 15 469.5 Q 18.104 483.896 28.5 491 Q 36.5 498 52.5 497 Q 67.861 493.861 75 482.5 Q 79.323 468.323 87 457.5 L 237.5 300 L 241.5 299 L 248 303.5 L 249 308.5 L 241 318.5 L 99 466.5 Q 92.379 487.379 78.5 501 Q 66.553 513.053 41.5 512 Q 19.75 507.75 9 492.5 Q -1.186 481.186 0 458.5 Q 3.397 438.397 16.5 428 Q 29.028 418.528 45.5 413 L 297 172.5 Q 302.5 166 302 153.5 Q 294.292 136.208 297 108.5 Q 304.83 68.83 331.5 48 Q 370.778 10.778 436.5 0 Z M 438 15 Q 377 25 341 60 Q 319 77 312 110 Q 310 136 317 153 Q 318 172 309 182 L 289 201 L 274 216 L 297 238 L 312 222 Q 324 201 351 195 L 360 195 Q 372 200 389 201 Q 423 200 442 182 Q 484 143 497 75 Q 499 43 485 29 Q 471 12 438 15 Z M 263 226 L 252 238 L 276 260 L 286 249 L 263 226 Z " /><path fill="rgb(199,196,200)" stroke="rgb(199,196,200)" stroke-width="1" opacity="0.996078431372549" d="M 441.5 15 Q 450.464 14.036 456 16.5 Q 384.832 30.332 346 76.5 Q 326.697 97.197 328 138.5 Q 334.4 151.6 333 172.5 Q 329.375 185.875 319.5 193 L 285 225.5 L 296.5 237 L 305 229.5 L 296.5 238 L 275 216.5 Q 274.5 210.5 279.5 210 L 307 184.5 Q 318.762 174.262 317 150.5 Q 309.917 135.583 312 111.5 Q 319.102 74.102 345.5 56 Q 381.401 23.401 441.5 15 Z " /><path fill="rgb(199,196,200)" stroke="rgb(199,196,200)" stroke-width="1" opacity="0.996078431372549" d="M 479.5 24 L 480.5 26 L 479.5 24 Z " /><path fill="rgb(199,196,200)" stroke="rgb(199,196,200)" stroke-width="1" opacity="0.996078431372549" d="M 486.5 31 L 487.5 33 L 486.5 31 Z " /><path fill="rgb(199,196,200)" stroke="rgb(199,196,200)" stroke-width="1" opacity="0.996078431372549" d="M 496.5 60 L 497 71.5 L 496 71.5 L 496.5 60 Z " /><path fill="rgb(199,196,200)" stroke="rgb(199,196,200)" stroke-width="1" opacity="0.996078431372549" d="M 462.5 157 L 461.5 159 L 462.5 157 Z " /><path fill="rgb(199,196,200)" stroke="rgb(199,196,200)" stroke-width="1" opacity="0.996078431372549" d="M 459.5 161 L 458.5 163 L 459.5 161 Z " /><path fill="rgb(199,196,200)" stroke="rgb(199,196,200)" stroke-width="1" opacity="0.996078431372549" d="M 455.5 166 L 454.5 168 L 455.5 166 Z " /><path fill="rgb(199,196,200)" stroke="rgb(199,196,200)" stroke-width="1" opacity="0.996078431372549" d="M 447.5 175 L 444.5 179 L 447.5 175 Z " /><path fill="rgb(199,196,200)" stroke="rgb(199,196,200)" stroke-width="1" opacity="0.996078431372549" d="M 329.5 203 L 327.5 206 L 329.5 203 Z " /><path fill="rgb(199,196,200)" stroke="rgb(199,196,200)" stroke-width="1" opacity="0.996078431372549" d="M 325.5 207 L 316.5 217 L 325.5 207 Z " /><path fill="rgb(199,196,200)" stroke="rgb(199,196,200)" stroke-width="1" opacity="0.996078431372549" d="M 262.5 227 L 286 248.5 L 275.5 260 L 252 237.5 L 255.5 233 L 262.5 227 Z " /><path fill="rgb(0,0,0)" stroke="rgb(0,0,0)" stroke-width="1" opacity="0" d="M 0 0 L 436 0.5 Q 359.358 13.358 318 61.5 Q 294.027 84.527 297 134.5 Q 302.729 144.271 302 160.5 Q 296.985 178.485 282.5 187 L 45.5 413 Q 24.621 419.621 11 433.5 Q 2.208 442.208 0.5 458 L 0 0 Z " /><path fill="rgb(0,0,0)" stroke="rgb(0,0,0)" stroke-width="1" opacity="0" d="M 456.5 0 L 512 0 L 512 55.5 L 511 55.5 Q 508.847 29.153 493.5 16 Q 479.376 2.585 456.5 0 Z " /><path fill="rgb(0,0,0)" stroke="rgb(0,0,0)" stroke-width="1" opacity="0" d="M 511.5 76 L 512 512 L 54 511.5 Q 73.192 508.692 83 496.5 Q 93.333 483.833 99 466.5 L 241 318.5 Q 248.15 315.15 249 305.5 L 247 301.5 L 260.5 288 L 261.5 289 L 268.5 289 L 283 274.5 L 339.5 215 Q 346 209.5 358.5 210 Q 375.396 217.604 402.5 215 Q 443.035 207.535 464 180.5 Q 501.183 141.683 511.5 76 Z " /><path fill="rgb(0,0,0)" stroke="rgb(0,0,0)" stroke-width="1" opacity="0" d="M 0.5 471 Q 4.37 492.63 19.5 503 Q 27.84 509.66 41 511.5 L 0 512 L 0.5 471 Z " /><path fill="rgb(217,215,218)" stroke="rgb(217,215,218)" stroke-width="1" opacity="0.996078431372549" d="M 456.5 16 Q 476.161 18.339 486 30.5 Q 499.731 45.769 496 78.5 Q 482.51 145.51 439.5 183 Q 420.782 201.282 382.5 200 Q 368.6 193.4 346.5 195 Q 326.57 201.07 316 216.5 L 296.5 237 L 285 225.5 L 296.5 214 L 326 186.5 Q 335.333 178.333 333 158.5 Q 326.3 144.2 328 121.5 Q 334.224 79.724 362.5 60 Q 398.453 26.953 456.5 16 Z " /><path fill="rgb(227,184,130)" stroke="rgb(227,184,130)" stroke-width="1" opacity="0.996078431372549" d="M 437.5 15 L 441 15.5 L 437.5 16 L 437.5 15 Z " /><path fill="rgb(227,184,130)" stroke="rgb(227,184,130)" stroke-width="1" opacity="0.996078431372549" d="M 451.5 15 L 455 15.5 L 451.5 16 L 451.5 15 Z " /><path fill="rgb(227,184,130)" stroke="rgb(227,184,130)" stroke-width="1" opacity="0.996078431372549" d="M 483.5 27 L 484.5 29 L 483.5 27 Z " /><path fill="rgb(227,184,130)" stroke="rgb(227,184,130)" stroke-width="1" opacity="0.996078431372549" d="M 347.5 54 L 346.5 56 L 347.5 54 Z " /><path fill="rgb(227,184,130)" stroke="rgb(227,184,130)" stroke-width="1" opacity="0.996078431372549" d="M 496.5 57 L 497 59.5 L 496 59.5 L 496.5 57 Z " /><path fill="rgb(227,184,130)" stroke="rgb(227,184,130)" stroke-width="1" opacity="0.996078431372549" d="M 340.5 60 L 330.5 71 L 340.5 60 Z " /><path fill="rgb(227,184,130)" stroke="rgb(227,184,130)" stroke-width="1" opacity="0.996078431372549" d="M 496.5 72 L 497 74.5 L 496 74.5 L 496.5 72 Z " /><path fill="rgb(227,184,130)" stroke="rgb(227,184,130)" stroke-width="1" opacity="0.996078431372549" d="M 316.5 162 L 317 164.5 L 316 164.5 L 316.5 162 Z " /><path fill="rgb(227,184,130)" stroke="rgb(227,184,130)" stroke-width="1" opacity="0.996078431372549" d="M 457.5 164 L 456.5 166 L 457.5 164 Z " /><path fill="rgb(227,184,130)" stroke="rgb(227,184,130)" stroke-width="1" opacity="0.996078431372549" d="M 451.5 171 L 448.5 175 L 451.5 171 Z " /><path fill="rgb(227,184,130)" stroke="rgb(227,184,130)" stroke-width="1" opacity="0.996078431372549" d="M 443.5 179 L 441.5 182 L 443.5 179 Z " /><path fill="rgb(227,184,130)" stroke="rgb(227,184,130)" stroke-width="1" opacity="0.996078431372549" d="M 306.5 184 L 303.5 188 L 306.5 184 Z " /><path fill="rgb(227,184,130)" stroke="rgb(227,184,130)" stroke-width="1" opacity="0.996078431372549" d="M 437.5 184 L 436.5 186 L 437.5 184 Z " /><path fill="rgb(227,184,130)" stroke="rgb(227,184,130)" stroke-width="1" opacity="0.996078431372549" d="M 288.5 201 L 280.5 210 L 288.5 201 Z " /><path fill="rgb(227,184,130)" stroke="rgb(227,184,130)" stroke-width="1" opacity="0.996078431372549" d="M 311.5 222 L 305.5 229 L 311.5 222 Z " /><path fill="rgb(227,184,130)" stroke="rgb(227,184,130)" stroke-width="1" opacity="0.996078431372549" d="M 262.5 226 L 273 235.5 L 263.5 227 L 256.5 233 L 262.5 226 Z " /><path fill="rgb(227,184,130)" stroke="rgb(227,184,130)" stroke-width="1" opacity="0.996078431372549" d="M 239.5 248 L 241.5 248 L 264 270.5 L 250 258.5 Q 250.75 260.75 248.5 260 L 68.5 433 Q 57.536 443.536 40.5 448 L 30 457.5 Q 22 466.5 22 483.5 L 28.5 491 Q 14.166 482.834 15 459.5 Q 17.861 444.861 28.5 438 L 53.5 426 L 239.5 248 Z " /><path fill="rgb(227,184,130)" stroke="rgb(227,184,130)" stroke-width="1" opacity="0.996078431372549" d="M 285.5 249 L 282.5 253 L 285.5 249 Z " /><path fill="rgb(227,184,130)" stroke="rgb(227,184,130)" stroke-width="1" opacity="0.996078431372549" d="M 263.5 272 L 258.5 278 L 263.5 272 Z " /><path fill="rgb(227,184,130)" stroke="rgb(227,184,130)" stroke-width="1" opacity="0.996078431372549" d="M 257.5 279 L 258 284.5 L 257 284.5 L 257.5 279 Z " /><path fill="rgb(227,184,130)" stroke="rgb(227,184,130)" stroke-width="1" opacity="0.996078431372549" d="M 258.5 286 L 259.5 288 L 258.5 286 Z " /><path fill="rgb(227,184,130)" stroke="rgb(227,184,130)" stroke-width="1" opacity="0.996078431372549" d="M 238.5 299 L 241 299.5 L 238.5 300 L 238.5 299 Z " /><path fill="rgb(227,184,130)" stroke="rgb(227,184,130)" stroke-width="1" opacity="0.996078431372549" d="M 236.5 300 L 232.5 305 L 236.5 300 Z " /><path fill="rgb(227,184,130)" stroke="rgb(227,184,130)" stroke-width="1" opacity="0.996078431372549" d="M 245.5 300 L 246.5 302 L 245.5 300 Z " /><path fill="rgb(227,184,130)" stroke="rgb(227,184,130)" stroke-width="1" opacity="0.996078431372549" d="M 226.5 311 L 211.5 327 L 226.5 311 Z " /><path fill="rgb(227,184,130)" stroke="rgb(227,184,130)" stroke-width="1" opacity="0.996078431372549" d="M 205.5 333 L 190.5 349 L 205.5 333 Z " /><path fill="rgb(227,184,130)" stroke="rgb(227,184,130)" stroke-width="1" opacity="0.996078431372549" d="M 184.5 355 L 169.5 371 L 184.5 355 Z " /><path fill="rgb(227,184,130)" stroke="rgb(227,184,130)" stroke-width="1" opacity="0.996078431372549" d="M 163.5 377 L 148.5 393 L 163.5 377 Z " /><path fill="rgb(227,184,130)" stroke="rgb(227,184,130)" stroke-width="1" opacity="0.996078431372549" d="M 142.5 399 L 127.5 415 L 142.5 399 Z " /><path fill="rgb(227,184,130)" stroke="rgb(227,184,130)" stroke-width="1" opacity="0.996078431372549" d="M 121.5 421 L 106.5 437 L 121.5 421 Z " /><path fill="rgb(227,184,130)" stroke="rgb(227,184,130)" stroke-width="1" opacity="0.996078431372549" d="M 100.5 443 L 87.5 457 L 100.5 443 Z " /><path fill="rgb(227,184,130)" stroke="rgb(227,184,130)" stroke-width="1" opacity="0.996078431372549" d="M 86.5 458 L 84.5 461 L 86.5 458 Z " /><path fill="rgb(227,184,130)" stroke="rgb(227,184,130)" stroke-width="1" opacity="0.996078431372549" d="M 82.5 464 L 82 465.5 L 81.5 467 L 81 465.5 L 82.5 464 Z " /><path fill="rgb(227,184,130)" stroke="rgb(227,184,130)" stroke-width="1" opacity="0.996078431372549" d="M 74.5 482 L 72.5 485 L 74.5 482 Z " /><path fill="rgb(227,184,130)" stroke="rgb(227,184,130)" stroke-width="1" opacity="0.996078431372549" d="M 66.5 490 L 65.5 492 L 66.5 490 Z " /><path fill="rgb(227,184,130)" stroke="rgb(227,184,130)" stroke-width="1" opacity="0.996078431372549" d="M 30.5 491 L 31.5 493 L 30.5 491 Z " /><path fill="rgb(227,184,130)" stroke="rgb(227,184,130)" stroke-width="1" opacity="0.996078431372549" d="M 42.5 496 L 46 496.5 L 42.5 497 L 42.5 496 Z " /><path fill="rgb(227,184,130)" stroke="rgb(227,184,130)" stroke-width="1" opacity="0.996078431372549" d="M 48.5 496 L 53 496.5 L 48.5 497 L 48.5 496 Z " /><path fill="rgb(245,208,144)" stroke="rgb(245,208,144)" stroke-width="1" opacity="0.996078431372549" d="M 250.5 258 L 264 271.5 L 258 277.5 L 257 284.5 L 260 288.5 L 255 292 L 247.5 301 Q 244.833 298.167 238.5 299 L 232 304.5 L 87 456.5 Q 78.645 466.645 75 481.5 L 67.5 490 Q 60 496.5 46.5 497 Q 29.447 495.053 22 483.5 Q 22.223 460.223 36.5 451 Q 55.349 444.849 68.5 433 L 248.5 260 L 250 260 L 250.5 258 Z " /></svg>