<svg width="512" height="512" version="1.1" xmlns="http://www.w3.org/2000/svg" desc="Created with imagetracer.js version 1.2.6" ><path fill="rgb(5,157,196)" stroke="rgb(5,157,196)" stroke-width="1" opacity="0.996078431372549" d="M 76.5 63 L 92 63.5 Q 82.889 78.289 84 101 L 123.5 101 Q 125.125 100.375 124 91.5 Q 122.667 74.833 116 63.5 L 131.5 63 L 138 68.5 L 151 93.5 L 152 101 L 124.5 101 Q 123.375 101.125 124 106.5 L 108 154.5 L 104.5 159 L 101 156.5 L 84 106.5 L 84 101 L 56.5 101 Q 55.5 101 56 96.5 L 70 68.5 L 74.5 64 L 76.5 63 Z " /><path fill="rgb(5,157,196)" stroke="rgb(5,157,196)" stroke-width="1" opacity="0.996078431372549" d="M 406.5 106 L 410 106.5 L 406.5 107 L 406.5 106 Z " /><path fill="rgb(5,157,196)" stroke="rgb(5,157,196)" stroke-width="1" opacity="0.996078431372549" d="M 391.5 246 L 425 246.5 L 391.5 247 L 391.5 246 Z " /><path fill="rgb(5,157,196)" stroke="rgb(5,157,196)" stroke-width="1" opacity="0.996078431372549" d="M 384.5 270 L 450.5 271 L 455 274.5 L 456 276.5 L 456 304.5 L 451.5 310 L 448.5 311 L 367.5 311 L 361 306.5 L 360 304.5 L 360 276.5 L 363.5 272 Q 370 268 383.5 271 L 384.5 270 Z M 381 283 L 376 289 L 377 295 L 383 299 L 388 298 L 392 293 L 391 287 Q 389 281 381 283 Z M 429 283 L 424 289 L 425 295 L 431 299 L 436 298 L 440 293 L 439 287 Q 437 281 429 283 Z " /><path fill="rgb(247,177,1)" stroke="rgb(247,177,1)" stroke-width="1" opacity="0.9725490196078431" d="M 97.5 34 Q 138.68 33.82 157 56.5 Q 179.444 74.556 176 118.5 Q 172.276 138.776 161 151.5 Q 171 153.5 169 167.5 Q 166.85 173.35 157.5 172 L 148.5 164 Q 131.077 181.077 94.5 179 Q 63.823 173.677 48 153.5 Q 29.018 134.982 32 94.5 Q 37.447 67.947 54.5 53 Q 69.906 37.406 97.5 34 Z M 93 62 L 92 63 L 76 63 L 72 65 L 56 96 Q 55 104 58 108 L 94 153 L 102 159 L 109 158 L 152 104 L 151 93 L 136 65 L 133 63 L 93 62 Z " /><path fill="rgb(247,177,1)" stroke="rgb(247,177,1)" stroke-width="1" opacity="0.9725490196078431" d="M 401.5 34 Q 443.632 33.868 462 57.5 Q 479.065 74.435 481 106.5 Q 478.476 144.476 455.5 162 Q 437.799 180.799 399.5 179 Q 376.821 175.679 362.5 164 Q 361 173.5 348.5 172 L 343 167.5 Q 341 153.5 351 151.5 Q 332.7 133.8 336 94.5 Q 341.447 67.947 358.5 53 Q 373.906 37.406 401.5 34 Z M 405 59 L 365 83 L 360 89 Q 359 95 362 97 L 367 99 Q 374 99 376 96 L 376 142 L 378 145 L 383 147 L 434 147 L 438 145 L 440 142 L 440 96 L 447 99 L 454 97 L 456 93 L 455 87 L 452 83 L 412 59 L 405 59 Z " /><path fill="rgb(247,177,1)" stroke="rgb(247,177,1)" stroke-width="1" opacity="0.9725490196078431" d="M 97.5 210 Q 131.425 209.575 149.5 225 Q 152.25 217.25 162.5 217 L 168 220.5 L 169 229.5 L 161 237.5 L 162 238.5 Q 178.608 256.892 176 294.5 Q 170.25 322.75 151.5 338 Q 133.52 357.02 94.5 355 Q 63.823 349.677 48 329.5 Q 32.516 312.984 31 282.5 Q 33.308 246.308 54.5 229 Q 69.906 213.406 97.5 210 Z M 70 251 L 68 252 L 64 257 Q 62 269 66 273 Q 70 276 80 276 L 67 313 L 68 319 L 74 323 L 135 323 L 137 322 L 141 317 L 141 313 L 128 276 Q 138 276 142 273 L 144 270 Q 146 259 143 255 L 139 251 Q 115 246 110 259 Q 93 262 90 251 L 70 251 Z " /><path fill="rgb(247,177,1)" stroke="rgb(247,177,1)" stroke-width="1" opacity="0.9725490196078431" d="M 401.5 210 Q 442.68 209.82 461 232.5 Q 483.444 250.556 480 294.5 Q 474.25 322.75 455.5 338 Q 437.52 357.02 398.5 355 Q 367.823 349.677 352 329.5 Q 333.018 310.982 336 270.5 Q 339.869 250.369 351 237.5 Q 341.25 235.75 343 222.5 L 346.5 218 L 352.5 217 Q 359.75 218.75 362.5 225 L 364.5 225 Q 378.205 212.705 401.5 210 Z M 387 231 L 377 236 Q 370 241 368 251 L 368 271 L 365 271 L 360 277 L 360 306 L 362 309 L 368 311 Q 366 321 370 325 L 375 327 L 382 325 L 384 322 Q 383 312 385 311 L 432 311 Q 430 321 434 325 L 439 327 L 446 325 Q 450 321 448 311 L 454 309 L 456 306 L 456 277 L 455 275 Q 454 270 448 271 Q 451 250 443 240 Q 438 233 430 231 L 387 231 Z " /><path fill="rgb(237,200,163)" stroke="rgb(237,200,163)" stroke-width="1" opacity="0.996078431372549" d="M 92.5 62 L 116 62.5 L 92.5 63 L 92.5 62 Z " /><path fill="rgb(237,200,163)" stroke="rgb(237,200,163)" stroke-width="1" opacity="0.996078431372549" d="M 277.5 69 Q 285.094 67.906 287 72.5 L 288 74.5 L 288 103.5 Q 284.896 117.896 274.5 125 Q 266.344 132.344 248.5 130 Q 236.344 126.656 230 117.5 Q 221.45 107.55 224 86.5 L 227.5 82 L 277.5 69 Z M 240 99 Q 239 105 243 109 Q 247 114 255 115 Q 263 115 267 111 L 272 103 L 272 99 L 240 99 Z " /><path fill="rgb(237,200,163)" stroke="rgb(237,200,163)" stroke-width="1" opacity="0.996078431372549" d="M 401.5 103 L 403.5 106 L 401.5 103 Z " /><path fill="rgb(237,200,163)" stroke="rgb(237,200,163)" stroke-width="1" opacity="0.996078431372549" d="M 414.5 103 L 412.5 106 L 414.5 103 Z " /><path fill="rgb(237,200,163)" stroke="rgb(237,200,163)" stroke-width="1" opacity="0.996078431372549" d="M 399.5 114 L 417 114.5 L 399.5 115 L 399.5 114 Z " /><path fill="rgb(237,200,163)" stroke="rgb(237,200,163)" stroke-width="1" opacity="0.996078431372549" d="M 382.5 146 L 392 146.5 L 382.5 147 L 382.5 146 Z " /><path fill="rgb(237,200,163)" stroke="rgb(237,200,163)" stroke-width="1" opacity="0.996078431372549" d="M 424.5 146 L 434 146.5 L 424.5 147 L 424.5 146 Z " /><path fill="rgb(237,200,163)" stroke="rgb(237,200,163)" stroke-width="1" opacity="0.996078431372549" d="M 192 195 L 207.5 195 L 208 195.5 L 208 302.5 Q 206.25 308.75 196.5 307 L 192 302.5 L 192 195 Z " /><path fill="rgb(237,200,163)" stroke="rgb(237,200,163)" stroke-width="1" opacity="0.996078431372549" d="M 304 195 L 319.5 195 L 320 195.5 L 320 302.5 Q 318.25 308.75 308.5 307 L 304 302.5 L 304 195 Z " /><path fill="rgb(237,200,163)" stroke="rgb(237,200,163)" stroke-width="1" opacity="0.996078431372549" d="M 92.5 269 L 95 269.5 L 92.5 270 L 92.5 269 Z " /><path fill="rgb(237,200,163)" stroke="rgb(237,200,163)" stroke-width="1" opacity="0.996078431372549" d="M 97.5 269 L 100 269.5 L 97.5 270 L 97.5 269 Z " /><path fill="rgb(237,200,163)" stroke="rgb(237,200,163)" stroke-width="1" opacity="0.996078431372549" d="M 108.5 269 L 111 269.5 L 108.5 270 L 108.5 269 Z " /><path fill="rgb(237,200,163)" stroke="rgb(237,200,163)" stroke-width="1" opacity="0.996078431372549" d="M 113.5 269 L 116 269.5 L 113.5 270 L 113.5 269 Z " /><path fill="rgb(237,200,163)" stroke="rgb(237,200,163)" stroke-width="1" opacity="0.996078431372549" d="M 84.5 277 L 85 279.5 L 84 279.5 L 84.5 277 Z " /><path fill="rgb(237,200,163)" stroke="rgb(237,200,163)" stroke-width="1" opacity="0.996078431372549" d="M 123.5 277 L 124 279.5 L 123 279.5 L 123.5 277 Z " /><path fill="rgb(237,200,163)" stroke="rgb(237,200,163)" stroke-width="1" opacity="0.996078431372549" d="M 89.5 302 L 90.5 304 L 89.5 302 Z " /><path fill="rgb(237,200,163)" stroke="rgb(237,200,163)" stroke-width="1" opacity="0.996078431372549" d="M 118.5 302 L 117.5 304 L 118.5 302 Z " /><path fill="rgb(237,200,163)" stroke="rgb(237,200,163)" stroke-width="1" opacity="0.996078431372549" d="M 224 387 L 239.5 387 L 240 387.5 L 240 467 L 224.5 467 L 224 466.5 L 224 387 Z " /><path fill="rgb(237,200,163)" stroke="rgb(237,200,163)" stroke-width="1" opacity="0.996078431372549" d="M 272 387 L 287.5 387 L 288 387.5 L 288 467 L 272.5 467 L 272 466.5 L 272 387 Z " /><path fill="rgb(177,41,92)" stroke="rgb(177,41,92)" stroke-width="1" opacity="0.6039215686274509" d="M 243.5 131 L 247 131.5 L 243.5 132 L 243.5 131 Z " /><path fill="rgb(177,41,92)" stroke="rgb(177,41,92)" stroke-width="1" opacity="0.6039215686274509" d="M 265.5 131 L 269 131.5 L 265.5 132 L 265.5 131 Z " /><path fill="rgb(177,41,92)" stroke="rgb(177,41,92)" stroke-width="1" opacity="0.6039215686274509" d="M 270.5 132 L 273 132.5 L 270.5 133 L 270.5 132 Z " /><path fill="rgb(177,41,92)" stroke="rgb(177,41,92)" stroke-width="1" opacity="0.6039215686274509" d="M 235.5 133 L 238 133.5 Q 225.441 136.441 217.5 144 L 219.5 141 L 235.5 133 Z " /><path fill="rgb(177,41,92)" stroke="rgb(177,41,92)" stroke-width="1" opacity="0.6039215686274509" d="M 274.5 133 L 279 134.5 L 277.5 135 Q 273.75 134.75 274.5 133 Z " /><path fill="rgb(177,41,92)" stroke="rgb(177,41,92)" stroke-width="1" opacity="0.6039215686274509" d="M 280.5 135 Q 289.387 137.613 295 143.5 L 292.5 142 L 280.5 136 L 280.5 135 Z " /><path fill="rgb(177,41,92)" stroke="rgb(177,41,92)" stroke-width="1" opacity="0.6039215686274509" d="M 215.5 144 L 206 154.5 L 201.5 161 L 202 159.5 Q 206.938 149.937 215.5 144 Z " /><path fill="rgb(177,41,92)" stroke="rgb(177,41,92)" stroke-width="1" opacity="0.6039215686274509" d="M 296.5 144 Q 310.849 154.651 317 173.5 L 316 173.5 Q 309.456 154.651 296.5 144 Z " /><path fill="rgb(177,41,92)" stroke="rgb(177,41,92)" stroke-width="1" opacity="0.6039215686274509" d="M 200.5 162 L 200 163.5 L 196.5 171 L 196 169.5 L 200.5 162 Z " /><path fill="rgb(177,41,92)" stroke="rgb(177,41,92)" stroke-width="1" opacity="0.6039215686274509" d="M 194.5 175 L 195 177.5 L 193.5 182 L 193 178.5 L 194.5 175 Z " /><path fill="rgb(177,41,92)" stroke="rgb(177,41,92)" stroke-width="1" opacity="0.6039215686274509" d="M 317.5 175 L 319 181.5 L 318 181.5 L 317.5 175 Z " /><path fill="rgb(177,41,92)" stroke="rgb(177,41,92)" stroke-width="1" opacity="0.6039215686274509" d="M 192.5 183 L 193 187.5 L 192 187.5 L 192.5 183 Z " /><path fill="rgb(177,41,92)" stroke="rgb(177,41,92)" stroke-width="1" opacity="0.6039215686274509" d="M 319.5 183 L 320 187.5 L 319 187.5 L 319.5 183 Z " /><path fill="rgb(177,41,92)" stroke="rgb(177,41,92)" stroke-width="1" opacity="0.6039215686274509" d="M 192.5 194 L 208 194.5 L 192.5 195 L 192.5 194 Z " /><path fill="rgb(177,41,92)" stroke="rgb(177,41,92)" stroke-width="1" opacity="0.6039215686274509" d="M 304.5 194 L 320 194.5 L 304.5 195 L 304.5 194 Z " /><path fill="rgb(177,41,92)" stroke="rgb(177,41,92)" stroke-width="1" opacity="0.6039215686274509" d="M 208.5 258 L 304 258.5 L 208.5 259 L 208.5 258 Z " /><path fill="rgb(177,41,92)" stroke="rgb(177,41,92)" stroke-width="1" opacity="0.6039215686274509" d="M 214.5 466 L 224 466.5 L 214.5 467 L 214.5 466 Z " /><path fill="rgb(177,41,92)" stroke="rgb(177,41,92)" stroke-width="1" opacity="0.6039215686274509" d="M 288.5 466 L 298 466.5 L 288.5 467 L 288.5 466 Z " /><path fill="rgb(177,41,92)" stroke="rgb(177,41,92)" stroke-width="1" opacity="0.6039215686274509" d="M 211.5 467 L 213 467.5 L 209.5 470 L 211.5 467 Z " /><path fill="rgb(177,41,92)" stroke="rgb(177,41,92)" stroke-width="1" opacity="0.6039215686274509" d="M 299.5 467 L 303 469.5 L 300.5 468 L 299.5 467 Z " /><path fill="rgb(177,41,92)" stroke="rgb(177,41,92)" stroke-width="1" opacity="0.6039215686274509" d="M 208.5 477 L 212.5 482 L 235.5 482 L 239 478.5 L 239.5 477 L 240 478.5 L 235.5 483 L 212.5 483 Q 206.375 481.375 208.5 477 Z " /><path fill="rgb(177,41,92)" stroke="rgb(177,41,92)" stroke-width="1" opacity="0.6039215686274509" d="M 272.5 477 L 276.5 482 L 299.5 482 L 303 478.5 L 303.5 477 L 304 478.5 L 299.5 483 L 276.5 483 Q 270.375 481.375 272.5 477 Z " /><path fill="rgb(200,10,80)" stroke="rgb(200,10,80)" stroke-width="1" opacity="0.996078431372549" d="M 240 99 L 271.5 99 L 272 102.5 L 266.5 111 Q 262.5 115 254.5 115 Q 246.95 113.55 243 108.5 Q 239.333 105.104 240 99 Z " /><path fill="rgb(200,10,80)" stroke="rgb(200,10,80)" stroke-width="1" opacity="0.996078431372549" d="M 254.5 130 Q 290.025 132.475 306 154.5 Q 319.059 168.778 320 194 L 304.5 194 L 304 194.5 L 304 258 L 208 258 L 208 194.5 L 207.5 194 L 192 194 L 192 188.5 Q 196.67 158.67 216.5 144 Q 230.955 132.455 254.5 130 Z " /><path fill="rgb(200,10,80)" stroke="rgb(200,10,80)" stroke-width="1" opacity="0.996078431372549" d="M 69.5 251 L 89.5 251 Q 92.912 261.588 109.5 259 Q 115.294 246.294 138.5 251 L 143 254.5 Q 146.167 259.333 144 269.5 L 142 273 Q 137.611 276.254 128 275.5 L 141 312.5 L 141 316.5 L 136.5 322 L 134.5 323 L 73.5 323 L 68 318.5 L 67 312.5 L 80 275.5 Q 70.389 276.254 66 273 Q 61.833 268.708 64 256.5 L 67.5 252 L 69.5 251 Z M 93 269 L 87 272 L 84 278 Q 83 287 87 290 L 94 293 L 89 299 Q 88 303 91 304 L 95 304 L 104 295 L 114 304 Q 118 305 119 303 Q 120 294 114 294 L 121 290 L 124 285 Q 125 275 121 272 L 116 269 Q 107 268 105 272 Q 101 268 93 269 Z " /><path fill="rgb(200,10,80)" stroke="rgb(200,10,80)" stroke-width="1" opacity="0.996078431372549" d="M 94.5 277 Q 99.25 276.25 100 279.5 Q 102.75 287.75 94.5 285 Q 91.25 284.25 92 279.5 L 94.5 277 Z " /><path fill="rgb(200,10,80)" stroke="rgb(200,10,80)" stroke-width="1" opacity="0.996078431372549" d="M 110.5 277 Q 115.25 276.25 116 279.5 Q 116.75 284.25 113.5 285 Q 105.25 287.75 108 279.5 L 110.5 277 Z " /><path fill="rgb(200,10,80)" stroke="rgb(200,10,80)" stroke-width="1" opacity="0.996078431372549" d="M 213.5 467 L 240 467 L 240 476.5 L 235.5 482 L 212.5 482 L 209 478.5 L 208 472.5 L 211.5 468 L 213.5 467 Z " /><path fill="rgb(200,10,80)" stroke="rgb(200,10,80)" stroke-width="1" opacity="0.996078431372549" d="M 272 467 L 298.5 467 L 303 470.5 L 304 476.5 L 299.5 482 L 276.5 482 L 273 478.5 Q 270.333 474.592 272 467 Z " /><path fill="rgb(240,240,239)" stroke="rgb(240,240,239)" stroke-width="1" opacity="0.996078431372549" d="M 92.5 63 L 115.5 63 L 117 64.5 Q 124.9 79.572 124 101 L 84.5 101 Q 83 100.5 84 92.5 L 90 66.5 L 92.5 63 Z " /><path fill="rgb(240,240,239)" stroke="rgb(240,240,239)" stroke-width="1" opacity="0.996078431372549" d="M 406.5 77 L 411.5 78 L 440 95 L 440 139.5 L 436.5 145 Q 432.265 147.833 424 146 L 424 119.5 L 419.5 115 Q 412.125 111.875 399.5 114 L 392 119.5 L 392 146 L 381.5 146 L 377 142.5 L 376 139.5 L 376 95 L 406.5 77 Z M 408 90 L 400 96 L 401 104 L 406 107 L 413 106 Q 417 104 416 96 Q 414 91 408 90 Z " /><path fill="rgb(240,240,239)" stroke="rgb(240,240,239)" stroke-width="1" opacity="0.996078431372549" d="M 389.5 247 L 426.5 247 L 430 249.5 Q 434.833 256.255 432 270 L 384 270 L 384 253.5 L 387.5 248 L 389.5 247 Z " /><path fill="rgb(240,240,239)" stroke="rgb(240,240,239)" stroke-width="1" opacity="0.996078431372549" d="M 95.5 269 L 104.5 272 L 112.5 269 Q 119.125 269.875 122 274.5 L 124 282.5 Q 122.75 288.25 118.5 291 L 114 292 Q 118 294.875 119 301.5 Q 118.5 304.5 114.5 304 L 103.5 295 Q 100.65 302.65 91.5 304 Q 88.5 303.5 89 299.5 L 94 292 Q 88.375 291.917 86 287.5 L 84 280.5 Q 84.875 273.875 89.5 271 L 95.5 269 Z M 95 277 Q 91 279 92 284 L 95 285 Q 103 288 100 280 Q 99 276 95 277 Z M 111 277 L 108 280 Q 105 288 114 285 Q 117 284 116 280 Q 115 276 111 277 Z " /><path fill="rgb(240,240,239)" stroke="rgb(240,240,239)" stroke-width="1" opacity="0.996078431372549" d="M 381.5 283 Q 389.094 281.906 391 286.5 L 392 292.5 L 387.5 298 L 383.5 299 L 377 294.5 L 376 288.5 L 379.5 284 L 381.5 283 Z " /><path fill="rgb(240,240,239)" stroke="rgb(240,240,239)" stroke-width="1" opacity="0.996078431372549" d="M 429.5 283 Q 437.094 281.906 439 286.5 L 440 292.5 L 435.5 298 L 431.5 299 L 425 294.5 L 424 288.5 L 427.5 284 L 429.5 283 Z " /><path fill="rgb(0,0,0)" stroke="rgb(0,0,0)" stroke-width="1" opacity="0" d="M 0 0 L 512 0 L 512 512 L 0 512 L 0 0 Z M 98 34 Q 70 37 55 53 Q 37 68 32 95 Q 29 135 48 154 Q 64 174 95 179 Q 131 181 149 164 L 158 172 Q 167 173 169 168 Q 171 154 161 152 Q 172 139 176 119 Q 179 75 157 57 Q 139 34 98 34 Z M 252 34 Q 236 36 227 44 Q 214 53 209 70 L 208 74 L 208 114 Q 199 112 195 116 L 192 120 L 193 128 L 198 131 L 243 132 Q 226 134 216 144 Q 197 157 192 184 L 192 303 L 197 307 Q 206 309 208 303 L 208 382 L 209 384 L 214 387 Q 223 386 224 388 L 224 466 L 212 467 L 208 472 Q 206 481 213 483 L 236 483 L 240 479 L 240 387 L 272 387 L 272 479 L 277 483 L 300 483 L 304 479 L 303 470 L 298 466 Q 289 467 288 466 L 288 387 Q 296 389 301 386 L 304 382 L 304 304 L 309 307 Q 318 309 320 303 L 320 184 Q 317 166 307 155 Q 294 137 269 132 L 315 131 L 317 130 L 320 126 L 319 118 Q 315 112 304 114 L 304 75 Q 302 62 295 54 Q 283 34 252 34 Z M 402 34 Q 374 37 359 53 Q 341 68 336 95 Q 333 134 351 152 Q 341 153 343 168 L 349 172 Q 361 174 363 164 Q 377 176 400 179 Q 438 181 456 162 Q 478 144 481 107 Q 479 74 462 58 Q 444 34 402 34 Z M 98 210 Q 70 213 55 229 Q 33 246 31 283 Q 33 313 48 330 Q 64 350 95 355 Q 134 357 152 338 Q 170 323 176 295 Q 179 257 162 239 L 161 238 L 169 230 L 168 221 L 163 217 Q 152 217 150 225 Q 131 210 98 210 Z M 402 210 Q 378 213 365 225 L 363 225 Q 360 219 353 217 L 347 218 L 343 223 Q 341 236 351 238 Q 340 250 336 271 Q 333 311 352 330 Q 368 350 399 355 Q 438 357 456 338 Q 474 323 480 295 Q 483 251 461 233 Q 443 210 402 210 Z " /><path fill="rgb(10,79,119)" stroke="rgb(10,79,119)" stroke-width="1" opacity="0.9921568627450981" d="M 251.5 34 Q 282.7 34.3 295 53.5 Q 301.75 61.75 304 74.5 L 304 114 Q 314.719 112.056 319 117.5 L 320 125.5 L 316.5 130 L 314.5 131 L 258.5 131 L 258.5 130 Q 275.425 128.925 282 117.5 Q 292.35 103.35 288 74.5 L 284.5 70 L 277.5 69 L 229.5 81 L 225 84.5 Q 221.167 90.667 224 103.5 Q 227.104 117.896 237.5 125 Q 243.589 129.911 254 130.5 L 197.5 131 L 193 127.5 L 192 119.5 L 194.5 116 Q 198.983 112.333 208 114 L 208 73.5 L 209 69.5 Q 214.167 53.167 226.5 44 Q 235.83 35.83 251.5 34 Z " /><path fill="rgb(10,79,119)" stroke="rgb(10,79,119)" stroke-width="1" opacity="0.9921568627450981" d="M 405.5 59 Q 413.333 58.167 416.5 62 L 451.5 83 L 455 86.5 L 456 92.5 L 451.5 98 L 447.5 99 L 407.5 76 L 375.5 96 Q 373 99.5 366.5 99 L 361 94.5 L 360 88.5 L 364.5 83 L 405.5 59 Z " /><path fill="rgb(10,79,119)" stroke="rgb(10,79,119)" stroke-width="1" opacity="0.9921568627450981" d="M 405.5 91 Q 413.094 89.906 415 94.5 L 416 100.5 L 411.5 106 Q 402.75 107.75 401 102.5 L 400 97.5 L 403.5 92 L 405.5 91 Z " /><path fill="rgb(10,79,119)" stroke="rgb(10,79,119)" stroke-width="1" opacity="0.9921568627450981" d="M 56 101 L 83.5 101 Q 84.625 101.125 84 106.5 L 100 154.5 L 103 158.5 L 101.5 158 Q 95.5 158.5 95 153.5 L 58 107.5 L 56 101 Z " /><path fill="rgb(10,79,119)" stroke="rgb(10,79,119)" stroke-width="1" opacity="0.9921568627450981" d="M 124 101 L 151.5 101 L 152 102.5 L 150 107.5 L 108.5 158 L 105.5 159 L 107 156.5 L 124 106.5 L 124 101 Z " /><path fill="rgb(10,79,119)" stroke="rgb(10,79,119)" stroke-width="1" opacity="0.9921568627450981" d="M 397.5 115 L 418.5 115 L 423 118.5 Q 427.25 129.288 424 147 L 392 147 L 392 121.5 L 395.5 116 L 397.5 115 Z " /><path fill="rgb(10,79,119)" stroke="rgb(10,79,119)" stroke-width="1" opacity="0.9921568627450981" d="M 386.5 231 L 429.5 231 Q 437.992 233.508 443 239.5 Q 451.281 249.909 448 271 L 432 271 L 432 251.5 L 424.5 246 L 391.5 246 L 384 251.5 L 384 271 L 368 271 Q 364.12 245.893 376.5 236 L 386.5 231 Z " /><path fill="rgb(10,79,119)" stroke="rgb(10,79,119)" stroke-width="1" opacity="0.9921568627450981" d="M 208 259 L 304 259 L 304 381.5 L 300.5 386 L 298.5 387 L 213.5 387 L 209 383.5 L 208 381.5 L 208 259 Z " /><path fill="rgb(10,79,119)" stroke="rgb(10,79,119)" stroke-width="1" opacity="0.9921568627450981" d="M 368 311 L 384 311 L 384 320.5 L 379.5 326 L 374.5 327 L 369 322.5 Q 366.333 318.592 368 311 Z " /><path fill="rgb(10,79,119)" stroke="rgb(10,79,119)" stroke-width="1" opacity="0.9921568627450981" d="M 432 311 L 448 311 L 448 320.5 L 443.5 326 L 438.5 327 L 433 322.5 Q 430.333 318.592 432 311 Z " /></svg>