<svg width="512" height="512" version="1.1" xmlns="http://www.w3.org/2000/svg" desc="Created with imagetracer.js version 1.2.6" ><path fill="rgb(0,0,0)" stroke="rgb(0,0,0)" stroke-width="1" opacity="0" d="M 0 0 L 202 0.5 L 195 6.5 L 193 12.5 L 193 61 L 195 61.5 L 195 111 L 131.5 111 Q 117.858 113.858 111 123.5 L 106 135.5 L 106 466.5 Q 108.75 477.75 116.5 484 Q 118.44 487.643 123 487 Q 121.002 503.764 130.5 510 L 134 511.5 L 0 512 L 0 0 Z " /><path fill="rgb(0,0,0)" stroke="rgb(0,0,0)" stroke-width="1" opacity="0" d="M 310.5 0 L 512 0 L 512 512 L 377 511.5 Q 383.375 510.375 386 505.5 Q 390.5 498.75 389 487 Q 395.346 485.946 399 480.5 Q 404.286 474.786 406 465.5 L 406 135.5 Q 402.996 123.504 394.5 117 Q 389.405 112.095 380.5 111 L 317 111 L 317 61.5 L 319 59.5 L 319 12.5 Q 317.625 4.375 311.5 1 L 310.5 0 Z " /><path fill="rgb(0,0,0)" stroke="rgb(0,0,0)" stroke-width="1" opacity="0" d="M 214 31 L 298 31 L 298 60.5 L 299 61.5 L 299 111 L 213 111 L 213 61.5 L 214 60.5 L 214 31 Z " /><path fill="rgb(0,0,0)" stroke="rgb(0,0,0)" stroke-width="1" opacity="0" d="M 155 491 L 356.5 491 Q 358.125 491.625 357 500.5 L 362.5 509 L 368 511.5 L 144.5 512 L 144.5 511 Q 150.95 511.45 152 506.5 Q 156.667 501.442 155 491 Z " /><path fill="rgb(208,64,64)" stroke="rgb(208,64,64)" stroke-width="1" opacity="0.996078431372549" d="M 117.5 117 L 116.5 119 L 117.5 117 Z " /><path fill="rgb(208,64,64)" stroke="rgb(208,64,64)" stroke-width="1" opacity="0.996078431372549" d="M 112.5 122 L 111.5 124 L 112.5 122 Z " /><path fill="rgb(208,64,64)" stroke="rgb(208,64,64)" stroke-width="1" opacity="0.996078431372549" d="M 161.5 125 L 160.5 127 L 161.5 125 Z " /><path fill="rgb(208,64,64)" stroke="rgb(208,64,64)" stroke-width="1" opacity="0.996078431372549" d="M 350.5 125 L 351.5 127 L 350.5 125 Z " /><path fill="rgb(208,64,64)" stroke="rgb(208,64,64)" stroke-width="1" opacity="0.996078431372549" d="M 353.5 128 L 355.5 131 L 353.5 128 Z " /><path fill="rgb(208,64,64)" stroke="rgb(208,64,64)" stroke-width="1" opacity="0.996078431372549" d="M 157.5 129 L 156.5 131 L 157.5 129 Z " /><path fill="rgb(208,64,64)" stroke="rgb(208,64,64)" stroke-width="1" opacity="0.996078431372549" d="M 382.5 148 L 383 151.5 L 382 151.5 L 382.5 148 Z " /><path fill="rgb(208,64,64)" stroke="rgb(208,64,64)" stroke-width="1" opacity="0.996078431372549" d="M 129.5 149 L 130 151.5 L 129 151.5 L 129.5 149 Z " /><path fill="rgb(208,64,64)" stroke="rgb(208,64,64)" stroke-width="1" opacity="0.996078431372549" d="M 125.5 161 L 124.5 163 L 125.5 161 Z " /><path fill="rgb(208,64,64)" stroke="rgb(208,64,64)" stroke-width="1" opacity="0.996078431372549" d="M 121.5 165 L 120.5 167 L 121.5 165 Z " /><path fill="rgb(208,64,64)" stroke="rgb(208,64,64)" stroke-width="1" opacity="0.996078431372549" d="M 221.5 178 Q 231.15 176.85 234 182.5 L 236 187.5 L 236 413.5 L 233 421 Q 230.03 423.738 223.5 424 L 216 419.5 L 214 414.5 L 214 187.5 Q 215.25 181.75 219.5 179 L 221.5 178 Z " /><path fill="rgb(208,64,64)" stroke="rgb(208,64,64)" stroke-width="1" opacity="0.996078431372549" d="M 283.5 178 Q 293.575 176.425 296 182.5 L 298 187.5 L 298 395.5 L 297 396.5 L 297 415.5 L 293.5 421 Q 290.9 424.4 283.5 423 L 279 419.5 Q 276.4 419.633 277 415.5 L 276 414.5 L 276 187.5 Q 277.25 181.75 281.5 179 L 283.5 178 Z " /><path fill="rgb(208,64,64)" stroke="rgb(208,64,64)" stroke-width="1" opacity="0.996078431372549" d="M 160.5 200 Q 169.523 198.977 172 204.5 L 174 210.5 L 174 391.5 Q 173.15 398.65 167.5 401 L 161.5 402 L 155 399 L 152 392.5 L 152 209.5 L 156.5 202 L 160.5 200 Z " /><path fill="rgb(208,64,64)" stroke="rgb(208,64,64)" stroke-width="1" opacity="0.996078431372549" d="M 346.5 200 Q 355.523 198.977 358 204.5 L 360 209.5 L 360 285.5 L 359 286.5 L 359 393.5 L 355.5 399 Q 352.833 401.833 346.5 401 L 341 397.5 L 339 394.5 L 339 335.5 L 338 334.5 L 338 209.5 L 342.5 202 L 346.5 200 Z " /><path fill="rgb(208,64,64)" stroke="rgb(208,64,64)" stroke-width="1" opacity="0.996078431372549" d="M 106.5 430 L 110 430.5 L 106.5 431 L 106.5 430 Z " /><path fill="rgb(208,64,64)" stroke="rgb(208,64,64)" stroke-width="1" opacity="0.996078431372549" d="M 129.5 450 L 130 452.5 L 129 452.5 L 129.5 450 Z " /><path fill="rgb(208,64,64)" stroke="rgb(208,64,64)" stroke-width="1" opacity="0.996078431372549" d="M 114.5 481 L 116.5 484 L 114.5 481 Z " /><path fill="rgb(65,68,72)" stroke="rgb(65,68,72)" stroke-width="1" opacity="0.984313725490196" d="M 202.5 0 L 309.5 0 L 317 6.5 L 319 12.5 L 319 59.5 L 316.5 61 L 315.5 60 L 300.5 60 L 298 61 L 298 31 L 214 31 L 214 60.5 L 212.5 61 L 211.5 60 L 195.5 60 L 193 61 L 193 12.5 Q 194.375 4.375 200.5 1 L 202.5 0 Z " /><path fill="rgb(65,68,72)" stroke="rgb(65,68,72)" stroke-width="1" opacity="0.984313725490196" d="M 131.5 111 L 165.5 111 Q 166.5 111 166 115.5 Q 164.111 124.111 158.5 129 Q 148.917 137.083 131 136 Q 132.205 155.503 122.5 165 Q 116.948 171.273 106 171 L 106 137.5 Q 107.914 125.414 115.5 119 Q 121.5 113 131.5 111 Z " /><path fill="rgb(65,68,72)" stroke="rgb(65,68,72)" stroke-width="1" opacity="0.984313725490196" d="M 346 111 Q 368.289 108.167 384.5 112 Q 393.75 114.75 399 121.5 L 406 135.5 L 406 171 Q 394.586 171.086 389 165 Q 380.104 155.503 381 136 Q 361.497 136.896 352 128 Q 345.914 122.414 346 111 Z " /><path fill="rgb(65,68,72)" stroke="rgb(65,68,72)" stroke-width="1" opacity="0.984313725490196" d="M 106 431 Q 119.767 430.346 125 439.5 Q 131.48 447.52 130 463.5 L 133.5 467 Q 155.271 464.229 162 476.5 Q 166 481.75 166 490 Q 149.958 484.273 155 500.5 L 149.5 509 Q 145 513.5 134.5 512 L 126 505.5 Q 121.5 498.75 123 487 Q 116.071 484.893 112 478.5 L 106 464.5 L 106 431 Z " /><path fill="rgb(65,68,72)" stroke="rgb(65,68,72)" stroke-width="1" opacity="0.984313725490196" d="M 399.5 431 Q 405.75 430.25 406 431.5 L 406 464.5 Q 403.139 479.139 392.5 486 L 389 487 Q 390.998 503.764 381.5 510 Q 377.143 513.143 368.5 512 L 360 506.5 Q 355.563 500.438 355.5 490 Q 344.1 494.375 346 486.5 Q 348.116 477.116 354.5 472 Q 361.969 464.969 378.5 467 L 382 463.5 Q 380.177 442.677 391.5 435 L 399.5 431 Z " /><path fill="rgb(226,77,77)" stroke="rgb(226,77,77)" stroke-width="1" opacity="0.996078431372549" d="M 383.5 155 L 389 165 Q 394.586 171.086 406 171 L 406 430.5 Q 405.75 431.75 399.5 431 Q 391.5 433.5 387 439.5 Q 380.833 445.833 383 460.5 L 378.5 467 Q 358.25 464.75 351 475.5 Q 345.975 480.78 346 490 L 356 490.5 L 155.5 491 L 155.5 490 Q 167.5 493.5 166 486.5 L 164 480 Q 235.439 464.213 277.5 418 L 279 421 Q 281.97 423.738 288.5 424 Q 294.625 422.625 297 417.5 Q 299.417 408.417 298 395.5 Q 321.263 369.263 337.5 336 L 338 390.5 Q 338.875 397.125 343.5 400 L 352.5 401 L 358 396.5 L 360 390.5 L 360 283.5 Q 381.337 228.837 383.5 155 Z " /><path fill="rgb(226,77,77)" stroke="rgb(226,77,77)" stroke-width="1" opacity="0.996078431372549" d="M 112.5 479 L 113.5 481 L 112.5 479 Z " /><path fill="rgb(226,77,77)" stroke="rgb(226,77,77)" stroke-width="1" opacity="0.996078431372549" d="M 396.5 482 L 395.5 484 L 396.5 482 Z " /><path fill="rgb(226,75,75)" stroke="rgb(226,75,75)" stroke-width="1" opacity="1" d="M 166 111 L 212.5 112 L 213.5 111 L 298.5 111 L 299.5 112 L 316.5 112 L 317.5 111 L 346 111 Q 345.862 125.353 355.5 131 Q 363.143 136.857 378.5 135 L 382 138.5 L 383 167.5 Q 379.446 232.946 360.5 283 L 360 209.5 L 355.5 202 Q 352.833 199.167 346.5 200 L 340 204.5 L 338 209.5 L 338 334.5 L 339 335.5 L 339 390.5 L 338 390.5 L 337.5 336 Q 321.417 368.917 298.5 395 L 298 187.5 Q 296.75 181.75 292.5 179 L 283.5 178 L 278 182.5 L 276 187.5 L 276 414.5 L 277 418.5 Q 235.453 463.953 164.5 480 L 155.5 470 Q 148.6 464.9 134.5 467 L 130 463.5 Q 132.376 441.124 119.5 434 Q 114.25 430 106 430 L 106 172.5 L 107.5 171 Q 120.979 170.479 126 161.5 Q 131.857 153.857 130 138.5 L 133.5 135 Q 154.769 137.269 162 125.5 Q 167.167 120.738 166 111 Z M 222 178 L 220 179 Q 215 182 214 188 L 214 415 L 216 420 L 224 424 Q 230 424 233 421 L 236 414 L 236 188 L 234 183 Q 231 177 222 178 Z M 161 200 L 157 202 L 152 210 L 152 393 L 155 399 L 162 402 L 168 401 Q 173 399 174 392 L 174 211 L 172 205 Q 170 199 161 200 Z " /><path fill="rgb(226,75,75)" stroke="rgb(226,75,75)" stroke-width="1" opacity="1" d="M 359.5 286 L 360 390.5 L 359 390.5 L 359.5 286 Z " /><path fill="rgb(226,75,75)" stroke="rgb(226,75,75)" stroke-width="1" opacity="1" d="M 297.5 396 L 298 412.5 L 297 412.5 L 297.5 396 Z " /><path fill="rgb(226,75,75)" stroke="rgb(226,75,75)" stroke-width="1" opacity="1" d="M 296.5 416 L 297 417.5 L 295 418.5 L 296.5 416 Z " /><path fill="rgb(226,75,75)" stroke="rgb(226,75,75)" stroke-width="1" opacity="1" d="M 292.5 421 L 291.5 423 L 292.5 421 Z " /><path fill="rgb(226,75,75)" stroke="rgb(226,75,75)" stroke-width="1" opacity="1" d="M 286.5 423 L 289 423.5 L 286.5 424 L 286.5 423 Z " /><path fill="rgb(207,187,194)" stroke="rgb(207,187,194)" stroke-width="1" opacity="0.8156862745098039" d="M 195 60 L 211.5 60 L 213 61.5 L 213 110.5 L 211.5 112 L 195.5 112 L 195 111.5 L 195 60 Z " /><path fill="rgb(207,187,194)" stroke="rgb(207,187,194)" stroke-width="1" opacity="0.8156862745098039" d="M 300.5 60 Q 313.25 56.25 317 61.5 L 317 111.5 L 316.5 112 L 300.5 112 L 299 110.5 L 299 61.5 L 300.5 60 Z " /></svg>