<svg width="512" height="512" version="1.1" xmlns="http://www.w3.org/2000/svg" desc="Created with imagetracer.js version 1.2.6" ><path fill="rgb(253,241,239)" stroke="rgb(253,241,239)" stroke-width="1" opacity="1" d="M 242.5 146 Q 264.101 143.899 271 156.5 L 272 158.5 L 262.5 163 Q 258.855 155.645 247.5 156 Q 238.977 157.477 235 163.5 Q 231.229 168.229 231 176.5 Q 232.079 187.421 239.5 192 Q 243.833 195.167 251.5 195 Q 259.625 193.625 263 187.5 L 263.5 184 L 272 189.5 L 263.5 199 Q 257.192 204.692 243.5 203 Q 233.779 200.721 228 194.5 Q 219 187 221 168.5 Q 223.75 157.25 231.5 151 L 242.5 146 Z " /><path fill="rgb(253,241,239)" stroke="rgb(253,241,239)" stroke-width="1" opacity="1" d="M 156 148 L 198.5 148 Q 200.125 148.681 199 157 L 183.5 157 L 182 158.5 L 182 203.5 Q 181.2 205.25 172 204 L 172 157.5 L 171.5 157 L 156 157 L 156 148 Z " /><path fill="rgb(253,241,239)" stroke="rgb(253,241,239)" stroke-width="1" opacity="1" d="M 204 148 Q 213.2 146.75 214 148.5 L 214 204 Q 204.8 205.25 204 203.5 L 204 148 Z " /><path fill="rgb(253,241,239)" stroke="rgb(253,241,239)" stroke-width="1" opacity="1" d="M 275 148 L 286 148 L 286 170.5 L 287 170.5 L 306.5 148 L 319 148.5 L 297 173.5 L 297 175.5 L 320 204 Q 306.229 207 303 198.5 L 289.5 182 L 286 184.5 L 286 204 L 275 204 L 275 148 Z " /><path fill="rgb(253,241,239)" stroke="rgb(253,241,239)" stroke-width="1" opacity="1" d="M 324 148 L 361.5 148 Q 363.125 148.681 362 157 L 334 157 L 334 170 L 360.5 170 L 362 171.5 Q 363.75 178.25 360.5 180 L 334 180 L 334 195 L 361.5 195 Q 363.125 195.681 362 204 L 324 204 L 324 148 Z " /><path fill="rgb(253,241,239)" stroke="rgb(253,241,239)" stroke-width="1" opacity="1" d="M 366 148 L 409.5 148 Q 411.125 148.681 410 157 L 393.5 157 L 392 158.5 L 392 203.5 Q 391.319 205.125 383 204 L 383 157.5 L 382.5 157 L 366 157 L 366 148 Z " /><path fill="rgb(253,241,239)" stroke="rgb(253,241,239)" stroke-width="1" opacity="1" d="M 146 301 Q 154.611 298.75 157 303.5 L 168 330.5 L 159.5 334 L 146 304.5 L 146 301 Z " /><path fill="rgb(253,241,239)" stroke="rgb(253,241,239)" stroke-width="1" opacity="1" d="M 179 301 Q 190.015 298.25 190 302.5 L 197 319 L 188.5 323 Q 181.702 313.7 179 301 Z " /><path fill="rgb(253,241,239)" stroke="rgb(253,241,239)" stroke-width="1" opacity="1" d="M 201.5 301 L 235.5 301 L 236 303 Q 228.25 308.5 213.5 308 Q 203.69 306.643 201.5 301 Z " /><path fill="rgb(0,0,0)" stroke="rgb(0,0,0)" stroke-width="1" opacity="0" d="M 0 0 L 511.5 0 L 512 0.5 L 512 78 Q 496.579 77.325 490 66.5 Q 484.063 60.771 485 50 L 81.5 50 L 80 51.5 Q 80.075 64.731 73 70 Q 66.102 77.207 53 78 L 53 88.5 L 55.5 89 L 67 98.5 Q 72.143 104.357 71 116.5 Q 68.143 128.143 59.5 134 L 53 137 L 53 152.5 L 55.5 153 L 67 162.5 Q 72.143 168.357 71 180.5 Q 68.357 192.357 59.5 198 L 53 200 Q 56.25 210.692 51.5 214 L 15 229 Q 17.727 235.091 17 245.5 Q 14.357 257.357 5.5 263 L 0 265 L 0 0 Z " /><path fill="rgb(0,0,0)" stroke="rgb(0,0,0)" stroke-width="1" opacity="0" d="M 510.5 90 L 512 90.5 L 512 137 Q 503.094 136.073 499 128.5 Q 494.167 122.833 494 112.5 Q 495.434 99.934 503.5 94 L 510.5 90 Z " /><path fill="rgb(0,0,0)" stroke="rgb(0,0,0)" stroke-width="1" opacity="0" d="M 510.5 152 L 512 152.5 L 512 199 Q 503.5 197.25 499 190.5 Q 494.167 184.833 494 174.5 Q 495.433 160.933 504.5 155 L 510.5 152 Z " /><path fill="rgb(0,0,0)" stroke="rgb(0,0,0)" stroke-width="1" opacity="0" d="M 509.5 215 L 512 215.5 L 512 262 Q 503.83 260.107 499 253.5 Q 494.167 247.833 494 237.5 Q 495.433 223.933 504.5 218 L 509.5 215 Z " /><path fill="rgb(0,0,0)" stroke="rgb(0,0,0)" stroke-width="1" opacity="0" d="M 0.5 269 L 4.5 276 Q 18.962 276.038 25 284.5 Q 32.671 291.329 31 307.5 L 23 322.5 L 28 334 Q 43.67 332.984 50 342.5 Q 56.152 349.348 56 362.5 Q 54.133 372.633 48 378.5 L 48 381.5 L 53.5 391 Q 70.461 392.039 77 403.5 Q 81.5 410 80 422.5 Q 77.655 431.655 72 437.5 L 76 447 L 87.5 444 Q 101.5 445 108 453.5 Q 112.6 456.233 112 462 L 485 303 Q 485.007 285.857 496.5 279 Q 502.5 274.167 512 274 L 512 512 L 0 512 L 0.5 269 Z " /><path fill="rgb(253,111,87)" stroke="rgb(253,111,87)" stroke-width="1" opacity="0.9921568627450981" d="M 82.5 50 L 484.5 50 Q 485.5 50 485 54.5 L 484 54.5 L 483.5 51 L 82.5 51 L 82.5 50 Z " /><path fill="rgb(253,111,87)" stroke="rgb(253,111,87)" stroke-width="1" opacity="0.9921568627450981" d="M 484.5 56 Q 487.125 55.167 486 58.5 L 485 58.5 L 484.5 56 Z " /><path fill="rgb(253,111,87)" stroke="rgb(253,111,87)" stroke-width="1" opacity="0.9921568627450981" d="M 78.5 61 L 79 62.5 L 77 63.5 L 78.5 61 Z " /><path fill="rgb(253,111,87)" stroke="rgb(253,111,87)" stroke-width="1" opacity="0.9921568627450981" d="M 487.5 63 L 489 65.5 L 488 65.5 L 487.5 63 Z " /><path fill="rgb(253,111,87)" stroke="rgb(253,111,87)" stroke-width="1" opacity="0.9921568627450981" d="M 492.5 69 L 494.5 72 L 492 71 L 492.5 69 Z " /><path fill="rgb(253,111,87)" stroke="rgb(253,111,87)" stroke-width="1" opacity="0.9921568627450981" d="M 71.5 70 L 73 70.5 L 68.5 74 L 71.5 70 Z " /><path fill="rgb(253,111,87)" stroke="rgb(253,111,87)" stroke-width="1" opacity="0.9921568627450981" d="M 496.5 73 L 501 75.5 L 499.5 75 Q 495.75 74.75 496.5 73 Z " /><path fill="rgb(253,111,87)" stroke="rgb(253,111,87)" stroke-width="1" opacity="0.9921568627450981" d="M 502.5 76 L 505 77.5 L 503.5 77 L 502.5 76 Z " /><path fill="rgb(253,111,87)" stroke="rgb(253,111,87)" stroke-width="1" opacity="0.9921568627450981" d="M 56.5 89 L 60 91.5 L 57.5 90 L 56.5 89 Z " /><path fill="rgb(253,111,87)" stroke="rgb(253,111,87)" stroke-width="1" opacity="0.9921568627450981" d="M 509.5 89 L 512 89.5 L 507.5 92 L 509.5 89 Z " /><path fill="rgb(253,111,87)" stroke="rgb(253,111,87)" stroke-width="1" opacity="0.9921568627450981" d="M 65.5 96 L 68 99.5 L 67 99.5 L 65.5 96 Z " /><path fill="rgb(253,111,87)" stroke="rgb(253,111,87)" stroke-width="1" opacity="0.9921568627450981" d="M 496.5 102 L 497 103.5 L 495.5 106 L 495 104.5 L 496.5 102 Z " /><path fill="rgb(253,111,87)" stroke="rgb(253,111,87)" stroke-width="1" opacity="0.9921568627450981" d="M 494.5 115 L 495 118.5 L 494 118.5 L 494.5 115 Z " /><path fill="rgb(253,111,87)" stroke="rgb(253,111,87)" stroke-width="1" opacity="0.9921568627450981" d="M 494.5 120 L 495.5 122 L 494.5 120 Z " /><path fill="rgb(253,111,87)" stroke="rgb(253,111,87)" stroke-width="1" opacity="0.9921568627450981" d="M 67.5 125 L 67 126.5 L 66 130 L 62.5 132 L 66 127.5 L 67.5 125 Z " /><path fill="rgb(253,111,87)" stroke="rgb(253,111,87)" stroke-width="1" opacity="0.9921568627450981" d="M 497.5 126 L 498.5 128 L 497.5 126 Z " /><path fill="rgb(253,111,87)" stroke="rgb(253,111,87)" stroke-width="1" opacity="0.9921568627450981" d="M 499.5 130 L 502 131.5 L 500.5 131 L 499.5 130 Z " /><path fill="rgb(253,111,87)" stroke="rgb(253,111,87)" stroke-width="1" opacity="0.9921568627450981" d="M 58.5 134 L 60 134.5 L 57.5 136 L 58.5 134 Z " /><path fill="rgb(253,111,87)" stroke="rgb(253,111,87)" stroke-width="1" opacity="0.9921568627450981" d="M 510.5 151 L 512 151.5 L 507.5 153 L 507.5 152 L 510.5 151 Z " /><path fill="rgb(253,111,87)" stroke="rgb(253,111,87)" stroke-width="1" opacity="0.9921568627450981" d="M 56.5 153 L 60 155.5 L 57.5 154 L 56.5 153 Z " /><path fill="rgb(253,111,87)" stroke="rgb(253,111,87)" stroke-width="1" opacity="0.9921568627450981" d="M 501.5 157 L 500.5 159 L 501.5 157 Z " /><path fill="rgb(253,111,87)" stroke="rgb(253,111,87)" stroke-width="1" opacity="0.9921568627450981" d="M 65.5 160 L 68 163.5 L 67 163.5 L 65.5 160 Z " /><path fill="rgb(253,111,87)" stroke="rgb(253,111,87)" stroke-width="1" opacity="0.9921568627450981" d="M 495.5 184 L 496.5 186 L 495.5 184 Z " /><path fill="rgb(253,111,87)" stroke="rgb(253,111,87)" stroke-width="1" opacity="0.9921568627450981" d="M 69.5 185 L 70 186.5 L 68 187.5 L 69.5 185 Z " /><path fill="rgb(253,111,87)" stroke="rgb(253,111,87)" stroke-width="1" opacity="0.9921568627450981" d="M 65.5 192 L 61.5 197 L 65.5 192 Z " /><path fill="rgb(253,111,87)" stroke="rgb(253,111,87)" stroke-width="1" opacity="0.9921568627450981" d="M 507.5 197 L 511 199.5 L 509.5 199 L 507.5 197 Z " /><path fill="rgb(253,111,87)" stroke="rgb(253,111,87)" stroke-width="1" opacity="0.9921568627450981" d="M 53.5 200 L 56 200.5 L 53.5 201 L 53.5 200 Z " /><path fill="rgb(253,111,87)" stroke="rgb(253,111,87)" stroke-width="1" opacity="0.9921568627450981" d="M 53.5 211 L 54 215 Q 62.17 216.893 67 223.5 Q 72.705 230.295 72 243.5 Q 69.494 253.994 62.5 260 L 54 264 Q 51.75 273.167 55.5 273 Q 69.25 275.25 76 284.5 Q 82.167 289.869 81 301 Q 88.714 297.938 87 304.5 L 92 316 L 65 316 L 65 299.5 Q 63.875 292.125 58.5 289 Q 49.95 285.5 36 288 L 36 250.5 L 37.5 249 Q 46.821 248.321 52 243.5 Q 54.667 241.167 54 235.5 L 50.5 230 L 36 225 L 35.5 221 L 34 221.5 L 53 212.5 L 53.5 211 Z " /><path fill="rgb(253,111,87)" stroke="rgb(253,111,87)" stroke-width="1" opacity="0.9921568627450981" d="M 501.5 220 L 500.5 222 L 499 221.5 L 501.5 220 Z " /><path fill="rgb(253,111,87)" stroke="rgb(253,111,87)" stroke-width="1" opacity="0.9921568627450981" d="M 498.5 224 L 497.5 226 L 498.5 224 Z " /><path fill="rgb(253,111,87)" stroke="rgb(253,111,87)" stroke-width="1" opacity="0.9921568627450981" d="M 495.5 230 L 494.5 232 L 495.5 230 Z " /><path fill="rgb(253,111,87)" stroke="rgb(253,111,87)" stroke-width="1" opacity="0.9921568627450981" d="M 494.5 233 L 495 236.5 L 494 236.5 L 494.5 233 Z " /><path fill="rgb(253,111,87)" stroke="rgb(253,111,87)" stroke-width="1" opacity="0.9921568627450981" d="M 16.5 234 L 18 237.5 L 16 236.5 L 16.5 234 Z " /><path fill="rgb(253,111,87)" stroke="rgb(253,111,87)" stroke-width="1" opacity="0.9921568627450981" d="M 495.5 246 L 497 249.5 L 496 249.5 L 495.5 246 Z " /><path fill="rgb(253,111,87)" stroke="rgb(253,111,87)" stroke-width="1" opacity="0.9921568627450981" d="M 15.5 251 L 14.5 253 L 15.5 251 Z " /><path fill="rgb(253,111,87)" stroke="rgb(253,111,87)" stroke-width="1" opacity="0.9921568627450981" d="M 12.5 256 L 8.5 261 L 12.5 256 Z " /><path fill="rgb(253,111,87)" stroke="rgb(253,111,87)" stroke-width="1" opacity="0.9921568627450981" d="M 507.5 260 L 512 262.5 L 509.5 263 L 507.5 260 Z " /><path fill="rgb(253,111,87)" stroke="rgb(253,111,87)" stroke-width="1" opacity="0.9921568627450981" d="M 4.5 263 L 3.5 265 L 2 264.5 L 4.5 263 Z " /><path fill="rgb(253,111,87)" stroke="rgb(253,111,87)" stroke-width="1" opacity="0.9921568627450981" d="M 0.5 268 L 2.5 271 Q 0.25 271.75 1 269.5 L 0.5 268 Z " /><path fill="rgb(253,111,87)" stroke="rgb(253,111,87)" stroke-width="1" opacity="0.9921568627450981" d="M 2.5 272 L 4 274.5 L 3 274.5 L 2.5 272 Z " /><path fill="rgb(253,111,87)" stroke="rgb(253,111,87)" stroke-width="1" opacity="0.9921568627450981" d="M 504.5 274 L 503.5 276 L 502 275.5 L 504.5 274 Z " /><path fill="rgb(253,111,87)" stroke="rgb(253,111,87)" stroke-width="1" opacity="0.9921568627450981" d="M 500.5 276 L 499.5 278 L 496.5 279 L 496.5 278 L 500.5 276 Z " /><path fill="rgb(253,111,87)" stroke="rgb(253,111,87)" stroke-width="1" opacity="0.9921568627450981" d="M 19.5 279 L 21.5 282 L 19.5 279 Z " /><path fill="rgb(253,111,87)" stroke="rgb(253,111,87)" stroke-width="1" opacity="0.9921568627450981" d="M 494.5 280 L 492.5 283 L 492 281 L 494.5 280 Z " /><path fill="rgb(253,111,87)" stroke="rgb(253,111,87)" stroke-width="1" opacity="0.9921568627450981" d="M 488.5 286 L 489 287.5 L 487 288.5 L 488.5 286 Z " /><path fill="rgb(253,111,87)" stroke="rgb(253,111,87)" stroke-width="1" opacity="0.9921568627450981" d="M 485.5 293 L 486 296 L 484 295.5 L 485.5 293 Z " /><path fill="rgb(253,111,87)" stroke="rgb(253,111,87)" stroke-width="1" opacity="0.9921568627450981" d="M 484.5 297 L 485 300.5 L 484 300.5 L 484.5 297 Z " /><path fill="rgb(253,111,87)" stroke="rgb(253,111,87)" stroke-width="1" opacity="0.9921568627450981" d="M 100.5 301 L 143.5 301 L 145 302.5 L 150 316 L 107.5 316 L 106 314.5 L 100.5 301 Z " /><path fill="rgb(253,111,87)" stroke="rgb(253,111,87)" stroke-width="1" opacity="0.9921568627450981" d="M 156.5 301 L 177.5 301 L 179 302.5 L 184 316 L 162.5 316 L 162 314.5 L 156.5 301 Z " /><path fill="rgb(253,111,87)" stroke="rgb(253,111,87)" stroke-width="1" opacity="0.9921568627450981" d="M 191 301 L 198.5 301 Q 203.283 306.217 211.5 308 L 225.5 308 Q 233.667 306.167 238.5 301 L 323.5 301 L 323.5 302 L 289.5 316 L 197.5 316 L 191 301 Z " /><path fill="rgb(253,111,87)" stroke="rgb(253,111,87)" stroke-width="1" opacity="0.9921568627450981" d="M 359.5 301 L 480 301.5 L 446.5 316 L 328.5 316 L 328.5 315 L 357.5 303 L 359.5 301 Z " /><path fill="rgb(253,111,87)" stroke="rgb(253,111,87)" stroke-width="1" opacity="0.9921568627450981" d="M 481.5 303 L 480.5 305 L 481.5 303 Z " /><path fill="rgb(253,111,87)" stroke="rgb(253,111,87)" stroke-width="1" opacity="0.9921568627450981" d="M 453.5 315 L 455 315.5 L 452.5 317 L 453.5 315 Z " /><path fill="rgb(253,111,87)" stroke="rgb(253,111,87)" stroke-width="1" opacity="0.9921568627450981" d="M 26.5 317 L 25.5 319 L 26.5 317 Z " /><path fill="rgb(253,111,87)" stroke="rgb(253,111,87)" stroke-width="1" opacity="0.9921568627450981" d="M 446.5 318 L 445.5 320 L 446.5 318 Z " /><path fill="rgb(253,111,87)" stroke="rgb(253,111,87)" stroke-width="1" opacity="0.9921568627450981" d="M 434.5 323 L 433.5 325 L 434.5 323 Z " /><path fill="rgb(253,111,87)" stroke="rgb(253,111,87)" stroke-width="1" opacity="0.9921568627450981" d="M 427.5 326 L 429 326.5 L 423.5 329 L 423.5 328 L 427.5 326 Z " /><path fill="rgb(253,111,87)" stroke="rgb(253,111,87)" stroke-width="1" opacity="0.9921568627450981" d="M 26.5 328 L 30 333.5 L 28 334 L 26.5 328 Z " /><path fill="rgb(253,111,87)" stroke="rgb(253,111,87)" stroke-width="1" opacity="0.9921568627450981" d="M 418.5 330 L 420 330.5 L 417.5 332 L 418.5 330 Z " /><path fill="rgb(253,111,87)" stroke="rgb(253,111,87)" stroke-width="1" opacity="0.9921568627450981" d="M 39.5 334 L 46 338.5 L 43.5 337 Q 39.5 336.5 39.5 334 Z " /><path fill="rgb(253,111,87)" stroke="rgb(253,111,87)" stroke-width="1" opacity="0.9921568627450981" d="M 406.5 335 L 408 335.5 L 405.5 337 L 406.5 335 Z " /><path fill="rgb(253,111,87)" stroke="rgb(253,111,87)" stroke-width="1" opacity="0.9921568627450981" d="M 47.5 339 L 51 343.5 L 50 343.5 L 47.5 339 Z " /><path fill="rgb(253,111,87)" stroke="rgb(253,111,87)" stroke-width="1" opacity="0.9921568627450981" d="M 397.5 339 L 399 339.5 L 396.5 341 L 397.5 339 Z " /><path fill="rgb(253,111,87)" stroke="rgb(253,111,87)" stroke-width="1" opacity="0.9921568627450981" d="M 394.5 340 L 393.5 342 L 394.5 340 Z " /><path fill="rgb(253,111,87)" stroke="rgb(253,111,87)" stroke-width="1" opacity="0.9921568627450981" d="M 390.5 342 L 392 342.5 L 389.5 344 L 390.5 342 Z " /><path fill="rgb(253,111,87)" stroke="rgb(253,111,87)" stroke-width="1" opacity="0.9921568627450981" d="M 53.5 348 L 55 350.5 L 54 350.5 L 53.5 348 Z " /><path fill="rgb(253,111,87)" stroke="rgb(253,111,87)" stroke-width="1" opacity="0.9921568627450981" d="M 368.5 351 L 371 351.5 L 367.5 353 L 368.5 351 Z " /><path fill="rgb(253,111,87)" stroke="rgb(253,111,87)" stroke-width="1" opacity="0.9921568627450981" d="M 362.5 354 L 364 354.5 L 360.5 356 L 360.5 355 L 362.5 354 Z " /><path fill="rgb(253,111,87)" stroke="rgb(253,111,87)" stroke-width="1" opacity="0.9921568627450981" d="M 345.5 361 L 348 361.5 L 345.5 362 L 345.5 361 Z " /><path fill="rgb(253,111,87)" stroke="rgb(253,111,87)" stroke-width="1" opacity="0.9921568627450981" d="M 341.5 363 L 340.5 365 L 341.5 363 Z " /><path fill="rgb(253,111,87)" stroke="rgb(253,111,87)" stroke-width="1" opacity="0.9921568627450981" d="M 55.5 365 L 56 366.5 L 54.5 369 L 54 367.5 L 55.5 365 Z " /><path fill="rgb(253,111,87)" stroke="rgb(253,111,87)" stroke-width="1" opacity="0.9921568627450981" d="M 334.5 366 L 336 366.5 L 333.5 368 L 334.5 366 Z " /><path fill="rgb(253,111,87)" stroke="rgb(253,111,87)" stroke-width="1" opacity="0.9921568627450981" d="M 52.5 372 L 53 373.5 L 50.5 377 L 50 375.5 L 52.5 372 Z " /><path fill="rgb(253,111,87)" stroke="rgb(253,111,87)" stroke-width="1" opacity="0.9921568627450981" d="M 303.5 379 L 305 379.5 L 302.5 381 L 303.5 379 Z " /><path fill="rgb(253,111,87)" stroke="rgb(253,111,87)" stroke-width="1" opacity="0.9921568627450981" d="M 299.5 381 L 301 381.5 L 298.5 383 L 299.5 381 Z " /><path fill="rgb(253,111,87)" stroke="rgb(253,111,87)" stroke-width="1" opacity="0.9921568627450981" d="M 49.5 382 L 52 387.5 L 51 387.5 L 49.5 382 Z " /><path fill="rgb(253,111,87)" stroke="rgb(253,111,87)" stroke-width="1" opacity="0.9921568627450981" d="M 280.5 389 L 282 389.5 L 279.5 391 L 280.5 389 Z " /><path fill="rgb(253,111,87)" stroke="rgb(253,111,87)" stroke-width="1" opacity="0.9921568627450981" d="M 58.5 391 L 61 391.5 L 58.5 392 L 58.5 391 Z " /><path fill="rgb(253,111,87)" stroke="rgb(253,111,87)" stroke-width="1" opacity="0.9921568627450981" d="M 259.5 398 L 261 398.5 L 258.5 400 L 259.5 398 Z " /><path fill="rgb(253,111,87)" stroke="rgb(253,111,87)" stroke-width="1" opacity="0.9921568627450981" d="M 249.5 402 L 250 404 L 248 403.5 L 249.5 402 Z " /><path fill="rgb(253,111,87)" stroke="rgb(253,111,87)" stroke-width="1" opacity="0.9921568627450981" d="M 236.5 408 L 238 408.5 L 235.5 410 L 236.5 408 Z " /><path fill="rgb(253,111,87)" stroke="rgb(253,111,87)" stroke-width="1" opacity="0.9921568627450981" d="M 79.5 409 L 80.5 411 Q 77.708 411.667 79.5 409 Z " /><path fill="rgb(253,111,87)" stroke="rgb(253,111,87)" stroke-width="1" opacity="0.9921568627450981" d="M 80.5 412 L 81 418.5 L 80 418.5 L 80.5 412 Z " /><path fill="rgb(253,111,87)" stroke="rgb(253,111,87)" stroke-width="1" opacity="0.9921568627450981" d="M 222.5 414 L 221.5 416 L 220 415.5 L 222.5 414 Z " /><path fill="rgb(253,111,87)" stroke="rgb(253,111,87)" stroke-width="1" opacity="0.9921568627450981" d="M 215.5 417 L 217 417.5 L 213.5 419 L 213.5 418 L 215.5 417 Z " /><path fill="rgb(253,111,87)" stroke="rgb(253,111,87)" stroke-width="1" opacity="0.9921568627450981" d="M 208.5 420 L 210 420.5 L 207.5 422 L 208.5 420 Z " /><path fill="rgb(253,111,87)" stroke="rgb(253,111,87)" stroke-width="1" opacity="0.9921568627450981" d="M 79 423 L 81 423.5 L 79 424.5 L 79 423 Z " /><path fill="rgb(253,111,87)" stroke="rgb(253,111,87)" stroke-width="1" opacity="0.9921568627450981" d="M 181.5 431 L 182 433 L 178.5 434 L 178.5 433 L 181.5 431 Z " /><path fill="rgb(253,111,87)" stroke="rgb(253,111,87)" stroke-width="1" opacity="0.9921568627450981" d="M 173.5 435 L 175 435.5 L 171.5 437 L 171.5 436 L 173.5 435 Z " /><path fill="rgb(253,111,87)" stroke="rgb(253,111,87)" stroke-width="1" opacity="0.9921568627450981" d="M 72 436 L 74 436.5 L 74 438.5 L 75 440.5 L 73 439.5 L 72 436 Z " /><path fill="rgb(253,111,87)" stroke="rgb(253,111,87)" stroke-width="1" opacity="0.9921568627450981" d="M 168.5 437 L 170 437.5 L 167.5 439 L 168.5 437 Z " /><path fill="rgb(253,111,87)" stroke="rgb(253,111,87)" stroke-width="1" opacity="0.9921568627450981" d="M 74.5 442 Q 77.125 441.167 76 444.5 L 77 446.5 L 76 446.5 L 74.5 442 Z " /><path fill="rgb(253,111,87)" stroke="rgb(253,111,87)" stroke-width="1" opacity="0.9921568627450981" d="M 81.5 444 L 83 444.5 L 80.5 446 L 81.5 444 Z " /><path fill="rgb(253,111,87)" stroke="rgb(253,111,87)" stroke-width="1" opacity="0.9921568627450981" d="M 88.5 444 L 92 444.5 L 88.5 445 L 88.5 444 Z " /><path fill="rgb(253,111,87)" stroke="rgb(253,111,87)" stroke-width="1" opacity="0.9921568627450981" d="M 152.5 444 L 154 444.5 L 151.5 446 L 152.5 444 Z " /><path fill="rgb(253,111,87)" stroke="rgb(253,111,87)" stroke-width="1" opacity="0.9921568627450981" d="M 98.5 445 L 99.5 447 Q 96.708 447.667 98.5 445 Z " /><path fill="rgb(253,111,87)" stroke="rgb(253,111,87)" stroke-width="1" opacity="0.9921568627450981" d="M 149.5 445 L 148.5 447 L 149.5 445 Z " /><path fill="rgb(253,111,87)" stroke="rgb(253,111,87)" stroke-width="1" opacity="0.9921568627450981" d="M 101.5 447 L 103.5 450 L 101.5 447 Z " /><path fill="rgb(253,111,87)" stroke="rgb(253,111,87)" stroke-width="1" opacity="0.9921568627450981" d="M 140.5 449 L 139.5 451 L 140.5 449 Z " /><path fill="rgb(253,111,87)" stroke="rgb(253,111,87)" stroke-width="1" opacity="0.9921568627450981" d="M 105.5 450 L 108 451 L 112 458.5 L 111 458.5 L 105.5 450 Z " /><path fill="rgb(255,112,88)" stroke="rgb(255,112,88)" stroke-width="1" opacity="1" d="M 81.5 50 L 82.5 51 L 484 51 L 485 55.5 L 485 57.5 Q 487.6 57.367 487 61.5 L 488 64.5 L 488.5 66 L 490 65.5 L 490.5 69 L 492 68.5 Q 490.875 71.833 493.5 71 L 496 72 Q 494.875 74.667 497.5 74 L 504.5 78 L 506.5 78 Q 511 77 512 79.5 Q 514.813 89.938 509.5 89 Q 507.917 94.75 502 94 L 499 100 L 497 100.5 L 497.5 102 Q 495.25 101.25 496 103.5 L 494 108.5 L 495 111.5 Q 492.5 113 494 118.5 L 496 122.5 Q 496.35 127.65 500 129.5 L 499.5 131 L 504 133.5 Q 503.167 136.125 506.5 135 L 510.5 138 L 512 137.5 L 512 150.5 L 510.5 151 L 507 152.5 L 507.5 154 Q 501.05 153.55 500 158.5 Q 497.4 158.367 498 162.5 L 496 166.5 L 494 171.5 L 495 173.5 L 494 178.5 L 495 181.5 L 496 183.5 Q 493.5 185 497 186.5 L 498 188.5 L 497.5 190 L 502.5 194 L 510.5 200 L 512 199.5 L 511.5 215 L 509.5 215 L 504 217 L 502.5 220 L 499 221.5 Q 502 223.5 497 225.5 L 494 231.5 L 494 233.5 L 495 242.5 L 494 244.5 L 496 250 L 498 250.5 L 497.5 252 Q 499.75 251.25 499 253.5 L 502 258 L 504.5 258 Q 506.083 263.75 512 263 Q 514.5 271.425 510.5 274 L 505.5 275 L 503.5 275 L 496 278 Q 497.125 280.667 494.5 280 L 492 281 L 491.5 284 L 490 283.5 L 489.5 287 L 488 286.5 L 487 288.5 L 487 290.5 Q 487.6 294.633 485 294.5 L 484 297.5 L 485 301.5 Q 479.5 307.197 474 306.5 Q 474.75 308.75 472.5 308 L 469.5 309 Q 466.167 307.875 467 310.5 L 465 310.5 Q 465.875 313.5 461.5 312 Q 454.068 313.068 450.5 318 L 449.5 317 L 444.5 320 Q 438.194 320.194 435.5 324 Q 434 321.5 432.5 325 Q 412.008 331.008 395.5 341 Q 394 338.5 392.5 342 L 384.5 346 L 383 345.5 L 382.5 347 L 380.5 347 Q 376.367 346.4 376.5 349 L 368 351.5 L 368.5 353 L 366.5 353 Q 359.927 358.396 350 359 L 350 361 Q 344.167 358.75 345 362.5 L 343 362.5 L 342.5 364 Q 340.25 361.036 338 364.5 Q 338.875 367.5 334.5 366 Q 330.062 370.721 322 371 L 321.5 373 L 320 372.5 Q 320.833 375.125 317.5 374 L 312.5 377 L 310 376 L 310 378 Q 305.2 376.125 306 379.5 L 304.5 379 Q 287.171 383.671 274.5 393 L 273 392.5 Q 273.833 395.125 270.5 394 L 250.5 403 Q 248.5 400 246.5 405 L 243.5 406 L 242 405.5 Q 242.833 408.125 239.5 407 L 234.5 410 L 233 409.5 Q 233.75 411.75 231.5 411 L 223.5 415 L 221.5 415 Q 212.877 421.877 199.5 424 L 197.5 426 L 195.5 425 L 195.5 427 L 192.5 427 L 182.5 432 Q 181 429.5 179.5 433 L 157.5 443 L 156 442.5 Q 156.875 445.5 152.5 444 L 147.5 447 L 144.5 449 L 143.5 448 Q 138.25 453.167 133 452.5 Q 133.75 454.75 131.5 454 L 128.5 455 Q 125.167 453.875 126 456.5 L 124 456.5 Q 124.875 459.5 120.5 458 L 116.5 461 L 114.5 461 L 112.5 462 Q 112.359 454.027 108 451 L 101.5 447 L 100 447.5 L 98.5 445 L 95 446 Q 96.125 443.333 93.5 444 L 91.5 444 L 86.5 445 L 84.5 444 L 82.5 444 L 77.5 447 L 76 442 L 74 441.5 L 74 439.5 L 73 437.5 L 73.5 435 Q 75.75 435.75 75 433.5 L 79 427.5 L 78 426.5 Q 83 424.5 80 422.5 L 81 420.5 L 81 418.5 Q 82.5 413 80 411.5 Q 82.5 410 79 408.5 L 78 406.5 L 78.5 405 L 77 404.5 L 77.5 403 L 76 402.5 L 76.5 401 Q 71.5 401.5 71 397.5 Q 71.75 395.25 69.5 396 Q 64.478 391.022 55.5 390 L 53 391 L 50 382 L 48 381.5 L 48 379.5 L 49.5 377 Q 51.75 377.75 51 375.5 L 56 365.5 L 56 363.5 Q 57.333 355.167 54 351.5 L 55 349.5 L 47.5 339 L 46 339.5 L 43.5 336 L 39.5 334 L 37.5 334 L 33.5 333 L 30.5 334 L 23 321.5 L 24 319 L 27 317.5 L 31 309.5 Q 27.75 307 32 304.5 L 31 301.5 L 32 299.5 L 28 287 L 26 287 Q 26.875 281.5 22.5 282 L 15.5 277 L 5.5 275 L 4 275.5 L 2 271.5 Q 5 269.5 0 267.5 L 1.5 265 L 7 263 Q 5.875 260.333 8.5 261 L 16 251.5 L 16 249.5 L 18 242.5 L 17 238.5 L 17 236.5 L 15 230.5 L 21 228 Q 19.75 225 23.5 226 L 33.5 221 L 36 221.5 Q 34.5 225.875 37.5 225 Q 46.921 226.079 52 231.5 Q 54.667 233.833 54 239.5 L 50.5 245 L 36 250.5 L 36 288 L 55.5 288 L 63 293.5 Q 67.125 301.993 65 316 L 91.5 316 L 93 317.5 L 125 394.5 L 128.5 400 L 325.5 316 L 446.5 316 L 480 301.5 L 238.5 301 L 236 302.5 L 236.5 301 L 200.5 301 L 199.5 302 Q 197.75 299.25 191.5 301 L 189.5 301 Q 181 298.5 178.5 302 L 177.5 301 L 145.5 301 L 143.5 301 L 81.5 301 Q 80.25 300.75 81 294.5 Q 77.917 284.583 70.5 279 Q 64.036 273.735 54 273 Q 51.75 263.833 55.5 264 L 66 256.5 Q 72.783 249.783 72 235.5 Q 69.926 224.574 62.5 219 L 54 215 L 53 201 Q 57.275 201.8 57.5 199 L 66 192.5 L 71 183.5 L 71 181.5 L 72 177.5 Q 71.25 166.25 65.5 160 L 64 159.5 L 64.5 158 Q 60.367 158.6 60.5 156 Q 58.25 152.25 53 151.5 Q 50.075 135.125 57.5 136 L 60 135 L 61.5 132 L 66 130 Q 72.316 122.447 71 106.5 Q 70.068 99.432 65.5 96 L 64 95.5 L 64.5 94 Q 60.367 94.6 60.5 92 Q 58.25 88.25 53 87.5 Q 51 78.667 54.5 79 L 57 78.5 Q 56.1 75.125 61.5 77 L 73 71 Q 71.875 68.333 74.5 69 Q 72.917 67.25 76 65.5 Q 75.25 63.25 77.5 64 L 77.5 62 L 79 62.5 L 80 59.5 L 80 57.5 L 81 55.5 L 81 51.5 L 81.5 50 Z M 117 100 L 117 252 L 447 252 L 447 100 L 117 100 Z " /><path fill="rgb(255,112,88)" stroke="rgb(255,112,88)" stroke-width="1" opacity="1" d="M 131 114 L 433 114 L 433 238 L 131 238 L 131 114 Z M 250 145 Q 239 146 233 150 Q 224 156 221 168 Q 219 185 226 193 Q 232 200 243 203 Q 260 205 267 197 L 272 190 L 263 184 L 262 189 L 255 194 Q 243 196 239 191 L 232 181 Q 231 169 235 164 Q 239 157 250 156 Q 259 157 264 164 L 272 159 L 270 155 Q 264 146 250 145 Z M 156 148 L 156 158 L 172 158 L 172 159 L 172 204 Q 182 205 183 204 L 183 158 L 199 158 L 200 157 Q 201 148 200 148 L 156 148 Z M 204 148 L 204 204 Q 205 205 215 204 L 215 149 Q 214 147 204 148 Z M 275 148 L 275 204 L 286 204 L 286 186 L 290 183 L 307 204 L 321 204 L 297 175 L 319 150 L 319 148 L 306 148 L 291 166 L 286 170 L 286 148 L 275 148 Z M 324 148 L 324 204 L 362 204 Q 363 203 362 196 L 361 194 L 334 194 L 334 180 L 362 180 L 362 170 L 334 170 L 334 158 L 361 158 L 362 157 Q 363 148 362 148 L 324 148 Z M 366 148 L 366 158 L 383 158 L 383 159 L 383 204 Q 392 205 393 204 L 393 158 L 409 158 L 410 157 Q 411 148 410 148 L 366 148 Z " /><path fill="rgb(255,112,88)" stroke="rgb(255,112,88)" stroke-width="1" opacity="1" d="M 150.5 315 L 158 334 L 168 332 Q 168.667 321.958 162 316.5 L 185 316 L 187 323 L 198 318.5 L 196 315.5 L 197.5 316 L 288 316.5 L 135 382 L 107 316.5 L 149.5 316 L 150.5 315 Z " /><path fill="rgb(254,206,91)" stroke="rgb(254,206,91)" stroke-width="1" opacity="1" d="M 117 100 L 447 100 L 447 252 L 117 252 L 117 100 Z M 131 114 L 131 238 L 433 238 L 433 114 L 131 114 Z " /><path fill="rgb(254,206,91)" stroke="rgb(254,206,91)" stroke-width="1" opacity="1" d="M 199.5 148 L 200 156.5 L 198.5 158 L 183 158 L 182.5 204 L 182 158.5 L 183.5 157 L 199 157 L 199.5 148 Z " /><path fill="rgb(254,206,91)" stroke="rgb(254,206,91)" stroke-width="1" opacity="1" d="M 214.5 148 L 215 203.5 L 214 203.5 L 214.5 148 Z " /><path fill="rgb(254,206,91)" stroke="rgb(254,206,91)" stroke-width="1" opacity="1" d="M 305.5 148 L 304.5 150 L 305.5 148 Z " /><path fill="rgb(254,206,91)" stroke="rgb(254,206,91)" stroke-width="1" opacity="1" d="M 318.5 149 L 317.5 151 L 318.5 149 Z " /><path fill="rgb(254,206,91)" stroke="rgb(254,206,91)" stroke-width="1" opacity="1" d="M 266.5 151 L 269.5 155 L 266.5 151 Z " /><path fill="rgb(254,206,91)" stroke="rgb(254,206,91)" stroke-width="1" opacity="1" d="M 226.5 156 L 225.5 158 L 226.5 156 Z " /><path fill="rgb(254,206,91)" stroke="rgb(254,206,91)" stroke-width="1" opacity="1" d="M 156.5 157 L 172 157.5 L 156.5 158 L 156.5 157 Z " /><path fill="rgb(254,206,91)" stroke="rgb(254,206,91)" stroke-width="1" opacity="1" d="M 311.5 157 L 310.5 159 L 311.5 157 Z " /><path fill="rgb(254,206,91)" stroke="rgb(254,206,91)" stroke-width="1" opacity="1" d="M 334.5 157 L 361 157.5 L 334.5 158 L 334.5 157 Z " /><path fill="rgb(254,206,91)" stroke="rgb(254,206,91)" stroke-width="1" opacity="1" d="M 366.5 157 L 383 157.5 L 366.5 158 L 366.5 157 Z " /><path fill="rgb(254,206,91)" stroke="rgb(254,206,91)" stroke-width="1" opacity="1" d="M 393.5 157 L 409 157.5 L 393 158 L 392.5 204 L 392 158.5 L 393.5 157 Z " /><path fill="rgb(254,206,91)" stroke="rgb(254,206,91)" stroke-width="1" opacity="1" d="M 292.5 163 L 291.5 165 L 292.5 163 Z " /><path fill="rgb(254,206,91)" stroke="rgb(254,206,91)" stroke-width="1" opacity="1" d="M 304.5 165 L 303.5 167 L 304.5 165 Z " /><path fill="rgb(254,206,91)" stroke="rgb(254,206,91)" stroke-width="1" opacity="1" d="M 231.5 174 L 232 176.5 L 231 176.5 L 231.5 174 Z " /><path fill="rgb(254,206,91)" stroke="rgb(254,206,91)" stroke-width="1" opacity="1" d="M 301.5 180 L 302.5 182 L 301.5 180 Z " /><path fill="rgb(254,206,91)" stroke="rgb(254,206,91)" stroke-width="1" opacity="1" d="M 288.5 182 L 291 183.5 L 289.5 183 L 286.5 185 L 288.5 182 Z " /><path fill="rgb(254,206,91)" stroke="rgb(254,206,91)" stroke-width="1" opacity="1" d="M 295.5 189 L 296.5 191 L 295.5 189 Z " /><path fill="rgb(254,206,91)" stroke="rgb(254,206,91)" stroke-width="1" opacity="1" d="M 226.5 192 L 227.5 194 L 226.5 192 Z " /><path fill="rgb(254,206,91)" stroke="rgb(254,206,91)" stroke-width="1" opacity="1" d="M 247.5 194 L 252 194.5 L 247.5 195 L 247.5 194 Z " /><path fill="rgb(254,206,91)" stroke="rgb(254,206,91)" stroke-width="1" opacity="1" d="M 334.5 194 L 361 194.5 L 334.5 195 L 334.5 194 Z " /><path fill="rgb(254,206,91)" stroke="rgb(254,206,91)" stroke-width="1" opacity="1" d="M 267.5 195 L 266.5 197 L 267.5 195 Z " /><path fill="rgb(254,206,91)" stroke="rgb(254,206,91)" stroke-width="1" opacity="1" d="M 230.5 196 L 231.5 198 L 230.5 196 Z " /><path fill="rgb(254,206,91)" stroke="rgb(254,206,91)" stroke-width="1" opacity="1" d="M 301.5 196 L 302.5 198 L 301.5 196 Z " /><path fill="rgb(254,206,91)" stroke="rgb(254,206,91)" stroke-width="1" opacity="1" d="M 87 301 Q 97.692 297.75 101 302.5 L 135 382 L 321.5 302 L 324.5 301 L 358.5 301 L 357.5 303 L 128.5 400 Q 103.851 353.14 87 301 Z " /><path fill="rgb(254,206,91)" stroke="rgb(254,206,91)" stroke-width="1" opacity="1" d="M 200.5 301 L 202.5 304 L 200.5 301 Z " /></svg>