<svg width="512" height="512" version="1.1" xmlns="http://www.w3.org/2000/svg" desc="Created with imagetracer.js version 1.2.6" ><path fill="rgb(0,0,0)" stroke="rgb(0,0,0)" stroke-width="1" opacity="0" d="M 0 0 L 209.5 0 L 210 1.5 Q 198.685 26.185 193 56.5 L 228 110.5 Q 202.393 253.393 180 399.5 L 179 400.5 Q 174.419 415.919 175 436.5 L 253 511.5 L 0 512 L 0 0 Z " /><path fill="rgb(0,0,0)" stroke="rgb(0,0,0)" stroke-width="1" opacity="0" d="M 301.5 0 L 512 0 L 512 512 L 259 511.5 L 335.5 437 L 337 437 Q 337.625 420.475 334 406.5 L 333 405.5 Q 310.13 256.37 284 110.5 L 316 61.5 Q 319.667 58.667 319 51.5 L 303 2.5 L 301.5 0 Z " /><path fill="rgb(44,174,184)" stroke="rgb(44,174,184)" stroke-width="1" opacity="0.996078431372549" d="M 210 0 L 228.5 0 L 306 74.5 L 284.5 108 L 201 28.5 L 210 0 Z " /><path fill="rgb(44,174,184)" stroke="rgb(44,174,184)" stroke-width="1" opacity="0.996078431372549" d="M 224 131 Q 243.767 143.195 259 162.5 L 268.5 173 L 299 201.5 L 309 265.5 L 286.5 244 L 217 178.5 Q 216.565 164.065 221 154.5 L 221 152.5 L 222 148.5 L 222 146.5 L 224 131 Z " /><path fill="rgb(44,174,184)" stroke="rgb(44,174,184)" stroke-width="1" opacity="0.996078431372549" d="M 208.5 228 L 243 260.5 L 250.5 269 L 321 336.5 L 332 400.5 L 319.5 389 L 201 276.5 L 201 270.5 L 208.5 228 Z " /><path fill="rgb(44,174,184)" stroke="rgb(44,174,184)" stroke-width="1" opacity="0.996078431372549" d="M 192.5 326 L 227 358.5 L 232.5 365 L 321 449.5 L 301.5 470 L 292.5 477 Q 240.039 424.02 185 375 L 184 372.5 L 192.5 326 Z " /><path fill="rgb(135,219,228)" stroke="rgb(135,219,228)" stroke-width="1" opacity="0.9803921568627451" d="M 254.5 0 L 300.5 0 L 303 2.5 L 319 51.5 L 319 55.5 L 306.5 76 L 284.5 53 L 247 17.5 Q 248.222 6.222 254.5 0 Z " /><path fill="rgb(135,219,228)" stroke="rgb(135,219,228)" stroke-width="1" opacity="0.9803921568627451" d="M 248.5 75 L 285 109.5 L 285 111.5 L 286 122.5 L 300 201.5 L 281.5 184 L 259 162.5 L 268 110 Q 270.667 111.125 270 108.5 L 248.5 75 Z " /><path fill="rgb(135,219,228)" stroke="rgb(135,219,228)" stroke-width="1" opacity="0.9803921568627451" d="M 251.5 211 Q 278.793 242.838 311 267 Q 314.208 302.59 322 335.5 L 313.5 328 L 243 260.5 L 251.5 211 Z " /><path fill="rgb(135,219,228)" stroke="rgb(135,219,228)" stroke-width="1" opacity="0.9803921568627451" d="M 235.5 309 L 331.5 402 L 333 402 Q 337.667 417.5 337 437 L 335.5 437 L 322.5 450 L 227 358.5 L 234 312.5 L 235.5 309 Z " /><path fill="rgb(135,219,228)" stroke="rgb(135,219,228)" stroke-width="1" opacity="0.9803921568627451" d="M 219.5 407 L 293 477.5 L 264.5 507 Q 262.636 513.136 253.5 512 L 212 472.5 Q 212.75 470.25 210.5 471 L 195.5 455 L 207.5 467 L 209 467 L 218 408.5 L 219.5 407 Z " /><path fill="rgb(135,219,228)" stroke="rgb(135,219,228)" stroke-width="1" opacity="0.9803921568627451" d="M 175.5 436 L 176.5 438 L 175.5 436 Z " /><path fill="rgb(135,219,228)" stroke="rgb(135,219,228)" stroke-width="1" opacity="0.9803921568627451" d="M 297.5 474 L 296.5 476 L 297.5 474 Z " /><path fill="rgb(115,196,196)" stroke="rgb(115,196,196)" stroke-width="1" opacity="0.984313725490196" d="M 229.5 0 L 254 0.5 Q 248.284 6.784 246.5 17 L 229.5 0 Z " /><path fill="rgb(115,196,196)" stroke="rgb(115,196,196)" stroke-width="1" opacity="0.984313725490196" d="M 258.5 28 L 271.5 42 L 258.5 28 Z " /><path fill="rgb(115,196,196)" stroke="rgb(115,196,196)" stroke-width="1" opacity="0.984313725490196" d="M 201.5 29 L 251 76.5 L 250 78.5 L 270 110 Q 267 108.75 268 112.5 Q 262.524 135.024 260 160.5 L 258.5 162 L 224 130.5 L 228 109.5 L 195 59.5 L 193 53.5 L 200 30.5 L 201.5 29 Z " /><path fill="rgb(115,196,196)" stroke="rgb(115,196,196)" stroke-width="1" opacity="0.984313725490196" d="M 284.5 53 L 296.5 66 L 284.5 53 Z " /><path fill="rgb(115,196,196)" stroke="rgb(115,196,196)" stroke-width="1" opacity="0.984313725490196" d="M 305.5 76 L 305 77.5 L 299.5 86 L 300 84.5 L 305.5 76 Z " /><path fill="rgb(115,196,196)" stroke="rgb(115,196,196)" stroke-width="1" opacity="0.984313725490196" d="M 298.5 87 L 297.5 89 L 298.5 87 Z " /><path fill="rgb(115,196,196)" stroke="rgb(115,196,196)" stroke-width="1" opacity="0.984313725490196" d="M 263.5 88 L 276.5 102 L 263.5 88 Z " /><path fill="rgb(115,196,196)" stroke="rgb(115,196,196)" stroke-width="1" opacity="0.984313725490196" d="M 296.5 90 L 296 91.5 L 288.5 103 L 289 101.5 L 296.5 90 Z " /><path fill="rgb(115,196,196)" stroke="rgb(115,196,196)" stroke-width="1" opacity="0.984313725490196" d="M 287.5 104 L 286.5 106 L 287.5 104 Z " /><path fill="rgb(115,196,196)" stroke="rgb(115,196,196)" stroke-width="1" opacity="0.984313725490196" d="M 285.5 107 L 284.5 109 L 285.5 107 Z " /><path fill="rgb(115,196,196)" stroke="rgb(115,196,196)" stroke-width="1" opacity="0.984313725490196" d="M 259.5 163 L 268.5 173 L 259.5 163 Z " /><path fill="rgb(115,196,196)" stroke="rgb(115,196,196)" stroke-width="1" opacity="0.984313725490196" d="M 216.5 177 L 222.5 184 L 251 210.5 L 244 256.5 L 242.5 260 L 208 227.5 L 216.5 177 Z " /><path fill="rgb(115,196,196)" stroke="rgb(115,196,196)" stroke-width="1" opacity="0.984313725490196" d="M 281.5 184 L 293.5 197 L 281.5 184 Z " /><path fill="rgb(115,196,196)" stroke="rgb(115,196,196)" stroke-width="1" opacity="0.984313725490196" d="M 299.5 202 L 300 205.5 L 299 205.5 L 299.5 202 Z " /><path fill="rgb(115,196,196)" stroke="rgb(115,196,196)" stroke-width="1" opacity="0.984313725490196" d="M 300.5 208 L 301 211.5 L 300 211.5 L 300.5 208 Z " /><path fill="rgb(115,196,196)" stroke="rgb(115,196,196)" stroke-width="1" opacity="0.984313725490196" d="M 301.5 214 L 302 217.5 L 301 217.5 L 301.5 214 Z " /><path fill="rgb(115,196,196)" stroke="rgb(115,196,196)" stroke-width="1" opacity="0.984313725490196" d="M 261.5 220 L 273.5 233 L 261.5 220 Z " /><path fill="rgb(115,196,196)" stroke="rgb(115,196,196)" stroke-width="1" opacity="0.984313725490196" d="M 302.5 220 L 303 223.5 L 302 223.5 L 302.5 220 Z " /><path fill="rgb(115,196,196)" stroke="rgb(115,196,196)" stroke-width="1" opacity="0.984313725490196" d="M 303.5 226 L 304 229.5 L 303 229.5 L 303.5 226 Z " /><path fill="rgb(115,196,196)" stroke="rgb(115,196,196)" stroke-width="1" opacity="0.984313725490196" d="M 304.5 232 L 305 235.5 L 304 235.5 L 304.5 232 Z " /><path fill="rgb(115,196,196)" stroke="rgb(115,196,196)" stroke-width="1" opacity="0.984313725490196" d="M 305.5 238 L 306 241.5 L 305 241.5 L 305.5 238 Z " /><path fill="rgb(115,196,196)" stroke="rgb(115,196,196)" stroke-width="1" opacity="0.984313725490196" d="M 286.5 244 L 299.5 258 L 286.5 244 Z " /><path fill="rgb(115,196,196)" stroke="rgb(115,196,196)" stroke-width="1" opacity="0.984313725490196" d="M 306.5 244 L 307 247.5 L 306 247.5 L 306.5 244 Z " /><path fill="rgb(115,196,196)" stroke="rgb(115,196,196)" stroke-width="1" opacity="0.984313725490196" d="M 307.5 250 L 308 253.5 L 307 253.5 L 307.5 250 Z " /><path fill="rgb(115,196,196)" stroke="rgb(115,196,196)" stroke-width="1" opacity="0.984313725490196" d="M 308.5 256 L 309 259.5 L 308 259.5 L 308.5 256 Z " /><path fill="rgb(115,196,196)" stroke="rgb(115,196,196)" stroke-width="1" opacity="0.984313725490196" d="M 243.5 261 L 250.5 269 L 243.5 261 Z " /><path fill="rgb(115,196,196)" stroke="rgb(115,196,196)" stroke-width="1" opacity="0.984313725490196" d="M 309.5 262 L 310 266.5 L 309 266.5 L 309.5 262 Z " /><path fill="rgb(115,196,196)" stroke="rgb(115,196,196)" stroke-width="1" opacity="0.984313725490196" d="M 200.5 274 L 204.5 280 L 235 308.5 L 226.5 358 L 192 325.5 L 200.5 274 Z " /><path fill="rgb(115,196,196)" stroke="rgb(115,196,196)" stroke-width="1" opacity="0.984313725490196" d="M 262.5 279 L 275.5 293 L 262.5 279 Z " /><path fill="rgb(115,196,196)" stroke="rgb(115,196,196)" stroke-width="1" opacity="0.984313725490196" d="M 288.5 304 L 300.5 317 L 288.5 304 Z " /><path fill="rgb(115,196,196)" stroke="rgb(115,196,196)" stroke-width="1" opacity="0.984313725490196" d="M 243.5 316 L 255.5 329 L 243.5 316 Z " /><path fill="rgb(115,196,196)" stroke="rgb(115,196,196)" stroke-width="1" opacity="0.984313725490196" d="M 313.5 328 L 322 336.5 L 322 338.5 L 321 338.5 L 321 336.5 L 313.5 328 Z " /><path fill="rgb(115,196,196)" stroke="rgb(115,196,196)" stroke-width="1" opacity="0.984313725490196" d="M 268.5 340 L 281.5 354 L 268.5 340 Z " /><path fill="rgb(115,196,196)" stroke="rgb(115,196,196)" stroke-width="1" opacity="0.984313725490196" d="M 322.5 341 L 323 344.5 L 322 344.5 L 322.5 341 Z " /><path fill="rgb(115,196,196)" stroke="rgb(115,196,196)" stroke-width="1" opacity="0.984313725490196" d="M 323.5 347 L 324 350.5 L 323 350.5 L 323.5 347 Z " /><path fill="rgb(115,196,196)" stroke="rgb(115,196,196)" stroke-width="1" opacity="0.984313725490196" d="M 324.5 353 L 325 356.5 L 324 356.5 L 324.5 353 Z " /><path fill="rgb(115,196,196)" stroke="rgb(115,196,196)" stroke-width="1" opacity="0.984313725490196" d="M 227.5 359 L 232.5 365 L 227.5 359 Z " /><path fill="rgb(115,196,196)" stroke="rgb(115,196,196)" stroke-width="1" opacity="0.984313725490196" d="M 325.5 359 L 326 362.5 L 325 362.5 L 325.5 359 Z " /><path fill="rgb(115,196,196)" stroke="rgb(115,196,196)" stroke-width="1" opacity="0.984313725490196" d="M 294.5 365 L 306.5 378 L 294.5 365 Z " /><path fill="rgb(115,196,196)" stroke="rgb(115,196,196)" stroke-width="1" opacity="0.984313725490196" d="M 326.5 365 L 327 368.5 L 326 368.5 L 326.5 365 Z " /><path fill="rgb(115,196,196)" stroke="rgb(115,196,196)" stroke-width="1" opacity="0.984313725490196" d="M 327.5 371 L 328 374.5 L 327 374.5 L 327.5 371 Z " /><path fill="rgb(115,196,196)" stroke="rgb(115,196,196)" stroke-width="1" opacity="0.984313725490196" d="M 184.5 373 L 185 375 L 186.5 375 L 219 406.5 L 209 467 L 194 455 Q 195.125 452.333 192.5 453 L 175 435.5 L 175 428.5 L 176 427.5 Q 178.15 398.15 184.5 373 Z " /><path fill="rgb(115,196,196)" stroke="rgb(115,196,196)" stroke-width="1" opacity="0.984313725490196" d="M 244.5 375 L 257.5 389 L 244.5 375 Z " /><path fill="rgb(115,196,196)" stroke="rgb(115,196,196)" stroke-width="1" opacity="0.984313725490196" d="M 328.5 377 L 329 380.5 L 328 380.5 L 328.5 377 Z " /><path fill="rgb(115,196,196)" stroke="rgb(115,196,196)" stroke-width="1" opacity="0.984313725490196" d="M 329.5 383 L 330 386.5 L 329 386.5 L 329.5 383 Z " /><path fill="rgb(115,196,196)" stroke="rgb(115,196,196)" stroke-width="1" opacity="0.984313725490196" d="M 319.5 389 L 333 401.5 L 331.5 402 L 319.5 389 Z " /><path fill="rgb(115,196,196)" stroke="rgb(115,196,196)" stroke-width="1" opacity="0.984313725490196" d="M 330.5 389 L 331 392.5 L 330 392.5 L 330.5 389 Z " /><path fill="rgb(115,196,196)" stroke="rgb(115,196,196)" stroke-width="1" opacity="0.984313725490196" d="M 331.5 395 L 332 398.5 L 331 398.5 L 331.5 395 Z " /><path fill="rgb(115,196,196)" stroke="rgb(115,196,196)" stroke-width="1" opacity="0.984313725490196" d="M 269.5 399 L 282.5 413 L 269.5 399 Z " /><path fill="rgb(115,196,196)" stroke="rgb(115,196,196)" stroke-width="1" opacity="0.984313725490196" d="M 224.5 411 L 237.5 425 L 224.5 411 Z " /><path fill="rgb(115,196,196)" stroke="rgb(115,196,196)" stroke-width="1" opacity="0.984313725490196" d="M 295.5 424 L 307.5 437 L 295.5 424 Z " /><path fill="rgb(115,196,196)" stroke="rgb(115,196,196)" stroke-width="1" opacity="0.984313725490196" d="M 249.5 435 L 262.5 449 L 249.5 435 Z " /><path fill="rgb(115,196,196)" stroke="rgb(115,196,196)" stroke-width="1" opacity="0.984313725490196" d="M 320.5 448 L 322 450.5 L 301.5 471 L 300 471 L 298.5 474 L 293.5 478 L 300.5 470 L 321 450.5 L 320.5 448 Z " /><path fill="rgb(115,196,196)" stroke="rgb(115,196,196)" stroke-width="1" opacity="0.984313725490196" d="M 275.5 460 L 288.5 474 L 275.5 460 Z " /></svg>