<svg width="512" height="512" version="1.1" xmlns="http://www.w3.org/2000/svg" desc="Created with imagetracer.js version 1.2.6" ><path fill="rgb(248,236,177)" stroke="rgb(248,236,177)" stroke-width="1" opacity="0.9921568627450981" d="M 8 8 Q 30.596 3.233 38 14.5 Q 43.667 22.902 40 40 L 83.5 40 L 84 41.5 Q 78.667 54.042 80 72 L 40 72 L 40 93.5 L 33.5 102 Q 25.098 107.667 8 104 L 8 8 Z " /><path fill="rgb(248,236,177)" stroke="rgb(248,236,177)" stroke-width="1" opacity="0.9921568627450981" d="M 482.5 8 L 503.5 8 L 504 8.5 L 504 104 Q 481.404 108.767 474 97.5 Q 468.333 89.098 472 72 L 336.5 72 Q 335.125 71.625 336 64.5 Q 336.042 49.542 341.5 40 L 471.5 40 L 472 39.5 L 472 18.5 L 478.5 10 L 482.5 8 Z " /><path fill="rgb(167,215,228)" stroke="rgb(167,215,228)" stroke-width="1" opacity="0.996078431372549" d="M 117.5 8 L 127 8.5 Q 101.936 9.436 92 25.5 L 84.5 40 L 84 38.5 Q 89.207 23.707 100.5 15 Q 107.406 9.906 117.5 8 Z " /><path fill="rgb(167,215,228)" stroke="rgb(167,215,228)" stroke-width="1" opacity="0.996078431372549" d="M 373.5 8 L 377 8.5 L 373.5 9 L 373.5 8 Z " /><path fill="rgb(167,215,228)" stroke="rgb(167,215,228)" stroke-width="1" opacity="0.996078431372549" d="M 361.5 12 L 363 12.5 L 360.5 14 L 361.5 12 Z " /><path fill="rgb(167,215,228)" stroke="rgb(167,215,228)" stroke-width="1" opacity="0.996078431372549" d="M 358.5 14 L 357.5 16 L 358.5 14 Z " /><path fill="rgb(167,215,228)" stroke="rgb(167,215,228)" stroke-width="1" opacity="0.996078431372549" d="M 355.5 16 L 348.5 24 L 355.5 16 Z " /><path fill="rgb(167,215,228)" stroke="rgb(167,215,228)" stroke-width="1" opacity="0.996078431372549" d="M 347.5 25 L 346.5 27 L 347.5 25 Z " /><path fill="rgb(167,215,228)" stroke="rgb(167,215,228)" stroke-width="1" opacity="0.996078431372549" d="M 345.5 28 L 345 29.5 L 343.5 33 L 343 31.5 L 345.5 28 Z " /><path fill="rgb(167,215,228)" stroke="rgb(167,215,228)" stroke-width="1" opacity="0.996078431372549" d="M 79.5 440 L 80 455.5 Q 76.957 483.457 59.5 497 Q 50.532 504.532 33.5 504 L 33.5 503 Q 59.121 503.121 68 486.5 Q 80.144 469.644 79.5 440 Z " /><path fill="rgb(167,215,228)" stroke="rgb(167,215,228)" stroke-width="1" opacity="0.996078431372549" d="M 335.5 440 L 336 455.5 Q 332.957 483.457 315.5 497 Q 306.532 504.532 289.5 504 L 289.5 503 Q 314.582 502.582 324 486.5 Q 336.144 469.644 335.5 440 Z " /><path fill="rgb(0,0,0)" stroke="rgb(0,0,0)" stroke-width="1" opacity="0" d="M 0 0 L 512 0 L 512 512 L 0 512 L 0 0 Z M 8 8 L 8 104 Q 25 108 34 102 L 40 94 L 40 72 L 80 72 L 80 440 Q 80 469 68 487 Q 59 503 34 503 L 34 504 L 299 504 Q 309 502 316 497 Q 333 483 336 456 L 336 376 L 432 376 L 432 73 L 433 72 L 472 72 Q 468 89 474 98 L 483 104 L 504 104 L 504 104 L 504 8 Q 487 4 479 10 L 472 19 L 472 40 L 428 40 Q 427 30 420 24 Q 412 11 395 8 L 118 8 Q 107 10 101 15 Q 89 24 84 39 L 84 40 L 40 40 Q 44 23 38 15 Q 31 3 8 8 Z " /><path fill="rgb(168,215,228)" stroke="rgb(168,215,228)" stroke-width="1" opacity="1" d="M 127.5 8 L 373 8.5 Q 355.967 11.467 348 23.5 L 340 39.5 L 340 41.5 L 336 64.5 L 336 136 L 80.5 136 L 80 135.5 L 80 58.5 Q 83.417 29.917 101.5 16 Q 110.958 8.458 127.5 8 Z " /><path fill="rgb(168,215,228)" stroke="rgb(168,215,228)" stroke-width="1" opacity="1" d="M 80 168 L 335.5 168 L 336 168.5 L 336 216 L 80.5 216 L 80 215.5 L 80 168 Z " /><path fill="rgb(168,215,228)" stroke="rgb(168,215,228)" stroke-width="1" opacity="1" d="M 80 248 L 335.5 248 L 336 248.5 L 336 296 L 80.5 296 L 80 295.5 L 80 248 Z " /><path fill="rgb(168,215,228)" stroke="rgb(168,215,228)" stroke-width="1" opacity="1" d="M 80 328 L 336 328 L 336 439.5 Q 336.47 478.97 314.5 496 Q 304.602 503.102 288.5 504 L 43.5 504 L 43.5 503 Q 60.469 500.469 68 488.5 Q 77.735 475.735 80 455.5 L 80 328 Z " /><path fill="rgb(129,180,213)" stroke="rgb(129,180,213)" stroke-width="1" opacity="0.996078431372549" d="M 377.5 8 Q 408.754 5.746 420 23.5 L 428 39.5 L 341 40 Q 344.76 24.566 356.5 16 Q 364.721 9.721 377.5 8 Z " /><path fill="rgb(129,180,213)" stroke="rgb(129,180,213)" stroke-width="1" opacity="0.996078431372549" d="M 336 72 L 431.5 72 L 432 72.5 L 432 376 L 336 376 L 336 328.5 L 335.5 328 L 80.5 328 L 80 327.5 L 80 296 L 335.5 296 L 336 295.5 L 336 248 L 80.5 248 L 80 247.5 L 80 216 L 335.5 216 L 336 215.5 L 336 168 L 80.5 168 L 80 167.5 L 80 136 L 335.5 136 L 336 135.5 L 336 72 Z " /></svg>