<svg width="512" height="512" version="1.1" xmlns="http://www.w3.org/2000/svg" desc="Created with imagetracer.js version 1.2.6" ><path fill="rgb(254,179,50)" stroke="rgb(254,179,50)" stroke-width="1" opacity="0.9882352941176471" d="M 384 336 L 496 336 L 496 448 L 384 448 L 384 336 Z M 439 369 L 417 415 L 417 416 L 464 416 L 441 371 Q 442 368 439 369 Z " /><path fill="rgb(174,102,73)" stroke="rgb(174,102,73)" stroke-width="1" opacity="0.996078431372549" d="M 275.5 223 L 274.5 225 L 275.5 223 Z " /><path fill="rgb(174,102,73)" stroke="rgb(174,102,73)" stroke-width="1" opacity="0.996078431372549" d="M 80.5 228 L 81.5 230 L 80.5 228 Z " /><path fill="rgb(174,102,73)" stroke="rgb(174,102,73)" stroke-width="1" opacity="0.996078431372549" d="M 133.5 265 Q 153.917 272.583 182.5 272 Q 202.411 270.411 218.5 265 Q 254.469 295.785 256 360 Q 228.335 360.915 216 378.5 Q 198.449 395.949 200 432.5 Q 202.214 449.786 210 461.5 Q 196.243 475.243 165.5 472 Q 151.25 469.25 142 461.5 Q 153.708 445.208 152 415.5 Q 147.536 387.964 130.5 373 Q 118.663 360.542 96 360 Q 97.531 295.785 133.5 265 Z " /><path fill="rgb(174,102,73)" stroke="rgb(174,102,73)" stroke-width="1" opacity="0.996078431372549" d="M 327.5 368 L 320.5 376 L 327.5 368 Z " /><path fill="rgb(174,102,73)" stroke="rgb(174,102,73)" stroke-width="1" opacity="0.996078431372549" d="M 318.5 376 L 317.5 378 L 318.5 376 Z " /><path fill="rgb(0,0,0)" stroke="rgb(0,0,0)" stroke-width="1" opacity="0" d="M 0 0 L 512 0 L 512 512 L 0 512 L 0 0 Z M 71 24 Q 58 27 50 34 Q 36 44 32 63 Q 29 89 41 102 Q 50 113 64 119 Q 58 131 56 147 Q 54 208 86 236 L 90 239 Q 68 248 52 263 Q 22 288 16 336 Q 14 360 25 371 Q 34 382 51 384 Q 43 395 40 413 Q 37 450 54 468 Q 65 483 87 488 Q 115 491 128 478 Q 137 472 141 462 Q 151 469 166 472 Q 197 475 211 462 L 214 468 Q 225 483 247 488 Q 275 491 288 478 Q 301 467 308 450 L 309 448 L 496 448 L 496 336 L 440 336 L 440 223 L 387 147 L 384 144 L 328 223 L 328 302 Q 320 284 308 271 Q 289 250 262 239 L 265 237 Q 289 215 296 174 Q 299 139 288 119 L 302 111 Q 316 101 320 82 Q 323 55 311 43 Q 301 29 282 24 Q 254 21 242 34 Q 230 42 226 57 Q 211 51 192 48 Q 151 45 126 57 L 119 43 Q 107 21 71 24 Z " /><path fill="rgb(173,102,67)" stroke="rgb(173,102,67)" stroke-width="1" opacity="1" d="M 161.5 48 Q 235.819 45.681 267 86.5 Q 298.005 113.495 296 173.5 Q 288.564 216.064 261.5 239 Q 231.301 271.301 169.5 272 Q 110.604 266.396 82 230.5 L 80.5 228 Q 78.25 228.75 79 226.5 Q 53.609 201.391 56 148.5 L 57 145.5 Q 64.436 102.936 91.5 80 Q 116.708 54.208 161.5 48 Z M 126 136 L 124 137 L 120 142 L 121 149 L 126 152 L 133 151 L 136 147 L 135 140 Q 133 135 126 136 Z M 222 136 L 220 137 L 216 142 L 217 149 L 222 152 L 229 151 L 232 147 L 231 140 Q 229 135 222 136 Z M 160 160 L 158 161 L 152 168 Q 151 175 154 179 L 167 188 L 168 189 L 168 223 Q 152 222 142 213 Q 128 204 127 184 L 123 180 L 116 181 L 112 186 Q 111 207 122 217 Q 137 235 167 240 Q 202 242 221 226 Q 235 215 240 196 Q 242 187 239 184 L 235 180 L 228 181 L 224 186 Q 224 199 218 206 Q 208 219 188 223 L 184 223 L 184 188 L 196 181 L 200 175 L 199 166 L 193 160 L 160 160 Z " /><path fill="rgb(173,102,67)" stroke="rgb(173,102,67)" stroke-width="1" opacity="1" d="M 383.5 144 L 386 145.5 L 440 223.5 L 328 224 L 383.5 144 Z " /><path fill="rgb(148,87,58)" stroke="rgb(148,87,58)" stroke-width="1" opacity="0.984313725490196" d="M 70.5 24 Q 106.53 21.47 119 42.5 L 126 57.5 Q 101.831 68.331 85 86.5 Q 72.006 99.847 65 118 Q 49.809 113.544 41 101.5 Q 29.052 89.448 32 62.5 Q 36.481 43.981 49.5 34 Q 57.808 26.808 70.5 24 Z " /><path fill="rgb(148,87,58)" stroke="rgb(148,87,58)" stroke-width="1" opacity="0.984313725490196" d="M 262.5 24 Q 298.53 21.47 311 42.5 Q 322.948 54.552 320 81.5 Q 315.25 100.75 301.5 111 L 287 118 Q 277.843 95.415 260.5 80 Q 245.572 66.428 226 57.5 Q 230.178 42.178 241.5 34 Q 249.808 26.808 262.5 24 Z " /><path fill="rgb(148,87,58)" stroke="rgb(148,87,58)" stroke-width="1" opacity="0.984313725490196" d="M 154.5 178 L 156.5 181 L 154.5 178 Z " /><path fill="rgb(148,87,58)" stroke="rgb(148,87,58)" stroke-width="1" opacity="0.984313725490196" d="M 197.5 178 L 195.5 181 L 197.5 178 Z " /><path fill="rgb(148,87,58)" stroke="rgb(148,87,58)" stroke-width="1" opacity="0.984313725490196" d="M 162.5 184 L 163.5 186 L 162.5 184 Z " /><path fill="rgb(148,87,58)" stroke="rgb(148,87,58)" stroke-width="1" opacity="0.984313725490196" d="M 189.5 184 L 188.5 186 L 189.5 184 Z " /><path fill="rgb(148,87,58)" stroke="rgb(148,87,58)" stroke-width="1" opacity="0.984313725490196" d="M 112.5 193 L 113 195.5 L 112 195.5 L 112.5 193 Z " /><path fill="rgb(148,87,58)" stroke="rgb(148,87,58)" stroke-width="1" opacity="0.984313725490196" d="M 239.5 193 L 240 195.5 L 239 195.5 L 239.5 193 Z " /><path fill="rgb(148,87,58)" stroke="rgb(148,87,58)" stroke-width="1" opacity="0.984313725490196" d="M 135.5 207 L 139.5 212 L 135.5 207 Z " /><path fill="rgb(148,87,58)" stroke="rgb(148,87,58)" stroke-width="1" opacity="0.984313725490196" d="M 216.5 207 L 212.5 212 L 216.5 207 Z " /><path fill="rgb(148,87,58)" stroke="rgb(148,87,58)" stroke-width="1" opacity="0.984313725490196" d="M 119.5 212 L 120.5 214 L 119.5 212 Z " /><path fill="rgb(148,87,58)" stroke="rgb(148,87,58)" stroke-width="1" opacity="0.984313725490196" d="M 232.5 212 L 231.5 214 L 232.5 212 Z " /><path fill="rgb(148,87,58)" stroke="rgb(148,87,58)" stroke-width="1" opacity="0.984313725490196" d="M 142.5 213 L 143.5 215 L 142.5 213 Z " /><path fill="rgb(148,87,58)" stroke="rgb(148,87,58)" stroke-width="1" opacity="0.984313725490196" d="M 209.5 213 L 208.5 215 L 209.5 213 Z " /><path fill="rgb(148,87,58)" stroke="rgb(148,87,58)" stroke-width="1" opacity="0.984313725490196" d="M 122.5 216 L 124.5 219 L 122.5 216 Z " /><path fill="rgb(148,87,58)" stroke="rgb(148,87,58)" stroke-width="1" opacity="0.984313725490196" d="M 229.5 216 L 227.5 219 L 229.5 216 Z " /><path fill="rgb(148,87,58)" stroke="rgb(148,87,58)" stroke-width="1" opacity="0.984313725490196" d="M 128.5 222 L 130.5 225 L 128.5 222 Z " /><path fill="rgb(148,87,58)" stroke="rgb(148,87,58)" stroke-width="1" opacity="0.984313725490196" d="M 161.5 222 L 164 222.5 L 161.5 223 L 161.5 222 Z " /><path fill="rgb(148,87,58)" stroke="rgb(148,87,58)" stroke-width="1" opacity="0.984313725490196" d="M 188.5 222 L 191 222.5 L 188.5 223 L 188.5 222 Z " /><path fill="rgb(148,87,58)" stroke="rgb(148,87,58)" stroke-width="1" opacity="0.984313725490196" d="M 223.5 222 L 220.5 226 L 223.5 222 Z " /><path fill="rgb(148,87,58)" stroke="rgb(148,87,58)" stroke-width="1" opacity="0.984313725490196" d="M 133.5 226 L 134.5 228 L 133.5 226 Z " /><path fill="rgb(148,87,58)" stroke="rgb(148,87,58)" stroke-width="1" opacity="0.984313725490196" d="M 89.5 239 Q 107.418 255.948 133 264 Q 97.678 295.299 96 360 Q 65.785 361.945 53 382.5 Q 53.583 385.25 47.5 384 Q 32.907 380.593 25 370.5 Q 13.5 360 16 335.5 Q 22.122 287.622 51.5 263 Q 67.723 248.223 89.5 239 Z " /><path fill="rgb(148,87,58)" stroke="rgb(148,87,58)" stroke-width="1" opacity="0.984313725490196" d="M 166.5 239 L 170 239.5 L 166.5 240 L 166.5 239 Z " /><path fill="rgb(148,87,58)" stroke="rgb(148,87,58)" stroke-width="1" opacity="0.984313725490196" d="M 182.5 239 L 186 239.5 L 182.5 240 L 182.5 239 Z " /><path fill="rgb(148,87,58)" stroke="rgb(148,87,58)" stroke-width="1" opacity="0.984313725490196" d="M 260.5 239 Q 289.766 249.234 308 270.5 Q 334 296.5 336 346.5 Q 333.544 367.044 319.5 376 Q 311.5 382 299.5 384 L 291.5 374 Q 279.653 360.403 256 360 Q 254.322 295.299 219 264 Q 244.178 256.393 260.5 239 Z " /><path fill="rgb(148,87,58)" stroke="rgb(148,87,58)" stroke-width="1" opacity="0.984313725490196" d="M 100.5 360 L 104 360.5 L 100.5 361 L 100.5 360 Z " /><path fill="rgb(148,87,58)" stroke="rgb(148,87,58)" stroke-width="1" opacity="0.984313725490196" d="M 248.5 360 L 252 360.5 L 248.5 361 L 248.5 360 Z " /><path fill="rgb(148,87,58)" stroke="rgb(148,87,58)" stroke-width="1" opacity="0.984313725490196" d="M 122.5 367 L 123.5 369 L 122.5 367 Z " /><path fill="rgb(148,87,58)" stroke="rgb(148,87,58)" stroke-width="1" opacity="0.984313725490196" d="M 229.5 367 L 228.5 369 L 229.5 367 Z " /><path fill="rgb(148,87,58)" stroke="rgb(148,87,58)" stroke-width="1" opacity="0.984313725490196" d="M 125.5 369 L 126.5 371 L 125.5 369 Z " /><path fill="rgb(148,87,58)" stroke="rgb(148,87,58)" stroke-width="1" opacity="0.984313725490196" d="M 130.5 373 L 135.5 379 L 130.5 373 Z " /><path fill="rgb(148,87,58)" stroke="rgb(148,87,58)" stroke-width="1" opacity="0.984313725490196" d="M 220.5 374 L 216.5 379 L 220.5 374 Z " /><path fill="rgb(148,87,58)" stroke="rgb(148,87,58)" stroke-width="1" opacity="0.984313725490196" d="M 137.5 381 L 138.5 383 L 137.5 381 Z " /><path fill="rgb(148,87,58)" stroke="rgb(148,87,58)" stroke-width="1" opacity="0.984313725490196" d="M 214.5 381 L 212.5 384 L 214.5 381 Z " /><path fill="rgb(148,87,58)" stroke="rgb(148,87,58)" stroke-width="1" opacity="0.984313725490196" d="M 151.5 415 L 152 418.5 L 151 418.5 L 151.5 415 Z " /><path fill="rgb(148,87,58)" stroke="rgb(148,87,58)" stroke-width="1" opacity="0.984313725490196" d="M 200.5 415 L 201 418.5 L 200 418.5 L 200.5 415 Z " /><path fill="rgb(148,87,58)" stroke="rgb(148,87,58)" stroke-width="1" opacity="0.984313725490196" d="M 151.5 429 L 152 432.5 L 151 432.5 L 151.5 429 Z " /><path fill="rgb(148,87,58)" stroke="rgb(148,87,58)" stroke-width="1" opacity="0.984313725490196" d="M 200.5 429 L 201 432.5 L 200 432.5 L 200.5 429 Z " /><path fill="rgb(94,175,203)" stroke="rgb(94,175,203)" stroke-width="1" opacity="1" d="M 328 224 L 440 224 L 440 336 L 384 336 L 384 448 L 309 448 Q 313.781 436.078 312 416.5 Q 309.047 397.124 301 384 Q 320.119 380.38 330 366.5 Q 338.4 356.9 336 336.5 Q 334.262 319.238 328 306.5 L 328 224 Z " /><path fill="rgb(94,175,203)" stroke="rgb(94,175,203)" stroke-width="1" opacity="1" d="M 439 369 Q 441.667 367.875 441 370.5 L 464 415.5 L 416.5 416 L 417 414.5 L 439 369 Z " /><path fill="rgb(98,123,93)" stroke="rgb(98,123,93)" stroke-width="1" opacity="0.8666666666666667" d="M 335.5 336 L 336 341.5 L 335 341.5 L 335.5 336 Z " /><path fill="rgb(98,123,93)" stroke="rgb(98,123,93)" stroke-width="1" opacity="0.8666666666666667" d="M 335.5 349 L 336 352.5 L 335 352.5 L 335.5 349 Z " /><path fill="rgb(98,123,93)" stroke="rgb(98,123,93)" stroke-width="1" opacity="0.8666666666666667" d="M 332.5 360 L 333 361.5 L 331 362.5 L 332.5 360 Z " /><path fill="rgb(98,123,93)" stroke="rgb(98,123,93)" stroke-width="1" opacity="0.8666666666666667" d="M 329.5 366 L 328.5 368 L 329.5 366 Z " /><path fill="rgb(98,123,93)" stroke="rgb(98,123,93)" stroke-width="1" opacity="0.8666666666666667" d="M 301.5 383 L 304 383.5 L 301 384 L 304 390.5 L 303 390.5 L 300 384.5 L 301.5 383 Z " /><path fill="rgb(98,123,93)" stroke="rgb(98,123,93)" stroke-width="1" opacity="0.8666666666666667" d="M 311.5 431 L 312 435.5 L 311 435.5 L 311.5 431 Z " /><path fill="rgb(98,123,93)" stroke="rgb(98,123,93)" stroke-width="1" opacity="0.8666666666666667" d="M 310.5 438 L 311 440.5 L 310 440.5 L 310.5 438 Z " /><path fill="rgb(98,123,93)" stroke="rgb(98,123,93)" stroke-width="1" opacity="0.8666666666666667" d="M 309.5 442 L 310 444.5 L 309 444.5 L 309.5 442 Z " /><path fill="rgb(122,72,48)" stroke="rgb(122,72,48)" stroke-width="1" opacity="0.9921568627450981" d="M 126.5 136 L 134 138 L 136 145.5 L 134 150 L 126.5 152 L 122 150 L 120 142.5 L 122 138 L 126.5 136 Z " /><path fill="rgb(122,72,48)" stroke="rgb(122,72,48)" stroke-width="1" opacity="0.9921568627450981" d="M 222.5 136 L 230 138 L 232 145.5 L 230 150 L 222.5 152 L 218 150 L 216 142.5 L 218 138 L 222.5 136 Z " /><path fill="rgb(122,72,48)" stroke="rgb(122,72,48)" stroke-width="1" opacity="0.9921568627450981" d="M 160.5 160 L 191.5 160 L 198 164.5 Q 200.571 167.429 200 173.5 L 193.5 182 L 184 188.5 L 184 223.5 L 185.5 224 Q 205.885 220.385 217 207.5 Q 225.049 197.901 226 182 L 233.5 180 L 238 182 Q 240.857 184.929 240 192.5 Q 236.737 211.737 224.5 222 Q 206.528 240.028 170.5 240 Q 140.746 236.754 125 219.5 Q 112.482 209.018 112 186.5 L 114 182 L 121.5 180 L 126 182 Q 127.25 202 139.5 212 Q 150.553 221.71 168 224 L 168 188.5 L 166.5 187 L 154 177.5 Q 151.333 175.167 152 169.5 L 156.5 162 L 160.5 160 Z " /><path fill="rgb(122,72,48)" stroke="rgb(122,72,48)" stroke-width="1" opacity="0.9921568627450981" d="M 89.5 360 Q 123.48 360.02 137 380.5 Q 152.375 396.625 152 428.5 Q 148.452 461.952 127.5 478 Q 114.969 490.969 86.5 488 Q 65.082 482.918 54 467.5 Q 36.977 450.023 40 412.5 Q 43.1 395.45 51 384 Q 53.667 385.125 53 382.5 Q 65.13 365.13 89.5 360 Z " /><path fill="rgb(122,72,48)" stroke="rgb(122,72,48)" stroke-width="1" opacity="0.9921568627450981" d="M 252.5 360 Q 280.883 359.617 293 375.5 Q 312.022 393.478 312 430.5 Q 308.351 462.851 287.5 478 Q 274.969 490.969 246.5 488 Q 225.082 482.918 214 467.5 Q 199.794 450.706 200 419.5 Q 203.868 386.868 224.5 371 Q 234.85 361.85 252.5 360 Z " /></svg>