<svg width="512" height="512" version="1.1" xmlns="http://www.w3.org/2000/svg" desc="Created with imagetracer.js version 1.2.6" ><path fill="rgb(93,157,213)" stroke="rgb(93,157,213)" stroke-width="1" opacity="1" d="M 319.5 72 L 320 75.5 L 319 75.5 L 319.5 72 Z " /><path fill="rgb(93,157,213)" stroke="rgb(93,157,213)" stroke-width="1" opacity="1" d="M 318.5 85 L 319 90.5 L 318 90.5 L 318.5 85 Z " /><path fill="rgb(93,157,213)" stroke="rgb(93,157,213)" stroke-width="1" opacity="1" d="M 317.5 97 L 318 101.5 L 317 101.5 L 317.5 97 Z " /><path fill="rgb(93,157,213)" stroke="rgb(93,157,213)" stroke-width="1" opacity="1" d="M 316.5 106 L 317 109.5 L 316 109.5 L 316.5 106 Z " /><path fill="rgb(93,157,213)" stroke="rgb(93,157,213)" stroke-width="1" opacity="1" d="M 315.5 114 L 316 116.5 L 315 116.5 L 315.5 114 Z " /><path fill="rgb(93,157,213)" stroke="rgb(93,157,213)" stroke-width="1" opacity="1" d="M 314.5 120 L 315 122.5 L 314 122.5 L 314.5 120 Z " /><path fill="rgb(93,157,213)" stroke="rgb(93,157,213)" stroke-width="1" opacity="1" d="M 267.5 256 L 266.5 258 L 267.5 256 Z " /><path fill="rgb(93,157,213)" stroke="rgb(93,157,213)" stroke-width="1" opacity="1" d="M 264.5 261 L 263.5 263 L 264.5 261 Z " /><path fill="rgb(93,157,213)" stroke="rgb(93,157,213)" stroke-width="1" opacity="1" d="M 258.5 271 L 257.5 273 L 258.5 271 Z " /><path fill="rgb(93,157,213)" stroke="rgb(93,157,213)" stroke-width="1" opacity="1" d="M 256.5 274 L 255.5 276 L 256.5 274 Z " /><path fill="rgb(64,95,133)" stroke="rgb(64,95,133)" stroke-width="1" opacity="0.996078431372549" d="M 61.5 56 L 450.5 56 L 455 59.5 L 456 61.5 L 456 290.5 L 452.5 295 L 450.5 296 L 422 296 L 435 321.5 L 436 329.5 L 432.5 336 L 406.5 336 L 406 334.5 L 387 298.5 L 384.5 296 L 303.5 296 L 286.5 312 L 224.5 312 L 207.5 296 L 127.5 296 L 106 336 L 79.5 336 L 78 334.5 Q 75.286 331.214 76 324.5 L 90 296 L 60.5 296 L 56 291.5 L 56 61.5 L 59.5 57 L 61.5 56 Z M 72 72 L 72 280 L 440 280 L 440 72 L 72 72 Z " /><path fill="rgb(64,95,133)" stroke="rgb(64,95,133)" stroke-width="1" opacity="0.996078431372549" d="M 286.5 400 L 294 402 Q 298.714 409.107 296 425.5 L 294 430 L 286.5 432 L 282 430 Q 277.286 422.893 280 406.5 L 282 402 L 286.5 400 Z " /><path fill="rgb(64,95,133)" stroke="rgb(64,95,133)" stroke-width="1" opacity="0.996078431372549" d="M 263.5 401 L 264 464 L 248 464 L 248 436.5 Q 257.344 420.344 263.5 401 Z " /><path fill="rgb(101,168,220)" stroke="rgb(101,168,220)" stroke-width="1" opacity="1" d="M 72 72 L 318.5 72 Q 320.25 72.75 319 82.5 Q 307.005 202.763 253 280 L 72 280 L 72 72 Z " /><path fill="rgb(66,121,189)" stroke="rgb(66,121,189)" stroke-width="1" opacity="1" d="M 320 72 L 440 72 L 440 280 L 253 279.5 Q 311.376 200.053 320 72 Z " /><path fill="rgb(219,148,98)" stroke="rgb(219,148,98)" stroke-width="1" opacity="0.996078431372549" d="M 42.5 336 L 469.5 336 L 478 342.5 L 480 346.5 L 480 373.5 L 473.5 382 Q 470.25 385 464 384 L 464 453.5 L 457.5 462 L 453.5 464 L 264 464 L 263.5 401 Q 257.344 420.344 248 436.5 L 248 464 L 58.5 464 L 50 457.5 L 48 453.5 L 48 384 Q 37.325 385.3 34 377.5 L 32 373.5 L 32 346.5 L 38.5 338 L 42.5 336 Z M 287 400 L 282 402 L 280 407 Q 277 423 282 430 L 287 432 L 294 430 L 296 426 Q 299 409 294 402 L 287 400 Z " /><path fill="rgb(0,0,0)" stroke="rgb(0,0,0)" stroke-width="1" opacity="0" d="M 0 0 L 512 0 L 512 512 L 0 512 L 0 0 Z M 62 56 L 60 57 L 56 62 L 56 292 L 61 296 L 90 296 L 76 325 Q 75 332 79 336 L 43 336 L 39 338 L 32 347 L 32 374 L 34 378 Q 37 385 48 384 L 48 454 L 50 458 L 59 464 L 454 464 L 458 462 L 464 454 L 464 384 Q 470 385 474 382 L 480 374 L 480 347 L 478 343 L 470 336 L 433 336 L 436 330 L 435 322 L 422 296 L 451 296 L 453 295 L 456 291 L 456 62 L 455 60 L 451 56 L 62 56 Z " /><path fill="rgb(0,0,0)" stroke="rgb(0,0,0)" stroke-width="1" opacity="0" d="M 127.5 296 L 207.5 296 L 224.5 312 L 286.5 312 L 303.5 296 L 384.5 296 L 387 298.5 L 406 336 L 106.5 336 L 106 334.5 L 127.5 296 Z " /></svg>