<svg width="512" height="512" version="1.1" xmlns="http://www.w3.org/2000/svg" desc="Created with imagetracer.js version 1.2.6" ><path fill="rgb(27,73,98)" stroke="rgb(27,73,98)" stroke-width="1" opacity="0.9647058823529412" d="M 255.5 250 L 264 251 L 264 403.5 L 263.5 404 L 248 404 L 248 251.5 Q 248.25 250.25 254.5 251 L 255.5 250 Z " /><path fill="rgb(54,160,231)" stroke="rgb(54,160,231)" stroke-width="1" opacity="0.9764705882352941" d="M 252.5 0 Q 262.25 -1.75 264 4.5 L 264 31 L 248 31 L 248 4.5 L 252.5 0 Z " /><path fill="rgb(54,160,231)" stroke="rgb(54,160,231)" stroke-width="1" opacity="0.9764705882352941" d="M 266.5 31 Q 390.995 42.005 450 118.5 Q 502.442 173.558 512 271.5 L 510.5 271 Q 492.877 249.123 451.5 251 Q 424.347 255.347 409.5 272 Q 402.979 130.521 326.5 59 Q 303.261 37.154 266.5 31 Z " /><path fill="rgb(54,160,231)" stroke="rgb(54,160,231)" stroke-width="1" opacity="0.9764705882352941" d="M 240 403 Q 249.875 404.75 263.5 404 Q 265.562 401 272 403 L 272 469.5 Q 269.5 471 271 476.5 Q 267.209 491.209 257.5 500 Q 245.757 515.257 215.5 512 Q 196.731 507.269 187 493.5 Q 178.167 482.833 178 463.5 Q 179.375 455.375 185.5 452 Q 189.5 448.5 198.5 450 L 207 455.5 Q 211.424 461.076 211 471.5 L 216.5 478 L 225.5 481 Q 234.023 479.523 238 473.5 L 240 468.5 L 240 403 Z " /><path fill="rgb(0,0,0)" stroke="rgb(0,0,0)" stroke-width="1" opacity="0" d="M 0 0 L 252 0.5 L 248 4.5 L 248 31 Q 121.825 41.009 62 118.5 Q 11.363 171.863 0.5 265 L 0 0 Z " /><path fill="rgb(0,0,0)" stroke="rgb(0,0,0)" stroke-width="1" opacity="0" d="M 260.5 0 L 512 0 L 512 264.5 L 511 264.5 Q 496.079 149.421 423.5 92 Q 367.085 37.596 264 31 L 264 4.5 L 260.5 0 Z " /><path fill="rgb(0,0,0)" stroke="rgb(0,0,0)" stroke-width="1" opacity="0" d="M 42.5 251 Q 84.525 249.975 103.5 272 Q 121.02 249.52 162.5 251 Q 190.133 255.367 205.5 272 Q 220.375 255.375 247.5 251 L 248 403 Q 240.563 402 240 403.5 L 240 468.5 Q 238.464 474.964 233.5 478 L 224.5 481 Q 216.705 479.795 213 474.5 Q 208.576 468.924 209 458.5 L 204.5 453 Q 200 448.5 189.5 450 L 180 457.5 L 178 467.5 Q 180.822 492.678 197.5 504 Q 204.627 509.373 215 511.5 L 0 512 L 0 272.5 L 2.5 270 Q 17.054 255.054 42.5 251 Z " /><path fill="rgb(0,0,0)" stroke="rgb(0,0,0)" stroke-width="1" opacity="0" d="M 264.5 251 Q 292.133 255.367 307.5 272 Q 325.706 249.706 367.5 251 Q 394.252 255.748 409.5 272 Q 427.752 249.752 469.5 251 Q 496.483 256.017 512 272.5 L 512 512 L 235.5 512 L 235.5 511 Q 250.454 507.954 259 498.5 Q 269.891 488.391 272 469.5 L 272 403 Q 264.562 404 264 402.5 L 264.5 251 Z " /><path fill="rgb(255,65,130)" stroke="rgb(255,65,130)" stroke-width="1" opacity="0.47843137254901963" d="M 232.5 31 L 242 31.5 L 232.5 32 L 232.5 31 Z " /><path fill="rgb(255,65,130)" stroke="rgb(255,65,130)" stroke-width="1" opacity="0.47843137254901963" d="M 223.5 32 L 230 32.5 L 223.5 33 L 223.5 32 Z " /><path fill="rgb(255,65,130)" stroke="rgb(255,65,130)" stroke-width="1" opacity="0.47843137254901963" d="M 216.5 33 L 222 33.5 L 216.5 34 L 216.5 33 Z " /><path fill="rgb(255,65,130)" stroke="rgb(255,65,130)" stroke-width="1" opacity="0.47843137254901963" d="M 210.5 34 L 215 34.5 L 210.5 35 L 210.5 34 Z " /><path fill="rgb(255,65,130)" stroke="rgb(255,65,130)" stroke-width="1" opacity="0.47843137254901963" d="M 205.5 35 L 209 35.5 L 205.5 36 L 205.5 35 Z " /><path fill="rgb(255,65,130)" stroke="rgb(255,65,130)" stroke-width="1" opacity="0.47843137254901963" d="M 200.5 36 L 204 36.5 L 200.5 37 L 200.5 36 Z " /><path fill="rgb(255,65,130)" stroke="rgb(255,65,130)" stroke-width="1" opacity="0.47843137254901963" d="M 196.5 37 L 199 37.5 L 196.5 38 L 196.5 37 Z " /><path fill="rgb(255,65,130)" stroke="rgb(255,65,130)" stroke-width="1" opacity="0.47843137254901963" d="M 192.5 38 L 195 38.5 L 192.5 39 L 192.5 38 Z " /><path fill="rgb(255,65,130)" stroke="rgb(255,65,130)" stroke-width="1" opacity="0.47843137254901963" d="M 188.5 39 L 191 39.5 L 188.5 40 L 188.5 39 Z " /><path fill="rgb(255,65,130)" stroke="rgb(255,65,130)" stroke-width="1" opacity="0.47843137254901963" d="M 184.5 40 L 187 40.5 L 181.5 42 L 181.5 41 L 184.5 40 Z " /><path fill="rgb(255,65,130)" stroke="rgb(255,65,130)" stroke-width="1" opacity="0.47843137254901963" d="M 169.5 45 L 171 45.5 L 164.5 48 L 164.5 47 L 169.5 45 Z " /><path fill="rgb(255,65,130)" stroke="rgb(255,65,130)" stroke-width="1" opacity="0.47843137254901963" d="M 161.5 48 L 163 48.5 L 159.5 50 L 159.5 49 L 161.5 48 Z " /><path fill="rgb(255,65,130)" stroke="rgb(255,65,130)" stroke-width="1" opacity="0.47843137254901963" d="M 156.5 50 L 158 50.5 L 152.5 53 L 152.5 52 L 156.5 50 Z " /><path fill="rgb(255,65,130)" stroke="rgb(255,65,130)" stroke-width="1" opacity="0.47843137254901963" d="M 149.5 53 L 151 53.5 L 132.5 63 L 133.5 61 L 149.5 53 Z " /><path fill="rgb(255,65,130)" stroke="rgb(255,65,130)" stroke-width="1" opacity="0.47843137254901963" d="M 130.5 63 L 129.5 65 Q 90.75 86.25 63 118.5 Q 39.286 145.286 23.5 180 L 23 178.5 Q 47.652 127.152 88.5 92 Q 107.195 75.195 130.5 63 Z " /><path fill="rgb(255,65,130)" stroke="rgb(255,65,130)" stroke-width="1" opacity="0.47843137254901963" d="M 22.5 181 L 23 182.5 L 19.5 189 L 19 187.5 L 22.5 181 Z " /><path fill="rgb(255,65,130)" stroke="rgb(255,65,130)" stroke-width="1" opacity="0.47843137254901963" d="M 18.5 190 L 19 191.5 L 10.5 215 L 10 212.5 L 18.5 190 Z " /><path fill="rgb(255,65,130)" stroke="rgb(255,65,130)" stroke-width="1" opacity="0.47843137254901963" d="M 9.5 216 L 10 218.5 L 8.5 222 L 8 219.5 L 9.5 216 Z " /><path fill="rgb(255,65,130)" stroke="rgb(255,65,130)" stroke-width="1" opacity="0.47843137254901963" d="M 7.5 223 L 8 225.5 L 7 225.5 L 7.5 223 Z " /><path fill="rgb(255,65,130)" stroke="rgb(255,65,130)" stroke-width="1" opacity="0.47843137254901963" d="M 6.5 227 L 7 230.5 L 6 230.5 L 6.5 227 Z " /><path fill="rgb(255,65,130)" stroke="rgb(255,65,130)" stroke-width="1" opacity="0.47843137254901963" d="M 5.5 232 L 6 234.5 L 5 234.5 L 5.5 232 Z " /><path fill="rgb(255,65,130)" stroke="rgb(255,65,130)" stroke-width="1" opacity="0.47843137254901963" d="M 4.5 236 L 5 240.5 L 4 240.5 L 4.5 236 Z " /><path fill="rgb(255,65,130)" stroke="rgb(255,65,130)" stroke-width="1" opacity="0.47843137254901963" d="M 3.5 242 L 4 245.5 L 3 245.5 L 3.5 242 Z " /><path fill="rgb(255,65,130)" stroke="rgb(255,65,130)" stroke-width="1" opacity="0.47843137254901963" d="M 2.5 248 L 3 252.5 L 2 252.5 L 2.5 248 Z " /><path fill="rgb(255,65,130)" stroke="rgb(255,65,130)" stroke-width="1" opacity="0.47843137254901963" d="M 44.5 250 L 59 250.5 L 44.5 251 L 44.5 250 Z " /><path fill="rgb(255,65,130)" stroke="rgb(255,65,130)" stroke-width="1" opacity="0.47843137254901963" d="M 147.5 250 L 161 250.5 L 147.5 251 L 147.5 250 Z " /><path fill="rgb(255,65,130)" stroke="rgb(255,65,130)" stroke-width="1" opacity="0.47843137254901963" d="M 37.5 251 L 42 251.5 L 37.5 252 L 37.5 251 Z " /><path fill="rgb(255,65,130)" stroke="rgb(255,65,130)" stroke-width="1" opacity="0.47843137254901963" d="M 61.5 251 L 66 251.5 L 61.5 252 L 61.5 251 Z " /><path fill="rgb(255,65,130)" stroke="rgb(255,65,130)" stroke-width="1" opacity="0.47843137254901963" d="M 140.5 251 L 144 251.5 L 140.5 252 L 140.5 251 Z " /><path fill="rgb(255,65,130)" stroke="rgb(255,65,130)" stroke-width="1" opacity="0.47843137254901963" d="M 163.5 251 L 168 251.5 L 163.5 252 L 163.5 251 Z " /><path fill="rgb(255,65,130)" stroke="rgb(255,65,130)" stroke-width="1" opacity="0.47843137254901963" d="M 33.5 252 L 36 252.5 L 33.5 253 L 33.5 252 Z " /><path fill="rgb(255,65,130)" stroke="rgb(255,65,130)" stroke-width="1" opacity="0.47843137254901963" d="M 67.5 252 L 70 252.5 L 67.5 253 L 67.5 252 Z " /><path fill="rgb(255,65,130)" stroke="rgb(255,65,130)" stroke-width="1" opacity="0.47843137254901963" d="M 136.5 252 L 139 252.5 L 136.5 253 L 136.5 252 Z " /><path fill="rgb(255,65,130)" stroke="rgb(255,65,130)" stroke-width="1" opacity="0.47843137254901963" d="M 169.5 252 L 172 252.5 L 169.5 253 L 169.5 252 Z " /><path fill="rgb(255,65,130)" stroke="rgb(255,65,130)" stroke-width="1" opacity="0.47843137254901963" d="M 71.5 253 L 76 254.5 L 74.5 255 Q 70.75 254.75 71.5 253 Z " /><path fill="rgb(255,65,130)" stroke="rgb(255,65,130)" stroke-width="1" opacity="0.47843137254901963" d="M 173.5 253 L 178 254.5 L 176.5 255 Q 172.75 254.75 173.5 253 Z " /><path fill="rgb(255,65,130)" stroke="rgb(255,65,130)" stroke-width="1" opacity="0.47843137254901963" d="M 1.5 255 L 2 261.5 L 1 261.5 L 1.5 255 Z " /><path fill="rgb(255,65,130)" stroke="rgb(255,65,130)" stroke-width="1" opacity="0.47843137254901963" d="M 24.5 255 L 26 255.5 Q 10.804 261.304 0.5 272 L 0 265.5 L 1 265.5 L 1.5 270 Q 11.072 260.572 24.5 255 Z " /><path fill="rgb(255,65,130)" stroke="rgb(255,65,130)" stroke-width="1" opacity="0.47843137254901963" d="M 77.5 255 L 83 257.5 L 81.5 258 Q 76.833 257.167 77.5 255 Z " /><path fill="rgb(255,65,130)" stroke="rgb(255,65,130)" stroke-width="1" opacity="0.47843137254901963" d="M 126.5 255 L 128 255.5 L 117.5 261 L 118.5 259 L 126.5 255 Z " /><path fill="rgb(255,65,130)" stroke="rgb(255,65,130)" stroke-width="1" opacity="0.47843137254901963" d="M 186.5 258 L 189 259.5 L 187.5 259 L 186.5 258 Z " /><path fill="rgb(255,65,130)" stroke="rgb(255,65,130)" stroke-width="1" opacity="0.47843137254901963" d="M 86.5 259 L 103.5 271 L 115.5 261 L 114.5 263 L 102.5 272 L 87.5 261 L 86.5 259 Z " /><path fill="rgb(255,65,130)" stroke="rgb(255,65,130)" stroke-width="1" opacity="0.47843137254901963" d="M 190.5 260 L 205 271.5 L 199.5 267 Q 191.894 264.481 190.5 260 Z " /><path fill="rgb(254,65,128)" stroke="rgb(254,65,128)" stroke-width="1" opacity="0.996078431372549" d="M 242.5 31 L 249 31.5 L 242.5 32 L 242.5 31 Z " /><path fill="rgb(254,65,128)" stroke="rgb(254,65,128)" stroke-width="1" opacity="0.996078431372549" d="M 230.5 32 L 241 32.5 Q 196.123 42.123 172 72.5 Q 109.18 143.68 102.5 271 Q 84.925 249.075 44.5 250 Q 16.866 253.866 1.5 270 L 1 262.5 Q 17.232 152.232 86.5 95 Q 139.609 44.609 230.5 32 Z " /><path fill="rgb(254,158,77)" stroke="rgb(254,158,77)" stroke-width="1" opacity="0.996078431372549" d="M 249.5 31 Q 266.536 28.964 270 40.5 Q 290.176 75.824 296 125.5 Q 306.71 193.29 307 271.5 L 300.5 266 Q 282.995 250.005 249.5 250 Q 221.295 254.795 205.5 272 Q 188.139 249.361 147.5 250 Q 118.417 253.417 103.5 271 L 103 264.5 Q 110.98 136.48 177.5 67 Q 202.774 38.274 249.5 31 Z " /><path fill="rgb(133,194,80)" stroke="rgb(133,194,80)" stroke-width="1" opacity="0.996078431372549" d="M 259.5 31 Q 315.6 37.9 342 74.5 Q 403.522 144.978 409 271.5 L 402.5 266 Q 385.365 249.135 349.5 251 Q 322.139 255.139 307.5 272 Q 306.585 183.915 293 108.5 Q 287.976 81.024 279 57.5 Q 273.904 42.096 262.5 33 Q 258.75 32.75 259.5 31 Z " /><path fill="rgb(133,194,80)" stroke="rgb(133,194,80)" stroke-width="1" opacity="0.996078431372549" d="M 249.5 250 L 255 250.5 L 249.5 251 L 249.5 250 Z " /><path fill="rgb(133,194,80)" stroke="rgb(133,194,80)" stroke-width="1" opacity="0.996078431372549" d="M 257.5 250 L 263 250.5 L 257.5 251 L 257.5 250 Z " /></svg>