<svg width="512" height="512" version="1.1" xmlns="http://www.w3.org/2000/svg" desc="Created with imagetracer.js version 1.2.6" ><path fill="rgb(0,0,0)" stroke="rgb(0,0,0)" stroke-width="1" opacity="0" d="M 0 0 L 512 0 L 512 512 L 0 512 L 0 0 Z M 252 12 L 242 16 Q 233 22 230 34 Q 229 47 235 54 Q 240 61 249 63 Q 252 69 250 84 L 236 85 L 212 103 Q 188 113 159 117 Q 147 120 140 126 Q 120 143 113 173 Q 89 308 44 423 Q 43 430 46 434 L 46 437 L 38 453 Q 37 460 40 464 Q 53 476 74 480 Q 81 482 85 479 Q 94 471 96 456 L 104 453 Q 109 448 111 440 Q 118 405 130 376 Q 137 358 149 344 L 152 372 L 153 373 L 153 380 L 154 381 L 153 398 L 143 426 Q 141 443 148 452 L 156 458 L 158 461 Q 156 481 162 494 Q 165 498 172 500 L 341 500 L 347 497 Q 352 493 353 486 L 354 462 L 355 460 L 358 458 Q 366 452 369 441 L 369 426 Q 361 412 358 393 Q 357 367 364 350 Q 362 342 366 343 Q 376 358 383 377 Q 392 398 396 425 L 406 451 Q 409 456 416 456 L 423 475 L 430 480 Q 455 479 470 466 L 474 460 Q 474 444 466 437 L 468 430 L 468 423 Q 441 357 423 283 Q 407 230 400 170 Q 393 146 380 130 Q 372 122 360 117 Q 326 114 301 103 L 277 85 L 262 84 Q 265 65 257 56 L 248 50 Q 242 47 241 40 L 243 31 Q 246 24 255 23 L 264 25 Q 271 29 271 41 L 276 44 L 280 43 L 282 40 Q 282 28 277 23 Q 270 11 252 12 Z " /><path fill="rgb(238,240,246)" stroke="rgb(238,240,246)" stroke-width="1" opacity="0.996078431372549" d="M 209.5 103 L 216 108.5 L 225.5 119 L 230.5 122 Q 239.236 109.736 261.5 111 Q 273.867 114.633 282.5 122 L 296 109.5 L 301.5 103 Q 321.505 106.495 337 114.5 Q 315.228 177.228 281.5 228 L 280 224.5 L 280 218.5 L 278 211.5 L 278 205.5 Q 270.984 183.016 270 154.5 L 265.5 150 L 255.5 143 L 242 154.5 Q 241.016 183.016 234 205.5 L 234 211.5 L 232 218.5 L 232 224.5 L 230.5 228 Q 196.772 177.228 175 114.5 L 176.5 113 L 209.5 103 Z " /><path fill="rgb(238,240,246)" stroke="rgb(238,240,246)" stroke-width="1" opacity="0.996078431372549" d="M 357 117 L 367 120 Q 328.728 231.935 258.5 313 Q 250.25 314.25 249 308.5 Q 181.493 230.245 145 122 L 155 119 Q 190.072 223.65 255.5 299 L 259 296.5 Q 321.641 219.844 357 117 Z " /><path fill="rgb(62,62,88)" stroke="rgb(62,62,88)" stroke-width="1" opacity="0.9764705882352941" d="M 251.5 12 Q 270.185 11.315 277 22.5 Q 282.067 28.433 282 39.5 L 279.5 43 L 275.5 44 L 271 40.5 Q 271.312 28.688 263.5 25 L 254.5 23 Q 246.375 24.375 243 30.5 L 241 39.5 Q 242.054 46.946 247.5 50 L 257 55.5 Q 264.813 64.91 262 84 L 250 84 L 250 65.5 L 249 63 Q 240.154 60.558 235 53.5 Q 229.295 46.705 230 33.5 Q 232.857 21.857 241.5 16 L 251.5 12 Z " /><path fill="rgb(62,62,88)" stroke="rgb(62,62,88)" stroke-width="1" opacity="0.9764705882352941" d="M 374.5 269 Q 379.9 267.125 379 270.5 Q 387.563 306.438 385 353.5 L 384 354.5 Q 384.9 366.4 382.5 375 Q 374.75 355.75 364 339.5 Q 370.44 308.94 372 273.5 L 374.5 269 Z " /><path fill="rgb(62,62,88)" stroke="rgb(62,62,88)" stroke-width="1" opacity="0.9764705882352941" d="M 135.5 270 Q 140.25 269.25 141 272.5 Q 142.351 310.149 149 342.5 Q 137.779 357.167 131 375 Q 127.5 376.125 129 368.5 Q 123.846 346.654 127 316.5 Q 126.865 288.865 135.5 270 Z " /><path fill="rgb(62,62,88)" stroke="rgb(62,62,88)" stroke-width="1" opacity="0.9764705882352941" d="M 46 435 Q 63.875 452.168 96 455 Q 94.583 471 84.5 479 Q 81 481.5 73.5 480 Q 52.789 475.711 40 463.5 Q 36.833 460.167 38 452.5 L 46 435 Z " /><path fill="rgb(62,62,88)" stroke="rgb(62,62,88)" stroke-width="1" opacity="0.9764705882352941" d="M 464.5 435 Q 466.75 434.25 466 436.5 Q 474.016 443.984 474 459.5 L 469.5 466 Q 455.125 478.625 429.5 480 L 423 474.5 L 416 455.5 L 417.5 456 Q 447.388 451.888 464.5 435 Z " /><path fill="rgb(62,62,88)" stroke="rgb(62,62,88)" stroke-width="1" opacity="0.9764705882352941" d="M 157.5 459 Q 163.987 464.012 174.5 465 L 337.5 465 Q 348.013 464.012 354.5 459 L 355 460.5 L 354 461.5 L 353 485.5 Q 351.795 493.295 346.5 497 L 340.5 500 L 171.5 500 Q 165.036 498.464 162 493.5 L 159 485.5 L 158 460.5 L 157.5 459 Z " /><path fill="rgb(230,112,114)" stroke="rgb(230,112,114)" stroke-width="1" opacity="0.9921568627450981" d="M 238.5 84 L 260.5 85 Q 263.5 81 273.5 84 Q 289.824 91.176 301 103.5 L 286.5 119 L 281.5 122 Q 272.764 109.736 250.5 111 Q 237.6 114.1 229.5 122 L 216 109.5 L 211 103.5 Q 222.176 91.176 238.5 84 Z " /><path fill="rgb(230,112,114)" stroke="rgb(230,112,114)" stroke-width="1" opacity="0.9921568627450981" d="M 255.5 143 L 270 154.5 L 281 229.5 L 257 267 Q 254.333 268.125 255 265.5 L 232 231.5 L 231 225.5 L 232 224.5 L 232 218.5 L 234 211.5 L 234 205.5 Q 241.016 183.016 242 154.5 L 246.5 150 L 255.5 143 Z " /><path fill="rgb(230,112,114)" stroke="rgb(230,112,114)" stroke-width="1" opacity="0.9921568627450981" d="M 186.5 272 Q 194.962 279.822 207 283 Q 206.511 302.061 197 312 L 186.5 318 Q 178.333 314.667 174 307.5 Q 166.678 298.456 167 283 Q 178.881 280.148 186.5 272 Z " /><path fill="rgb(88,88,117)" stroke="rgb(88,88,117)" stroke-width="1" opacity="0.9921568627450981" d="M 172.5 114 L 175 114.5 L 155.5 119 L 155.5 118 L 172.5 114 Z " /><path fill="rgb(88,88,117)" stroke="rgb(88,88,117)" stroke-width="1" opacity="0.9921568627450981" d="M 337.5 114 Q 349.542 113.167 357 116 L 356.5 118 Q 349.538 113.962 337.5 115 L 337.5 114 Z " /><path fill="rgb(88,88,117)" stroke="rgb(88,88,117)" stroke-width="1" opacity="0.9921568627450981" d="M 367.5 121 L 380 130 Q 393.429 145.721 400 169.5 Q 407.146 230.354 423 282.5 Q 440.833 357.167 468 422.5 L 468 429.5 L 466 435 L 464 434.5 Q 468.125 431.625 467 423.5 Q 420.929 306.571 398 166.5 Q 391.124 142.876 375.5 128 Q 369.367 125.3 367.5 121 Z " /><path fill="rgb(88,88,117)" stroke="rgb(88,88,117)" stroke-width="1" opacity="0.9921568627450981" d="M 143.5 123 L 145 123.5 L 131 136.5 Q 118.743 153.243 113 176.5 Q 103.798 236.798 88 290.5 Q 70.994 361.494 45 423.5 L 45 429.5 L 48 434.5 L 46 435 Q 43.125 431.094 44 422.5 Q 88.767 307.767 113 172.5 Q 120.394 143.394 139.5 126 L 143.5 123 Z " /><path fill="rgb(88,88,117)" stroke="rgb(88,88,117)" stroke-width="1" opacity="0.9921568627450981" d="M 364.5 341 L 365 342.5 L 358 380.5 L 358 392.5 Q 360.697 411.803 369 425.5 L 369 440.5 Q 366.143 452.143 357.5 458 L 354.5 459 L 354.5 458 L 364 449.5 Q 370.154 442.154 368 426.5 L 358 398.5 L 357 380.5 L 363 349.5 L 363 343.5 L 364.5 341 Z " /><path fill="rgb(88,88,117)" stroke="rgb(88,88,117)" stroke-width="1" opacity="0.9921568627450981" d="M 148.5 343 Q 151.75 342.583 150 350.5 Q 155.857 368.143 155 392.5 Q 152.279 409.279 145 421.5 L 144 440.5 Q 147.365 452.135 156.5 458 L 158 458.5 L 156.5 459 L 148 451.5 Q 140.656 443.344 143 425.5 L 153 397.5 L 154 380.5 Q 148.485 365.515 149 344.5 L 148.5 343 Z " /><path fill="rgb(88,88,117)" stroke="rgb(88,88,117)" stroke-width="1" opacity="0.9921568627450981" d="M 129.5 375 L 130 377.5 L 123 394.5 Q 118.79 418.79 111 439.5 Q 109.111 448.111 103.5 453 L 96.5 456 L 97.5 454 Q 103.85 453.35 106 448.5 Q 116.888 423.888 122 393.5 L 129.5 375 Z " /><path fill="rgb(88,88,117)" stroke="rgb(88,88,117)" stroke-width="1" opacity="0.9921568627450981" d="M 382.5 375 Q 394.612 400.888 400 433.5 Q 402.036 446.464 410.5 453 L 416 455.5 L 414.5 456 L 406 450.5 L 396 424.5 Q 391.174 396.794 382.5 375 Z " /><path fill="rgb(88,88,117)" stroke="rgb(88,88,117)" stroke-width="1" opacity="1" d="M 251.5 84 L 261 84.5 L 251.5 85 L 251.5 84 Z " /><path fill="rgb(88,88,117)" stroke="rgb(88,88,117)" stroke-width="1" opacity="1" d="M 172.5 115 L 176 116.5 Q 206.555 201.1 255 267 Q 257.667 268.125 257 265.5 Q 306.071 199.071 337.5 115 Q 350.125 113.875 357 118.5 Q 320.045 222.045 256.5 299 L 253 296.5 Q 189.721 221.486 155 119 L 172.5 115 Z " /><path fill="rgb(88,88,117)" stroke="rgb(88,88,117)" stroke-width="1" opacity="1" d="M 367.5 122 L 380 132.5 Q 392.069 146.431 398 166.5 Q 405.753 193.747 408 226.5 L 424 290.5 Q 441.006 361.494 467 423.5 L 467 429.5 Q 464.75 436.25 459.5 440 Q 442.892 452.392 417.5 456 Q 409.85 454.15 406 448.5 Q 395.112 423.888 390 393.5 L 383 375.5 L 383 367.5 Q 387.563 343.563 385 312.5 L 384 311.5 Q 384.667 291.333 381 275.5 L 379 269 Q 374.4 267.75 373 270.5 Q 368.556 329.056 357 380.5 L 357 392.5 Q 359.721 409.279 367 421.5 L 368 440.5 Q 364.635 452.135 355.5 458 L 352.5 460 Q 347 464.5 337.5 465 L 174.5 465 L 158 460 Q 159.125 457.333 156.5 458 Q 141.741 450.759 144 426.5 L 154 398.5 L 155 380.5 Q 144.408 330.092 141 272.5 L 138.5 270 Q 133.75 269.25 133 272.5 Q 124.54 309.54 127 357.5 L 128 358.5 L 129 376.5 Q 117.108 401.608 112 433.5 Q 109.964 446.464 101.5 453 Q 96.786 456.286 87.5 455 Q 63.117 449.883 48 435.5 Q 44 432 45 423.5 Q 90.76 305.26 116 166.5 Q 123.686 141.186 141.5 126 L 144.5 124 Q 183.364 234.136 253.5 313 Q 261.75 314.25 263 308.5 Q 328.819 228.819 367.5 122 Z M 187 272 Q 179 280 167 283 Q 167 298 174 308 Q 178 315 187 318 L 197 312 Q 207 302 207 283 Q 195 280 187 272 Z " /></svg>