<svg width="512" height="512" version="1.1" xmlns="http://www.w3.org/2000/svg" desc="Created with imagetracer.js version 1.2.6" ><path fill="rgb(1,1,2)" stroke="rgb(1,1,2)" stroke-width="1" opacity="0.00392156862745098" d="M 0 0 L 234 0.5 Q 119.669 15.669 62 87.5 Q 11.669 140.669 0.5 233 L 0 0 Z " /><path fill="rgb(1,1,2)" stroke="rgb(1,1,2)" stroke-width="1" opacity="0.00392156862745098" d="M 278.5 0 L 421 0.5 L 415.5 3 L 384.5 34 Q 340.883 6.498 278.5 0 Z " /><path fill="rgb(1,1,2)" stroke="rgb(1,1,2)" stroke-width="1" opacity="0.00392156862745098" d="M 435.5 0 L 512 0 L 512 76.5 L 511 76.5 Q 510.125 69.875 505.5 67 Q 500.067 61.433 489.5 61 L 481.5 63 L 503 40.5 Q 507 35.5 507 26.5 Q 505.595 15.405 498.5 10 Q 493.083 5.417 483.5 5 Q 475.976 5.476 471.5 9 L 448.5 32 L 449 30.5 L 451 21.5 Q 450.145 10.355 443.5 5 L 435.5 1 L 435.5 0 Z " /><path fill="rgb(1,1,2)" stroke="rgb(1,1,2)" stroke-width="1" opacity="0.00392156862745098" d="M 511.5 91 L 512 141.5 L 511 141.5 Q 509.729 132.271 503.5 128 Q 497.538 122.462 484.5 124 L 480.5 126 L 509 96.5 L 511.5 91 Z " /><path fill="rgb(1,1,2)" stroke="rgb(1,1,2)" stroke-width="1" opacity="0.00392156862745098" d="M 511.5 151 L 512 233.5 L 511 233.5 Q 509 197 498 169.5 Q 508.083 163.583 511.5 151 Z " /><path fill="rgb(1,1,2)" stroke="rgb(1,1,2)" stroke-width="1" opacity="0.00392156862745098" d="M 0.5 279 Q 16 392.5 87.5 450 Q 140.669 500.331 233 511.5 L 0 512 L 0.5 279 Z " /><path fill="rgb(1,1,2)" stroke="rgb(1,1,2)" stroke-width="1" opacity="0.00392156862745098" d="M 511.5 279 L 512 512 L 279 511.5 Q 391.674 496.174 449 425.5 Q 500.233 372.233 511.5 279 Z " /><path fill="rgb(91,77,167)" stroke="rgb(91,77,167)" stroke-width="1" opacity="0.996078431372549" d="M 234.5 0 Q 329.49 -3.287 384 33 L 384 34.5 L 344.5 75 L 344 73.5 Q 347.561 68.561 347 59.5 Q 345.426 46.574 337.5 40 Q 332.17 33.83 321.5 33 Q 313.705 34.205 310 39.5 L 268 157.5 L 266 161.5 L 236.5 191 Q 234.25 191.75 235 189.5 Q 229.677 178.823 212.5 180 L 203.5 184 L 137.5 245 L 0 245 Q 11.005 121.329 87.5 62 Q 141.222 11.222 234.5 0 Z M 261 51 L 258 52 L 253 59 L 253 90 L 254 93 L 261 97 L 265 96 L 269 90 L 269 59 L 268 56 Q 266 51 261 51 Z M 207 89 L 204 90 L 199 97 L 200 101 L 227 126 L 234 124 L 236 120 L 235 115 L 211 90 L 207 89 Z M 169 143 L 166 144 L 161 151 L 162 155 L 169 159 L 200 159 L 203 158 L 207 152 L 206 148 L 200 143 L 169 143 Z " /><path fill="rgb(91,77,167)" stroke="rgb(91,77,167)" stroke-width="1" opacity="0.996078431372549" d="M 496.5 170 Q 498.75 169.25 498 171.5 Q 515.817 214.183 512 278.5 Q 496.263 391.263 425.5 449 Q 386.76 484.26 330.5 502 Q 290.629 515.629 233.5 512 Q 183.596 506.904 147 488.5 L 220.5 415 L 316.5 415 Q 326.477 412.977 331 405.5 Q 335.217 400.217 335 390.5 Q 333.332 379.668 325.5 375 L 317 371.5 L 343.5 371 Q 351.5 368.5 356 362.5 Q 361.833 356.833 360 343.5 L 354 333 L 344 327.5 L 370.5 327 Q 378.583 324.083 383 317.5 Q 388 312 386 299.5 L 379.5 289 L 371 284.5 Q 389.396 285.396 397 275.5 Q 402.5 270 402 258.5 L 397 247 Q 417.485 247.723 428.5 238 L 496.5 170 Z M 462 282 L 459 283 L 454 289 L 455 294 L 462 298 L 493 298 L 496 297 Q 501 295 499 287 L 493 282 L 462 282 Z M 431 315 L 429 316 L 425 321 L 426 327 L 451 351 L 454 352 L 458 351 L 462 345 L 461 341 L 437 316 L 431 315 Z M 399 344 L 397 345 L 392 352 L 392 383 L 393 386 Q 395 391 404 389 L 408 383 L 408 352 L 407 349 Q 405 344 399 344 Z " /><path fill="rgb(251,160,137)" stroke="rgb(251,160,137)" stroke-width="1" opacity="0.9921568627450981" d="M 421.5 0 Q 438.985 -2.485 445 6.5 Q 450.291 11.709 451 21.5 L 449 30.5 L 471.5 9 Q 476.229 5.229 484.5 5 Q 496.52 5.98 502 13.5 Q 506.583 18.917 507 28.5 Q 506.524 36.024 503 40.5 L 481 62.5 L 482.5 63 L 490.5 61 Q 501.645 61.855 507 68.5 Q 514.321 74.679 512 90.5 L 509 96.5 L 481 124.5 L 483.5 125 Q 486 121.5 494.5 124 Q 502.25 126.25 507 131.5 Q 512.723 137.277 512 149.5 Q 508.5 163.5 497.5 170 L 428.5 238 Q 416.986 247.486 396.5 248 L 393.5 244 L 382.5 239 L 191.5 239 L 188.5 240 L 266 161.5 L 301.5 62 Q 303 64.5 308.5 63 Q 316.25 60.75 321 55.5 Q 327.045 47.045 329.5 35 L 340 42.5 Q 347.168 49.332 347 63.5 L 344 74.5 L 359 60.5 L 415.5 3 L 421.5 0 Z " /><path fill="rgb(251,160,137)" stroke="rgb(251,160,137)" stroke-width="1" opacity="0.9921568627450981" d="M 313.5 36 L 310.5 40 L 313.5 36 Z " /><path fill="rgb(251,160,137)" stroke="rgb(251,160,137)" stroke-width="1" opacity="0.9921568627450981" d="M 268.5 58 L 269 89.5 L 268 89.5 L 268.5 58 Z " /><path fill="rgb(251,160,137)" stroke="rgb(251,160,137)" stroke-width="1" opacity="0.9921568627450981" d="M 168.5 158 L 200 158.5 L 168.5 159 L 168.5 158 Z " /><path fill="rgb(251,160,137)" stroke="rgb(251,160,137)" stroke-width="1" opacity="0.9921568627450981" d="M 195.5 191 L 193.5 194 L 195.5 191 Z " /><path fill="rgb(251,160,137)" stroke="rgb(251,160,137)" stroke-width="1" opacity="0.9921568627450981" d="M 182.5 203 L 180.5 206 L 182.5 203 Z " /><path fill="rgb(251,160,137)" stroke="rgb(251,160,137)" stroke-width="1" opacity="0.9921568627450981" d="M 168.5 216 L 166.5 219 L 168.5 216 Z " /><path fill="rgb(251,160,137)" stroke="rgb(251,160,137)" stroke-width="1" opacity="0.9921568627450981" d="M 155.5 228 L 153.5 231 L 155.5 228 Z " /><path fill="rgb(251,160,137)" stroke="rgb(251,160,137)" stroke-width="1" opacity="0.9921568627450981" d="M 141.5 241 L 140.5 243 L 141.5 241 Z " /><path fill="rgb(251,160,137)" stroke="rgb(251,160,137)" stroke-width="1" opacity="0.9921568627450981" d="M 0.5 245 L 136 245.5 L 0.5 246 L 0.5 245 Z " /><path fill="rgb(251,160,137)" stroke="rgb(251,160,137)" stroke-width="1" opacity="0.9921568627450981" d="M 461.5 282 L 493 282.5 L 461.5 283 L 461.5 282 Z " /><path fill="rgb(251,160,137)" stroke="rgb(251,160,137)" stroke-width="1" opacity="0.9921568627450981" d="M 369.5 283 L 382 283.5 L 369.5 284 L 369.5 283 Z " /><path fill="rgb(251,160,137)" stroke="rgb(251,160,137)" stroke-width="1" opacity="0.9921568627450981" d="M 379.5 289 L 380.5 291 L 379.5 289 Z " /><path fill="rgb(251,160,137)" stroke="rgb(251,160,137)" stroke-width="1" opacity="0.9921568627450981" d="M 334.5 390 L 335 395.5 L 334 395.5 L 334.5 390 Z " /><path fill="rgb(251,160,137)" stroke="rgb(251,160,137)" stroke-width="1" opacity="0.9921568627450981" d="M 39.5 393 L 137.5 393 L 149.5 396 Q 162.212 407.788 180.5 414 L 184.5 415 L 220 415.5 L 147.5 488 L 145.5 488 Q 96.081 463.919 62 424.5 Q 48.439 409.751 39.5 393 Z " /><path fill="rgb(250,249,252)" stroke="rgb(250,249,252)" stroke-width="1" opacity="0.9921568627450981" d="M 258.5 52 Q 265.042 50.958 267 54.5 L 268 56.5 L 268 91.5 L 265.5 95 L 258.5 96 L 255 93.5 L 254 91.5 L 254 56.5 L 256.5 53 L 258.5 52 Z " /><path fill="rgb(250,249,252)" stroke="rgb(250,249,252)" stroke-width="1" opacity="0.9921568627450981" d="M 204.5 90 L 211.5 91 L 235 114.5 L 236 118.5 L 231.5 125 L 228.5 126 L 224.5 125 L 201 101.5 L 200 94.5 L 202.5 91 L 204.5 90 Z " /><path fill="rgb(250,249,252)" stroke="rgb(250,249,252)" stroke-width="1" opacity="0.9921568627450981" d="M 166.5 144 L 201.5 144 L 205 146.5 L 206 153.5 L 203.5 157 L 201.5 158 L 166.5 158 L 163 155.5 L 162 148.5 L 164.5 145 L 166.5 144 Z " /><path fill="rgb(250,249,252)" stroke="rgb(250,249,252)" stroke-width="1" opacity="0.9921568627450981" d="M 459.5 283 L 494.5 283 L 498 285.5 L 499 292.5 L 496.5 296 L 494.5 297 L 459.5 297 L 456 294.5 L 455 287.5 L 457.5 284 L 459.5 283 Z " /><path fill="rgb(250,249,252)" stroke="rgb(250,249,252)" stroke-width="1" opacity="0.9921568627450981" d="M 432.5 315 L 436.5 316 L 460 339.5 L 461 346.5 L 458.5 350 L 451.5 351 L 426 326.5 L 425 322.5 L 429.5 316 L 432.5 315 Z " /><path fill="rgb(250,249,252)" stroke="rgb(250,249,252)" stroke-width="1" opacity="0.9921568627450981" d="M 397.5 345 Q 404.042 343.958 406 347.5 L 407 349.5 L 407 384.5 L 404.5 388 L 397.5 389 L 394 386.5 L 393 384.5 L 393 349.5 L 395.5 346 L 397.5 345 Z " /><path fill="rgb(254,228,193)" stroke="rgb(254,228,193)" stroke-width="1" opacity="0.996078431372549" d="M 318.5 34 Q 326 33 329 35 Q 327.019 50.913 316.5 59 Q 311.771 62.771 303.5 63 Q 300.75 61.75 303 60.5 Q 305.236 44.736 314.5 36 L 318.5 34 Z " /><path fill="rgb(254,228,193)" stroke="rgb(254,228,193)" stroke-width="1" opacity="0.996078431372549" d="M 253.5 58 L 254 89.5 L 253 89.5 L 253.5 58 Z " /><path fill="rgb(254,228,193)" stroke="rgb(254,228,193)" stroke-width="1" opacity="0.996078431372549" d="M 168.5 143 L 200 143.5 L 168.5 144 L 168.5 143 Z " /><path fill="rgb(254,228,193)" stroke="rgb(254,228,193)" stroke-width="1" opacity="0.996078431372549" d="M 213.5 180 L 220 180.5 L 213.5 181 L 213.5 180 Z " /><path fill="rgb(254,228,193)" stroke="rgb(254,228,193)" stroke-width="1" opacity="0.996078431372549" d="M 203.5 184 L 196.5 192 L 203.5 184 Z " /><path fill="rgb(254,228,193)" stroke="rgb(254,228,193)" stroke-width="1" opacity="0.996078431372549" d="M 229.5 184 L 233.5 189 L 229.5 184 Z " /><path fill="rgb(254,228,193)" stroke="rgb(254,228,193)" stroke-width="1" opacity="0.996078431372549" d="M 192.5 194 L 183.5 204 L 192.5 194 Z " /><path fill="rgb(254,228,193)" stroke="rgb(254,228,193)" stroke-width="1" opacity="0.996078431372549" d="M 179.5 206 L 169.5 217 L 179.5 206 Z " /><path fill="rgb(254,228,193)" stroke="rgb(254,228,193)" stroke-width="1" opacity="0.996078431372549" d="M 164.5 220 L 156.5 229 L 164.5 220 Z " /><path fill="rgb(254,228,193)" stroke="rgb(254,228,193)" stroke-width="1" opacity="0.996078431372549" d="M 151.5 232 L 142.5 242 L 151.5 232 Z " /><path fill="rgb(254,228,193)" stroke="rgb(254,228,193)" stroke-width="1" opacity="0.996078431372549" d="M 391.5 243 L 392.5 245 L 391.5 243 Z " /><path fill="rgb(254,228,193)" stroke="rgb(254,228,193)" stroke-width="1" opacity="0.996078431372549" d="M 138.5 244 L 137.5 246 L 138.5 244 Z " /><path fill="rgb(254,228,193)" stroke="rgb(254,228,193)" stroke-width="1" opacity="0.996078431372549" d="M 396.5 248 L 397.5 250 L 396.5 248 Z " /><path fill="rgb(254,228,193)" stroke="rgb(254,228,193)" stroke-width="1" opacity="0.996078431372549" d="M 397.5 254 L 392.5 260 L 397.5 254 Z " /><path fill="rgb(254,228,193)" stroke="rgb(254,228,193)" stroke-width="1" opacity="0.996078431372549" d="M 320.5 263 L 383 263.5 L 320.5 264 L 320.5 263 Z " /><path fill="rgb(254,228,193)" stroke="rgb(254,228,193)" stroke-width="1" opacity="0.996078431372549" d="M 315.5 265 L 313.5 268 L 315.5 265 Z " /><path fill="rgb(254,228,193)" stroke="rgb(254,228,193)" stroke-width="1" opacity="0.996078431372549" d="M 311.5 272 L 312 275.5 L 311 275.5 L 311.5 272 Z " /><path fill="rgb(254,228,193)" stroke="rgb(254,228,193)" stroke-width="1" opacity="0.996078431372549" d="M 313.5 279 L 318 282.5 L 316.5 283 L 313.5 279 Z " /><path fill="rgb(254,228,193)" stroke="rgb(254,228,193)" stroke-width="1" opacity="0.996078431372549" d="M 319.5 283 L 366 283.5 L 319.5 284 L 319.5 283 Z " /><path fill="rgb(254,228,193)" stroke="rgb(254,228,193)" stroke-width="1" opacity="0.996078431372549" d="M 376.5 287 L 377.5 289 L 376.5 287 Z " /><path fill="rgb(254,228,193)" stroke="rgb(254,228,193)" stroke-width="1" opacity="0.996078431372549" d="M 380.5 291 L 382.5 294 L 380.5 291 Z " /><path fill="rgb(254,228,193)" stroke="rgb(254,228,193)" stroke-width="1" opacity="0.996078431372549" d="M 3.5 296 L 4 300.5 L 3 300.5 L 3.5 296 Z " /><path fill="rgb(254,228,193)" stroke="rgb(254,228,193)" stroke-width="1" opacity="0.996078431372549" d="M 382.5 297 L 381.5 299 L 382.5 297 Z " /><path fill="rgb(254,228,193)" stroke="rgb(254,228,193)" stroke-width="1" opacity="0.996078431372549" d="M 462.5 297 L 492 297.5 L 462.5 298 L 462.5 297 Z " /><path fill="rgb(254,228,193)" stroke="rgb(254,228,193)" stroke-width="1" opacity="0.996078431372549" d="M 380.5 300 L 379.5 302 L 380.5 300 Z " /><path fill="rgb(254,228,193)" stroke="rgb(254,228,193)" stroke-width="1" opacity="0.996078431372549" d="M 376.5 303 L 375.5 305 L 372.5 306 L 372.5 305 L 376.5 303 Z " /><path fill="rgb(254,228,193)" stroke="rgb(254,228,193)" stroke-width="1" opacity="0.996078431372549" d="M 4.5 305 L 6 307.5 L 4 306.5 L 4.5 305 Z " /><path fill="rgb(254,228,193)" stroke="rgb(254,228,193)" stroke-width="1" opacity="0.996078431372549" d="M 304.5 307 L 367 307.5 L 304.5 308 L 304.5 307 Z " /><path fill="rgb(254,228,193)" stroke="rgb(254,228,193)" stroke-width="1" opacity="0.996078431372549" d="M 301.5 308 L 300.5 310 L 301.5 308 Z " /><path fill="rgb(254,228,193)" stroke="rgb(254,228,193)" stroke-width="1" opacity="0.996078431372549" d="M 298.5 311 L 297.5 313 L 298.5 311 Z " /><path fill="rgb(254,228,193)" stroke="rgb(254,228,193)" stroke-width="1" opacity="0.996078431372549" d="M 6.5 313 L 8 316.5 L 6 315.5 L 6.5 313 Z " /><path fill="rgb(254,228,193)" stroke="rgb(254,228,193)" stroke-width="1" opacity="0.996078431372549" d="M 296.5 315 L 297 319.5 L 296 319.5 L 296.5 315 Z " /><path fill="rgb(254,228,193)" stroke="rgb(254,228,193)" stroke-width="1" opacity="0.996078431372549" d="M 8.5 321 L 10 326.5 L 9 326.5 L 8.5 321 Z " /><path fill="rgb(254,228,193)" stroke="rgb(254,228,193)" stroke-width="1" opacity="0.996078431372549" d="M 297.5 322 L 300.5 326 L 297.5 322 Z " /><path fill="rgb(254,228,193)" stroke="rgb(254,228,193)" stroke-width="1" opacity="0.996078431372549" d="M 305.5 327 L 340 327.5 L 305.5 328 L 305.5 327 Z " /><path fill="rgb(254,228,193)" stroke="rgb(254,228,193)" stroke-width="1" opacity="0.996078431372549" d="M 346.5 329 L 349 330.5 L 347.5 330 L 346.5 329 Z " /><path fill="rgb(254,228,193)" stroke="rgb(254,228,193)" stroke-width="1" opacity="0.996078431372549" d="M 350.5 331 L 357 338.5 L 356 338.5 L 350.5 331 Z " /><path fill="rgb(254,228,193)" stroke="rgb(254,228,193)" stroke-width="1" opacity="0.996078431372549" d="M 14.5 341 L 16 343.5 L 14 342.5 L 14.5 341 Z " /><path fill="rgb(254,228,193)" stroke="rgb(254,228,193)" stroke-width="1" opacity="0.996078431372549" d="M 355.5 342 L 350.5 348 L 355.5 342 Z " /><path fill="rgb(254,228,193)" stroke="rgb(254,228,193)" stroke-width="1" opacity="0.996078431372549" d="M 17.5 349 L 21 356.5 L 19 355.5 L 17.5 349 Z " /><path fill="rgb(254,228,193)" stroke="rgb(254,228,193)" stroke-width="1" opacity="0.996078431372549" d="M 342.5 350 L 345 350.5 L 342.5 351 L 342.5 350 Z " /><path fill="rgb(254,228,193)" stroke="rgb(254,228,193)" stroke-width="1" opacity="0.996078431372549" d="M 277.5 351 L 338 351.5 L 277.5 352 L 277.5 351 Z " /><path fill="rgb(254,228,193)" stroke="rgb(254,228,193)" stroke-width="1" opacity="0.996078431372549" d="M 392.5 352 L 393 381.5 L 392 381.5 L 392.5 352 Z " /><path fill="rgb(254,228,193)" stroke="rgb(254,228,193)" stroke-width="1" opacity="0.996078431372549" d="M 407.5 352 L 408 381.5 L 407 381.5 L 407.5 352 Z " /><path fill="rgb(254,228,193)" stroke="rgb(254,228,193)" stroke-width="1" opacity="0.996078431372549" d="M 273.5 353 L 272 355.5 L 271.5 357 L 271 355.5 L 273.5 353 Z " /><path fill="rgb(254,228,193)" stroke="rgb(254,228,193)" stroke-width="1" opacity="0.996078431372549" d="M 271.5 366 L 274.5 370 L 271.5 366 Z " /><path fill="rgb(254,228,193)" stroke="rgb(254,228,193)" stroke-width="1" opacity="0.996078431372549" d="M 25.5 368 L 27 370.5 L 26 370.5 L 25.5 368 Z " /><path fill="rgb(254,228,193)" stroke="rgb(254,228,193)" stroke-width="1" opacity="0.996078431372549" d="M 139.5 371 L 142 371.5 L 139.5 372 L 139.5 371 Z " /><path fill="rgb(254,228,193)" stroke="rgb(254,228,193)" stroke-width="1" opacity="0.996078431372549" d="M 312.5 371 L 316 371.5 L 312.5 372 L 312.5 371 Z " /><path fill="rgb(254,228,193)" stroke="rgb(254,228,193)" stroke-width="1" opacity="0.996078431372549" d="M 150.5 374 L 155 376.5 L 153.5 376 Q 149.75 375.75 150.5 374 Z " /><path fill="rgb(254,228,193)" stroke="rgb(254,228,193)" stroke-width="1" opacity="0.996078431372549" d="M 325.5 375 L 329.5 380 L 325.5 375 Z " /><path fill="rgb(254,228,193)" stroke="rgb(254,228,193)" stroke-width="1" opacity="0.996078431372549" d="M 156.5 377 L 157.5 379 L 156.5 377 Z " /><path fill="rgb(254,228,193)" stroke="rgb(254,228,193)" stroke-width="1" opacity="0.996078431372549" d="M 159.5 379 L 161.5 382 L 159.5 379 Z " /><path fill="rgb(254,228,193)" stroke="rgb(254,228,193)" stroke-width="1" opacity="0.996078431372549" d="M 164.5 383 L 165.5 385 L 164.5 383 Z " /><path fill="rgb(254,228,193)" stroke="rgb(254,228,193)" stroke-width="1" opacity="0.996078431372549" d="M 330.5 383 L 325.5 389 L 330.5 383 Z " /><path fill="rgb(254,228,193)" stroke="rgb(254,228,193)" stroke-width="1" opacity="0.996078431372549" d="M 167.5 385 L 171 387.5 L 169.5 387 L 167.5 385 Z " /><path fill="rgb(254,228,193)" stroke="rgb(254,228,193)" stroke-width="1" opacity="0.996078431372549" d="M 323.5 389 L 322.5 391 L 321 390.5 L 323.5 389 Z " /><path fill="rgb(254,228,193)" stroke="rgb(254,228,193)" stroke-width="1" opacity="0.996078431372549" d="M 186.5 392 L 317 392.5 L 186.5 393 L 186.5 392 Z " /><path fill="rgb(255,229,194)" stroke="rgb(255,229,194)" stroke-width="1" opacity="1" d="M 210.5 181 Q 229.05 178.45 234 189.5 L 235 191.5 L 187.5 240 L 383.5 240 Q 391.25 242.25 396 247.5 Q 398.6 248.9 398 253.5 Q 393.55 260.55 384.5 263 L 320.5 263 L 313 267.5 L 311 275.5 L 316.5 283 L 319.5 284 L 368.5 284 L 380 290.5 L 383 296.5 L 377.5 303 L 368.5 307 L 304.5 307 L 297 312.5 L 296 319.5 L 300.5 326 L 305.5 328 L 343.5 328 Q 351.583 330.917 356 337.5 L 357 339.5 L 349.5 348 L 341.5 351 L 277.5 351 L 271 355.5 L 270 364.5 L 274.5 370 L 276.5 371 Q 300.187 368.813 318.5 372 Q 325.917 374.583 330 380.5 L 331 382.5 Q 326.583 389.083 318.5 392 L 183.5 392 L 171.5 388 Q 160.48 375.52 141.5 371 L 27 371 L 20 357.5 L 20 355.5 L 15 344.5 L 15 342.5 L 11 333.5 L 11 331.5 Q 10.575 322.925 7 317.5 L 7 315.5 L 5 308.5 L 5 306.5 L 4 304.5 L 4 302.5 Q 4.75 294.75 2 290.5 L 2 288.5 L 1 277.5 L 0 276.5 L 1 274.5 L 1 272.5 L 0 264.5 L 0 262.5 Q -3 252.5 1 249.5 L 1 247.5 L 1.5 246 L 137.5 246 L 195.5 192 Q 201.216 184.716 210.5 181 Z " /><path fill="rgb(253,209,164)" stroke="rgb(253,209,164)" stroke-width="1" opacity="0.996078431372549" d="M 320.5 55 L 318.5 58 L 320.5 55 Z " /><path fill="rgb(253,209,164)" stroke="rgb(253,209,164)" stroke-width="1" opacity="0.996078431372549" d="M 306.5 62 L 309 62.5 L 306.5 63 L 306.5 62 Z " /><path fill="rgb(253,209,164)" stroke="rgb(253,209,164)" stroke-width="1" opacity="0.996078431372549" d="M 235.5 191 L 187.5 240 L 235.5 191 Z " /><path fill="rgb(253,209,164)" stroke="rgb(253,209,164)" stroke-width="1" opacity="0.996078431372549" d="M 191.5 239 L 383 239.5 L 191.5 240 L 191.5 239 Z " /><path fill="rgb(253,209,164)" stroke="rgb(253,209,164)" stroke-width="1" opacity="0.996078431372549" d="M 393.5 244 L 395.5 247 L 393.5 244 Z " /><path fill="rgb(253,209,164)" stroke="rgb(253,209,164)" stroke-width="1" opacity="0.996078431372549" d="M 399.5 252 L 402 262.5 Q 400.815 272.815 394.5 278 Q 385.721 286.221 366.5 284 L 365.5 283 L 318.5 283 L 313 278.5 L 312 270.5 L 316.5 265 L 318.5 264 L 382.5 264 Q 392.929 261.929 398 254.5 L 399.5 252 Z " /><path fill="rgb(253,209,164)" stroke="rgb(253,209,164)" stroke-width="1" opacity="0.996078431372549" d="M 383.5 296 Q 388.292 299.708 386 310.5 Q 383.55 319.55 376.5 324 L 369.5 327 Q 351.25 323.75 340.5 328 L 339.5 327 L 303.5 327 L 297 321.5 Q 295.667 312.833 299 310 L 302.5 308 L 366.5 308 Q 375.95 306.45 381 300.5 L 383.5 296 Z " /><path fill="rgb(253,209,164)" stroke="rgb(253,209,164)" stroke-width="1" opacity="0.996078431372549" d="M 357.5 339 Q 361.406 343.594 360 353.5 Q 357.75 361.25 352.5 366 L 342.5 371 L 277.5 371 L 271 365.5 L 270 359.5 L 274.5 353 L 276.5 352 L 337.5 352 Q 350.456 350.956 356 342.5 L 357.5 339 Z " /><path fill="rgb(253,209,164)" stroke="rgb(253,209,164)" stroke-width="1" opacity="0.996078431372549" d="M 27.5 371 L 138.5 371 Q 159.476 376.024 172.5 389 L 186.5 393 L 316.5 393 Q 326.375 390.875 331 383.5 L 331.5 382 Q 336.143 386.857 334 398.5 Q 331.85 406.85 325.5 411 L 316.5 415 L 184.5 415 Q 163.388 409.112 149.5 396 L 137.5 393 L 39.5 393 L 38 391.5 L 27.5 371 Z " /></svg>