<svg width="512" height="512" version="1.1" xmlns="http://www.w3.org/2000/svg" desc="Created with imagetracer.js version 1.2.6" ><path fill="rgb(136,182,26)" stroke="rgb(136,182,26)" stroke-width="1" opacity="0.9921568627450981" d="M 262.5 17 L 270.5 21 L 320 70.5 L 411 162.5 L 58.5 163 L 149 71.5 L 200.5 19 L 209.5 18 L 234.5 42 L 257.5 19 L 262.5 17 Z " /><path fill="rgb(215,146,11)" stroke="rgb(215,146,11)" stroke-width="1" opacity="0.996078431372549" d="M 402.5 272 L 493.5 272 Q 502.111 273.889 507 279.5 L 512 288.5 L 512 366.5 Q 509.083 374.583 502.5 379 Q 496.625 383.625 485.5 383 L 484.5 382 L 396.5 382 Q 372.001 377.499 360 360.5 Q 347.5 347 349 319.5 Q 353.475 295.975 369.5 284 Q 381.731 273.731 402.5 272 Z " /><path fill="rgb(0,0,0)" stroke="rgb(0,0,0)" stroke-width="1" opacity="0" d="M 0 0 L 512 0 L 512 287.5 L 511 287.5 Q 509.946 280.054 504.5 277 Q 497.956 270.847 485 272 L 485 167.5 L 481.5 163 L 478.5 162 L 438 162 L 438 76.5 L 435.5 73 L 430.5 71 L 320.5 71 L 269.5 20 L 262.5 17 L 257.5 19 L 233.5 42 L 209.5 18 L 202.5 18 L 148.5 71 L 48.5 71 Q 46.5 74 39.5 72 Q 20.25 76.75 10 90.5 Q 2.769 98.769 0.5 112 L 0 0 Z " /><path fill="rgb(0,0,0)" stroke="rgb(0,0,0)" stroke-width="1" opacity="0" d="M 511.5 367 L 512 512 L 0.5 512 L 0 511.5 L 0 451.5 L 1 451.5 Q 4.779 473.721 20.5 484 Q 32.162 493.838 52.5 495 L 477.5 495 L 484 491.5 L 485 489.5 L 485 383 Q 502.538 383.961 509 372.5 L 511.5 367 Z " /><path fill="rgb(124,62,29)" stroke="rgb(124,62,29)" stroke-width="1" opacity="0.9686274509803922" d="M 48.5 71 L 149 71.5 L 57.5 163 L 36.5 163 Q 16.62 159.38 7 145.5 Q -2.333 134.833 0 112.5 Q 4.589 92.589 18.5 82 Q 29.282 72.282 48.5 71 Z " /><path fill="rgb(124,62,29)" stroke="rgb(124,62,29)" stroke-width="1" opacity="0.9686274509803922" d="M 320.5 71 L 430.5 71 L 437 74.5 L 438 76.5 L 438 163 L 411.5 163 L 320.5 71 Z " /><path fill="rgb(124,62,29)" stroke="rgb(124,62,29)" stroke-width="1" opacity="0.9686274509803922" d="M 349.5 340 Q 354.896 359.104 368.5 370 Q 378.332 378.668 393.5 382 Q 401.25 379.75 403.5 383 L 485 383 L 484.5 402 L 483.5 401 L 394.5 401 Q 373.518 396.482 362 382.5 Q 347.495 368.385 349.5 340 Z " /><path fill="rgb(169,92,36)" stroke="rgb(169,92,36)" stroke-width="1" opacity="1" d="M 5.5 143 L 6.5 145 L 5.5 143 Z " /><path fill="rgb(169,92,36)" stroke="rgb(169,92,36)" stroke-width="1" opacity="1" d="M 7.5 146 L 15.5 155 L 7.5 146 Z " /><path fill="rgb(169,92,36)" stroke="rgb(169,92,36)" stroke-width="1" opacity="1" d="M 17.5 155 L 18.5 157 L 17.5 155 Z " /><path fill="rgb(169,92,36)" stroke="rgb(169,92,36)" stroke-width="1" opacity="1" d="M 20.5 157 L 25 159.5 L 23.5 160 L 20.5 157 Z " /><path fill="rgb(169,92,36)" stroke="rgb(169,92,36)" stroke-width="1" opacity="1" d="M 33.5 162 L 36 162.5 L 33.5 163 L 33.5 162 Z " /><path fill="rgb(169,92,36)" stroke="rgb(169,92,36)" stroke-width="1" opacity="1" d="M 480.5 163 L 484 165.5 L 481.5 164 L 480.5 163 Z " /><path fill="rgb(169,92,36)" stroke="rgb(169,92,36)" stroke-width="1" opacity="1" d="M 484.5 169 L 485 271.5 L 484 271.5 L 484.5 169 Z " /><path fill="rgb(169,92,36)" stroke="rgb(169,92,36)" stroke-width="1" opacity="1" d="M 349.5 337 L 350 339.5 L 349 339.5 L 349.5 337 Z " /><path fill="rgb(169,92,36)" stroke="rgb(169,92,36)" stroke-width="1" opacity="1" d="M 348.5 345 L 349 347.5 L 348 347.5 L 348.5 345 Z " /><path fill="rgb(169,92,36)" stroke="rgb(169,92,36)" stroke-width="1" opacity="1" d="M 349.5 354 L 350 357.5 L 349 357.5 L 349.5 354 Z " /><path fill="rgb(169,92,36)" stroke="rgb(169,92,36)" stroke-width="1" opacity="1" d="M 350.5 359 L 351 361.5 L 350 361.5 L 350.5 359 Z " /><path fill="rgb(169,92,36)" stroke="rgb(169,92,36)" stroke-width="1" opacity="1" d="M 361.5 362 L 362.5 364 L 361.5 362 Z " /><path fill="rgb(169,92,36)" stroke="rgb(169,92,36)" stroke-width="1" opacity="1" d="M 352.5 366 L 355 371.5 L 354 371.5 L 352.5 366 Z " /><path fill="rgb(169,92,36)" stroke="rgb(169,92,36)" stroke-width="1" opacity="1" d="M 355.5 373 L 368 388.5 L 361 382.5 L 355.5 373 Z " /><path fill="rgb(169,92,36)" stroke="rgb(169,92,36)" stroke-width="1" opacity="1" d="M 403.5 382 L 485 382.5 L 403.5 383 L 403.5 382 Z " /><path fill="rgb(169,92,36)" stroke="rgb(169,92,36)" stroke-width="1" opacity="1" d="M 369.5 389 L 371.5 392 L 369.5 389 Z " /><path fill="rgb(169,92,36)" stroke="rgb(169,92,36)" stroke-width="1" opacity="1" d="M 373.5 392 L 377 394.5 L 375.5 394 L 373.5 392 Z " /><path fill="rgb(169,92,36)" stroke="rgb(169,92,36)" stroke-width="1" opacity="1" d="M 387.5 399 L 390 399.5 L 387.5 400 L 387.5 399 Z " /><path fill="rgb(169,92,36)" stroke="rgb(169,92,36)" stroke-width="1" opacity="1" d="M 391.5 400 L 394 400.5 L 391.5 401 L 391.5 400 Z " /><path fill="rgb(169,92,36)" stroke="rgb(169,92,36)" stroke-width="1" opacity="1" d="M 396.5 401 L 483.5 401 L 485 402.5 L 484.5 488 L 484 402 L 396.5 402 L 396.5 401 Z " /><path fill="rgb(169,92,36)" stroke="rgb(169,92,36)" stroke-width="1" opacity="1" d="M 5.5 465 L 6.5 467 L 5.5 465 Z " /><path fill="rgb(169,92,36)" stroke="rgb(169,92,36)" stroke-width="1" opacity="1" d="M 10.5 472 L 13 475.5 L 10 473.5 L 10.5 472 Z " /><path fill="rgb(169,92,36)" stroke="rgb(169,92,36)" stroke-width="1" opacity="1" d="M 19.5 482 L 20.5 484 L 19.5 482 Z " /><path fill="rgb(169,92,36)" stroke="rgb(169,92,36)" stroke-width="1" opacity="1" d="M 25.5 486 L 26.5 488 L 25.5 486 Z " /><path fill="rgb(169,92,36)" stroke="rgb(169,92,36)" stroke-width="1" opacity="1" d="M 39.5 492 L 44 493.5 L 42.5 494 Q 38.75 493.75 39.5 492 Z " /><path fill="rgb(169,92,36)" stroke="rgb(169,92,36)" stroke-width="1" opacity="1" d="M 52.5 494 L 478 494.5 L 52.5 495 L 52.5 494 Z " /><path fill="rgb(170,93,36)" stroke="rgb(170,93,36)" stroke-width="1" opacity="1" d="M 0.5 131 Q 3.855 147.145 15.5 155 Q 22.5 161 33.5 163 L 437.5 163 L 438.5 162 L 478.5 162 L 485 167.5 L 484 169.5 L 484 272 L 402.5 272 Q 400.5 275 393.5 273 Q 372.493 277.993 361 292.5 Q 347.216 306.216 349 335.5 L 349 337.5 L 348 347.5 Q 350.056 375.944 367.5 389 Q 378.422 399.078 396.5 402 L 484 402 L 484 487.5 L 485 489.5 L 484 492 L 480.5 494 L 44.5 494 L 39.5 492 L 37.5 492 Q 25.25 489.083 18 482 Q 19.125 479.333 16.5 480 L 11 472 Q 7.375 472.75 7.5 469 L 5 464.5 L 0 449.5 L 1 447.5 L 0 446.5 L 0.5 131 Z " /><path fill="rgb(170,93,36)" stroke="rgb(170,93,36)" stroke-width="1" opacity="1" d="M 363.5 364 L 367.5 369 L 363.5 364 Z " /></svg>