<svg width="512" height="512" version="1.1" xmlns="http://www.w3.org/2000/svg" desc="Created with imagetracer.js version 1.2.6" ><path fill="rgb(196,192,196)" stroke="rgb(196,192,196)" stroke-width="1" opacity="0.9882352941176471" d="M 391.5 25 L 393.5 25 L 487 118.5 Q 487.5 126.5 480.5 127 L 478.5 127 L 385 33.5 Q 384.5 25.5 391.5 25 Z " /><path fill="rgb(196,192,196)" stroke="rgb(196,192,196)" stroke-width="1" opacity="0.9882352941176471" d="M 311.5 65 Q 334.179 62.321 339 77.5 L 309 107.5 L 309.5 109 Q 293.868 101.632 273 99.5 L 305.5 68 L 311.5 65 Z " /><path fill="rgb(196,192,196)" stroke="rgb(196,192,196)" stroke-width="1" opacity="0.9882352941176471" d="M 134.5 114 Q 156.982 113.018 164 127.5 L 161.5 131 L 144 145.5 L 126.5 167 Q 110.337 160.162 112 135.5 Q 114.36 125.36 121.5 120 L 134.5 114 Z " /><path fill="rgb(196,192,196)" stroke="rgb(196,192,196)" stroke-width="1" opacity="0.9882352941176471" d="M 338.5 122 L 339.5 124 L 338.5 122 Z " /><path fill="rgb(196,192,196)" stroke="rgb(196,192,196)" stroke-width="1" opacity="0.9882352941176471" d="M 344.5 126 L 345.5 128 L 344.5 126 Z " /><path fill="rgb(196,192,196)" stroke="rgb(196,192,196)" stroke-width="1" opacity="0.9882352941176471" d="M 347.5 128 L 348.5 130 L 347.5 128 Z " /><path fill="rgb(196,192,196)" stroke="rgb(196,192,196)" stroke-width="1" opacity="0.9882352941176471" d="M 351.5 131 L 352.5 133 L 351.5 131 Z " /><path fill="rgb(196,192,196)" stroke="rgb(196,192,196)" stroke-width="1" opacity="0.9882352941176471" d="M 356.5 135 L 359.5 139 L 356.5 135 Z " /><path fill="rgb(196,192,196)" stroke="rgb(196,192,196)" stroke-width="1" opacity="0.9882352941176471" d="M 366.5 144 L 367.5 146 L 366.5 144 Z " /><path fill="rgb(196,192,196)" stroke="rgb(196,192,196)" stroke-width="1" opacity="0.9882352941176471" d="M 373.5 152 L 376.5 156 L 373.5 152 Z " /><path fill="rgb(196,192,196)" stroke="rgb(196,192,196)" stroke-width="1" opacity="0.9882352941176471" d="M 279.5 154 L 277.5 157 L 279.5 154 Z " /><path fill="rgb(196,192,196)" stroke="rgb(196,192,196)" stroke-width="1" opacity="0.9882352941176471" d="M 186.5 156 L 185.5 158 L 186.5 156 Z " /><path fill="rgb(196,192,196)" stroke="rgb(196,192,196)" stroke-width="1" opacity="0.9882352941176471" d="M 182.5 159 L 181.5 161 L 182.5 159 Z " /><path fill="rgb(196,192,196)" stroke="rgb(196,192,196)" stroke-width="1" opacity="0.9882352941176471" d="M 329.5 159 L 330.5 161 L 329.5 159 Z " /><path fill="rgb(196,192,196)" stroke="rgb(196,192,196)" stroke-width="1" opacity="0.9882352941176471" d="M 379.5 159 L 380.5 161 L 379.5 159 Z " /><path fill="rgb(196,192,196)" stroke="rgb(196,192,196)" stroke-width="1" opacity="0.9882352941176471" d="M 177.5 163 L 175.5 166 L 177.5 163 Z " /><path fill="rgb(196,192,196)" stroke="rgb(196,192,196)" stroke-width="1" opacity="0.9882352941176471" d="M 334.5 163 L 336.5 166 L 334.5 163 Z " /><path fill="rgb(196,192,196)" stroke="rgb(196,192,196)" stroke-width="1" opacity="0.9882352941176471" d="M 382.5 163 L 383.5 165 L 382.5 163 Z " /><path fill="rgb(196,192,196)" stroke="rgb(196,192,196)" stroke-width="1" opacity="0.9882352941176471" d="M 384.5 166 L 385.5 168 L 384.5 166 Z " /><path fill="rgb(196,192,196)" stroke="rgb(196,192,196)" stroke-width="1" opacity="0.9882352941176471" d="M 388.5 172 L 389.5 174 L 388.5 172 Z " /><path fill="rgb(196,192,196)" stroke="rgb(196,192,196)" stroke-width="1" opacity="0.9882352941176471" d="M 434.5 173 Q 449.679 177.821 447 200.5 L 444 206.5 L 412.5 239 Q 410.368 218.132 403 202.5 L 404.5 203 L 434.5 173 Z " /><path fill="rgb(196,192,196)" stroke="rgb(196,192,196)" stroke-width="1" opacity="0.9882352941176471" d="M 239.5 174 L 240 177.5 L 239 177.5 L 239.5 174 Z " /><path fill="rgb(196,192,196)" stroke="rgb(196,192,196)" stroke-width="1" opacity="0.9882352941176471" d="M 272.5 174 L 273 177.5 L 272 177.5 L 272.5 174 Z " /><path fill="rgb(196,192,196)" stroke="rgb(196,192,196)" stroke-width="1" opacity="0.9882352941176471" d="M 346.5 175 L 348.5 178 L 346.5 175 Z " /><path fill="rgb(196,192,196)" stroke="rgb(196,192,196)" stroke-width="1" opacity="0.9882352941176471" d="M 164.5 176 L 163.5 178 L 164.5 176 Z " /><path fill="rgb(196,192,196)" stroke="rgb(196,192,196)" stroke-width="1" opacity="0.9882352941176471" d="M 391.5 177 L 392.5 179 L 391.5 177 Z " /><path fill="rgb(196,192,196)" stroke="rgb(196,192,196)" stroke-width="1" opacity="0.9882352941176471" d="M 238.5 179 L 237.5 181 L 238.5 179 Z " /><path fill="rgb(196,192,196)" stroke="rgb(196,192,196)" stroke-width="1" opacity="0.9882352941176471" d="M 273.5 179 L 274.5 181 L 273.5 179 Z " /><path fill="rgb(196,192,196)" stroke="rgb(196,192,196)" stroke-width="1" opacity="0.9882352941176471" d="M 182.5 180 L 180.5 183 L 182.5 180 Z " /><path fill="rgb(196,192,196)" stroke="rgb(196,192,196)" stroke-width="1" opacity="0.9882352941176471" d="M 329.5 180 L 331.5 183 L 329.5 180 Z " /><path fill="rgb(196,192,196)" stroke="rgb(196,192,196)" stroke-width="1" opacity="0.9882352941176471" d="M 160.5 181 L 159.5 183 L 160.5 181 Z " /><path fill="rgb(196,192,196)" stroke="rgb(196,192,196)" stroke-width="1" opacity="0.9882352941176471" d="M 188.5 181 L 201.5 195 L 188.5 181 Z " /><path fill="rgb(196,192,196)" stroke="rgb(196,192,196)" stroke-width="1" opacity="0.9882352941176471" d="M 323.5 181 L 310.5 195 L 323.5 181 Z " /><path fill="rgb(196,192,196)" stroke="rgb(196,192,196)" stroke-width="1" opacity="0.9882352941176471" d="M 351.5 181 L 352.5 183 L 351.5 181 Z " /><path fill="rgb(196,192,196)" stroke="rgb(196,192,196)" stroke-width="1" opacity="0.9882352941176471" d="M 157.5 185 L 156.5 187 L 157.5 185 Z " /><path fill="rgb(196,192,196)" stroke="rgb(196,192,196)" stroke-width="1" opacity="0.9882352941176471" d="M 354.5 185 L 355.5 187 L 354.5 185 Z " /><path fill="rgb(196,192,196)" stroke="rgb(196,192,196)" stroke-width="1" opacity="0.9882352941176471" d="M 181.5 188 L 194.5 202 L 181.5 188 Z " /><path fill="rgb(196,192,196)" stroke="rgb(196,192,196)" stroke-width="1" opacity="0.9882352941176471" d="M 330.5 188 L 317.5 202 L 330.5 188 Z " /><path fill="rgb(196,192,196)" stroke="rgb(196,192,196)" stroke-width="1" opacity="0.9882352941176471" d="M 202.5 196 L 203 198.5 L 202 198.5 L 202.5 196 Z " /><path fill="rgb(196,192,196)" stroke="rgb(196,192,196)" stroke-width="1" opacity="0.9882352941176471" d="M 309.5 196 L 310 198.5 L 309 198.5 L 309.5 196 Z " /><path fill="rgb(196,192,196)" stroke="rgb(196,192,196)" stroke-width="1" opacity="0.9882352941176471" d="M 196.5 202 L 199 202.5 L 196.5 203 L 196.5 202 Z " /><path fill="rgb(196,192,196)" stroke="rgb(196,192,196)" stroke-width="1" opacity="0.9882352941176471" d="M 313.5 202 L 316 202.5 L 313.5 203 L 313.5 202 Z " /><path fill="rgb(196,192,196)" stroke="rgb(196,192,196)" stroke-width="1" opacity="0.9882352941176471" d="M 289.5 209 L 296 209.5 L 289.5 210 L 289.5 209 Z " /><path fill="rgb(196,192,196)" stroke="rgb(196,192,196)" stroke-width="1" opacity="0.9882352941176471" d="M 303.5 216 L 304 219.5 L 303 219.5 L 303.5 216 Z " /><path fill="rgb(196,192,196)" stroke="rgb(196,192,196)" stroke-width="1" opacity="0.9882352941176471" d="M 285.5 220 L 266 240.5 L 272.5 247 L 293 227.5 L 273 248.5 Q 276.333 252.167 275 260.5 L 268.5 271 L 262 274 L 261.5 303 L 261 274 L 254.5 275 L 252 274 L 251.5 303 L 251 274 L 242 268.5 L 238 261.5 L 238 259.5 Q 237.298 245.798 245.5 241 Q 250.3 236.8 260.5 238 L 265.5 240 L 285.5 220 Z " /><path fill="rgb(196,192,196)" stroke="rgb(196,192,196)" stroke-width="1" opacity="0.9882352941176471" d="M 180.5 237 L 179.5 239 L 180.5 237 Z " /><path fill="rgb(196,192,196)" stroke="rgb(196,192,196)" stroke-width="1" opacity="0.9882352941176471" d="M 331.5 237 L 332.5 239 L 331.5 237 Z " /><path fill="rgb(196,192,196)" stroke="rgb(196,192,196)" stroke-width="1" opacity="0.9882352941176471" d="M 174.5 239 L 178 239.5 L 174.5 240 L 174.5 239 Z " /><path fill="rgb(196,192,196)" stroke="rgb(196,192,196)" stroke-width="1" opacity="0.9882352941176471" d="M 334.5 239 L 338 239.5 L 334.5 240 L 334.5 239 Z " /><path fill="rgb(196,192,196)" stroke="rgb(196,192,196)" stroke-width="1" opacity="0.9882352941176471" d="M 376.5 265 L 377 268.5 L 376 268.5 L 376.5 265 Z " /><path fill="rgb(196,192,196)" stroke="rgb(196,192,196)" stroke-width="1" opacity="0.9882352941176471" d="M 174.5 272 L 178 272.5 L 174.5 273 L 174.5 272 Z " /><path fill="rgb(196,192,196)" stroke="rgb(196,192,196)" stroke-width="1" opacity="0.9882352941176471" d="M 334.5 272 L 338 272.5 L 334.5 273 L 334.5 272 Z " /><path fill="rgb(196,192,196)" stroke="rgb(196,192,196)" stroke-width="1" opacity="0.9882352941176471" d="M 99.5 273 Q 101.632 293.868 109 309.5 L 107.5 309 L 77.5 339 L 68 329.5 Q 64.476 325.024 64 317.5 Q 64.476 309.976 68 305.5 L 99.5 273 Z " /><path fill="rgb(196,192,196)" stroke="rgb(196,192,196)" stroke-width="1" opacity="0.9882352941176471" d="M 179.5 273 L 180.5 275 L 179.5 273 Z " /><path fill="rgb(196,192,196)" stroke="rgb(196,192,196)" stroke-width="1" opacity="0.9882352941176471" d="M 332.5 273 L 331.5 275 L 332.5 273 Z " /><path fill="rgb(196,192,196)" stroke="rgb(196,192,196)" stroke-width="1" opacity="0.9882352941176471" d="M 136.5 274 L 137 276.5 L 136 276.5 L 136.5 274 Z " /><path fill="rgb(196,192,196)" stroke="rgb(196,192,196)" stroke-width="1" opacity="0.9882352941176471" d="M 156.5 277 L 154.5 280 L 156.5 277 Z " /><path fill="rgb(196,192,196)" stroke="rgb(196,192,196)" stroke-width="1" opacity="0.9882352941176471" d="M 270.5 300 L 271.5 302 L 270.5 300 Z " /><path fill="rgb(196,192,196)" stroke="rgb(196,192,196)" stroke-width="1" opacity="0.9882352941176471" d="M 196.5 309 L 199 309.5 L 196.5 310 L 196.5 309 Z " /><path fill="rgb(196,192,196)" stroke="rgb(196,192,196)" stroke-width="1" opacity="0.9882352941176471" d="M 243.5 309 L 247.5 314 L 243.5 309 Z " /><path fill="rgb(196,192,196)" stroke="rgb(196,192,196)" stroke-width="1" opacity="0.9882352941176471" d="M 313.5 309 L 316 309.5 L 313.5 310 L 313.5 309 Z " /><path fill="rgb(196,192,196)" stroke="rgb(196,192,196)" stroke-width="1" opacity="0.9882352941176471" d="M 194.5 310 L 181.5 324 L 194.5 310 Z " /><path fill="rgb(196,192,196)" stroke="rgb(196,192,196)" stroke-width="1" opacity="0.9882352941176471" d="M 317.5 310 L 330.5 324 L 317.5 310 Z " /><path fill="rgb(196,192,196)" stroke="rgb(196,192,196)" stroke-width="1" opacity="0.9882352941176471" d="M 267.5 311 L 264.5 315 L 267.5 311 Z " /><path fill="rgb(196,192,196)" stroke="rgb(196,192,196)" stroke-width="1" opacity="0.9882352941176471" d="M 202.5 313 L 203 315.5 L 202 315.5 L 202.5 313 Z " /><path fill="rgb(196,192,196)" stroke="rgb(196,192,196)" stroke-width="1" opacity="0.9882352941176471" d="M 309.5 313 L 310 315.5 L 309 315.5 L 309.5 313 Z " /><path fill="rgb(196,192,196)" stroke="rgb(196,192,196)" stroke-width="1" opacity="0.9882352941176471" d="M 201.5 317 L 188.5 331 L 201.5 317 Z " /><path fill="rgb(196,192,196)" stroke="rgb(196,192,196)" stroke-width="1" opacity="0.9882352941176471" d="M 310.5 317 L 323.5 331 L 310.5 317 Z " /><path fill="rgb(196,192,196)" stroke="rgb(196,192,196)" stroke-width="1" opacity="0.9882352941176471" d="M 252.5 319 L 253.5 321 L 252.5 319 Z " /><path fill="rgb(196,192,196)" stroke="rgb(196,192,196)" stroke-width="1" opacity="0.9882352941176471" d="M 180.5 329 L 182.5 332 L 180.5 329 Z " /><path fill="rgb(196,192,196)" stroke="rgb(196,192,196)" stroke-width="1" opacity="0.9882352941176471" d="M 331.5 329 L 329.5 332 L 331.5 329 Z " /><path fill="rgb(196,192,196)" stroke="rgb(196,192,196)" stroke-width="1" opacity="0.9882352941176471" d="M 160.5 330 L 161.5 332 L 160.5 330 Z " /><path fill="rgb(196,192,196)" stroke="rgb(196,192,196)" stroke-width="1" opacity="0.9882352941176471" d="M 351.5 330 L 350.5 332 L 351.5 330 Z " /><path fill="rgb(196,192,196)" stroke="rgb(196,192,196)" stroke-width="1" opacity="0.9882352941176471" d="M 237.5 331 L 238.5 333 L 237.5 331 Z " /><path fill="rgb(196,192,196)" stroke="rgb(196,192,196)" stroke-width="1" opacity="0.9882352941176471" d="M 274.5 331 L 273.5 333 L 274.5 331 Z " /><path fill="rgb(196,192,196)" stroke="rgb(196,192,196)" stroke-width="1" opacity="0.9882352941176471" d="M 119.5 333 L 120.5 335 L 119.5 333 Z " /><path fill="rgb(196,192,196)" stroke="rgb(196,192,196)" stroke-width="1" opacity="0.9882352941176471" d="M 239.5 334 L 240 337.5 L 239 337.5 L 239.5 334 Z " /><path fill="rgb(196,192,196)" stroke="rgb(196,192,196)" stroke-width="1" opacity="0.9882352941176471" d="M 272.5 334 L 273 337.5 L 272 337.5 L 272.5 334 Z " /><path fill="rgb(196,192,196)" stroke="rgb(196,192,196)" stroke-width="1" opacity="0.9882352941176471" d="M 164.5 335 L 169.5 341 L 164.5 335 Z " /><path fill="rgb(196,192,196)" stroke="rgb(196,192,196)" stroke-width="1" opacity="0.9882352941176471" d="M 347.5 335 L 342.5 341 L 347.5 335 Z " /><path fill="rgb(196,192,196)" stroke="rgb(196,192,196)" stroke-width="1" opacity="0.9882352941176471" d="M 122.5 338 L 123.5 340 L 122.5 338 Z " /><path fill="rgb(196,192,196)" stroke="rgb(196,192,196)" stroke-width="1" opacity="0.9882352941176471" d="M 171.5 342 L 176.5 348 L 171.5 342 Z " /><path fill="rgb(196,192,196)" stroke="rgb(196,192,196)" stroke-width="1" opacity="0.9882352941176471" d="M 339.5 343 L 335.5 348 L 339.5 343 Z " /><path fill="rgb(196,192,196)" stroke="rgb(196,192,196)" stroke-width="1" opacity="0.9882352941176471" d="M 126.5 344 L 127.5 346 L 126.5 344 Z " /><path fill="rgb(196,192,196)" stroke="rgb(196,192,196)" stroke-width="1" opacity="0.9882352941176471" d="M 128.5 347 L 129.5 349 L 128.5 347 Z " /><path fill="rgb(196,192,196)" stroke="rgb(196,192,196)" stroke-width="1" opacity="0.9882352941176471" d="M 180.5 350 L 182.5 353 L 180.5 350 Z " /><path fill="rgb(196,192,196)" stroke="rgb(196,192,196)" stroke-width="1" opacity="0.9882352941176471" d="M 331.5 350 L 329.5 353 L 331.5 350 Z " /><path fill="rgb(196,192,196)" stroke="rgb(196,192,196)" stroke-width="1" opacity="0.9882352941176471" d="M 131.5 351 L 133.5 354 L 131.5 351 Z " /><path fill="rgb(196,192,196)" stroke="rgb(196,192,196)" stroke-width="1" opacity="0.9882352941176471" d="M 135.5 356 L 138.5 360 L 135.5 356 Z " /><path fill="rgb(196,192,196)" stroke="rgb(196,192,196)" stroke-width="1" opacity="0.9882352941176471" d="M 323.5 356 L 322.5 358 L 323.5 356 Z " /><path fill="rgb(196,192,196)" stroke="rgb(196,192,196)" stroke-width="1" opacity="0.9882352941176471" d="M 144.5 366 L 145.5 368 L 144.5 366 Z " /><path fill="rgb(196,192,196)" stroke="rgb(196,192,196)" stroke-width="1" opacity="0.9882352941176471" d="M 152.5 373 L 155.5 377 L 152.5 373 Z " /><path fill="rgb(196,192,196)" stroke="rgb(196,192,196)" stroke-width="1" opacity="0.9882352941176471" d="M 242.5 376 L 246 376.5 L 242.5 377 L 242.5 376 Z " /><path fill="rgb(196,192,196)" stroke="rgb(196,192,196)" stroke-width="1" opacity="0.9882352941176471" d="M 266.5 376 L 270 376.5 L 266.5 377 L 266.5 376 Z " /><path fill="rgb(196,192,196)" stroke="rgb(196,192,196)" stroke-width="1" opacity="0.9882352941176471" d="M 158.5 378 L 160.5 381 L 158.5 378 Z " /><path fill="rgb(196,192,196)" stroke="rgb(196,192,196)" stroke-width="1" opacity="0.9882352941176471" d="M 163.5 382 L 164.5 384 L 163.5 382 Z " /><path fill="rgb(196,192,196)" stroke="rgb(196,192,196)" stroke-width="1" opacity="0.9882352941176471" d="M 166.5 384 L 167.5 386 L 166.5 384 Z " /><path fill="rgb(196,192,196)" stroke="rgb(196,192,196)" stroke-width="1" opacity="0.9882352941176471" d="M 31.5 385 L 33.5 385 L 127 478.5 Q 127.5 486.5 120.5 487 L 118.5 487 L 25 393.5 Q 24.5 385.5 31.5 385 Z " /><path fill="rgb(196,192,196)" stroke="rgb(196,192,196)" stroke-width="1" opacity="0.9882352941176471" d="M 172.5 388 L 173.5 390 L 172.5 388 Z " /><path fill="rgb(196,192,196)" stroke="rgb(196,192,196)" stroke-width="1" opacity="0.9882352941176471" d="M 177.5 391 L 178.5 393 L 177.5 391 Z " /><path fill="rgb(196,192,196)" stroke="rgb(196,192,196)" stroke-width="1" opacity="0.9882352941176471" d="M 202.5 403 Q 218.132 410.368 239 412.5 L 206.5 444 Q 201 449 188.5 447 Q 178.417 443.083 173 434.5 L 203 404.5 L 202.5 403 Z " /><path fill="rgb(230,228,231)" stroke="rgb(230,228,231)" stroke-width="1" opacity="0.9568627450980393" d="M 229.5 154 L 234 156.5 Q 239.568 164.432 239 178.5 Q 238.25 181.75 233.5 181 L 231 180 L 225 158.5 L 227.5 155 L 229.5 154 Z " /><path fill="rgb(230,228,231)" stroke="rgb(230,228,231)" stroke-width="1" opacity="0.9568627450980393" d="M 281.5 154 L 286 156.5 L 287 159.5 L 281 180 L 275.5 181 Q 271.75 179.75 273 173.5 Q 273.673 161.673 279.5 155 L 281.5 154 Z " /><path fill="rgb(230,228,231)" stroke="rgb(230,228,231)" stroke-width="1" opacity="0.9568627450980393" d="M 184.5 180 L 187.5 181 L 202 195.5 Q 203 201 199.5 202 L 195.5 202 L 181 187.5 L 180 184.5 L 182.5 181 L 184.5 180 Z " /><path fill="rgb(230,228,231)" stroke="rgb(230,228,231)" stroke-width="1" opacity="0.9568627450980393" d="M 326.5 180 L 331 182.5 L 332 185.5 L 316.5 202 Q 311 203 310 199.5 L 310 195.5 L 324.5 181 L 326.5 180 Z " /><path fill="rgb(230,228,231)" stroke="rgb(230,228,231)" stroke-width="1" opacity="0.9568627450980393" d="M 298.5 209 L 303 211.5 Q 306.5 228.5 299.5 235 L 294 234 L 292.5 227 L 272.5 246 L 267 239.5 L 285.5 220 L 279 219 L 278 213.5 L 281.5 210 L 297.5 210 L 298.5 209 Z " /><path fill="rgb(230,228,231)" stroke="rgb(230,228,231)" stroke-width="1" opacity="0.9568627450980393" d="M 158.5 225 L 180 231 L 181 235.5 L 178.5 239 Q 164.25 238.25 155 232.5 L 154 229.5 L 156.5 226 L 158.5 225 Z " /><path fill="rgb(230,228,231)" stroke="rgb(230,228,231)" stroke-width="1" opacity="0.9568627450980393" d="M 352.5 225 L 357 227.5 L 358 230.5 L 355.5 234 Q 347.568 239.568 333.5 239 L 331 233.5 L 332 231 L 352.5 225 Z " /><path fill="rgb(230,228,231)" stroke="rgb(230,228,231)" stroke-width="1" opacity="0.9568627450980393" d="M 192.5 251 L 237.5 251 L 238 254.5 L 237 256.5 L 238 261 L 192.5 261 L 188 257.5 Q 187.25 252.75 190.5 252 L 192.5 251 Z " /><path fill="rgb(230,228,231)" stroke="rgb(230,228,231)" stroke-width="1" opacity="0.9568627450980393" d="M 173.5 273 Q 179.75 271.75 181 275.5 L 180 281 L 158.5 287 L 155 284.5 L 154 281.5 L 156.5 278 L 173.5 273 Z " /><path fill="rgb(230,228,231)" stroke="rgb(230,228,231)" stroke-width="1" opacity="0.9568627450980393" d="M 333.5 273 Q 348.25 273.25 357 279.5 L 358 282.5 L 355.5 286 L 352.5 287 L 332 281 L 331 275.5 L 333.5 273 Z " /><path fill="rgb(230,228,231)" stroke="rgb(230,228,231)" stroke-width="1" opacity="0.9568627450980393" d="M 252 275 Q 260.319 273.875 261 275.5 L 261 303.5 L 263 302.5 L 264.5 300 Q 270.75 298.75 272 302.5 Q 269.159 314.659 259.5 320 L 254.5 321 L 242 307.5 L 241 302.5 Q 242 299 247.5 300 L 252 303.5 L 252 275 Z " /><path fill="rgb(230,228,231)" stroke="rgb(230,228,231)" stroke-width="1" opacity="0.9568627450980393" d="M 195.5 310 Q 201 309 202 312.5 L 202 316.5 L 187.5 331 L 184.5 332 L 181 329.5 L 180 326.5 L 195.5 310 Z " /><path fill="rgb(230,228,231)" stroke="rgb(230,228,231)" stroke-width="1" opacity="0.9568627450980393" d="M 312.5 310 L 316.5 310 L 331 324.5 L 332 327.5 L 329.5 331 L 326.5 332 L 310 316.5 Q 309 311 312.5 310 Z " /><path fill="rgb(230,228,231)" stroke="rgb(230,228,231)" stroke-width="1" opacity="0.9568627450980393" d="M 233.5 331 Q 238.25 330.25 239 333.5 Q 238.25 347.75 232.5 357 L 229.5 358 L 226 355.5 L 225 352.5 L 231 332 L 233.5 331 Z " /><path fill="rgb(230,228,231)" stroke="rgb(230,228,231)" stroke-width="1" opacity="0.9568627450980393" d="M 275.5 331 L 281 332 L 287 353.5 L 284.5 357 L 281.5 358 L 278 355.5 Q 272.432 347.568 273 333.5 L 275.5 331 Z " /><path fill="rgb(0,0,0)" stroke="rgb(0,0,0)" stroke-width="1" opacity="0" d="M 0 0 L 415 0.5 L 339.5 76 L 331.5 68 Q 325.5 62 311.5 64 L 304.5 67 L 272.5 99 Q 202.085 96.585 164.5 127 Q 157.209 112.291 134.5 113 Q 121.15 115.65 115 125.5 Q 109.286 132.786 111 147.5 Q 114.752 161.248 125 168.5 Q 96.396 204.896 99 272.5 L 67 304.5 Q 62.2 310.7 64 323.5 Q 67.667 333.833 76 339.5 L 0 414.5 L 0 0 Z " /><path fill="rgb(0,0,0)" stroke="rgb(0,0,0)" stroke-width="1" opacity="0" d="M 423.5 0 L 512 0 L 512 88.5 L 423.5 0 Z " /><path fill="rgb(0,0,0)" stroke="rgb(0,0,0)" stroke-width="1" opacity="0" d="M 511.5 96 L 512 512 L 97 511.5 L 172.5 436 L 180.5 444 Q 186.5 450 200.5 448 L 207.5 445 L 239.5 413 Q 336.145 414.145 376 358.5 Q 415.537 320.037 413 239.5 L 445 207.5 Q 449.8 201.3 448 188.5 Q 444.333 178.167 436 172.5 L 511.5 96 Z " /><path fill="rgb(0,0,0)" stroke="rgb(0,0,0)" stroke-width="1" opacity="0" d="M 0.5 423 L 88.5 512 L 0 512 L 0.5 423 Z " /><path fill="rgb(217,215,218)" stroke="rgb(217,215,218)" stroke-width="1" opacity="0.996078431372549" d="M 248.5 99 L 251 99.5 L 248.5 100 L 248.5 99 Z " /><path fill="rgb(217,215,218)" stroke="rgb(217,215,218)" stroke-width="1" opacity="0.996078431372549" d="M 261.5 99 L 264 99.5 L 261.5 100 L 261.5 99 Z " /><path fill="rgb(217,215,218)" stroke="rgb(217,215,218)" stroke-width="1" opacity="0.996078431372549" d="M 267.5 99 L 275 100.5 L 272.5 101 Q 266.667 101.333 267.5 99 Z " /><path fill="rgb(217,215,218)" stroke="rgb(217,215,218)" stroke-width="1" opacity="0.996078431372549" d="M 227.5 101 L 230 101.5 L 227.5 102 L 227.5 101 Z " /><path fill="rgb(217,215,218)" stroke="rgb(217,215,218)" stroke-width="1" opacity="0.996078431372549" d="M 280.5 101 L 283 101.5 L 280.5 102 L 280.5 101 Z " /><path fill="rgb(217,215,218)" stroke="rgb(217,215,218)" stroke-width="1" opacity="0.996078431372549" d="M 201.5 108 L 200.5 110 L 199 109.5 L 201.5 108 Z " /><path fill="rgb(217,215,218)" stroke="rgb(217,215,218)" stroke-width="1" opacity="0.996078431372549" d="M 189.5 113 L 191 113.5 L 187.5 115 L 187.5 114 L 189.5 113 Z " /><path fill="rgb(217,215,218)" stroke="rgb(217,215,218)" stroke-width="1" opacity="0.996078431372549" d="M 176.5 120 L 175.5 122 L 173.5 123 L 174.5 121 L 176.5 120 Z " /><path fill="rgb(217,215,218)" stroke="rgb(217,215,218)" stroke-width="1" opacity="0.996078431372549" d="M 342.5 125 L 343.5 127 L 342.5 125 Z " /><path fill="rgb(217,215,218)" stroke="rgb(217,215,218)" stroke-width="1" opacity="0.996078431372549" d="M 165.5 127 L 162.5 131 L 165.5 127 Z " /><path fill="rgb(217,215,218)" stroke="rgb(217,215,218)" stroke-width="1" opacity="0.996078431372549" d="M 349.5 130 L 350.5 132 L 349.5 130 Z " /><path fill="rgb(217,215,218)" stroke="rgb(217,215,218)" stroke-width="1" opacity="0.996078431372549" d="M 160.5 131 L 157.5 135 L 160.5 131 Z " /><path fill="rgb(217,215,218)" stroke="rgb(217,215,218)" stroke-width="1" opacity="0.996078431372549" d="M 353.5 133 L 355.5 136 L 353.5 133 Z " /><path fill="rgb(217,215,218)" stroke="rgb(217,215,218)" stroke-width="1" opacity="0.996078431372549" d="M 155.5 135 L 147.5 144 L 155.5 135 Z " /><path fill="rgb(217,215,218)" stroke="rgb(217,215,218)" stroke-width="1" opacity="0.996078431372549" d="M 360.5 139 L 372.5 152 L 360.5 139 Z " /><path fill="rgb(217,215,218)" stroke="rgb(217,215,218)" stroke-width="1" opacity="0.996078431372549" d="M 145.5 144 L 144.5 146 L 145.5 144 Z " /><path fill="rgb(217,215,218)" stroke="rgb(217,215,218)" stroke-width="1" opacity="0.996078431372549" d="M 143.5 147 L 136 155.5 L 131.5 161 L 135 156.5 L 143.5 147 Z " /><path fill="rgb(217,215,218)" stroke="rgb(217,215,218)" stroke-width="1" opacity="0.996078431372549" d="M 376.5 156 L 378.5 159 L 376.5 156 Z " /><path fill="rgb(217,215,218)" stroke="rgb(217,215,218)" stroke-width="1" opacity="0.996078431372549" d="M 179.5 161 L 178.5 163 L 179.5 161 Z " /><path fill="rgb(217,215,218)" stroke="rgb(217,215,218)" stroke-width="1" opacity="0.996078431372549" d="M 332.5 161 L 333.5 163 L 332.5 161 Z " /><path fill="rgb(217,215,218)" stroke="rgb(217,215,218)" stroke-width="1" opacity="0.996078431372549" d="M 380.5 161 L 381.5 163 L 380.5 161 Z " /><path fill="rgb(217,215,218)" stroke="rgb(217,215,218)" stroke-width="1" opacity="0.996078431372549" d="M 130.5 162 L 129 164.5 L 127.5 167 L 128 165.5 L 130.5 162 Z " /><path fill="rgb(217,215,218)" stroke="rgb(217,215,218)" stroke-width="1" opacity="0.996078431372549" d="M 385.5 168 L 386.5 170 L 385.5 168 Z " /><path fill="rgb(217,215,218)" stroke="rgb(217,215,218)" stroke-width="1" opacity="0.996078431372549" d="M 124.5 170 L 123.5 172 L 124.5 170 Z " /><path fill="rgb(217,215,218)" stroke="rgb(217,215,218)" stroke-width="1" opacity="0.996078431372549" d="M 122.5 173 L 121.5 175 L 122.5 173 Z " /><path fill="rgb(217,215,218)" stroke="rgb(217,215,218)" stroke-width="1" opacity="0.996078431372549" d="M 162.5 178 L 161.5 180 L 162.5 178 Z " /><path fill="rgb(217,215,218)" stroke="rgb(217,215,218)" stroke-width="1" opacity="0.996078431372549" d="M 349.5 178 L 350.5 180 L 349.5 178 Z " /><path fill="rgb(217,215,218)" stroke="rgb(217,215,218)" stroke-width="1" opacity="0.996078431372549" d="M 115.5 186 L 115 187.5 L 113.5 190 L 114 188.5 L 115.5 186 Z " /><path fill="rgb(217,215,218)" stroke="rgb(217,215,218)" stroke-width="1" opacity="0.996078431372549" d="M 201.5 200 L 200.5 202 L 201.5 200 Z " /><path fill="rgb(217,215,218)" stroke="rgb(217,215,218)" stroke-width="1" opacity="0.996078431372549" d="M 310.5 200 L 311.5 202 L 310.5 200 Z " /><path fill="rgb(217,215,218)" stroke="rgb(217,215,218)" stroke-width="1" opacity="0.996078431372549" d="M 108.5 202 L 109 203.5 L 107.5 206 L 107 204.5 L 108.5 202 Z " /><path fill="rgb(217,215,218)" stroke="rgb(217,215,218)" stroke-width="1" opacity="0.996078431372549" d="M 104.5 214 L 105 216.5 L 103 217.5 L 104.5 214 Z " /><path fill="rgb(217,215,218)" stroke="rgb(217,215,218)" stroke-width="1" opacity="0.996078431372549" d="M 410.5 230 L 411 232.5 L 410 232.5 L 410.5 230 Z " /><path fill="rgb(217,215,218)" stroke="rgb(217,215,218)" stroke-width="1" opacity="0.996078431372549" d="M 411.5 237 L 412 239.5 L 411 239.5 L 411.5 237 Z " /><path fill="rgb(217,215,218)" stroke="rgb(217,215,218)" stroke-width="1" opacity="0.996078431372549" d="M 99.5 241 L 100 243.5 L 99 243.5 L 99.5 241 Z " /><path fill="rgb(217,215,218)" stroke="rgb(217,215,218)" stroke-width="1" opacity="0.996078431372549" d="M 267.5 241 L 271.5 246 L 267.5 241 Z " /><path fill="rgb(217,215,218)" stroke="rgb(217,215,218)" stroke-width="1" opacity="0.996078431372549" d="M 412.5 241 L 413 244.5 L 412 244.5 L 412.5 241 Z " /><path fill="rgb(217,215,218)" stroke="rgb(217,215,218)" stroke-width="1" opacity="0.996078431372549" d="M 99.5 245 L 100 249.5 L 99 249.5 L 99.5 245 Z " /><path fill="rgb(217,215,218)" stroke="rgb(217,215,218)" stroke-width="1" opacity="0.996078431372549" d="M 99.5 251 L 100 253.5 L 99 253.5 L 99.5 251 Z " /><path fill="rgb(217,215,218)" stroke="rgb(217,215,218)" stroke-width="1" opacity="0.996078431372549" d="M 99.5 258 L 100 260.5 L 99 260.5 L 99.5 258 Z " /><path fill="rgb(217,215,218)" stroke="rgb(217,215,218)" stroke-width="1" opacity="0.996078431372549" d="M 99.5 266 L 100 269.5 L 99 269.5 L 99.5 266 Z " /><path fill="rgb(217,215,218)" stroke="rgb(217,215,218)" stroke-width="1" opacity="0.996078431372549" d="M 100.5 272 L 101 274.5 L 100 274.5 L 100.5 272 Z " /><path fill="rgb(217,215,218)" stroke="rgb(217,215,218)" stroke-width="1" opacity="0.996078431372549" d="M 410.5 282 L 411 284.5 L 410 284.5 L 410.5 282 Z " /><path fill="rgb(217,215,218)" stroke="rgb(217,215,218)" stroke-width="1" opacity="0.996078431372549" d="M 407.5 295 L 408 297.5 L 407 297.5 L 407.5 295 Z " /><path fill="rgb(217,215,218)" stroke="rgb(217,215,218)" stroke-width="1" opacity="0.996078431372549" d="M 405.5 304 L 404.5 306 L 405.5 304 Z " /><path fill="rgb(217,215,218)" stroke="rgb(217,215,218)" stroke-width="1" opacity="0.996078431372549" d="M 200.5 310 L 201.5 312 L 200.5 310 Z " /><path fill="rgb(217,215,218)" stroke="rgb(217,215,218)" stroke-width="1" opacity="0.996078431372549" d="M 311.5 310 L 310.5 312 L 311.5 310 Z " /><path fill="rgb(217,215,218)" stroke="rgb(217,215,218)" stroke-width="1" opacity="0.996078431372549" d="M 401.5 315 L 401 316.5 L 399.5 320 L 399 318.5 L 401.5 315 Z " /><path fill="rgb(217,215,218)" stroke="rgb(217,215,218)" stroke-width="1" opacity="0.996078431372549" d="M 396.5 326 L 396 327.5 L 393.5 332 L 394 330.5 L 396.5 326 Z " /><path fill="rgb(217,215,218)" stroke="rgb(217,215,218)" stroke-width="1" opacity="0.996078431372549" d="M 158.5 328 L 159.5 330 L 158.5 328 Z " /><path fill="rgb(217,215,218)" stroke="rgb(217,215,218)" stroke-width="1" opacity="0.996078431372549" d="M 353.5 328 L 352.5 330 L 353.5 328 Z " /><path fill="rgb(217,215,218)" stroke="rgb(217,215,218)" stroke-width="1" opacity="0.996078431372549" d="M 161.5 332 L 163.5 335 L 161.5 332 Z " /><path fill="rgb(217,215,218)" stroke="rgb(217,215,218)" stroke-width="1" opacity="0.996078431372549" d="M 350.5 332 L 348.5 335 L 350.5 332 Z " /><path fill="rgb(217,215,218)" stroke="rgb(217,215,218)" stroke-width="1" opacity="0.996078431372549" d="M 391.5 334 L 392 335.5 L 390 336.5 L 391.5 334 Z " /><path fill="rgb(217,215,218)" stroke="rgb(217,215,218)" stroke-width="1" opacity="0.996078431372549" d="M 389.5 338 L 389 339.5 L 388.5 341 L 388 339.5 L 389.5 338 Z " /><path fill="rgb(217,215,218)" stroke="rgb(217,215,218)" stroke-width="1" opacity="0.996078431372549" d="M 125.5 342 L 126.5 344 L 125.5 342 Z " /><path fill="rgb(217,215,218)" stroke="rgb(217,215,218)" stroke-width="1" opacity="0.996078431372549" d="M 384.5 346 L 383.5 348 L 384.5 346 Z " /><path fill="rgb(217,215,218)" stroke="rgb(217,215,218)" stroke-width="1" opacity="0.996078431372549" d="M 177.5 348 L 179.5 351 L 177.5 348 Z " /><path fill="rgb(217,215,218)" stroke="rgb(217,215,218)" stroke-width="1" opacity="0.996078431372549" d="M 334.5 348 L 332.5 351 L 334.5 348 Z " /><path fill="rgb(217,215,218)" stroke="rgb(217,215,218)" stroke-width="1" opacity="0.996078431372549" d="M 130.5 349 L 131.5 351 L 130.5 349 Z " /><path fill="rgb(217,215,218)" stroke="rgb(217,215,218)" stroke-width="1" opacity="0.996078431372549" d="M 382.5 349 L 380.5 352 L 382.5 349 Z " /><path fill="rgb(217,215,218)" stroke="rgb(217,215,218)" stroke-width="1" opacity="0.996078431372549" d="M 134.5 354 L 135.5 356 L 134.5 354 Z " /><path fill="rgb(217,215,218)" stroke="rgb(217,215,218)" stroke-width="1" opacity="0.996078431372549" d="M 376.5 356 L 374.5 359 L 376.5 356 Z " /><path fill="rgb(217,215,218)" stroke="rgb(217,215,218)" stroke-width="1" opacity="0.996078431372549" d="M 139.5 360 L 151.5 373 L 139.5 360 Z " /><path fill="rgb(217,215,218)" stroke="rgb(217,215,218)" stroke-width="1" opacity="0.996078431372549" d="M 371.5 362 L 369.5 365 L 371.5 362 Z " /><path fill="rgb(217,215,218)" stroke="rgb(217,215,218)" stroke-width="1" opacity="0.996078431372549" d="M 367.5 366 L 361.5 373 L 367.5 366 Z " /><path fill="rgb(217,215,218)" stroke="rgb(217,215,218)" stroke-width="1" opacity="0.996078431372549" d="M 156.5 376 L 157.5 378 L 156.5 376 Z " /><path fill="rgb(217,215,218)" stroke="rgb(217,215,218)" stroke-width="1" opacity="0.996078431372549" d="M 161.5 380 L 162.5 382 L 161.5 380 Z " /><path fill="rgb(217,215,218)" stroke="rgb(217,215,218)" stroke-width="1" opacity="0.996078431372549" d="M 168.5 385 L 169.5 387 L 168.5 385 Z " /><path fill="rgb(217,215,218)" stroke="rgb(217,215,218)" stroke-width="1" opacity="0.996078431372549" d="M 341.5 387 L 343 387.5 L 340.5 389 L 341.5 387 Z " /><path fill="rgb(217,215,218)" stroke="rgb(217,215,218)" stroke-width="1" opacity="0.996078431372549" d="M 338.5 389 L 337.5 391 L 335.5 392 L 336.5 390 L 338.5 389 Z " /><path fill="rgb(217,215,218)" stroke="rgb(217,215,218)" stroke-width="1" opacity="0.996078431372549" d="M 331.5 393 L 333 393.5 L 330.5 395 L 331.5 393 Z " /><path fill="rgb(217,215,218)" stroke="rgb(217,215,218)" stroke-width="1" opacity="0.996078431372549" d="M 323.5 397 L 325 397.5 L 320.5 400 L 321.5 398 L 323.5 397 Z " /><path fill="rgb(217,215,218)" stroke="rgb(217,215,218)" stroke-width="1" opacity="0.996078431372549" d="M 291.5 408 L 290.5 410 L 288 409.5 L 291.5 408 Z " /><path fill="rgb(217,215,218)" stroke="rgb(217,215,218)" stroke-width="1" opacity="0.996078431372549" d="M 237.5 411 L 240 411.5 L 237.5 412 L 237.5 411 Z " /><path fill="rgb(217,215,218)" stroke="rgb(217,215,218)" stroke-width="1" opacity="0.996078431372549" d="M 241.5 412 L 246 412.5 L 241.5 413 L 241.5 412 Z " /><path fill="rgb(217,215,218)" stroke="rgb(217,215,218)" stroke-width="1" opacity="0.996078431372549" d="M 247.5 412 L 251 412.5 L 247.5 413 L 247.5 412 Z " /><path fill="rgb(217,215,218)" stroke="rgb(217,215,218)" stroke-width="1" opacity="0.996078431372549" d="M 266.5 412 L 270 412.5 L 266.5 413 L 266.5 412 Z " /><path fill="rgb(202,200,203)" stroke="rgb(202,200,203)" stroke-width="1" opacity="0.8862745098039215" d="M 311.5 64 Q 333.899 62.101 340 76.5 L 338.5 77 Q 333.667 62.333 311.5 65 L 305.5 68 L 272.5 100 L 303.5 68 L 311.5 64 Z " /><path fill="rgb(202,200,203)" stroke="rgb(202,200,203)" stroke-width="1" opacity="0.8862745098039215" d="M 134.5 113 L 143 113.5 Q 125.292 113.292 118 123.5 Q 110 130.5 112 147.5 Q 116.135 160.865 127 167.5 L 125.5 168 Q 109.72 160.28 111 135.5 Q 113.643 123.643 122.5 118 L 134.5 113 Z " /><path fill="rgb(202,200,203)" stroke="rgb(202,200,203)" stroke-width="1" opacity="0.8862745098039215" d="M 144.5 114 Q 159.496 116.004 165 127.5 L 157.5 121 Q 154.562 114.438 144.5 115 L 144.5 114 Z " /><path fill="rgb(202,200,203)" stroke="rgb(202,200,203)" stroke-width="1" opacity="0.8862745098039215" d="M 487.5 119 L 488 120.5 L 479.5 128 L 479.5 127 L 487 120.5 L 487.5 119 Z " /><path fill="rgb(202,200,203)" stroke="rgb(202,200,203)" stroke-width="1" opacity="0.8862745098039215" d="M 435.5 172 Q 449.899 178.101 448 200.5 L 444 208.5 L 412.5 240 L 419 232.5 L 446 203.5 Q 448.5 198 447 188.5 Q 443.25 178.75 435 173.5 L 435.5 172 Z " /><path fill="rgb(202,200,203)" stroke="rgb(202,200,203)" stroke-width="1" opacity="0.8862745098039215" d="M 99.5 271 L 100 272.5 L 68 305.5 Q 64.375 309.375 64.5 317 L 64 311.5 L 68 303.5 L 99.5 271 Z " /><path fill="rgb(202,200,203)" stroke="rgb(202,200,203)" stroke-width="1" opacity="0.8862745098039215" d="M 64.5 318 Q 66.664 332.836 77 339.5 L 69 332.5 Q 62.345 327.988 64.5 318 Z " /><path fill="rgb(202,200,203)" stroke="rgb(202,200,203)" stroke-width="1" opacity="0.8862745098039215" d="M 239.5 412 L 208.5 444 Q 202.5 450 188.5 448 Q 178.179 443.821 172 435.5 L 173.5 435 Q 178.333 449.667 200.5 447 L 206.5 444 L 239.5 412 Z " /><path fill="rgb(202,200,203)" stroke="rgb(202,200,203)" stroke-width="1" opacity="0.8862745098039215" d="M 127.5 479 L 128 480.5 L 119.5 488 L 119.5 487 L 127 480.5 L 127.5 479 Z " /><path fill="rgb(218,216,219)" stroke="rgb(218,216,219)" stroke-width="1" opacity="1" d="M 242.5 99 L 244.5 100 L 248.5 100 L 260.5 99 L 263.5 100 L 267.5 100 Q 340.65 108.85 376 155.5 Q 405.792 189.208 413 245.5 L 412 247.5 L 413 252.5 L 413 254.5 L 412 256.5 L 413 259.5 L 412 266.5 L 412 270.5 Q 413.25 275.25 411 276.5 L 411 278.5 L 406 303.5 L 404 305.5 L 404 307.5 L 393 334 Q 390.333 332.875 391 335.5 L 390.5 338 L 388 339.5 L 388 341.5 L 378 356 L 374 358.5 L 372.5 362 L 369 364.5 Q 369.75 366.75 367.5 366 L 360.5 374 L 359 373.5 L 359 375 Q 353.811 374.455 353.5 379 L 346 384 Q 347.125 386.667 344.5 386 Q 324.185 400.185 297.5 408 L 295.5 408 L 292.5 409 L 290.5 409 L 283.5 411 L 281.5 410 L 276.5 412 L 274.5 411 L 270.5 413 L 266.5 412 L 262.5 412 Q 259 414.5 251.5 413 L 247.5 412 L 245.5 412 L 240.5 413 L 240 411 Q 170.832 401.391 136 356.5 Q 107.396 323.604 99 270.5 L 100 266.5 L 99 264.5 L 100 262.5 L 100 260.5 L 99 254.5 L 100 251.5 L 100 249.5 L 99 244.5 L 101 237.5 L 101 233.5 L 102 230.5 L 102 228.5 Q 101.805 217.805 106 211.5 L 105.5 210 L 107 209.5 L 107 207.5 L 109 202.5 Q 106.5 201 110 199.5 Q 109.333 194.208 112 193.5 L 116 186.5 L 115.5 185 Q 118.125 185.833 117 182.5 Q 129.38 160.88 146.5 144 Q 163.915 123.518 191 114 Q 189.875 111.333 192.5 112 L 195.5 111 Q 198.833 112.125 198 109.5 L 199.5 110 L 211.5 105 L 213.5 105 L 218.5 103 Q 220 105.5 221.5 102 L 223.5 103 L 233.5 100 L 235.5 100 Q 241 101.5 242.5 99 Z M 242 135 Q 203 141 180 161 Q 144 188 135 242 Q 132 303 161 333 Q 188 368 242 377 Q 303 380 333 351 Q 368 324 377 271 Q 379 210 351 180 Q 320 134 242 135 Z " /><path fill="rgb(218,216,219)" stroke="rgb(218,216,219)" stroke-width="1" opacity="1" d="M 279.5 211 L 278.5 213 L 279.5 211 Z " /><path fill="rgb(218,216,219)" stroke="rgb(218,216,219)" stroke-width="1" opacity="1" d="M 248.5 300 L 249.5 302 L 248.5 300 Z " /><path fill="rgb(218,216,219)" stroke="rgb(218,216,219)" stroke-width="1" opacity="1" d="M 262.5 302 L 261.5 304 L 262.5 302 Z " /><path fill="rgb(218,216,219)" stroke="rgb(218,216,219)" stroke-width="1" opacity="1" d="M 249.5 315 L 250.5 317 L 249.5 315 Z " /><path fill="rgb(218,216,219)" stroke="rgb(218,216,219)" stroke-width="1" opacity="1" d="M 262.5 316 L 261.5 318 L 262.5 316 Z " /><path fill="rgb(161,121,109)" stroke="rgb(161,121,109)" stroke-width="1" opacity="0.9921568627450981" d="M 415.5 0 L 422.5 0 L 512 89.5 L 511 97.5 L 488.5 120 L 392 23.5 L 415.5 0 Z " /><path fill="rgb(161,121,109)" stroke="rgb(161,121,109)" stroke-width="1" opacity="0.9921568627450981" d="M 390.5 25 L 384 32.5 L 480 128.5 L 436.5 172 L 404.5 203 Q 391.022 167.978 366.5 144 Q 342.941 120.559 309 107.5 L 390.5 25 Z " /><path fill="rgb(161,121,109)" stroke="rgb(161,121,109)" stroke-width="1" opacity="0.9921568627450981" d="M 243.5 135 Q 315.721 133.779 346 174.5 Q 376.757 204.243 377 264.5 Q 370.993 315.993 340.5 343 Q 310.454 376.954 246.5 377 Q 196.722 370.604 170 342 Q 134.751 311.454 135 244.5 Q 142.577 193.077 174.5 166 Q 199.827 141.327 243.5 135 Z M 229 154 L 226 155 L 225 158 Q 225 171 230 179 Q 231 182 238 181 L 240 178 L 234 155 L 229 154 Z M 280 154 L 277 157 L 272 175 L 273 180 Q 274 182 280 181 Q 286 174 287 162 L 286 155 L 280 154 Z M 183 180 L 180 183 L 181 189 L 197 203 L 201 202 L 203 199 L 202 195 L 189 181 L 183 180 Z M 326 180 L 324 181 L 309 197 L 310 201 L 314 203 L 318 202 L 331 189 L 332 183 Q 331 179 326 180 Z M 290 209 Q 287 212 281 210 L 277 215 L 278 218 Q 279 221 285 220 L 266 240 L 261 238 Q 250 237 246 241 L 239 250 L 239 251 L 191 251 Q 187 252 188 259 L 191 261 L 238 261 L 242 269 L 251 274 L 251 302 Q 250 298 244 299 L 240 304 Q 245 314 254 321 Q 259 322 261 320 L 272 307 L 272 302 L 269 299 Q 263 298 263 302 L 262 274 L 269 271 L 275 261 Q 276 252 273 249 L 293 228 L 293 233 Q 294 236 301 235 L 303 233 L 304 213 Q 301 206 290 209 Z M 158 225 L 155 226 L 154 229 L 155 234 L 175 240 L 180 239 Q 182 238 181 233 Q 173 225 158 225 Z M 351 225 L 334 230 Q 330 231 331 238 L 335 240 Q 348 239 357 234 L 358 232 L 357 226 L 351 225 Z M 175 272 L 157 277 L 154 280 L 155 286 L 158 287 Q 171 287 179 282 Q 182 281 181 275 Q 180 271 175 272 Z M 335 272 L 333 273 Q 330 274 331 280 Q 338 286 351 287 L 357 286 L 358 284 L 357 278 Q 348 273 335 272 Z M 197 309 L 195 310 L 180 326 Q 179 331 183 332 L 189 331 L 203 316 L 202 312 L 197 309 Z M 314 309 L 312 310 L 309 314 L 310 318 L 326 332 Q 331 333 332 330 L 331 324 L 318 310 L 314 309 Z M 233 331 Q 226 338 225 351 L 226 357 L 229 358 L 234 357 L 240 338 L 239 333 Q 238 330 233 331 Z M 275 331 L 272 335 L 278 357 L 281 358 L 286 357 L 287 355 Q 287 341 282 334 Q 281 330 275 331 Z " /><path fill="rgb(161,121,109)" stroke="rgb(161,121,109)" stroke-width="1" opacity="0.9921568627450981" d="M 107.5 309 Q 120.978 344.022 145.5 368 Q 169.059 391.441 203 404.5 L 128.5 480 L 32 383.5 L 75.5 340 L 107.5 309 Z " /><path fill="rgb(161,121,109)" stroke="rgb(161,121,109)" stroke-width="1" opacity="0.9921568627450981" d="M 30.5 385 L 24 392.5 L 120 488.5 L 96.5 512 L 89.5 512 L 0 422.5 L 0 415.5 L 30.5 385 Z " /></svg>