<svg width="512" height="512" version="1.1" xmlns="http://www.w3.org/2000/svg" desc="Created with imagetracer.js version 1.2.6" ><path fill="rgb(0,0,0)" stroke="rgb(0,0,0)" stroke-width="1" opacity="0" d="M 0 0 L 215 0.5 L 207 6.5 Q 199.909 19.909 204 44.5 L 208.5 51 L 221 52 Q 224.125 65.025 218.5 70 L 178.5 96 L 173 101.5 Q 166.4 111.9 170 132.5 Q 172 144.5 178 152.5 L 171 157.5 L 170 159.5 L 170 249.5 L 173.5 255 L 178 256 Q 166.966 269.776 170 298.5 L 172 309.5 Q 179.368 322.132 183 338.5 L 183 358.5 L 170 411.5 L 170 482.5 Q 172.652 497.348 182.5 505 Q 187.547 509.953 196 511.5 L 0 512 L 0 0 Z " /><path fill="rgb(0,0,0)" stroke="rgb(0,0,0)" stroke-width="1" opacity="0" d="M 297.5 0 L 512 0 L 512 512 L 316 511.5 Q 327.862 508.862 334 500.5 Q 340.275 493.775 342 482.5 L 342 411.5 L 329 358.5 L 329 338.5 Q 332.632 322.132 340 309.5 Q 343.692 295.692 342 276.5 Q 339.679 264.189 334 256 Q 338.875 256.083 341 252.5 L 342 249.5 L 342 159.5 L 337.5 154 L 334 152.5 Q 345.429 137.929 342 108.5 Q 339.85 100.15 333.5 96 L 292 68.5 Q 288.5 62.95 291 52 Q 302.77 54.045 307 47.5 L 308 44.5 L 308 14.5 Q 306.523 5.977 300.5 2 Q 296.75 1.75 297.5 0 Z " /><path fill="rgb(122,199,248)" stroke="rgb(122,199,248)" stroke-width="1" opacity="0.9882352941176471" d="M 267 52 L 290 52 L 290 66.5 L 293.5 71 L 333.5 97 L 338 101.5 L 341 107.5 L 341 133.5 Q 338.706 144.706 333 152.5 Q 338.625 153.375 341 157.5 L 342 159.5 L 342 188 Q 319.634 183.482 311 193.5 Q 306 197.5 307 207.5 Q 308.85 215.15 314.5 219 Q 323.969 225.15 342 222 L 342 249.5 L 338.5 255 L 333 256 Q 338.748 262.66 340 274.5 L 342 276.5 L 341 282 L 318.5 282 Q 317.375 281.875 318 276.5 Q 315.185 264.612 310 256 L 175.5 256 L 171 252.5 L 170 249.5 L 170 222 Q 193.879 226.583 202 214.5 Q 205.9 210.4 205 201.5 L 199.5 192 Q 190.562 183.818 170 188 L 170 159.5 L 174.5 154 L 178.5 153 L 179.5 154 L 308.5 154 Q 321.958 139.958 318 108.5 Q 316.15 100.85 310.5 97 L 268 68.5 Q 264.5 62.95 267 52 Z M 252 188 L 247 190 Q 241 194 239 201 Q 237 212 243 217 L 253 222 Q 261 223 265 220 Q 271 216 273 209 Q 274 199 270 195 Q 266 186 252 188 Z " /><path fill="rgb(122,199,248)" stroke="rgb(122,199,248)" stroke-width="1" opacity="0.9882352941176471" d="M 318 298 L 340.5 298 L 341 299.5 L 338 311.5 L 338.5 313 Q 335.875 312.167 337 315.5 L 334 323 L 328.5 323 L 307.5 332 L 307 330.5 Q 315.603 316.741 318 298 Z " /><path fill="rgb(122,199,248)" stroke="rgb(122,199,248)" stroke-width="1" opacity="0.9882352941176471" d="M 327.5 341 Q 326.376 359.624 332 371.5 L 310 380 Q 304.074 367.344 305 349 Q 317.477 346.744 327.5 341 Z " /><path fill="rgb(122,199,248)" stroke="rgb(122,199,248)" stroke-width="1" opacity="0.9882352941176471" d="M 334.5 388 Q 337.125 387.167 336 390.5 Q 342.042 402.058 341 419 L 337.5 419 L 318 427 Q 319.5 409.25 315 396.5 L 334.5 388 Z " /><path fill="rgb(122,199,248)" stroke="rgb(122,199,248)" stroke-width="1" opacity="0.9882352941176471" d="M 339.5 436 L 341 436.5 L 341 470 L 318 470 L 318 445.5 L 339.5 436 Z " /><path fill="rgb(122,199,248)" stroke="rgb(122,199,248)" stroke-width="1" opacity="0.9882352941176471" d="M 317 486 L 339.5 486 L 340 487.5 Q 335.917 499.417 326.5 506 Q 314.591 514.591 291.5 512 L 291.5 511 Q 305.717 508.217 312 497.5 L 317 486 Z " /><path fill="rgb(208,240,252)" stroke="rgb(208,240,252)" stroke-width="1" opacity="0.9921568627450981" d="M 271.5 0 Q 290.694 -2.556 301 2 Q 299.875 4.667 302.5 4 Q 307.388 8.112 308 16.5 L 307 17.5 L 307 43.5 L 307 45.5 L 304.5 50 L 299.5 52 Q 297.437 49 291 51 Q 287.667 64.74 293.5 70 L 333.5 96 L 339 101.5 L 340 103.5 L 338 102.5 L 333.5 97 L 291 68.5 Q 287.5 62.95 290 52 L 267 52 L 267 66.5 L 270.5 71 L 310.5 97 L 315 101.5 Q 321.75 112.25 318 133.5 Q 315.274 145.774 308.5 154 L 179.5 154 L 177 151.5 Q 166.769 136.731 170 108.5 Q 172.15 100.15 178.5 96 L 220 68.5 Q 223.333 63.333 221 52.5 L 222.5 51 L 231 51 L 231 32.5 L 235.5 27 L 239.5 26 L 246 30.5 Q 250.167 37.373 247 51 L 265 51 L 265 32.5 L 269.5 27 L 273.5 26 L 280 30.5 Q 283.62 36.38 281.5 48 L 283 46.5 L 283 11.5 L 275.5 2 Q 270.7 2.05 271.5 0 Z " /><path fill="rgb(208,240,252)" stroke="rgb(208,240,252)" stroke-width="1" opacity="0.9921568627450981" d="M 341.5 108 L 342 132.5 L 341 132.5 L 341.5 108 Z " /><path fill="rgb(208,240,252)" stroke="rgb(208,240,252)" stroke-width="1" opacity="0.9921568627450981" d="M 340.5 134 L 341 137.5 L 340 137.5 L 340.5 134 Z " /><path fill="rgb(208,240,252)" stroke="rgb(208,240,252)" stroke-width="1" opacity="0.9921568627450981" d="M 339.5 139 L 340 140.5 L 338.5 143 L 338 141.5 L 339.5 139 Z " /><path fill="rgb(208,240,252)" stroke="rgb(208,240,252)" stroke-width="1" opacity="0.9921568627450981" d="M 337.5 144 L 338 145.5 L 333.5 153 L 334 151.5 L 337.5 144 Z " /><path fill="rgb(208,240,252)" stroke="rgb(208,240,252)" stroke-width="1" opacity="0.9921568627450981" d="M 319.5 188 L 342 188 L 342 222 Q 326.446 224.625 317 220.5 L 318 219.5 L 318 190.5 L 317.5 189 L 319.5 188 Z " /><path fill="rgb(208,240,252)" stroke="rgb(208,240,252)" stroke-width="1" opacity="0.9921568627450981" d="M 246.5 190 L 242.5 195 L 246.5 190 Z " /><path fill="rgb(208,240,252)" stroke="rgb(208,240,252)" stroke-width="1" opacity="0.9921568627450981" d="M 266.5 191 L 269.5 195 L 266.5 191 Z " /><path fill="rgb(208,240,252)" stroke="rgb(208,240,252)" stroke-width="1" opacity="0.9921568627450981" d="M 313.5 191 L 311.5 194 L 313.5 191 Z " /><path fill="rgb(208,240,252)" stroke="rgb(208,240,252)" stroke-width="1" opacity="0.9921568627450981" d="M 199.5 192 L 200.5 194 L 199.5 192 Z " /><path fill="rgb(208,240,252)" stroke="rgb(208,240,252)" stroke-width="1" opacity="0.9921568627450981" d="M 204.5 201 L 205 207.5 L 204 207.5 L 204.5 201 Z " /><path fill="rgb(208,240,252)" stroke="rgb(208,240,252)" stroke-width="1" opacity="0.9921568627450981" d="M 307.5 201 L 308 207.5 L 307 207.5 L 307.5 201 Z " /><path fill="rgb(208,240,252)" stroke="rgb(208,240,252)" stroke-width="1" opacity="0.9921568627450981" d="M 243.5 216 L 244.5 218 L 243.5 216 Z " /><path fill="rgb(208,240,252)" stroke="rgb(208,240,252)" stroke-width="1" opacity="0.9921568627450981" d="M 170.5 221 L 192 221.5 L 170.5 222 L 170.5 221 Z " /><path fill="rgb(208,240,252)" stroke="rgb(208,240,252)" stroke-width="1" opacity="0.9921568627450981" d="M 252.5 221 L 255 221.5 L 252.5 222 L 252.5 221 Z " /><path fill="rgb(208,240,252)" stroke="rgb(208,240,252)" stroke-width="1" opacity="0.9921568627450981" d="M 257.5 221 L 260 221.5 L 257.5 222 L 257.5 221 Z " /><path fill="rgb(208,240,252)" stroke="rgb(208,240,252)" stroke-width="1" opacity="0.9921568627450981" d="M 178 256 L 309.5 256 L 310 257.5 Q 317.75 266.75 318 282 L 340.5 282 Q 341.5 282 341 277.5 L 342 277.5 Q 342.625 282.875 341.5 283 L 317.5 283 L 316.5 282 L 170 282 Q 170.487 265.918 178 256 Z " /><path fill="rgb(208,240,252)" stroke="rgb(208,240,252)" stroke-width="1" opacity="0.9921568627450981" d="M 333.5 256 L 340 270.5 L 339 270.5 L 333 257.5 L 333.5 256 Z " /><path fill="rgb(208,240,252)" stroke="rgb(208,240,252)" stroke-width="1" opacity="0.9921568627450981" d="M 340.5 272 L 341 274.5 L 340 274.5 L 340.5 272 Z " /><path fill="rgb(208,240,252)" stroke="rgb(208,240,252)" stroke-width="1" opacity="0.9921568627450981" d="M 171 298 L 317.5 298 L 318 299.5 Q 314.488 318.626 307 333 L 296.5 334 Q 280 330.5 267.5 323 Q 260 320.5 248.5 322 L 220.5 333 L 211.5 334 Q 196.334 330.666 184.5 324 L 178 324 Q 171.5 314 171 298 Z " /><path fill="rgb(208,240,252)" stroke="rgb(208,240,252)" stroke-width="1" opacity="0.9921568627450981" d="M 340.5 300 L 341 304.5 L 340 304.5 L 340.5 300 Z " /><path fill="rgb(208,240,252)" stroke="rgb(208,240,252)" stroke-width="1" opacity="0.9921568627450981" d="M 339.5 306 L 340 308.5 L 339 308.5 L 339.5 306 Z " /><path fill="rgb(208,240,252)" stroke="rgb(208,240,252)" stroke-width="1" opacity="0.9921568627450981" d="M 337.5 313 L 338 315.5 L 334.5 322 L 334 320.5 L 337.5 313 Z " /><path fill="rgb(208,240,252)" stroke="rgb(208,240,252)" stroke-width="1" opacity="0.9921568627450981" d="M 328.5 323 L 334 323.5 L 328.5 324 L 328.5 323 Z " /><path fill="rgb(208,240,252)" stroke="rgb(208,240,252)" stroke-width="1" opacity="0.9921568627450981" d="M 252.5 337 L 263.5 338 Q 276 345.5 292.5 349 L 303.5 349 L 306.5 348 L 306.5 349 Q 302.75 348.75 305 358.5 L 310 380 L 312 380.5 L 298.5 384 Q 297 381.5 291.5 383 L 263.5 372 L 248.5 372 Q 232.557 380.057 212.5 384 Q 193.392 380.608 180 371.5 Q 184.571 358.571 183.5 340 Q 196.083 349.917 219.5 349 L 252.5 337 Z " /><path fill="rgb(208,240,252)" stroke="rgb(208,240,252)" stroke-width="1" opacity="0.9921568627450981" d="M 328.5 339 L 329 357.5 L 328 357.5 L 327.5 341 L 325.5 342 L 325.5 341 L 328.5 339 Z " /><path fill="rgb(208,240,252)" stroke="rgb(208,240,252)" stroke-width="1" opacity="0.9921568627450981" d="M 322.5 342 L 324 342.5 L 320.5 344 L 320.5 343 L 322.5 342 Z " /><path fill="rgb(208,240,252)" stroke="rgb(208,240,252)" stroke-width="1" opacity="0.9921568627450981" d="M 317.5 344 L 319 344.5 L 315.5 346 L 315.5 345 L 317.5 344 Z " /><path fill="rgb(208,240,252)" stroke="rgb(208,240,252)" stroke-width="1" opacity="0.9921568627450981" d="M 308.5 347 L 311 347.5 L 308.5 348 L 308.5 347 Z " /><path fill="rgb(208,240,252)" stroke="rgb(208,240,252)" stroke-width="1" opacity="0.9921568627450981" d="M 329.5 359 L 330 362.5 L 329 362.5 L 329.5 359 Z " /><path fill="rgb(208,240,252)" stroke="rgb(208,240,252)" stroke-width="1" opacity="0.9921568627450981" d="M 330.5 364 L 331 366.5 L 330 366.5 L 330.5 364 Z " /><path fill="rgb(208,240,252)" stroke="rgb(208,240,252)" stroke-width="1" opacity="0.9921568627450981" d="M 331.5 368 L 332 370.5 L 331 370.5 L 331.5 368 Z " /><path fill="rgb(208,240,252)" stroke="rgb(208,240,252)" stroke-width="1" opacity="0.9921568627450981" d="M 330.5 372 L 332 372.5 L 328.5 374 L 328.5 373 L 330.5 372 Z " /><path fill="rgb(208,240,252)" stroke="rgb(208,240,252)" stroke-width="1" opacity="0.9921568627450981" d="M 325.5 374 L 327 374.5 L 323.5 376 L 323.5 375 L 325.5 374 Z " /><path fill="rgb(208,240,252)" stroke="rgb(208,240,252)" stroke-width="1" opacity="0.9921568627450981" d="M 320.5 376 L 322 376.5 L 318.5 378 L 318.5 377 L 320.5 376 Z " /><path fill="rgb(208,240,252)" stroke="rgb(208,240,252)" stroke-width="1" opacity="0.9921568627450981" d="M 315.5 378 L 317 378.5 L 313.5 380 L 313.5 379 L 315.5 378 Z " /><path fill="rgb(208,240,252)" stroke="rgb(208,240,252)" stroke-width="1" opacity="0.9921568627450981" d="M 176.5 387 Q 191.372 399.128 218.5 399 Q 236.711 394.711 251.5 387 L 260.5 387 L 288.5 398 L 303.5 399 Q 311.245 398.745 315.5 395 L 315 396.5 Q 319.116 409.884 319 427.5 Q 310.15 434.65 292.5 433 L 263.5 422 L 247.5 422 L 219.5 433 L 207.5 433 Q 190.451 423.118 170 419 Q 169.806 400.165 176.5 387 Z " /><path fill="rgb(208,240,252)" stroke="rgb(208,240,252)" stroke-width="1" opacity="0.9921568627450981" d="M 334.5 387 L 337 388.5 L 336.5 391 L 336 388 L 332.5 389 L 332.5 388 L 334.5 387 Z " /><path fill="rgb(208,240,252)" stroke="rgb(208,240,252)" stroke-width="1" opacity="0.9921568627450981" d="M 337.5 392 L 338 394.5 L 337 394.5 L 337.5 392 Z " /><path fill="rgb(208,240,252)" stroke="rgb(208,240,252)" stroke-width="1" opacity="0.9921568627450981" d="M 338.5 396 L 339 398.5 L 338 398.5 L 338.5 396 Z " /><path fill="rgb(208,240,252)" stroke="rgb(208,240,252)" stroke-width="1" opacity="0.9921568627450981" d="M 339.5 400 L 341 408.5 L 340 408.5 L 339.5 400 Z " /><path fill="rgb(208,240,252)" stroke="rgb(208,240,252)" stroke-width="1" opacity="0.9921568627450981" d="M 341.5 411 L 342 419.5 L 341 419.5 L 341.5 411 Z " /><path fill="rgb(208,240,252)" stroke="rgb(208,240,252)" stroke-width="1" opacity="0.9921568627450981" d="M 337.5 419 L 340 419.5 L 335.5 421 L 335.5 420 L 337.5 419 Z " /><path fill="rgb(208,240,252)" stroke="rgb(208,240,252)" stroke-width="1" opacity="0.9921568627450981" d="M 332.5 421 L 334 421.5 L 330.5 423 L 330.5 422 L 332.5 421 Z " /><path fill="rgb(208,240,252)" stroke="rgb(208,240,252)" stroke-width="1" opacity="0.9921568627450981" d="M 327.5 423 L 329 423.5 L 325.5 425 L 325.5 424 L 327.5 423 Z " /><path fill="rgb(208,240,252)" stroke="rgb(208,240,252)" stroke-width="1" opacity="0.9921568627450981" d="M 341.5 434 L 342 470.5 L 341 470.5 L 341 436.5 L 339.5 436 L 337.5 437 L 337.5 436 L 341.5 434 Z " /><path fill="rgb(208,240,252)" stroke="rgb(208,240,252)" stroke-width="1" opacity="0.9921568627450981" d="M 170 435 L 203.5 448 L 217.5 449 Q 234.708 445.708 247.5 438 L 260.5 437 L 285.5 447 Q 292.682 449.818 303.5 449 L 320.5 443 L 320.5 444 L 318 445.5 L 318 469.5 L 317.5 470 L 170 470 L 170 435 Z " /><path fill="rgb(208,240,252)" stroke="rgb(208,240,252)" stroke-width="1" opacity="0.9921568627450981" d="M 334.5 437 L 336 437.5 L 332.5 439 L 332.5 438 L 334.5 437 Z " /><path fill="rgb(208,240,252)" stroke="rgb(208,240,252)" stroke-width="1" opacity="0.9921568627450981" d="M 329.5 439 L 331 439.5 L 327.5 441 L 327.5 440 L 329.5 439 Z " /><path fill="rgb(208,240,252)" stroke="rgb(208,240,252)" stroke-width="1" opacity="0.9921568627450981" d="M 324.5 441 L 326 441.5 L 322.5 443 L 322.5 442 L 324.5 441 Z " /><path fill="rgb(208,240,252)" stroke="rgb(208,240,252)" stroke-width="1" opacity="0.9921568627450981" d="M 316.5 485 L 340.5 485 L 341 486.5 L 339.5 486 L 317.5 486 L 317 487.5 Q 312.583 500.083 302.5 507 L 290.5 512 L 196.5 512 Q 184.973 508.527 178 500.5 L 171 486.5 L 315.5 486 L 316.5 485 Z " /><path fill="rgb(208,240,252)" stroke="rgb(208,240,252)" stroke-width="1" opacity="0.9921568627450981" d="M 339.5 488 L 340 490.5 Q 336.756 498.756 330.5 504 Q 324.15 511.15 311.5 512 L 311.5 511 Q 328.38 509.38 335 497.5 L 339.5 488 Z " /><path fill="rgb(237,248,252)" stroke="rgb(237,248,252)" stroke-width="1" opacity="0.984313725490196" d="M 215.5 0 L 270.5 0 Q 277.679 1.821 281 7.5 L 283 11.5 L 283 46.5 L 281 47.5 Q 284.375 31.625 276.5 27 L 272.5 26 L 266 30.5 Q 261.833 37.373 265 51 L 247 51 L 247 32.5 L 242.5 27 L 238.5 26 L 232 30.5 Q 227.833 37.373 231 51 L 211.5 52 L 205 47.5 L 204 44.5 L 204 14.5 Q 205.477 5.977 211.5 2 L 215.5 0 Z " /><path fill="rgb(237,248,252)" stroke="rgb(237,248,252)" stroke-width="1" opacity="0.984313725490196" d="M 307.5 17 L 308 43.5 L 307 43.5 L 307.5 17 Z " /><path fill="rgb(237,248,252)" stroke="rgb(237,248,252)" stroke-width="1" opacity="0.984313725490196" d="M 291.5 51 L 299 51.5 L 291.5 52 L 291.5 51 Z " /><path fill="rgb(237,248,252)" stroke="rgb(237,248,252)" stroke-width="1" opacity="0.984313725490196" d="M 170 188 Q 193.419 183.855 202 195.5 Q 205.667 199.833 204 209.5 L 198.5 218 Q 189.236 224.833 170 221 L 170 188 Z " /><path fill="rgb(237,248,252)" stroke="rgb(237,248,252)" stroke-width="1" opacity="0.984313725490196" d="M 252.5 188 Q 266.851 187.149 271 196.5 L 273 206.5 Q 271.523 215.023 265.5 219 L 255.5 222 Q 246.125 220.875 242 214.5 Q 238.25 210.75 239 202.5 Q 240.625 193.625 247.5 190 L 252.5 188 Z " /><path fill="rgb(237,248,252)" stroke="rgb(237,248,252)" stroke-width="1" opacity="0.984313725490196" d="M 316.5 190 L 318 190.5 L 318 220 L 311 215.5 Q 306.333 210.667 308 199.5 L 314.5 191 L 316.5 190 Z " /><path fill="rgb(237,248,252)" stroke="rgb(237,248,252)" stroke-width="1" opacity="0.984313725490196" d="M 170 282 Q 260.537 279.278 342 283 L 342 297.5 L 341.5 298 L 171.5 298 L 170 298.5 L 170 282 Z " /><path fill="rgb(237,248,252)" stroke="rgb(237,248,252)" stroke-width="1" opacity="0.984313725490196" d="M 248.5 322 L 263.5 322 L 291.5 333 L 300.5 334 Q 316.329 331.329 327.5 324 L 333.5 324 L 333 325.5 Q 333.05 336.55 326.5 341 Q 314.919 350.419 292.5 349 Q 276 345.5 263.5 338 L 252.5 337 L 223.5 348 L 207.5 349 Q 193.338 346.163 183 339.5 Q 182.015 330.485 178 324.5 L 184.5 324 Q 196.098 332.902 215.5 334 L 248.5 322 Z " /><path fill="rgb(237,248,252)" stroke="rgb(237,248,252)" stroke-width="1" opacity="0.984313725490196" d="M 179 372 Q 193.117 380.798 213.5 384 Q 232.767 379.767 248.5 372 L 263.5 372 L 291.5 383 L 299.5 384 Q 318.186 380.186 332.5 372 L 336 387 Q 320.624 398.469 293.5 399 Q 275.289 394.711 260.5 387 L 251.5 387 L 223.5 398 L 208.5 399 Q 190.167 394.833 176 386.5 L 179 372 Z " /><path fill="rgb(237,248,252)" stroke="rgb(237,248,252)" stroke-width="1" opacity="0.984313725490196" d="M 170 419 Q 188.59 422.592 203.5 432 L 219.5 433 L 247.5 422 L 263.5 422 L 292.5 433 L 304.5 433 L 340.5 419 Q 345.25 422.25 342 433.5 Q 327.814 443.314 308.5 448 L 294.5 449 Q 277.292 445.708 264.5 438 L 251.5 437 Q 235.107 448.107 208.5 449 Q 187.114 443.796 170 435 L 170 419 Z " /><path fill="rgb(237,248,252)" stroke="rgb(237,248,252)" stroke-width="1" opacity="0.984313725490196" d="M 170 470 L 340.5 470 L 342 471.5 Q 343.375 481.062 341 485 Q 260.481 488.685 171 486 Q 168.7 480.354 170 470 Z " /><path fill="rgb(237,248,252)" stroke="rgb(237,248,252)" stroke-width="1" opacity="0.984313725490196" d="M 181.5 503 L 182.5 505 L 181.5 503 Z " /></svg>