<svg width="512" height="512" version="1.1" xmlns="http://www.w3.org/2000/svg" desc="Created with imagetracer.js version 1.2.6" ><path fill="rgb(0,0,0)" stroke="rgb(0,0,0)" stroke-width="1" opacity="0" d="M 0 0 L 512 0 L 512 287.5 L 511 287.5 Q 507.821 271.679 496.5 264 L 485.5 258 L 429.5 237 L 424 232.5 L 424.5 230 L 461.5 230 Q 472.396 227.396 478 219.5 Q 483.101 212.601 483 200.5 Q 480.657 186.343 472 178.5 Q 475 175.5 474 168.5 Q 471.85 160.15 465.5 156 L 462 155 Q 465.039 105.196 437.5 85 Q 422.75 69.75 390.5 72 Q 365.95 76.45 353 92.5 Q 343.293 102.793 339 118.5 Q 334.917 132.917 337 153.5 L 335.5 155 L 332.5 157 L 329 151.5 Q 330.957 123.043 326 101.5 Q 318.793 79.207 302.5 66 Q 284.563 47.437 245.5 50 Q 214.827 55.827 199 76.5 Q 178.397 99.897 183.5 149 Q 180.1 104.4 154.5 82 Q 143.852 70.148 120.5 71 L 110.5 73 Q 103.9 70.1 93.5 71 Q 72.646 74.646 62 88.5 Q 41.786 111.786 39 152.5 Q 39.377 184.623 47 209.5 L 53.5 218 L 58.5 220 L 88 220 Q 90.625 231.958 84.5 236 L 26.5 258 Q 14.25 262.75 7 272.5 Q 2.25 278.75 0.5 288 L 0 0 Z " /><path fill="rgb(0,0,0)" stroke="rgb(0,0,0)" stroke-width="1" opacity="0" d="M 183.5 164 L 184 227.5 L 186 231 L 193.5 234 L 226 234 Q 228.083 243.433 223.5 247 Q 212.224 255.224 194.5 257 L 140.5 236 L 138 233.5 L 138 220 L 164.5 220 Q 170.964 218.464 174 213.5 Q 181.874 191.874 183.5 164 Z " /><path fill="rgb(0,0,0)" stroke="rgb(0,0,0)" stroke-width="1" opacity="0" d="M 328.5 226 L 336.5 230 L 374 230 Q 375 233.813 372.5 235 L 317.5 257 L 313.5 257 Q 298.102 253.398 287 245.5 Q 284.333 241.592 286 234 L 318.5 234 Q 324.375 233.375 327 229.5 L 328.5 226 Z " /><path fill="rgb(0,0,0)" stroke="rgb(0,0,0)" stroke-width="1" opacity="0" d="M 0.5 405 L 4.5 411 L 10.5 414 L 119 414 Q 114.921 442.834 124 458 L 135.5 463 L 376.5 463 Q 384.311 462.174 388 458 Q 391.799 454.08 393 446.5 L 393 414 L 501.5 414 L 509 409.5 L 511.5 405 L 512 512 L 0.5 512 L 0 511.5 L 0.5 405 Z " /><path fill="rgb(246,183,156)" stroke="rgb(246,183,156)" stroke-width="1" opacity="0.996078431372549" d="M 268.5 113 L 273.5 114 Q 281.443 123.057 292.5 129 L 307 135.5 L 308 137.5 L 308 187.5 Q 304.226 209.726 289.5 221 L 285 224.5 L 285 244.5 L 286.5 245 L 287.5 248 L 289.5 247 L 289.5 249 L 291.5 248 L 294 249 L 294.5 251 Q 296 248.5 297.5 252 L 302 253 L 294.5 264 L 288 269.5 L 282.5 277 L 275 281 Q 276.125 283.667 273.5 283 Q 267.418 287.418 257.5 288 L 254.5 287 L 252.5 288 L 234 282 Q 235.125 279.333 232.5 280 L 229 277.5 L 225.5 273 L 220 268.5 Q 221.75 271.55 223.5 269 Q 240.917 266.417 251 256.5 L 251 233.5 L 248.5 233 Q 226.819 229.181 216 214.5 Q 200.366 198.134 204 162.5 L 207.5 158 Q 245.179 142.679 268.5 113 Z " /><path fill="rgb(246,183,156)" stroke="rgb(246,183,156)" stroke-width="1" opacity="0.996078431372549" d="M 112.5 116 Q 114.75 115.25 114 117.5 Q 119.675 132.325 131.5 141 Q 141.332 148.668 156 151.5 Q 159 175.5 155 192.5 Q 150.417 206.917 139.5 215 L 137 216.5 Q 139.3 223.2 138 233.5 L 140.5 236 L 153 240.5 L 130.5 264 Q 122.688 271.188 105.5 269 Q 89.125 264.375 81 251.5 L 72 241.5 Q 81.736 239.736 87 233.5 Q 90.5 228 88 216.5 Q 76.167 208.333 71 193.5 L 70 189.5 L 69 152.5 L 70 150 Q 93.427 146.706 105 130.5 L 112.5 116 Z " /><path fill="rgb(246,183,156)" stroke="rgb(246,183,156)" stroke-width="1" opacity="0.996078431372549" d="M 329.5 154 Q 332.833 158.167 332 166.5 L 329.5 172 L 329.5 154 Z " /><path fill="rgb(246,183,156)" stroke="rgb(246,183,156)" stroke-width="1" opacity="0.996078431372549" d="M 133.5 287 L 132.5 289 L 133.5 287 Z " /><path fill="rgb(68,82,97)" stroke="rgb(68,82,97)" stroke-width="1" opacity="0.9882352941176471" d="M 245.5 50 Q 294.816 47.684 313 76.5 Q 333.736 100.992 329 150 Q 322.718 142.178 308 143 Q 309.75 135 304.5 133 L 291.5 128 L 272.5 113 L 268.5 113 L 265 115.5 L 253.5 128 Q 232.34 147.84 204 160.5 Q 198.899 204.601 221.5 221 L 226 224.5 Q 227.125 233.375 225.5 234 L 193.5 234 L 186 231 L 184 227.5 L 183.5 164 Q 182.085 189.085 176 209.5 L 169.5 218 L 164.5 220 L 137 220 Q 150.002 208.715 156 189.5 L 156 150 Q 132.573 146.706 121 130.5 L 113.5 116 L 111 117.5 Q 107.375 130.875 97.5 138 Q 86.494 147.994 69 151.5 Q 62.843 196.657 84.5 214 L 88 216.5 L 87.5 220 L 58.5 220 Q 52.036 218.464 49 213.5 Q 39.686 187.314 39 152.5 Q 42.439 105.939 68.5 82 Q 79.148 70.148 102.5 71 L 113.5 73 Q 119.5 70 129.5 71 Q 151.181 74.819 162 89.5 Q 180.607 111.393 183.5 149 Q 177.737 88.737 209.5 66 Q 223.29 53.79 245.5 50 Z " /><path fill="rgb(68,82,97)" stroke="rgb(68,82,97)" stroke-width="1" opacity="0.9882352941176471" d="M 390.5 72 Q 432.3 70.7 448 95.5 Q 464.629 116.135 462 155 Q 468.1 155.85 471 161.5 Q 474.9 165.6 474 174.5 L 472 181.5 Q 483.042 187.958 483 205.5 Q 480.964 218.464 472.5 225 L 461.5 230 L 424 230 L 424 215.5 L 425.5 214 L 431 209.5 Q 438.094 202.094 441 190.5 Q 444.333 168.333 442 140.5 L 441 138 Q 431.1 136.55 426 129.5 L 422.5 125 Q 413.051 137.338 390 135 Q 387.4 145.275 378.5 151 Q 369.14 157.64 355 159.5 Q 349.767 201.733 372.5 216 L 375 217.5 Q 376.5 229 374.5 230 L 336.5 230 L 328.5 226 L 326 231 L 318.5 234 L 286 234 Q 283.5 222.725 290.5 220 L 295 216.5 Q 307.803 205.4 308 183 Q 324.125 185.125 329 174.5 Q 333.833 169.333 332 157.5 L 334.5 155 L 337 153.5 Q 333.277 104.777 359.5 86 Q 371.309 75.309 390.5 72 Z " /><path fill="rgb(251,116,184)" stroke="rgb(251,116,184)" stroke-width="1" opacity="0.9921568627450981" d="M 356.5 241 Q 361.5 240.5 362 244.5 L 380.5 264 Q 388.313 271.188 405.5 269 Q 417.37 265.87 424 257.5 L 438.5 241 L 444.5 242 L 485.5 258 Q 497.103 262.397 504 271.5 Q 509.683 278.317 512 288.5 L 512 404.5 L 507.5 411 L 501.5 414 L 392 414 L 392 314.5 Q 388.325 292.175 372.5 282 L 362.5 276 L 315 257.5 L 356.5 241 Z " /><path fill="rgb(253,187,57)" stroke="rgb(253,187,57)" stroke-width="1" opacity="0.9921568627450981" d="M 70.5 241 L 81 250.5 L 91.5 262 Q 99.667 271.333 119.5 269 Q 137.156 263.156 146 248.5 L 152.5 241 L 155.5 241 L 197 257.5 L 148.5 276 Q 138.028 281.028 131 289.5 Q 122.525 298.025 120 312.5 L 120 414 L 10.5 414 L 3 409.5 L 0 404.5 L 0 288.5 Q 3.837 272.337 15.5 264 Q 40.104 249.604 70.5 241 Z " /><path fill="rgb(221,141,103)" stroke="rgb(221,141,103)" stroke-width="1" opacity="0.9921568627450981" d="M 266.5 114 L 265.5 116 L 266.5 114 Z " /><path fill="rgb(221,141,103)" stroke="rgb(221,141,103)" stroke-width="1" opacity="0.9921568627450981" d="M 275.5 115 L 278.5 119 L 275.5 115 Z " /><path fill="rgb(221,141,103)" stroke="rgb(221,141,103)" stroke-width="1" opacity="0.9921568627450981" d="M 283.5 122 L 284.5 124 L 283.5 122 Z " /><path fill="rgb(221,141,103)" stroke="rgb(221,141,103)" stroke-width="1" opacity="0.9921568627450981" d="M 420.5 125 Q 425.5 124.5 426 128.5 L 430.5 134 L 441 138 L 442 140.5 L 442 182.5 Q 439.895 203.895 426.5 214 L 424 215.5 Q 421.875 229.188 425 235 L 439 240.5 L 420.5 261 Q 412.435 271.435 391.5 269 Q 371.781 262.219 362 245.5 L 359 240 Q 369.088 239.662 374 233.5 L 375 217.5 L 363 206.5 Q 350.852 191.148 355 159.5 Q 375.022 157.022 385 144.5 L 390 135 Q 412.498 137.761 420.5 125 Z " /><path fill="rgb(221,141,103)" stroke="rgb(221,141,103)" stroke-width="1" opacity="0.9921568627450981" d="M 252.5 128 L 248.5 133 L 252.5 128 Z " /><path fill="rgb(221,141,103)" stroke="rgb(221,141,103)" stroke-width="1" opacity="0.9921568627450981" d="M 243.5 136 L 242.5 138 L 243.5 136 Z " /><path fill="rgb(221,141,103)" stroke="rgb(221,141,103)" stroke-width="1" opacity="0.9921568627450981" d="M 239.5 139 L 238.5 141 L 239.5 139 Z " /><path fill="rgb(221,141,103)" stroke="rgb(221,141,103)" stroke-width="1" opacity="0.9921568627450981" d="M 235.5 142 L 234.5 144 L 235.5 142 Z " /><path fill="rgb(221,141,103)" stroke="rgb(221,141,103)" stroke-width="1" opacity="0.9921568627450981" d="M 308 143 Q 322.718 142.178 329 150 Q 331.738 152.97 332 159.5 L 331 159.5 L 329.5 154 L 329 171.5 L 330 171.5 L 330.5 170 L 331 171.5 L 323.5 180 Q 318.442 184.667 308 183 L 308 143 Z " /><path fill="rgb(221,141,103)" stroke="rgb(221,141,103)" stroke-width="1" opacity="0.9921568627450981" d="M 232.5 144 L 231.5 146 L 232.5 144 Z " /><path fill="rgb(221,141,103)" stroke="rgb(221,141,103)" stroke-width="1" opacity="0.9921568627450981" d="M 229.5 146 L 228.5 148 L 229.5 146 Z " /><path fill="rgb(221,141,103)" stroke="rgb(221,141,103)" stroke-width="1" opacity="0.9921568627450981" d="M 224.5 149 L 223.5 151 L 221.5 152 L 222.5 150 L 224.5 149 Z " /><path fill="rgb(221,141,103)" stroke="rgb(221,141,103)" stroke-width="1" opacity="0.9921568627450981" d="M 206.5 158 L 205 160.5 L 204.5 162 L 204 160.5 L 206.5 158 Z " /><path fill="rgb(221,141,103)" stroke="rgb(221,141,103)" stroke-width="1" opacity="0.9921568627450981" d="M 69.5 165 L 70 183.5 L 69 183.5 L 69.5 165 Z " /><path fill="rgb(221,141,103)" stroke="rgb(221,141,103)" stroke-width="1" opacity="0.9921568627450981" d="M 204.5 185 L 205 190.5 L 204 190.5 L 204.5 185 Z " /><path fill="rgb(221,141,103)" stroke="rgb(221,141,103)" stroke-width="1" opacity="0.9921568627450981" d="M 307.5 188 L 308 190.5 L 307 190.5 L 307.5 188 Z " /><path fill="rgb(221,141,103)" stroke="rgb(221,141,103)" stroke-width="1" opacity="0.9921568627450981" d="M 79.5 208 L 84.5 214 L 79.5 208 Z " /><path fill="rgb(221,141,103)" stroke="rgb(221,141,103)" stroke-width="1" opacity="0.9921568627450981" d="M 212.5 210 L 215.5 214 L 212.5 210 Z " /><path fill="rgb(221,141,103)" stroke="rgb(221,141,103)" stroke-width="1" opacity="0.9921568627450981" d="M 298.5 211 L 297.5 213 L 298.5 211 Z " /><path fill="rgb(221,141,103)" stroke="rgb(221,141,103)" stroke-width="1" opacity="0.9921568627450981" d="M 138.5 215 L 137.5 217 L 138.5 215 Z " /><path fill="rgb(221,141,103)" stroke="rgb(221,141,103)" stroke-width="1" opacity="0.9921568627450981" d="M 217.5 216 L 221.5 221 L 217.5 216 Z " /><path fill="rgb(221,141,103)" stroke="rgb(221,141,103)" stroke-width="1" opacity="0.9921568627450981" d="M 294.5 216 L 291.5 220 L 294.5 216 Z " /><path fill="rgb(221,141,103)" stroke="rgb(221,141,103)" stroke-width="1" opacity="0.9921568627450981" d="M 288.5 221 L 286 224.5 L 286 243.5 L 287 244.5 L 285 245 L 285 224.5 L 288.5 221 Z " /><path fill="rgb(221,141,103)" stroke="rgb(221,141,103)" stroke-width="1" opacity="0.9921568627450981" d="M 224.5 222 Q 233.998 231.704 251 233 L 251 256.5 L 247.5 260 L 222.5 270 Q 211.821 263.786 208 253 Q 218.726 250.898 226 244.5 L 226 224.5 L 224.5 222 Z " /><path fill="rgb(221,141,103)" stroke="rgb(221,141,103)" stroke-width="1" opacity="0.9921568627450981" d="M 286.5 246 Q 288.75 245.25 288 247.5 L 286.5 246 Z " /><path fill="rgb(221,141,103)" stroke="rgb(221,141,103)" stroke-width="1" opacity="0.9921568627450981" d="M 296.5 250 L 303 253.5 L 298.5 259 L 302 254.5 Q 302.833 251.875 299.5 253 L 296.5 250 Z " /><path fill="rgb(221,141,103)" stroke="rgb(221,141,103)" stroke-width="1" opacity="0.9921568627450981" d="M 293.5 264 L 288.5 270 L 293.5 264 Z " /><path fill="rgb(221,141,103)" stroke="rgb(221,141,103)" stroke-width="1" opacity="0.9921568627450981" d="M 225.5 273 L 228.5 277 L 225.5 273 Z " /><path fill="rgb(221,141,103)" stroke="rgb(221,141,103)" stroke-width="1" opacity="0.9921568627450981" d="M 278.5 279 L 277.5 281 L 278.5 279 Z " /><path fill="rgb(221,141,103)" stroke="rgb(221,141,103)" stroke-width="1" opacity="0.9921568627450981" d="M 137.5 283 L 136.5 285 L 137.5 283 Z " /><path fill="rgb(221,141,103)" stroke="rgb(221,141,103)" stroke-width="1" opacity="0.9921568627450981" d="M 254.5 287 L 257 287.5 L 254.5 288 L 254.5 287 Z " /><path fill="rgb(65,136,254)" stroke="rgb(65,136,254)" stroke-width="1" opacity="0.9921568627450981" d="M 304.5 253 L 315 257 Q 313.75 260 317.5 259 L 325 262.5 L 296.5 294 Q 281.831 308.831 253.5 310 Q 221.149 306.351 206 285.5 L 186 263.5 L 186 262 L 197 259 Q 195.875 256.333 198.5 257 L 206.5 254 L 226 274.5 L 226 276 Q 236.486 289.293 262.5 288 Q 282.141 282.641 292 267.5 L 304.5 253 Z " /><path fill="rgb(65,136,254)" stroke="rgb(65,136,254)" stroke-width="1" opacity="0.9921568627450981" d="M 165.5 270 L 167 270.5 Q 154.036 280.036 150 298.5 L 150 450.5 L 156.5 459 L 165 462.5 L 135.5 463 Q 126.25 461.25 122 454.5 Q 115.893 439.107 119 414.5 L 120 413.5 L 120 316.5 Q 123.459 293.959 138.5 283 Q 150.283 274.783 165.5 270 Z " /><path fill="rgb(65,136,254)" stroke="rgb(65,136,254)" stroke-width="1" opacity="0.9921568627450981" d="M 171.5 350 Q 179.094 348.906 181 353.5 L 182 356.5 L 182 461.5 Q 178.446 466.5 167 463 L 167 355.5 L 171.5 350 Z " /><path fill="rgb(65,136,254)" stroke="rgb(65,136,254)" stroke-width="1" opacity="0.9921568627450981" d="M 335.5 350 Q 343.75 348.75 345 354.5 L 345 462.5 Q 343.875 464.625 331.5 463 L 330 461.5 L 330 357.5 L 333.5 351 L 335.5 350 Z " /><path fill="rgb(99,160,251)" stroke="rgb(99,160,251)" stroke-width="1" opacity="0.9921568627450981" d="M 302.5 255 L 297.5 261 L 302.5 255 Z " /><path fill="rgb(99,160,251)" stroke="rgb(99,160,251)" stroke-width="1" opacity="0.9921568627450981" d="M 185.5 262 L 216.5 296 Q 230.5 309 256.5 310 Q 286.561 307.561 301 289.5 L 325.5 262 L 366.5 278 L 383 292.5 Q 390.017 300.983 392 314.5 Q 390.544 382.456 393 446.5 L 388 458 Q 384.08 461.799 376.5 463 L 345 463 L 345 354.5 L 340.5 350 Q 333.958 348.958 332 352.5 L 330 357.5 L 330 461.5 L 330.5 463 L 181 462.5 L 182 461.5 L 182 356.5 L 178.5 351 L 171.5 350 L 167 355.5 L 167 463 Q 156.929 461.921 152 454.5 L 150 450.5 L 150 298.5 Q 154.613 279.443 167 269 Q 177.875 267.486 185.5 262 Z " /><path fill="rgb(99,160,251)" stroke="rgb(99,160,251)" stroke-width="1" opacity="0.9921568627450981" d="M 214.5 262 L 218.5 267 L 214.5 262 Z " /><path fill="rgb(99,160,251)" stroke="rgb(99,160,251)" stroke-width="1" opacity="0.9921568627450981" d="M 291.5 267 L 287.5 272 L 291.5 267 Z " /><path fill="rgb(99,160,251)" stroke="rgb(99,160,251)" stroke-width="1" opacity="0.9921568627450981" d="M 280.5 278 L 278.5 281 L 280.5 278 Z " /><path fill="rgb(99,160,251)" stroke="rgb(99,160,251)" stroke-width="1" opacity="0.9921568627450981" d="M 143.5 279 L 142.5 281 L 143.5 279 Z " /><path fill="rgb(99,160,251)" stroke="rgb(99,160,251)" stroke-width="1" opacity="0.9921568627450981" d="M 231.5 279 L 233.5 282 L 231.5 279 Z " /><path fill="rgb(99,160,251)" stroke="rgb(99,160,251)" stroke-width="1" opacity="0.9921568627450981" d="M 140.5 281 L 139.5 283 L 140.5 281 Z " /><path fill="rgb(99,160,251)" stroke="rgb(99,160,251)" stroke-width="1" opacity="0.9921568627450981" d="M 248.5 287 L 251 287.5 L 248.5 288 L 248.5 287 Z " /><path fill="rgb(99,160,251)" stroke="rgb(99,160,251)" stroke-width="1" opacity="0.9921568627450981" d="M 260.5 287 L 263 287.5 L 260.5 288 L 260.5 287 Z " /><path fill="rgb(99,160,251)" stroke="rgb(99,160,251)" stroke-width="1" opacity="0.9921568627450981" d="M 120.5 313 L 121 315.5 L 120 315.5 L 120.5 313 Z " /></svg>